G04 #@! TF.GenerationSoftware,KiCad,Pcbnew,8.0.3*
G04 #@! TF.CreationDate,2025-02-18T22:17:21+09:00*
G04 #@! TF.ProjectId,F767ZI_MB_V1.2,46373637-5a49-45f4-9d42-5f56312e322e,rev?*
G04 #@! TF.SameCoordinates,Original*
G04 #@! TF.FileFunction,Legend,Bot*
G04 #@! TF.FilePolarity,Positive*
%FSLAX46Y46*%
G04 Gerber Fmt 4.6, Leading zero omitted, Abs format (unit mm)*
G04 Created by KiCad (PCBNEW 8.0.3) date 2025-02-18 22:17:21*
%MOMM*%
%LPD*%
G01*
G04 APERTURE LIST*
G04 Aperture macros list*
%AMRoundRect*
0 Rectangle with rounded corners*
0 $1 Rounding radius*
0 $2 $3 $4 $5 $6 $7 $8 $9 X,Y pos of 4 corners*
0 Add a 4 corners polygon primitive as box body*
4,1,4,$2,$3,$4,$5,$6,$7,$8,$9,$2,$3,0*
0 Add four circle primitives for the rounded corners*
1,1,$1+$1,$2,$3*
1,1,$1+$1,$4,$5*
1,1,$1+$1,$6,$7*
1,1,$1+$1,$8,$9*
0 Add four rect primitives between the rounded corners*
20,1,$1+$1,$2,$3,$4,$5,0*
20,1,$1+$1,$4,$5,$6,$7,0*
20,1,$1+$1,$6,$7,$8,$9,0*
20,1,$1+$1,$8,$9,$2,$3,0*%
G04 Aperture macros list end*
%ADD10C,0.150000*%
%ADD11C,0.200000*%
%ADD12C,0.000000*%
%ADD13C,0.120000*%
%ADD14R,1.700000X1.700000*%
%ADD15O,1.700000X1.700000*%
%ADD16C,1.600000*%
%ADD17O,1.600000X1.600000*%
%ADD18R,1.000000X1.500000*%
%ADD19O,1.000000X1.500000*%
%ADD20C,6.204000*%
%ADD21RoundRect,0.102000X-3.000000X-3.000000X3.000000X-3.000000X3.000000X3.000000X-3.000000X3.000000X0*%
%ADD22RoundRect,0.102000X3.000000X-3.000000X3.000000X3.000000X-3.000000X3.000000X-3.000000X-3.000000X0*%
G04 APERTURE END LIST*
D10*
X135419875Y-94771207D02*
X134943684Y-94437874D01*
X135419875Y-94199779D02*
X134419875Y-94199779D01*
X134419875Y-94199779D02*
X134419875Y-94580731D01*
X134419875Y-94580731D02*
X134467494Y-94675969D01*
X134467494Y-94675969D02*
X134515113Y-94723588D01*
X134515113Y-94723588D02*
X134610351Y-94771207D01*
X134610351Y-94771207D02*
X134753208Y-94771207D01*
X134753208Y-94771207D02*
X134848446Y-94723588D01*
X134848446Y-94723588D02*
X134896065Y-94675969D01*
X134896065Y-94675969D02*
X134943684Y-94580731D01*
X134943684Y-94580731D02*
X134943684Y-94199779D01*
X135419875Y-95723588D02*
X135419875Y-95152160D01*
X135419875Y-95437874D02*
X134419875Y-95437874D01*
X134419875Y-95437874D02*
X134562732Y-95342636D01*
X134562732Y-95342636D02*
X134657970Y-95247398D01*
X134657970Y-95247398D02*
X134705589Y-95152160D01*
X135038922Y-96152160D02*
X135038922Y-96914065D01*
X135419875Y-97961683D02*
X134943684Y-97628350D01*
X135419875Y-97390255D02*
X134419875Y-97390255D01*
X134419875Y-97390255D02*
X134419875Y-97771207D01*
X134419875Y-97771207D02*
X134467494Y-97866445D01*
X134467494Y-97866445D02*
X134515113Y-97914064D01*
X134515113Y-97914064D02*
X134610351Y-97961683D01*
X134610351Y-97961683D02*
X134753208Y-97961683D01*
X134753208Y-97961683D02*
X134848446Y-97914064D01*
X134848446Y-97914064D02*
X134896065Y-97866445D01*
X134896065Y-97866445D02*
X134943684Y-97771207D01*
X134943684Y-97771207D02*
X134943684Y-97390255D01*
X134848446Y-98533112D02*
X134800827Y-98437874D01*
X134800827Y-98437874D02*
X134753208Y-98390255D01*
X134753208Y-98390255D02*
X134657970Y-98342636D01*
X134657970Y-98342636D02*
X134610351Y-98342636D01*
X134610351Y-98342636D02*
X134515113Y-98390255D01*
X134515113Y-98390255D02*
X134467494Y-98437874D01*
X134467494Y-98437874D02*
X134419875Y-98533112D01*
X134419875Y-98533112D02*
X134419875Y-98723588D01*
X134419875Y-98723588D02*
X134467494Y-98818826D01*
X134467494Y-98818826D02*
X134515113Y-98866445D01*
X134515113Y-98866445D02*
X134610351Y-98914064D01*
X134610351Y-98914064D02*
X134657970Y-98914064D01*
X134657970Y-98914064D02*
X134753208Y-98866445D01*
X134753208Y-98866445D02*
X134800827Y-98818826D01*
X134800827Y-98818826D02*
X134848446Y-98723588D01*
X134848446Y-98723588D02*
X134848446Y-98533112D01*
X134848446Y-98533112D02*
X134896065Y-98437874D01*
X134896065Y-98437874D02*
X134943684Y-98390255D01*
X134943684Y-98390255D02*
X135038922Y-98342636D01*
X135038922Y-98342636D02*
X135229398Y-98342636D01*
X135229398Y-98342636D02*
X135324636Y-98390255D01*
X135324636Y-98390255D02*
X135372256Y-98437874D01*
X135372256Y-98437874D02*
X135419875Y-98533112D01*
X135419875Y-98533112D02*
X135419875Y-98723588D01*
X135419875Y-98723588D02*
X135372256Y-98818826D01*
X135372256Y-98818826D02*
X135324636Y-98866445D01*
X135324636Y-98866445D02*
X135229398Y-98914064D01*
X135229398Y-98914064D02*
X135038922Y-98914064D01*
X135038922Y-98914064D02*
X134943684Y-98866445D01*
X134943684Y-98866445D02*
X134896065Y-98818826D01*
X134896065Y-98818826D02*
X134848446Y-98723588D01*
X135324636Y-99342636D02*
X135372256Y-99390255D01*
X135372256Y-99390255D02*
X135419875Y-99342636D01*
X135419875Y-99342636D02*
X135372256Y-99295017D01*
X135372256Y-99295017D02*
X135324636Y-99342636D01*
X135324636Y-99342636D02*
X135419875Y-99342636D01*
X134800827Y-99342636D02*
X134848446Y-99390255D01*
X134848446Y-99390255D02*
X134896065Y-99342636D01*
X134896065Y-99342636D02*
X134848446Y-99295017D01*
X134848446Y-99295017D02*
X134800827Y-99342636D01*
X134800827Y-99342636D02*
X134896065Y-99342636D01*
X134515113Y-100533112D02*
X134467494Y-100580731D01*
X134467494Y-100580731D02*
X134419875Y-100675969D01*
X134419875Y-100675969D02*
X134419875Y-100914064D01*
X134419875Y-100914064D02*
X134467494Y-101009302D01*
X134467494Y-101009302D02*
X134515113Y-101056921D01*
X134515113Y-101056921D02*
X134610351Y-101104540D01*
X134610351Y-101104540D02*
X134705589Y-101104540D01*
X134705589Y-101104540D02*
X134848446Y-101056921D01*
X134848446Y-101056921D02*
X135419875Y-100485493D01*
X135419875Y-100485493D02*
X135419875Y-101104540D01*
X135038922Y-101390255D02*
X134991303Y-101437874D01*
X134991303Y-101437874D02*
X134943684Y-101533112D01*
X134943684Y-101533112D02*
X135038922Y-101723588D01*
X135038922Y-101723588D02*
X134991303Y-101818826D01*
X134991303Y-101818826D02*
X134943684Y-101866445D01*
X135419875Y-102771207D02*
X135419875Y-102199779D01*
X135419875Y-102485493D02*
X134419875Y-102485493D01*
X134419875Y-102485493D02*
X134562732Y-102390255D01*
X134562732Y-102390255D02*
X134657970Y-102295017D01*
X134657970Y-102295017D02*
X134705589Y-102199779D01*
X134419875Y-103390255D02*
X134419875Y-103485493D01*
X134419875Y-103485493D02*
X134467494Y-103580731D01*
X134467494Y-103580731D02*
X134515113Y-103628350D01*
X134515113Y-103628350D02*
X134610351Y-103675969D01*
X134610351Y-103675969D02*
X134800827Y-103723588D01*
X134800827Y-103723588D02*
X135038922Y-103723588D01*
X135038922Y-103723588D02*
X135229398Y-103675969D01*
X135229398Y-103675969D02*
X135324636Y-103628350D01*
X135324636Y-103628350D02*
X135372256Y-103580731D01*
X135372256Y-103580731D02*
X135419875Y-103485493D01*
X135419875Y-103485493D02*
X135419875Y-103390255D01*
X135419875Y-103390255D02*
X135372256Y-103295017D01*
X135372256Y-103295017D02*
X135324636Y-103247398D01*
X135324636Y-103247398D02*
X135229398Y-103199779D01*
X135229398Y-103199779D02*
X135038922Y-103152160D01*
X135038922Y-103152160D02*
X134800827Y-103152160D01*
X134800827Y-103152160D02*
X134610351Y-103199779D01*
X134610351Y-103199779D02*
X134515113Y-103247398D01*
X134515113Y-103247398D02*
X134467494Y-103295017D01*
X134467494Y-103295017D02*
X134419875Y-103390255D01*
X135419875Y-104152160D02*
X134419875Y-104152160D01*
X135419875Y-104723588D02*
X134848446Y-104295017D01*
X134419875Y-104723588D02*
X134991303Y-104152160D01*
X135419875Y-105104541D02*
X135419875Y-105342636D01*
X135419875Y-105342636D02*
X135229398Y-105342636D01*
X135229398Y-105342636D02*
X135181779Y-105247398D01*
X135181779Y-105247398D02*
X135086541Y-105152160D01*
X135086541Y-105152160D02*
X134943684Y-105104541D01*
X134943684Y-105104541D02*
X134705589Y-105104541D01*
X134705589Y-105104541D02*
X134562732Y-105152160D01*
X134562732Y-105152160D02*
X134467494Y-105247398D01*
X134467494Y-105247398D02*
X134419875Y-105390255D01*
X134419875Y-105390255D02*
X134419875Y-105580731D01*
X134419875Y-105580731D02*
X134467494Y-105723588D01*
X134467494Y-105723588D02*
X134562732Y-105818826D01*
X134562732Y-105818826D02*
X134705589Y-105866445D01*
X134705589Y-105866445D02*
X134943684Y-105866445D01*
X134943684Y-105866445D02*
X135086541Y-105818826D01*
X135086541Y-105818826D02*
X135181779Y-105723588D01*
X135181779Y-105723588D02*
X135229398Y-105628350D01*
X135229398Y-105628350D02*
X135419875Y-105628350D01*
X135419875Y-105628350D02*
X135419875Y-105866445D01*
X137029819Y-94771207D02*
X136553628Y-94437874D01*
X137029819Y-94199779D02*
X136029819Y-94199779D01*
X136029819Y-94199779D02*
X136029819Y-94580731D01*
X136029819Y-94580731D02*
X136077438Y-94675969D01*
X136077438Y-94675969D02*
X136125057Y-94723588D01*
X136125057Y-94723588D02*
X136220295Y-94771207D01*
X136220295Y-94771207D02*
X136363152Y-94771207D01*
X136363152Y-94771207D02*
X136458390Y-94723588D01*
X136458390Y-94723588D02*
X136506009Y-94675969D01*
X136506009Y-94675969D02*
X136553628Y-94580731D01*
X136553628Y-94580731D02*
X136553628Y-94199779D01*
X137029819Y-95247398D02*
X137029819Y-95437874D01*
X137029819Y-95437874D02*
X136982200Y-95533112D01*
X136982200Y-95533112D02*
X136934580Y-95580731D01*
X136934580Y-95580731D02*
X136791723Y-95675969D01*
X136791723Y-95675969D02*
X136601247Y-95723588D01*
X136601247Y-95723588D02*
X136220295Y-95723588D01*
X136220295Y-95723588D02*
X136125057Y-95675969D01*
X136125057Y-95675969D02*
X136077438Y-95628350D01*
X136077438Y-95628350D02*
X136029819Y-95533112D01*
X136029819Y-95533112D02*
X136029819Y-95342636D01*
X136029819Y-95342636D02*
X136077438Y-95247398D01*
X136077438Y-95247398D02*
X136125057Y-95199779D01*
X136125057Y-95199779D02*
X136220295Y-95152160D01*
X136220295Y-95152160D02*
X136458390Y-95152160D01*
X136458390Y-95152160D02*
X136553628Y-95199779D01*
X136553628Y-95199779D02*
X136601247Y-95247398D01*
X136601247Y-95247398D02*
X136648866Y-95342636D01*
X136648866Y-95342636D02*
X136648866Y-95533112D01*
X136648866Y-95533112D02*
X136601247Y-95628350D01*
X136601247Y-95628350D02*
X136553628Y-95675969D01*
X136553628Y-95675969D02*
X136458390Y-95723588D01*
X136648866Y-96152160D02*
X136648866Y-96914065D01*
X137029819Y-97961683D02*
X136553628Y-97628350D01*
X137029819Y-97390255D02*
X136029819Y-97390255D01*
X136029819Y-97390255D02*
X136029819Y-97771207D01*
X136029819Y-97771207D02*
X136077438Y-97866445D01*
X136077438Y-97866445D02*
X136125057Y-97914064D01*
X136125057Y-97914064D02*
X136220295Y-97961683D01*
X136220295Y-97961683D02*
X136363152Y-97961683D01*
X136363152Y-97961683D02*
X136458390Y-97914064D01*
X136458390Y-97914064D02*
X136506009Y-97866445D01*
X136506009Y-97866445D02*
X136553628Y-97771207D01*
X136553628Y-97771207D02*
X136553628Y-97390255D01*
X137029819Y-98914064D02*
X137029819Y-98342636D01*
X137029819Y-98628350D02*
X136029819Y-98628350D01*
X136029819Y-98628350D02*
X136172676Y-98533112D01*
X136172676Y-98533112D02*
X136267914Y-98437874D01*
X136267914Y-98437874D02*
X136315533Y-98342636D01*
X136029819Y-99771207D02*
X136029819Y-99580731D01*
X136029819Y-99580731D02*
X136077438Y-99485493D01*
X136077438Y-99485493D02*
X136125057Y-99437874D01*
X136125057Y-99437874D02*
X136267914Y-99342636D01*
X136267914Y-99342636D02*
X136458390Y-99295017D01*
X136458390Y-99295017D02*
X136839342Y-99295017D01*
X136839342Y-99295017D02*
X136934580Y-99342636D01*
X136934580Y-99342636D02*
X136982200Y-99390255D01*
X136982200Y-99390255D02*
X137029819Y-99485493D01*
X137029819Y-99485493D02*
X137029819Y-99675969D01*
X137029819Y-99675969D02*
X136982200Y-99771207D01*
X136982200Y-99771207D02*
X136934580Y-99818826D01*
X136934580Y-99818826D02*
X136839342Y-99866445D01*
X136839342Y-99866445D02*
X136601247Y-99866445D01*
X136601247Y-99866445D02*
X136506009Y-99818826D01*
X136506009Y-99818826D02*
X136458390Y-99771207D01*
X136458390Y-99771207D02*
X136410771Y-99675969D01*
X136410771Y-99675969D02*
X136410771Y-99485493D01*
X136410771Y-99485493D02*
X136458390Y-99390255D01*
X136458390Y-99390255D02*
X136506009Y-99342636D01*
X136506009Y-99342636D02*
X136601247Y-99295017D01*
X136934580Y-100295017D02*
X136982200Y-100342636D01*
X136982200Y-100342636D02*
X137029819Y-100295017D01*
X137029819Y-100295017D02*
X136982200Y-100247398D01*
X136982200Y-100247398D02*
X136934580Y-100295017D01*
X136934580Y-100295017D02*
X137029819Y-100295017D01*
X136410771Y-100295017D02*
X136458390Y-100342636D01*
X136458390Y-100342636D02*
X136506009Y-100295017D01*
X136506009Y-100295017D02*
X136458390Y-100247398D01*
X136458390Y-100247398D02*
X136410771Y-100295017D01*
X136410771Y-100295017D02*
X136506009Y-100295017D01*
X137029819Y-102056921D02*
X137029819Y-101485493D01*
X137029819Y-101771207D02*
X136029819Y-101771207D01*
X136029819Y-101771207D02*
X136172676Y-101675969D01*
X136172676Y-101675969D02*
X136267914Y-101580731D01*
X136267914Y-101580731D02*
X136315533Y-101485493D01*
X136029819Y-102675969D02*
X136029819Y-102771207D01*
X136029819Y-102771207D02*
X136077438Y-102866445D01*
X136077438Y-102866445D02*
X136125057Y-102914064D01*
X136125057Y-102914064D02*
X136220295Y-102961683D01*
X136220295Y-102961683D02*
X136410771Y-103009302D01*
X136410771Y-103009302D02*
X136648866Y-103009302D01*
X136648866Y-103009302D02*
X136839342Y-102961683D01*
X136839342Y-102961683D02*
X136934580Y-102914064D01*
X136934580Y-102914064D02*
X136982200Y-102866445D01*
X136982200Y-102866445D02*
X137029819Y-102771207D01*
X137029819Y-102771207D02*
X137029819Y-102675969D01*
X137029819Y-102675969D02*
X136982200Y-102580731D01*
X136982200Y-102580731D02*
X136934580Y-102533112D01*
X136934580Y-102533112D02*
X136839342Y-102485493D01*
X136839342Y-102485493D02*
X136648866Y-102437874D01*
X136648866Y-102437874D02*
X136410771Y-102437874D01*
X136410771Y-102437874D02*
X136220295Y-102485493D01*
X136220295Y-102485493D02*
X136125057Y-102533112D01*
X136125057Y-102533112D02*
X136077438Y-102580731D01*
X136077438Y-102580731D02*
X136029819Y-102675969D01*
X136029819Y-103628350D02*
X136029819Y-103723588D01*
X136029819Y-103723588D02*
X136077438Y-103818826D01*
X136077438Y-103818826D02*
X136125057Y-103866445D01*
X136125057Y-103866445D02*
X136220295Y-103914064D01*
X136220295Y-103914064D02*
X136410771Y-103961683D01*
X136410771Y-103961683D02*
X136648866Y-103961683D01*
X136648866Y-103961683D02*
X136839342Y-103914064D01*
X136839342Y-103914064D02*
X136934580Y-103866445D01*
X136934580Y-103866445D02*
X136982200Y-103818826D01*
X136982200Y-103818826D02*
X137029819Y-103723588D01*
X137029819Y-103723588D02*
X137029819Y-103628350D01*
X137029819Y-103628350D02*
X136982200Y-103533112D01*
X136982200Y-103533112D02*
X136934580Y-103485493D01*
X136934580Y-103485493D02*
X136839342Y-103437874D01*
X136839342Y-103437874D02*
X136648866Y-103390255D01*
X136648866Y-103390255D02*
X136410771Y-103390255D01*
X136410771Y-103390255D02*
X136220295Y-103437874D01*
X136220295Y-103437874D02*
X136125057Y-103485493D01*
X136125057Y-103485493D02*
X136077438Y-103533112D01*
X136077438Y-103533112D02*
X136029819Y-103628350D01*
X137029819Y-104342636D02*
X137029819Y-104580731D01*
X137029819Y-104580731D02*
X136839342Y-104580731D01*
X136839342Y-104580731D02*
X136791723Y-104485493D01*
X136791723Y-104485493D02*
X136696485Y-104390255D01*
X136696485Y-104390255D02*
X136553628Y-104342636D01*
X136553628Y-104342636D02*
X136315533Y-104342636D01*
X136315533Y-104342636D02*
X136172676Y-104390255D01*
X136172676Y-104390255D02*
X136077438Y-104485493D01*
X136077438Y-104485493D02*
X136029819Y-104628350D01*
X136029819Y-104628350D02*
X136029819Y-104818826D01*
X136029819Y-104818826D02*
X136077438Y-104961683D01*
X136077438Y-104961683D02*
X136172676Y-105056921D01*
X136172676Y-105056921D02*
X136315533Y-105104540D01*
X136315533Y-105104540D02*
X136553628Y-105104540D01*
X136553628Y-105104540D02*
X136696485Y-105056921D01*
X136696485Y-105056921D02*
X136791723Y-104961683D01*
X136791723Y-104961683D02*
X136839342Y-104866445D01*
X136839342Y-104866445D02*
X137029819Y-104866445D01*
X137029819Y-104866445D02*
X137029819Y-105104540D01*
X100266121Y-93136112D02*
X100266121Y-92802779D01*
X100789931Y-92802779D02*
X99789931Y-92802779D01*
X99789931Y-92802779D02*
X99789931Y-93278969D01*
X100789931Y-93802779D02*
X100742312Y-93707541D01*
X100742312Y-93707541D02*
X100694692Y-93659922D01*
X100694692Y-93659922D02*
X100599454Y-93612303D01*
X100599454Y-93612303D02*
X100313740Y-93612303D01*
X100313740Y-93612303D02*
X100218502Y-93659922D01*
X100218502Y-93659922D02*
X100170883Y-93707541D01*
X100170883Y-93707541D02*
X100123264Y-93802779D01*
X100123264Y-93802779D02*
X100123264Y-93945636D01*
X100123264Y-93945636D02*
X100170883Y-94040874D01*
X100170883Y-94040874D02*
X100218502Y-94088493D01*
X100218502Y-94088493D02*
X100313740Y-94136112D01*
X100313740Y-94136112D02*
X100599454Y-94136112D01*
X100599454Y-94136112D02*
X100694692Y-94088493D01*
X100694692Y-94088493D02*
X100742312Y-94040874D01*
X100742312Y-94040874D02*
X100789931Y-93945636D01*
X100789931Y-93945636D02*
X100789931Y-93802779D01*
X100789931Y-94564684D02*
X100123264Y-94564684D01*
X100313740Y-94564684D02*
X100218502Y-94612303D01*
X100218502Y-94612303D02*
X100170883Y-94659922D01*
X100170883Y-94659922D02*
X100123264Y-94755160D01*
X100123264Y-94755160D02*
X100123264Y-94850398D01*
X100789931Y-95945637D02*
X99789931Y-95945637D01*
X99789931Y-95945637D02*
X100789931Y-96517065D01*
X100789931Y-96517065D02*
X99789931Y-96517065D01*
X99789931Y-96993256D02*
X100599454Y-96993256D01*
X100599454Y-96993256D02*
X100694692Y-97040875D01*
X100694692Y-97040875D02*
X100742312Y-97088494D01*
X100742312Y-97088494D02*
X100789931Y-97183732D01*
X100789931Y-97183732D02*
X100789931Y-97374208D01*
X100789931Y-97374208D02*
X100742312Y-97469446D01*
X100742312Y-97469446D02*
X100694692Y-97517065D01*
X100694692Y-97517065D02*
X100599454Y-97564684D01*
X100599454Y-97564684D02*
X99789931Y-97564684D01*
X100694692Y-98612303D02*
X100742312Y-98564684D01*
X100742312Y-98564684D02*
X100789931Y-98421827D01*
X100789931Y-98421827D02*
X100789931Y-98326589D01*
X100789931Y-98326589D02*
X100742312Y-98183732D01*
X100742312Y-98183732D02*
X100647073Y-98088494D01*
X100647073Y-98088494D02*
X100551835Y-98040875D01*
X100551835Y-98040875D02*
X100361359Y-97993256D01*
X100361359Y-97993256D02*
X100218502Y-97993256D01*
X100218502Y-97993256D02*
X100028026Y-98040875D01*
X100028026Y-98040875D02*
X99932788Y-98088494D01*
X99932788Y-98088494D02*
X99837550Y-98183732D01*
X99837550Y-98183732D02*
X99789931Y-98326589D01*
X99789931Y-98326589D02*
X99789931Y-98421827D01*
X99789931Y-98421827D02*
X99837550Y-98564684D01*
X99837550Y-98564684D02*
X99885169Y-98612303D01*
X100789931Y-99517065D02*
X100789931Y-99040875D01*
X100789931Y-99040875D02*
X99789931Y-99040875D01*
X100266121Y-99850399D02*
X100266121Y-100183732D01*
X100789931Y-100326589D02*
X100789931Y-99850399D01*
X100789931Y-99850399D02*
X99789931Y-99850399D01*
X99789931Y-99850399D02*
X99789931Y-100326589D01*
X99789931Y-100945637D02*
X99789931Y-101136113D01*
X99789931Y-101136113D02*
X99837550Y-101231351D01*
X99837550Y-101231351D02*
X99932788Y-101326589D01*
X99932788Y-101326589D02*
X100123264Y-101374208D01*
X100123264Y-101374208D02*
X100456597Y-101374208D01*
X100456597Y-101374208D02*
X100647073Y-101326589D01*
X100647073Y-101326589D02*
X100742312Y-101231351D01*
X100742312Y-101231351D02*
X100789931Y-101136113D01*
X100789931Y-101136113D02*
X100789931Y-100945637D01*
X100789931Y-100945637D02*
X100742312Y-100850399D01*
X100742312Y-100850399D02*
X100647073Y-100755161D01*
X100647073Y-100755161D02*
X100456597Y-100707542D01*
X100456597Y-100707542D02*
X100123264Y-100707542D01*
X100123264Y-100707542D02*
X99932788Y-100755161D01*
X99932788Y-100755161D02*
X99837550Y-100850399D01*
X99837550Y-100850399D02*
X99789931Y-100945637D01*
X100408978Y-101802780D02*
X100408978Y-102564685D01*
X100266121Y-103374208D02*
X100266121Y-103040875D01*
X100789931Y-103040875D02*
X99789931Y-103040875D01*
X99789931Y-103040875D02*
X99789931Y-103517065D01*
X99789931Y-103802780D02*
X99789931Y-104469446D01*
X99789931Y-104469446D02*
X100789931Y-104040875D01*
X99789931Y-105278970D02*
X99789931Y-105088494D01*
X99789931Y-105088494D02*
X99837550Y-104993256D01*
X99837550Y-104993256D02*
X99885169Y-104945637D01*
X99885169Y-104945637D02*
X100028026Y-104850399D01*
X100028026Y-104850399D02*
X100218502Y-104802780D01*
X100218502Y-104802780D02*
X100599454Y-104802780D01*
X100599454Y-104802780D02*
X100694692Y-104850399D01*
X100694692Y-104850399D02*
X100742312Y-104898018D01*
X100742312Y-104898018D02*
X100789931Y-104993256D01*
X100789931Y-104993256D02*
X100789931Y-105183732D01*
X100789931Y-105183732D02*
X100742312Y-105278970D01*
X100742312Y-105278970D02*
X100694692Y-105326589D01*
X100694692Y-105326589D02*
X100599454Y-105374208D01*
X100599454Y-105374208D02*
X100361359Y-105374208D01*
X100361359Y-105374208D02*
X100266121Y-105326589D01*
X100266121Y-105326589D02*
X100218502Y-105278970D01*
X100218502Y-105278970D02*
X100170883Y-105183732D01*
X100170883Y-105183732D02*
X100170883Y-104993256D01*
X100170883Y-104993256D02*
X100218502Y-104898018D01*
X100218502Y-104898018D02*
X100266121Y-104850399D01*
X100266121Y-104850399D02*
X100361359Y-104802780D01*
X99789931Y-105707542D02*
X99789931Y-106374208D01*
X99789931Y-106374208D02*
X100789931Y-105945637D01*
X99789931Y-106659923D02*
X99789931Y-107326589D01*
X99789931Y-107326589D02*
X100789931Y-106659923D01*
X100789931Y-106659923D02*
X100789931Y-107326589D01*
X100789931Y-107707542D02*
X99789931Y-107707542D01*
X101399875Y-92659922D02*
X102399875Y-92993255D01*
X102399875Y-92993255D02*
X101399875Y-93326588D01*
X102352256Y-94040874D02*
X102399875Y-93945636D01*
X102399875Y-93945636D02*
X102399875Y-93755160D01*
X102399875Y-93755160D02*
X102352256Y-93659922D01*
X102352256Y-93659922D02*
X102257017Y-93612303D01*
X102257017Y-93612303D02*
X101876065Y-93612303D01*
X101876065Y-93612303D02*
X101780827Y-93659922D01*
X101780827Y-93659922D02*
X101733208Y-93755160D01*
X101733208Y-93755160D02*
X101733208Y-93945636D01*
X101733208Y-93945636D02*
X101780827Y-94040874D01*
X101780827Y-94040874D02*
X101876065Y-94088493D01*
X101876065Y-94088493D02*
X101971303Y-94088493D01*
X101971303Y-94088493D02*
X102066541Y-93612303D01*
X102399875Y-94517065D02*
X101733208Y-94517065D01*
X101923684Y-94517065D02*
X101828446Y-94564684D01*
X101828446Y-94564684D02*
X101780827Y-94612303D01*
X101780827Y-94612303D02*
X101733208Y-94707541D01*
X101733208Y-94707541D02*
X101733208Y-94802779D01*
X102304636Y-95136113D02*
X102352256Y-95183732D01*
X102352256Y-95183732D02*
X102399875Y-95136113D01*
X102399875Y-95136113D02*
X102352256Y-95088494D01*
X102352256Y-95088494D02*
X102304636Y-95136113D01*
X102304636Y-95136113D02*
X102399875Y-95136113D01*
X102399875Y-96136112D02*
X102399875Y-95564684D01*
X102399875Y-95850398D02*
X101399875Y-95850398D01*
X101399875Y-95850398D02*
X101542732Y-95755160D01*
X101542732Y-95755160D02*
X101637970Y-95659922D01*
X101637970Y-95659922D02*
X101685589Y-95564684D01*
X102304636Y-96564684D02*
X102352256Y-96612303D01*
X102352256Y-96612303D02*
X102399875Y-96564684D01*
X102399875Y-96564684D02*
X102352256Y-96517065D01*
X102352256Y-96517065D02*
X102304636Y-96564684D01*
X102304636Y-96564684D02*
X102399875Y-96564684D01*
X101495113Y-96993255D02*
X101447494Y-97040874D01*
X101447494Y-97040874D02*
X101399875Y-97136112D01*
X101399875Y-97136112D02*
X101399875Y-97374207D01*
X101399875Y-97374207D02*
X101447494Y-97469445D01*
X101447494Y-97469445D02*
X101495113Y-97517064D01*
X101495113Y-97517064D02*
X101590351Y-97564683D01*
X101590351Y-97564683D02*
X101685589Y-97564683D01*
X101685589Y-97564683D02*
X101828446Y-97517064D01*
X101828446Y-97517064D02*
X102399875Y-96945636D01*
X102399875Y-96945636D02*
X102399875Y-97564683D01*
X104009819Y-93374207D02*
X103533628Y-93040874D01*
X104009819Y-92802779D02*
X103009819Y-92802779D01*
X103009819Y-92802779D02*
X103009819Y-93183731D01*
X103009819Y-93183731D02*
X103057438Y-93278969D01*
X103057438Y-93278969D02*
X103105057Y-93326588D01*
X103105057Y-93326588D02*
X103200295Y-93374207D01*
X103200295Y-93374207D02*
X103343152Y-93374207D01*
X103343152Y-93374207D02*
X103438390Y-93326588D01*
X103438390Y-93326588D02*
X103486009Y-93278969D01*
X103486009Y-93278969D02*
X103533628Y-93183731D01*
X103533628Y-93183731D02*
X103533628Y-92802779D01*
X104009819Y-94374207D02*
X103533628Y-94040874D01*
X104009819Y-93802779D02*
X103009819Y-93802779D01*
X103009819Y-93802779D02*
X103009819Y-94183731D01*
X103009819Y-94183731D02*
X103057438Y-94278969D01*
X103057438Y-94278969D02*
X103105057Y-94326588D01*
X103105057Y-94326588D02*
X103200295Y-94374207D01*
X103200295Y-94374207D02*
X103343152Y-94374207D01*
X103343152Y-94374207D02*
X103438390Y-94326588D01*
X103438390Y-94326588D02*
X103486009Y-94278969D01*
X103486009Y-94278969D02*
X103533628Y-94183731D01*
X103533628Y-94183731D02*
X103533628Y-93802779D01*
X103962200Y-94755160D02*
X104009819Y-94898017D01*
X104009819Y-94898017D02*
X104009819Y-95136112D01*
X104009819Y-95136112D02*
X103962200Y-95231350D01*
X103962200Y-95231350D02*
X103914580Y-95278969D01*
X103914580Y-95278969D02*
X103819342Y-95326588D01*
X103819342Y-95326588D02*
X103724104Y-95326588D01*
X103724104Y-95326588D02*
X103628866Y-95278969D01*
X103628866Y-95278969D02*
X103581247Y-95231350D01*
X103581247Y-95231350D02*
X103533628Y-95136112D01*
X103533628Y-95136112D02*
X103486009Y-94945636D01*
X103486009Y-94945636D02*
X103438390Y-94850398D01*
X103438390Y-94850398D02*
X103390771Y-94802779D01*
X103390771Y-94802779D02*
X103295533Y-94755160D01*
X103295533Y-94755160D02*
X103200295Y-94755160D01*
X103200295Y-94755160D02*
X103105057Y-94802779D01*
X103105057Y-94802779D02*
X103057438Y-94850398D01*
X103057438Y-94850398D02*
X103009819Y-94945636D01*
X103009819Y-94945636D02*
X103009819Y-95183731D01*
X103009819Y-95183731D02*
X103057438Y-95326588D01*
X103009819Y-95612303D02*
X103009819Y-96183731D01*
X104009819Y-95898017D02*
X103009819Y-95898017D01*
X104009819Y-97278970D02*
X103009819Y-97278970D01*
X103009819Y-97278970D02*
X104009819Y-97850398D01*
X104009819Y-97850398D02*
X103009819Y-97850398D01*
X104009819Y-98326589D02*
X103009819Y-98326589D01*
X103486009Y-98326589D02*
X103486009Y-98898017D01*
X104009819Y-98898017D02*
X103009819Y-98898017D01*
X104009819Y-99374208D02*
X103009819Y-99374208D01*
X104009819Y-99945636D02*
X103438390Y-99517065D01*
X103009819Y-99945636D02*
X103581247Y-99374208D01*
X103628866Y-100374208D02*
X103628866Y-101136113D01*
X104009819Y-101612303D02*
X103009819Y-101612303D01*
X103009819Y-101612303D02*
X103009819Y-101993255D01*
X103009819Y-101993255D02*
X103057438Y-102088493D01*
X103057438Y-102088493D02*
X103105057Y-102136112D01*
X103105057Y-102136112D02*
X103200295Y-102183731D01*
X103200295Y-102183731D02*
X103343152Y-102183731D01*
X103343152Y-102183731D02*
X103438390Y-102136112D01*
X103438390Y-102136112D02*
X103486009Y-102088493D01*
X103486009Y-102088493D02*
X103533628Y-101993255D01*
X103533628Y-101993255D02*
X103533628Y-101612303D01*
X104009819Y-102612303D02*
X103343152Y-102612303D01*
X103533628Y-102612303D02*
X103438390Y-102659922D01*
X103438390Y-102659922D02*
X103390771Y-102707541D01*
X103390771Y-102707541D02*
X103343152Y-102802779D01*
X103343152Y-102802779D02*
X103343152Y-102898017D01*
X104009819Y-103374208D02*
X103962200Y-103278970D01*
X103962200Y-103278970D02*
X103914580Y-103231351D01*
X103914580Y-103231351D02*
X103819342Y-103183732D01*
X103819342Y-103183732D02*
X103533628Y-103183732D01*
X103533628Y-103183732D02*
X103438390Y-103231351D01*
X103438390Y-103231351D02*
X103390771Y-103278970D01*
X103390771Y-103278970D02*
X103343152Y-103374208D01*
X103343152Y-103374208D02*
X103343152Y-103517065D01*
X103343152Y-103517065D02*
X103390771Y-103612303D01*
X103390771Y-103612303D02*
X103438390Y-103659922D01*
X103438390Y-103659922D02*
X103533628Y-103707541D01*
X103533628Y-103707541D02*
X103819342Y-103707541D01*
X103819342Y-103707541D02*
X103914580Y-103659922D01*
X103914580Y-103659922D02*
X103962200Y-103612303D01*
X103962200Y-103612303D02*
X104009819Y-103517065D01*
X104009819Y-103517065D02*
X104009819Y-103374208D01*
X103343152Y-104136113D02*
X104200295Y-104136113D01*
X104200295Y-104136113D02*
X104295533Y-104088494D01*
X104295533Y-104088494D02*
X104343152Y-103993256D01*
X104343152Y-103993256D02*
X104343152Y-103945637D01*
X103009819Y-104136113D02*
X103057438Y-104088494D01*
X103057438Y-104088494D02*
X103105057Y-104136113D01*
X103105057Y-104136113D02*
X103057438Y-104183732D01*
X103057438Y-104183732D02*
X103009819Y-104136113D01*
X103009819Y-104136113D02*
X103105057Y-104136113D01*
X103962200Y-104993255D02*
X104009819Y-104898017D01*
X104009819Y-104898017D02*
X104009819Y-104707541D01*
X104009819Y-104707541D02*
X103962200Y-104612303D01*
X103962200Y-104612303D02*
X103866961Y-104564684D01*
X103866961Y-104564684D02*
X103486009Y-104564684D01*
X103486009Y-104564684D02*
X103390771Y-104612303D01*
X103390771Y-104612303D02*
X103343152Y-104707541D01*
X103343152Y-104707541D02*
X103343152Y-104898017D01*
X103343152Y-104898017D02*
X103390771Y-104993255D01*
X103390771Y-104993255D02*
X103486009Y-105040874D01*
X103486009Y-105040874D02*
X103581247Y-105040874D01*
X103581247Y-105040874D02*
X103676485Y-104564684D01*
X103962200Y-105898017D02*
X104009819Y-105802779D01*
X104009819Y-105802779D02*
X104009819Y-105612303D01*
X104009819Y-105612303D02*
X103962200Y-105517065D01*
X103962200Y-105517065D02*
X103914580Y-105469446D01*
X103914580Y-105469446D02*
X103819342Y-105421827D01*
X103819342Y-105421827D02*
X103533628Y-105421827D01*
X103533628Y-105421827D02*
X103438390Y-105469446D01*
X103438390Y-105469446D02*
X103390771Y-105517065D01*
X103390771Y-105517065D02*
X103343152Y-105612303D01*
X103343152Y-105612303D02*
X103343152Y-105802779D01*
X103343152Y-105802779D02*
X103390771Y-105898017D01*
X103343152Y-106183732D02*
X103343152Y-106564684D01*
X103009819Y-106326589D02*
X103866961Y-106326589D01*
X103866961Y-106326589D02*
X103962200Y-106374208D01*
X103962200Y-106374208D02*
X104009819Y-106469446D01*
X104009819Y-106469446D02*
X104009819Y-106564684D01*
X103105057Y-107612304D02*
X103057438Y-107659923D01*
X103057438Y-107659923D02*
X103009819Y-107755161D01*
X103009819Y-107755161D02*
X103009819Y-107993256D01*
X103009819Y-107993256D02*
X103057438Y-108088494D01*
X103057438Y-108088494D02*
X103105057Y-108136113D01*
X103105057Y-108136113D02*
X103200295Y-108183732D01*
X103200295Y-108183732D02*
X103295533Y-108183732D01*
X103295533Y-108183732D02*
X103438390Y-108136113D01*
X103438390Y-108136113D02*
X104009819Y-107564685D01*
X104009819Y-107564685D02*
X104009819Y-108183732D01*
X103009819Y-108802780D02*
X103009819Y-108898018D01*
X103009819Y-108898018D02*
X103057438Y-108993256D01*
X103057438Y-108993256D02*
X103105057Y-109040875D01*
X103105057Y-109040875D02*
X103200295Y-109088494D01*
X103200295Y-109088494D02*
X103390771Y-109136113D01*
X103390771Y-109136113D02*
X103628866Y-109136113D01*
X103628866Y-109136113D02*
X103819342Y-109088494D01*
X103819342Y-109088494D02*
X103914580Y-109040875D01*
X103914580Y-109040875D02*
X103962200Y-108993256D01*
X103962200Y-108993256D02*
X104009819Y-108898018D01*
X104009819Y-108898018D02*
X104009819Y-108802780D01*
X104009819Y-108802780D02*
X103962200Y-108707542D01*
X103962200Y-108707542D02*
X103914580Y-108659923D01*
X103914580Y-108659923D02*
X103819342Y-108612304D01*
X103819342Y-108612304D02*
X103628866Y-108564685D01*
X103628866Y-108564685D02*
X103390771Y-108564685D01*
X103390771Y-108564685D02*
X103200295Y-108612304D01*
X103200295Y-108612304D02*
X103105057Y-108659923D01*
X103105057Y-108659923D02*
X103057438Y-108707542D01*
X103057438Y-108707542D02*
X103009819Y-108802780D01*
X103105057Y-109517066D02*
X103057438Y-109564685D01*
X103057438Y-109564685D02*
X103009819Y-109659923D01*
X103009819Y-109659923D02*
X103009819Y-109898018D01*
X103009819Y-109898018D02*
X103057438Y-109993256D01*
X103057438Y-109993256D02*
X103105057Y-110040875D01*
X103105057Y-110040875D02*
X103200295Y-110088494D01*
X103200295Y-110088494D02*
X103295533Y-110088494D01*
X103295533Y-110088494D02*
X103438390Y-110040875D01*
X103438390Y-110040875D02*
X104009819Y-109469447D01*
X104009819Y-109469447D02*
X104009819Y-110088494D01*
X103009819Y-110993256D02*
X103009819Y-110517066D01*
X103009819Y-110517066D02*
X103486009Y-110469447D01*
X103486009Y-110469447D02*
X103438390Y-110517066D01*
X103438390Y-110517066D02*
X103390771Y-110612304D01*
X103390771Y-110612304D02*
X103390771Y-110850399D01*
X103390771Y-110850399D02*
X103438390Y-110945637D01*
X103438390Y-110945637D02*
X103486009Y-110993256D01*
X103486009Y-110993256D02*
X103581247Y-111040875D01*
X103581247Y-111040875D02*
X103819342Y-111040875D01*
X103819342Y-111040875D02*
X103914580Y-110993256D01*
X103914580Y-110993256D02*
X103962200Y-110945637D01*
X103962200Y-110945637D02*
X104009819Y-110850399D01*
X104009819Y-110850399D02*
X104009819Y-110612304D01*
X104009819Y-110612304D02*
X103962200Y-110517066D01*
X103962200Y-110517066D02*
X103914580Y-110469447D01*
D11*
G36*
X83268372Y-108749333D02*
G01*
X83301542Y-108777235D01*
X83341931Y-108850623D01*
X83343350Y-109040997D01*
X83316309Y-109100305D01*
X82723402Y-109175323D01*
X82708261Y-109147812D01*
X82706842Y-108957440D01*
X82749122Y-108864710D01*
X82789177Y-108818018D01*
X82877736Y-108761177D01*
X83188832Y-108720689D01*
X83268372Y-108749333D01*
G37*
G36*
X85280802Y-107439812D02*
G01*
X85313972Y-107467714D01*
X85354412Y-107541195D01*
X85355682Y-107672167D01*
X85313502Y-107764680D01*
X85273446Y-107811373D01*
X85184886Y-107868214D01*
X84873789Y-107908702D01*
X84794251Y-107880058D01*
X84761080Y-107852155D01*
X84720640Y-107778676D01*
X84719370Y-107647704D01*
X84761552Y-107555189D01*
X84801607Y-107508497D01*
X84890166Y-107451656D01*
X85201262Y-107411168D01*
X85280802Y-107439812D01*
G37*
G36*
X87336485Y-107128895D02*
G01*
X87366759Y-107183903D01*
X87368272Y-107433722D01*
X87341095Y-107493328D01*
X87089753Y-107525468D01*
X87090433Y-107518568D01*
X87088783Y-107246271D01*
X87126112Y-107164397D01*
X87200547Y-107116623D01*
X87274040Y-107106406D01*
X87336485Y-107128895D01*
G37*
G36*
X83311625Y-106831272D02*
G01*
X83341899Y-106886280D01*
X83343412Y-107136099D01*
X83316235Y-107195705D01*
X83064893Y-107227845D01*
X83065573Y-107220945D01*
X83063923Y-106948648D01*
X83101252Y-106866774D01*
X83175687Y-106819000D01*
X83249180Y-106808783D01*
X83311625Y-106831272D01*
G37*
G36*
X83268372Y-105713619D02*
G01*
X83301542Y-105741521D01*
X83341982Y-105815002D01*
X83343252Y-105945974D01*
X83301072Y-106038487D01*
X83261016Y-106085180D01*
X83172456Y-106142021D01*
X82861359Y-106182509D01*
X82781821Y-106153865D01*
X82748650Y-106125962D01*
X82708210Y-106052483D01*
X82706940Y-105921511D01*
X82749122Y-105828996D01*
X82789177Y-105782304D01*
X82877736Y-105725463D01*
X83188832Y-105684975D01*
X83268372Y-105713619D01*
G37*
G36*
X82688723Y-104836831D02*
G01*
X82646310Y-104929856D01*
X82606254Y-104976549D01*
X82517362Y-105033603D01*
X82443870Y-105043820D01*
X82365154Y-105015472D01*
X82331983Y-104987569D01*
X82291664Y-104914309D01*
X82290316Y-104608379D01*
X82687496Y-104558126D01*
X82688723Y-104836831D01*
G37*
G36*
X83343509Y-104814459D02*
G01*
X83301072Y-104907535D01*
X83261016Y-104954228D01*
X83172284Y-105011180D01*
X83039497Y-105029078D01*
X82960392Y-105000591D01*
X82932587Y-104977201D01*
X82886946Y-104849925D01*
X82885550Y-104533067D01*
X83342195Y-104475290D01*
X83343509Y-104814459D01*
G37*
G36*
X87010959Y-104881748D02*
G01*
X86531949Y-104782695D01*
X87009962Y-104562809D01*
X87010959Y-104881748D01*
G37*
G36*
X85324055Y-103259847D02*
G01*
X85354329Y-103314855D01*
X85355842Y-103564674D01*
X85328665Y-103624280D01*
X85077323Y-103656420D01*
X85078003Y-103649520D01*
X85076353Y-103377223D01*
X85113682Y-103295349D01*
X85188117Y-103247575D01*
X85261610Y-103237358D01*
X85324055Y-103259847D01*
G37*
G36*
X87293232Y-101666002D02*
G01*
X87326402Y-101693904D01*
X87366842Y-101767385D01*
X87368112Y-101898357D01*
X87325932Y-101990870D01*
X87285876Y-102037563D01*
X87197316Y-102094404D01*
X86886219Y-102134892D01*
X86806681Y-102106248D01*
X86773510Y-102078345D01*
X86733070Y-102004866D01*
X86731800Y-101873894D01*
X86773982Y-101781379D01*
X86814037Y-101734687D01*
X86902596Y-101677846D01*
X87213692Y-101637358D01*
X87293232Y-101666002D01*
G37*
G36*
X83311625Y-100640797D02*
G01*
X83341899Y-100695805D01*
X83343412Y-100945624D01*
X83316235Y-101005230D01*
X83064893Y-101037370D01*
X83065573Y-101030470D01*
X83063923Y-100758173D01*
X83101252Y-100676299D01*
X83175687Y-100628525D01*
X83249180Y-100618308D01*
X83311625Y-100640797D01*
G37*
G36*
X84835724Y-99460367D02*
G01*
X84813442Y-99463465D01*
X84750997Y-99440976D01*
X84720691Y-99385911D01*
X84719272Y-99195537D01*
X84756540Y-99113800D01*
X84830597Y-99066268D01*
X84913447Y-99055588D01*
X84835724Y-99460367D01*
G37*
G36*
X87336485Y-96057465D02*
G01*
X87366759Y-96112473D01*
X87368272Y-96362292D01*
X87341095Y-96421898D01*
X87089753Y-96454038D01*
X87090433Y-96447138D01*
X87088783Y-96174841D01*
X87126112Y-96092967D01*
X87200547Y-96045193D01*
X87274040Y-96034976D01*
X87336485Y-96057465D01*
G37*
G36*
X85355871Y-95950394D02*
G01*
X85308255Y-96103913D01*
X85214823Y-96211092D01*
X85118976Y-96272610D01*
X84901271Y-96355996D01*
X84745988Y-96376928D01*
X84532234Y-96351815D01*
X84437454Y-96317681D01*
X84350058Y-96242862D01*
X84304117Y-96114749D01*
X84302925Y-95917882D01*
X85354868Y-95784784D01*
X85355871Y-95950394D01*
G37*
G36*
X83268372Y-94106478D02*
G01*
X83301542Y-94134380D01*
X83341931Y-94207768D01*
X83343350Y-94398142D01*
X83301072Y-94490870D01*
X83261016Y-94537563D01*
X83172420Y-94594427D01*
X82920793Y-94627418D01*
X82841344Y-94598807D01*
X82808174Y-94570904D01*
X82767785Y-94497518D01*
X82766366Y-94307145D01*
X82808647Y-94214413D01*
X82848702Y-94167720D01*
X82938575Y-94110037D01*
X83188715Y-94077792D01*
X83268372Y-94106478D01*
G37*
G36*
X88121068Y-111371605D02*
G01*
X81952874Y-111371605D01*
X81952874Y-110881908D01*
X84104452Y-110881908D01*
X84109291Y-110920624D01*
X84128579Y-110954542D01*
X84159378Y-110978497D01*
X84197000Y-110988842D01*
X84216596Y-110988329D01*
X84521988Y-110949612D01*
X84522781Y-111154146D01*
X84537713Y-111190194D01*
X84565303Y-111217784D01*
X84601351Y-111232716D01*
X84640369Y-111232716D01*
X84676417Y-111217784D01*
X84704007Y-111190194D01*
X84718939Y-111154146D01*
X84720860Y-111134637D01*
X84720045Y-110924504D01*
X85260466Y-110855992D01*
X85324055Y-110878892D01*
X85354509Y-110934227D01*
X85356114Y-111049979D01*
X85371046Y-111086027D01*
X85398636Y-111113617D01*
X85434684Y-111128549D01*
X85473702Y-111128549D01*
X85509750Y-111113617D01*
X85537340Y-111086027D01*
X85552272Y-111049979D01*
X85554193Y-111030470D01*
X85552724Y-110924528D01*
X85553702Y-110921316D01*
X85552510Y-110909098D01*
X85552272Y-110891914D01*
X85550391Y-110887373D01*
X85549914Y-110882482D01*
X85542428Y-110864365D01*
X85481057Y-110752850D01*
X85475884Y-110741469D01*
X85473639Y-110739372D01*
X85472030Y-110736447D01*
X85459363Y-110726033D01*
X85447374Y-110714830D01*
X85443305Y-110712829D01*
X85441891Y-110711667D01*
X85439393Y-110710906D01*
X85429782Y-110706182D01*
X85322897Y-110667690D01*
X85320437Y-110665777D01*
X85308368Y-110662458D01*
X85291792Y-110656489D01*
X85287223Y-110656644D01*
X85282815Y-110655432D01*
X85263219Y-110655945D01*
X84719272Y-110724903D01*
X84718939Y-110638937D01*
X84704007Y-110602889D01*
X84676417Y-110575299D01*
X84640369Y-110560367D01*
X84601351Y-110560367D01*
X84565303Y-110575299D01*
X84537713Y-110602889D01*
X84522781Y-110638937D01*
X84520860Y-110658446D01*
X84521214Y-110750012D01*
X84172670Y-110794199D01*
X84138752Y-110813487D01*
X84114797Y-110844286D01*
X84104452Y-110881908D01*
X81952874Y-110881908D01*
X81952874Y-109884637D01*
X84520860Y-109884637D01*
X84522460Y-110049670D01*
X84521351Y-110053316D01*
X84522622Y-110066348D01*
X84522781Y-110082718D01*
X84524661Y-110087258D01*
X84525139Y-110092150D01*
X84532625Y-110110268D01*
X84593993Y-110221775D01*
X84599169Y-110233161D01*
X84601414Y-110235259D01*
X84603025Y-110238185D01*
X84615692Y-110248599D01*
X84627679Y-110259800D01*
X84631747Y-110261800D01*
X84633164Y-110262965D01*
X84635664Y-110263725D01*
X84645271Y-110268449D01*
X84752156Y-110306941D01*
X84754616Y-110308855D01*
X84766678Y-110312171D01*
X84783259Y-110318143D01*
X84787829Y-110317987D01*
X84792238Y-110319200D01*
X84811835Y-110318687D01*
X85485717Y-110232515D01*
X85519635Y-110213227D01*
X85543589Y-110182428D01*
X85553935Y-110144806D01*
X85549095Y-110106089D01*
X85529807Y-110072172D01*
X85499008Y-110048217D01*
X85461386Y-110037872D01*
X85441790Y-110038385D01*
X84814481Y-110118601D01*
X84750997Y-110095738D01*
X84720640Y-110040580D01*
X84719370Y-109909608D01*
X84761552Y-109817093D01*
X84788638Y-109785519D01*
X85485716Y-109696801D01*
X85519634Y-109677513D01*
X85543589Y-109646714D01*
X85553934Y-109609092D01*
X85549095Y-109570375D01*
X85529807Y-109536458D01*
X85499008Y-109512503D01*
X85461386Y-109502158D01*
X85441789Y-109502671D01*
X84726230Y-109593741D01*
X84714674Y-109594421D01*
X84712461Y-109595493D01*
X84589336Y-109611164D01*
X84555419Y-109630452D01*
X84531464Y-109661251D01*
X84521119Y-109698873D01*
X84525958Y-109737590D01*
X84545246Y-109771507D01*
X84559383Y-109782503D01*
X84538510Y-109828282D01*
X84537713Y-109829080D01*
X84533402Y-109839485D01*
X84523809Y-109860527D01*
X84523696Y-109862918D01*
X84522781Y-109865128D01*
X84520860Y-109884637D01*
X81952874Y-109884637D01*
X81952874Y-109334287D01*
X82092022Y-109334287D01*
X82096861Y-109373004D01*
X82116149Y-109406921D01*
X82146948Y-109430876D01*
X82184570Y-109441221D01*
X82204166Y-109440708D01*
X83386804Y-109291074D01*
X83397106Y-109291560D01*
X83404769Y-109288801D01*
X83473287Y-109280132D01*
X83507204Y-109260844D01*
X83531159Y-109230045D01*
X83541505Y-109192423D01*
X83536665Y-109153706D01*
X83521810Y-109127585D01*
X83524112Y-109122537D01*
X83524910Y-109121740D01*
X83529219Y-109111336D01*
X83538814Y-109090293D01*
X83538926Y-109087901D01*
X83539842Y-109085692D01*
X83541763Y-109066183D01*
X83540090Y-108841863D01*
X83541272Y-108837981D01*
X83539961Y-108824541D01*
X83539842Y-108808579D01*
X83537961Y-108804038D01*
X83537484Y-108799147D01*
X83529998Y-108781030D01*
X83466691Y-108665997D01*
X83461507Y-108655514D01*
X83460092Y-108654007D01*
X83459600Y-108653112D01*
X83458074Y-108651858D01*
X83448090Y-108641222D01*
X83382730Y-108586243D01*
X83375420Y-108579413D01*
X83373471Y-108578454D01*
X83372619Y-108577738D01*
X83370677Y-108577081D01*
X83357828Y-108570764D01*
X83349934Y-108567921D01*
X84521119Y-108567921D01*
X84525958Y-108606638D01*
X84545246Y-108640555D01*
X84576045Y-108664510D01*
X84613667Y-108674855D01*
X84633263Y-108674342D01*
X85260571Y-108594126D01*
X85324055Y-108616988D01*
X85354412Y-108672147D01*
X85355682Y-108803119D01*
X85313502Y-108895632D01*
X85286415Y-108927207D01*
X84589336Y-109015926D01*
X84555419Y-109035214D01*
X84531464Y-109066013D01*
X84521119Y-109103635D01*
X84525958Y-109142352D01*
X84545246Y-109176269D01*
X84576045Y-109200224D01*
X84613667Y-109210569D01*
X84633264Y-109210056D01*
X85348820Y-109118985D01*
X85360380Y-109118306D01*
X85362593Y-109117233D01*
X85485716Y-109101563D01*
X85519634Y-109082275D01*
X85543589Y-109051476D01*
X85553934Y-109013854D01*
X85549095Y-108975137D01*
X85529807Y-108941220D01*
X85515669Y-108930224D01*
X85536542Y-108884444D01*
X85537340Y-108883647D01*
X85541649Y-108873243D01*
X85551244Y-108852200D01*
X85551356Y-108849808D01*
X85552272Y-108847599D01*
X85554193Y-108828090D01*
X85552592Y-108663057D01*
X85553702Y-108659412D01*
X85552430Y-108646379D01*
X85552272Y-108630010D01*
X85550391Y-108625469D01*
X85549914Y-108620578D01*
X85542428Y-108602461D01*
X85481057Y-108490946D01*
X85475884Y-108479565D01*
X85473639Y-108477468D01*
X85472030Y-108474543D01*
X85459363Y-108464129D01*
X85447374Y-108452926D01*
X85443305Y-108450925D01*
X85441891Y-108449763D01*
X85439393Y-108449002D01*
X85429782Y-108444278D01*
X85322895Y-108405786D01*
X85320436Y-108403873D01*
X85308370Y-108400555D01*
X85291792Y-108394585D01*
X85287223Y-108394740D01*
X85282815Y-108393528D01*
X85263218Y-108394041D01*
X84589336Y-108480212D01*
X84555419Y-108499500D01*
X84531464Y-108530299D01*
X84521119Y-108567921D01*
X83349934Y-108567921D01*
X83250941Y-108532270D01*
X83248482Y-108530358D01*
X83236418Y-108527040D01*
X83219839Y-108521070D01*
X83215269Y-108521225D01*
X83210861Y-108520013D01*
X83191264Y-108520526D01*
X82851101Y-108564796D01*
X82849569Y-108564443D01*
X82834741Y-108566925D01*
X82815001Y-108569495D01*
X82813165Y-108570538D01*
X82811086Y-108570887D01*
X82793525Y-108579597D01*
X82677698Y-108653938D01*
X82667134Y-108659061D01*
X82661257Y-108664490D01*
X82658952Y-108665971D01*
X82657591Y-108667879D01*
X82652737Y-108672365D01*
X82595491Y-108739096D01*
X82587517Y-108746352D01*
X82583517Y-108753053D01*
X82581688Y-108755187D01*
X82580914Y-108757417D01*
X82577472Y-108763186D01*
X82526080Y-108875899D01*
X82525283Y-108876697D01*
X82520972Y-108887102D01*
X82511379Y-108908144D01*
X82511266Y-108910535D01*
X82510351Y-108912745D01*
X82508430Y-108932254D01*
X82510102Y-109156572D01*
X82508921Y-109160456D01*
X82510231Y-109173895D01*
X82510351Y-109189858D01*
X82512231Y-109194398D01*
X82512709Y-109199290D01*
X82513765Y-109201847D01*
X82160239Y-109246578D01*
X82126322Y-109265866D01*
X82102367Y-109296665D01*
X82092022Y-109334287D01*
X81952874Y-109334287D01*
X81952874Y-108217968D01*
X82508430Y-108217968D01*
X82510351Y-108356525D01*
X82525283Y-108392573D01*
X82552873Y-108420163D01*
X82588921Y-108435095D01*
X82627939Y-108435095D01*
X82663987Y-108420163D01*
X82691577Y-108392573D01*
X82706509Y-108356525D01*
X82708430Y-108337016D01*
X82707120Y-108242545D01*
X82746911Y-108155273D01*
X86533340Y-108155273D01*
X86539734Y-108193764D01*
X86560370Y-108226878D01*
X86592108Y-108249575D01*
X86610677Y-108255858D01*
X87170177Y-108384448D01*
X86573121Y-108673812D01*
X86547135Y-108702918D01*
X86534265Y-108739753D01*
X86536471Y-108778708D01*
X86553416Y-108813855D01*
X86582522Y-108839841D01*
X86619357Y-108852711D01*
X86658312Y-108850505D01*
X86676720Y-108843763D01*
X87493426Y-108447945D01*
X87494940Y-108447808D01*
X87499903Y-108445795D01*
X87501939Y-108445457D01*
X87504178Y-108444061D01*
X87513106Y-108440441D01*
X87811183Y-108281890D01*
X87824586Y-108275392D01*
X87826193Y-108273906D01*
X87827106Y-108273421D01*
X87828402Y-108271865D01*
X87838983Y-108262087D01*
X87896232Y-108195352D01*
X87904203Y-108188100D01*
X87908199Y-108181401D01*
X87910033Y-108179265D01*
X87910808Y-108177030D01*
X87914248Y-108171266D01*
X87980341Y-108026308D01*
X87982179Y-107987333D01*
X87968963Y-107950621D01*
X87942704Y-107921761D01*
X87907400Y-107905147D01*
X87868425Y-107903309D01*
X87831713Y-107916525D01*
X87802853Y-107942784D01*
X87792808Y-107959618D01*
X87742596Y-108069743D01*
X87704483Y-108114172D01*
X87455331Y-108246698D01*
X86636465Y-108058498D01*
X86597974Y-108064892D01*
X86564860Y-108085528D01*
X86542163Y-108117266D01*
X86533340Y-108155273D01*
X82746911Y-108155273D01*
X82749122Y-108150424D01*
X82789177Y-108103732D01*
X82878682Y-108046284D01*
X83473286Y-107970608D01*
X83507204Y-107951320D01*
X83531159Y-107920521D01*
X83541504Y-107882899D01*
X83536665Y-107844182D01*
X83517377Y-107810265D01*
X83486578Y-107786310D01*
X83448956Y-107775965D01*
X83429359Y-107776478D01*
X82849881Y-107850229D01*
X82849569Y-107850157D01*
X82846787Y-107850622D01*
X82576906Y-107884971D01*
X82542989Y-107904259D01*
X82519034Y-107935058D01*
X82508689Y-107972680D01*
X82513528Y-108011397D01*
X82532816Y-108045314D01*
X82563615Y-108069269D01*
X82567675Y-108070385D01*
X82526080Y-108161613D01*
X82525283Y-108162411D01*
X82520972Y-108172816D01*
X82511379Y-108193858D01*
X82511266Y-108196249D01*
X82510351Y-108198459D01*
X82508430Y-108217968D01*
X81952874Y-108217968D01*
X81952874Y-107622733D01*
X84520860Y-107622733D01*
X84522460Y-107787766D01*
X84521351Y-107791412D01*
X84522622Y-107804444D01*
X84522781Y-107820814D01*
X84524661Y-107825354D01*
X84525139Y-107830246D01*
X84532625Y-107848364D01*
X84595932Y-107963394D01*
X84601117Y-107973878D01*
X84602532Y-107975385D01*
X84603025Y-107976281D01*
X84604549Y-107977534D01*
X84614534Y-107988170D01*
X84679886Y-108043142D01*
X84687203Y-108049979D01*
X84689154Y-108050938D01*
X84690005Y-108051654D01*
X84691943Y-108052309D01*
X84704795Y-108058628D01*
X84811680Y-108097120D01*
X84814140Y-108099034D01*
X84826202Y-108102350D01*
X84842783Y-108108322D01*
X84847353Y-108108166D01*
X84851762Y-108109379D01*
X84871359Y-108108866D01*
X85211521Y-108064595D01*
X85213054Y-108064949D01*
X85227893Y-108062464D01*
X85247621Y-108059897D01*
X85249454Y-108058854D01*
X85251536Y-108058506D01*
X85269098Y-108049795D01*
X85384917Y-107975457D01*
X85395490Y-107970332D01*
X85401370Y-107964897D01*
X85403671Y-107963421D01*
X85405029Y-107961516D01*
X85409887Y-107957027D01*
X85467135Y-107890292D01*
X85475107Y-107883039D01*
X85479104Y-107876340D01*
X85480936Y-107874205D01*
X85481710Y-107871972D01*
X85485152Y-107866205D01*
X85536542Y-107753492D01*
X85537340Y-107752695D01*
X85541649Y-107742291D01*
X85551244Y-107721248D01*
X85551356Y-107718856D01*
X85552272Y-107716647D01*
X85554193Y-107697138D01*
X85552592Y-107532105D01*
X85553702Y-107528460D01*
X85552430Y-107515427D01*
X85552272Y-107499058D01*
X85550391Y-107494517D01*
X85549914Y-107489626D01*
X85542428Y-107471509D01*
X85479121Y-107356476D01*
X85473937Y-107345993D01*
X85472522Y-107344486D01*
X85472030Y-107343591D01*
X85470504Y-107342337D01*
X85460520Y-107331701D01*
X85395160Y-107276722D01*
X85387850Y-107269892D01*
X85385901Y-107268933D01*
X85385049Y-107268217D01*
X85383107Y-107267560D01*
X85379102Y-107265591D01*
X86533290Y-107265591D01*
X86534962Y-107489910D01*
X86533781Y-107493794D01*
X86535091Y-107507233D01*
X86535211Y-107523196D01*
X86537091Y-107527736D01*
X86537569Y-107532628D01*
X86545055Y-107550746D01*
X86606423Y-107662253D01*
X86611599Y-107673639D01*
X86613844Y-107675737D01*
X86615455Y-107678663D01*
X86628122Y-107689077D01*
X86640109Y-107700278D01*
X86644177Y-107702278D01*
X86645594Y-107703443D01*
X86648094Y-107704203D01*
X86657701Y-107708927D01*
X86764586Y-107747419D01*
X86767046Y-107749333D01*
X86779108Y-107752649D01*
X86795689Y-107758621D01*
X86800259Y-107758465D01*
X86804668Y-107759678D01*
X86824265Y-107759165D01*
X86943958Y-107743859D01*
X86945774Y-107743945D01*
X86947143Y-107743452D01*
X87412331Y-107683966D01*
X87421966Y-107684421D01*
X87429231Y-107681805D01*
X87498147Y-107672993D01*
X87532065Y-107653705D01*
X87556019Y-107622906D01*
X87566365Y-107585284D01*
X87561525Y-107546567D01*
X87546670Y-107520446D01*
X87548972Y-107515398D01*
X87549770Y-107514601D01*
X87554079Y-107504197D01*
X87563674Y-107483154D01*
X87563786Y-107480762D01*
X87564702Y-107478553D01*
X87566623Y-107459044D01*
X87564904Y-107175355D01*
X87566133Y-107171319D01*
X87564797Y-107157627D01*
X87564702Y-107141916D01*
X87562821Y-107137375D01*
X87562344Y-107132485D01*
X87554859Y-107114367D01*
X87493486Y-107002851D01*
X87488314Y-106991472D01*
X87486069Y-106989375D01*
X87484460Y-106986450D01*
X87471785Y-106976028D01*
X87459804Y-106964834D01*
X87455740Y-106962836D01*
X87454321Y-106961669D01*
X87451815Y-106960906D01*
X87442212Y-106956185D01*
X87335325Y-106917691D01*
X87332866Y-106915779D01*
X87320802Y-106912461D01*
X87304223Y-106906491D01*
X87299653Y-106906646D01*
X87295245Y-106905434D01*
X87275648Y-106905947D01*
X87172715Y-106920255D01*
X87172049Y-106920102D01*
X87163373Y-106921554D01*
X87137480Y-106925154D01*
X87135646Y-106926196D01*
X87133566Y-106926545D01*
X87116005Y-106935256D01*
X87005349Y-107006278D01*
X86998380Y-107008787D01*
X86991051Y-107015454D01*
X86981432Y-107021629D01*
X86976194Y-107028972D01*
X86969520Y-107035046D01*
X86959475Y-107051880D01*
X86958795Y-107053369D01*
X86958777Y-107053396D01*
X86958770Y-107053426D01*
X86908084Y-107164593D01*
X86907286Y-107165392D01*
X86902972Y-107175805D01*
X86893382Y-107196840D01*
X86893269Y-107199230D01*
X86892354Y-107201440D01*
X86890433Y-107220949D01*
X86892082Y-107493245D01*
X86864242Y-107554305D01*
X86826911Y-107559079D01*
X86763427Y-107536216D01*
X86733121Y-107481151D01*
X86731702Y-107290777D01*
X86789865Y-107163213D01*
X86791703Y-107124238D01*
X86778487Y-107087526D01*
X86752228Y-107058666D01*
X86716924Y-107042052D01*
X86677949Y-107040214D01*
X86641237Y-107053430D01*
X86612377Y-107079689D01*
X86602332Y-107096523D01*
X86550940Y-107209236D01*
X86550143Y-107210034D01*
X86545832Y-107220439D01*
X86536239Y-107241481D01*
X86536126Y-107243872D01*
X86535211Y-107246082D01*
X86533290Y-107265591D01*
X85379102Y-107265591D01*
X85370258Y-107261243D01*
X85263371Y-107222749D01*
X85260912Y-107220837D01*
X85248848Y-107217519D01*
X85232269Y-107211549D01*
X85227699Y-107211704D01*
X85223291Y-107210492D01*
X85203694Y-107211005D01*
X84863531Y-107255275D01*
X84861999Y-107254922D01*
X84847171Y-107257404D01*
X84827431Y-107259974D01*
X84825595Y-107261017D01*
X84823516Y-107261366D01*
X84805955Y-107270076D01*
X84690128Y-107344417D01*
X84679564Y-107349540D01*
X84673687Y-107354969D01*
X84671382Y-107356450D01*
X84670021Y-107358358D01*
X84665167Y-107362844D01*
X84607921Y-107429575D01*
X84599947Y-107436831D01*
X84595947Y-107443532D01*
X84594118Y-107445666D01*
X84593344Y-107447896D01*
X84589902Y-107453665D01*
X84538510Y-107566378D01*
X84537713Y-107567176D01*
X84533402Y-107577581D01*
X84523809Y-107598623D01*
X84523696Y-107601014D01*
X84522781Y-107603224D01*
X84520860Y-107622733D01*
X81952874Y-107622733D01*
X81952874Y-106967968D01*
X82508430Y-106967968D01*
X82510102Y-107192287D01*
X82508921Y-107196171D01*
X82510231Y-107209610D01*
X82510351Y-107225573D01*
X82512231Y-107230113D01*
X82512709Y-107235005D01*
X82520195Y-107253123D01*
X82581563Y-107364630D01*
X82586739Y-107376016D01*
X82588984Y-107378114D01*
X82590595Y-107381040D01*
X82603262Y-107391454D01*
X82615249Y-107402655D01*
X82619317Y-107404655D01*
X82620734Y-107405820D01*
X82623234Y-107406580D01*
X82632841Y-107411304D01*
X82739726Y-107449796D01*
X82742186Y-107451710D01*
X82754248Y-107455026D01*
X82770829Y-107460998D01*
X82775399Y-107460842D01*
X82779808Y-107462055D01*
X82799405Y-107461542D01*
X82919098Y-107446236D01*
X82920914Y-107446322D01*
X82922283Y-107445829D01*
X83387471Y-107386343D01*
X83397106Y-107386798D01*
X83404371Y-107384182D01*
X83473287Y-107375370D01*
X83507205Y-107356082D01*
X83531159Y-107325283D01*
X83541505Y-107287661D01*
X83536665Y-107248944D01*
X83521810Y-107222823D01*
X83524112Y-107217775D01*
X83524910Y-107216978D01*
X83529219Y-107206574D01*
X83538814Y-107185531D01*
X83538926Y-107183139D01*
X83539842Y-107180930D01*
X83541763Y-107161421D01*
X83540152Y-106895532D01*
X84104343Y-106895532D01*
X84106974Y-106913999D01*
X84109291Y-106932531D01*
X84109724Y-106933293D01*
X84109848Y-106934160D01*
X84119358Y-106950234D01*
X84128579Y-106966448D01*
X84129269Y-106966984D01*
X84129716Y-106967740D01*
X84144646Y-106978944D01*
X84159378Y-106990403D01*
X84160223Y-106990635D01*
X84160924Y-106991161D01*
X84178993Y-106995796D01*
X84197000Y-107000748D01*
X84198173Y-107000717D01*
X84198718Y-107000857D01*
X84200041Y-107000668D01*
X84216596Y-107000235D01*
X85485717Y-106839659D01*
X85519634Y-106820371D01*
X85543589Y-106789572D01*
X85553935Y-106751950D01*
X85549095Y-106713233D01*
X85529807Y-106679316D01*
X85499008Y-106655361D01*
X85461386Y-106645016D01*
X85441790Y-106645529D01*
X84664435Y-106743884D01*
X84888387Y-106610829D01*
X86533290Y-106610829D01*
X86535211Y-106749386D01*
X86550143Y-106785434D01*
X86577733Y-106813024D01*
X86613781Y-106827956D01*
X86652799Y-106827956D01*
X86688847Y-106813024D01*
X86716437Y-106785434D01*
X86731369Y-106749386D01*
X86733290Y-106729877D01*
X86731980Y-106635406D01*
X86773982Y-106543285D01*
X86814037Y-106496593D01*
X86903542Y-106439145D01*
X87498146Y-106363469D01*
X87532064Y-106344181D01*
X87556019Y-106313382D01*
X87566364Y-106275760D01*
X87561525Y-106237043D01*
X87542237Y-106203126D01*
X87511438Y-106179171D01*
X87473816Y-106168826D01*
X87454219Y-106169339D01*
X86874741Y-106243090D01*
X86874429Y-106243018D01*
X86871647Y-106243483D01*
X86601766Y-106277832D01*
X86567849Y-106297120D01*
X86543894Y-106327919D01*
X86533549Y-106365541D01*
X86538388Y-106404258D01*
X86557676Y-106438175D01*
X86588475Y-106462130D01*
X86592535Y-106463246D01*
X86550940Y-106554474D01*
X86550143Y-106555272D01*
X86545832Y-106565677D01*
X86536239Y-106586719D01*
X86536126Y-106589110D01*
X86535211Y-106591320D01*
X86533290Y-106610829D01*
X84888387Y-106610829D01*
X85144180Y-106458857D01*
X85157768Y-106452190D01*
X85160362Y-106449242D01*
X85163783Y-106447211D01*
X85173197Y-106434666D01*
X85183553Y-106422906D01*
X85184830Y-106419166D01*
X85187204Y-106416004D01*
X85191100Y-106400814D01*
X85196168Y-106385983D01*
X85195917Y-106382039D01*
X85196900Y-106378209D01*
X85194686Y-106362679D01*
X85193693Y-106347044D01*
X85191953Y-106343498D01*
X85191395Y-106339581D01*
X85183409Y-106326084D01*
X85176506Y-106312015D01*
X85173538Y-106309402D01*
X85171526Y-106306001D01*
X85158991Y-106296594D01*
X85147221Y-106286230D01*
X85142035Y-106283868D01*
X85140319Y-106282580D01*
X85137771Y-106281926D01*
X85129381Y-106278105D01*
X84642879Y-106112966D01*
X85485717Y-106006326D01*
X85519634Y-105987038D01*
X85543589Y-105956239D01*
X85553935Y-105918617D01*
X85549095Y-105879900D01*
X85529807Y-105845983D01*
X85518282Y-105837019D01*
X86533290Y-105837019D01*
X86535211Y-105975576D01*
X86550143Y-106011624D01*
X86577733Y-106039214D01*
X86613781Y-106054146D01*
X86652799Y-106054146D01*
X86688847Y-106039214D01*
X86716437Y-106011624D01*
X86731369Y-105975576D01*
X86733290Y-105956067D01*
X86731980Y-105861596D01*
X86773982Y-105769475D01*
X86814037Y-105722783D01*
X86903542Y-105665335D01*
X87498146Y-105589659D01*
X87532064Y-105570371D01*
X87556019Y-105539572D01*
X87566364Y-105501950D01*
X87561525Y-105463233D01*
X87542237Y-105429316D01*
X87511438Y-105405361D01*
X87473816Y-105395016D01*
X87454219Y-105395529D01*
X86874741Y-105469280D01*
X86874429Y-105469208D01*
X86871647Y-105469673D01*
X86601766Y-105504022D01*
X86567849Y-105523310D01*
X86543894Y-105554109D01*
X86533549Y-105591731D01*
X86538388Y-105630448D01*
X86557676Y-105664365D01*
X86588475Y-105688320D01*
X86592535Y-105689436D01*
X86550940Y-105780664D01*
X86550143Y-105781462D01*
X86545832Y-105791867D01*
X86536239Y-105812909D01*
X86536126Y-105815300D01*
X86535211Y-105817510D01*
X86533290Y-105837019D01*
X85518282Y-105837019D01*
X85499008Y-105822028D01*
X85461386Y-105811683D01*
X85441790Y-105812196D01*
X84194446Y-105970016D01*
X84178503Y-105971030D01*
X84175746Y-105972382D01*
X84172669Y-105972772D01*
X84158302Y-105980941D01*
X84143474Y-105988218D01*
X84141434Y-105990534D01*
X84138752Y-105992060D01*
X84128613Y-106005094D01*
X84117689Y-106017502D01*
X84116690Y-106020424D01*
X84114797Y-106022859D01*
X84110418Y-106038780D01*
X84105074Y-106054425D01*
X84105269Y-106057506D01*
X84104452Y-106060481D01*
X84106500Y-106076874D01*
X84107549Y-106093364D01*
X84108908Y-106096133D01*
X84109291Y-106099198D01*
X84117460Y-106113564D01*
X84124737Y-106128393D01*
X84127053Y-106130432D01*
X84128579Y-106133115D01*
X84141613Y-106143253D01*
X84154021Y-106154178D01*
X84157975Y-106155978D01*
X84159378Y-106157070D01*
X84161883Y-106157759D01*
X84171861Y-106162303D01*
X84861464Y-106396382D01*
X84153272Y-106817135D01*
X84138752Y-106825393D01*
X84138217Y-106826079D01*
X84137460Y-106826530D01*
X84126255Y-106841460D01*
X84114797Y-106856192D01*
X84114564Y-106857037D01*
X84114039Y-106857738D01*
X84109403Y-106875807D01*
X84104452Y-106893814D01*
X84104560Y-106894683D01*
X84104343Y-106895532D01*
X83540152Y-106895532D01*
X83540044Y-106877732D01*
X83541273Y-106873696D01*
X83539937Y-106860004D01*
X83539842Y-106844293D01*
X83537961Y-106839752D01*
X83537484Y-106834862D01*
X83529999Y-106816744D01*
X83468626Y-106705228D01*
X83463454Y-106693849D01*
X83461209Y-106691752D01*
X83459600Y-106688827D01*
X83446925Y-106678405D01*
X83434944Y-106667211D01*
X83430880Y-106665213D01*
X83429461Y-106664046D01*
X83426955Y-106663283D01*
X83417352Y-106658562D01*
X83310465Y-106620068D01*
X83308006Y-106618156D01*
X83295942Y-106614838D01*
X83279363Y-106608868D01*
X83274793Y-106609023D01*
X83270385Y-106607811D01*
X83250788Y-106608324D01*
X83147855Y-106622632D01*
X83147189Y-106622479D01*
X83138513Y-106623931D01*
X83112620Y-106627531D01*
X83110786Y-106628573D01*
X83108706Y-106628922D01*
X83091145Y-106637633D01*
X82980489Y-106708655D01*
X82973520Y-106711164D01*
X82966191Y-106717831D01*
X82956572Y-106724006D01*
X82951334Y-106731349D01*
X82944660Y-106737423D01*
X82934615Y-106754257D01*
X82933935Y-106755746D01*
X82933917Y-106755773D01*
X82933910Y-106755803D01*
X82883224Y-106866970D01*
X82882426Y-106867769D01*
X82878112Y-106878182D01*
X82868522Y-106899217D01*
X82868409Y-106901607D01*
X82867494Y-106903817D01*
X82865573Y-106923326D01*
X82867222Y-107195622D01*
X82839382Y-107256682D01*
X82802051Y-107261456D01*
X82738567Y-107238593D01*
X82708261Y-107183528D01*
X82706842Y-106993154D01*
X82765005Y-106865590D01*
X82766843Y-106826615D01*
X82753627Y-106789903D01*
X82727368Y-106761043D01*
X82692064Y-106744429D01*
X82653089Y-106742591D01*
X82616377Y-106755807D01*
X82587517Y-106782066D01*
X82577472Y-106798900D01*
X82526080Y-106911613D01*
X82525283Y-106912411D01*
X82520972Y-106922816D01*
X82511379Y-106943858D01*
X82511266Y-106946249D01*
X82510351Y-106948459D01*
X82508430Y-106967968D01*
X81952874Y-106967968D01*
X81952874Y-105896540D01*
X82508430Y-105896540D01*
X82510030Y-106061573D01*
X82508921Y-106065219D01*
X82510192Y-106078251D01*
X82510351Y-106094621D01*
X82512231Y-106099161D01*
X82512709Y-106104053D01*
X82520195Y-106122171D01*
X82583502Y-106237201D01*
X82588687Y-106247685D01*
X82590102Y-106249192D01*
X82590595Y-106250088D01*
X82592119Y-106251341D01*
X82602104Y-106261977D01*
X82667456Y-106316949D01*
X82674773Y-106323786D01*
X82676724Y-106324745D01*
X82677575Y-106325461D01*
X82679513Y-106326116D01*
X82692365Y-106332435D01*
X82799250Y-106370927D01*
X82801710Y-106372841D01*
X82813772Y-106376157D01*
X82830353Y-106382129D01*
X82834923Y-106381973D01*
X82839332Y-106383186D01*
X82858929Y-106382673D01*
X83199091Y-106338402D01*
X83200624Y-106338756D01*
X83215463Y-106336271D01*
X83235191Y-106333704D01*
X83237024Y-106332661D01*
X83239106Y-106332313D01*
X83256668Y-106323602D01*
X83372487Y-106249264D01*
X83383060Y-106244139D01*
X83388940Y-106238704D01*
X83391241Y-106237228D01*
X83392599Y-106235323D01*
X83397457Y-106230834D01*
X83454705Y-106164099D01*
X83462677Y-106156846D01*
X83466674Y-106150147D01*
X83468506Y-106148012D01*
X83469280Y-106145779D01*
X83472722Y-106140012D01*
X83524112Y-106027299D01*
X83524910Y-106026502D01*
X83529219Y-106016098D01*
X83538814Y-105995055D01*
X83538926Y-105992663D01*
X83539842Y-105990454D01*
X83541763Y-105970945D01*
X83540162Y-105805912D01*
X83541272Y-105802267D01*
X83540000Y-105789234D01*
X83539842Y-105772865D01*
X83537961Y-105768324D01*
X83537484Y-105763433D01*
X83529998Y-105745316D01*
X83466691Y-105630283D01*
X83461507Y-105619800D01*
X83460092Y-105618293D01*
X83459600Y-105617398D01*
X83458074Y-105616144D01*
X83448090Y-105605508D01*
X83382730Y-105550529D01*
X83375420Y-105543699D01*
X83373471Y-105542740D01*
X83372619Y-105542024D01*
X83370677Y-105541367D01*
X83357828Y-105535050D01*
X83250941Y-105496556D01*
X83248482Y-105494644D01*
X83236418Y-105491326D01*
X83219839Y-105485356D01*
X83215269Y-105485511D01*
X83210861Y-105484299D01*
X83191264Y-105484812D01*
X82851101Y-105529082D01*
X82849569Y-105528729D01*
X82834741Y-105531211D01*
X82815001Y-105533781D01*
X82813165Y-105534824D01*
X82811086Y-105535173D01*
X82793525Y-105543883D01*
X82677698Y-105618224D01*
X82667134Y-105623347D01*
X82661257Y-105628776D01*
X82658952Y-105630257D01*
X82657591Y-105632165D01*
X82652737Y-105636651D01*
X82595491Y-105703382D01*
X82587517Y-105710638D01*
X82583517Y-105717339D01*
X82581688Y-105719473D01*
X82580914Y-105721703D01*
X82577472Y-105727472D01*
X82526080Y-105840185D01*
X82525283Y-105840983D01*
X82520972Y-105851388D01*
X82511379Y-105872430D01*
X82511266Y-105874821D01*
X82510351Y-105877031D01*
X82508430Y-105896540D01*
X81952874Y-105896540D01*
X81952874Y-104520052D01*
X82091763Y-104520052D01*
X82093535Y-104922613D01*
X82092254Y-104926826D01*
X82093616Y-104940789D01*
X82093684Y-104956228D01*
X82095564Y-104960768D01*
X82096042Y-104965660D01*
X82103528Y-104983778D01*
X82166835Y-105098808D01*
X82172020Y-105109292D01*
X82173435Y-105110799D01*
X82173928Y-105111695D01*
X82175452Y-105112948D01*
X82185437Y-105123584D01*
X82250786Y-105178553D01*
X82258106Y-105185393D01*
X82260056Y-105186352D01*
X82260908Y-105187068D01*
X82262847Y-105187723D01*
X82275699Y-105194042D01*
X82382583Y-105232534D01*
X82385044Y-105234448D01*
X82397110Y-105237765D01*
X82413688Y-105243736D01*
X82418257Y-105243580D01*
X82422666Y-105244793D01*
X82442263Y-105244280D01*
X82545194Y-105229971D01*
X82545862Y-105230125D01*
X82554544Y-105228671D01*
X82580429Y-105225073D01*
X82582262Y-105224030D01*
X82584344Y-105223682D01*
X82601906Y-105214971D01*
X82717725Y-105140633D01*
X82728298Y-105135508D01*
X82734178Y-105130073D01*
X82736479Y-105128597D01*
X82737837Y-105126692D01*
X82742695Y-105122203D01*
X82766994Y-105093877D01*
X82767258Y-105094411D01*
X82780675Y-105108703D01*
X82846024Y-105163672D01*
X82853344Y-105170512D01*
X82855294Y-105171471D01*
X82856146Y-105172187D01*
X82858085Y-105172842D01*
X82870937Y-105179161D01*
X82977821Y-105217653D01*
X82980282Y-105219567D01*
X82992348Y-105222884D01*
X83008926Y-105228855D01*
X83013495Y-105228699D01*
X83017904Y-105229912D01*
X83037500Y-105229399D01*
X83199550Y-105207556D01*
X83200624Y-105207804D01*
X83212651Y-105205790D01*
X83235192Y-105202752D01*
X83237025Y-105201709D01*
X83239106Y-105201361D01*
X83256668Y-105192650D01*
X83372487Y-105118312D01*
X83383060Y-105113187D01*
X83388940Y-105107752D01*
X83391241Y-105106276D01*
X83392599Y-105104371D01*
X83397457Y-105099882D01*
X83454705Y-105033147D01*
X83462677Y-105025894D01*
X83466675Y-105019194D01*
X83468506Y-105017060D01*
X83469280Y-105014827D01*
X83472722Y-105009060D01*
X83524112Y-104896347D01*
X83524910Y-104895550D01*
X83529219Y-104885146D01*
X83538814Y-104864103D01*
X83538926Y-104861711D01*
X83539842Y-104859502D01*
X83541763Y-104839993D01*
X83541673Y-104816768D01*
X86116627Y-104816768D01*
X86118884Y-104828679D01*
X86119334Y-104840803D01*
X86122485Y-104847679D01*
X86123893Y-104855104D01*
X86130535Y-104865241D01*
X86135591Y-104876273D01*
X86141134Y-104881419D01*
X86145276Y-104887741D01*
X86155297Y-104894569D01*
X86164185Y-104902821D01*
X86171270Y-104905452D01*
X86177520Y-104909711D01*
X86196228Y-104915571D01*
X87083327Y-105099012D01*
X87089971Y-105101764D01*
X87096635Y-105101764D01*
X87465719Y-105178086D01*
X87504054Y-105170820D01*
X87536691Y-105149437D01*
X87558662Y-105117193D01*
X87566620Y-105078995D01*
X87559354Y-105040659D01*
X87537971Y-105008022D01*
X87505726Y-104986052D01*
X87487019Y-104980192D01*
X87209227Y-104922748D01*
X87207817Y-104471795D01*
X87525223Y-104325789D01*
X87551771Y-104297195D01*
X87565357Y-104260618D01*
X87563912Y-104221627D01*
X87547655Y-104186157D01*
X87519061Y-104159609D01*
X87482484Y-104146023D01*
X87443493Y-104147468D01*
X87424957Y-104153851D01*
X86186439Y-104723569D01*
X86179192Y-104724943D01*
X86169148Y-104731523D01*
X86158023Y-104736641D01*
X86152876Y-104742184D01*
X86146555Y-104746326D01*
X86139726Y-104756347D01*
X86131475Y-104765235D01*
X86128843Y-104772320D01*
X86124585Y-104778570D01*
X86122110Y-104790445D01*
X86117889Y-104801812D01*
X86118168Y-104809366D01*
X86116627Y-104816768D01*
X83541673Y-104816768D01*
X83540264Y-104453338D01*
X84104452Y-104453338D01*
X84109291Y-104492054D01*
X84128579Y-104525972D01*
X84159378Y-104549927D01*
X84197000Y-104560272D01*
X84216596Y-104559759D01*
X85260466Y-104427422D01*
X85324055Y-104450322D01*
X85376833Y-104546221D01*
X85406971Y-104571001D01*
X85444299Y-104582362D01*
X85483133Y-104578574D01*
X85517561Y-104560213D01*
X85542341Y-104530074D01*
X85553702Y-104492746D01*
X85549914Y-104453912D01*
X85542428Y-104435795D01*
X85481057Y-104324280D01*
X85475884Y-104312899D01*
X85473639Y-104310802D01*
X85472030Y-104307877D01*
X85459363Y-104297463D01*
X85447374Y-104286260D01*
X85443305Y-104284259D01*
X85441891Y-104283097D01*
X85439393Y-104282336D01*
X85429782Y-104277612D01*
X85322897Y-104239120D01*
X85320437Y-104237207D01*
X85308368Y-104233888D01*
X85291792Y-104227919D01*
X85287223Y-104228074D01*
X85282815Y-104226862D01*
X85263219Y-104227375D01*
X84172670Y-104365629D01*
X84138752Y-104384917D01*
X84114797Y-104415716D01*
X84104452Y-104453338D01*
X83540264Y-104453338D01*
X83539967Y-104376587D01*
X83541505Y-104370995D01*
X83539895Y-104358120D01*
X83539842Y-104344293D01*
X83537442Y-104338501D01*
X83536665Y-104332278D01*
X83530038Y-104320624D01*
X83524910Y-104308245D01*
X83520476Y-104303811D01*
X83517377Y-104298361D01*
X83506797Y-104290132D01*
X83497320Y-104280655D01*
X83491527Y-104278255D01*
X83486578Y-104274406D01*
X83473656Y-104270852D01*
X83461272Y-104265723D01*
X83455000Y-104265723D01*
X83448956Y-104264061D01*
X83429360Y-104264574D01*
X82773412Y-104347568D01*
X82767492Y-104347568D01*
X82764888Y-104348646D01*
X82185349Y-104421973D01*
X82172254Y-104421973D01*
X82166495Y-104424358D01*
X82160239Y-104425150D01*
X82148585Y-104431776D01*
X82136206Y-104436905D01*
X82131772Y-104441338D01*
X82126322Y-104444438D01*
X82118093Y-104455017D01*
X82108616Y-104464495D01*
X82106216Y-104470287D01*
X82102367Y-104475237D01*
X82098813Y-104488158D01*
X82093684Y-104500543D01*
X82092721Y-104510313D01*
X82092022Y-104512859D01*
X82092273Y-104514869D01*
X82091763Y-104520052D01*
X81952874Y-104520052D01*
X81952874Y-103396543D01*
X84520860Y-103396543D01*
X84522532Y-103620862D01*
X84521351Y-103624746D01*
X84522661Y-103638185D01*
X84522781Y-103654148D01*
X84524661Y-103658688D01*
X84525139Y-103663580D01*
X84532625Y-103681698D01*
X84593993Y-103793205D01*
X84599169Y-103804591D01*
X84601414Y-103806689D01*
X84603025Y-103809615D01*
X84615692Y-103820029D01*
X84627679Y-103831230D01*
X84631747Y-103833230D01*
X84633164Y-103834395D01*
X84635664Y-103835155D01*
X84645271Y-103839879D01*
X84752156Y-103878371D01*
X84754616Y-103880285D01*
X84766678Y-103883601D01*
X84783259Y-103889573D01*
X84787829Y-103889417D01*
X84792238Y-103890630D01*
X84811835Y-103890117D01*
X84931528Y-103874811D01*
X84933344Y-103874897D01*
X84934713Y-103874404D01*
X85399901Y-103814918D01*
X85409536Y-103815373D01*
X85416801Y-103812757D01*
X85485717Y-103803945D01*
X85519635Y-103784657D01*
X85543589Y-103753858D01*
X85553935Y-103716236D01*
X85549095Y-103677519D01*
X85534240Y-103651398D01*
X85536542Y-103646350D01*
X85537340Y-103645553D01*
X85541649Y-103635149D01*
X85551244Y-103614106D01*
X85551356Y-103611714D01*
X85552272Y-103609505D01*
X85554193Y-103589996D01*
X85552474Y-103306307D01*
X85553703Y-103302271D01*
X85552367Y-103288579D01*
X85552272Y-103272868D01*
X85550391Y-103268327D01*
X85549914Y-103263437D01*
X85542429Y-103245319D01*
X85481056Y-103133803D01*
X85475884Y-103122424D01*
X85473639Y-103120327D01*
X85472030Y-103117402D01*
X85459355Y-103106980D01*
X85447374Y-103095786D01*
X85443310Y-103093788D01*
X85441891Y-103092621D01*
X85439385Y-103091858D01*
X85429782Y-103087137D01*
X85322895Y-103048643D01*
X85320436Y-103046731D01*
X85308372Y-103043413D01*
X85297225Y-103039399D01*
X86533290Y-103039399D01*
X86535211Y-103177956D01*
X86550143Y-103214004D01*
X86577733Y-103241594D01*
X86613781Y-103256526D01*
X86652799Y-103256526D01*
X86688847Y-103241594D01*
X86716437Y-103214004D01*
X86731369Y-103177956D01*
X86733290Y-103158447D01*
X86731980Y-103063976D01*
X86773982Y-102971855D01*
X86814037Y-102925163D01*
X86903542Y-102867715D01*
X87498146Y-102792039D01*
X87532064Y-102772751D01*
X87556019Y-102741952D01*
X87566364Y-102704330D01*
X87561525Y-102665613D01*
X87542237Y-102631696D01*
X87511438Y-102607741D01*
X87473816Y-102597396D01*
X87454219Y-102597909D01*
X86874741Y-102671660D01*
X86874429Y-102671588D01*
X86871647Y-102672053D01*
X86601766Y-102706402D01*
X86567849Y-102725690D01*
X86543894Y-102756489D01*
X86533549Y-102794111D01*
X86538388Y-102832828D01*
X86557676Y-102866745D01*
X86588475Y-102890700D01*
X86592535Y-102891816D01*
X86550940Y-102983044D01*
X86550143Y-102983842D01*
X86545832Y-102994247D01*
X86536239Y-103015289D01*
X86536126Y-103017680D01*
X86535211Y-103019890D01*
X86533290Y-103039399D01*
X85297225Y-103039399D01*
X85291793Y-103037443D01*
X85287223Y-103037598D01*
X85282815Y-103036386D01*
X85263218Y-103036899D01*
X85160285Y-103051207D01*
X85159619Y-103051054D01*
X85150943Y-103052506D01*
X85125050Y-103056106D01*
X85123216Y-103057148D01*
X85121136Y-103057497D01*
X85103575Y-103066208D01*
X84992919Y-103137230D01*
X84985950Y-103139739D01*
X84978621Y-103146406D01*
X84969002Y-103152581D01*
X84963764Y-103159924D01*
X84957090Y-103165998D01*
X84947045Y-103182832D01*
X84946365Y-103184321D01*
X84946347Y-103184348D01*
X84946340Y-103184378D01*
X84895654Y-103295545D01*
X84894856Y-103296344D01*
X84890542Y-103306757D01*
X84880952Y-103327792D01*
X84880839Y-103330182D01*
X84879924Y-103332392D01*
X84878003Y-103351901D01*
X84879652Y-103624197D01*
X84851812Y-103685257D01*
X84814481Y-103690031D01*
X84750997Y-103667168D01*
X84720691Y-103612103D01*
X84719272Y-103421729D01*
X84777435Y-103294165D01*
X84779273Y-103255190D01*
X84766057Y-103218478D01*
X84739798Y-103189618D01*
X84704494Y-103173004D01*
X84665519Y-103171166D01*
X84628807Y-103184382D01*
X84599947Y-103210641D01*
X84589902Y-103227475D01*
X84538510Y-103340188D01*
X84537713Y-103340986D01*
X84533402Y-103351391D01*
X84523809Y-103372433D01*
X84523696Y-103374824D01*
X84522781Y-103377034D01*
X84520860Y-103396543D01*
X81952874Y-103396543D01*
X81952874Y-102563207D01*
X82508430Y-102563207D01*
X82510030Y-102728240D01*
X82508921Y-102731886D01*
X82510192Y-102744918D01*
X82510351Y-102761288D01*
X82512231Y-102765828D01*
X82512709Y-102770720D01*
X82520195Y-102788838D01*
X82581563Y-102900345D01*
X82586739Y-102911731D01*
X82588984Y-102913829D01*
X82590595Y-102916755D01*
X82603262Y-102927169D01*
X82615249Y-102938370D01*
X82619317Y-102940370D01*
X82620734Y-102941535D01*
X82623234Y-102942295D01*
X82632841Y-102947019D01*
X82739726Y-102985511D01*
X82742186Y-102987425D01*
X82754248Y-102990741D01*
X82770829Y-102996713D01*
X82775399Y-102996557D01*
X82779808Y-102997770D01*
X82799405Y-102997257D01*
X83473287Y-102911085D01*
X83507205Y-102891797D01*
X83531159Y-102860998D01*
X83541505Y-102823376D01*
X83536665Y-102784659D01*
X83517377Y-102750742D01*
X83486578Y-102726787D01*
X83448956Y-102716442D01*
X83429360Y-102716955D01*
X82802051Y-102797171D01*
X82738567Y-102774308D01*
X82708210Y-102719150D01*
X82706940Y-102588178D01*
X82749122Y-102495663D01*
X82776208Y-102464089D01*
X83400473Y-102384638D01*
X84520860Y-102384638D01*
X84522532Y-102608956D01*
X84521351Y-102612840D01*
X84522661Y-102626279D01*
X84522781Y-102642242D01*
X84524661Y-102646782D01*
X84525139Y-102651674D01*
X84532625Y-102669792D01*
X84603024Y-102797710D01*
X84633163Y-102822490D01*
X84670491Y-102833851D01*
X84709325Y-102830062D01*
X84743753Y-102811701D01*
X84768533Y-102781562D01*
X84779893Y-102744234D01*
X84776105Y-102705400D01*
X84768619Y-102687282D01*
X84720691Y-102600196D01*
X84719272Y-102409824D01*
X84761552Y-102317094D01*
X84801607Y-102270402D01*
X84890166Y-102213561D01*
X85201262Y-102173073D01*
X85280802Y-102201717D01*
X85313972Y-102229619D01*
X85354361Y-102303007D01*
X85355780Y-102493381D01*
X85297619Y-102620946D01*
X85295781Y-102659921D01*
X85308997Y-102696632D01*
X85335257Y-102725492D01*
X85370561Y-102742106D01*
X85409536Y-102743944D01*
X85446247Y-102730728D01*
X85475107Y-102704468D01*
X85485152Y-102687634D01*
X85536542Y-102574921D01*
X85537340Y-102574124D01*
X85541649Y-102563720D01*
X85551244Y-102542677D01*
X85551356Y-102540285D01*
X85552272Y-102538076D01*
X85554193Y-102518567D01*
X85552520Y-102294247D01*
X85553702Y-102290365D01*
X85552391Y-102276925D01*
X85552272Y-102260963D01*
X85550391Y-102256422D01*
X85549914Y-102251531D01*
X85542428Y-102233414D01*
X85479121Y-102118381D01*
X85473937Y-102107898D01*
X85472522Y-102106391D01*
X85472030Y-102105496D01*
X85470504Y-102104242D01*
X85460520Y-102093606D01*
X85395160Y-102038627D01*
X85387850Y-102031797D01*
X85385901Y-102030838D01*
X85385049Y-102030122D01*
X85383107Y-102029465D01*
X85370258Y-102023148D01*
X85263371Y-101984654D01*
X85260912Y-101982742D01*
X85248848Y-101979424D01*
X85232269Y-101973454D01*
X85227699Y-101973609D01*
X85223291Y-101972397D01*
X85203694Y-101972910D01*
X84863531Y-102017180D01*
X84861999Y-102016827D01*
X84847171Y-102019309D01*
X84827431Y-102021879D01*
X84825595Y-102022922D01*
X84823516Y-102023271D01*
X84805955Y-102031981D01*
X84690128Y-102106322D01*
X84679564Y-102111445D01*
X84673687Y-102116874D01*
X84671382Y-102118355D01*
X84670021Y-102120263D01*
X84665167Y-102124749D01*
X84607921Y-102191480D01*
X84599947Y-102198736D01*
X84595947Y-102205437D01*
X84594118Y-102207571D01*
X84593344Y-102209801D01*
X84589902Y-102215570D01*
X84538510Y-102328283D01*
X84537713Y-102329081D01*
X84533402Y-102339486D01*
X84523809Y-102360528D01*
X84523696Y-102362919D01*
X84522781Y-102365129D01*
X84520860Y-102384638D01*
X83400473Y-102384638D01*
X83473286Y-102375371D01*
X83507204Y-102356083D01*
X83531159Y-102325284D01*
X83541504Y-102287662D01*
X83536665Y-102248945D01*
X83517377Y-102215028D01*
X83486578Y-102191073D01*
X83448956Y-102180728D01*
X83429359Y-102181241D01*
X82713800Y-102272311D01*
X82702244Y-102272991D01*
X82700031Y-102274063D01*
X82576906Y-102289734D01*
X82542989Y-102309022D01*
X82519034Y-102339821D01*
X82508689Y-102377443D01*
X82513528Y-102416160D01*
X82532816Y-102450077D01*
X82546953Y-102461073D01*
X82526080Y-102506852D01*
X82525283Y-102507650D01*
X82520972Y-102518055D01*
X82511379Y-102539097D01*
X82511266Y-102541488D01*
X82510351Y-102543698D01*
X82508430Y-102563207D01*
X81952874Y-102563207D01*
X81952874Y-101834288D01*
X82092022Y-101834288D01*
X82094042Y-101850454D01*
X82094999Y-101866715D01*
X82095173Y-101867075D01*
X82095200Y-101867471D01*
X82096497Y-101870094D01*
X82096861Y-101873005D01*
X82104913Y-101887165D01*
X82112021Y-101901825D01*
X82112319Y-101902090D01*
X82112496Y-101902447D01*
X82115306Y-101905441D01*
X82116149Y-101906922D01*
X82118179Y-101908501D01*
X82125913Y-101916739D01*
X82197025Y-101976556D01*
X82200708Y-101979830D01*
X82201063Y-101979953D01*
X82201384Y-101980223D01*
X82219518Y-101986355D01*
X82237571Y-101992619D01*
X82237968Y-101992595D01*
X82238345Y-101992723D01*
X82257365Y-101991454D01*
X82276521Y-101990328D01*
X82276881Y-101990153D01*
X82277277Y-101990127D01*
X82294331Y-101981693D01*
X82311631Y-101973306D01*
X82312021Y-101972944D01*
X82312252Y-101972831D01*
X82312704Y-101972314D01*
X82326028Y-101960001D01*
X82374980Y-101902937D01*
X82376252Y-101902214D01*
X82382576Y-101894082D01*
X82397077Y-101877179D01*
X82397207Y-101876803D01*
X82397470Y-101876503D01*
X82398409Y-101873724D01*
X82400206Y-101871415D01*
X82404523Y-101855716D01*
X82409866Y-101840316D01*
X82409842Y-101839917D01*
X82409970Y-101839541D01*
X82409775Y-101836618D01*
X82410552Y-101833793D01*
X82408531Y-101817633D01*
X82407575Y-101801366D01*
X82407400Y-101801006D01*
X82407374Y-101800609D01*
X82406075Y-101797982D01*
X82405712Y-101795077D01*
X82398392Y-101782205D01*
X82508689Y-101782205D01*
X82513528Y-101820922D01*
X82532816Y-101854839D01*
X82563615Y-101878794D01*
X82601237Y-101889139D01*
X82620834Y-101888626D01*
X82932789Y-101848923D01*
X86533290Y-101848923D01*
X86534890Y-102013956D01*
X86533781Y-102017602D01*
X86535052Y-102030634D01*
X86535211Y-102047004D01*
X86537091Y-102051544D01*
X86537569Y-102056436D01*
X86545055Y-102074554D01*
X86608362Y-102189584D01*
X86613547Y-102200068D01*
X86614962Y-102201575D01*
X86615455Y-102202471D01*
X86616979Y-102203724D01*
X86626964Y-102214360D01*
X86692316Y-102269332D01*
X86699633Y-102276169D01*
X86701584Y-102277128D01*
X86702435Y-102277844D01*
X86704373Y-102278499D01*
X86717225Y-102284818D01*
X86824110Y-102323310D01*
X86826570Y-102325224D01*
X86838632Y-102328540D01*
X86855213Y-102334512D01*
X86859783Y-102334356D01*
X86864192Y-102335569D01*
X86883789Y-102335056D01*
X87223951Y-102290785D01*
X87225484Y-102291139D01*
X87240323Y-102288654D01*
X87260051Y-102286087D01*
X87261884Y-102285044D01*
X87263966Y-102284696D01*
X87281528Y-102275985D01*
X87397347Y-102201647D01*
X87407920Y-102196522D01*
X87413800Y-102191087D01*
X87416101Y-102189611D01*
X87417459Y-102187706D01*
X87422317Y-102183217D01*
X87479565Y-102116482D01*
X87487537Y-102109229D01*
X87491534Y-102102530D01*
X87493366Y-102100395D01*
X87494140Y-102098162D01*
X87497582Y-102092395D01*
X87548972Y-101979682D01*
X87549770Y-101978885D01*
X87554079Y-101968481D01*
X87563674Y-101947438D01*
X87563786Y-101945046D01*
X87564702Y-101942837D01*
X87566623Y-101923328D01*
X87565022Y-101758295D01*
X87566132Y-101754650D01*
X87564860Y-101741617D01*
X87564702Y-101725248D01*
X87562821Y-101720707D01*
X87562344Y-101715816D01*
X87554858Y-101697699D01*
X87491551Y-101582666D01*
X87486367Y-101572183D01*
X87484952Y-101570676D01*
X87484460Y-101569781D01*
X87482934Y-101568527D01*
X87472950Y-101557891D01*
X87407590Y-101502912D01*
X87400280Y-101496082D01*
X87398331Y-101495123D01*
X87397479Y-101494407D01*
X87395537Y-101493750D01*
X87382688Y-101487433D01*
X87275801Y-101448939D01*
X87273342Y-101447027D01*
X87261278Y-101443709D01*
X87244699Y-101437739D01*
X87240129Y-101437894D01*
X87235721Y-101436682D01*
X87216124Y-101437195D01*
X86875961Y-101481465D01*
X86874429Y-101481112D01*
X86859601Y-101483594D01*
X86839861Y-101486164D01*
X86838025Y-101487207D01*
X86835946Y-101487556D01*
X86818385Y-101496266D01*
X86702558Y-101570607D01*
X86691994Y-101575730D01*
X86686117Y-101581159D01*
X86683812Y-101582640D01*
X86682451Y-101584548D01*
X86677597Y-101589034D01*
X86620351Y-101655765D01*
X86612377Y-101663021D01*
X86608377Y-101669722D01*
X86606548Y-101671856D01*
X86605774Y-101674086D01*
X86602332Y-101679855D01*
X86550940Y-101792568D01*
X86550143Y-101793366D01*
X86545832Y-101803771D01*
X86536239Y-101824813D01*
X86536126Y-101827204D01*
X86535211Y-101829414D01*
X86533290Y-101848923D01*
X82932789Y-101848923D01*
X83473286Y-101780133D01*
X83507204Y-101760845D01*
X83531159Y-101730046D01*
X83541504Y-101692424D01*
X83536916Y-101655719D01*
X84104452Y-101655719D01*
X84106472Y-101671885D01*
X84107429Y-101688146D01*
X84107603Y-101688506D01*
X84107630Y-101688902D01*
X84108927Y-101691525D01*
X84109291Y-101694436D01*
X84117343Y-101708596D01*
X84124451Y-101723256D01*
X84124749Y-101723521D01*
X84124926Y-101723878D01*
X84127736Y-101726872D01*
X84128579Y-101728353D01*
X84130609Y-101729932D01*
X84138343Y-101738170D01*
X84209455Y-101797987D01*
X84213138Y-101801261D01*
X84213493Y-101801384D01*
X84213814Y-101801654D01*
X84231948Y-101807786D01*
X84250001Y-101814050D01*
X84250398Y-101814026D01*
X84250775Y-101814154D01*
X84269795Y-101812885D01*
X84288951Y-101811759D01*
X84289311Y-101811584D01*
X84289707Y-101811558D01*
X84306761Y-101803124D01*
X84324061Y-101794737D01*
X84324451Y-101794375D01*
X84324682Y-101794262D01*
X84325134Y-101793745D01*
X84338458Y-101781432D01*
X84387410Y-101724368D01*
X84388682Y-101723645D01*
X84395006Y-101715513D01*
X84409507Y-101698610D01*
X84409637Y-101698234D01*
X84409900Y-101697934D01*
X84410839Y-101695155D01*
X84412636Y-101692846D01*
X84416953Y-101677147D01*
X84422296Y-101661747D01*
X84422272Y-101661348D01*
X84422400Y-101660972D01*
X84422205Y-101658049D01*
X84422982Y-101655224D01*
X84420961Y-101639064D01*
X84420005Y-101622797D01*
X84419830Y-101622437D01*
X84419804Y-101622040D01*
X84418505Y-101619413D01*
X84418142Y-101616508D01*
X84410822Y-101603636D01*
X84521119Y-101603636D01*
X84525958Y-101642353D01*
X84545246Y-101676270D01*
X84576045Y-101700225D01*
X84613667Y-101710570D01*
X84633264Y-101710057D01*
X85485716Y-101601564D01*
X85519634Y-101582276D01*
X85543589Y-101551477D01*
X85553934Y-101513855D01*
X85549095Y-101475138D01*
X85529807Y-101441221D01*
X85499008Y-101417266D01*
X85461386Y-101406921D01*
X85441789Y-101407434D01*
X84589336Y-101515927D01*
X84555419Y-101535215D01*
X84531464Y-101566014D01*
X84521119Y-101603636D01*
X84410822Y-101603636D01*
X84410094Y-101602355D01*
X84402982Y-101587687D01*
X84402685Y-101587423D01*
X84402508Y-101587065D01*
X84399694Y-101584068D01*
X84398854Y-101582590D01*
X84396826Y-101581013D01*
X84389091Y-101572773D01*
X84317976Y-101512953D01*
X84314296Y-101509682D01*
X84313940Y-101509558D01*
X84313620Y-101509289D01*
X84295504Y-101503162D01*
X84277433Y-101496893D01*
X84277034Y-101496916D01*
X84276658Y-101496789D01*
X84257634Y-101498057D01*
X84238483Y-101499184D01*
X84238122Y-101499358D01*
X84237727Y-101499385D01*
X84220594Y-101507856D01*
X84203373Y-101516207D01*
X84202985Y-101516564D01*
X84202751Y-101516681D01*
X84202290Y-101517207D01*
X84188976Y-101529511D01*
X84140023Y-101586574D01*
X84138752Y-101587298D01*
X84132424Y-101595432D01*
X84117927Y-101612333D01*
X84117796Y-101612708D01*
X84117534Y-101613009D01*
X84116595Y-101615785D01*
X84114797Y-101618097D01*
X84110478Y-101633803D01*
X84105138Y-101649196D01*
X84105161Y-101649594D01*
X84105034Y-101649971D01*
X84105228Y-101652893D01*
X84104452Y-101655719D01*
X83536916Y-101655719D01*
X83536665Y-101653707D01*
X83517377Y-101619790D01*
X83486578Y-101595835D01*
X83448956Y-101585490D01*
X83429359Y-101586003D01*
X82576906Y-101694496D01*
X82542989Y-101713784D01*
X82519034Y-101744583D01*
X82508689Y-101782205D01*
X82398392Y-101782205D01*
X82397664Y-101780924D01*
X82390552Y-101766256D01*
X82390255Y-101765992D01*
X82390078Y-101765634D01*
X82387264Y-101762637D01*
X82386424Y-101761159D01*
X82384396Y-101759582D01*
X82376661Y-101751342D01*
X82305546Y-101691522D01*
X82301866Y-101688251D01*
X82301510Y-101688127D01*
X82301190Y-101687858D01*
X82283074Y-101681731D01*
X82265003Y-101675462D01*
X82264604Y-101675485D01*
X82264228Y-101675358D01*
X82245204Y-101676626D01*
X82226053Y-101677753D01*
X82225692Y-101677927D01*
X82225297Y-101677954D01*
X82208164Y-101686425D01*
X82190943Y-101694776D01*
X82190555Y-101695133D01*
X82190321Y-101695250D01*
X82189860Y-101695776D01*
X82176546Y-101708080D01*
X82127593Y-101765143D01*
X82126322Y-101765867D01*
X82119994Y-101774001D01*
X82105497Y-101790902D01*
X82105366Y-101791277D01*
X82105104Y-101791578D01*
X82104165Y-101794354D01*
X82102367Y-101796666D01*
X82098048Y-101812372D01*
X82092708Y-101827765D01*
X82092731Y-101828163D01*
X82092604Y-101828540D01*
X82092798Y-101831462D01*
X82092022Y-101834288D01*
X81952874Y-101834288D01*
X81952874Y-100777493D01*
X82508430Y-100777493D01*
X82510102Y-101001812D01*
X82508921Y-101005696D01*
X82510231Y-101019135D01*
X82510351Y-101035098D01*
X82512231Y-101039638D01*
X82512709Y-101044530D01*
X82520195Y-101062648D01*
X82581563Y-101174155D01*
X82586739Y-101185541D01*
X82588984Y-101187639D01*
X82590595Y-101190565D01*
X82603262Y-101200979D01*
X82615249Y-101212180D01*
X82619317Y-101214180D01*
X82620734Y-101215345D01*
X82623234Y-101216105D01*
X82632841Y-101220829D01*
X82739726Y-101259321D01*
X82742186Y-101261235D01*
X82754248Y-101264551D01*
X82770829Y-101270523D01*
X82775399Y-101270367D01*
X82779808Y-101271580D01*
X82799405Y-101271067D01*
X82919098Y-101255761D01*
X82920914Y-101255847D01*
X82922283Y-101255354D01*
X83387471Y-101195868D01*
X83397106Y-101196323D01*
X83404371Y-101193707D01*
X83473287Y-101184895D01*
X83507205Y-101165607D01*
X83531159Y-101134808D01*
X83541505Y-101097186D01*
X83536665Y-101058469D01*
X83521810Y-101032348D01*
X83524112Y-101027300D01*
X83524910Y-101026503D01*
X83529219Y-101016099D01*
X83538814Y-100995056D01*
X83538926Y-100992664D01*
X83539842Y-100990455D01*
X83541763Y-100970946D01*
X83541584Y-100941433D01*
X84104452Y-100941433D01*
X84109291Y-100980149D01*
X84128579Y-101014067D01*
X84159378Y-101038022D01*
X84197000Y-101048367D01*
X84216596Y-101047854D01*
X84521988Y-101009137D01*
X84522781Y-101213671D01*
X84537713Y-101249719D01*
X84565303Y-101277309D01*
X84601351Y-101292241D01*
X84640369Y-101292241D01*
X84676417Y-101277309D01*
X84704007Y-101249719D01*
X84718939Y-101213671D01*
X84720860Y-101194162D01*
X84720045Y-100984029D01*
X85260466Y-100915517D01*
X85324055Y-100938417D01*
X85354509Y-100993752D01*
X85356114Y-101109504D01*
X85371046Y-101145552D01*
X85398636Y-101173142D01*
X85434684Y-101188074D01*
X85473702Y-101188074D01*
X85509750Y-101173142D01*
X85537340Y-101145552D01*
X85552272Y-101109504D01*
X85554193Y-101089995D01*
X85552958Y-101000956D01*
X86116882Y-101000956D01*
X86121721Y-101039672D01*
X86141009Y-101073590D01*
X86171808Y-101097545D01*
X86209430Y-101107890D01*
X86229026Y-101107377D01*
X86534418Y-101068660D01*
X86535211Y-101273194D01*
X86550143Y-101309242D01*
X86577733Y-101336832D01*
X86613781Y-101351764D01*
X86652799Y-101351764D01*
X86688847Y-101336832D01*
X86716437Y-101309242D01*
X86731369Y-101273194D01*
X86733290Y-101253685D01*
X86732475Y-101043552D01*
X87272896Y-100975040D01*
X87336485Y-100997940D01*
X87366939Y-101053275D01*
X87368544Y-101169027D01*
X87383476Y-101205075D01*
X87411066Y-101232665D01*
X87447114Y-101247597D01*
X87486132Y-101247597D01*
X87522180Y-101232665D01*
X87549770Y-101205075D01*
X87564702Y-101169027D01*
X87566623Y-101149518D01*
X87565154Y-101043576D01*
X87566132Y-101040364D01*
X87564940Y-101028146D01*
X87564702Y-101010962D01*
X87562821Y-101006421D01*
X87562344Y-101001530D01*
X87554858Y-100983413D01*
X87493487Y-100871898D01*
X87488314Y-100860517D01*
X87486069Y-100858420D01*
X87484460Y-100855495D01*
X87471793Y-100845081D01*
X87459804Y-100833878D01*
X87455735Y-100831877D01*
X87454321Y-100830715D01*
X87451823Y-100829954D01*
X87442212Y-100825230D01*
X87335327Y-100786738D01*
X87332867Y-100784825D01*
X87320798Y-100781506D01*
X87304222Y-100775537D01*
X87299653Y-100775692D01*
X87295245Y-100774480D01*
X87275649Y-100774993D01*
X86731702Y-100843951D01*
X86731369Y-100757985D01*
X86716437Y-100721937D01*
X86688847Y-100694347D01*
X86652799Y-100679415D01*
X86613781Y-100679415D01*
X86577733Y-100694347D01*
X86550143Y-100721937D01*
X86535211Y-100757985D01*
X86533290Y-100777494D01*
X86533644Y-100869060D01*
X86185100Y-100913247D01*
X86151182Y-100932535D01*
X86127227Y-100963334D01*
X86116882Y-101000956D01*
X85552958Y-101000956D01*
X85552724Y-100984053D01*
X85553702Y-100980841D01*
X85552510Y-100968623D01*
X85552272Y-100951439D01*
X85550391Y-100946898D01*
X85549914Y-100942007D01*
X85542428Y-100923890D01*
X85481057Y-100812375D01*
X85475884Y-100800994D01*
X85473639Y-100798897D01*
X85472030Y-100795972D01*
X85459363Y-100785558D01*
X85447374Y-100774355D01*
X85443305Y-100772354D01*
X85441891Y-100771192D01*
X85439393Y-100770431D01*
X85429782Y-100765707D01*
X85322897Y-100727215D01*
X85320437Y-100725302D01*
X85308368Y-100721983D01*
X85291792Y-100716014D01*
X85287223Y-100716169D01*
X85282815Y-100714957D01*
X85263219Y-100715470D01*
X84719272Y-100784428D01*
X84718939Y-100698462D01*
X84704007Y-100662414D01*
X84676417Y-100634824D01*
X84640369Y-100619892D01*
X84601351Y-100619892D01*
X84565303Y-100634824D01*
X84537713Y-100662414D01*
X84522781Y-100698462D01*
X84520860Y-100717971D01*
X84521214Y-100809537D01*
X84172670Y-100853724D01*
X84138752Y-100873012D01*
X84114797Y-100903811D01*
X84104452Y-100941433D01*
X83541584Y-100941433D01*
X83540044Y-100687257D01*
X83541273Y-100683221D01*
X83539937Y-100669529D01*
X83539842Y-100653818D01*
X83537961Y-100649277D01*
X83537484Y-100644387D01*
X83529999Y-100626269D01*
X83468626Y-100514753D01*
X83463454Y-100503374D01*
X83461209Y-100501277D01*
X83459600Y-100498352D01*
X83446925Y-100487930D01*
X83434944Y-100476736D01*
X83430880Y-100474738D01*
X83429461Y-100473571D01*
X83426955Y-100472808D01*
X83417352Y-100468087D01*
X83310465Y-100429593D01*
X83308006Y-100427681D01*
X83295942Y-100424363D01*
X83279363Y-100418393D01*
X83274793Y-100418548D01*
X83270385Y-100417336D01*
X83250788Y-100417849D01*
X83147855Y-100432157D01*
X83147189Y-100432004D01*
X83138513Y-100433456D01*
X83112620Y-100437056D01*
X83110786Y-100438098D01*
X83108706Y-100438447D01*
X83091145Y-100447158D01*
X82980489Y-100518180D01*
X82973520Y-100520689D01*
X82966191Y-100527356D01*
X82956572Y-100533531D01*
X82951334Y-100540874D01*
X82944660Y-100546948D01*
X82934615Y-100563782D01*
X82933935Y-100565271D01*
X82933917Y-100565298D01*
X82933910Y-100565328D01*
X82883224Y-100676495D01*
X82882426Y-100677294D01*
X82878112Y-100687707D01*
X82868522Y-100708742D01*
X82868409Y-100711132D01*
X82867494Y-100713342D01*
X82865573Y-100732851D01*
X82867222Y-101005147D01*
X82839382Y-101066207D01*
X82802051Y-101070981D01*
X82738567Y-101048118D01*
X82708261Y-100993053D01*
X82706842Y-100802679D01*
X82765005Y-100675115D01*
X82766843Y-100636140D01*
X82753627Y-100599428D01*
X82727368Y-100570568D01*
X82692064Y-100553954D01*
X82653089Y-100552116D01*
X82616377Y-100565332D01*
X82587517Y-100591591D01*
X82577472Y-100608425D01*
X82526080Y-100721138D01*
X82525283Y-100721936D01*
X82520972Y-100732341D01*
X82511379Y-100753383D01*
X82511266Y-100755774D01*
X82510351Y-100757984D01*
X82508430Y-100777493D01*
X81952874Y-100777493D01*
X81952874Y-100360828D01*
X84520860Y-100360828D01*
X84522781Y-100499385D01*
X84537713Y-100535433D01*
X84565303Y-100563023D01*
X84601351Y-100577955D01*
X84640369Y-100577955D01*
X84676417Y-100563023D01*
X84704007Y-100535433D01*
X84718939Y-100499385D01*
X84720860Y-100479876D01*
X84719550Y-100385405D01*
X84761552Y-100293284D01*
X84801607Y-100246592D01*
X84891112Y-100189144D01*
X85485716Y-100113468D01*
X85519634Y-100094180D01*
X85543589Y-100063381D01*
X85543637Y-100063208D01*
X86533290Y-100063208D01*
X86534890Y-100228241D01*
X86533781Y-100231887D01*
X86535052Y-100244919D01*
X86535211Y-100261289D01*
X86537091Y-100265829D01*
X86537569Y-100270721D01*
X86545055Y-100288839D01*
X86615455Y-100416756D01*
X86645594Y-100441536D01*
X86682921Y-100452896D01*
X86721755Y-100449108D01*
X86756183Y-100430746D01*
X86780963Y-100400607D01*
X86792323Y-100363280D01*
X86788535Y-100324446D01*
X86781049Y-100306328D01*
X86733070Y-100219151D01*
X86731800Y-100088179D01*
X86768970Y-100006657D01*
X86843816Y-99958618D01*
X86858321Y-99956448D01*
X86919819Y-99978595D01*
X86950176Y-100033753D01*
X86951557Y-100176156D01*
X86950448Y-100179802D01*
X86951719Y-100192834D01*
X86951878Y-100209205D01*
X86953759Y-100213746D01*
X86954236Y-100218636D01*
X86961721Y-100236754D01*
X87023093Y-100348269D01*
X87028266Y-100359650D01*
X87030510Y-100361746D01*
X87032120Y-100364672D01*
X87044789Y-100375088D01*
X87056776Y-100386289D01*
X87060842Y-100388287D01*
X87062258Y-100389452D01*
X87064758Y-100390212D01*
X87074368Y-100394937D01*
X87181251Y-100433427D01*
X87183712Y-100435342D01*
X87195785Y-100438661D01*
X87212358Y-100444630D01*
X87216925Y-100444474D01*
X87221334Y-100445687D01*
X87240931Y-100445174D01*
X87319575Y-100433408D01*
X87321408Y-100432365D01*
X87323490Y-100432017D01*
X87341052Y-100423306D01*
X87451707Y-100352282D01*
X87458677Y-100349774D01*
X87466003Y-100343107D01*
X87475625Y-100336932D01*
X87480863Y-100329586D01*
X87487537Y-100323514D01*
X87497582Y-100306680D01*
X87498261Y-100305190D01*
X87498280Y-100305164D01*
X87498286Y-100305133D01*
X87548972Y-100193967D01*
X87549770Y-100193170D01*
X87554081Y-100182763D01*
X87563674Y-100161723D01*
X87563786Y-100159331D01*
X87564702Y-100157122D01*
X87566623Y-100137613D01*
X87564950Y-99913297D01*
X87566133Y-99909412D01*
X87564820Y-99895964D01*
X87564702Y-99880009D01*
X87562821Y-99875468D01*
X87562344Y-99870578D01*
X87554859Y-99852460D01*
X87484460Y-99724543D01*
X87454321Y-99699762D01*
X87416993Y-99688402D01*
X87378159Y-99692190D01*
X87343732Y-99710551D01*
X87318951Y-99740690D01*
X87307591Y-99778018D01*
X87311379Y-99816852D01*
X87318864Y-99834969D01*
X87366791Y-99922054D01*
X87368210Y-100112427D01*
X87330944Y-100194163D01*
X87256096Y-100242203D01*
X87241592Y-100244373D01*
X87180093Y-100222226D01*
X87149737Y-100167067D01*
X87148356Y-100024663D01*
X87149466Y-100021018D01*
X87148194Y-100007985D01*
X87148036Y-99991616D01*
X87146155Y-99987075D01*
X87145678Y-99982184D01*
X87138192Y-99964066D01*
X87076820Y-99852554D01*
X87071647Y-99841172D01*
X87069402Y-99839074D01*
X87067792Y-99836149D01*
X87055120Y-99825730D01*
X87043137Y-99814534D01*
X87039071Y-99812535D01*
X87037653Y-99811369D01*
X87035150Y-99810607D01*
X87025545Y-99805885D01*
X86918658Y-99767392D01*
X86916199Y-99765479D01*
X86904136Y-99762162D01*
X86887556Y-99756191D01*
X86882985Y-99756346D01*
X86878577Y-99755134D01*
X86858980Y-99755647D01*
X86780337Y-99767414D01*
X86778503Y-99768456D01*
X86776423Y-99768805D01*
X86758862Y-99777516D01*
X86648206Y-99848538D01*
X86641237Y-99851047D01*
X86633908Y-99857714D01*
X86624289Y-99863889D01*
X86619051Y-99871232D01*
X86612377Y-99877306D01*
X86602332Y-99894140D01*
X86601652Y-99895629D01*
X86601634Y-99895656D01*
X86601627Y-99895686D01*
X86550940Y-100006853D01*
X86550143Y-100007651D01*
X86545832Y-100018056D01*
X86536239Y-100039098D01*
X86536126Y-100041489D01*
X86535211Y-100043699D01*
X86533290Y-100063208D01*
X85543637Y-100063208D01*
X85553934Y-100025759D01*
X85549095Y-99987042D01*
X85529807Y-99953125D01*
X85499008Y-99929170D01*
X85461386Y-99918825D01*
X85441789Y-99919338D01*
X84862311Y-99993089D01*
X84861999Y-99993017D01*
X84859217Y-99993482D01*
X84589336Y-100027831D01*
X84555419Y-100047119D01*
X84531464Y-100077918D01*
X84521119Y-100115540D01*
X84525958Y-100154257D01*
X84545246Y-100188174D01*
X84576045Y-100212129D01*
X84580105Y-100213245D01*
X84538510Y-100304473D01*
X84537713Y-100305271D01*
X84533402Y-100315676D01*
X84523809Y-100336718D01*
X84523696Y-100339109D01*
X84522781Y-100341319D01*
X84520860Y-100360828D01*
X81952874Y-100360828D01*
X81952874Y-100109816D01*
X82091913Y-100109816D01*
X82094544Y-100128283D01*
X82096861Y-100146815D01*
X82097294Y-100147577D01*
X82097418Y-100148444D01*
X82106928Y-100164518D01*
X82116149Y-100180732D01*
X82116839Y-100181268D01*
X82117286Y-100182024D01*
X82132216Y-100193228D01*
X82146948Y-100204687D01*
X82147793Y-100204919D01*
X82148494Y-100205445D01*
X82166563Y-100210080D01*
X82184570Y-100215032D01*
X82185743Y-100215001D01*
X82186288Y-100215141D01*
X82187611Y-100214952D01*
X82204166Y-100214519D01*
X83473287Y-100053943D01*
X83507204Y-100034655D01*
X83531159Y-100003856D01*
X83541505Y-99966234D01*
X83536665Y-99927517D01*
X83517377Y-99893600D01*
X83486578Y-99869645D01*
X83448956Y-99859300D01*
X83429360Y-99859813D01*
X82652005Y-99958168D01*
X83131750Y-99673141D01*
X83145338Y-99666474D01*
X83147932Y-99663526D01*
X83151353Y-99661495D01*
X83160767Y-99648950D01*
X83171123Y-99637190D01*
X83172400Y-99633450D01*
X83174774Y-99630288D01*
X83178670Y-99615098D01*
X83183738Y-99600267D01*
X83183487Y-99596323D01*
X83184470Y-99592493D01*
X83182256Y-99576963D01*
X83181263Y-99561328D01*
X83179523Y-99557782D01*
X83178965Y-99553865D01*
X83170979Y-99540368D01*
X83164076Y-99526299D01*
X83161108Y-99523686D01*
X83159096Y-99520285D01*
X83146561Y-99510878D01*
X83134791Y-99500514D01*
X83129605Y-99498152D01*
X83127889Y-99496864D01*
X83125341Y-99496210D01*
X83116951Y-99492389D01*
X82630449Y-99327250D01*
X83473287Y-99220610D01*
X83507204Y-99201322D01*
X83531159Y-99170523D01*
X83531206Y-99170351D01*
X84520860Y-99170351D01*
X84522532Y-99394670D01*
X84521351Y-99398554D01*
X84522661Y-99411993D01*
X84522781Y-99427956D01*
X84524661Y-99432496D01*
X84525139Y-99437388D01*
X84532625Y-99455506D01*
X84593993Y-99567013D01*
X84599169Y-99578399D01*
X84601414Y-99580497D01*
X84603025Y-99583423D01*
X84615692Y-99593837D01*
X84627679Y-99605038D01*
X84631747Y-99607038D01*
X84633164Y-99608203D01*
X84635664Y-99608963D01*
X84645271Y-99613687D01*
X84752156Y-99652179D01*
X84754616Y-99654093D01*
X84766678Y-99657409D01*
X84783259Y-99663381D01*
X84787829Y-99663225D01*
X84792238Y-99664438D01*
X84811834Y-99663925D01*
X84916549Y-99649368D01*
X84918844Y-99649816D01*
X84930878Y-99647376D01*
X84950002Y-99644718D01*
X84953331Y-99642824D01*
X84957084Y-99642064D01*
X84970185Y-99633240D01*
X84983920Y-99625430D01*
X84986271Y-99622406D01*
X84989447Y-99620268D01*
X84998177Y-99607098D01*
X85007874Y-99594631D01*
X85008888Y-99590940D01*
X85011006Y-99587747D01*
X85016628Y-99568967D01*
X85120324Y-99028919D01*
X85260669Y-99010828D01*
X85324055Y-99033655D01*
X85354361Y-99088721D01*
X85355780Y-99279094D01*
X85297619Y-99406659D01*
X85295781Y-99445634D01*
X85308997Y-99482345D01*
X85335257Y-99511205D01*
X85370561Y-99527819D01*
X85409536Y-99529657D01*
X85446247Y-99516441D01*
X85475107Y-99490181D01*
X85485152Y-99473347D01*
X85521414Y-99393813D01*
X86116882Y-99393813D01*
X86118902Y-99409979D01*
X86119859Y-99426240D01*
X86120033Y-99426600D01*
X86120060Y-99426996D01*
X86121357Y-99429619D01*
X86121721Y-99432530D01*
X86129773Y-99446690D01*
X86136881Y-99461350D01*
X86137179Y-99461615D01*
X86137356Y-99461972D01*
X86140166Y-99464966D01*
X86141009Y-99466447D01*
X86143039Y-99468026D01*
X86150773Y-99476264D01*
X86221885Y-99536081D01*
X86225568Y-99539355D01*
X86225923Y-99539478D01*
X86226244Y-99539748D01*
X86244378Y-99545880D01*
X86262431Y-99552144D01*
X86262828Y-99552120D01*
X86263205Y-99552248D01*
X86282225Y-99550979D01*
X86301381Y-99549853D01*
X86301741Y-99549678D01*
X86302137Y-99549652D01*
X86319191Y-99541218D01*
X86336491Y-99532831D01*
X86336881Y-99532469D01*
X86337112Y-99532356D01*
X86337564Y-99531839D01*
X86350888Y-99519526D01*
X86399840Y-99462462D01*
X86401112Y-99461739D01*
X86407436Y-99453607D01*
X86421937Y-99436704D01*
X86422067Y-99436328D01*
X86422330Y-99436028D01*
X86423269Y-99433249D01*
X86425066Y-99430940D01*
X86429383Y-99415241D01*
X86434726Y-99399841D01*
X86434702Y-99399442D01*
X86434830Y-99399066D01*
X86434635Y-99396143D01*
X86435412Y-99393318D01*
X86433391Y-99377158D01*
X86432435Y-99360891D01*
X86432260Y-99360531D01*
X86432234Y-99360134D01*
X86430935Y-99357507D01*
X86430572Y-99354602D01*
X86423252Y-99341730D01*
X86533549Y-99341730D01*
X86538388Y-99380447D01*
X86557676Y-99414364D01*
X86588475Y-99438319D01*
X86626097Y-99448664D01*
X86645694Y-99448151D01*
X87498146Y-99339658D01*
X87532064Y-99320370D01*
X87556019Y-99289571D01*
X87566364Y-99251949D01*
X87561525Y-99213232D01*
X87542237Y-99179315D01*
X87511438Y-99155360D01*
X87473816Y-99145015D01*
X87454219Y-99145528D01*
X86601766Y-99254021D01*
X86567849Y-99273309D01*
X86543894Y-99304108D01*
X86533549Y-99341730D01*
X86423252Y-99341730D01*
X86422524Y-99340449D01*
X86415412Y-99325781D01*
X86415115Y-99325517D01*
X86414938Y-99325159D01*
X86412124Y-99322162D01*
X86411284Y-99320684D01*
X86409256Y-99319107D01*
X86401521Y-99310867D01*
X86330406Y-99251047D01*
X86326726Y-99247776D01*
X86326370Y-99247652D01*
X86326050Y-99247383D01*
X86307934Y-99241256D01*
X86289863Y-99234987D01*
X86289464Y-99235010D01*
X86289088Y-99234883D01*
X86270064Y-99236151D01*
X86250913Y-99237278D01*
X86250552Y-99237452D01*
X86250157Y-99237479D01*
X86233024Y-99245950D01*
X86215803Y-99254301D01*
X86215415Y-99254658D01*
X86215181Y-99254775D01*
X86214720Y-99255301D01*
X86201406Y-99267605D01*
X86152453Y-99324668D01*
X86151182Y-99325392D01*
X86144854Y-99333526D01*
X86130357Y-99350427D01*
X86130226Y-99350802D01*
X86129964Y-99351103D01*
X86129025Y-99353879D01*
X86127227Y-99356191D01*
X86122908Y-99371897D01*
X86117568Y-99387290D01*
X86117591Y-99387688D01*
X86117464Y-99388065D01*
X86117658Y-99390987D01*
X86116882Y-99393813D01*
X85521414Y-99393813D01*
X85536542Y-99360634D01*
X85537340Y-99359837D01*
X85541649Y-99349433D01*
X85551244Y-99328390D01*
X85551356Y-99325998D01*
X85552272Y-99323789D01*
X85554193Y-99304280D01*
X85552520Y-99079964D01*
X85553703Y-99076079D01*
X85552390Y-99062631D01*
X85552272Y-99046676D01*
X85550391Y-99042135D01*
X85549914Y-99037245D01*
X85542429Y-99019127D01*
X85481056Y-98907611D01*
X85475884Y-98896232D01*
X85473639Y-98894135D01*
X85472030Y-98891210D01*
X85459355Y-98880788D01*
X85447374Y-98869594D01*
X85443310Y-98867596D01*
X85441891Y-98866429D01*
X85439385Y-98865666D01*
X85429782Y-98860945D01*
X85322897Y-98822452D01*
X85320437Y-98820539D01*
X85308370Y-98817221D01*
X85291793Y-98811251D01*
X85287223Y-98811406D01*
X85282815Y-98810194D01*
X85263219Y-98810707D01*
X85037627Y-98839787D01*
X85037162Y-98839697D01*
X85035120Y-98840110D01*
X84804132Y-98869887D01*
X84802476Y-98869505D01*
X84787008Y-98872094D01*
X84767907Y-98874557D01*
X84766073Y-98875599D01*
X84763993Y-98875948D01*
X84746432Y-98884659D01*
X84635776Y-98955681D01*
X84628807Y-98958190D01*
X84621478Y-98964857D01*
X84611859Y-98971032D01*
X84606621Y-98978375D01*
X84599947Y-98984449D01*
X84589902Y-99001283D01*
X84589222Y-99002772D01*
X84589204Y-99002799D01*
X84589197Y-99002829D01*
X84538510Y-99113996D01*
X84537713Y-99114794D01*
X84533402Y-99125199D01*
X84523809Y-99146241D01*
X84523696Y-99148632D01*
X84522781Y-99150842D01*
X84520860Y-99170351D01*
X83531206Y-99170351D01*
X83541505Y-99132901D01*
X83536665Y-99094184D01*
X83517377Y-99060267D01*
X83486578Y-99036312D01*
X83448956Y-99025967D01*
X83429360Y-99026480D01*
X82182016Y-99184300D01*
X82166073Y-99185314D01*
X82163316Y-99186666D01*
X82160239Y-99187056D01*
X82145872Y-99195225D01*
X82131044Y-99202502D01*
X82129004Y-99204818D01*
X82126322Y-99206344D01*
X82116183Y-99219378D01*
X82105259Y-99231786D01*
X82104260Y-99234708D01*
X82102367Y-99237143D01*
X82097988Y-99253064D01*
X82092644Y-99268709D01*
X82092839Y-99271790D01*
X82092022Y-99274765D01*
X82094070Y-99291158D01*
X82095119Y-99307648D01*
X82096478Y-99310417D01*
X82096861Y-99313482D01*
X82105030Y-99327848D01*
X82112307Y-99342677D01*
X82114623Y-99344716D01*
X82116149Y-99347399D01*
X82129183Y-99357537D01*
X82141591Y-99368462D01*
X82145545Y-99370262D01*
X82146948Y-99371354D01*
X82149453Y-99372043D01*
X82159431Y-99376587D01*
X82849034Y-99610666D01*
X82140842Y-100031419D01*
X82126322Y-100039677D01*
X82125787Y-100040363D01*
X82125030Y-100040814D01*
X82113825Y-100055744D01*
X82102367Y-100070476D01*
X82102134Y-100071321D01*
X82101609Y-100072022D01*
X82096973Y-100090091D01*
X82092022Y-100108098D01*
X82092130Y-100108967D01*
X82091913Y-100109816D01*
X81952874Y-100109816D01*
X81952874Y-97852482D01*
X84104197Y-97852482D01*
X84111463Y-97890818D01*
X84132846Y-97923455D01*
X84165090Y-97945425D01*
X84183798Y-97951285D01*
X85138866Y-98148780D01*
X84145593Y-98605688D01*
X84119044Y-98634282D01*
X84105459Y-98670859D01*
X84106904Y-98709850D01*
X84123161Y-98745320D01*
X84151755Y-98771869D01*
X84188332Y-98785454D01*
X84227323Y-98784009D01*
X84245858Y-98777626D01*
X84944901Y-98456065D01*
X86533290Y-98456065D01*
X86534890Y-98621098D01*
X86533781Y-98624744D01*
X86535052Y-98637776D01*
X86535211Y-98654146D01*
X86537091Y-98658686D01*
X86537569Y-98663578D01*
X86545055Y-98681696D01*
X86615455Y-98809613D01*
X86645594Y-98834393D01*
X86682921Y-98845753D01*
X86721755Y-98841965D01*
X86756183Y-98823603D01*
X86780963Y-98793464D01*
X86792323Y-98756137D01*
X86788535Y-98717303D01*
X86781049Y-98699185D01*
X86733070Y-98612008D01*
X86731800Y-98481036D01*
X86768970Y-98399514D01*
X86843816Y-98351475D01*
X86858321Y-98349305D01*
X86919819Y-98371452D01*
X86950176Y-98426610D01*
X86951557Y-98569013D01*
X86950448Y-98572659D01*
X86951719Y-98585691D01*
X86951878Y-98602062D01*
X86953759Y-98606603D01*
X86954236Y-98611493D01*
X86961721Y-98629611D01*
X87023093Y-98741126D01*
X87028266Y-98752507D01*
X87030510Y-98754603D01*
X87032120Y-98757529D01*
X87044789Y-98767945D01*
X87056776Y-98779146D01*
X87060842Y-98781144D01*
X87062258Y-98782309D01*
X87064758Y-98783069D01*
X87074368Y-98787794D01*
X87181251Y-98826284D01*
X87183712Y-98828199D01*
X87195785Y-98831518D01*
X87212358Y-98837487D01*
X87216925Y-98837331D01*
X87221334Y-98838544D01*
X87240931Y-98838031D01*
X87319575Y-98826265D01*
X87321408Y-98825222D01*
X87323490Y-98824874D01*
X87341052Y-98816163D01*
X87451707Y-98745139D01*
X87458677Y-98742631D01*
X87466003Y-98735964D01*
X87475625Y-98729789D01*
X87480863Y-98722443D01*
X87487537Y-98716371D01*
X87497582Y-98699537D01*
X87498261Y-98698047D01*
X87498280Y-98698021D01*
X87498286Y-98697990D01*
X87548972Y-98586824D01*
X87549770Y-98586027D01*
X87554079Y-98575623D01*
X87563674Y-98554580D01*
X87563786Y-98552188D01*
X87564702Y-98549979D01*
X87566623Y-98530470D01*
X87564950Y-98306154D01*
X87566133Y-98302269D01*
X87564820Y-98288821D01*
X87564702Y-98272866D01*
X87562821Y-98268325D01*
X87562344Y-98263435D01*
X87554859Y-98245317D01*
X87484460Y-98117400D01*
X87454321Y-98092619D01*
X87416993Y-98081259D01*
X87378159Y-98085047D01*
X87343732Y-98103408D01*
X87318951Y-98133547D01*
X87307591Y-98170875D01*
X87311379Y-98209709D01*
X87318864Y-98227826D01*
X87366791Y-98314911D01*
X87368210Y-98505284D01*
X87330944Y-98587020D01*
X87256096Y-98635060D01*
X87241592Y-98637230D01*
X87180093Y-98615083D01*
X87149737Y-98559924D01*
X87148356Y-98417520D01*
X87149466Y-98413875D01*
X87148194Y-98400842D01*
X87148036Y-98384473D01*
X87146155Y-98379932D01*
X87145678Y-98375041D01*
X87138192Y-98356923D01*
X87076820Y-98245411D01*
X87071647Y-98234029D01*
X87069402Y-98231931D01*
X87067792Y-98229006D01*
X87055120Y-98218587D01*
X87043137Y-98207391D01*
X87039071Y-98205392D01*
X87037653Y-98204226D01*
X87035150Y-98203464D01*
X87025545Y-98198742D01*
X86918658Y-98160249D01*
X86916199Y-98158336D01*
X86904136Y-98155019D01*
X86887556Y-98149048D01*
X86882985Y-98149203D01*
X86878577Y-98147991D01*
X86858980Y-98148504D01*
X86780337Y-98160271D01*
X86778503Y-98161313D01*
X86776423Y-98161662D01*
X86758862Y-98170373D01*
X86648206Y-98241395D01*
X86641237Y-98243904D01*
X86633908Y-98250571D01*
X86624289Y-98256746D01*
X86619051Y-98264089D01*
X86612377Y-98270163D01*
X86602332Y-98286997D01*
X86601652Y-98288486D01*
X86601634Y-98288513D01*
X86601627Y-98288543D01*
X86550940Y-98399710D01*
X86550143Y-98400508D01*
X86545832Y-98410913D01*
X86536239Y-98431955D01*
X86536126Y-98434346D01*
X86535211Y-98436556D01*
X86533290Y-98456065D01*
X84944901Y-98456065D01*
X85484372Y-98207907D01*
X85491624Y-98206533D01*
X85501672Y-98199949D01*
X85512793Y-98194834D01*
X85517938Y-98189292D01*
X85524261Y-98185150D01*
X85531087Y-98175131D01*
X85539342Y-98166241D01*
X85541975Y-98159151D01*
X85546231Y-98152905D01*
X85548704Y-98141033D01*
X85552927Y-98129664D01*
X85552647Y-98122109D01*
X85554189Y-98114708D01*
X85551931Y-98102796D01*
X85551482Y-98090673D01*
X85548330Y-98083796D01*
X85546923Y-98076372D01*
X85540280Y-98066234D01*
X85535225Y-98055203D01*
X85529681Y-98050055D01*
X85525540Y-98043735D01*
X85515521Y-98036908D01*
X85506631Y-98028654D01*
X85499543Y-98026021D01*
X85493295Y-98021764D01*
X85474588Y-98015905D01*
X84205098Y-97753391D01*
X84166762Y-97760657D01*
X84134125Y-97782040D01*
X84112155Y-97814284D01*
X84104197Y-97852482D01*
X81952874Y-97852482D01*
X81952874Y-97727146D01*
X82092022Y-97727146D01*
X82096861Y-97765863D01*
X82116149Y-97799780D01*
X82146948Y-97823735D01*
X82184570Y-97834080D01*
X82204166Y-97833567D01*
X83473287Y-97672991D01*
X83507204Y-97653703D01*
X83531159Y-97622904D01*
X83541505Y-97585282D01*
X83536665Y-97546565D01*
X83517377Y-97512648D01*
X83486578Y-97488693D01*
X83448956Y-97478348D01*
X83429360Y-97478861D01*
X82160239Y-97639437D01*
X82126322Y-97658725D01*
X82102367Y-97689524D01*
X82092022Y-97727146D01*
X81952874Y-97727146D01*
X81952874Y-97384637D01*
X86533290Y-97384637D01*
X86534890Y-97549670D01*
X86533781Y-97553316D01*
X86535052Y-97566348D01*
X86535211Y-97582718D01*
X86537091Y-97587258D01*
X86537569Y-97592150D01*
X86545055Y-97610268D01*
X86606423Y-97721775D01*
X86611599Y-97733161D01*
X86613844Y-97735259D01*
X86615455Y-97738185D01*
X86628122Y-97748599D01*
X86640109Y-97759800D01*
X86644177Y-97761800D01*
X86645594Y-97762965D01*
X86648094Y-97763725D01*
X86657701Y-97768449D01*
X86764586Y-97806941D01*
X86767046Y-97808855D01*
X86779108Y-97812171D01*
X86795689Y-97818143D01*
X86800259Y-97817987D01*
X86804668Y-97819200D01*
X86824265Y-97818687D01*
X87498147Y-97732515D01*
X87532065Y-97713227D01*
X87556019Y-97682428D01*
X87566365Y-97644806D01*
X87561525Y-97606089D01*
X87542237Y-97572172D01*
X87511438Y-97548217D01*
X87473816Y-97537872D01*
X87454220Y-97538385D01*
X86826911Y-97618601D01*
X86763427Y-97595738D01*
X86733070Y-97540580D01*
X86731800Y-97409608D01*
X86773982Y-97317093D01*
X86801068Y-97285519D01*
X87498146Y-97196801D01*
X87532064Y-97177513D01*
X87556019Y-97146714D01*
X87566364Y-97109092D01*
X87561525Y-97070375D01*
X87542237Y-97036458D01*
X87511438Y-97012503D01*
X87473816Y-97002158D01*
X87454219Y-97002671D01*
X86738660Y-97093741D01*
X86727104Y-97094421D01*
X86724891Y-97095493D01*
X86601766Y-97111164D01*
X86567849Y-97130452D01*
X86543894Y-97161251D01*
X86533549Y-97198873D01*
X86538388Y-97237590D01*
X86557676Y-97271507D01*
X86571813Y-97282503D01*
X86550940Y-97328282D01*
X86550143Y-97329080D01*
X86545832Y-97339485D01*
X86536239Y-97360527D01*
X86536126Y-97362918D01*
X86535211Y-97365128D01*
X86533290Y-97384637D01*
X81952874Y-97384637D01*
X81952874Y-96424815D01*
X82091763Y-96424815D01*
X82093628Y-97252950D01*
X82092088Y-97266199D01*
X82093670Y-97271767D01*
X82093684Y-97277658D01*
X82098975Y-97290431D01*
X82102755Y-97303731D01*
X82106381Y-97308311D01*
X82108616Y-97313706D01*
X82118389Y-97323479D01*
X82126974Y-97334323D01*
X82132077Y-97337167D01*
X82136206Y-97341296D01*
X82148977Y-97346586D01*
X82161056Y-97353318D01*
X82166857Y-97353992D01*
X82172254Y-97356228D01*
X82186085Y-97356228D01*
X82199813Y-97357824D01*
X82205429Y-97356228D01*
X82211272Y-97356228D01*
X82224045Y-97350936D01*
X82237345Y-97347157D01*
X82244900Y-97342298D01*
X82247320Y-97341296D01*
X82248871Y-97339744D01*
X82253833Y-97336554D01*
X83342223Y-96472801D01*
X83343684Y-97121408D01*
X83358616Y-97157456D01*
X83386206Y-97185046D01*
X83422254Y-97199978D01*
X83461272Y-97199978D01*
X83497320Y-97185046D01*
X83524910Y-97157456D01*
X83539842Y-97121408D01*
X83541763Y-97101899D01*
X83539897Y-96273763D01*
X83541438Y-96260515D01*
X83539855Y-96254946D01*
X83539842Y-96249056D01*
X83534550Y-96236282D01*
X83530771Y-96222983D01*
X83527144Y-96218402D01*
X83524910Y-96213008D01*
X83515136Y-96203234D01*
X83506552Y-96192391D01*
X83501448Y-96189546D01*
X83497320Y-96185418D01*
X83484548Y-96180127D01*
X83472470Y-96173396D01*
X83466668Y-96172721D01*
X83461272Y-96170486D01*
X83447441Y-96170486D01*
X83433713Y-96168890D01*
X83428097Y-96170486D01*
X83422254Y-96170486D01*
X83409480Y-96175777D01*
X83396181Y-96179557D01*
X83388625Y-96184415D01*
X83386206Y-96185418D01*
X83384654Y-96186969D01*
X83379693Y-96190160D01*
X82291302Y-97053912D01*
X82289842Y-96405306D01*
X82274910Y-96369258D01*
X82247320Y-96341668D01*
X82211272Y-96326736D01*
X82172254Y-96326736D01*
X82136206Y-96341668D01*
X82108616Y-96369258D01*
X82093684Y-96405306D01*
X82091763Y-96424815D01*
X81952874Y-96424815D01*
X81952874Y-95234339D01*
X82091763Y-95234339D01*
X82093609Y-96054121D01*
X82092111Y-96059336D01*
X82093651Y-96072928D01*
X82093684Y-96087182D01*
X82095864Y-96092445D01*
X82096506Y-96098106D01*
X82103271Y-96110326D01*
X82108616Y-96123230D01*
X82112643Y-96127257D01*
X82115403Y-96132242D01*
X82126330Y-96140944D01*
X82136206Y-96150820D01*
X82141468Y-96152999D01*
X82145925Y-96156549D01*
X82159348Y-96160406D01*
X82172254Y-96165752D01*
X82177952Y-96165752D01*
X82183426Y-96167325D01*
X82197302Y-96165752D01*
X82211272Y-96165752D01*
X82216535Y-96163571D01*
X82222196Y-96162930D01*
X82240195Y-96155162D01*
X82826512Y-95829577D01*
X84104193Y-95829577D01*
X84105991Y-96126470D01*
X84105149Y-96140991D01*
X84106103Y-96144949D01*
X84106114Y-96146705D01*
X84107100Y-96149086D01*
X84109743Y-96160048D01*
X84166811Y-96319193D01*
X84167153Y-96324317D01*
X84172593Y-96335318D01*
X84177491Y-96348975D01*
X84181667Y-96353665D01*
X84184450Y-96359292D01*
X84197867Y-96373585D01*
X84320824Y-96478848D01*
X84330060Y-96487478D01*
X84332043Y-96488453D01*
X84332861Y-96489153D01*
X84334802Y-96489809D01*
X84347652Y-96496127D01*
X84461912Y-96537275D01*
X84470288Y-96542039D01*
X84483334Y-96544990D01*
X84485640Y-96545821D01*
X84486826Y-96545780D01*
X84489409Y-96546365D01*
X84721983Y-96573689D01*
X84732715Y-96576640D01*
X84744479Y-96576332D01*
X84747101Y-96576640D01*
X84748614Y-96576223D01*
X84752312Y-96576127D01*
X84924501Y-96552916D01*
X84934650Y-96553261D01*
X84947635Y-96549798D01*
X84950003Y-96549479D01*
X84951036Y-96548891D01*
X84953591Y-96548210D01*
X85183137Y-96460287D01*
X85192012Y-96458802D01*
X85208941Y-96450404D01*
X85209279Y-96450275D01*
X85209366Y-96450193D01*
X85209573Y-96450091D01*
X85325395Y-96375753D01*
X85335966Y-96370628D01*
X85341842Y-96365196D01*
X85344147Y-96363718D01*
X85345507Y-96361810D01*
X85350363Y-96357323D01*
X85456712Y-96235324D01*
X85456929Y-96235213D01*
X85460908Y-96230511D01*
X85480936Y-96207537D01*
X85481339Y-96206372D01*
X85482137Y-96205431D01*
X85487007Y-96194161D01*
X86533290Y-96194161D01*
X86534962Y-96418480D01*
X86533781Y-96422364D01*
X86535091Y-96435803D01*
X86535211Y-96451766D01*
X86537091Y-96456306D01*
X86537569Y-96461198D01*
X86545055Y-96479316D01*
X86606423Y-96590823D01*
X86611599Y-96602209D01*
X86613844Y-96604307D01*
X86615455Y-96607233D01*
X86628122Y-96617647D01*
X86640109Y-96628848D01*
X86644177Y-96630848D01*
X86645594Y-96632013D01*
X86648094Y-96632773D01*
X86657701Y-96637497D01*
X86764586Y-96675989D01*
X86767046Y-96677903D01*
X86779108Y-96681219D01*
X86795689Y-96687191D01*
X86800259Y-96687035D01*
X86804668Y-96688248D01*
X86824265Y-96687735D01*
X86943958Y-96672429D01*
X86945774Y-96672515D01*
X86947143Y-96672022D01*
X87412331Y-96612536D01*
X87421966Y-96612991D01*
X87429231Y-96610375D01*
X87498147Y-96601563D01*
X87532065Y-96582275D01*
X87556019Y-96551476D01*
X87566365Y-96513854D01*
X87561525Y-96475137D01*
X87546670Y-96449016D01*
X87548972Y-96443968D01*
X87549770Y-96443171D01*
X87554079Y-96432767D01*
X87563674Y-96411724D01*
X87563786Y-96409332D01*
X87564702Y-96407123D01*
X87566623Y-96387614D01*
X87564904Y-96103925D01*
X87566133Y-96099889D01*
X87564797Y-96086197D01*
X87564702Y-96070486D01*
X87562821Y-96065945D01*
X87562344Y-96061055D01*
X87554859Y-96042937D01*
X87493486Y-95931421D01*
X87488314Y-95920042D01*
X87486069Y-95917945D01*
X87484460Y-95915020D01*
X87471785Y-95904598D01*
X87459804Y-95893404D01*
X87455740Y-95891406D01*
X87454321Y-95890239D01*
X87451815Y-95889476D01*
X87442212Y-95884755D01*
X87335325Y-95846261D01*
X87332866Y-95844349D01*
X87320802Y-95841031D01*
X87304223Y-95835061D01*
X87299653Y-95835216D01*
X87295245Y-95834004D01*
X87275648Y-95834517D01*
X87172715Y-95848825D01*
X87172049Y-95848672D01*
X87163373Y-95850124D01*
X87137480Y-95853724D01*
X87135646Y-95854766D01*
X87133566Y-95855115D01*
X87116005Y-95863826D01*
X87005349Y-95934848D01*
X86998380Y-95937357D01*
X86991051Y-95944024D01*
X86981432Y-95950199D01*
X86976194Y-95957542D01*
X86969520Y-95963616D01*
X86959475Y-95980450D01*
X86958795Y-95981939D01*
X86958777Y-95981966D01*
X86958770Y-95981996D01*
X86908084Y-96093163D01*
X86907286Y-96093962D01*
X86902972Y-96104375D01*
X86893382Y-96125410D01*
X86893269Y-96127800D01*
X86892354Y-96130010D01*
X86890433Y-96149519D01*
X86892082Y-96421815D01*
X86864242Y-96482875D01*
X86826911Y-96487649D01*
X86763427Y-96464786D01*
X86733121Y-96409721D01*
X86731702Y-96219347D01*
X86789865Y-96091783D01*
X86791703Y-96052808D01*
X86778487Y-96016096D01*
X86752228Y-95987236D01*
X86716924Y-95970622D01*
X86677949Y-95968784D01*
X86641237Y-95982000D01*
X86612377Y-96008259D01*
X86602332Y-96025093D01*
X86550940Y-96137806D01*
X86550143Y-96138604D01*
X86545832Y-96149009D01*
X86536239Y-96170051D01*
X86536126Y-96172442D01*
X86535211Y-96174652D01*
X86533290Y-96194161D01*
X85487007Y-96194161D01*
X85489913Y-96187435D01*
X85547245Y-96002589D01*
X85552272Y-95990455D01*
X85552859Y-95984490D01*
X85553552Y-95982257D01*
X85553335Y-95979654D01*
X85554193Y-95970946D01*
X85552466Y-95685861D01*
X85553935Y-95680520D01*
X85552357Y-95667899D01*
X85552272Y-95653818D01*
X85549872Y-95648026D01*
X85549095Y-95641803D01*
X85542468Y-95630149D01*
X85537340Y-95617770D01*
X85532906Y-95613336D01*
X85529807Y-95607886D01*
X85519227Y-95599657D01*
X85509750Y-95590180D01*
X85503957Y-95587780D01*
X85499008Y-95583931D01*
X85486086Y-95580377D01*
X85473702Y-95575248D01*
X85467430Y-95575248D01*
X85461386Y-95573586D01*
X85441790Y-95574099D01*
X84197779Y-95731498D01*
X84184684Y-95731498D01*
X84178925Y-95733883D01*
X84172669Y-95734675D01*
X84161015Y-95741301D01*
X84148636Y-95746430D01*
X84144202Y-95750863D01*
X84138752Y-95753963D01*
X84130523Y-95764542D01*
X84121046Y-95774020D01*
X84118646Y-95779812D01*
X84114797Y-95784762D01*
X84111243Y-95797683D01*
X84106114Y-95810068D01*
X84105151Y-95819838D01*
X84104452Y-95822384D01*
X84104703Y-95824394D01*
X84104193Y-95829577D01*
X82826512Y-95829577D01*
X83349068Y-95539399D01*
X86533290Y-95539399D01*
X86535211Y-95677956D01*
X86550143Y-95714004D01*
X86577733Y-95741594D01*
X86613781Y-95756526D01*
X86652799Y-95756526D01*
X86688847Y-95741594D01*
X86716437Y-95714004D01*
X86731369Y-95677956D01*
X86733290Y-95658447D01*
X86731980Y-95563976D01*
X86773982Y-95471855D01*
X86814037Y-95425163D01*
X86903542Y-95367715D01*
X87498146Y-95292039D01*
X87532064Y-95272751D01*
X87556019Y-95241952D01*
X87566364Y-95204330D01*
X87561525Y-95165613D01*
X87542237Y-95131696D01*
X87511438Y-95107741D01*
X87473816Y-95097396D01*
X87454219Y-95097909D01*
X86874741Y-95171660D01*
X86874429Y-95171588D01*
X86871647Y-95172053D01*
X86601766Y-95206402D01*
X86567849Y-95225690D01*
X86543894Y-95256489D01*
X86533549Y-95294111D01*
X86538388Y-95332828D01*
X86557676Y-95366745D01*
X86588475Y-95390700D01*
X86592535Y-95391816D01*
X86550940Y-95483044D01*
X86550143Y-95483842D01*
X86545832Y-95494247D01*
X86536239Y-95515289D01*
X86536126Y-95517680D01*
X86535211Y-95519890D01*
X86533290Y-95539399D01*
X83349068Y-95539399D01*
X83506333Y-95452069D01*
X83530639Y-95421546D01*
X83541415Y-95384046D01*
X83537020Y-95345276D01*
X83518123Y-95311139D01*
X83487601Y-95286833D01*
X83450100Y-95276057D01*
X83411330Y-95280452D01*
X83393332Y-95288220D01*
X82291385Y-95900136D01*
X82289874Y-95228864D01*
X84104343Y-95228864D01*
X84106974Y-95247331D01*
X84109291Y-95265863D01*
X84109724Y-95266625D01*
X84109848Y-95267492D01*
X84119358Y-95283566D01*
X84128579Y-95299780D01*
X84129269Y-95300316D01*
X84129716Y-95301072D01*
X84144646Y-95312276D01*
X84159378Y-95323735D01*
X84160223Y-95323967D01*
X84160924Y-95324493D01*
X84178993Y-95329128D01*
X84197000Y-95334080D01*
X84198173Y-95334049D01*
X84198718Y-95334189D01*
X84200041Y-95334000D01*
X84216596Y-95333567D01*
X85485717Y-95172991D01*
X85519634Y-95153703D01*
X85543589Y-95122904D01*
X85553935Y-95085282D01*
X85549095Y-95046565D01*
X85529807Y-95012648D01*
X85499008Y-94988693D01*
X85461386Y-94978348D01*
X85441790Y-94978861D01*
X84664435Y-95077216D01*
X85144180Y-94792189D01*
X85157768Y-94785522D01*
X85160362Y-94782574D01*
X85163783Y-94780543D01*
X85173197Y-94767998D01*
X85183553Y-94756238D01*
X85184830Y-94752498D01*
X85187204Y-94749336D01*
X85191100Y-94734146D01*
X85196168Y-94719315D01*
X85195917Y-94715371D01*
X85196900Y-94711541D01*
X85194686Y-94696011D01*
X85193693Y-94680376D01*
X85191953Y-94676830D01*
X85191395Y-94672913D01*
X85183409Y-94659416D01*
X85176506Y-94645347D01*
X85173538Y-94642734D01*
X85171526Y-94639333D01*
X85158991Y-94629926D01*
X85147221Y-94619562D01*
X85142035Y-94617200D01*
X85140319Y-94615912D01*
X85137771Y-94615258D01*
X85129381Y-94611437D01*
X84642879Y-94446298D01*
X85485717Y-94339658D01*
X85519634Y-94320370D01*
X85543589Y-94289571D01*
X85553935Y-94251949D01*
X85550245Y-94222435D01*
X86116623Y-94222435D01*
X86117532Y-94570017D01*
X86116882Y-94572385D01*
X86117553Y-94577755D01*
X86118544Y-94956229D01*
X86133476Y-94992277D01*
X86161066Y-95019867D01*
X86197114Y-95034799D01*
X86236132Y-95034799D01*
X86272180Y-95019867D01*
X86299770Y-94992277D01*
X86314702Y-94956229D01*
X86316623Y-94936720D01*
X86315919Y-94667811D01*
X87498147Y-94518230D01*
X87532064Y-94498942D01*
X87556019Y-94468143D01*
X87566365Y-94430521D01*
X87561525Y-94391804D01*
X87542237Y-94357887D01*
X87511438Y-94333932D01*
X87473816Y-94323587D01*
X87454220Y-94324100D01*
X86315396Y-94468190D01*
X86314702Y-94202926D01*
X86299770Y-94166878D01*
X86272180Y-94139288D01*
X86236132Y-94124356D01*
X86197114Y-94124356D01*
X86161066Y-94139288D01*
X86133476Y-94166878D01*
X86118544Y-94202926D01*
X86116623Y-94222435D01*
X85550245Y-94222435D01*
X85549095Y-94213232D01*
X85529807Y-94179315D01*
X85499008Y-94155360D01*
X85461386Y-94145015D01*
X85441790Y-94145528D01*
X84194446Y-94303348D01*
X84178503Y-94304362D01*
X84175746Y-94305714D01*
X84172669Y-94306104D01*
X84158302Y-94314273D01*
X84143474Y-94321550D01*
X84141434Y-94323866D01*
X84138752Y-94325392D01*
X84128613Y-94338426D01*
X84117689Y-94350834D01*
X84116690Y-94353756D01*
X84114797Y-94356191D01*
X84110418Y-94372112D01*
X84105074Y-94387757D01*
X84105269Y-94390838D01*
X84104452Y-94393813D01*
X84106500Y-94410206D01*
X84107549Y-94426696D01*
X84108908Y-94429465D01*
X84109291Y-94432530D01*
X84117460Y-94446896D01*
X84124737Y-94461725D01*
X84127053Y-94463764D01*
X84128579Y-94466447D01*
X84141613Y-94476585D01*
X84154021Y-94487510D01*
X84157975Y-94489310D01*
X84159378Y-94490402D01*
X84161883Y-94491091D01*
X84171861Y-94495635D01*
X84861464Y-94729714D01*
X84153272Y-95150467D01*
X84138752Y-95158725D01*
X84138217Y-95159411D01*
X84137460Y-95159862D01*
X84126255Y-95174792D01*
X84114797Y-95189524D01*
X84114564Y-95190369D01*
X84114039Y-95191070D01*
X84109403Y-95209139D01*
X84104452Y-95227146D01*
X84104560Y-95228015D01*
X84104343Y-95228864D01*
X82289874Y-95228864D01*
X82289842Y-95214830D01*
X82274910Y-95178782D01*
X82247320Y-95151192D01*
X82211272Y-95136260D01*
X82172254Y-95136260D01*
X82136206Y-95151192D01*
X82108616Y-95178782D01*
X82093684Y-95214830D01*
X82091763Y-95234339D01*
X81952874Y-95234339D01*
X81952874Y-94460530D01*
X82091763Y-94460530D01*
X82093684Y-94718134D01*
X82108616Y-94754182D01*
X82136206Y-94781772D01*
X82172254Y-94796704D01*
X82211272Y-94796704D01*
X82247320Y-94781772D01*
X82274910Y-94754182D01*
X82289842Y-94718134D01*
X82291763Y-94698625D01*
X82290175Y-94485716D01*
X82332455Y-94392986D01*
X82373930Y-94344638D01*
X82534427Y-94215537D01*
X82601994Y-94189657D01*
X82585604Y-94225604D01*
X82584807Y-94226402D01*
X82580496Y-94236807D01*
X82570903Y-94257849D01*
X82570790Y-94260240D01*
X82569875Y-94262450D01*
X82567954Y-94281959D01*
X82569626Y-94506277D01*
X82568445Y-94510161D01*
X82569755Y-94523600D01*
X82569875Y-94539563D01*
X82571755Y-94544103D01*
X82572233Y-94548995D01*
X82579719Y-94567113D01*
X82643020Y-94682131D01*
X82648210Y-94692626D01*
X82649626Y-94694134D01*
X82650119Y-94695030D01*
X82651643Y-94696283D01*
X82661627Y-94706918D01*
X82726974Y-94761887D01*
X82734296Y-94768728D01*
X82736246Y-94769687D01*
X82737098Y-94770403D01*
X82739037Y-94771058D01*
X82751889Y-94777377D01*
X82858773Y-94815869D01*
X82861234Y-94817783D01*
X82873300Y-94821100D01*
X82889878Y-94827071D01*
X82894447Y-94826915D01*
X82898856Y-94828128D01*
X82918452Y-94827615D01*
X83199187Y-94790807D01*
X83200624Y-94791139D01*
X83214938Y-94788742D01*
X83235191Y-94786087D01*
X83237024Y-94785044D01*
X83239106Y-94784696D01*
X83256668Y-94775985D01*
X83372487Y-94701647D01*
X83383060Y-94696522D01*
X83388940Y-94691087D01*
X83391241Y-94689611D01*
X83392599Y-94687706D01*
X83397457Y-94683217D01*
X83454705Y-94616482D01*
X83462677Y-94609229D01*
X83466675Y-94602529D01*
X83468506Y-94600395D01*
X83469280Y-94598162D01*
X83472722Y-94592395D01*
X83524112Y-94479682D01*
X83524910Y-94478885D01*
X83529219Y-94468481D01*
X83538814Y-94447438D01*
X83538926Y-94445046D01*
X83539842Y-94442837D01*
X83541763Y-94423328D01*
X83540090Y-94199008D01*
X83541272Y-94195126D01*
X83539961Y-94181686D01*
X83539842Y-94165724D01*
X83537961Y-94161183D01*
X83537484Y-94156292D01*
X83529998Y-94138175D01*
X83466691Y-94023142D01*
X83461507Y-94012659D01*
X83460092Y-94011152D01*
X83459600Y-94010257D01*
X83458074Y-94009003D01*
X83448090Y-93998367D01*
X83382730Y-93943388D01*
X83375420Y-93936558D01*
X83373471Y-93935599D01*
X83372619Y-93934883D01*
X83370677Y-93934226D01*
X83357828Y-93927909D01*
X83250943Y-93889416D01*
X83248483Y-93887503D01*
X83236416Y-93884185D01*
X83219839Y-93878215D01*
X83215269Y-93878370D01*
X83210861Y-93877158D01*
X83191265Y-93877671D01*
X82722376Y-93938114D01*
X82711307Y-93937739D01*
X82698220Y-93941228D01*
X82695954Y-93941521D01*
X82694920Y-93942108D01*
X82692366Y-93942790D01*
X82456912Y-94032974D01*
X82443800Y-94036701D01*
X82438817Y-94039905D01*
X82436677Y-94040725D01*
X82434765Y-94042510D01*
X82427312Y-94047304D01*
X82257410Y-94183970D01*
X82250467Y-94187337D01*
X82236070Y-94200641D01*
X82234699Y-94202239D01*
X82234637Y-94202289D01*
X82234601Y-94202353D01*
X82178824Y-94267372D01*
X82170850Y-94274628D01*
X82166850Y-94281329D01*
X82165021Y-94283463D01*
X82164247Y-94285693D01*
X82160805Y-94291462D01*
X82109413Y-94404175D01*
X82108616Y-94404973D01*
X82104305Y-94415378D01*
X82094712Y-94436420D01*
X82094599Y-94438811D01*
X82093684Y-94441021D01*
X82091763Y-94460530D01*
X81952874Y-94460530D01*
X81952874Y-92853387D01*
X82091763Y-92853387D01*
X82093609Y-93673169D01*
X82092111Y-93678384D01*
X82093651Y-93691976D01*
X82093684Y-93706230D01*
X82095864Y-93711493D01*
X82096506Y-93717154D01*
X82103271Y-93729374D01*
X82108616Y-93742278D01*
X82112643Y-93746305D01*
X82115403Y-93751290D01*
X82126330Y-93759992D01*
X82136206Y-93769868D01*
X82141468Y-93772047D01*
X82145925Y-93775597D01*
X82159348Y-93779454D01*
X82172254Y-93784800D01*
X82177952Y-93784800D01*
X82183426Y-93786373D01*
X82197302Y-93784800D01*
X82211272Y-93784800D01*
X82216535Y-93782619D01*
X82222196Y-93781978D01*
X82240195Y-93774210D01*
X83506333Y-93071117D01*
X83530639Y-93040594D01*
X83541415Y-93003094D01*
X83537020Y-92964324D01*
X83518123Y-92930187D01*
X83487601Y-92905881D01*
X83450100Y-92895105D01*
X83411330Y-92899500D01*
X83393332Y-92907268D01*
X82291385Y-93519184D01*
X82289842Y-92833878D01*
X82274910Y-92797830D01*
X82247320Y-92770240D01*
X82211272Y-92755308D01*
X82172254Y-92755308D01*
X82136206Y-92770240D01*
X82108616Y-92797830D01*
X82093684Y-92833878D01*
X82091763Y-92853387D01*
X81952874Y-92853387D01*
X81952874Y-91901006D01*
X82091763Y-91901006D01*
X82093684Y-92515753D01*
X82108616Y-92551801D01*
X82136206Y-92579391D01*
X82172254Y-92594323D01*
X82211272Y-92594323D01*
X82247320Y-92579391D01*
X82274910Y-92551801D01*
X82289842Y-92515753D01*
X82291763Y-92496244D01*
X82290179Y-91989351D01*
X82687496Y-91939080D01*
X82688922Y-92262777D01*
X82703854Y-92298825D01*
X82731444Y-92326415D01*
X82767492Y-92341347D01*
X82806510Y-92341347D01*
X82827141Y-92332801D01*
X84402071Y-92332801D01*
X84406910Y-92371517D01*
X84426198Y-92405435D01*
X84456997Y-92429390D01*
X84494619Y-92439735D01*
X84514215Y-92439222D01*
X84879166Y-92392876D01*
X84879924Y-92776170D01*
X84894856Y-92812218D01*
X84922446Y-92839808D01*
X84958494Y-92854740D01*
X84997512Y-92854740D01*
X85033560Y-92839808D01*
X85061150Y-92812218D01*
X85076082Y-92776170D01*
X85078003Y-92756661D01*
X85077234Y-92367723D01*
X85352228Y-92332801D01*
X86414501Y-92332801D01*
X86419340Y-92371517D01*
X86438628Y-92405435D01*
X86469427Y-92429390D01*
X86507049Y-92439735D01*
X86526645Y-92439222D01*
X86891596Y-92392876D01*
X86892354Y-92776170D01*
X86907286Y-92812218D01*
X86934876Y-92839808D01*
X86970924Y-92854740D01*
X87009942Y-92854740D01*
X87045990Y-92839808D01*
X87073580Y-92812218D01*
X87088512Y-92776170D01*
X87090433Y-92756661D01*
X87089664Y-92367723D01*
X87498147Y-92315849D01*
X87532064Y-92296561D01*
X87556019Y-92265762D01*
X87566365Y-92228140D01*
X87561525Y-92189423D01*
X87542237Y-92155506D01*
X87511438Y-92131551D01*
X87473817Y-92121206D01*
X87454220Y-92121719D01*
X87089269Y-92168064D01*
X87088512Y-91784771D01*
X87073580Y-91748723D01*
X87045990Y-91721133D01*
X87009942Y-91706201D01*
X86970924Y-91706201D01*
X86934876Y-91721133D01*
X86907286Y-91748723D01*
X86892354Y-91784771D01*
X86890433Y-91804280D01*
X86891201Y-92193217D01*
X86482719Y-92245092D01*
X86448801Y-92264380D01*
X86424846Y-92295179D01*
X86414501Y-92332801D01*
X85352228Y-92332801D01*
X85485717Y-92315849D01*
X85519634Y-92296561D01*
X85543589Y-92265762D01*
X85553935Y-92228140D01*
X85549095Y-92189423D01*
X85529807Y-92155506D01*
X85499008Y-92131551D01*
X85461387Y-92121206D01*
X85441790Y-92121719D01*
X85076839Y-92168064D01*
X85076082Y-91784771D01*
X85061150Y-91748723D01*
X85033560Y-91721133D01*
X84997512Y-91706201D01*
X84958494Y-91706201D01*
X84922446Y-91721133D01*
X84894856Y-91748723D01*
X84879924Y-91784771D01*
X84878003Y-91804280D01*
X84878771Y-92193217D01*
X84470289Y-92245092D01*
X84436371Y-92264380D01*
X84412416Y-92295179D01*
X84402071Y-92332801D01*
X82827141Y-92332801D01*
X82842558Y-92326415D01*
X82870148Y-92298825D01*
X82885080Y-92262777D01*
X82887001Y-92243268D01*
X82885550Y-91914021D01*
X83473287Y-91839658D01*
X83507204Y-91820370D01*
X83531159Y-91789571D01*
X83541505Y-91751949D01*
X83536665Y-91713232D01*
X83517377Y-91679315D01*
X83486578Y-91655360D01*
X83448956Y-91645015D01*
X83429360Y-91645528D01*
X82773412Y-91728522D01*
X82767492Y-91728522D01*
X82764888Y-91729600D01*
X82185349Y-91802927D01*
X82172254Y-91802927D01*
X82166495Y-91805312D01*
X82160239Y-91806104D01*
X82148585Y-91812730D01*
X82136206Y-91817859D01*
X82131772Y-91822292D01*
X82126322Y-91825392D01*
X82118093Y-91835971D01*
X82108616Y-91845449D01*
X82106216Y-91851241D01*
X82102367Y-91856191D01*
X82098813Y-91869112D01*
X82093684Y-91881497D01*
X82092721Y-91891267D01*
X82092022Y-91893813D01*
X82092273Y-91895823D01*
X82091763Y-91901006D01*
X81952874Y-91901006D01*
X81952874Y-91506126D01*
X88121068Y-91506126D01*
X88121068Y-111371605D01*
G37*
D10*
X148024819Y-122856666D02*
X148739104Y-122856666D01*
X148739104Y-122856666D02*
X148881961Y-122809047D01*
X148881961Y-122809047D02*
X148977200Y-122713809D01*
X148977200Y-122713809D02*
X149024819Y-122570952D01*
X149024819Y-122570952D02*
X149024819Y-122475714D01*
X148024819Y-123237619D02*
X148024819Y-123856666D01*
X148024819Y-123856666D02*
X148405771Y-123523333D01*
X148405771Y-123523333D02*
X148405771Y-123666190D01*
X148405771Y-123666190D02*
X148453390Y-123761428D01*
X148453390Y-123761428D02*
X148501009Y-123809047D01*
X148501009Y-123809047D02*
X148596247Y-123856666D01*
X148596247Y-123856666D02*
X148834342Y-123856666D01*
X148834342Y-123856666D02*
X148929580Y-123809047D01*
X148929580Y-123809047D02*
X148977200Y-123761428D01*
X148977200Y-123761428D02*
X149024819Y-123666190D01*
X149024819Y-123666190D02*
X149024819Y-123380476D01*
X149024819Y-123380476D02*
X148977200Y-123285238D01*
X148977200Y-123285238D02*
X148929580Y-123237619D01*
X121164819Y-122856666D02*
X121879104Y-122856666D01*
X121879104Y-122856666D02*
X122021961Y-122809047D01*
X122021961Y-122809047D02*
X122117200Y-122713809D01*
X122117200Y-122713809D02*
X122164819Y-122570952D01*
X122164819Y-122570952D02*
X122164819Y-122475714D01*
X122164819Y-123856666D02*
X122164819Y-123285238D01*
X122164819Y-123570952D02*
X121164819Y-123570952D01*
X121164819Y-123570952D02*
X121307676Y-123475714D01*
X121307676Y-123475714D02*
X121402914Y-123380476D01*
X121402914Y-123380476D02*
X121450533Y-123285238D01*
X138864819Y-77136666D02*
X139579104Y-77136666D01*
X139579104Y-77136666D02*
X139721961Y-77089047D01*
X139721961Y-77089047D02*
X139817200Y-76993809D01*
X139817200Y-76993809D02*
X139864819Y-76850952D01*
X139864819Y-76850952D02*
X139864819Y-76755714D01*
X138960057Y-77565238D02*
X138912438Y-77612857D01*
X138912438Y-77612857D02*
X138864819Y-77708095D01*
X138864819Y-77708095D02*
X138864819Y-77946190D01*
X138864819Y-77946190D02*
X138912438Y-78041428D01*
X138912438Y-78041428D02*
X138960057Y-78089047D01*
X138960057Y-78089047D02*
X139055295Y-78136666D01*
X139055295Y-78136666D02*
X139150533Y-78136666D01*
X139150533Y-78136666D02*
X139293390Y-78089047D01*
X139293390Y-78089047D02*
X139864819Y-77517619D01*
X139864819Y-77517619D02*
X139864819Y-78136666D01*
X116084819Y-77136666D02*
X116799104Y-77136666D01*
X116799104Y-77136666D02*
X116941961Y-77089047D01*
X116941961Y-77089047D02*
X117037200Y-76993809D01*
X117037200Y-76993809D02*
X117084819Y-76850952D01*
X117084819Y-76850952D02*
X117084819Y-76755714D01*
X116084819Y-78089047D02*
X116084819Y-77612857D01*
X116084819Y-77612857D02*
X116561009Y-77565238D01*
X116561009Y-77565238D02*
X116513390Y-77612857D01*
X116513390Y-77612857D02*
X116465771Y-77708095D01*
X116465771Y-77708095D02*
X116465771Y-77946190D01*
X116465771Y-77946190D02*
X116513390Y-78041428D01*
X116513390Y-78041428D02*
X116561009Y-78089047D01*
X116561009Y-78089047D02*
X116656247Y-78136666D01*
X116656247Y-78136666D02*
X116894342Y-78136666D01*
X116894342Y-78136666D02*
X116989580Y-78089047D01*
X116989580Y-78089047D02*
X117037200Y-78041428D01*
X117037200Y-78041428D02*
X117084819Y-77946190D01*
X117084819Y-77946190D02*
X117084819Y-77708095D01*
X117084819Y-77708095D02*
X117037200Y-77612857D01*
X117037200Y-77612857D02*
X116989580Y-77565238D01*
D12*
G36*
X158646451Y-102853504D02*
G01*
X158615995Y-102883959D01*
X158585540Y-102853504D01*
X158615995Y-102823048D01*
X158646451Y-102853504D01*
G37*
G36*
X158646451Y-110650146D02*
G01*
X158615995Y-110680602D01*
X158585540Y-110650146D01*
X158615995Y-110619691D01*
X158646451Y-110650146D01*
G37*
G36*
X158768274Y-106630003D02*
G01*
X158737818Y-106660458D01*
X158707362Y-106630003D01*
X158737818Y-106599547D01*
X158768274Y-106630003D01*
G37*
G36*
X158768274Y-108396429D02*
G01*
X158737818Y-108426885D01*
X158707362Y-108396429D01*
X158737818Y-108365974D01*
X158768274Y-108396429D01*
G37*
G36*
X159011919Y-101026166D02*
G01*
X158981463Y-101056621D01*
X158951007Y-101026166D01*
X158981463Y-100995710D01*
X159011919Y-101026166D01*
G37*
G36*
X159011919Y-107726405D02*
G01*
X158981463Y-107756861D01*
X158951007Y-107726405D01*
X158981463Y-107695950D01*
X159011919Y-107726405D01*
G37*
G36*
X159011919Y-108761897D02*
G01*
X158981463Y-108792353D01*
X158951007Y-108761897D01*
X158981463Y-108731441D01*
X159011919Y-108761897D01*
G37*
G36*
X159011919Y-110528324D02*
G01*
X158981463Y-110558780D01*
X158951007Y-110528324D01*
X158981463Y-110497868D01*
X159011919Y-110528324D01*
G37*
G36*
X159011919Y-111076525D02*
G01*
X158981463Y-111106981D01*
X158951007Y-111076525D01*
X158981463Y-111046070D01*
X159011919Y-111076525D01*
G37*
G36*
X159011919Y-113512976D02*
G01*
X158981463Y-113543432D01*
X158951007Y-113512976D01*
X158981463Y-113482521D01*
X159011919Y-113512976D01*
G37*
G36*
X159011919Y-113878444D02*
G01*
X158981463Y-113908899D01*
X158951007Y-113878444D01*
X158981463Y-113847988D01*
X159011919Y-113878444D01*
G37*
G36*
X158646451Y-100630242D02*
G01*
X158642055Y-100662489D01*
X158605844Y-100670850D01*
X158598554Y-100661922D01*
X158605844Y-100589635D01*
X158624165Y-100580105D01*
X158646451Y-100630242D01*
G37*
G36*
X159011919Y-109523288D02*
G01*
X159007523Y-109555534D01*
X158971311Y-109563895D01*
X158964021Y-109554968D01*
X158971311Y-109482680D01*
X158989632Y-109473151D01*
X159011919Y-109523288D01*
G37*
G36*
X158857649Y-102234894D02*
G01*
X158945346Y-102290227D01*
X158947007Y-102326276D01*
X158866173Y-102331113D01*
X158757669Y-102290577D01*
X158707362Y-102221578D01*
X158748449Y-102201305D01*
X158857649Y-102234894D01*
G37*
G36*
X158872032Y-111199778D02*
G01*
X159042374Y-111246293D01*
X158890096Y-111289238D01*
X158777132Y-111304908D01*
X158680967Y-111281508D01*
X158666225Y-111266954D01*
X158651635Y-111205605D01*
X158728212Y-111179802D01*
X158872032Y-111199778D01*
G37*
G36*
X158878806Y-100802955D02*
G01*
X159042374Y-100835447D01*
X158890096Y-100874906D01*
X158790283Y-100892487D01*
X158672789Y-100889676D01*
X158614012Y-100860802D01*
X158645282Y-100813699D01*
X158732344Y-100793300D01*
X158878806Y-100802955D01*
G37*
G36*
X158863256Y-115265095D02*
G01*
X158950728Y-115274334D01*
X158936490Y-115290798D01*
X158851557Y-115301834D01*
X158692845Y-115292028D01*
X158662873Y-115284063D01*
X158680769Y-115270305D01*
X158798729Y-115264308D01*
X158863256Y-115265095D01*
G37*
G36*
X158883191Y-101370092D02*
G01*
X158971311Y-101401785D01*
X158999828Y-101448518D01*
X158950666Y-101464212D01*
X158822800Y-101427258D01*
X158748557Y-101396204D01*
X158722854Y-101372277D01*
X158803805Y-101365039D01*
X158883191Y-101370092D01*
G37*
G36*
X158959792Y-100584454D02*
G01*
X159011919Y-100630242D01*
X158974112Y-100670303D01*
X158859640Y-100691154D01*
X158759489Y-100676031D01*
X158707362Y-100630242D01*
X158745169Y-100590182D01*
X158859640Y-100569331D01*
X158959792Y-100584454D01*
G37*
G36*
X159011919Y-101613269D02*
G01*
X158974154Y-101647758D01*
X158859640Y-101665734D01*
X158759650Y-101659957D01*
X158707362Y-101642379D01*
X158745515Y-101619665D01*
X158859640Y-101589915D01*
X158961241Y-101583961D01*
X159011919Y-101613269D01*
G37*
G36*
X158969419Y-102843006D02*
G01*
X158967394Y-102863002D01*
X158917344Y-102874176D01*
X158784661Y-102865259D01*
X158774188Y-102862245D01*
X158765170Y-102843706D01*
X158859640Y-102834923D01*
X158874065Y-102834839D01*
X158969419Y-102843006D01*
G37*
G36*
X158969419Y-106497682D02*
G01*
X158967394Y-106517678D01*
X158917344Y-106528853D01*
X158784661Y-106519935D01*
X158774188Y-106516921D01*
X158765170Y-106498382D01*
X158859640Y-106489599D01*
X158874065Y-106489515D01*
X158969419Y-106497682D01*
G37*
G36*
X158969419Y-108264109D02*
G01*
X158967394Y-108284105D01*
X158917344Y-108295279D01*
X158784661Y-108286362D01*
X158774188Y-108283348D01*
X158765170Y-108264809D01*
X158859640Y-108256026D01*
X158874065Y-108255942D01*
X158969419Y-108264109D01*
G37*
G36*
X158969419Y-110639648D02*
G01*
X158967394Y-110659645D01*
X158917344Y-110670819D01*
X158784661Y-110661902D01*
X158774188Y-110658888D01*
X158765170Y-110640349D01*
X158859640Y-110631565D01*
X158874065Y-110631482D01*
X158969419Y-110639648D01*
G37*
G36*
X158875131Y-112435082D02*
G01*
X158927567Y-112446034D01*
X158992066Y-112471694D01*
X158945816Y-112497017D01*
X158783501Y-112527357D01*
X158765511Y-112529954D01*
X158637826Y-112533669D01*
X158585540Y-112507702D01*
X158602119Y-112466744D01*
X158705003Y-112425829D01*
X158875131Y-112435082D01*
G37*
G36*
X158971732Y-113649754D02*
G01*
X158991777Y-113685459D01*
X158909069Y-113714608D01*
X158824320Y-113746309D01*
X158748629Y-113836506D01*
X158745620Y-113847589D01*
X158725116Y-113886997D01*
X158714428Y-113808822D01*
X158747205Y-113695103D01*
X158848329Y-113627477D01*
X158971732Y-113649754D01*
G37*
G36*
X158956504Y-108521649D02*
G01*
X158993480Y-108549888D01*
X159002829Y-108596024D01*
X158918214Y-108586695D01*
X158847738Y-108587485D01*
X158769796Y-108686772D01*
X158737956Y-108763547D01*
X158717061Y-108783056D01*
X158711223Y-108692275D01*
X158745528Y-108581915D01*
X158842928Y-108509585D01*
X158956504Y-108521649D01*
G37*
G36*
X158831386Y-105990438D02*
G01*
X158958965Y-106006872D01*
X159011919Y-106045643D01*
X158987224Y-106072411D01*
X158890096Y-106068994D01*
X158816308Y-106063053D01*
X158768274Y-106108747D01*
X158763311Y-106133914D01*
X158707362Y-106142712D01*
X158645716Y-106070315D01*
X158691130Y-106013444D01*
X158829185Y-105990434D01*
X158831386Y-105990438D01*
G37*
G36*
X158923469Y-110277370D02*
G01*
X158964234Y-110296463D01*
X159011919Y-110341767D01*
X158999793Y-110352258D01*
X158920944Y-110337312D01*
X158850090Y-110341486D01*
X158772527Y-110445819D01*
X158738120Y-110528590D01*
X158717179Y-110546476D01*
X158711223Y-110455780D01*
X158720130Y-110370433D01*
X158793277Y-110274206D01*
X158923469Y-110277370D01*
G37*
G36*
X158696913Y-112910894D02*
G01*
X158834261Y-112934319D01*
X158959107Y-112951999D01*
X159011919Y-112995230D01*
X158960353Y-113038035D01*
X158834261Y-113056142D01*
X158702656Y-113077468D01*
X158625880Y-113132281D01*
X158620209Y-113142669D01*
X158602353Y-113114117D01*
X158595157Y-112995230D01*
X158595686Y-112957187D01*
X158606177Y-112859285D01*
X158625880Y-112858180D01*
X158696913Y-112910894D01*
G37*
G36*
X158924084Y-107254247D02*
G01*
X158964964Y-107324959D01*
X158971503Y-107391202D01*
X158934384Y-107385641D01*
X158859970Y-107310778D01*
X158819277Y-107257080D01*
X158777816Y-107233992D01*
X158750194Y-107310874D01*
X158742646Y-107338563D01*
X158723990Y-107369890D01*
X158714428Y-107284799D01*
X158714116Y-107277134D01*
X158742705Y-107169269D01*
X158821047Y-107160423D01*
X158924084Y-107254247D01*
G37*
G36*
X158920806Y-101132760D02*
G01*
X158971430Y-101184704D01*
X159006536Y-101267292D01*
X158949096Y-101300266D01*
X158910729Y-101285310D01*
X158847077Y-101198125D01*
X158834240Y-101166408D01*
X158801976Y-101134257D01*
X158761903Y-101213353D01*
X158741720Y-101262760D01*
X158719050Y-101286197D01*
X158711643Y-101193672D01*
X158726961Y-101096856D01*
X158799314Y-101061637D01*
X158920806Y-101132760D01*
G37*
G36*
X153895372Y-113025686D02*
G01*
X153895372Y-113726166D01*
X155692254Y-113726166D01*
X157489137Y-113726166D01*
X157489137Y-114183000D01*
X157489137Y-114639835D01*
X155692254Y-114639835D01*
X153895372Y-114639835D01*
X153895372Y-115370770D01*
X153895372Y-116101705D01*
X153560360Y-116101705D01*
X153225348Y-116101705D01*
X153225348Y-114213456D01*
X153225348Y-112325206D01*
X153560360Y-112325206D01*
X153895372Y-112325206D01*
X153895372Y-113025686D01*
G37*
G36*
X158974679Y-101795496D02*
G01*
X158994310Y-101810698D01*
X158905324Y-101850366D01*
X158818035Y-101898971D01*
X158768274Y-101964091D01*
X158798350Y-102006433D01*
X158905324Y-102049126D01*
X158968005Y-102062475D01*
X158979431Y-102075514D01*
X158874868Y-102083818D01*
X158813638Y-102084415D01*
X158727731Y-102050319D01*
X158707362Y-101939835D01*
X158709779Y-101887503D01*
X158751809Y-101807951D01*
X158874868Y-101791417D01*
X158974679Y-101795496D01*
G37*
G36*
X158953608Y-114409428D02*
G01*
X158985659Y-114419883D01*
X158905324Y-114439177D01*
X158820044Y-114473724D01*
X158768274Y-114548468D01*
X158798235Y-114605820D01*
X158905324Y-114657759D01*
X158968005Y-114671108D01*
X158979431Y-114684147D01*
X158874868Y-114692451D01*
X158813638Y-114693048D01*
X158727731Y-114658952D01*
X158707362Y-114548468D01*
X158710041Y-114492936D01*
X158752227Y-114416929D01*
X158874868Y-114404485D01*
X158953608Y-114409428D01*
G37*
G36*
X158971732Y-105609466D02*
G01*
X158989132Y-105645978D01*
X158901813Y-105675271D01*
X158817296Y-105704994D01*
X158786310Y-105766713D01*
X158820174Y-105803150D01*
X158926871Y-105817838D01*
X158932367Y-105816889D01*
X159003621Y-105817749D01*
X158970330Y-105871609D01*
X158967519Y-105874434D01*
X158856386Y-105918158D01*
X158752968Y-105871028D01*
X158707362Y-105755218D01*
X158742625Y-105654357D01*
X158847949Y-105588209D01*
X158971732Y-105609466D01*
G37*
G36*
X158908726Y-111486356D02*
G01*
X158981700Y-111508525D01*
X159081778Y-111547320D01*
X159083518Y-111582002D01*
X159000093Y-111633832D01*
X158955954Y-111656388D01*
X158839373Y-111699893D01*
X158753324Y-111714255D01*
X158726540Y-111697568D01*
X158787751Y-111647925D01*
X158841704Y-111614590D01*
X158864484Y-111568189D01*
X158787751Y-111500143D01*
X158780100Y-111494357D01*
X158731684Y-111449963D01*
X158769734Y-111447846D01*
X158908726Y-111486356D01*
G37*
G36*
X158923469Y-104795355D02*
G01*
X158980694Y-104822438D01*
X159003337Y-104862841D01*
X158911880Y-104872036D01*
X158859952Y-104877555D01*
X158784981Y-104939715D01*
X158796508Y-104989943D01*
X158900248Y-105016787D01*
X158921466Y-105017133D01*
X158994282Y-105031242D01*
X158956531Y-105072062D01*
X158864190Y-105104260D01*
X158753676Y-105067676D01*
X158707362Y-104952021D01*
X158715378Y-104889019D01*
X158791267Y-104793433D01*
X158923469Y-104795355D01*
G37*
G36*
X158923469Y-115393916D02*
G01*
X158989179Y-115429392D01*
X159001844Y-115474532D01*
X158911643Y-115480035D01*
X158857967Y-115481343D01*
X158784745Y-115538276D01*
X158795558Y-115587829D01*
X158897202Y-115614415D01*
X158985640Y-115628313D01*
X158973375Y-115677323D01*
X158965149Y-115684868D01*
X158857523Y-115712861D01*
X158753800Y-115659621D01*
X158707362Y-115550582D01*
X158715378Y-115487580D01*
X158791267Y-115391994D01*
X158923469Y-115393916D01*
G37*
G36*
X158812269Y-109559666D02*
G01*
X158879402Y-109629224D01*
X158955307Y-109660338D01*
X158998779Y-109668099D01*
X159006092Y-109728975D01*
X158953000Y-109796157D01*
X158896530Y-109790137D01*
X158816525Y-109708385D01*
X158747798Y-109617508D01*
X158676838Y-109595563D01*
X158627527Y-109690794D01*
X158622341Y-109709819D01*
X158602725Y-109745324D01*
X158592606Y-109663933D01*
X158592091Y-109639830D01*
X158627912Y-109515840D01*
X158711368Y-109484341D01*
X158812269Y-109559666D01*
G37*
G36*
X158861265Y-103019113D02*
G01*
X158960916Y-103028478D01*
X158963693Y-103046970D01*
X158920927Y-103079149D01*
X158949604Y-103156370D01*
X158961825Y-103172326D01*
X158963106Y-103220897D01*
X158859640Y-103234199D01*
X158825253Y-103233584D01*
X158747601Y-103213587D01*
X158770690Y-103155149D01*
X158777413Y-103146722D01*
X158790378Y-103084943D01*
X158695690Y-103049235D01*
X158663627Y-103040817D01*
X158679597Y-103026181D01*
X158798729Y-103018886D01*
X158861265Y-103019113D01*
G37*
G36*
X158959634Y-109902866D02*
G01*
X159011919Y-109943964D01*
X158987224Y-109970732D01*
X158890096Y-109967316D01*
X158801988Y-109964396D01*
X158768274Y-110041034D01*
X158791491Y-110111320D01*
X158890096Y-110114752D01*
X158963520Y-110107642D01*
X159011919Y-110142340D01*
X158980977Y-110175461D01*
X158874868Y-110182321D01*
X158787717Y-110148947D01*
X158718354Y-110025806D01*
X158714517Y-109988912D01*
X158741320Y-109908640D01*
X158855404Y-109888756D01*
X158959634Y-109902866D01*
G37*
G36*
X158959634Y-112034761D02*
G01*
X159011919Y-112075859D01*
X158987224Y-112102626D01*
X158890096Y-112099210D01*
X158801988Y-112096290D01*
X158768274Y-112172928D01*
X158791491Y-112243214D01*
X158890096Y-112246646D01*
X158963520Y-112239536D01*
X159011919Y-112274234D01*
X158980977Y-112307356D01*
X158874868Y-112314215D01*
X158787717Y-112280842D01*
X158718354Y-112157700D01*
X158714517Y-112120806D01*
X158741320Y-112040535D01*
X158855404Y-112020650D01*
X158959634Y-112034761D01*
G37*
G36*
X158959634Y-114836679D02*
G01*
X159011919Y-114877777D01*
X158987224Y-114904545D01*
X158890096Y-114901129D01*
X158801988Y-114898209D01*
X158768274Y-114974847D01*
X158791491Y-115045133D01*
X158890096Y-115048565D01*
X158963520Y-115041455D01*
X159011919Y-115076153D01*
X158980977Y-115109274D01*
X158874868Y-115116133D01*
X158787717Y-115082760D01*
X158718354Y-114959619D01*
X158714517Y-114922725D01*
X158741320Y-114842453D01*
X158855404Y-114822569D01*
X158959634Y-114836679D01*
G37*
G36*
X158959792Y-103751840D02*
G01*
X159011919Y-103797628D01*
X158989075Y-103833032D01*
X158890096Y-103858540D01*
X158861332Y-103859722D01*
X158777176Y-103894055D01*
X158793049Y-103951342D01*
X158905324Y-103998286D01*
X158968005Y-104011636D01*
X158979431Y-104024675D01*
X158874868Y-104032979D01*
X158813638Y-104033575D01*
X158727731Y-103999479D01*
X158707362Y-103888995D01*
X158708005Y-103860933D01*
X158743726Y-103761875D01*
X158859640Y-103736717D01*
X158959792Y-103751840D01*
G37*
G36*
X158918479Y-116246872D02*
G01*
X159017933Y-116281459D01*
X159080036Y-116327131D01*
X159033481Y-116379358D01*
X158874868Y-116454298D01*
X158755124Y-116489601D01*
X158707362Y-116465867D01*
X158717660Y-116438460D01*
X158798729Y-116406262D01*
X158840761Y-116399390D01*
X158890096Y-116345350D01*
X158879788Y-116317329D01*
X158798729Y-116284439D01*
X158756828Y-116278631D01*
X158707362Y-116232616D01*
X158710375Y-116224836D01*
X158781806Y-116216498D01*
X158918479Y-116246872D01*
G37*
G36*
X158865110Y-108868612D02*
G01*
X158938652Y-108879807D01*
X158905324Y-108896251D01*
X158820044Y-108930799D01*
X158768274Y-109005542D01*
X158798235Y-109062894D01*
X158905324Y-109114833D01*
X158968005Y-109128183D01*
X158979431Y-109141221D01*
X158874868Y-109149525D01*
X158850956Y-109150340D01*
X158738460Y-109127495D01*
X158707362Y-109041074D01*
X158695089Y-108972757D01*
X158631223Y-108893604D01*
X158619767Y-108885523D01*
X158666158Y-108870646D01*
X158798729Y-108866368D01*
X158865110Y-108868612D01*
G37*
G36*
X158865110Y-113985159D02*
G01*
X158938652Y-113996354D01*
X158905324Y-114012798D01*
X158820044Y-114047345D01*
X158768274Y-114122089D01*
X158798235Y-114179441D01*
X158905324Y-114231380D01*
X158968005Y-114244729D01*
X158979431Y-114257768D01*
X158874868Y-114266072D01*
X158850956Y-114266887D01*
X158738460Y-114244042D01*
X158707362Y-114157620D01*
X158695089Y-114089304D01*
X158631223Y-114010151D01*
X158619767Y-114002069D01*
X158666158Y-113987193D01*
X158798729Y-113982915D01*
X158865110Y-113985159D01*
G37*
G36*
X158931685Y-102426129D02*
G01*
X158992416Y-102462251D01*
X158966235Y-102500204D01*
X158935904Y-102518717D01*
X158890096Y-102614935D01*
X158879542Y-102655072D01*
X158798729Y-102701226D01*
X158756641Y-102693927D01*
X158707362Y-102636720D01*
X158712145Y-102614688D01*
X158768274Y-102609859D01*
X158800534Y-102614737D01*
X158829185Y-102548947D01*
X158817849Y-102497898D01*
X158753046Y-102493377D01*
X158708036Y-102511405D01*
X158748951Y-102458428D01*
X158800021Y-102423473D01*
X158931685Y-102426129D01*
G37*
G36*
X158931685Y-106750829D02*
G01*
X158992416Y-106786952D01*
X158966235Y-106824904D01*
X158935904Y-106843417D01*
X158890096Y-106939635D01*
X158879542Y-106979773D01*
X158798729Y-107025926D01*
X158756641Y-107018627D01*
X158707362Y-106961420D01*
X158712145Y-106939388D01*
X158768274Y-106934559D01*
X158800534Y-106939437D01*
X158829185Y-106873648D01*
X158817849Y-106822598D01*
X158753046Y-106818078D01*
X158708036Y-106836105D01*
X158748951Y-106783129D01*
X158800021Y-106748173D01*
X158931685Y-106750829D01*
G37*
G36*
X158961100Y-110814015D02*
G01*
X159011919Y-110866931D01*
X159007136Y-110888962D01*
X158951007Y-110893792D01*
X158913544Y-110897341D01*
X158890096Y-110981564D01*
X158875117Y-111063648D01*
X158812495Y-111104580D01*
X158732001Y-111036658D01*
X158717181Y-111002618D01*
X158758862Y-111009798D01*
X158798560Y-111019630D01*
X158829185Y-110954703D01*
X158818694Y-110905550D01*
X158758862Y-110899608D01*
X158724822Y-110914428D01*
X158732001Y-110872747D01*
X158773962Y-110834982D01*
X158893691Y-110802425D01*
X158961100Y-110814015D01*
G37*
G36*
X158995166Y-107834385D02*
G01*
X159004158Y-107898268D01*
X158935780Y-107960337D01*
X158895855Y-107995061D01*
X158951007Y-108055847D01*
X158982001Y-108080313D01*
X158982472Y-108112549D01*
X158874868Y-108121396D01*
X158828878Y-108120269D01*
X158733085Y-108086590D01*
X158711643Y-107985278D01*
X158714232Y-107925402D01*
X158726958Y-107889335D01*
X158762321Y-107966789D01*
X158785585Y-108023072D01*
X158813727Y-108044206D01*
X158843705Y-107951561D01*
X158879595Y-107868985D01*
X158945305Y-107817772D01*
X158995166Y-107834385D01*
G37*
G36*
X158824866Y-105203439D02*
G01*
X158958166Y-105219450D01*
X159011919Y-105253796D01*
X158987224Y-105280564D01*
X158890096Y-105277148D01*
X158801988Y-105274228D01*
X158768274Y-105350866D01*
X158791491Y-105421152D01*
X158890096Y-105424584D01*
X158963410Y-105416603D01*
X159011919Y-105447935D01*
X158974141Y-105484233D01*
X158859640Y-105503144D01*
X158745870Y-105478731D01*
X158707362Y-105386397D01*
X158695089Y-105318081D01*
X158631223Y-105238928D01*
X158619898Y-105231804D01*
X158657585Y-105213180D01*
X158783501Y-105203396D01*
X158824866Y-105203439D01*
G37*
G36*
X159009526Y-103384055D02*
G01*
X158966235Y-103411590D01*
X158934460Y-103432663D01*
X158890096Y-103532198D01*
X158898074Y-103571603D01*
X158951007Y-103584439D01*
X158974852Y-103575220D01*
X159011919Y-103615536D01*
X158980845Y-103654588D01*
X158874868Y-103664815D01*
X158776417Y-103623135D01*
X158723640Y-103493072D01*
X158718773Y-103432141D01*
X158724733Y-103390312D01*
X158758672Y-103458163D01*
X158775108Y-103495846D01*
X158811251Y-103539014D01*
X158847077Y-103473391D01*
X158878964Y-103420932D01*
X158964324Y-103376058D01*
X159009526Y-103384055D01*
G37*
G36*
X158963754Y-107495666D02*
G01*
X159011919Y-107545355D01*
X159007826Y-107555752D01*
X158951007Y-107543672D01*
X158913544Y-107547221D01*
X158890096Y-107631444D01*
X158873057Y-107705730D01*
X158798729Y-107756861D01*
X158756641Y-107749562D01*
X158707362Y-107692355D01*
X158712145Y-107670324D01*
X158768274Y-107665494D01*
X158800534Y-107670373D01*
X158829185Y-107604583D01*
X158817849Y-107553533D01*
X158753046Y-107549013D01*
X158708036Y-107567040D01*
X158748951Y-107514064D01*
X158797441Y-107480218D01*
X158916457Y-107472761D01*
X158963754Y-107495666D01*
G37*
G36*
X158963754Y-113282236D02*
G01*
X159011919Y-113331925D01*
X159007826Y-113342323D01*
X158951007Y-113330242D01*
X158913544Y-113333791D01*
X158890096Y-113418014D01*
X158873057Y-113492301D01*
X158798729Y-113543432D01*
X158756641Y-113536133D01*
X158707362Y-113478926D01*
X158712145Y-113456894D01*
X158768274Y-113452065D01*
X158800534Y-113456943D01*
X158829185Y-113391154D01*
X158817849Y-113340104D01*
X158753046Y-113335584D01*
X158708036Y-113353611D01*
X158748951Y-113300635D01*
X158797441Y-113266789D01*
X158916457Y-113259331D01*
X158963754Y-113282236D01*
G37*
G36*
X160351967Y-88454505D02*
G01*
X160351952Y-88545488D01*
X160351041Y-89076092D01*
X160348351Y-89497909D01*
X160343382Y-89822245D01*
X160335632Y-90060410D01*
X160324601Y-90223710D01*
X160309788Y-90323454D01*
X160290693Y-90370950D01*
X160266814Y-90377506D01*
X160234108Y-90362015D01*
X160100241Y-90295455D01*
X159872783Y-90181031D01*
X159560710Y-90023299D01*
X159173002Y-89826816D01*
X158718638Y-89596136D01*
X158206594Y-89335816D01*
X157645851Y-89050412D01*
X157045385Y-88744479D01*
X156414176Y-88422573D01*
X152646691Y-86500316D01*
X156499329Y-86499572D01*
X160351967Y-86498828D01*
X160351967Y-88454505D01*
G37*
G36*
X158977971Y-115824729D02*
G01*
X159011919Y-115922566D01*
X159025123Y-115995935D01*
X159082241Y-116004522D01*
X159116281Y-115989701D01*
X159109102Y-116031383D01*
X159029361Y-116079898D01*
X158886501Y-116101705D01*
X158812824Y-116098471D01*
X158727573Y-116059025D01*
X158707362Y-115949427D01*
X158768274Y-115949427D01*
X158778886Y-115992036D01*
X158859640Y-116040794D01*
X158902250Y-116030181D01*
X158951007Y-115949427D01*
X158940395Y-115906818D01*
X158859640Y-115858060D01*
X158817031Y-115868673D01*
X158768274Y-115949427D01*
X158707362Y-115949427D01*
X158708005Y-115921365D01*
X158743726Y-115822307D01*
X158859640Y-115797149D01*
X158977971Y-115824729D01*
G37*
G36*
X158901418Y-100146548D02*
G01*
X158979548Y-100164359D01*
X158951517Y-100202260D01*
X158894825Y-100259536D01*
X158936289Y-100335332D01*
X158937901Y-100336953D01*
X159002043Y-100427920D01*
X159001324Y-100483036D01*
X158935852Y-100468598D01*
X158878438Y-100443831D01*
X158737891Y-100419320D01*
X158658057Y-100395604D01*
X158604635Y-100295230D01*
X158646451Y-100295230D01*
X158652900Y-100337208D01*
X158703768Y-100386597D01*
X158737503Y-100380309D01*
X158799240Y-100318744D01*
X158786921Y-100242815D01*
X158767956Y-100226277D01*
X158683859Y-100211225D01*
X158646451Y-100295230D01*
X158604635Y-100295230D01*
X158596531Y-100280003D01*
X158596421Y-100279221D01*
X158598308Y-100190166D01*
X158658980Y-100151713D01*
X158683859Y-100150421D01*
X158809721Y-100143885D01*
X158901418Y-100146548D01*
G37*
G36*
X158863974Y-104352543D02*
G01*
X158963404Y-104365913D01*
X158966235Y-104386170D01*
X158958069Y-104389921D01*
X158900507Y-104460720D01*
X158896652Y-104547270D01*
X158951007Y-104589475D01*
X158969790Y-104592821D01*
X159011919Y-104657845D01*
X158997306Y-104693526D01*
X158925975Y-104654887D01*
X158863240Y-104617420D01*
X158798729Y-104650386D01*
X158767244Y-104677839D01*
X158689286Y-104660806D01*
X158617224Y-104578003D01*
X158596389Y-104500535D01*
X158659459Y-104500535D01*
X158671822Y-104574239D01*
X158696685Y-104584176D01*
X158774596Y-104546606D01*
X158803426Y-104507656D01*
X158777790Y-104443078D01*
X158714332Y-104440765D01*
X158659459Y-104500535D01*
X158596389Y-104500535D01*
X158585540Y-104460194D01*
X158594950Y-104404255D01*
X158660036Y-104359358D01*
X158714332Y-104356282D01*
X158813957Y-104350639D01*
X158863974Y-104352543D01*
G37*
G36*
X154366372Y-91405397D02*
G01*
X154670587Y-91882772D01*
X155039899Y-92463352D01*
X155385327Y-93007547D01*
X155701653Y-93507076D01*
X155983658Y-93953659D01*
X156226124Y-94339014D01*
X156423832Y-94654861D01*
X156571565Y-94892919D01*
X156664103Y-95044907D01*
X156696228Y-95102545D01*
X156694605Y-95104281D01*
X156617225Y-95114376D01*
X156433430Y-95123633D01*
X156156434Y-95131792D01*
X155799453Y-95138592D01*
X155375702Y-95143771D01*
X154898396Y-95147070D01*
X154380750Y-95148228D01*
X153808445Y-95147508D01*
X153289517Y-95144883D01*
X152874616Y-95140045D01*
X152554444Y-95132691D01*
X152319704Y-95122521D01*
X152161097Y-95109231D01*
X152069325Y-95092521D01*
X152035091Y-95072089D01*
X152030388Y-95006860D01*
X152026136Y-94829368D01*
X152022714Y-94551127D01*
X152020159Y-94183011D01*
X152018511Y-93735896D01*
X152017810Y-93220657D01*
X152018094Y-92648168D01*
X152019403Y-92029304D01*
X152021775Y-91374941D01*
X152037578Y-87753933D01*
X154366372Y-91405397D01*
G37*
G36*
X152390939Y-87088166D02*
G01*
X152543652Y-87163682D01*
X152787906Y-87286381D01*
X153115233Y-87451956D01*
X153517167Y-87656100D01*
X153985241Y-87894508D01*
X154510989Y-88162870D01*
X155085944Y-88456882D01*
X155701639Y-88772235D01*
X156349607Y-89104623D01*
X160350605Y-91158540D01*
X160351286Y-95478164D01*
X160351191Y-96044464D01*
X160350567Y-96728188D01*
X160349422Y-97366955D01*
X160347801Y-97951155D01*
X160345752Y-98471180D01*
X160343319Y-98917423D01*
X160340550Y-99280275D01*
X160337491Y-99550129D01*
X160334186Y-99717376D01*
X160330683Y-99772409D01*
X160322731Y-99760306D01*
X160261299Y-99662527D01*
X160144511Y-99474994D01*
X159978353Y-99207369D01*
X159768811Y-98869315D01*
X159521873Y-98470491D01*
X159243524Y-98020560D01*
X158939751Y-97529183D01*
X158616541Y-97006022D01*
X157975647Y-95972089D01*
X157202160Y-94732675D01*
X156391737Y-93442121D01*
X155561031Y-92126787D01*
X154726694Y-90813034D01*
X153905381Y-89527222D01*
X153113743Y-88295710D01*
X152965234Y-88064960D01*
X152760980Y-87745687D01*
X152587200Y-87471744D01*
X152452850Y-87257352D01*
X152366880Y-87116729D01*
X152338246Y-87064096D01*
X152390939Y-87088166D01*
G37*
G36*
X154534940Y-104589475D02*
G01*
X155352670Y-104589475D01*
X157489137Y-104589475D01*
X157489137Y-105046310D01*
X157489137Y-105503144D01*
X156666835Y-105503144D01*
X155844533Y-105503144D01*
X155844533Y-105806004D01*
X155844533Y-106108864D01*
X156663680Y-106734901D01*
X157482827Y-107360938D01*
X157485982Y-107927962D01*
X157485582Y-108089167D01*
X157476467Y-108314495D01*
X157455379Y-108432639D01*
X157421161Y-108452974D01*
X157364859Y-108411282D01*
X157226748Y-108303572D01*
X157025267Y-108144020D01*
X156776955Y-107945729D01*
X156498350Y-107721803D01*
X155643515Y-107032643D01*
X155466742Y-107299522D01*
X155403398Y-107387055D01*
X155144571Y-107633996D01*
X154840743Y-107794345D01*
X154513714Y-107868120D01*
X154185283Y-107855338D01*
X153877250Y-107756019D01*
X153611415Y-107570179D01*
X153409576Y-107297837D01*
X153392628Y-107264613D01*
X153343856Y-107159589D01*
X153307738Y-107052954D01*
X153281961Y-106924672D01*
X153264212Y-106754710D01*
X153252178Y-106523034D01*
X153243546Y-106209610D01*
X153236004Y-105794404D01*
X153231218Y-105503144D01*
X153834461Y-105503144D01*
X153834461Y-105804702D01*
X153836482Y-105887847D01*
X153859820Y-106159538D01*
X153900894Y-106416029D01*
X153941843Y-106564258D01*
X154061056Y-106770907D01*
X154246869Y-106883345D01*
X154515766Y-106914946D01*
X154579040Y-106912131D01*
X154844907Y-106841575D01*
X155035810Y-106675258D01*
X155154379Y-106411106D01*
X155173521Y-106328076D01*
X155212663Y-106073889D01*
X155230518Y-105822928D01*
X155235420Y-105503144D01*
X154534940Y-105503144D01*
X153834461Y-105503144D01*
X153231218Y-105503144D01*
X153216204Y-104589475D01*
X154534940Y-104589475D01*
G37*
G36*
X154525893Y-100203863D02*
G01*
X155352670Y-100203863D01*
X157489137Y-100203863D01*
X157489137Y-100660698D01*
X157489137Y-101117533D01*
X156666835Y-101117533D01*
X155844533Y-101117533D01*
X155844533Y-101419339D01*
X155844533Y-101721146D01*
X156641873Y-102342344D01*
X156832095Y-102491990D01*
X157077465Y-102689767D01*
X157276172Y-102855621D01*
X157411518Y-102975521D01*
X157466803Y-103035437D01*
X157470634Y-103051318D01*
X157479490Y-103172080D01*
X157481648Y-103370617D01*
X157476536Y-103613073D01*
X157458681Y-104118813D01*
X156550379Y-103384009D01*
X155642076Y-102649204D01*
X155471640Y-102903632D01*
X155372830Y-103038906D01*
X155120850Y-103280053D01*
X154822224Y-103421651D01*
X154450236Y-103478744D01*
X154132328Y-103467789D01*
X153835058Y-103378897D01*
X153601004Y-103198423D01*
X153411660Y-102916346D01*
X153392631Y-102879016D01*
X153343698Y-102773486D01*
X153307516Y-102666577D01*
X153281746Y-102538216D01*
X153264048Y-102368329D01*
X153252084Y-102136845D01*
X153243516Y-101823690D01*
X153236004Y-101408792D01*
X153231218Y-101117533D01*
X153816366Y-101117533D01*
X153852779Y-101633509D01*
X153858649Y-101708106D01*
X153886699Y-101956383D01*
X153921922Y-102159121D01*
X153958096Y-102278234D01*
X154014012Y-102355657D01*
X154196919Y-102481021D01*
X154432523Y-102540561D01*
X154679773Y-102520497D01*
X154744178Y-102501374D01*
X154948646Y-102397299D01*
X155082116Y-102229314D01*
X155169493Y-101969390D01*
X155180899Y-101915225D01*
X155218155Y-101657137D01*
X155233931Y-101406861D01*
X155235420Y-101117533D01*
X154525893Y-101117533D01*
X153816366Y-101117533D01*
X153231218Y-101117533D01*
X153216204Y-100203863D01*
X154525893Y-100203863D01*
G37*
G36*
X157333322Y-109025350D02*
G01*
X157358125Y-109102864D01*
X157431156Y-109357433D01*
X157487568Y-109588779D01*
X157498553Y-109654785D01*
X157518337Y-109876211D01*
X157528212Y-110155334D01*
X157526165Y-110447378D01*
X157524664Y-110493835D01*
X157508544Y-110786029D01*
X157478222Y-111002947D01*
X157425577Y-111185608D01*
X157342487Y-111375031D01*
X157261034Y-111520453D01*
X157108219Y-111735493D01*
X156957037Y-111894785D01*
X156709959Y-112051478D01*
X156371649Y-112153711D01*
X156023387Y-112154381D01*
X155691945Y-112054192D01*
X155404094Y-111853849D01*
X155329633Y-111776056D01*
X155224944Y-111636311D01*
X155135319Y-111463543D01*
X155051954Y-111235972D01*
X154966047Y-110931817D01*
X154868797Y-110529297D01*
X154826294Y-110357721D01*
X154725934Y-110053140D01*
X154612025Y-109851647D01*
X154475734Y-109740265D01*
X154308225Y-109706022D01*
X154289161Y-109706465D01*
X154090932Y-109771540D01*
X153935114Y-109935381D01*
X153829145Y-110181325D01*
X153780459Y-110492705D01*
X153796493Y-110852858D01*
X153838805Y-111036772D01*
X153924725Y-111287434D01*
X154032539Y-111533360D01*
X154042274Y-111552847D01*
X154140511Y-111750204D01*
X154215145Y-111901363D01*
X154250688Y-111974967D01*
X154251172Y-111976972D01*
X154197224Y-111999054D01*
X154052825Y-112014705D01*
X153846926Y-112020650D01*
X153752856Y-112020397D01*
X153565828Y-112010376D01*
X153443562Y-111969422D01*
X153362829Y-111875639D01*
X153300396Y-111707128D01*
X153233032Y-111441993D01*
X153147920Y-110963014D01*
X153128592Y-110441348D01*
X153189627Y-109963221D01*
X153327599Y-109543239D01*
X153539082Y-109196009D01*
X153820651Y-108936139D01*
X154004165Y-108836867D01*
X154336750Y-108754597D01*
X154673760Y-108776704D01*
X154992106Y-108896676D01*
X155268699Y-109108004D01*
X155480447Y-109404175D01*
X155523230Y-109504525D01*
X155597662Y-109722963D01*
X155678253Y-109998004D01*
X155753740Y-110293011D01*
X155837033Y-110612529D01*
X155938414Y-110901330D01*
X156046912Y-111091784D01*
X156170209Y-111196680D01*
X156315989Y-111228804D01*
X156365725Y-111226827D01*
X156587984Y-111153831D01*
X156749007Y-110977769D01*
X156846965Y-110701566D01*
X156880024Y-110328146D01*
X156865882Y-110069599D01*
X156748970Y-109556695D01*
X156516689Y-109079566D01*
X156439323Y-108954980D01*
X156361828Y-108822516D01*
X156331823Y-108759782D01*
X156333459Y-108757368D01*
X156406601Y-108744216D01*
X156566680Y-108734948D01*
X156783762Y-108731441D01*
X157235701Y-108731441D01*
X157333322Y-109025350D01*
G37*
D13*
X122050000Y-120590000D02*
X144970000Y-120590000D01*
X122050000Y-125790000D02*
X122050000Y-120590000D01*
X122050000Y-125790000D02*
X147570000Y-125790000D01*
X144970000Y-123190000D02*
X144970000Y-120590000D01*
X147570000Y-120590000D02*
X146240000Y-120590000D01*
X147570000Y-121920000D02*
X147570000Y-120590000D01*
X147570000Y-123190000D02*
X144970000Y-123190000D01*
X147570000Y-125790000D02*
X147570000Y-123190000D01*
X77410000Y-120590000D02*
X118110000Y-120590000D01*
X77410000Y-125790000D02*
X77410000Y-120590000D01*
X77410000Y-125790000D02*
X120710000Y-125790000D01*
X118110000Y-123190000D02*
X118110000Y-120590000D01*
X120710000Y-120590000D02*
X119380000Y-120590000D01*
X120710000Y-121920000D02*
X120710000Y-120590000D01*
X120710000Y-123190000D02*
X118110000Y-123190000D01*
X120710000Y-125790000D02*
X120710000Y-123190000D01*
X117970000Y-74870000D02*
X135810000Y-74870000D01*
X117970000Y-80070000D02*
X117970000Y-74870000D01*
X117970000Y-80070000D02*
X138410000Y-80070000D01*
X135810000Y-77470000D02*
X135810000Y-74870000D01*
X138410000Y-74870000D02*
X137080000Y-74870000D01*
X138410000Y-76200000D02*
X138410000Y-74870000D01*
X138410000Y-77470000D02*
X135810000Y-77470000D01*
X138410000Y-80070000D02*
X138410000Y-77470000D01*
X77410000Y-74870000D02*
X113030000Y-74870000D01*
X77410000Y-80070000D02*
X77410000Y-74870000D01*
X77410000Y-80070000D02*
X115630000Y-80070000D01*
X113030000Y-77470000D02*
X113030000Y-74870000D01*
X115630000Y-74870000D02*
X114300000Y-74870000D01*
X115630000Y-76200000D02*
X115630000Y-74870000D01*
X115630000Y-77470000D02*
X113030000Y-77470000D01*
X115630000Y-80070000D02*
X115630000Y-77470000D01*
%LPC*%
D14*
X110998000Y-130566000D03*
D15*
X113538000Y-130566000D03*
X116078000Y-130566000D03*
D16*
X132080000Y-87386000D03*
D17*
X142240000Y-87386000D03*
D18*
X126492000Y-65675000D03*
D19*
X127762000Y-65675000D03*
X129032000Y-65675000D03*
D16*
X96520000Y-91506000D03*
D17*
X106680000Y-91506000D03*
D18*
X148082000Y-69485000D03*
D19*
X146812000Y-69485000D03*
X145542000Y-69485000D03*
D14*
X91440000Y-88783000D03*
D15*
X91440000Y-91323000D03*
X91440000Y-93863000D03*
X91440000Y-96403000D03*
D16*
X96520000Y-107706000D03*
D17*
X106680000Y-107706000D03*
D14*
X97790000Y-130561000D03*
D15*
X97790000Y-133101000D03*
D14*
X120919000Y-134376000D03*
D15*
X123459000Y-134376000D03*
X125999000Y-134376000D03*
D16*
X132080000Y-103586000D03*
D17*
X142240000Y-103586000D03*
D14*
X162560000Y-106563000D03*
D15*
X162560000Y-109103000D03*
X162560000Y-111643000D03*
X162560000Y-114183000D03*
D14*
X82550000Y-130561000D03*
D15*
X82550000Y-133101000D03*
D14*
X78740000Y-130566000D03*
D15*
X78740000Y-133106000D03*
D18*
X135382000Y-69485000D03*
D19*
X134112000Y-69485000D03*
X132842000Y-69485000D03*
D16*
X96520000Y-111756000D03*
D17*
X106680000Y-111756000D03*
D16*
X132080000Y-95486000D03*
D17*
X142240000Y-95486000D03*
D14*
X149860000Y-88783000D03*
D15*
X149860000Y-91323000D03*
X149860000Y-93863000D03*
X149860000Y-96403000D03*
X149860000Y-98943000D03*
X149860000Y-101483000D03*
X149860000Y-104023000D03*
X149860000Y-106563000D03*
X149860000Y-109103000D03*
X149860000Y-111643000D03*
X149860000Y-114183000D03*
D14*
X90170000Y-130561000D03*
D15*
X90170000Y-133101000D03*
D18*
X145542000Y-65675000D03*
D19*
X146812000Y-65675000D03*
X148082000Y-65675000D03*
D18*
X132842000Y-65675000D03*
D19*
X134112000Y-65675000D03*
X135382000Y-65675000D03*
D18*
X129032000Y-69485000D03*
D19*
X127762000Y-69485000D03*
X126492000Y-69485000D03*
D14*
X120904000Y-130566000D03*
D15*
X123444000Y-130566000D03*
X125984000Y-130566000D03*
D14*
X86360000Y-130566000D03*
D15*
X86360000Y-133106000D03*
D16*
X132080000Y-115736000D03*
D17*
X142240000Y-115736000D03*
D14*
X165100000Y-124470000D03*
D15*
X162560000Y-124470000D03*
X160020000Y-124470000D03*
X157480000Y-124470000D03*
D16*
X96520000Y-87456000D03*
D17*
X106680000Y-87456000D03*
D18*
X141732000Y-69485000D03*
D19*
X140462000Y-69485000D03*
X139192000Y-69485000D03*
D16*
X132080000Y-99536000D03*
D17*
X142240000Y-99536000D03*
D14*
X114300000Y-88783000D03*
D15*
X114300000Y-91323000D03*
X114300000Y-93863000D03*
X114300000Y-96403000D03*
X114300000Y-98943000D03*
X114300000Y-101483000D03*
X114300000Y-104023000D03*
X114300000Y-106563000D03*
X114300000Y-109103000D03*
X114300000Y-111643000D03*
X114300000Y-114183000D03*
D14*
X86360000Y-66040000D03*
D15*
X88900000Y-66040000D03*
X91440000Y-66040000D03*
X93980000Y-66040000D03*
D14*
X165100000Y-120594000D03*
D15*
X162560000Y-120594000D03*
X160020000Y-120594000D03*
X157480000Y-120594000D03*
D20*
X143637000Y-132471000D03*
D21*
X136437000Y-132471000D03*
D16*
X96520000Y-99606000D03*
D17*
X106680000Y-99606000D03*
D14*
X99060000Y-70690000D03*
D15*
X101600000Y-70690000D03*
X104140000Y-70690000D03*
X106680000Y-70690000D03*
D20*
X162560000Y-69225000D03*
D22*
X162560000Y-76425000D03*
D14*
X127000000Y-106563000D03*
D15*
X127000000Y-109103000D03*
X127000000Y-111643000D03*
X127000000Y-114183000D03*
D14*
X101600000Y-130561000D03*
D15*
X101600000Y-133101000D03*
D14*
X162560000Y-88783000D03*
D15*
X162560000Y-91323000D03*
X162560000Y-93863000D03*
X162560000Y-96403000D03*
D14*
X91440000Y-106563000D03*
D15*
X91440000Y-109103000D03*
X91440000Y-111643000D03*
X91440000Y-114183000D03*
D14*
X165100000Y-137170000D03*
D15*
X165100000Y-134630000D03*
X162560000Y-137170000D03*
X162560000Y-134630000D03*
X160020000Y-137170000D03*
X160020000Y-134630000D03*
X157480000Y-137170000D03*
X157480000Y-134630000D03*
X154940000Y-137170000D03*
X154940000Y-134630000D03*
X152400000Y-137170000D03*
X152400000Y-134630000D03*
D14*
X165100000Y-130820000D03*
D15*
X165100000Y-128280000D03*
X162560000Y-130820000D03*
X162560000Y-128280000D03*
X160020000Y-130820000D03*
X160020000Y-128280000D03*
X157480000Y-130820000D03*
X157480000Y-128280000D03*
X154940000Y-130820000D03*
X154940000Y-128280000D03*
X152400000Y-130820000D03*
X152400000Y-128280000D03*
D16*
X96520000Y-115806000D03*
D17*
X106680000Y-115806000D03*
D18*
X139192000Y-65675000D03*
D19*
X140462000Y-65675000D03*
X141732000Y-65675000D03*
D14*
X105410000Y-130561000D03*
D15*
X105410000Y-133101000D03*
D16*
X96520000Y-103656000D03*
D17*
X106680000Y-103656000D03*
D16*
X96520000Y-95556000D03*
D17*
X106680000Y-95556000D03*
D16*
X132080000Y-111686000D03*
D17*
X142240000Y-111686000D03*
D14*
X86360000Y-70690000D03*
D15*
X88900000Y-70690000D03*
X91440000Y-70690000D03*
X93980000Y-70690000D03*
D14*
X110998000Y-134376000D03*
D15*
X113538000Y-134376000D03*
X116078000Y-134376000D03*
D16*
X132080000Y-91436000D03*
D17*
X142240000Y-91436000D03*
D14*
X93980000Y-130561000D03*
D15*
X93980000Y-133101000D03*
D16*
X132080000Y-107636000D03*
D17*
X142240000Y-107636000D03*
D14*
X78740000Y-88783000D03*
D15*
X78740000Y-91323000D03*
X78740000Y-93863000D03*
X78740000Y-96403000D03*
X78740000Y-98943000D03*
X78740000Y-101483000D03*
X78740000Y-104023000D03*
X78740000Y-106563000D03*
X78740000Y-109103000D03*
X78740000Y-111643000D03*
X78740000Y-114183000D03*
D14*
X99060000Y-66040000D03*
D15*
X101600000Y-66040000D03*
X104140000Y-66040000D03*
X106680000Y-66040000D03*
D14*
X127000000Y-88783000D03*
D15*
X127000000Y-91323000D03*
X127000000Y-93863000D03*
X127000000Y-96403000D03*
D14*
X146240000Y-121920000D03*
D15*
X146240000Y-124460000D03*
X143700000Y-121920000D03*
X143700000Y-124460000D03*
X141160000Y-121920000D03*
X141160000Y-124460000D03*
X138620000Y-121920000D03*
X138620000Y-124460000D03*
X136080000Y-121920000D03*
X136080000Y-124460000D03*
X133540000Y-121920000D03*
X133540000Y-124460000D03*
X131000000Y-121920000D03*
X131000000Y-124460000D03*
X128460000Y-121920000D03*
X128460000Y-124460000D03*
X125920000Y-121920000D03*
X125920000Y-124460000D03*
X123380000Y-121920000D03*
X123380000Y-124460000D03*
D14*
X119380000Y-121920000D03*
D15*
X119380000Y-124460000D03*
X116840000Y-121920000D03*
X116840000Y-124460000D03*
X114300000Y-121920000D03*
X114300000Y-124460000D03*
X111760000Y-121920000D03*
X111760000Y-124460000D03*
X109220000Y-121920000D03*
X109220000Y-124460000D03*
X106680000Y-121920000D03*
X106680000Y-124460000D03*
X104140000Y-121920000D03*
X104140000Y-124460000D03*
X101600000Y-121920000D03*
X101600000Y-124460000D03*
X99060000Y-121920000D03*
X99060000Y-124460000D03*
X96520000Y-121920000D03*
X96520000Y-124460000D03*
X93980000Y-121920000D03*
X93980000Y-124460000D03*
X91440000Y-121920000D03*
X91440000Y-124460000D03*
X88900000Y-121920000D03*
X88900000Y-124460000D03*
X86360000Y-121920000D03*
X86360000Y-124460000D03*
X83820000Y-121920000D03*
X83820000Y-124460000D03*
X81280000Y-121920000D03*
X81280000Y-124460000D03*
X78740000Y-121920000D03*
X78740000Y-124460000D03*
D14*
X137080000Y-76200000D03*
D15*
X137080000Y-78740000D03*
X134540000Y-76200000D03*
X134540000Y-78740000D03*
X132000000Y-76200000D03*
X132000000Y-78740000D03*
X129460000Y-76200000D03*
X129460000Y-78740000D03*
X126920000Y-76200000D03*
X126920000Y-78740000D03*
X124380000Y-76200000D03*
X124380000Y-78740000D03*
X121840000Y-76200000D03*
X121840000Y-78740000D03*
X119300000Y-76200000D03*
X119300000Y-78740000D03*
D14*
X114300000Y-76200000D03*
D15*
X114300000Y-78740000D03*
X111760000Y-76200000D03*
X111760000Y-78740000D03*
X109220000Y-76200000D03*
X109220000Y-78740000D03*
X106680000Y-76200000D03*
X106680000Y-78740000D03*
X104140000Y-76200000D03*
X104140000Y-78740000D03*
X101600000Y-76200000D03*
X101600000Y-78740000D03*
X99060000Y-76200000D03*
X99060000Y-78740000D03*
X96520000Y-76200000D03*
X96520000Y-78740000D03*
X93980000Y-76200000D03*
X93980000Y-78740000D03*
X91440000Y-76200000D03*
X91440000Y-78740000D03*
X88900000Y-76200000D03*
X88900000Y-78740000D03*
X86360000Y-76200000D03*
X86360000Y-78740000D03*
X83820000Y-76200000D03*
X83820000Y-78740000D03*
X81280000Y-76200000D03*
X81280000Y-78740000D03*
X78740000Y-76200000D03*
X78740000Y-78740000D03*
%LPD*%
M02*
