M48
; DRILL file {KiCad 8.0.3} date 2025-02-18T22:17:27+0900
; FORMAT={-:-/ absolute / metric / decimal}
; #@! TF.CreationDate,2025-02-18T22:17:27+09:00
; #@! TF.GenerationSoftware,Kicad,Pcbnew,8.0.3
; #@! TF.FileFunction,Plated,1,2,PTH
FMAT,2
METRIC
; #@! TA.AperFunction,Plated,PTH,ViaDrill
T1C0.400
; #@! TA.AperFunction,Plated,PTH,ComponentDrill
T2C0.550
; #@! TA.AperFunction,Plated,PTH,ComponentDrill
T3C0.800
; #@! TA.AperFunction,Plated,PTH,ComponentDrill
T4C1.000
; #@! TA.AperFunction,Plated,PTH,ComponentDrill
T5C4.550
%
G90
G05
T1
X78.74Y-84.846
X81.28Y-67.066
X81.28Y-72.146
X81.28Y-115.326
X82.457Y-102.514
X86.36Y-89.926
X86.36Y-115.326
X88.9Y-95.006
X88.9Y-100.086
X88.9Y-105.166
X88.9Y-116.596
X90.424Y-118.628
X90.678Y-120.115
X90.691Y-82.554
X92.334Y-101.58
X93.472Y-113.458
X93.472Y-118.12
X93.539Y-128.33
X93.726Y-119.644
X94.429Y-117.148
X95.16Y-128.37
X95.383Y-77.337
X95.504Y-118.12
X96.266Y-126.248
X97.028Y-127.264
X99.06Y-95.006
X99.822Y-127.264
X100.33Y-125.523
X101.6Y-127.363
X101.93Y-88.583
X105.486Y-72.242
X107.933Y-71.805
X107.95Y-131.743
X108.712Y-136.408
X110.438Y-99.358
X110.489Y-127.363
X110.49Y-115.326
X111.76Y-67.066
X111.76Y-84.915
X111.76Y-107.706
X112.983Y-83.929
X115.824Y-119.136
X116.84Y-97.546
X116.84Y-107.706
X117.856Y-118.12
X118.11Y-88.656
X118.11Y-91.196
X119.38Y-67.066
X120.65Y-106.436
X120.755Y-83.288
X121.158Y-118.12
X121.412Y-113.802
X121.666Y-116.85
X121.666Y-119.898
X121.684Y-104.295
X122.411Y-92.631
X123.19Y-116.596
X123.668Y-80.117
X124.55Y-105.272
X125.73Y-119.898
X126.465Y-119.136
X128.524Y-119.136
X129.794Y-115.011
X130.423Y-100.147
X130.556Y-117.829
X134.395Y-119.014
X134.62Y-138.186
X137.922Y-71.892
X139.192Y-73.924
X139.306Y-109.103
X143.487Y-90.114
X144.78Y-103.896
X144.78Y-112.786
X147.32Y-95.006
X147.32Y-138.186
X147.549Y-88.554
X148.59Y-129.296
X149.86Y-74.686
X149.86Y-82.306
X149.86Y-122.946
X151.687Y-89.084
X157.48Y-67.066
X157.48Y-97.546
X157.48Y-107.762
X162.56Y-82.306
X163.803Y-86.143
X167.64Y-67.066
X167.64Y-82.306
X167.64Y-95.006
X167.64Y-105.166
X167.64Y-117.866
X167.64Y-126.756
X167.64Y-138.186
T2
X126.492Y-65.675
X126.492Y-69.485
X127.762Y-65.675
X127.762Y-69.485
X129.032Y-65.675
X129.032Y-69.485
X132.842Y-65.675
X132.842Y-69.485
X134.112Y-65.675
X134.112Y-69.485
X135.382Y-65.675
X135.382Y-69.485
X139.192Y-65.675
X139.192Y-69.485
X140.462Y-65.675
X140.462Y-69.485
X141.732Y-65.675
X141.732Y-69.485
X145.542Y-65.675
X145.542Y-69.485
X146.812Y-65.675
X146.812Y-69.485
X148.082Y-65.675
X148.082Y-69.485
T3
X96.52Y-87.456
X96.52Y-91.506
X96.52Y-95.556
X96.52Y-99.606
X96.52Y-103.656
X96.52Y-107.706
X96.52Y-111.756
X96.52Y-115.806
X106.68Y-87.456
X106.68Y-91.506
X106.68Y-95.556
X106.68Y-99.606
X106.68Y-103.656
X106.68Y-107.706
X106.68Y-111.756
X106.68Y-115.806
X132.08Y-87.386
X132.08Y-91.436
X132.08Y-95.486
X132.08Y-99.536
X132.08Y-103.586
X132.08Y-107.636
X132.08Y-111.686
X132.08Y-115.736
X142.24Y-87.386
X142.24Y-91.436
X142.24Y-95.486
X142.24Y-99.536
X142.24Y-103.586
X142.24Y-107.636
X142.24Y-111.686
X142.24Y-115.736
T4
X78.74Y-76.2
X78.74Y-78.74
X78.74Y-88.783
X78.74Y-91.323
X78.74Y-93.863
X78.74Y-96.403
X78.74Y-98.943
X78.74Y-101.483
X78.74Y-104.023
X78.74Y-106.563
X78.74Y-109.103
X78.74Y-111.643
X78.74Y-114.183
X78.74Y-121.92
X78.74Y-124.46
X78.74Y-130.566
X78.74Y-133.106
X81.28Y-76.2
X81.28Y-78.74
X81.28Y-121.92
X81.28Y-124.46
X82.55Y-130.561
X82.55Y-133.101
X83.82Y-76.2
X83.82Y-78.74
X83.82Y-121.92
X83.82Y-124.46
X86.36Y-66.04
X86.36Y-70.69
X86.36Y-76.2
X86.36Y-78.74
X86.36Y-121.92
X86.36Y-124.46
X86.36Y-130.566
X86.36Y-133.106
X88.9Y-66.04
X88.9Y-70.69
X88.9Y-76.2
X88.9Y-78.74
X88.9Y-121.92
X88.9Y-124.46
X90.17Y-130.561
X90.17Y-133.101
X91.44Y-66.04
X91.44Y-70.69
X91.44Y-76.2
X91.44Y-78.74
X91.44Y-88.783
X91.44Y-91.323
X91.44Y-93.863
X91.44Y-96.403
X91.44Y-106.563
X91.44Y-109.103
X91.44Y-111.643
X91.44Y-114.183
X91.44Y-121.92
X91.44Y-124.46
X93.98Y-66.04
X93.98Y-70.69
X93.98Y-76.2
X93.98Y-78.74
X93.98Y-121.92
X93.98Y-124.46
X93.98Y-130.561
X93.98Y-133.101
X96.52Y-76.2
X96.52Y-78.74
X96.52Y-121.92
X96.52Y-124.46
X97.79Y-130.561
X97.79Y-133.101
X99.06Y-66.04
X99.06Y-70.69
X99.06Y-76.2
X99.06Y-78.74
X99.06Y-121.92
X99.06Y-124.46
X101.6Y-66.04
X101.6Y-70.69
X101.6Y-76.2
X101.6Y-78.74
X101.6Y-121.92
X101.6Y-124.46
X101.6Y-130.561
X101.6Y-133.101
X104.14Y-66.04
X104.14Y-70.69
X104.14Y-76.2
X104.14Y-78.74
X104.14Y-121.92
X104.14Y-124.46
X105.41Y-130.561
X105.41Y-133.101
X106.68Y-66.04
X106.68Y-70.69
X106.68Y-76.2
X106.68Y-78.74
X106.68Y-121.92
X106.68Y-124.46
X109.22Y-76.2
X109.22Y-78.74
X109.22Y-121.92
X109.22Y-124.46
X110.998Y-130.566
X110.998Y-134.376
X111.76Y-76.2
X111.76Y-78.74
X111.76Y-121.92
X111.76Y-124.46
X113.538Y-130.566
X113.538Y-134.376
X114.3Y-76.2
X114.3Y-78.74
X114.3Y-88.783
X114.3Y-91.323
X114.3Y-93.863
X114.3Y-96.403
X114.3Y-98.943
X114.3Y-101.483
X114.3Y-104.023
X114.3Y-106.563
X114.3Y-109.103
X114.3Y-111.643
X114.3Y-114.183
X114.3Y-121.92
X114.3Y-124.46
X116.078Y-130.566
X116.078Y-134.376
X116.84Y-121.92
X116.84Y-124.46
X119.3Y-76.2
X119.3Y-78.74
X119.38Y-121.92
X119.38Y-124.46
X120.904Y-130.566
X120.919Y-134.376
X121.84Y-76.2
X121.84Y-78.74
X123.38Y-121.92
X123.38Y-124.46
X123.444Y-130.566
X123.459Y-134.376
X124.38Y-76.2
X124.38Y-78.74
X125.92Y-121.92
X125.92Y-124.46
X125.984Y-130.566
X125.999Y-134.376
X126.92Y-76.2
X126.92Y-78.74
X127.0Y-88.783
X127.0Y-91.323
X127.0Y-93.863
X127.0Y-96.403
X127.0Y-106.563
X127.0Y-109.103
X127.0Y-111.643
X127.0Y-114.183
X128.46Y-121.92
X128.46Y-124.46
X129.46Y-76.2
X129.46Y-78.74
X131.0Y-121.92
X131.0Y-124.46
X132.0Y-76.2
X132.0Y-78.74
X133.54Y-121.92
X133.54Y-124.46
X134.54Y-76.2
X134.54Y-78.74
X136.08Y-121.92
X136.08Y-124.46
X137.08Y-76.2
X137.08Y-78.74
X138.62Y-121.92
X138.62Y-124.46
X141.16Y-121.92
X141.16Y-124.46
X143.7Y-121.92
X143.7Y-124.46
X146.24Y-121.92
X146.24Y-124.46
X149.86Y-88.783
X149.86Y-91.323
X149.86Y-93.863
X149.86Y-96.403
X149.86Y-98.943
X149.86Y-101.483
X149.86Y-104.023
X149.86Y-106.563
X149.86Y-109.103
X149.86Y-111.643
X149.86Y-114.183
X152.4Y-128.28
X152.4Y-130.82
X152.4Y-134.63
X152.4Y-137.17
X154.94Y-128.28
X154.94Y-130.82
X154.94Y-134.63
X154.94Y-137.17
X157.48Y-120.594
X157.48Y-124.47
X157.48Y-128.28
X157.48Y-130.82
X157.48Y-134.63
X157.48Y-137.17
X160.02Y-120.594
X160.02Y-124.47
X160.02Y-128.28
X160.02Y-130.82
X160.02Y-134.63
X160.02Y-137.17
X162.56Y-88.783
X162.56Y-91.323
X162.56Y-93.863
X162.56Y-96.403
X162.56Y-106.563
X162.56Y-109.103
X162.56Y-111.643
X162.56Y-114.183
X162.56Y-120.594
X162.56Y-124.47
X162.56Y-128.28
X162.56Y-130.82
X162.56Y-134.63
X162.56Y-137.17
X165.1Y-120.594
X165.1Y-124.47
X165.1Y-128.28
X165.1Y-130.82
X165.1Y-134.63
X165.1Y-137.17
T5
X136.437Y-132.471
X143.637Y-132.471
X162.56Y-69.225
X162.56Y-76.425
M30
