%TF.GenerationSoftware,KiCad,Pcbnew,8.0.3*%
%TF.CreationDate,2025-02-18T22:17:29+09:00*%
%TF.ProjectId,F767ZI_MB_V1.2,46373637-5a49-45f4-9d42-5f56312e322e,rev?*%
%TF.SameCoordinates,Original*%
%TF.FileFunction,Drillmap*%
%TF.FilePolarity,Positive*%
%FSLAX45Y45*%
G04 Gerber Fmt 4.5, Leading zero omitted, Abs format (unit mm)*
G04 Created by KiCad (PCBNEW 8.0.3) date 2025-02-18 22:17:29*
%MOMM*%
%LPD*%
G01*
G04 APERTURE LIST*
%ADD10C,0.100000*%
%ADD11C,0.200000*%
%ADD12C,0.455000*%
G04 APERTURE END LIST*
D10*
X17018000Y-6249400D02*
X17018000Y-6350000D01*
X7366000Y-13716000D02*
X7366000Y-13818600D01*
X7620000Y-14072600D02*
G75*
G02*
X7366000Y-13818600I0J254000D01*
G01*
X17018000Y-13716000D02*
X17018000Y-13818600D01*
X7366000Y-13716000D02*
X7366000Y-6350000D01*
X16764000Y-5995400D02*
X7620000Y-5995400D01*
X7366000Y-6249400D02*
X7366000Y-6350000D01*
X16764000Y-5995400D02*
G75*
G02*
X17018000Y-6249400I0J-254000D01*
G01*
X7366000Y-6249400D02*
G75*
G02*
X7620000Y-5995400I254000J0D01*
G01*
X17018000Y-6350000D02*
X17018000Y-13716000D01*
X17018000Y-13818600D02*
G75*
G02*
X16764000Y-14072600I-254000J0D01*
G01*
X16764000Y-14072600D02*
X7620000Y-14072600D01*
D11*
D10*
X7854000Y-8464600D02*
X7894000Y-8504600D01*
X7894000Y-8464600D02*
X7854000Y-8504600D01*
X8108000Y-6686600D02*
X8148000Y-6726600D01*
X8148000Y-6686600D02*
X8108000Y-6726600D01*
X8108000Y-7194600D02*
X8148000Y-7234600D01*
X8148000Y-7194600D02*
X8108000Y-7234600D01*
X8108000Y-11512600D02*
X8148000Y-11552600D01*
X8148000Y-11512600D02*
X8108000Y-11552600D01*
X8225670Y-10231370D02*
X8265670Y-10271370D01*
X8265670Y-10231370D02*
X8225670Y-10271370D01*
X8616000Y-8972600D02*
X8656000Y-9012600D01*
X8656000Y-8972600D02*
X8616000Y-9012600D01*
X8616000Y-11512600D02*
X8656000Y-11552600D01*
X8656000Y-11512600D02*
X8616000Y-11552600D01*
X8870000Y-9480600D02*
X8910000Y-9520600D01*
X8910000Y-9480600D02*
X8870000Y-9520600D01*
X8870000Y-9988600D02*
X8910000Y-10028600D01*
X8910000Y-9988600D02*
X8870000Y-10028600D01*
X8870000Y-10496600D02*
X8910000Y-10536600D01*
X8910000Y-10496600D02*
X8870000Y-10536600D01*
X8870000Y-11639600D02*
X8910000Y-11679600D01*
X8910000Y-11639600D02*
X8870000Y-11679600D01*
X9022400Y-11842800D02*
X9062400Y-11882800D01*
X9062400Y-11842800D02*
X9022400Y-11882800D01*
X9047800Y-11991500D02*
X9087800Y-12031500D01*
X9087800Y-11991500D02*
X9047800Y-12031500D01*
X9049120Y-8235450D02*
X9089120Y-8275450D01*
X9089120Y-8235450D02*
X9049120Y-8275450D01*
X9213420Y-10138030D02*
X9253420Y-10178030D01*
X9253420Y-10138030D02*
X9213420Y-10178030D01*
X9327200Y-11325800D02*
X9367200Y-11365800D01*
X9367200Y-11325800D02*
X9327200Y-11365800D01*
X9327200Y-11792000D02*
X9367200Y-11832000D01*
X9367200Y-11792000D02*
X9327200Y-11832000D01*
X9333870Y-12813030D02*
X9373870Y-12853030D01*
X9373870Y-12813030D02*
X9333870Y-12853030D01*
X9352600Y-11944400D02*
X9392600Y-11984400D01*
X9392600Y-11944400D02*
X9352600Y-11984400D01*
X9422930Y-11694830D02*
X9462930Y-11734830D01*
X9462930Y-11694830D02*
X9422930Y-11734830D01*
X9495970Y-12817030D02*
X9535970Y-12857030D01*
X9535970Y-12817030D02*
X9495970Y-12857030D01*
X9518300Y-7713700D02*
X9558300Y-7753700D01*
X9558300Y-7713700D02*
X9518300Y-7753700D01*
X9530400Y-11792000D02*
X9570400Y-11832000D01*
X9570400Y-11792000D02*
X9530400Y-11832000D01*
X9606600Y-12604800D02*
X9646600Y-12644800D01*
X9646600Y-12604800D02*
X9606600Y-12644800D01*
X9682800Y-12706400D02*
X9722800Y-12746400D01*
X9722800Y-12706400D02*
X9682800Y-12746400D01*
X9886000Y-9480600D02*
X9926000Y-9520600D01*
X9926000Y-9480600D02*
X9886000Y-9520600D01*
X9962200Y-12706400D02*
X10002200Y-12746400D01*
X10002200Y-12706400D02*
X9962200Y-12746400D01*
X10013000Y-12532300D02*
X10053000Y-12572300D01*
X10053000Y-12532300D02*
X10013000Y-12572300D01*
X10140000Y-12716340D02*
X10180000Y-12756340D01*
X10180000Y-12716340D02*
X10140000Y-12756340D01*
X10172990Y-8838270D02*
X10212990Y-8878270D01*
X10212990Y-8838270D02*
X10172990Y-8878270D01*
X10528550Y-7204170D02*
X10568550Y-7244170D01*
X10568550Y-7204170D02*
X10528550Y-7244170D01*
X10773340Y-7160500D02*
X10813340Y-7200500D01*
X10813340Y-7160500D02*
X10773340Y-7200500D01*
X10775000Y-13154270D02*
X10815000Y-13194270D01*
X10815000Y-13154270D02*
X10775000Y-13194270D01*
X10851200Y-13620800D02*
X10891200Y-13660800D01*
X10891200Y-13620800D02*
X10851200Y-13660800D01*
X11023760Y-9915830D02*
X11063760Y-9955830D01*
X11063760Y-9915830D02*
X11023760Y-9955830D01*
X11028850Y-12716340D02*
X11068850Y-12756340D01*
X11068850Y-12716340D02*
X11028850Y-12756340D01*
X11029000Y-11512600D02*
X11069000Y-11552600D01*
X11069000Y-11512600D02*
X11029000Y-11552600D01*
X11156000Y-6686600D02*
X11196000Y-6726600D01*
X11196000Y-6686600D02*
X11156000Y-6726600D01*
X11156000Y-8471540D02*
X11196000Y-8511540D01*
X11196000Y-8471540D02*
X11156000Y-8511540D01*
X11156000Y-10750600D02*
X11196000Y-10790600D01*
X11196000Y-10750600D02*
X11156000Y-10790600D01*
X11278310Y-8372910D02*
X11318310Y-8412910D01*
X11318310Y-8372910D02*
X11278310Y-8412910D01*
X11562400Y-11893600D02*
X11602400Y-11933600D01*
X11602400Y-11893600D02*
X11562400Y-11933600D01*
X11664000Y-9734600D02*
X11704000Y-9774600D01*
X11704000Y-9734600D02*
X11664000Y-9774600D01*
X11664000Y-10750600D02*
X11704000Y-10790600D01*
X11704000Y-10750600D02*
X11664000Y-10790600D01*
X11765600Y-11792000D02*
X11805600Y-11832000D01*
X11805600Y-11792000D02*
X11765600Y-11832000D01*
X11791000Y-8845600D02*
X11831000Y-8885600D01*
X11831000Y-8845600D02*
X11791000Y-8885600D01*
X11791000Y-9099600D02*
X11831000Y-9139600D01*
X11831000Y-9099600D02*
X11791000Y-9139600D01*
X11918000Y-6686600D02*
X11958000Y-6726600D01*
X11958000Y-6686600D02*
X11918000Y-6726600D01*
X12045000Y-10623600D02*
X12085000Y-10663600D01*
X12085000Y-10623600D02*
X12045000Y-10663600D01*
X12055550Y-8308810D02*
X12095550Y-8348810D01*
X12095550Y-8308810D02*
X12055550Y-8348810D01*
X12095800Y-11792000D02*
X12135800Y-11832000D01*
X12135800Y-11792000D02*
X12095800Y-11832000D01*
X12121200Y-11360200D02*
X12161200Y-11400200D01*
X12161200Y-11360200D02*
X12121200Y-11400200D01*
X12146600Y-11665000D02*
X12186600Y-11705000D01*
X12186600Y-11665000D02*
X12146600Y-11705000D01*
X12146600Y-11969800D02*
X12186600Y-12009800D01*
X12186600Y-11969800D02*
X12146600Y-12009800D01*
X12148390Y-10409550D02*
X12188390Y-10449550D01*
X12188390Y-10409550D02*
X12148390Y-10449550D01*
X12221060Y-9243120D02*
X12261060Y-9283120D01*
X12261060Y-9243120D02*
X12221060Y-9283120D01*
X12299000Y-11639600D02*
X12339000Y-11679600D01*
X12339000Y-11639600D02*
X12299000Y-11679600D01*
X12346840Y-7991670D02*
X12386840Y-8031670D01*
X12386840Y-7991670D02*
X12346840Y-8031670D01*
X12435050Y-10507170D02*
X12475050Y-10547170D01*
X12475050Y-10507170D02*
X12435050Y-10547170D01*
X12553000Y-11969800D02*
X12593000Y-12009800D01*
X12593000Y-11969800D02*
X12553000Y-12009800D01*
X12626500Y-11893600D02*
X12666500Y-11933600D01*
X12666500Y-11893600D02*
X12626500Y-11933600D01*
X12832400Y-11893600D02*
X12872400Y-11933600D01*
X12872400Y-11893600D02*
X12832400Y-11933600D01*
X12959400Y-11481100D02*
X12999400Y-11521100D01*
X12999400Y-11481100D02*
X12959400Y-11521100D01*
X13022350Y-9994690D02*
X13062350Y-10034690D01*
X13062350Y-9994690D02*
X13022350Y-10034690D01*
X13035600Y-11762900D02*
X13075600Y-11802900D01*
X13075600Y-11762900D02*
X13035600Y-11802900D01*
X13419480Y-11881390D02*
X13459480Y-11921390D01*
X13459480Y-11881390D02*
X13419480Y-11921390D01*
X13442000Y-13798600D02*
X13482000Y-13838600D01*
X13482000Y-13798600D02*
X13442000Y-13838600D01*
X13772200Y-7169200D02*
X13812200Y-7209200D01*
X13812200Y-7169200D02*
X13772200Y-7209200D01*
X13899200Y-7372400D02*
X13939200Y-7412400D01*
X13939200Y-7372400D02*
X13899200Y-7412400D01*
X13910650Y-10890300D02*
X13950650Y-10930300D01*
X13950650Y-10890300D02*
X13910650Y-10930300D01*
X14328660Y-8991350D02*
X14368660Y-9031350D01*
X14368660Y-8991350D02*
X14328660Y-9031350D01*
X14458000Y-10369600D02*
X14498000Y-10409600D01*
X14498000Y-10369600D02*
X14458000Y-10409600D01*
X14458000Y-11258600D02*
X14498000Y-11298600D01*
X14498000Y-11258600D02*
X14458000Y-11298600D01*
X14712000Y-9480600D02*
X14752000Y-9520600D01*
X14752000Y-9480600D02*
X14712000Y-9520600D01*
X14712000Y-13798600D02*
X14752000Y-13838600D01*
X14752000Y-13798600D02*
X14712000Y-13838600D01*
X14734890Y-8835450D02*
X14774890Y-8875450D01*
X14774890Y-8835450D02*
X14734890Y-8875450D01*
X14839000Y-12909600D02*
X14879000Y-12949600D01*
X14879000Y-12909600D02*
X14839000Y-12949600D01*
X14966000Y-7448600D02*
X15006000Y-7488600D01*
X15006000Y-7448600D02*
X14966000Y-7488600D01*
X14966000Y-8210600D02*
X15006000Y-8250600D01*
X15006000Y-8210600D02*
X14966000Y-8250600D01*
X14966000Y-12274600D02*
X15006000Y-12314600D01*
X15006000Y-12274600D02*
X14966000Y-12314600D01*
X15148690Y-8888380D02*
X15188690Y-8928380D01*
X15188690Y-8888380D02*
X15148690Y-8928380D01*
X15728000Y-6686600D02*
X15768000Y-6726600D01*
X15768000Y-6686600D02*
X15728000Y-6726600D01*
X15728000Y-9734600D02*
X15768000Y-9774600D01*
X15768000Y-9734600D02*
X15728000Y-9774600D01*
X15728000Y-10756230D02*
X15768000Y-10796230D01*
X15768000Y-10756230D02*
X15728000Y-10796230D01*
X16236000Y-8210600D02*
X16276000Y-8250600D01*
X16276000Y-8210600D02*
X16236000Y-8250600D01*
X16360335Y-8594265D02*
X16400335Y-8634265D01*
X16400335Y-8594265D02*
X16360335Y-8634265D01*
X16744000Y-6686600D02*
X16784000Y-6726600D01*
X16784000Y-6686600D02*
X16744000Y-6726600D01*
X16744000Y-8210600D02*
X16784000Y-8250600D01*
X16784000Y-8210600D02*
X16744000Y-8250600D01*
X16744000Y-9480600D02*
X16784000Y-9520600D01*
X16784000Y-9480600D02*
X16744000Y-9520600D01*
X16744000Y-10496600D02*
X16784000Y-10536600D01*
X16784000Y-10496600D02*
X16744000Y-10536600D01*
X16744000Y-11766600D02*
X16784000Y-11806600D01*
X16784000Y-11766600D02*
X16744000Y-11806600D01*
X16744000Y-12655600D02*
X16784000Y-12695600D01*
X16784000Y-12655600D02*
X16744000Y-12695600D01*
X16744000Y-13798600D02*
X16784000Y-13838600D01*
X16784000Y-13798600D02*
X16744000Y-13838600D01*
X12676700Y-6567500D02*
G75*
G02*
X12621700Y-6567500I-27500J0D01*
G01*
X12621700Y-6567500D02*
G75*
G02*
X12676700Y-6567500I27500J0D01*
G01*
X12676700Y-6948500D02*
G75*
G02*
X12621700Y-6948500I-27500J0D01*
G01*
X12621700Y-6948500D02*
G75*
G02*
X12676700Y-6948500I27500J0D01*
G01*
X12803700Y-6567500D02*
G75*
G02*
X12748700Y-6567500I-27500J0D01*
G01*
X12748700Y-6567500D02*
G75*
G02*
X12803700Y-6567500I27500J0D01*
G01*
X12803700Y-6948500D02*
G75*
G02*
X12748700Y-6948500I-27500J0D01*
G01*
X12748700Y-6948500D02*
G75*
G02*
X12803700Y-6948500I27500J0D01*
G01*
X12930700Y-6567500D02*
G75*
G02*
X12875700Y-6567500I-27500J0D01*
G01*
X12875700Y-6567500D02*
G75*
G02*
X12930700Y-6567500I27500J0D01*
G01*
X12930700Y-6948500D02*
G75*
G02*
X12875700Y-6948500I-27500J0D01*
G01*
X12875700Y-6948500D02*
G75*
G02*
X12930700Y-6948500I27500J0D01*
G01*
X13311700Y-6567500D02*
G75*
G02*
X13256700Y-6567500I-27500J0D01*
G01*
X13256700Y-6567500D02*
G75*
G02*
X13311700Y-6567500I27500J0D01*
G01*
X13311700Y-6948500D02*
G75*
G02*
X13256700Y-6948500I-27500J0D01*
G01*
X13256700Y-6948500D02*
G75*
G02*
X13311700Y-6948500I27500J0D01*
G01*
X13438700Y-6567500D02*
G75*
G02*
X13383700Y-6567500I-27500J0D01*
G01*
X13383700Y-6567500D02*
G75*
G02*
X13438700Y-6567500I27500J0D01*
G01*
X13438700Y-6948500D02*
G75*
G02*
X13383700Y-6948500I-27500J0D01*
G01*
X13383700Y-6948500D02*
G75*
G02*
X13438700Y-6948500I27500J0D01*
G01*
X13565700Y-6567500D02*
G75*
G02*
X13510700Y-6567500I-27500J0D01*
G01*
X13510700Y-6567500D02*
G75*
G02*
X13565700Y-6567500I27500J0D01*
G01*
X13565700Y-6948500D02*
G75*
G02*
X13510700Y-6948500I-27500J0D01*
G01*
X13510700Y-6948500D02*
G75*
G02*
X13565700Y-6948500I27500J0D01*
G01*
X13946700Y-6567500D02*
G75*
G02*
X13891700Y-6567500I-27500J0D01*
G01*
X13891700Y-6567500D02*
G75*
G02*
X13946700Y-6567500I27500J0D01*
G01*
X13946700Y-6948500D02*
G75*
G02*
X13891700Y-6948500I-27500J0D01*
G01*
X13891700Y-6948500D02*
G75*
G02*
X13946700Y-6948500I27500J0D01*
G01*
X14073700Y-6567500D02*
G75*
G02*
X14018700Y-6567500I-27500J0D01*
G01*
X14018700Y-6567500D02*
G75*
G02*
X14073700Y-6567500I27500J0D01*
G01*
X14073700Y-6948500D02*
G75*
G02*
X14018700Y-6948500I-27500J0D01*
G01*
X14018700Y-6948500D02*
G75*
G02*
X14073700Y-6948500I27500J0D01*
G01*
X14200700Y-6567500D02*
G75*
G02*
X14145700Y-6567500I-27500J0D01*
G01*
X14145700Y-6567500D02*
G75*
G02*
X14200700Y-6567500I27500J0D01*
G01*
X14200700Y-6948500D02*
G75*
G02*
X14145700Y-6948500I-27500J0D01*
G01*
X14145700Y-6948500D02*
G75*
G02*
X14200700Y-6948500I27500J0D01*
G01*
X14581700Y-6567500D02*
G75*
G02*
X14526700Y-6567500I-27500J0D01*
G01*
X14526700Y-6567500D02*
G75*
G02*
X14581700Y-6567500I27500J0D01*
G01*
X14581700Y-6948500D02*
G75*
G02*
X14526700Y-6948500I-27500J0D01*
G01*
X14526700Y-6948500D02*
G75*
G02*
X14581700Y-6948500I27500J0D01*
G01*
X14708700Y-6567500D02*
G75*
G02*
X14653700Y-6567500I-27500J0D01*
G01*
X14653700Y-6567500D02*
G75*
G02*
X14708700Y-6567500I27500J0D01*
G01*
X14708700Y-6948500D02*
G75*
G02*
X14653700Y-6948500I-27500J0D01*
G01*
X14653700Y-6948500D02*
G75*
G02*
X14708700Y-6948500I27500J0D01*
G01*
X14835700Y-6567500D02*
G75*
G02*
X14780700Y-6567500I-27500J0D01*
G01*
X14780700Y-6567500D02*
G75*
G02*
X14835700Y-6567500I27500J0D01*
G01*
X14835700Y-6948500D02*
G75*
G02*
X14780700Y-6948500I-27500J0D01*
G01*
X14780700Y-6948500D02*
G75*
G02*
X14835700Y-6948500I27500J0D01*
G01*
X9652000Y-8705600D02*
X9652000Y-8785600D01*
X9612000Y-8745600D02*
X9692000Y-8745600D01*
X9652000Y-9110600D02*
X9652000Y-9190600D01*
X9612000Y-9150600D02*
X9692000Y-9150600D01*
X9652000Y-9515600D02*
X9652000Y-9595600D01*
X9612000Y-9555600D02*
X9692000Y-9555600D01*
X9652000Y-9920600D02*
X9652000Y-10000600D01*
X9612000Y-9960600D02*
X9692000Y-9960600D01*
X9652000Y-10325600D02*
X9652000Y-10405600D01*
X9612000Y-10365600D02*
X9692000Y-10365600D01*
X9652000Y-10730600D02*
X9652000Y-10810600D01*
X9612000Y-10770600D02*
X9692000Y-10770600D01*
X9652000Y-11135600D02*
X9652000Y-11215600D01*
X9612000Y-11175600D02*
X9692000Y-11175600D01*
X9652000Y-11540600D02*
X9652000Y-11620600D01*
X9612000Y-11580600D02*
X9692000Y-11580600D01*
X10668000Y-8705600D02*
X10668000Y-8785600D01*
X10628000Y-8745600D02*
X10708000Y-8745600D01*
X10668000Y-9110600D02*
X10668000Y-9190600D01*
X10628000Y-9150600D02*
X10708000Y-9150600D01*
X10668000Y-9515600D02*
X10668000Y-9595600D01*
X10628000Y-9555600D02*
X10708000Y-9555600D01*
X10668000Y-9920600D02*
X10668000Y-10000600D01*
X10628000Y-9960600D02*
X10708000Y-9960600D01*
X10668000Y-10325600D02*
X10668000Y-10405600D01*
X10628000Y-10365600D02*
X10708000Y-10365600D01*
X10668000Y-10730600D02*
X10668000Y-10810600D01*
X10628000Y-10770600D02*
X10708000Y-10770600D01*
X10668000Y-11135600D02*
X10668000Y-11215600D01*
X10628000Y-11175600D02*
X10708000Y-11175600D01*
X10668000Y-11540600D02*
X10668000Y-11620600D01*
X10628000Y-11580600D02*
X10708000Y-11580600D01*
X13208000Y-8698600D02*
X13208000Y-8778600D01*
X13168000Y-8738600D02*
X13248000Y-8738600D01*
X13208000Y-9103600D02*
X13208000Y-9183600D01*
X13168000Y-9143600D02*
X13248000Y-9143600D01*
X13208000Y-9508600D02*
X13208000Y-9588600D01*
X13168000Y-9548600D02*
X13248000Y-9548600D01*
X13208000Y-9913600D02*
X13208000Y-9993600D01*
X13168000Y-9953600D02*
X13248000Y-9953600D01*
X13208000Y-10318600D02*
X13208000Y-10398600D01*
X13168000Y-10358600D02*
X13248000Y-10358600D01*
X13208000Y-10723600D02*
X13208000Y-10803600D01*
X13168000Y-10763600D02*
X13248000Y-10763600D01*
X13208000Y-11128600D02*
X13208000Y-11208600D01*
X13168000Y-11168600D02*
X13248000Y-11168600D01*
X13208000Y-11533600D02*
X13208000Y-11613600D01*
X13168000Y-11573600D02*
X13248000Y-11573600D01*
X14224000Y-8698600D02*
X14224000Y-8778600D01*
X14184000Y-8738600D02*
X14264000Y-8738600D01*
X14224000Y-9103600D02*
X14224000Y-9183600D01*
X14184000Y-9143600D02*
X14264000Y-9143600D01*
X14224000Y-9508600D02*
X14224000Y-9588600D01*
X14184000Y-9548600D02*
X14264000Y-9548600D01*
X14224000Y-9913600D02*
X14224000Y-9993600D01*
X14184000Y-9953600D02*
X14264000Y-9953600D01*
X14224000Y-10318600D02*
X14224000Y-10398600D01*
X14184000Y-10358600D02*
X14264000Y-10358600D01*
X14224000Y-10723600D02*
X14224000Y-10803600D01*
X14184000Y-10763600D02*
X14264000Y-10763600D01*
X14224000Y-11128600D02*
X14224000Y-11208600D01*
X14184000Y-11168600D02*
X14264000Y-11168600D01*
X14224000Y-11533600D02*
X14224000Y-11613600D01*
X14184000Y-11573600D02*
X14264000Y-11573600D01*
X7909356Y-7655356D02*
X7909356Y-7584644D01*
X7838644Y-7584644D01*
X7838644Y-7655356D01*
X7909356Y-7655356D01*
X7909356Y-7909356D02*
X7909356Y-7838644D01*
X7838644Y-7838644D01*
X7838644Y-7909356D01*
X7909356Y-7909356D01*
X7909356Y-8913656D02*
X7909356Y-8842944D01*
X7838644Y-8842944D01*
X7838644Y-8913656D01*
X7909356Y-8913656D01*
X7909356Y-9167656D02*
X7909356Y-9096944D01*
X7838644Y-9096944D01*
X7838644Y-9167656D01*
X7909356Y-9167656D01*
X7909356Y-9421656D02*
X7909356Y-9350944D01*
X7838644Y-9350944D01*
X7838644Y-9421656D01*
X7909356Y-9421656D01*
X7909356Y-9675656D02*
X7909356Y-9604944D01*
X7838644Y-9604944D01*
X7838644Y-9675656D01*
X7909356Y-9675656D01*
X7909356Y-9929656D02*
X7909356Y-9858944D01*
X7838644Y-9858944D01*
X7838644Y-9929656D01*
X7909356Y-9929656D01*
X7909356Y-10183656D02*
X7909356Y-10112944D01*
X7838644Y-10112944D01*
X7838644Y-10183656D01*
X7909356Y-10183656D01*
X7909356Y-10437656D02*
X7909356Y-10366944D01*
X7838644Y-10366944D01*
X7838644Y-10437656D01*
X7909356Y-10437656D01*
X7909356Y-10691656D02*
X7909356Y-10620944D01*
X7838644Y-10620944D01*
X7838644Y-10691656D01*
X7909356Y-10691656D01*
X7909356Y-10945656D02*
X7909356Y-10874944D01*
X7838644Y-10874944D01*
X7838644Y-10945656D01*
X7909356Y-10945656D01*
X7909356Y-11199656D02*
X7909356Y-11128944D01*
X7838644Y-11128944D01*
X7838644Y-11199656D01*
X7909356Y-11199656D01*
X7909356Y-11453656D02*
X7909356Y-11382944D01*
X7838644Y-11382944D01*
X7838644Y-11453656D01*
X7909356Y-11453656D01*
X7909356Y-12227356D02*
X7909356Y-12156644D01*
X7838644Y-12156644D01*
X7838644Y-12227356D01*
X7909356Y-12227356D01*
X7909356Y-12481356D02*
X7909356Y-12410644D01*
X7838644Y-12410644D01*
X7838644Y-12481356D01*
X7909356Y-12481356D01*
X7909356Y-13091956D02*
X7909356Y-13021244D01*
X7838644Y-13021244D01*
X7838644Y-13091956D01*
X7909356Y-13091956D01*
X7909356Y-13345956D02*
X7909356Y-13275244D01*
X7838644Y-13275244D01*
X7838644Y-13345956D01*
X7909356Y-13345956D01*
X8163356Y-7655356D02*
X8163356Y-7584644D01*
X8092644Y-7584644D01*
X8092644Y-7655356D01*
X8163356Y-7655356D01*
X8163356Y-7909356D02*
X8163356Y-7838644D01*
X8092644Y-7838644D01*
X8092644Y-7909356D01*
X8163356Y-7909356D01*
X8163356Y-12227356D02*
X8163356Y-12156644D01*
X8092644Y-12156644D01*
X8092644Y-12227356D01*
X8163356Y-12227356D01*
X8163356Y-12481356D02*
X8163356Y-12410644D01*
X8092644Y-12410644D01*
X8092644Y-12481356D01*
X8163356Y-12481356D01*
X8290356Y-13091456D02*
X8290356Y-13020744D01*
X8219644Y-13020744D01*
X8219644Y-13091456D01*
X8290356Y-13091456D01*
X8290356Y-13345456D02*
X8290356Y-13274744D01*
X8219644Y-13274744D01*
X8219644Y-13345456D01*
X8290356Y-13345456D01*
X8417356Y-7655356D02*
X8417356Y-7584644D01*
X8346644Y-7584644D01*
X8346644Y-7655356D01*
X8417356Y-7655356D01*
X8417356Y-7909356D02*
X8417356Y-7838644D01*
X8346644Y-7838644D01*
X8346644Y-7909356D01*
X8417356Y-7909356D01*
X8417356Y-12227356D02*
X8417356Y-12156644D01*
X8346644Y-12156644D01*
X8346644Y-12227356D01*
X8417356Y-12227356D01*
X8417356Y-12481356D02*
X8417356Y-12410644D01*
X8346644Y-12410644D01*
X8346644Y-12481356D01*
X8417356Y-12481356D01*
X8671356Y-6639356D02*
X8671356Y-6568644D01*
X8600644Y-6568644D01*
X8600644Y-6639356D01*
X8671356Y-6639356D01*
X8671356Y-7104356D02*
X8671356Y-7033644D01*
X8600644Y-7033644D01*
X8600644Y-7104356D01*
X8671356Y-7104356D01*
X8671356Y-7655356D02*
X8671356Y-7584644D01*
X8600644Y-7584644D01*
X8600644Y-7655356D01*
X8671356Y-7655356D01*
X8671356Y-7909356D02*
X8671356Y-7838644D01*
X8600644Y-7838644D01*
X8600644Y-7909356D01*
X8671356Y-7909356D01*
X8671356Y-12227356D02*
X8671356Y-12156644D01*
X8600644Y-12156644D01*
X8600644Y-12227356D01*
X8671356Y-12227356D01*
X8671356Y-12481356D02*
X8671356Y-12410644D01*
X8600644Y-12410644D01*
X8600644Y-12481356D01*
X8671356Y-12481356D01*
X8671356Y-13091956D02*
X8671356Y-13021244D01*
X8600644Y-13021244D01*
X8600644Y-13091956D01*
X8671356Y-13091956D01*
X8671356Y-13345956D02*
X8671356Y-13275244D01*
X8600644Y-13275244D01*
X8600644Y-13345956D01*
X8671356Y-13345956D01*
X8925356Y-6639356D02*
X8925356Y-6568644D01*
X8854644Y-6568644D01*
X8854644Y-6639356D01*
X8925356Y-6639356D01*
X8925356Y-7104356D02*
X8925356Y-7033644D01*
X8854644Y-7033644D01*
X8854644Y-7104356D01*
X8925356Y-7104356D01*
X8925356Y-7655356D02*
X8925356Y-7584644D01*
X8854644Y-7584644D01*
X8854644Y-7655356D01*
X8925356Y-7655356D01*
X8925356Y-7909356D02*
X8925356Y-7838644D01*
X8854644Y-7838644D01*
X8854644Y-7909356D01*
X8925356Y-7909356D01*
X8925356Y-12227356D02*
X8925356Y-12156644D01*
X8854644Y-12156644D01*
X8854644Y-12227356D01*
X8925356Y-12227356D01*
X8925356Y-12481356D02*
X8925356Y-12410644D01*
X8854644Y-12410644D01*
X8854644Y-12481356D01*
X8925356Y-12481356D01*
X9052356Y-13091456D02*
X9052356Y-13020744D01*
X8981644Y-13020744D01*
X8981644Y-13091456D01*
X9052356Y-13091456D01*
X9052356Y-13345456D02*
X9052356Y-13274744D01*
X8981644Y-13274744D01*
X8981644Y-13345456D01*
X9052356Y-13345456D01*
X9179356Y-6639356D02*
X9179356Y-6568644D01*
X9108644Y-6568644D01*
X9108644Y-6639356D01*
X9179356Y-6639356D01*
X9179356Y-7104356D02*
X9179356Y-7033644D01*
X9108644Y-7033644D01*
X9108644Y-7104356D01*
X9179356Y-7104356D01*
X9179356Y-7655356D02*
X9179356Y-7584644D01*
X9108644Y-7584644D01*
X9108644Y-7655356D01*
X9179356Y-7655356D01*
X9179356Y-7909356D02*
X9179356Y-7838644D01*
X9108644Y-7838644D01*
X9108644Y-7909356D01*
X9179356Y-7909356D01*
X9179356Y-8913656D02*
X9179356Y-8842944D01*
X9108644Y-8842944D01*
X9108644Y-8913656D01*
X9179356Y-8913656D01*
X9179356Y-9167656D02*
X9179356Y-9096944D01*
X9108644Y-9096944D01*
X9108644Y-9167656D01*
X9179356Y-9167656D01*
X9179356Y-9421656D02*
X9179356Y-9350944D01*
X9108644Y-9350944D01*
X9108644Y-9421656D01*
X9179356Y-9421656D01*
X9179356Y-9675656D02*
X9179356Y-9604944D01*
X9108644Y-9604944D01*
X9108644Y-9675656D01*
X9179356Y-9675656D01*
X9179356Y-10691656D02*
X9179356Y-10620944D01*
X9108644Y-10620944D01*
X9108644Y-10691656D01*
X9179356Y-10691656D01*
X9179356Y-10945656D02*
X9179356Y-10874944D01*
X9108644Y-10874944D01*
X9108644Y-10945656D01*
X9179356Y-10945656D01*
X9179356Y-11199656D02*
X9179356Y-11128944D01*
X9108644Y-11128944D01*
X9108644Y-11199656D01*
X9179356Y-11199656D01*
X9179356Y-11453656D02*
X9179356Y-11382944D01*
X9108644Y-11382944D01*
X9108644Y-11453656D01*
X9179356Y-11453656D01*
X9179356Y-12227356D02*
X9179356Y-12156644D01*
X9108644Y-12156644D01*
X9108644Y-12227356D01*
X9179356Y-12227356D01*
X9179356Y-12481356D02*
X9179356Y-12410644D01*
X9108644Y-12410644D01*
X9108644Y-12481356D01*
X9179356Y-12481356D01*
X9433356Y-6639356D02*
X9433356Y-6568644D01*
X9362644Y-6568644D01*
X9362644Y-6639356D01*
X9433356Y-6639356D01*
X9433356Y-7104356D02*
X9433356Y-7033644D01*
X9362644Y-7033644D01*
X9362644Y-7104356D01*
X9433356Y-7104356D01*
X9433356Y-7655356D02*
X9433356Y-7584644D01*
X9362644Y-7584644D01*
X9362644Y-7655356D01*
X9433356Y-7655356D01*
X9433356Y-7909356D02*
X9433356Y-7838644D01*
X9362644Y-7838644D01*
X9362644Y-7909356D01*
X9433356Y-7909356D01*
X9433356Y-12227356D02*
X9433356Y-12156644D01*
X9362644Y-12156644D01*
X9362644Y-12227356D01*
X9433356Y-12227356D01*
X9433356Y-12481356D02*
X9433356Y-12410644D01*
X9362644Y-12410644D01*
X9362644Y-12481356D01*
X9433356Y-12481356D01*
X9433356Y-13091456D02*
X9433356Y-13020744D01*
X9362644Y-13020744D01*
X9362644Y-13091456D01*
X9433356Y-13091456D01*
X9433356Y-13345456D02*
X9433356Y-13274744D01*
X9362644Y-13274744D01*
X9362644Y-13345456D01*
X9433356Y-13345456D01*
X9687356Y-7655356D02*
X9687356Y-7584644D01*
X9616644Y-7584644D01*
X9616644Y-7655356D01*
X9687356Y-7655356D01*
X9687356Y-7909356D02*
X9687356Y-7838644D01*
X9616644Y-7838644D01*
X9616644Y-7909356D01*
X9687356Y-7909356D01*
X9687356Y-12227356D02*
X9687356Y-12156644D01*
X9616644Y-12156644D01*
X9616644Y-12227356D01*
X9687356Y-12227356D01*
X9687356Y-12481356D02*
X9687356Y-12410644D01*
X9616644Y-12410644D01*
X9616644Y-12481356D01*
X9687356Y-12481356D01*
X9814356Y-13091456D02*
X9814356Y-13020744D01*
X9743644Y-13020744D01*
X9743644Y-13091456D01*
X9814356Y-13091456D01*
X9814356Y-13345456D02*
X9814356Y-13274744D01*
X9743644Y-13274744D01*
X9743644Y-13345456D01*
X9814356Y-13345456D01*
X9941356Y-6639356D02*
X9941356Y-6568644D01*
X9870644Y-6568644D01*
X9870644Y-6639356D01*
X9941356Y-6639356D01*
X9941356Y-7104356D02*
X9941356Y-7033644D01*
X9870644Y-7033644D01*
X9870644Y-7104356D01*
X9941356Y-7104356D01*
X9941356Y-7655356D02*
X9941356Y-7584644D01*
X9870644Y-7584644D01*
X9870644Y-7655356D01*
X9941356Y-7655356D01*
X9941356Y-7909356D02*
X9941356Y-7838644D01*
X9870644Y-7838644D01*
X9870644Y-7909356D01*
X9941356Y-7909356D01*
X9941356Y-12227356D02*
X9941356Y-12156644D01*
X9870644Y-12156644D01*
X9870644Y-12227356D01*
X9941356Y-12227356D01*
X9941356Y-12481356D02*
X9941356Y-12410644D01*
X9870644Y-12410644D01*
X9870644Y-12481356D01*
X9941356Y-12481356D01*
X10195356Y-6639356D02*
X10195356Y-6568644D01*
X10124644Y-6568644D01*
X10124644Y-6639356D01*
X10195356Y-6639356D01*
X10195356Y-7104356D02*
X10195356Y-7033644D01*
X10124644Y-7033644D01*
X10124644Y-7104356D01*
X10195356Y-7104356D01*
X10195356Y-7655356D02*
X10195356Y-7584644D01*
X10124644Y-7584644D01*
X10124644Y-7655356D01*
X10195356Y-7655356D01*
X10195356Y-7909356D02*
X10195356Y-7838644D01*
X10124644Y-7838644D01*
X10124644Y-7909356D01*
X10195356Y-7909356D01*
X10195356Y-12227356D02*
X10195356Y-12156644D01*
X10124644Y-12156644D01*
X10124644Y-12227356D01*
X10195356Y-12227356D01*
X10195356Y-12481356D02*
X10195356Y-12410644D01*
X10124644Y-12410644D01*
X10124644Y-12481356D01*
X10195356Y-12481356D01*
X10195356Y-13091456D02*
X10195356Y-13020744D01*
X10124644Y-13020744D01*
X10124644Y-13091456D01*
X10195356Y-13091456D01*
X10195356Y-13345456D02*
X10195356Y-13274744D01*
X10124644Y-13274744D01*
X10124644Y-13345456D01*
X10195356Y-13345456D01*
X10449356Y-6639356D02*
X10449356Y-6568644D01*
X10378644Y-6568644D01*
X10378644Y-6639356D01*
X10449356Y-6639356D01*
X10449356Y-7104356D02*
X10449356Y-7033644D01*
X10378644Y-7033644D01*
X10378644Y-7104356D01*
X10449356Y-7104356D01*
X10449356Y-7655356D02*
X10449356Y-7584644D01*
X10378644Y-7584644D01*
X10378644Y-7655356D01*
X10449356Y-7655356D01*
X10449356Y-7909356D02*
X10449356Y-7838644D01*
X10378644Y-7838644D01*
X10378644Y-7909356D01*
X10449356Y-7909356D01*
X10449356Y-12227356D02*
X10449356Y-12156644D01*
X10378644Y-12156644D01*
X10378644Y-12227356D01*
X10449356Y-12227356D01*
X10449356Y-12481356D02*
X10449356Y-12410644D01*
X10378644Y-12410644D01*
X10378644Y-12481356D01*
X10449356Y-12481356D01*
X10576356Y-13091456D02*
X10576356Y-13020744D01*
X10505644Y-13020744D01*
X10505644Y-13091456D01*
X10576356Y-13091456D01*
X10576356Y-13345456D02*
X10576356Y-13274744D01*
X10505644Y-13274744D01*
X10505644Y-13345456D01*
X10576356Y-13345456D01*
X10703356Y-6639356D02*
X10703356Y-6568644D01*
X10632644Y-6568644D01*
X10632644Y-6639356D01*
X10703356Y-6639356D01*
X10703356Y-7104356D02*
X10703356Y-7033644D01*
X10632644Y-7033644D01*
X10632644Y-7104356D01*
X10703356Y-7104356D01*
X10703356Y-7655356D02*
X10703356Y-7584644D01*
X10632644Y-7584644D01*
X10632644Y-7655356D01*
X10703356Y-7655356D01*
X10703356Y-7909356D02*
X10703356Y-7838644D01*
X10632644Y-7838644D01*
X10632644Y-7909356D01*
X10703356Y-7909356D01*
X10703356Y-12227356D02*
X10703356Y-12156644D01*
X10632644Y-12156644D01*
X10632644Y-12227356D01*
X10703356Y-12227356D01*
X10703356Y-12481356D02*
X10703356Y-12410644D01*
X10632644Y-12410644D01*
X10632644Y-12481356D01*
X10703356Y-12481356D01*
X10957356Y-7655356D02*
X10957356Y-7584644D01*
X10886644Y-7584644D01*
X10886644Y-7655356D01*
X10957356Y-7655356D01*
X10957356Y-7909356D02*
X10957356Y-7838644D01*
X10886644Y-7838644D01*
X10886644Y-7909356D01*
X10957356Y-7909356D01*
X10957356Y-12227356D02*
X10957356Y-12156644D01*
X10886644Y-12156644D01*
X10886644Y-12227356D01*
X10957356Y-12227356D01*
X10957356Y-12481356D02*
X10957356Y-12410644D01*
X10886644Y-12410644D01*
X10886644Y-12481356D01*
X10957356Y-12481356D01*
X11135156Y-13091956D02*
X11135156Y-13021244D01*
X11064444Y-13021244D01*
X11064444Y-13091956D01*
X11135156Y-13091956D01*
X11135156Y-13472956D02*
X11135156Y-13402244D01*
X11064444Y-13402244D01*
X11064444Y-13472956D01*
X11135156Y-13472956D01*
X11211356Y-7655356D02*
X11211356Y-7584644D01*
X11140644Y-7584644D01*
X11140644Y-7655356D01*
X11211356Y-7655356D01*
X11211356Y-7909356D02*
X11211356Y-7838644D01*
X11140644Y-7838644D01*
X11140644Y-7909356D01*
X11211356Y-7909356D01*
X11211356Y-12227356D02*
X11211356Y-12156644D01*
X11140644Y-12156644D01*
X11140644Y-12227356D01*
X11211356Y-12227356D01*
X11211356Y-12481356D02*
X11211356Y-12410644D01*
X11140644Y-12410644D01*
X11140644Y-12481356D01*
X11211356Y-12481356D01*
X11389156Y-13091956D02*
X11389156Y-13021244D01*
X11318444Y-13021244D01*
X11318444Y-13091956D01*
X11389156Y-13091956D01*
X11389156Y-13472956D02*
X11389156Y-13402244D01*
X11318444Y-13402244D01*
X11318444Y-13472956D01*
X11389156Y-13472956D01*
X11465356Y-7655356D02*
X11465356Y-7584644D01*
X11394644Y-7584644D01*
X11394644Y-7655356D01*
X11465356Y-7655356D01*
X11465356Y-7909356D02*
X11465356Y-7838644D01*
X11394644Y-7838644D01*
X11394644Y-7909356D01*
X11465356Y-7909356D01*
X11465356Y-8913656D02*
X11465356Y-8842944D01*
X11394644Y-8842944D01*
X11394644Y-8913656D01*
X11465356Y-8913656D01*
X11465356Y-9167656D02*
X11465356Y-9096944D01*
X11394644Y-9096944D01*
X11394644Y-9167656D01*
X11465356Y-9167656D01*
X11465356Y-9421656D02*
X11465356Y-9350944D01*
X11394644Y-9350944D01*
X11394644Y-9421656D01*
X11465356Y-9421656D01*
X11465356Y-9675656D02*
X11465356Y-9604944D01*
X11394644Y-9604944D01*
X11394644Y-9675656D01*
X11465356Y-9675656D01*
X11465356Y-9929656D02*
X11465356Y-9858944D01*
X11394644Y-9858944D01*
X11394644Y-9929656D01*
X11465356Y-9929656D01*
X11465356Y-10183656D02*
X11465356Y-10112944D01*
X11394644Y-10112944D01*
X11394644Y-10183656D01*
X11465356Y-10183656D01*
X11465356Y-10437656D02*
X11465356Y-10366944D01*
X11394644Y-10366944D01*
X11394644Y-10437656D01*
X11465356Y-10437656D01*
X11465356Y-10691656D02*
X11465356Y-10620944D01*
X11394644Y-10620944D01*
X11394644Y-10691656D01*
X11465356Y-10691656D01*
X11465356Y-10945656D02*
X11465356Y-10874944D01*
X11394644Y-10874944D01*
X11394644Y-10945656D01*
X11465356Y-10945656D01*
X11465356Y-11199656D02*
X11465356Y-11128944D01*
X11394644Y-11128944D01*
X11394644Y-11199656D01*
X11465356Y-11199656D01*
X11465356Y-11453656D02*
X11465356Y-11382944D01*
X11394644Y-11382944D01*
X11394644Y-11453656D01*
X11465356Y-11453656D01*
X11465356Y-12227356D02*
X11465356Y-12156644D01*
X11394644Y-12156644D01*
X11394644Y-12227356D01*
X11465356Y-12227356D01*
X11465356Y-12481356D02*
X11465356Y-12410644D01*
X11394644Y-12410644D01*
X11394644Y-12481356D01*
X11465356Y-12481356D01*
X11643156Y-13091956D02*
X11643156Y-13021244D01*
X11572444Y-13021244D01*
X11572444Y-13091956D01*
X11643156Y-13091956D01*
X11643156Y-13472956D02*
X11643156Y-13402244D01*
X11572444Y-13402244D01*
X11572444Y-13472956D01*
X11643156Y-13472956D01*
X11719356Y-12227356D02*
X11719356Y-12156644D01*
X11648644Y-12156644D01*
X11648644Y-12227356D01*
X11719356Y-12227356D01*
X11719356Y-12481356D02*
X11719356Y-12410644D01*
X11648644Y-12410644D01*
X11648644Y-12481356D01*
X11719356Y-12481356D01*
X11965356Y-7655356D02*
X11965356Y-7584644D01*
X11894644Y-7584644D01*
X11894644Y-7655356D01*
X11965356Y-7655356D01*
X11965356Y-7909356D02*
X11965356Y-7838644D01*
X11894644Y-7838644D01*
X11894644Y-7909356D01*
X11965356Y-7909356D01*
X11973356Y-12227356D02*
X11973356Y-12156644D01*
X11902644Y-12156644D01*
X11902644Y-12227356D01*
X11973356Y-12227356D01*
X11973356Y-12481356D02*
X11973356Y-12410644D01*
X11902644Y-12410644D01*
X11902644Y-12481356D01*
X11973356Y-12481356D01*
X12125756Y-13091956D02*
X12125756Y-13021244D01*
X12055044Y-13021244D01*
X12055044Y-13091956D01*
X12125756Y-13091956D01*
X12127256Y-13472956D02*
X12127256Y-13402244D01*
X12056544Y-13402244D01*
X12056544Y-13472956D01*
X12127256Y-13472956D01*
X12219356Y-7655356D02*
X12219356Y-7584644D01*
X12148644Y-7584644D01*
X12148644Y-7655356D01*
X12219356Y-7655356D01*
X12219356Y-7909356D02*
X12219356Y-7838644D01*
X12148644Y-7838644D01*
X12148644Y-7909356D01*
X12219356Y-7909356D01*
X12373356Y-12227356D02*
X12373356Y-12156644D01*
X12302644Y-12156644D01*
X12302644Y-12227356D01*
X12373356Y-12227356D01*
X12373356Y-12481356D02*
X12373356Y-12410644D01*
X12302644Y-12410644D01*
X12302644Y-12481356D01*
X12373356Y-12481356D01*
X12379756Y-13091956D02*
X12379756Y-13021244D01*
X12309044Y-13021244D01*
X12309044Y-13091956D01*
X12379756Y-13091956D01*
X12381256Y-13472956D02*
X12381256Y-13402244D01*
X12310544Y-13402244D01*
X12310544Y-13472956D01*
X12381256Y-13472956D01*
X12473356Y-7655356D02*
X12473356Y-7584644D01*
X12402644Y-7584644D01*
X12402644Y-7655356D01*
X12473356Y-7655356D01*
X12473356Y-7909356D02*
X12473356Y-7838644D01*
X12402644Y-7838644D01*
X12402644Y-7909356D01*
X12473356Y-7909356D01*
X12627356Y-12227356D02*
X12627356Y-12156644D01*
X12556644Y-12156644D01*
X12556644Y-12227356D01*
X12627356Y-12227356D01*
X12627356Y-12481356D02*
X12627356Y-12410644D01*
X12556644Y-12410644D01*
X12556644Y-12481356D01*
X12627356Y-12481356D01*
X12633756Y-13091956D02*
X12633756Y-13021244D01*
X12563044Y-13021244D01*
X12563044Y-13091956D01*
X12633756Y-13091956D01*
X12635256Y-13472956D02*
X12635256Y-13402244D01*
X12564544Y-13402244D01*
X12564544Y-13472956D01*
X12635256Y-13472956D01*
X12727356Y-7655356D02*
X12727356Y-7584644D01*
X12656644Y-7584644D01*
X12656644Y-7655356D01*
X12727356Y-7655356D01*
X12727356Y-7909356D02*
X12727356Y-7838644D01*
X12656644Y-7838644D01*
X12656644Y-7909356D01*
X12727356Y-7909356D01*
X12735356Y-8913656D02*
X12735356Y-8842944D01*
X12664644Y-8842944D01*
X12664644Y-8913656D01*
X12735356Y-8913656D01*
X12735356Y-9167656D02*
X12735356Y-9096944D01*
X12664644Y-9096944D01*
X12664644Y-9167656D01*
X12735356Y-9167656D01*
X12735356Y-9421656D02*
X12735356Y-9350944D01*
X12664644Y-9350944D01*
X12664644Y-9421656D01*
X12735356Y-9421656D01*
X12735356Y-9675656D02*
X12735356Y-9604944D01*
X12664644Y-9604944D01*
X12664644Y-9675656D01*
X12735356Y-9675656D01*
X12735356Y-10691656D02*
X12735356Y-10620944D01*
X12664644Y-10620944D01*
X12664644Y-10691656D01*
X12735356Y-10691656D01*
X12735356Y-10945656D02*
X12735356Y-10874944D01*
X12664644Y-10874944D01*
X12664644Y-10945656D01*
X12735356Y-10945656D01*
X12735356Y-11199656D02*
X12735356Y-11128944D01*
X12664644Y-11128944D01*
X12664644Y-11199656D01*
X12735356Y-11199656D01*
X12735356Y-11453656D02*
X12735356Y-11382944D01*
X12664644Y-11382944D01*
X12664644Y-11453656D01*
X12735356Y-11453656D01*
X12881356Y-12227356D02*
X12881356Y-12156644D01*
X12810644Y-12156644D01*
X12810644Y-12227356D01*
X12881356Y-12227356D01*
X12881356Y-12481356D02*
X12881356Y-12410644D01*
X12810644Y-12410644D01*
X12810644Y-12481356D01*
X12881356Y-12481356D01*
X12981356Y-7655356D02*
X12981356Y-7584644D01*
X12910644Y-7584644D01*
X12910644Y-7655356D01*
X12981356Y-7655356D01*
X12981356Y-7909356D02*
X12981356Y-7838644D01*
X12910644Y-7838644D01*
X12910644Y-7909356D01*
X12981356Y-7909356D01*
X13135356Y-12227356D02*
X13135356Y-12156644D01*
X13064644Y-12156644D01*
X13064644Y-12227356D01*
X13135356Y-12227356D01*
X13135356Y-12481356D02*
X13135356Y-12410644D01*
X13064644Y-12410644D01*
X13064644Y-12481356D01*
X13135356Y-12481356D01*
X13235356Y-7655356D02*
X13235356Y-7584644D01*
X13164644Y-7584644D01*
X13164644Y-7655356D01*
X13235356Y-7655356D01*
X13235356Y-7909356D02*
X13235356Y-7838644D01*
X13164644Y-7838644D01*
X13164644Y-7909356D01*
X13235356Y-7909356D01*
X13389356Y-12227356D02*
X13389356Y-12156644D01*
X13318644Y-12156644D01*
X13318644Y-12227356D01*
X13389356Y-12227356D01*
X13389356Y-12481356D02*
X13389356Y-12410644D01*
X13318644Y-12410644D01*
X13318644Y-12481356D01*
X13389356Y-12481356D01*
X13489356Y-7655356D02*
X13489356Y-7584644D01*
X13418644Y-7584644D01*
X13418644Y-7655356D01*
X13489356Y-7655356D01*
X13489356Y-7909356D02*
X13489356Y-7838644D01*
X13418644Y-7838644D01*
X13418644Y-7909356D01*
X13489356Y-7909356D01*
X13643356Y-12227356D02*
X13643356Y-12156644D01*
X13572644Y-12156644D01*
X13572644Y-12227356D01*
X13643356Y-12227356D01*
X13643356Y-12481356D02*
X13643356Y-12410644D01*
X13572644Y-12410644D01*
X13572644Y-12481356D01*
X13643356Y-12481356D01*
X13743356Y-7655356D02*
X13743356Y-7584644D01*
X13672644Y-7584644D01*
X13672644Y-7655356D01*
X13743356Y-7655356D01*
X13743356Y-7909356D02*
X13743356Y-7838644D01*
X13672644Y-7838644D01*
X13672644Y-7909356D01*
X13743356Y-7909356D01*
X13897356Y-12227356D02*
X13897356Y-12156644D01*
X13826644Y-12156644D01*
X13826644Y-12227356D01*
X13897356Y-12227356D01*
X13897356Y-12481356D02*
X13897356Y-12410644D01*
X13826644Y-12410644D01*
X13826644Y-12481356D01*
X13897356Y-12481356D01*
X14151356Y-12227356D02*
X14151356Y-12156644D01*
X14080644Y-12156644D01*
X14080644Y-12227356D01*
X14151356Y-12227356D01*
X14151356Y-12481356D02*
X14151356Y-12410644D01*
X14080644Y-12410644D01*
X14080644Y-12481356D01*
X14151356Y-12481356D01*
X14405356Y-12227356D02*
X14405356Y-12156644D01*
X14334644Y-12156644D01*
X14334644Y-12227356D01*
X14405356Y-12227356D01*
X14405356Y-12481356D02*
X14405356Y-12410644D01*
X14334644Y-12410644D01*
X14334644Y-12481356D01*
X14405356Y-12481356D01*
X14659356Y-12227356D02*
X14659356Y-12156644D01*
X14588644Y-12156644D01*
X14588644Y-12227356D01*
X14659356Y-12227356D01*
X14659356Y-12481356D02*
X14659356Y-12410644D01*
X14588644Y-12410644D01*
X14588644Y-12481356D01*
X14659356Y-12481356D01*
X15021356Y-8913656D02*
X15021356Y-8842944D01*
X14950644Y-8842944D01*
X14950644Y-8913656D01*
X15021356Y-8913656D01*
X15021356Y-9167656D02*
X15021356Y-9096944D01*
X14950644Y-9096944D01*
X14950644Y-9167656D01*
X15021356Y-9167656D01*
X15021356Y-9421656D02*
X15021356Y-9350944D01*
X14950644Y-9350944D01*
X14950644Y-9421656D01*
X15021356Y-9421656D01*
X15021356Y-9675656D02*
X15021356Y-9604944D01*
X14950644Y-9604944D01*
X14950644Y-9675656D01*
X15021356Y-9675656D01*
X15021356Y-9929656D02*
X15021356Y-9858944D01*
X14950644Y-9858944D01*
X14950644Y-9929656D01*
X15021356Y-9929656D01*
X15021356Y-10183656D02*
X15021356Y-10112944D01*
X14950644Y-10112944D01*
X14950644Y-10183656D01*
X15021356Y-10183656D01*
X15021356Y-10437656D02*
X15021356Y-10366944D01*
X14950644Y-10366944D01*
X14950644Y-10437656D01*
X15021356Y-10437656D01*
X15021356Y-10691656D02*
X15021356Y-10620944D01*
X14950644Y-10620944D01*
X14950644Y-10691656D01*
X15021356Y-10691656D01*
X15021356Y-10945656D02*
X15021356Y-10874944D01*
X14950644Y-10874944D01*
X14950644Y-10945656D01*
X15021356Y-10945656D01*
X15021356Y-11199656D02*
X15021356Y-11128944D01*
X14950644Y-11128944D01*
X14950644Y-11199656D01*
X15021356Y-11199656D01*
X15021356Y-11453656D02*
X15021356Y-11382944D01*
X14950644Y-11382944D01*
X14950644Y-11453656D01*
X15021356Y-11453656D01*
X15275356Y-12863356D02*
X15275356Y-12792644D01*
X15204644Y-12792644D01*
X15204644Y-12863356D01*
X15275356Y-12863356D01*
X15275356Y-13117356D02*
X15275356Y-13046644D01*
X15204644Y-13046644D01*
X15204644Y-13117356D01*
X15275356Y-13117356D01*
X15275356Y-13498356D02*
X15275356Y-13427644D01*
X15204644Y-13427644D01*
X15204644Y-13498356D01*
X15275356Y-13498356D01*
X15275356Y-13752356D02*
X15275356Y-13681644D01*
X15204644Y-13681644D01*
X15204644Y-13752356D01*
X15275356Y-13752356D01*
X15529356Y-12863356D02*
X15529356Y-12792644D01*
X15458644Y-12792644D01*
X15458644Y-12863356D01*
X15529356Y-12863356D01*
X15529356Y-13117356D02*
X15529356Y-13046644D01*
X15458644Y-13046644D01*
X15458644Y-13117356D01*
X15529356Y-13117356D01*
X15529356Y-13498356D02*
X15529356Y-13427644D01*
X15458644Y-13427644D01*
X15458644Y-13498356D01*
X15529356Y-13498356D01*
X15529356Y-13752356D02*
X15529356Y-13681644D01*
X15458644Y-13681644D01*
X15458644Y-13752356D01*
X15529356Y-13752356D01*
X15783356Y-12094756D02*
X15783356Y-12024044D01*
X15712644Y-12024044D01*
X15712644Y-12094756D01*
X15783356Y-12094756D01*
X15783356Y-12482356D02*
X15783356Y-12411644D01*
X15712644Y-12411644D01*
X15712644Y-12482356D01*
X15783356Y-12482356D01*
X15783356Y-12863356D02*
X15783356Y-12792644D01*
X15712644Y-12792644D01*
X15712644Y-12863356D01*
X15783356Y-12863356D01*
X15783356Y-13117356D02*
X15783356Y-13046644D01*
X15712644Y-13046644D01*
X15712644Y-13117356D01*
X15783356Y-13117356D01*
X15783356Y-13498356D02*
X15783356Y-13427644D01*
X15712644Y-13427644D01*
X15712644Y-13498356D01*
X15783356Y-13498356D01*
X15783356Y-13752356D02*
X15783356Y-13681644D01*
X15712644Y-13681644D01*
X15712644Y-13752356D01*
X15783356Y-13752356D01*
X16037356Y-12094756D02*
X16037356Y-12024044D01*
X15966644Y-12024044D01*
X15966644Y-12094756D01*
X16037356Y-12094756D01*
X16037356Y-12482356D02*
X16037356Y-12411644D01*
X15966644Y-12411644D01*
X15966644Y-12482356D01*
X16037356Y-12482356D01*
X16037356Y-12863356D02*
X16037356Y-12792644D01*
X15966644Y-12792644D01*
X15966644Y-12863356D01*
X16037356Y-12863356D01*
X16037356Y-13117356D02*
X16037356Y-13046644D01*
X15966644Y-13046644D01*
X15966644Y-13117356D01*
X16037356Y-13117356D01*
X16037356Y-13498356D02*
X16037356Y-13427644D01*
X15966644Y-13427644D01*
X15966644Y-13498356D01*
X16037356Y-13498356D01*
X16037356Y-13752356D02*
X16037356Y-13681644D01*
X15966644Y-13681644D01*
X15966644Y-13752356D01*
X16037356Y-13752356D01*
X16291356Y-8913656D02*
X16291356Y-8842944D01*
X16220644Y-8842944D01*
X16220644Y-8913656D01*
X16291356Y-8913656D01*
X16291356Y-9167656D02*
X16291356Y-9096944D01*
X16220644Y-9096944D01*
X16220644Y-9167656D01*
X16291356Y-9167656D01*
X16291356Y-9421656D02*
X16291356Y-9350944D01*
X16220644Y-9350944D01*
X16220644Y-9421656D01*
X16291356Y-9421656D01*
X16291356Y-9675656D02*
X16291356Y-9604944D01*
X16220644Y-9604944D01*
X16220644Y-9675656D01*
X16291356Y-9675656D01*
X16291356Y-10691656D02*
X16291356Y-10620944D01*
X16220644Y-10620944D01*
X16220644Y-10691656D01*
X16291356Y-10691656D01*
X16291356Y-10945656D02*
X16291356Y-10874944D01*
X16220644Y-10874944D01*
X16220644Y-10945656D01*
X16291356Y-10945656D01*
X16291356Y-11199656D02*
X16291356Y-11128944D01*
X16220644Y-11128944D01*
X16220644Y-11199656D01*
X16291356Y-11199656D01*
X16291356Y-11453656D02*
X16291356Y-11382944D01*
X16220644Y-11382944D01*
X16220644Y-11453656D01*
X16291356Y-11453656D01*
X16291356Y-12094756D02*
X16291356Y-12024044D01*
X16220644Y-12024044D01*
X16220644Y-12094756D01*
X16291356Y-12094756D01*
X16291356Y-12482356D02*
X16291356Y-12411644D01*
X16220644Y-12411644D01*
X16220644Y-12482356D01*
X16291356Y-12482356D01*
X16291356Y-12863356D02*
X16291356Y-12792644D01*
X16220644Y-12792644D01*
X16220644Y-12863356D01*
X16291356Y-12863356D01*
X16291356Y-13117356D02*
X16291356Y-13046644D01*
X16220644Y-13046644D01*
X16220644Y-13117356D01*
X16291356Y-13117356D01*
X16291356Y-13498356D02*
X16291356Y-13427644D01*
X16220644Y-13427644D01*
X16220644Y-13498356D01*
X16291356Y-13498356D01*
X16291356Y-13752356D02*
X16291356Y-13681644D01*
X16220644Y-13681644D01*
X16220644Y-13752356D01*
X16291356Y-13752356D01*
X16545356Y-12094756D02*
X16545356Y-12024044D01*
X16474644Y-12024044D01*
X16474644Y-12094756D01*
X16545356Y-12094756D01*
X16545356Y-12482356D02*
X16545356Y-12411644D01*
X16474644Y-12411644D01*
X16474644Y-12482356D01*
X16545356Y-12482356D01*
X16545356Y-12863356D02*
X16545356Y-12792644D01*
X16474644Y-12792644D01*
X16474644Y-12863356D01*
X16545356Y-12863356D01*
X16545356Y-13117356D02*
X16545356Y-13046644D01*
X16474644Y-13046644D01*
X16474644Y-13117356D01*
X16545356Y-13117356D01*
X16545356Y-13498356D02*
X16545356Y-13427644D01*
X16474644Y-13427644D01*
X16474644Y-13498356D01*
X16545356Y-13498356D01*
X16545356Y-13752356D02*
X16545356Y-13681644D01*
X16474644Y-13681644D01*
X16474644Y-13752356D01*
X16545356Y-13752356D01*
D12*
X13643700Y-13474600D02*
X13871200Y-13247100D01*
X13643700Y-13019600D01*
X13416200Y-13247100D01*
X13643700Y-13474600D01*
X14363700Y-13474600D02*
X14591200Y-13247100D01*
X14363700Y-13019600D01*
X14136200Y-13247100D01*
X14363700Y-13474600D01*
X16256000Y-7150000D02*
X16483500Y-6922500D01*
X16256000Y-6695000D01*
X16028500Y-6922500D01*
X16256000Y-7150000D01*
X16256000Y-7870000D02*
X16483500Y-7642500D01*
X16256000Y-7415000D01*
X16028500Y-7642500D01*
X16256000Y-7870000D01*
D11*
X7621777Y-14389084D02*
X7621777Y-14189084D01*
X7621777Y-14189084D02*
X7669396Y-14189084D01*
X7669396Y-14189084D02*
X7697967Y-14198608D01*
X7697967Y-14198608D02*
X7717015Y-14217655D01*
X7717015Y-14217655D02*
X7726539Y-14236703D01*
X7726539Y-14236703D02*
X7736062Y-14274798D01*
X7736062Y-14274798D02*
X7736062Y-14303369D01*
X7736062Y-14303369D02*
X7726539Y-14341465D01*
X7726539Y-14341465D02*
X7717015Y-14360512D01*
X7717015Y-14360512D02*
X7697967Y-14379560D01*
X7697967Y-14379560D02*
X7669396Y-14389084D01*
X7669396Y-14389084D02*
X7621777Y-14389084D01*
X7821777Y-14389084D02*
X7821777Y-14255750D01*
X7821777Y-14293846D02*
X7831301Y-14274798D01*
X7831301Y-14274798D02*
X7840824Y-14265274D01*
X7840824Y-14265274D02*
X7859872Y-14255750D01*
X7859872Y-14255750D02*
X7878920Y-14255750D01*
X7945586Y-14389084D02*
X7945586Y-14255750D01*
X7945586Y-14189084D02*
X7936062Y-14198608D01*
X7936062Y-14198608D02*
X7945586Y-14208131D01*
X7945586Y-14208131D02*
X7955110Y-14198608D01*
X7955110Y-14198608D02*
X7945586Y-14189084D01*
X7945586Y-14189084D02*
X7945586Y-14208131D01*
X8069396Y-14389084D02*
X8050348Y-14379560D01*
X8050348Y-14379560D02*
X8040824Y-14360512D01*
X8040824Y-14360512D02*
X8040824Y-14189084D01*
X8174158Y-14389084D02*
X8155110Y-14379560D01*
X8155110Y-14379560D02*
X8145586Y-14360512D01*
X8145586Y-14360512D02*
X8145586Y-14189084D01*
X8402729Y-14389084D02*
X8402729Y-14189084D01*
X8402729Y-14189084D02*
X8469396Y-14331941D01*
X8469396Y-14331941D02*
X8536063Y-14189084D01*
X8536063Y-14189084D02*
X8536063Y-14389084D01*
X8717015Y-14389084D02*
X8717015Y-14284322D01*
X8717015Y-14284322D02*
X8707491Y-14265274D01*
X8707491Y-14265274D02*
X8688444Y-14255750D01*
X8688444Y-14255750D02*
X8650348Y-14255750D01*
X8650348Y-14255750D02*
X8631301Y-14265274D01*
X8717015Y-14379560D02*
X8697967Y-14389084D01*
X8697967Y-14389084D02*
X8650348Y-14389084D01*
X8650348Y-14389084D02*
X8631301Y-14379560D01*
X8631301Y-14379560D02*
X8621777Y-14360512D01*
X8621777Y-14360512D02*
X8621777Y-14341465D01*
X8621777Y-14341465D02*
X8631301Y-14322417D01*
X8631301Y-14322417D02*
X8650348Y-14312893D01*
X8650348Y-14312893D02*
X8697967Y-14312893D01*
X8697967Y-14312893D02*
X8717015Y-14303369D01*
X8812253Y-14255750D02*
X8812253Y-14455750D01*
X8812253Y-14265274D02*
X8831301Y-14255750D01*
X8831301Y-14255750D02*
X8869396Y-14255750D01*
X8869396Y-14255750D02*
X8888444Y-14265274D01*
X8888444Y-14265274D02*
X8897967Y-14274798D01*
X8897967Y-14274798D02*
X8907491Y-14293846D01*
X8907491Y-14293846D02*
X8907491Y-14350988D01*
X8907491Y-14350988D02*
X8897967Y-14370036D01*
X8897967Y-14370036D02*
X8888444Y-14379560D01*
X8888444Y-14379560D02*
X8869396Y-14389084D01*
X8869396Y-14389084D02*
X8831301Y-14389084D01*
X8831301Y-14389084D02*
X8812253Y-14379560D01*
X8993205Y-14370036D02*
X9002729Y-14379560D01*
X9002729Y-14379560D02*
X8993205Y-14389084D01*
X8993205Y-14389084D02*
X8983682Y-14379560D01*
X8983682Y-14379560D02*
X8993205Y-14370036D01*
X8993205Y-14370036D02*
X8993205Y-14389084D01*
X8993205Y-14265274D02*
X9002729Y-14274798D01*
X9002729Y-14274798D02*
X8993205Y-14284322D01*
X8993205Y-14284322D02*
X8983682Y-14274798D01*
X8983682Y-14274798D02*
X8993205Y-14265274D01*
X8993205Y-14265274D02*
X8993205Y-14284322D01*
D10*
X7321000Y-14697600D02*
X7361000Y-14737600D01*
X7361000Y-14697600D02*
X7321000Y-14737600D01*
D11*
X7659872Y-14609084D02*
X7678920Y-14609084D01*
X7678920Y-14609084D02*
X7697967Y-14618608D01*
X7697967Y-14618608D02*
X7707491Y-14628131D01*
X7707491Y-14628131D02*
X7717015Y-14647179D01*
X7717015Y-14647179D02*
X7726539Y-14685274D01*
X7726539Y-14685274D02*
X7726539Y-14732893D01*
X7726539Y-14732893D02*
X7717015Y-14770988D01*
X7717015Y-14770988D02*
X7707491Y-14790036D01*
X7707491Y-14790036D02*
X7697967Y-14799560D01*
X7697967Y-14799560D02*
X7678920Y-14809084D01*
X7678920Y-14809084D02*
X7659872Y-14809084D01*
X7659872Y-14809084D02*
X7640824Y-14799560D01*
X7640824Y-14799560D02*
X7631301Y-14790036D01*
X7631301Y-14790036D02*
X7621777Y-14770988D01*
X7621777Y-14770988D02*
X7612253Y-14732893D01*
X7612253Y-14732893D02*
X7612253Y-14685274D01*
X7612253Y-14685274D02*
X7621777Y-14647179D01*
X7621777Y-14647179D02*
X7631301Y-14628131D01*
X7631301Y-14628131D02*
X7640824Y-14618608D01*
X7640824Y-14618608D02*
X7659872Y-14609084D01*
X7812253Y-14790036D02*
X7821777Y-14799560D01*
X7821777Y-14799560D02*
X7812253Y-14809084D01*
X7812253Y-14809084D02*
X7802729Y-14799560D01*
X7802729Y-14799560D02*
X7812253Y-14790036D01*
X7812253Y-14790036D02*
X7812253Y-14809084D01*
X7993205Y-14675750D02*
X7993205Y-14809084D01*
X7945586Y-14599560D02*
X7897967Y-14742417D01*
X7897967Y-14742417D02*
X8021777Y-14742417D01*
X8136062Y-14609084D02*
X8155110Y-14609084D01*
X8155110Y-14609084D02*
X8174158Y-14618608D01*
X8174158Y-14618608D02*
X8183682Y-14628131D01*
X8183682Y-14628131D02*
X8193205Y-14647179D01*
X8193205Y-14647179D02*
X8202729Y-14685274D01*
X8202729Y-14685274D02*
X8202729Y-14732893D01*
X8202729Y-14732893D02*
X8193205Y-14770988D01*
X8193205Y-14770988D02*
X8183682Y-14790036D01*
X8183682Y-14790036D02*
X8174158Y-14799560D01*
X8174158Y-14799560D02*
X8155110Y-14809084D01*
X8155110Y-14809084D02*
X8136062Y-14809084D01*
X8136062Y-14809084D02*
X8117015Y-14799560D01*
X8117015Y-14799560D02*
X8107491Y-14790036D01*
X8107491Y-14790036D02*
X8097967Y-14770988D01*
X8097967Y-14770988D02*
X8088443Y-14732893D01*
X8088443Y-14732893D02*
X8088443Y-14685274D01*
X8088443Y-14685274D02*
X8097967Y-14647179D01*
X8097967Y-14647179D02*
X8107491Y-14628131D01*
X8107491Y-14628131D02*
X8117015Y-14618608D01*
X8117015Y-14618608D02*
X8136062Y-14609084D01*
X8326539Y-14609084D02*
X8345586Y-14609084D01*
X8345586Y-14609084D02*
X8364634Y-14618608D01*
X8364634Y-14618608D02*
X8374158Y-14628131D01*
X8374158Y-14628131D02*
X8383682Y-14647179D01*
X8383682Y-14647179D02*
X8393205Y-14685274D01*
X8393205Y-14685274D02*
X8393205Y-14732893D01*
X8393205Y-14732893D02*
X8383682Y-14770988D01*
X8383682Y-14770988D02*
X8374158Y-14790036D01*
X8374158Y-14790036D02*
X8364634Y-14799560D01*
X8364634Y-14799560D02*
X8345586Y-14809084D01*
X8345586Y-14809084D02*
X8326539Y-14809084D01*
X8326539Y-14809084D02*
X8307491Y-14799560D01*
X8307491Y-14799560D02*
X8297967Y-14790036D01*
X8297967Y-14790036D02*
X8288443Y-14770988D01*
X8288443Y-14770988D02*
X8278920Y-14732893D01*
X8278920Y-14732893D02*
X8278920Y-14685274D01*
X8278920Y-14685274D02*
X8288443Y-14647179D01*
X8288443Y-14647179D02*
X8297967Y-14628131D01*
X8297967Y-14628131D02*
X8307491Y-14618608D01*
X8307491Y-14618608D02*
X8326539Y-14609084D01*
X8478920Y-14809084D02*
X8478920Y-14675750D01*
X8478920Y-14694798D02*
X8488444Y-14685274D01*
X8488444Y-14685274D02*
X8507491Y-14675750D01*
X8507491Y-14675750D02*
X8536063Y-14675750D01*
X8536063Y-14675750D02*
X8555110Y-14685274D01*
X8555110Y-14685274D02*
X8564634Y-14704322D01*
X8564634Y-14704322D02*
X8564634Y-14809084D01*
X8564634Y-14704322D02*
X8574158Y-14685274D01*
X8574158Y-14685274D02*
X8593205Y-14675750D01*
X8593205Y-14675750D02*
X8621777Y-14675750D01*
X8621777Y-14675750D02*
X8640825Y-14685274D01*
X8640825Y-14685274D02*
X8650348Y-14704322D01*
X8650348Y-14704322D02*
X8650348Y-14809084D01*
X8745586Y-14809084D02*
X8745586Y-14675750D01*
X8745586Y-14694798D02*
X8755110Y-14685274D01*
X8755110Y-14685274D02*
X8774158Y-14675750D01*
X8774158Y-14675750D02*
X8802729Y-14675750D01*
X8802729Y-14675750D02*
X8821777Y-14685274D01*
X8821777Y-14685274D02*
X8831301Y-14704322D01*
X8831301Y-14704322D02*
X8831301Y-14809084D01*
X8831301Y-14704322D02*
X8840825Y-14685274D01*
X8840825Y-14685274D02*
X8859872Y-14675750D01*
X8859872Y-14675750D02*
X8888444Y-14675750D01*
X8888444Y-14675750D02*
X8907491Y-14685274D01*
X8907491Y-14685274D02*
X8917015Y-14704322D01*
X8917015Y-14704322D02*
X8917015Y-14809084D01*
X9307491Y-14599560D02*
X9136063Y-14856703D01*
X9564634Y-14609084D02*
X9583682Y-14609084D01*
X9583682Y-14609084D02*
X9602729Y-14618608D01*
X9602729Y-14618608D02*
X9612253Y-14628131D01*
X9612253Y-14628131D02*
X9621777Y-14647179D01*
X9621777Y-14647179D02*
X9631301Y-14685274D01*
X9631301Y-14685274D02*
X9631301Y-14732893D01*
X9631301Y-14732893D02*
X9621777Y-14770988D01*
X9621777Y-14770988D02*
X9612253Y-14790036D01*
X9612253Y-14790036D02*
X9602729Y-14799560D01*
X9602729Y-14799560D02*
X9583682Y-14809084D01*
X9583682Y-14809084D02*
X9564634Y-14809084D01*
X9564634Y-14809084D02*
X9545587Y-14799560D01*
X9545587Y-14799560D02*
X9536063Y-14790036D01*
X9536063Y-14790036D02*
X9526539Y-14770988D01*
X9526539Y-14770988D02*
X9517015Y-14732893D01*
X9517015Y-14732893D02*
X9517015Y-14685274D01*
X9517015Y-14685274D02*
X9526539Y-14647179D01*
X9526539Y-14647179D02*
X9536063Y-14628131D01*
X9536063Y-14628131D02*
X9545587Y-14618608D01*
X9545587Y-14618608D02*
X9564634Y-14609084D01*
X9717015Y-14790036D02*
X9726539Y-14799560D01*
X9726539Y-14799560D02*
X9717015Y-14809084D01*
X9717015Y-14809084D02*
X9707491Y-14799560D01*
X9707491Y-14799560D02*
X9717015Y-14790036D01*
X9717015Y-14790036D02*
X9717015Y-14809084D01*
X9850348Y-14609084D02*
X9869396Y-14609084D01*
X9869396Y-14609084D02*
X9888444Y-14618608D01*
X9888444Y-14618608D02*
X9897968Y-14628131D01*
X9897968Y-14628131D02*
X9907491Y-14647179D01*
X9907491Y-14647179D02*
X9917015Y-14685274D01*
X9917015Y-14685274D02*
X9917015Y-14732893D01*
X9917015Y-14732893D02*
X9907491Y-14770988D01*
X9907491Y-14770988D02*
X9897968Y-14790036D01*
X9897968Y-14790036D02*
X9888444Y-14799560D01*
X9888444Y-14799560D02*
X9869396Y-14809084D01*
X9869396Y-14809084D02*
X9850348Y-14809084D01*
X9850348Y-14809084D02*
X9831301Y-14799560D01*
X9831301Y-14799560D02*
X9821777Y-14790036D01*
X9821777Y-14790036D02*
X9812253Y-14770988D01*
X9812253Y-14770988D02*
X9802729Y-14732893D01*
X9802729Y-14732893D02*
X9802729Y-14685274D01*
X9802729Y-14685274D02*
X9812253Y-14647179D01*
X9812253Y-14647179D02*
X9821777Y-14628131D01*
X9821777Y-14628131D02*
X9831301Y-14618608D01*
X9831301Y-14618608D02*
X9850348Y-14609084D01*
X10107491Y-14809084D02*
X9993206Y-14809084D01*
X10050348Y-14809084D02*
X10050348Y-14609084D01*
X10050348Y-14609084D02*
X10031301Y-14637655D01*
X10031301Y-14637655D02*
X10012253Y-14656703D01*
X10012253Y-14656703D02*
X9993206Y-14666227D01*
X10288444Y-14609084D02*
X10193206Y-14609084D01*
X10193206Y-14609084D02*
X10183682Y-14704322D01*
X10183682Y-14704322D02*
X10193206Y-14694798D01*
X10193206Y-14694798D02*
X10212253Y-14685274D01*
X10212253Y-14685274D02*
X10259872Y-14685274D01*
X10259872Y-14685274D02*
X10278920Y-14694798D01*
X10278920Y-14694798D02*
X10288444Y-14704322D01*
X10288444Y-14704322D02*
X10297968Y-14723369D01*
X10297968Y-14723369D02*
X10297968Y-14770988D01*
X10297968Y-14770988D02*
X10288444Y-14790036D01*
X10288444Y-14790036D02*
X10278920Y-14799560D01*
X10278920Y-14799560D02*
X10259872Y-14809084D01*
X10259872Y-14809084D02*
X10212253Y-14809084D01*
X10212253Y-14809084D02*
X10193206Y-14799560D01*
X10193206Y-14799560D02*
X10183682Y-14790036D01*
X10364634Y-14609084D02*
X10497968Y-14609084D01*
X10497968Y-14609084D02*
X10412253Y-14809084D01*
X10564634Y-14609084D02*
X10564634Y-14647179D01*
X10640825Y-14609084D02*
X10640825Y-14647179D01*
X10936063Y-14885274D02*
X10926539Y-14875750D01*
X10926539Y-14875750D02*
X10907491Y-14847179D01*
X10907491Y-14847179D02*
X10897968Y-14828131D01*
X10897968Y-14828131D02*
X10888444Y-14799560D01*
X10888444Y-14799560D02*
X10878920Y-14751941D01*
X10878920Y-14751941D02*
X10878920Y-14713846D01*
X10878920Y-14713846D02*
X10888444Y-14666227D01*
X10888444Y-14666227D02*
X10897968Y-14637655D01*
X10897968Y-14637655D02*
X10907491Y-14618608D01*
X10907491Y-14618608D02*
X10926539Y-14590036D01*
X10926539Y-14590036D02*
X10936063Y-14580512D01*
X11021777Y-14809084D02*
X11059872Y-14809084D01*
X11059872Y-14809084D02*
X11078920Y-14799560D01*
X11078920Y-14799560D02*
X11088444Y-14790036D01*
X11088444Y-14790036D02*
X11107491Y-14761465D01*
X11107491Y-14761465D02*
X11117015Y-14723369D01*
X11117015Y-14723369D02*
X11117015Y-14647179D01*
X11117015Y-14647179D02*
X11107491Y-14628131D01*
X11107491Y-14628131D02*
X11097968Y-14618608D01*
X11097968Y-14618608D02*
X11078920Y-14609084D01*
X11078920Y-14609084D02*
X11040825Y-14609084D01*
X11040825Y-14609084D02*
X11021777Y-14618608D01*
X11021777Y-14618608D02*
X11012253Y-14628131D01*
X11012253Y-14628131D02*
X11002730Y-14647179D01*
X11002730Y-14647179D02*
X11002730Y-14694798D01*
X11002730Y-14694798D02*
X11012253Y-14713846D01*
X11012253Y-14713846D02*
X11021777Y-14723369D01*
X11021777Y-14723369D02*
X11040825Y-14732893D01*
X11040825Y-14732893D02*
X11078920Y-14732893D01*
X11078920Y-14732893D02*
X11097968Y-14723369D01*
X11097968Y-14723369D02*
X11107491Y-14713846D01*
X11107491Y-14713846D02*
X11117015Y-14694798D01*
X11183682Y-14609084D02*
X11307491Y-14609084D01*
X11307491Y-14609084D02*
X11240825Y-14685274D01*
X11240825Y-14685274D02*
X11269396Y-14685274D01*
X11269396Y-14685274D02*
X11288444Y-14694798D01*
X11288444Y-14694798D02*
X11297968Y-14704322D01*
X11297968Y-14704322D02*
X11307491Y-14723369D01*
X11307491Y-14723369D02*
X11307491Y-14770988D01*
X11307491Y-14770988D02*
X11297968Y-14790036D01*
X11297968Y-14790036D02*
X11288444Y-14799560D01*
X11288444Y-14799560D02*
X11269396Y-14809084D01*
X11269396Y-14809084D02*
X11212253Y-14809084D01*
X11212253Y-14809084D02*
X11193206Y-14799560D01*
X11193206Y-14799560D02*
X11183682Y-14790036D01*
X11545587Y-14809084D02*
X11545587Y-14609084D01*
X11631301Y-14809084D02*
X11631301Y-14704322D01*
X11631301Y-14704322D02*
X11621777Y-14685274D01*
X11621777Y-14685274D02*
X11602730Y-14675750D01*
X11602730Y-14675750D02*
X11574158Y-14675750D01*
X11574158Y-14675750D02*
X11555110Y-14685274D01*
X11555110Y-14685274D02*
X11545587Y-14694798D01*
X11755110Y-14809084D02*
X11736063Y-14799560D01*
X11736063Y-14799560D02*
X11726539Y-14790036D01*
X11726539Y-14790036D02*
X11717015Y-14770988D01*
X11717015Y-14770988D02*
X11717015Y-14713846D01*
X11717015Y-14713846D02*
X11726539Y-14694798D01*
X11726539Y-14694798D02*
X11736063Y-14685274D01*
X11736063Y-14685274D02*
X11755110Y-14675750D01*
X11755110Y-14675750D02*
X11783682Y-14675750D01*
X11783682Y-14675750D02*
X11802730Y-14685274D01*
X11802730Y-14685274D02*
X11812253Y-14694798D01*
X11812253Y-14694798D02*
X11821777Y-14713846D01*
X11821777Y-14713846D02*
X11821777Y-14770988D01*
X11821777Y-14770988D02*
X11812253Y-14790036D01*
X11812253Y-14790036D02*
X11802730Y-14799560D01*
X11802730Y-14799560D02*
X11783682Y-14809084D01*
X11783682Y-14809084D02*
X11755110Y-14809084D01*
X11936063Y-14809084D02*
X11917015Y-14799560D01*
X11917015Y-14799560D02*
X11907491Y-14780512D01*
X11907491Y-14780512D02*
X11907491Y-14609084D01*
X12088444Y-14799560D02*
X12069396Y-14809084D01*
X12069396Y-14809084D02*
X12031301Y-14809084D01*
X12031301Y-14809084D02*
X12012253Y-14799560D01*
X12012253Y-14799560D02*
X12002730Y-14780512D01*
X12002730Y-14780512D02*
X12002730Y-14704322D01*
X12002730Y-14704322D02*
X12012253Y-14685274D01*
X12012253Y-14685274D02*
X12031301Y-14675750D01*
X12031301Y-14675750D02*
X12069396Y-14675750D01*
X12069396Y-14675750D02*
X12088444Y-14685274D01*
X12088444Y-14685274D02*
X12097968Y-14704322D01*
X12097968Y-14704322D02*
X12097968Y-14723369D01*
X12097968Y-14723369D02*
X12002730Y-14742417D01*
X12174158Y-14799560D02*
X12193206Y-14809084D01*
X12193206Y-14809084D02*
X12231301Y-14809084D01*
X12231301Y-14809084D02*
X12250349Y-14799560D01*
X12250349Y-14799560D02*
X12259872Y-14780512D01*
X12259872Y-14780512D02*
X12259872Y-14770988D01*
X12259872Y-14770988D02*
X12250349Y-14751941D01*
X12250349Y-14751941D02*
X12231301Y-14742417D01*
X12231301Y-14742417D02*
X12202730Y-14742417D01*
X12202730Y-14742417D02*
X12183682Y-14732893D01*
X12183682Y-14732893D02*
X12174158Y-14713846D01*
X12174158Y-14713846D02*
X12174158Y-14704322D01*
X12174158Y-14704322D02*
X12183682Y-14685274D01*
X12183682Y-14685274D02*
X12202730Y-14675750D01*
X12202730Y-14675750D02*
X12231301Y-14675750D01*
X12231301Y-14675750D02*
X12250349Y-14685274D01*
X12326539Y-14885274D02*
X12336063Y-14875750D01*
X12336063Y-14875750D02*
X12355111Y-14847179D01*
X12355111Y-14847179D02*
X12364634Y-14828131D01*
X12364634Y-14828131D02*
X12374158Y-14799560D01*
X12374158Y-14799560D02*
X12383682Y-14751941D01*
X12383682Y-14751941D02*
X12383682Y-14713846D01*
X12383682Y-14713846D02*
X12374158Y-14666227D01*
X12374158Y-14666227D02*
X12364634Y-14637655D01*
X12364634Y-14637655D02*
X12355111Y-14618608D01*
X12355111Y-14618608D02*
X12336063Y-14590036D01*
X12336063Y-14590036D02*
X12326539Y-14580512D01*
D10*
X7361000Y-14981600D02*
G75*
G02*
X7306000Y-14981600I-27500J0D01*
G01*
X7306000Y-14981600D02*
G75*
G02*
X7361000Y-14981600I27500J0D01*
G01*
D11*
X7659872Y-14873084D02*
X7678920Y-14873084D01*
X7678920Y-14873084D02*
X7697967Y-14882608D01*
X7697967Y-14882608D02*
X7707491Y-14892131D01*
X7707491Y-14892131D02*
X7717015Y-14911179D01*
X7717015Y-14911179D02*
X7726539Y-14949274D01*
X7726539Y-14949274D02*
X7726539Y-14996893D01*
X7726539Y-14996893D02*
X7717015Y-15034988D01*
X7717015Y-15034988D02*
X7707491Y-15054036D01*
X7707491Y-15054036D02*
X7697967Y-15063560D01*
X7697967Y-15063560D02*
X7678920Y-15073084D01*
X7678920Y-15073084D02*
X7659872Y-15073084D01*
X7659872Y-15073084D02*
X7640824Y-15063560D01*
X7640824Y-15063560D02*
X7631301Y-15054036D01*
X7631301Y-15054036D02*
X7621777Y-15034988D01*
X7621777Y-15034988D02*
X7612253Y-14996893D01*
X7612253Y-14996893D02*
X7612253Y-14949274D01*
X7612253Y-14949274D02*
X7621777Y-14911179D01*
X7621777Y-14911179D02*
X7631301Y-14892131D01*
X7631301Y-14892131D02*
X7640824Y-14882608D01*
X7640824Y-14882608D02*
X7659872Y-14873084D01*
X7812253Y-15054036D02*
X7821777Y-15063560D01*
X7821777Y-15063560D02*
X7812253Y-15073084D01*
X7812253Y-15073084D02*
X7802729Y-15063560D01*
X7802729Y-15063560D02*
X7812253Y-15054036D01*
X7812253Y-15054036D02*
X7812253Y-15073084D01*
X8002729Y-14873084D02*
X7907491Y-14873084D01*
X7907491Y-14873084D02*
X7897967Y-14968322D01*
X7897967Y-14968322D02*
X7907491Y-14958798D01*
X7907491Y-14958798D02*
X7926539Y-14949274D01*
X7926539Y-14949274D02*
X7974158Y-14949274D01*
X7974158Y-14949274D02*
X7993205Y-14958798D01*
X7993205Y-14958798D02*
X8002729Y-14968322D01*
X8002729Y-14968322D02*
X8012253Y-14987369D01*
X8012253Y-14987369D02*
X8012253Y-15034988D01*
X8012253Y-15034988D02*
X8002729Y-15054036D01*
X8002729Y-15054036D02*
X7993205Y-15063560D01*
X7993205Y-15063560D02*
X7974158Y-15073084D01*
X7974158Y-15073084D02*
X7926539Y-15073084D01*
X7926539Y-15073084D02*
X7907491Y-15063560D01*
X7907491Y-15063560D02*
X7897967Y-15054036D01*
X8193205Y-14873084D02*
X8097967Y-14873084D01*
X8097967Y-14873084D02*
X8088443Y-14968322D01*
X8088443Y-14968322D02*
X8097967Y-14958798D01*
X8097967Y-14958798D02*
X8117015Y-14949274D01*
X8117015Y-14949274D02*
X8164634Y-14949274D01*
X8164634Y-14949274D02*
X8183682Y-14958798D01*
X8183682Y-14958798D02*
X8193205Y-14968322D01*
X8193205Y-14968322D02*
X8202729Y-14987369D01*
X8202729Y-14987369D02*
X8202729Y-15034988D01*
X8202729Y-15034988D02*
X8193205Y-15054036D01*
X8193205Y-15054036D02*
X8183682Y-15063560D01*
X8183682Y-15063560D02*
X8164634Y-15073084D01*
X8164634Y-15073084D02*
X8117015Y-15073084D01*
X8117015Y-15073084D02*
X8097967Y-15063560D01*
X8097967Y-15063560D02*
X8088443Y-15054036D01*
X8326539Y-14873084D02*
X8345586Y-14873084D01*
X8345586Y-14873084D02*
X8364634Y-14882608D01*
X8364634Y-14882608D02*
X8374158Y-14892131D01*
X8374158Y-14892131D02*
X8383682Y-14911179D01*
X8383682Y-14911179D02*
X8393205Y-14949274D01*
X8393205Y-14949274D02*
X8393205Y-14996893D01*
X8393205Y-14996893D02*
X8383682Y-15034988D01*
X8383682Y-15034988D02*
X8374158Y-15054036D01*
X8374158Y-15054036D02*
X8364634Y-15063560D01*
X8364634Y-15063560D02*
X8345586Y-15073084D01*
X8345586Y-15073084D02*
X8326539Y-15073084D01*
X8326539Y-15073084D02*
X8307491Y-15063560D01*
X8307491Y-15063560D02*
X8297967Y-15054036D01*
X8297967Y-15054036D02*
X8288443Y-15034988D01*
X8288443Y-15034988D02*
X8278920Y-14996893D01*
X8278920Y-14996893D02*
X8278920Y-14949274D01*
X8278920Y-14949274D02*
X8288443Y-14911179D01*
X8288443Y-14911179D02*
X8297967Y-14892131D01*
X8297967Y-14892131D02*
X8307491Y-14882608D01*
X8307491Y-14882608D02*
X8326539Y-14873084D01*
X8478920Y-15073084D02*
X8478920Y-14939750D01*
X8478920Y-14958798D02*
X8488444Y-14949274D01*
X8488444Y-14949274D02*
X8507491Y-14939750D01*
X8507491Y-14939750D02*
X8536063Y-14939750D01*
X8536063Y-14939750D02*
X8555110Y-14949274D01*
X8555110Y-14949274D02*
X8564634Y-14968322D01*
X8564634Y-14968322D02*
X8564634Y-15073084D01*
X8564634Y-14968322D02*
X8574158Y-14949274D01*
X8574158Y-14949274D02*
X8593205Y-14939750D01*
X8593205Y-14939750D02*
X8621777Y-14939750D01*
X8621777Y-14939750D02*
X8640825Y-14949274D01*
X8640825Y-14949274D02*
X8650348Y-14968322D01*
X8650348Y-14968322D02*
X8650348Y-15073084D01*
X8745586Y-15073084D02*
X8745586Y-14939750D01*
X8745586Y-14958798D02*
X8755110Y-14949274D01*
X8755110Y-14949274D02*
X8774158Y-14939750D01*
X8774158Y-14939750D02*
X8802729Y-14939750D01*
X8802729Y-14939750D02*
X8821777Y-14949274D01*
X8821777Y-14949274D02*
X8831301Y-14968322D01*
X8831301Y-14968322D02*
X8831301Y-15073084D01*
X8831301Y-14968322D02*
X8840825Y-14949274D01*
X8840825Y-14949274D02*
X8859872Y-14939750D01*
X8859872Y-14939750D02*
X8888444Y-14939750D01*
X8888444Y-14939750D02*
X8907491Y-14949274D01*
X8907491Y-14949274D02*
X8917015Y-14968322D01*
X8917015Y-14968322D02*
X8917015Y-15073084D01*
X9307491Y-14863560D02*
X9136063Y-15120703D01*
X9564634Y-14873084D02*
X9583682Y-14873084D01*
X9583682Y-14873084D02*
X9602729Y-14882608D01*
X9602729Y-14882608D02*
X9612253Y-14892131D01*
X9612253Y-14892131D02*
X9621777Y-14911179D01*
X9621777Y-14911179D02*
X9631301Y-14949274D01*
X9631301Y-14949274D02*
X9631301Y-14996893D01*
X9631301Y-14996893D02*
X9621777Y-15034988D01*
X9621777Y-15034988D02*
X9612253Y-15054036D01*
X9612253Y-15054036D02*
X9602729Y-15063560D01*
X9602729Y-15063560D02*
X9583682Y-15073084D01*
X9583682Y-15073084D02*
X9564634Y-15073084D01*
X9564634Y-15073084D02*
X9545587Y-15063560D01*
X9545587Y-15063560D02*
X9536063Y-15054036D01*
X9536063Y-15054036D02*
X9526539Y-15034988D01*
X9526539Y-15034988D02*
X9517015Y-14996893D01*
X9517015Y-14996893D02*
X9517015Y-14949274D01*
X9517015Y-14949274D02*
X9526539Y-14911179D01*
X9526539Y-14911179D02*
X9536063Y-14892131D01*
X9536063Y-14892131D02*
X9545587Y-14882608D01*
X9545587Y-14882608D02*
X9564634Y-14873084D01*
X9717015Y-15054036D02*
X9726539Y-15063560D01*
X9726539Y-15063560D02*
X9717015Y-15073084D01*
X9717015Y-15073084D02*
X9707491Y-15063560D01*
X9707491Y-15063560D02*
X9717015Y-15054036D01*
X9717015Y-15054036D02*
X9717015Y-15073084D01*
X9850348Y-14873084D02*
X9869396Y-14873084D01*
X9869396Y-14873084D02*
X9888444Y-14882608D01*
X9888444Y-14882608D02*
X9897968Y-14892131D01*
X9897968Y-14892131D02*
X9907491Y-14911179D01*
X9907491Y-14911179D02*
X9917015Y-14949274D01*
X9917015Y-14949274D02*
X9917015Y-14996893D01*
X9917015Y-14996893D02*
X9907491Y-15034988D01*
X9907491Y-15034988D02*
X9897968Y-15054036D01*
X9897968Y-15054036D02*
X9888444Y-15063560D01*
X9888444Y-15063560D02*
X9869396Y-15073084D01*
X9869396Y-15073084D02*
X9850348Y-15073084D01*
X9850348Y-15073084D02*
X9831301Y-15063560D01*
X9831301Y-15063560D02*
X9821777Y-15054036D01*
X9821777Y-15054036D02*
X9812253Y-15034988D01*
X9812253Y-15034988D02*
X9802729Y-14996893D01*
X9802729Y-14996893D02*
X9802729Y-14949274D01*
X9802729Y-14949274D02*
X9812253Y-14911179D01*
X9812253Y-14911179D02*
X9821777Y-14892131D01*
X9821777Y-14892131D02*
X9831301Y-14882608D01*
X9831301Y-14882608D02*
X9850348Y-14873084D01*
X9993206Y-14892131D02*
X10002729Y-14882608D01*
X10002729Y-14882608D02*
X10021777Y-14873084D01*
X10021777Y-14873084D02*
X10069396Y-14873084D01*
X10069396Y-14873084D02*
X10088444Y-14882608D01*
X10088444Y-14882608D02*
X10097968Y-14892131D01*
X10097968Y-14892131D02*
X10107491Y-14911179D01*
X10107491Y-14911179D02*
X10107491Y-14930227D01*
X10107491Y-14930227D02*
X10097968Y-14958798D01*
X10097968Y-14958798D02*
X9983682Y-15073084D01*
X9983682Y-15073084D02*
X10107491Y-15073084D01*
X10297968Y-15073084D02*
X10183682Y-15073084D01*
X10240825Y-15073084D02*
X10240825Y-14873084D01*
X10240825Y-14873084D02*
X10221777Y-14901655D01*
X10221777Y-14901655D02*
X10202729Y-14920703D01*
X10202729Y-14920703D02*
X10183682Y-14930227D01*
X10364634Y-14873084D02*
X10497968Y-14873084D01*
X10497968Y-14873084D02*
X10412253Y-15073084D01*
X10564634Y-14873084D02*
X10564634Y-14911179D01*
X10640825Y-14873084D02*
X10640825Y-14911179D01*
X10936063Y-15149274D02*
X10926539Y-15139750D01*
X10926539Y-15139750D02*
X10907491Y-15111179D01*
X10907491Y-15111179D02*
X10897968Y-15092131D01*
X10897968Y-15092131D02*
X10888444Y-15063560D01*
X10888444Y-15063560D02*
X10878920Y-15015941D01*
X10878920Y-15015941D02*
X10878920Y-14977846D01*
X10878920Y-14977846D02*
X10888444Y-14930227D01*
X10888444Y-14930227D02*
X10897968Y-14901655D01*
X10897968Y-14901655D02*
X10907491Y-14882608D01*
X10907491Y-14882608D02*
X10926539Y-14854036D01*
X10926539Y-14854036D02*
X10936063Y-14844512D01*
X11002730Y-14892131D02*
X11012253Y-14882608D01*
X11012253Y-14882608D02*
X11031301Y-14873084D01*
X11031301Y-14873084D02*
X11078920Y-14873084D01*
X11078920Y-14873084D02*
X11097968Y-14882608D01*
X11097968Y-14882608D02*
X11107491Y-14892131D01*
X11107491Y-14892131D02*
X11117015Y-14911179D01*
X11117015Y-14911179D02*
X11117015Y-14930227D01*
X11117015Y-14930227D02*
X11107491Y-14958798D01*
X11107491Y-14958798D02*
X10993206Y-15073084D01*
X10993206Y-15073084D02*
X11117015Y-15073084D01*
X11288444Y-14939750D02*
X11288444Y-15073084D01*
X11240825Y-14863560D02*
X11193206Y-15006417D01*
X11193206Y-15006417D02*
X11317015Y-15006417D01*
X11545587Y-15073084D02*
X11545587Y-14873084D01*
X11631301Y-15073084D02*
X11631301Y-14968322D01*
X11631301Y-14968322D02*
X11621777Y-14949274D01*
X11621777Y-14949274D02*
X11602730Y-14939750D01*
X11602730Y-14939750D02*
X11574158Y-14939750D01*
X11574158Y-14939750D02*
X11555110Y-14949274D01*
X11555110Y-14949274D02*
X11545587Y-14958798D01*
X11755110Y-15073084D02*
X11736063Y-15063560D01*
X11736063Y-15063560D02*
X11726539Y-15054036D01*
X11726539Y-15054036D02*
X11717015Y-15034988D01*
X11717015Y-15034988D02*
X11717015Y-14977846D01*
X11717015Y-14977846D02*
X11726539Y-14958798D01*
X11726539Y-14958798D02*
X11736063Y-14949274D01*
X11736063Y-14949274D02*
X11755110Y-14939750D01*
X11755110Y-14939750D02*
X11783682Y-14939750D01*
X11783682Y-14939750D02*
X11802730Y-14949274D01*
X11802730Y-14949274D02*
X11812253Y-14958798D01*
X11812253Y-14958798D02*
X11821777Y-14977846D01*
X11821777Y-14977846D02*
X11821777Y-15034988D01*
X11821777Y-15034988D02*
X11812253Y-15054036D01*
X11812253Y-15054036D02*
X11802730Y-15063560D01*
X11802730Y-15063560D02*
X11783682Y-15073084D01*
X11783682Y-15073084D02*
X11755110Y-15073084D01*
X11936063Y-15073084D02*
X11917015Y-15063560D01*
X11917015Y-15063560D02*
X11907491Y-15044512D01*
X11907491Y-15044512D02*
X11907491Y-14873084D01*
X12088444Y-15063560D02*
X12069396Y-15073084D01*
X12069396Y-15073084D02*
X12031301Y-15073084D01*
X12031301Y-15073084D02*
X12012253Y-15063560D01*
X12012253Y-15063560D02*
X12002730Y-15044512D01*
X12002730Y-15044512D02*
X12002730Y-14968322D01*
X12002730Y-14968322D02*
X12012253Y-14949274D01*
X12012253Y-14949274D02*
X12031301Y-14939750D01*
X12031301Y-14939750D02*
X12069396Y-14939750D01*
X12069396Y-14939750D02*
X12088444Y-14949274D01*
X12088444Y-14949274D02*
X12097968Y-14968322D01*
X12097968Y-14968322D02*
X12097968Y-14987369D01*
X12097968Y-14987369D02*
X12002730Y-15006417D01*
X12174158Y-15063560D02*
X12193206Y-15073084D01*
X12193206Y-15073084D02*
X12231301Y-15073084D01*
X12231301Y-15073084D02*
X12250349Y-15063560D01*
X12250349Y-15063560D02*
X12259872Y-15044512D01*
X12259872Y-15044512D02*
X12259872Y-15034988D01*
X12259872Y-15034988D02*
X12250349Y-15015941D01*
X12250349Y-15015941D02*
X12231301Y-15006417D01*
X12231301Y-15006417D02*
X12202730Y-15006417D01*
X12202730Y-15006417D02*
X12183682Y-14996893D01*
X12183682Y-14996893D02*
X12174158Y-14977846D01*
X12174158Y-14977846D02*
X12174158Y-14968322D01*
X12174158Y-14968322D02*
X12183682Y-14949274D01*
X12183682Y-14949274D02*
X12202730Y-14939750D01*
X12202730Y-14939750D02*
X12231301Y-14939750D01*
X12231301Y-14939750D02*
X12250349Y-14949274D01*
X12326539Y-15149274D02*
X12336063Y-15139750D01*
X12336063Y-15139750D02*
X12355111Y-15111179D01*
X12355111Y-15111179D02*
X12364634Y-15092131D01*
X12364634Y-15092131D02*
X12374158Y-15063560D01*
X12374158Y-15063560D02*
X12383682Y-15015941D01*
X12383682Y-15015941D02*
X12383682Y-14977846D01*
X12383682Y-14977846D02*
X12374158Y-14930227D01*
X12374158Y-14930227D02*
X12364634Y-14901655D01*
X12364634Y-14901655D02*
X12355111Y-14882608D01*
X12355111Y-14882608D02*
X12336063Y-14854036D01*
X12336063Y-14854036D02*
X12326539Y-14844512D01*
D10*
X7321000Y-15205600D02*
X7321000Y-15285600D01*
X7281000Y-15245600D02*
X7361000Y-15245600D01*
D11*
X7659872Y-15137084D02*
X7678920Y-15137084D01*
X7678920Y-15137084D02*
X7697967Y-15146608D01*
X7697967Y-15146608D02*
X7707491Y-15156131D01*
X7707491Y-15156131D02*
X7717015Y-15175179D01*
X7717015Y-15175179D02*
X7726539Y-15213274D01*
X7726539Y-15213274D02*
X7726539Y-15260893D01*
X7726539Y-15260893D02*
X7717015Y-15298988D01*
X7717015Y-15298988D02*
X7707491Y-15318036D01*
X7707491Y-15318036D02*
X7697967Y-15327560D01*
X7697967Y-15327560D02*
X7678920Y-15337084D01*
X7678920Y-15337084D02*
X7659872Y-15337084D01*
X7659872Y-15337084D02*
X7640824Y-15327560D01*
X7640824Y-15327560D02*
X7631301Y-15318036D01*
X7631301Y-15318036D02*
X7621777Y-15298988D01*
X7621777Y-15298988D02*
X7612253Y-15260893D01*
X7612253Y-15260893D02*
X7612253Y-15213274D01*
X7612253Y-15213274D02*
X7621777Y-15175179D01*
X7621777Y-15175179D02*
X7631301Y-15156131D01*
X7631301Y-15156131D02*
X7640824Y-15146608D01*
X7640824Y-15146608D02*
X7659872Y-15137084D01*
X7812253Y-15318036D02*
X7821777Y-15327560D01*
X7821777Y-15327560D02*
X7812253Y-15337084D01*
X7812253Y-15337084D02*
X7802729Y-15327560D01*
X7802729Y-15327560D02*
X7812253Y-15318036D01*
X7812253Y-15318036D02*
X7812253Y-15337084D01*
X7936062Y-15222798D02*
X7917015Y-15213274D01*
X7917015Y-15213274D02*
X7907491Y-15203750D01*
X7907491Y-15203750D02*
X7897967Y-15184703D01*
X7897967Y-15184703D02*
X7897967Y-15175179D01*
X7897967Y-15175179D02*
X7907491Y-15156131D01*
X7907491Y-15156131D02*
X7917015Y-15146608D01*
X7917015Y-15146608D02*
X7936062Y-15137084D01*
X7936062Y-15137084D02*
X7974158Y-15137084D01*
X7974158Y-15137084D02*
X7993205Y-15146608D01*
X7993205Y-15146608D02*
X8002729Y-15156131D01*
X8002729Y-15156131D02*
X8012253Y-15175179D01*
X8012253Y-15175179D02*
X8012253Y-15184703D01*
X8012253Y-15184703D02*
X8002729Y-15203750D01*
X8002729Y-15203750D02*
X7993205Y-15213274D01*
X7993205Y-15213274D02*
X7974158Y-15222798D01*
X7974158Y-15222798D02*
X7936062Y-15222798D01*
X7936062Y-15222798D02*
X7917015Y-15232322D01*
X7917015Y-15232322D02*
X7907491Y-15241846D01*
X7907491Y-15241846D02*
X7897967Y-15260893D01*
X7897967Y-15260893D02*
X7897967Y-15298988D01*
X7897967Y-15298988D02*
X7907491Y-15318036D01*
X7907491Y-15318036D02*
X7917015Y-15327560D01*
X7917015Y-15327560D02*
X7936062Y-15337084D01*
X7936062Y-15337084D02*
X7974158Y-15337084D01*
X7974158Y-15337084D02*
X7993205Y-15327560D01*
X7993205Y-15327560D02*
X8002729Y-15318036D01*
X8002729Y-15318036D02*
X8012253Y-15298988D01*
X8012253Y-15298988D02*
X8012253Y-15260893D01*
X8012253Y-15260893D02*
X8002729Y-15241846D01*
X8002729Y-15241846D02*
X7993205Y-15232322D01*
X7993205Y-15232322D02*
X7974158Y-15222798D01*
X8136062Y-15137084D02*
X8155110Y-15137084D01*
X8155110Y-15137084D02*
X8174158Y-15146608D01*
X8174158Y-15146608D02*
X8183682Y-15156131D01*
X8183682Y-15156131D02*
X8193205Y-15175179D01*
X8193205Y-15175179D02*
X8202729Y-15213274D01*
X8202729Y-15213274D02*
X8202729Y-15260893D01*
X8202729Y-15260893D02*
X8193205Y-15298988D01*
X8193205Y-15298988D02*
X8183682Y-15318036D01*
X8183682Y-15318036D02*
X8174158Y-15327560D01*
X8174158Y-15327560D02*
X8155110Y-15337084D01*
X8155110Y-15337084D02*
X8136062Y-15337084D01*
X8136062Y-15337084D02*
X8117015Y-15327560D01*
X8117015Y-15327560D02*
X8107491Y-15318036D01*
X8107491Y-15318036D02*
X8097967Y-15298988D01*
X8097967Y-15298988D02*
X8088443Y-15260893D01*
X8088443Y-15260893D02*
X8088443Y-15213274D01*
X8088443Y-15213274D02*
X8097967Y-15175179D01*
X8097967Y-15175179D02*
X8107491Y-15156131D01*
X8107491Y-15156131D02*
X8117015Y-15146608D01*
X8117015Y-15146608D02*
X8136062Y-15137084D01*
X8326539Y-15137084D02*
X8345586Y-15137084D01*
X8345586Y-15137084D02*
X8364634Y-15146608D01*
X8364634Y-15146608D02*
X8374158Y-15156131D01*
X8374158Y-15156131D02*
X8383682Y-15175179D01*
X8383682Y-15175179D02*
X8393205Y-15213274D01*
X8393205Y-15213274D02*
X8393205Y-15260893D01*
X8393205Y-15260893D02*
X8383682Y-15298988D01*
X8383682Y-15298988D02*
X8374158Y-15318036D01*
X8374158Y-15318036D02*
X8364634Y-15327560D01*
X8364634Y-15327560D02*
X8345586Y-15337084D01*
X8345586Y-15337084D02*
X8326539Y-15337084D01*
X8326539Y-15337084D02*
X8307491Y-15327560D01*
X8307491Y-15327560D02*
X8297967Y-15318036D01*
X8297967Y-15318036D02*
X8288443Y-15298988D01*
X8288443Y-15298988D02*
X8278920Y-15260893D01*
X8278920Y-15260893D02*
X8278920Y-15213274D01*
X8278920Y-15213274D02*
X8288443Y-15175179D01*
X8288443Y-15175179D02*
X8297967Y-15156131D01*
X8297967Y-15156131D02*
X8307491Y-15146608D01*
X8307491Y-15146608D02*
X8326539Y-15137084D01*
X8478920Y-15337084D02*
X8478920Y-15203750D01*
X8478920Y-15222798D02*
X8488444Y-15213274D01*
X8488444Y-15213274D02*
X8507491Y-15203750D01*
X8507491Y-15203750D02*
X8536063Y-15203750D01*
X8536063Y-15203750D02*
X8555110Y-15213274D01*
X8555110Y-15213274D02*
X8564634Y-15232322D01*
X8564634Y-15232322D02*
X8564634Y-15337084D01*
X8564634Y-15232322D02*
X8574158Y-15213274D01*
X8574158Y-15213274D02*
X8593205Y-15203750D01*
X8593205Y-15203750D02*
X8621777Y-15203750D01*
X8621777Y-15203750D02*
X8640825Y-15213274D01*
X8640825Y-15213274D02*
X8650348Y-15232322D01*
X8650348Y-15232322D02*
X8650348Y-15337084D01*
X8745586Y-15337084D02*
X8745586Y-15203750D01*
X8745586Y-15222798D02*
X8755110Y-15213274D01*
X8755110Y-15213274D02*
X8774158Y-15203750D01*
X8774158Y-15203750D02*
X8802729Y-15203750D01*
X8802729Y-15203750D02*
X8821777Y-15213274D01*
X8821777Y-15213274D02*
X8831301Y-15232322D01*
X8831301Y-15232322D02*
X8831301Y-15337084D01*
X8831301Y-15232322D02*
X8840825Y-15213274D01*
X8840825Y-15213274D02*
X8859872Y-15203750D01*
X8859872Y-15203750D02*
X8888444Y-15203750D01*
X8888444Y-15203750D02*
X8907491Y-15213274D01*
X8907491Y-15213274D02*
X8917015Y-15232322D01*
X8917015Y-15232322D02*
X8917015Y-15337084D01*
X9307491Y-15127560D02*
X9136063Y-15384703D01*
X9564634Y-15137084D02*
X9583682Y-15137084D01*
X9583682Y-15137084D02*
X9602729Y-15146608D01*
X9602729Y-15146608D02*
X9612253Y-15156131D01*
X9612253Y-15156131D02*
X9621777Y-15175179D01*
X9621777Y-15175179D02*
X9631301Y-15213274D01*
X9631301Y-15213274D02*
X9631301Y-15260893D01*
X9631301Y-15260893D02*
X9621777Y-15298988D01*
X9621777Y-15298988D02*
X9612253Y-15318036D01*
X9612253Y-15318036D02*
X9602729Y-15327560D01*
X9602729Y-15327560D02*
X9583682Y-15337084D01*
X9583682Y-15337084D02*
X9564634Y-15337084D01*
X9564634Y-15337084D02*
X9545587Y-15327560D01*
X9545587Y-15327560D02*
X9536063Y-15318036D01*
X9536063Y-15318036D02*
X9526539Y-15298988D01*
X9526539Y-15298988D02*
X9517015Y-15260893D01*
X9517015Y-15260893D02*
X9517015Y-15213274D01*
X9517015Y-15213274D02*
X9526539Y-15175179D01*
X9526539Y-15175179D02*
X9536063Y-15156131D01*
X9536063Y-15156131D02*
X9545587Y-15146608D01*
X9545587Y-15146608D02*
X9564634Y-15137084D01*
X9717015Y-15318036D02*
X9726539Y-15327560D01*
X9726539Y-15327560D02*
X9717015Y-15337084D01*
X9717015Y-15337084D02*
X9707491Y-15327560D01*
X9707491Y-15327560D02*
X9717015Y-15318036D01*
X9717015Y-15318036D02*
X9717015Y-15337084D01*
X9850348Y-15137084D02*
X9869396Y-15137084D01*
X9869396Y-15137084D02*
X9888444Y-15146608D01*
X9888444Y-15146608D02*
X9897968Y-15156131D01*
X9897968Y-15156131D02*
X9907491Y-15175179D01*
X9907491Y-15175179D02*
X9917015Y-15213274D01*
X9917015Y-15213274D02*
X9917015Y-15260893D01*
X9917015Y-15260893D02*
X9907491Y-15298988D01*
X9907491Y-15298988D02*
X9897968Y-15318036D01*
X9897968Y-15318036D02*
X9888444Y-15327560D01*
X9888444Y-15327560D02*
X9869396Y-15337084D01*
X9869396Y-15337084D02*
X9850348Y-15337084D01*
X9850348Y-15337084D02*
X9831301Y-15327560D01*
X9831301Y-15327560D02*
X9821777Y-15318036D01*
X9821777Y-15318036D02*
X9812253Y-15298988D01*
X9812253Y-15298988D02*
X9802729Y-15260893D01*
X9802729Y-15260893D02*
X9802729Y-15213274D01*
X9802729Y-15213274D02*
X9812253Y-15175179D01*
X9812253Y-15175179D02*
X9821777Y-15156131D01*
X9821777Y-15156131D02*
X9831301Y-15146608D01*
X9831301Y-15146608D02*
X9850348Y-15137084D01*
X9983682Y-15137084D02*
X10107491Y-15137084D01*
X10107491Y-15137084D02*
X10040825Y-15213274D01*
X10040825Y-15213274D02*
X10069396Y-15213274D01*
X10069396Y-15213274D02*
X10088444Y-15222798D01*
X10088444Y-15222798D02*
X10097968Y-15232322D01*
X10097968Y-15232322D02*
X10107491Y-15251369D01*
X10107491Y-15251369D02*
X10107491Y-15298988D01*
X10107491Y-15298988D02*
X10097968Y-15318036D01*
X10097968Y-15318036D02*
X10088444Y-15327560D01*
X10088444Y-15327560D02*
X10069396Y-15337084D01*
X10069396Y-15337084D02*
X10012253Y-15337084D01*
X10012253Y-15337084D02*
X9993206Y-15327560D01*
X9993206Y-15327560D02*
X9983682Y-15318036D01*
X10297968Y-15337084D02*
X10183682Y-15337084D01*
X10240825Y-15337084D02*
X10240825Y-15137084D01*
X10240825Y-15137084D02*
X10221777Y-15165655D01*
X10221777Y-15165655D02*
X10202729Y-15184703D01*
X10202729Y-15184703D02*
X10183682Y-15194227D01*
X10478920Y-15137084D02*
X10383682Y-15137084D01*
X10383682Y-15137084D02*
X10374158Y-15232322D01*
X10374158Y-15232322D02*
X10383682Y-15222798D01*
X10383682Y-15222798D02*
X10402729Y-15213274D01*
X10402729Y-15213274D02*
X10450349Y-15213274D01*
X10450349Y-15213274D02*
X10469396Y-15222798D01*
X10469396Y-15222798D02*
X10478920Y-15232322D01*
X10478920Y-15232322D02*
X10488444Y-15251369D01*
X10488444Y-15251369D02*
X10488444Y-15298988D01*
X10488444Y-15298988D02*
X10478920Y-15318036D01*
X10478920Y-15318036D02*
X10469396Y-15327560D01*
X10469396Y-15327560D02*
X10450349Y-15337084D01*
X10450349Y-15337084D02*
X10402729Y-15337084D01*
X10402729Y-15337084D02*
X10383682Y-15327560D01*
X10383682Y-15327560D02*
X10374158Y-15318036D01*
X10564634Y-15137084D02*
X10564634Y-15175179D01*
X10640825Y-15137084D02*
X10640825Y-15175179D01*
X10936063Y-15413274D02*
X10926539Y-15403750D01*
X10926539Y-15403750D02*
X10907491Y-15375179D01*
X10907491Y-15375179D02*
X10897968Y-15356131D01*
X10897968Y-15356131D02*
X10888444Y-15327560D01*
X10888444Y-15327560D02*
X10878920Y-15279941D01*
X10878920Y-15279941D02*
X10878920Y-15241846D01*
X10878920Y-15241846D02*
X10888444Y-15194227D01*
X10888444Y-15194227D02*
X10897968Y-15165655D01*
X10897968Y-15165655D02*
X10907491Y-15146608D01*
X10907491Y-15146608D02*
X10926539Y-15118036D01*
X10926539Y-15118036D02*
X10936063Y-15108512D01*
X10993206Y-15137084D02*
X11117015Y-15137084D01*
X11117015Y-15137084D02*
X11050349Y-15213274D01*
X11050349Y-15213274D02*
X11078920Y-15213274D01*
X11078920Y-15213274D02*
X11097968Y-15222798D01*
X11097968Y-15222798D02*
X11107491Y-15232322D01*
X11107491Y-15232322D02*
X11117015Y-15251369D01*
X11117015Y-15251369D02*
X11117015Y-15298988D01*
X11117015Y-15298988D02*
X11107491Y-15318036D01*
X11107491Y-15318036D02*
X11097968Y-15327560D01*
X11097968Y-15327560D02*
X11078920Y-15337084D01*
X11078920Y-15337084D02*
X11021777Y-15337084D01*
X11021777Y-15337084D02*
X11002730Y-15327560D01*
X11002730Y-15327560D02*
X10993206Y-15318036D01*
X11193206Y-15156131D02*
X11202729Y-15146608D01*
X11202729Y-15146608D02*
X11221777Y-15137084D01*
X11221777Y-15137084D02*
X11269396Y-15137084D01*
X11269396Y-15137084D02*
X11288444Y-15146608D01*
X11288444Y-15146608D02*
X11297968Y-15156131D01*
X11297968Y-15156131D02*
X11307491Y-15175179D01*
X11307491Y-15175179D02*
X11307491Y-15194227D01*
X11307491Y-15194227D02*
X11297968Y-15222798D01*
X11297968Y-15222798D02*
X11183682Y-15337084D01*
X11183682Y-15337084D02*
X11307491Y-15337084D01*
X11545587Y-15337084D02*
X11545587Y-15137084D01*
X11631301Y-15337084D02*
X11631301Y-15232322D01*
X11631301Y-15232322D02*
X11621777Y-15213274D01*
X11621777Y-15213274D02*
X11602730Y-15203750D01*
X11602730Y-15203750D02*
X11574158Y-15203750D01*
X11574158Y-15203750D02*
X11555110Y-15213274D01*
X11555110Y-15213274D02*
X11545587Y-15222798D01*
X11755110Y-15337084D02*
X11736063Y-15327560D01*
X11736063Y-15327560D02*
X11726539Y-15318036D01*
X11726539Y-15318036D02*
X11717015Y-15298988D01*
X11717015Y-15298988D02*
X11717015Y-15241846D01*
X11717015Y-15241846D02*
X11726539Y-15222798D01*
X11726539Y-15222798D02*
X11736063Y-15213274D01*
X11736063Y-15213274D02*
X11755110Y-15203750D01*
X11755110Y-15203750D02*
X11783682Y-15203750D01*
X11783682Y-15203750D02*
X11802730Y-15213274D01*
X11802730Y-15213274D02*
X11812253Y-15222798D01*
X11812253Y-15222798D02*
X11821777Y-15241846D01*
X11821777Y-15241846D02*
X11821777Y-15298988D01*
X11821777Y-15298988D02*
X11812253Y-15318036D01*
X11812253Y-15318036D02*
X11802730Y-15327560D01*
X11802730Y-15327560D02*
X11783682Y-15337084D01*
X11783682Y-15337084D02*
X11755110Y-15337084D01*
X11936063Y-15337084D02*
X11917015Y-15327560D01*
X11917015Y-15327560D02*
X11907491Y-15308512D01*
X11907491Y-15308512D02*
X11907491Y-15137084D01*
X12088444Y-15327560D02*
X12069396Y-15337084D01*
X12069396Y-15337084D02*
X12031301Y-15337084D01*
X12031301Y-15337084D02*
X12012253Y-15327560D01*
X12012253Y-15327560D02*
X12002730Y-15308512D01*
X12002730Y-15308512D02*
X12002730Y-15232322D01*
X12002730Y-15232322D02*
X12012253Y-15213274D01*
X12012253Y-15213274D02*
X12031301Y-15203750D01*
X12031301Y-15203750D02*
X12069396Y-15203750D01*
X12069396Y-15203750D02*
X12088444Y-15213274D01*
X12088444Y-15213274D02*
X12097968Y-15232322D01*
X12097968Y-15232322D02*
X12097968Y-15251369D01*
X12097968Y-15251369D02*
X12002730Y-15270417D01*
X12174158Y-15327560D02*
X12193206Y-15337084D01*
X12193206Y-15337084D02*
X12231301Y-15337084D01*
X12231301Y-15337084D02*
X12250349Y-15327560D01*
X12250349Y-15327560D02*
X12259872Y-15308512D01*
X12259872Y-15308512D02*
X12259872Y-15298988D01*
X12259872Y-15298988D02*
X12250349Y-15279941D01*
X12250349Y-15279941D02*
X12231301Y-15270417D01*
X12231301Y-15270417D02*
X12202730Y-15270417D01*
X12202730Y-15270417D02*
X12183682Y-15260893D01*
X12183682Y-15260893D02*
X12174158Y-15241846D01*
X12174158Y-15241846D02*
X12174158Y-15232322D01*
X12174158Y-15232322D02*
X12183682Y-15213274D01*
X12183682Y-15213274D02*
X12202730Y-15203750D01*
X12202730Y-15203750D02*
X12231301Y-15203750D01*
X12231301Y-15203750D02*
X12250349Y-15213274D01*
X12326539Y-15413274D02*
X12336063Y-15403750D01*
X12336063Y-15403750D02*
X12355111Y-15375179D01*
X12355111Y-15375179D02*
X12364634Y-15356131D01*
X12364634Y-15356131D02*
X12374158Y-15327560D01*
X12374158Y-15327560D02*
X12383682Y-15279941D01*
X12383682Y-15279941D02*
X12383682Y-15241846D01*
X12383682Y-15241846D02*
X12374158Y-15194227D01*
X12374158Y-15194227D02*
X12364634Y-15165655D01*
X12364634Y-15165655D02*
X12355111Y-15146608D01*
X12355111Y-15146608D02*
X12336063Y-15118036D01*
X12336063Y-15118036D02*
X12326539Y-15108512D01*
D10*
X7346356Y-15544956D02*
X7346356Y-15474244D01*
X7275644Y-15474244D01*
X7275644Y-15544956D01*
X7346356Y-15544956D01*
D11*
X7726539Y-15601084D02*
X7612253Y-15601084D01*
X7669396Y-15601084D02*
X7669396Y-15401084D01*
X7669396Y-15401084D02*
X7650348Y-15429655D01*
X7650348Y-15429655D02*
X7631301Y-15448703D01*
X7631301Y-15448703D02*
X7612253Y-15458227D01*
X7812253Y-15582036D02*
X7821777Y-15591560D01*
X7821777Y-15591560D02*
X7812253Y-15601084D01*
X7812253Y-15601084D02*
X7802729Y-15591560D01*
X7802729Y-15591560D02*
X7812253Y-15582036D01*
X7812253Y-15582036D02*
X7812253Y-15601084D01*
X7945586Y-15401084D02*
X7964634Y-15401084D01*
X7964634Y-15401084D02*
X7983682Y-15410608D01*
X7983682Y-15410608D02*
X7993205Y-15420131D01*
X7993205Y-15420131D02*
X8002729Y-15439179D01*
X8002729Y-15439179D02*
X8012253Y-15477274D01*
X8012253Y-15477274D02*
X8012253Y-15524893D01*
X8012253Y-15524893D02*
X8002729Y-15562988D01*
X8002729Y-15562988D02*
X7993205Y-15582036D01*
X7993205Y-15582036D02*
X7983682Y-15591560D01*
X7983682Y-15591560D02*
X7964634Y-15601084D01*
X7964634Y-15601084D02*
X7945586Y-15601084D01*
X7945586Y-15601084D02*
X7926539Y-15591560D01*
X7926539Y-15591560D02*
X7917015Y-15582036D01*
X7917015Y-15582036D02*
X7907491Y-15562988D01*
X7907491Y-15562988D02*
X7897967Y-15524893D01*
X7897967Y-15524893D02*
X7897967Y-15477274D01*
X7897967Y-15477274D02*
X7907491Y-15439179D01*
X7907491Y-15439179D02*
X7917015Y-15420131D01*
X7917015Y-15420131D02*
X7926539Y-15410608D01*
X7926539Y-15410608D02*
X7945586Y-15401084D01*
X8136062Y-15401084D02*
X8155110Y-15401084D01*
X8155110Y-15401084D02*
X8174158Y-15410608D01*
X8174158Y-15410608D02*
X8183682Y-15420131D01*
X8183682Y-15420131D02*
X8193205Y-15439179D01*
X8193205Y-15439179D02*
X8202729Y-15477274D01*
X8202729Y-15477274D02*
X8202729Y-15524893D01*
X8202729Y-15524893D02*
X8193205Y-15562988D01*
X8193205Y-15562988D02*
X8183682Y-15582036D01*
X8183682Y-15582036D02*
X8174158Y-15591560D01*
X8174158Y-15591560D02*
X8155110Y-15601084D01*
X8155110Y-15601084D02*
X8136062Y-15601084D01*
X8136062Y-15601084D02*
X8117015Y-15591560D01*
X8117015Y-15591560D02*
X8107491Y-15582036D01*
X8107491Y-15582036D02*
X8097967Y-15562988D01*
X8097967Y-15562988D02*
X8088443Y-15524893D01*
X8088443Y-15524893D02*
X8088443Y-15477274D01*
X8088443Y-15477274D02*
X8097967Y-15439179D01*
X8097967Y-15439179D02*
X8107491Y-15420131D01*
X8107491Y-15420131D02*
X8117015Y-15410608D01*
X8117015Y-15410608D02*
X8136062Y-15401084D01*
X8326539Y-15401084D02*
X8345586Y-15401084D01*
X8345586Y-15401084D02*
X8364634Y-15410608D01*
X8364634Y-15410608D02*
X8374158Y-15420131D01*
X8374158Y-15420131D02*
X8383682Y-15439179D01*
X8383682Y-15439179D02*
X8393205Y-15477274D01*
X8393205Y-15477274D02*
X8393205Y-15524893D01*
X8393205Y-15524893D02*
X8383682Y-15562988D01*
X8383682Y-15562988D02*
X8374158Y-15582036D01*
X8374158Y-15582036D02*
X8364634Y-15591560D01*
X8364634Y-15591560D02*
X8345586Y-15601084D01*
X8345586Y-15601084D02*
X8326539Y-15601084D01*
X8326539Y-15601084D02*
X8307491Y-15591560D01*
X8307491Y-15591560D02*
X8297967Y-15582036D01*
X8297967Y-15582036D02*
X8288443Y-15562988D01*
X8288443Y-15562988D02*
X8278920Y-15524893D01*
X8278920Y-15524893D02*
X8278920Y-15477274D01*
X8278920Y-15477274D02*
X8288443Y-15439179D01*
X8288443Y-15439179D02*
X8297967Y-15420131D01*
X8297967Y-15420131D02*
X8307491Y-15410608D01*
X8307491Y-15410608D02*
X8326539Y-15401084D01*
X8478920Y-15601084D02*
X8478920Y-15467750D01*
X8478920Y-15486798D02*
X8488444Y-15477274D01*
X8488444Y-15477274D02*
X8507491Y-15467750D01*
X8507491Y-15467750D02*
X8536063Y-15467750D01*
X8536063Y-15467750D02*
X8555110Y-15477274D01*
X8555110Y-15477274D02*
X8564634Y-15496322D01*
X8564634Y-15496322D02*
X8564634Y-15601084D01*
X8564634Y-15496322D02*
X8574158Y-15477274D01*
X8574158Y-15477274D02*
X8593205Y-15467750D01*
X8593205Y-15467750D02*
X8621777Y-15467750D01*
X8621777Y-15467750D02*
X8640825Y-15477274D01*
X8640825Y-15477274D02*
X8650348Y-15496322D01*
X8650348Y-15496322D02*
X8650348Y-15601084D01*
X8745586Y-15601084D02*
X8745586Y-15467750D01*
X8745586Y-15486798D02*
X8755110Y-15477274D01*
X8755110Y-15477274D02*
X8774158Y-15467750D01*
X8774158Y-15467750D02*
X8802729Y-15467750D01*
X8802729Y-15467750D02*
X8821777Y-15477274D01*
X8821777Y-15477274D02*
X8831301Y-15496322D01*
X8831301Y-15496322D02*
X8831301Y-15601084D01*
X8831301Y-15496322D02*
X8840825Y-15477274D01*
X8840825Y-15477274D02*
X8859872Y-15467750D01*
X8859872Y-15467750D02*
X8888444Y-15467750D01*
X8888444Y-15467750D02*
X8907491Y-15477274D01*
X8907491Y-15477274D02*
X8917015Y-15496322D01*
X8917015Y-15496322D02*
X8917015Y-15601084D01*
X9307491Y-15391560D02*
X9136063Y-15648703D01*
X9564634Y-15401084D02*
X9583682Y-15401084D01*
X9583682Y-15401084D02*
X9602729Y-15410608D01*
X9602729Y-15410608D02*
X9612253Y-15420131D01*
X9612253Y-15420131D02*
X9621777Y-15439179D01*
X9621777Y-15439179D02*
X9631301Y-15477274D01*
X9631301Y-15477274D02*
X9631301Y-15524893D01*
X9631301Y-15524893D02*
X9621777Y-15562988D01*
X9621777Y-15562988D02*
X9612253Y-15582036D01*
X9612253Y-15582036D02*
X9602729Y-15591560D01*
X9602729Y-15591560D02*
X9583682Y-15601084D01*
X9583682Y-15601084D02*
X9564634Y-15601084D01*
X9564634Y-15601084D02*
X9545587Y-15591560D01*
X9545587Y-15591560D02*
X9536063Y-15582036D01*
X9536063Y-15582036D02*
X9526539Y-15562988D01*
X9526539Y-15562988D02*
X9517015Y-15524893D01*
X9517015Y-15524893D02*
X9517015Y-15477274D01*
X9517015Y-15477274D02*
X9526539Y-15439179D01*
X9526539Y-15439179D02*
X9536063Y-15420131D01*
X9536063Y-15420131D02*
X9545587Y-15410608D01*
X9545587Y-15410608D02*
X9564634Y-15401084D01*
X9717015Y-15582036D02*
X9726539Y-15591560D01*
X9726539Y-15591560D02*
X9717015Y-15601084D01*
X9717015Y-15601084D02*
X9707491Y-15591560D01*
X9707491Y-15591560D02*
X9717015Y-15582036D01*
X9717015Y-15582036D02*
X9717015Y-15601084D01*
X9850348Y-15401084D02*
X9869396Y-15401084D01*
X9869396Y-15401084D02*
X9888444Y-15410608D01*
X9888444Y-15410608D02*
X9897968Y-15420131D01*
X9897968Y-15420131D02*
X9907491Y-15439179D01*
X9907491Y-15439179D02*
X9917015Y-15477274D01*
X9917015Y-15477274D02*
X9917015Y-15524893D01*
X9917015Y-15524893D02*
X9907491Y-15562988D01*
X9907491Y-15562988D02*
X9897968Y-15582036D01*
X9897968Y-15582036D02*
X9888444Y-15591560D01*
X9888444Y-15591560D02*
X9869396Y-15601084D01*
X9869396Y-15601084D02*
X9850348Y-15601084D01*
X9850348Y-15601084D02*
X9831301Y-15591560D01*
X9831301Y-15591560D02*
X9821777Y-15582036D01*
X9821777Y-15582036D02*
X9812253Y-15562988D01*
X9812253Y-15562988D02*
X9802729Y-15524893D01*
X9802729Y-15524893D02*
X9802729Y-15477274D01*
X9802729Y-15477274D02*
X9812253Y-15439179D01*
X9812253Y-15439179D02*
X9821777Y-15420131D01*
X9821777Y-15420131D02*
X9831301Y-15410608D01*
X9831301Y-15410608D02*
X9850348Y-15401084D01*
X9983682Y-15401084D02*
X10107491Y-15401084D01*
X10107491Y-15401084D02*
X10040825Y-15477274D01*
X10040825Y-15477274D02*
X10069396Y-15477274D01*
X10069396Y-15477274D02*
X10088444Y-15486798D01*
X10088444Y-15486798D02*
X10097968Y-15496322D01*
X10097968Y-15496322D02*
X10107491Y-15515369D01*
X10107491Y-15515369D02*
X10107491Y-15562988D01*
X10107491Y-15562988D02*
X10097968Y-15582036D01*
X10097968Y-15582036D02*
X10088444Y-15591560D01*
X10088444Y-15591560D02*
X10069396Y-15601084D01*
X10069396Y-15601084D02*
X10012253Y-15601084D01*
X10012253Y-15601084D02*
X9993206Y-15591560D01*
X9993206Y-15591560D02*
X9983682Y-15582036D01*
X10202729Y-15601084D02*
X10240825Y-15601084D01*
X10240825Y-15601084D02*
X10259872Y-15591560D01*
X10259872Y-15591560D02*
X10269396Y-15582036D01*
X10269396Y-15582036D02*
X10288444Y-15553465D01*
X10288444Y-15553465D02*
X10297968Y-15515369D01*
X10297968Y-15515369D02*
X10297968Y-15439179D01*
X10297968Y-15439179D02*
X10288444Y-15420131D01*
X10288444Y-15420131D02*
X10278920Y-15410608D01*
X10278920Y-15410608D02*
X10259872Y-15401084D01*
X10259872Y-15401084D02*
X10221777Y-15401084D01*
X10221777Y-15401084D02*
X10202729Y-15410608D01*
X10202729Y-15410608D02*
X10193206Y-15420131D01*
X10193206Y-15420131D02*
X10183682Y-15439179D01*
X10183682Y-15439179D02*
X10183682Y-15486798D01*
X10183682Y-15486798D02*
X10193206Y-15505846D01*
X10193206Y-15505846D02*
X10202729Y-15515369D01*
X10202729Y-15515369D02*
X10221777Y-15524893D01*
X10221777Y-15524893D02*
X10259872Y-15524893D01*
X10259872Y-15524893D02*
X10278920Y-15515369D01*
X10278920Y-15515369D02*
X10288444Y-15505846D01*
X10288444Y-15505846D02*
X10297968Y-15486798D01*
X10469396Y-15467750D02*
X10469396Y-15601084D01*
X10421777Y-15391560D02*
X10374158Y-15534417D01*
X10374158Y-15534417D02*
X10497968Y-15534417D01*
X10564634Y-15401084D02*
X10564634Y-15439179D01*
X10640825Y-15401084D02*
X10640825Y-15439179D01*
X10936063Y-15677274D02*
X10926539Y-15667750D01*
X10926539Y-15667750D02*
X10907491Y-15639179D01*
X10907491Y-15639179D02*
X10897968Y-15620131D01*
X10897968Y-15620131D02*
X10888444Y-15591560D01*
X10888444Y-15591560D02*
X10878920Y-15543941D01*
X10878920Y-15543941D02*
X10878920Y-15505846D01*
X10878920Y-15505846D02*
X10888444Y-15458227D01*
X10888444Y-15458227D02*
X10897968Y-15429655D01*
X10897968Y-15429655D02*
X10907491Y-15410608D01*
X10907491Y-15410608D02*
X10926539Y-15382036D01*
X10926539Y-15382036D02*
X10936063Y-15372512D01*
X11002730Y-15420131D02*
X11012253Y-15410608D01*
X11012253Y-15410608D02*
X11031301Y-15401084D01*
X11031301Y-15401084D02*
X11078920Y-15401084D01*
X11078920Y-15401084D02*
X11097968Y-15410608D01*
X11097968Y-15410608D02*
X11107491Y-15420131D01*
X11107491Y-15420131D02*
X11117015Y-15439179D01*
X11117015Y-15439179D02*
X11117015Y-15458227D01*
X11117015Y-15458227D02*
X11107491Y-15486798D01*
X11107491Y-15486798D02*
X10993206Y-15601084D01*
X10993206Y-15601084D02*
X11117015Y-15601084D01*
X11183682Y-15401084D02*
X11307491Y-15401084D01*
X11307491Y-15401084D02*
X11240825Y-15477274D01*
X11240825Y-15477274D02*
X11269396Y-15477274D01*
X11269396Y-15477274D02*
X11288444Y-15486798D01*
X11288444Y-15486798D02*
X11297968Y-15496322D01*
X11297968Y-15496322D02*
X11307491Y-15515369D01*
X11307491Y-15515369D02*
X11307491Y-15562988D01*
X11307491Y-15562988D02*
X11297968Y-15582036D01*
X11297968Y-15582036D02*
X11288444Y-15591560D01*
X11288444Y-15591560D02*
X11269396Y-15601084D01*
X11269396Y-15601084D02*
X11212253Y-15601084D01*
X11212253Y-15601084D02*
X11193206Y-15591560D01*
X11193206Y-15591560D02*
X11183682Y-15582036D01*
X11374158Y-15401084D02*
X11497968Y-15401084D01*
X11497968Y-15401084D02*
X11431301Y-15477274D01*
X11431301Y-15477274D02*
X11459872Y-15477274D01*
X11459872Y-15477274D02*
X11478920Y-15486798D01*
X11478920Y-15486798D02*
X11488444Y-15496322D01*
X11488444Y-15496322D02*
X11497968Y-15515369D01*
X11497968Y-15515369D02*
X11497968Y-15562988D01*
X11497968Y-15562988D02*
X11488444Y-15582036D01*
X11488444Y-15582036D02*
X11478920Y-15591560D01*
X11478920Y-15591560D02*
X11459872Y-15601084D01*
X11459872Y-15601084D02*
X11402729Y-15601084D01*
X11402729Y-15601084D02*
X11383682Y-15591560D01*
X11383682Y-15591560D02*
X11374158Y-15582036D01*
X11736063Y-15601084D02*
X11736063Y-15401084D01*
X11821777Y-15601084D02*
X11821777Y-15496322D01*
X11821777Y-15496322D02*
X11812253Y-15477274D01*
X11812253Y-15477274D02*
X11793206Y-15467750D01*
X11793206Y-15467750D02*
X11764634Y-15467750D01*
X11764634Y-15467750D02*
X11745587Y-15477274D01*
X11745587Y-15477274D02*
X11736063Y-15486798D01*
X11945587Y-15601084D02*
X11926539Y-15591560D01*
X11926539Y-15591560D02*
X11917015Y-15582036D01*
X11917015Y-15582036D02*
X11907491Y-15562988D01*
X11907491Y-15562988D02*
X11907491Y-15505846D01*
X11907491Y-15505846D02*
X11917015Y-15486798D01*
X11917015Y-15486798D02*
X11926539Y-15477274D01*
X11926539Y-15477274D02*
X11945587Y-15467750D01*
X11945587Y-15467750D02*
X11974158Y-15467750D01*
X11974158Y-15467750D02*
X11993206Y-15477274D01*
X11993206Y-15477274D02*
X12002730Y-15486798D01*
X12002730Y-15486798D02*
X12012253Y-15505846D01*
X12012253Y-15505846D02*
X12012253Y-15562988D01*
X12012253Y-15562988D02*
X12002730Y-15582036D01*
X12002730Y-15582036D02*
X11993206Y-15591560D01*
X11993206Y-15591560D02*
X11974158Y-15601084D01*
X11974158Y-15601084D02*
X11945587Y-15601084D01*
X12126539Y-15601084D02*
X12107491Y-15591560D01*
X12107491Y-15591560D02*
X12097968Y-15572512D01*
X12097968Y-15572512D02*
X12097968Y-15401084D01*
X12278920Y-15591560D02*
X12259872Y-15601084D01*
X12259872Y-15601084D02*
X12221777Y-15601084D01*
X12221777Y-15601084D02*
X12202730Y-15591560D01*
X12202730Y-15591560D02*
X12193206Y-15572512D01*
X12193206Y-15572512D02*
X12193206Y-15496322D01*
X12193206Y-15496322D02*
X12202730Y-15477274D01*
X12202730Y-15477274D02*
X12221777Y-15467750D01*
X12221777Y-15467750D02*
X12259872Y-15467750D01*
X12259872Y-15467750D02*
X12278920Y-15477274D01*
X12278920Y-15477274D02*
X12288444Y-15496322D01*
X12288444Y-15496322D02*
X12288444Y-15515369D01*
X12288444Y-15515369D02*
X12193206Y-15534417D01*
X12364634Y-15591560D02*
X12383682Y-15601084D01*
X12383682Y-15601084D02*
X12421777Y-15601084D01*
X12421777Y-15601084D02*
X12440825Y-15591560D01*
X12440825Y-15591560D02*
X12450349Y-15572512D01*
X12450349Y-15572512D02*
X12450349Y-15562988D01*
X12450349Y-15562988D02*
X12440825Y-15543941D01*
X12440825Y-15543941D02*
X12421777Y-15534417D01*
X12421777Y-15534417D02*
X12393206Y-15534417D01*
X12393206Y-15534417D02*
X12374158Y-15524893D01*
X12374158Y-15524893D02*
X12364634Y-15505846D01*
X12364634Y-15505846D02*
X12364634Y-15496322D01*
X12364634Y-15496322D02*
X12374158Y-15477274D01*
X12374158Y-15477274D02*
X12393206Y-15467750D01*
X12393206Y-15467750D02*
X12421777Y-15467750D01*
X12421777Y-15467750D02*
X12440825Y-15477274D01*
X12517015Y-15677274D02*
X12526539Y-15667750D01*
X12526539Y-15667750D02*
X12545587Y-15639179D01*
X12545587Y-15639179D02*
X12555111Y-15620131D01*
X12555111Y-15620131D02*
X12564634Y-15591560D01*
X12564634Y-15591560D02*
X12574158Y-15543941D01*
X12574158Y-15543941D02*
X12574158Y-15505846D01*
X12574158Y-15505846D02*
X12564634Y-15458227D01*
X12564634Y-15458227D02*
X12555111Y-15429655D01*
X12555111Y-15429655D02*
X12545587Y-15410608D01*
X12545587Y-15410608D02*
X12526539Y-15382036D01*
X12526539Y-15382036D02*
X12517015Y-15372512D01*
X7261000Y-15873600D02*
X7361000Y-15773600D01*
X7261000Y-15673600D01*
X7161000Y-15773600D01*
X7261000Y-15873600D01*
X7707491Y-15731750D02*
X7707491Y-15865084D01*
X7659872Y-15655560D02*
X7612253Y-15798417D01*
X7612253Y-15798417D02*
X7736062Y-15798417D01*
X7812253Y-15846036D02*
X7821777Y-15855560D01*
X7821777Y-15855560D02*
X7812253Y-15865084D01*
X7812253Y-15865084D02*
X7802729Y-15855560D01*
X7802729Y-15855560D02*
X7812253Y-15846036D01*
X7812253Y-15846036D02*
X7812253Y-15865084D01*
X8002729Y-15665084D02*
X7907491Y-15665084D01*
X7907491Y-15665084D02*
X7897967Y-15760322D01*
X7897967Y-15760322D02*
X7907491Y-15750798D01*
X7907491Y-15750798D02*
X7926539Y-15741274D01*
X7926539Y-15741274D02*
X7974158Y-15741274D01*
X7974158Y-15741274D02*
X7993205Y-15750798D01*
X7993205Y-15750798D02*
X8002729Y-15760322D01*
X8002729Y-15760322D02*
X8012253Y-15779369D01*
X8012253Y-15779369D02*
X8012253Y-15826988D01*
X8012253Y-15826988D02*
X8002729Y-15846036D01*
X8002729Y-15846036D02*
X7993205Y-15855560D01*
X7993205Y-15855560D02*
X7974158Y-15865084D01*
X7974158Y-15865084D02*
X7926539Y-15865084D01*
X7926539Y-15865084D02*
X7907491Y-15855560D01*
X7907491Y-15855560D02*
X7897967Y-15846036D01*
X8193205Y-15665084D02*
X8097967Y-15665084D01*
X8097967Y-15665084D02*
X8088443Y-15760322D01*
X8088443Y-15760322D02*
X8097967Y-15750798D01*
X8097967Y-15750798D02*
X8117015Y-15741274D01*
X8117015Y-15741274D02*
X8164634Y-15741274D01*
X8164634Y-15741274D02*
X8183682Y-15750798D01*
X8183682Y-15750798D02*
X8193205Y-15760322D01*
X8193205Y-15760322D02*
X8202729Y-15779369D01*
X8202729Y-15779369D02*
X8202729Y-15826988D01*
X8202729Y-15826988D02*
X8193205Y-15846036D01*
X8193205Y-15846036D02*
X8183682Y-15855560D01*
X8183682Y-15855560D02*
X8164634Y-15865084D01*
X8164634Y-15865084D02*
X8117015Y-15865084D01*
X8117015Y-15865084D02*
X8097967Y-15855560D01*
X8097967Y-15855560D02*
X8088443Y-15846036D01*
X8326539Y-15665084D02*
X8345586Y-15665084D01*
X8345586Y-15665084D02*
X8364634Y-15674608D01*
X8364634Y-15674608D02*
X8374158Y-15684131D01*
X8374158Y-15684131D02*
X8383682Y-15703179D01*
X8383682Y-15703179D02*
X8393205Y-15741274D01*
X8393205Y-15741274D02*
X8393205Y-15788893D01*
X8393205Y-15788893D02*
X8383682Y-15826988D01*
X8383682Y-15826988D02*
X8374158Y-15846036D01*
X8374158Y-15846036D02*
X8364634Y-15855560D01*
X8364634Y-15855560D02*
X8345586Y-15865084D01*
X8345586Y-15865084D02*
X8326539Y-15865084D01*
X8326539Y-15865084D02*
X8307491Y-15855560D01*
X8307491Y-15855560D02*
X8297967Y-15846036D01*
X8297967Y-15846036D02*
X8288443Y-15826988D01*
X8288443Y-15826988D02*
X8278920Y-15788893D01*
X8278920Y-15788893D02*
X8278920Y-15741274D01*
X8278920Y-15741274D02*
X8288443Y-15703179D01*
X8288443Y-15703179D02*
X8297967Y-15684131D01*
X8297967Y-15684131D02*
X8307491Y-15674608D01*
X8307491Y-15674608D02*
X8326539Y-15665084D01*
X8478920Y-15865084D02*
X8478920Y-15731750D01*
X8478920Y-15750798D02*
X8488444Y-15741274D01*
X8488444Y-15741274D02*
X8507491Y-15731750D01*
X8507491Y-15731750D02*
X8536063Y-15731750D01*
X8536063Y-15731750D02*
X8555110Y-15741274D01*
X8555110Y-15741274D02*
X8564634Y-15760322D01*
X8564634Y-15760322D02*
X8564634Y-15865084D01*
X8564634Y-15760322D02*
X8574158Y-15741274D01*
X8574158Y-15741274D02*
X8593205Y-15731750D01*
X8593205Y-15731750D02*
X8621777Y-15731750D01*
X8621777Y-15731750D02*
X8640825Y-15741274D01*
X8640825Y-15741274D02*
X8650348Y-15760322D01*
X8650348Y-15760322D02*
X8650348Y-15865084D01*
X8745586Y-15865084D02*
X8745586Y-15731750D01*
X8745586Y-15750798D02*
X8755110Y-15741274D01*
X8755110Y-15741274D02*
X8774158Y-15731750D01*
X8774158Y-15731750D02*
X8802729Y-15731750D01*
X8802729Y-15731750D02*
X8821777Y-15741274D01*
X8821777Y-15741274D02*
X8831301Y-15760322D01*
X8831301Y-15760322D02*
X8831301Y-15865084D01*
X8831301Y-15760322D02*
X8840825Y-15741274D01*
X8840825Y-15741274D02*
X8859872Y-15731750D01*
X8859872Y-15731750D02*
X8888444Y-15731750D01*
X8888444Y-15731750D02*
X8907491Y-15741274D01*
X8907491Y-15741274D02*
X8917015Y-15760322D01*
X8917015Y-15760322D02*
X8917015Y-15865084D01*
X9307491Y-15655560D02*
X9136063Y-15912703D01*
X9564634Y-15665084D02*
X9583682Y-15665084D01*
X9583682Y-15665084D02*
X9602729Y-15674608D01*
X9602729Y-15674608D02*
X9612253Y-15684131D01*
X9612253Y-15684131D02*
X9621777Y-15703179D01*
X9621777Y-15703179D02*
X9631301Y-15741274D01*
X9631301Y-15741274D02*
X9631301Y-15788893D01*
X9631301Y-15788893D02*
X9621777Y-15826988D01*
X9621777Y-15826988D02*
X9612253Y-15846036D01*
X9612253Y-15846036D02*
X9602729Y-15855560D01*
X9602729Y-15855560D02*
X9583682Y-15865084D01*
X9583682Y-15865084D02*
X9564634Y-15865084D01*
X9564634Y-15865084D02*
X9545587Y-15855560D01*
X9545587Y-15855560D02*
X9536063Y-15846036D01*
X9536063Y-15846036D02*
X9526539Y-15826988D01*
X9526539Y-15826988D02*
X9517015Y-15788893D01*
X9517015Y-15788893D02*
X9517015Y-15741274D01*
X9517015Y-15741274D02*
X9526539Y-15703179D01*
X9526539Y-15703179D02*
X9536063Y-15684131D01*
X9536063Y-15684131D02*
X9545587Y-15674608D01*
X9545587Y-15674608D02*
X9564634Y-15665084D01*
X9717015Y-15846036D02*
X9726539Y-15855560D01*
X9726539Y-15855560D02*
X9717015Y-15865084D01*
X9717015Y-15865084D02*
X9707491Y-15855560D01*
X9707491Y-15855560D02*
X9717015Y-15846036D01*
X9717015Y-15846036D02*
X9717015Y-15865084D01*
X9917015Y-15865084D02*
X9802729Y-15865084D01*
X9859872Y-15865084D02*
X9859872Y-15665084D01*
X9859872Y-15665084D02*
X9840825Y-15693655D01*
X9840825Y-15693655D02*
X9821777Y-15712703D01*
X9821777Y-15712703D02*
X9802729Y-15722227D01*
X9983682Y-15665084D02*
X10117015Y-15665084D01*
X10117015Y-15665084D02*
X10031301Y-15865084D01*
X10202729Y-15865084D02*
X10240825Y-15865084D01*
X10240825Y-15865084D02*
X10259872Y-15855560D01*
X10259872Y-15855560D02*
X10269396Y-15846036D01*
X10269396Y-15846036D02*
X10288444Y-15817465D01*
X10288444Y-15817465D02*
X10297968Y-15779369D01*
X10297968Y-15779369D02*
X10297968Y-15703179D01*
X10297968Y-15703179D02*
X10288444Y-15684131D01*
X10288444Y-15684131D02*
X10278920Y-15674608D01*
X10278920Y-15674608D02*
X10259872Y-15665084D01*
X10259872Y-15665084D02*
X10221777Y-15665084D01*
X10221777Y-15665084D02*
X10202729Y-15674608D01*
X10202729Y-15674608D02*
X10193206Y-15684131D01*
X10193206Y-15684131D02*
X10183682Y-15703179D01*
X10183682Y-15703179D02*
X10183682Y-15750798D01*
X10183682Y-15750798D02*
X10193206Y-15769846D01*
X10193206Y-15769846D02*
X10202729Y-15779369D01*
X10202729Y-15779369D02*
X10221777Y-15788893D01*
X10221777Y-15788893D02*
X10259872Y-15788893D01*
X10259872Y-15788893D02*
X10278920Y-15779369D01*
X10278920Y-15779369D02*
X10288444Y-15769846D01*
X10288444Y-15769846D02*
X10297968Y-15750798D01*
X10488444Y-15865084D02*
X10374158Y-15865084D01*
X10431301Y-15865084D02*
X10431301Y-15665084D01*
X10431301Y-15665084D02*
X10412253Y-15693655D01*
X10412253Y-15693655D02*
X10393206Y-15712703D01*
X10393206Y-15712703D02*
X10374158Y-15722227D01*
X10564634Y-15665084D02*
X10564634Y-15703179D01*
X10640825Y-15665084D02*
X10640825Y-15703179D01*
X10936063Y-15941274D02*
X10926539Y-15931750D01*
X10926539Y-15931750D02*
X10907491Y-15903179D01*
X10907491Y-15903179D02*
X10897968Y-15884131D01*
X10897968Y-15884131D02*
X10888444Y-15855560D01*
X10888444Y-15855560D02*
X10878920Y-15807941D01*
X10878920Y-15807941D02*
X10878920Y-15769846D01*
X10878920Y-15769846D02*
X10888444Y-15722227D01*
X10888444Y-15722227D02*
X10897968Y-15693655D01*
X10897968Y-15693655D02*
X10907491Y-15674608D01*
X10907491Y-15674608D02*
X10926539Y-15646036D01*
X10926539Y-15646036D02*
X10936063Y-15636512D01*
X11097968Y-15731750D02*
X11097968Y-15865084D01*
X11050349Y-15655560D02*
X11002730Y-15798417D01*
X11002730Y-15798417D02*
X11126539Y-15798417D01*
X11355110Y-15865084D02*
X11355110Y-15665084D01*
X11440825Y-15865084D02*
X11440825Y-15760322D01*
X11440825Y-15760322D02*
X11431301Y-15741274D01*
X11431301Y-15741274D02*
X11412253Y-15731750D01*
X11412253Y-15731750D02*
X11383682Y-15731750D01*
X11383682Y-15731750D02*
X11364634Y-15741274D01*
X11364634Y-15741274D02*
X11355110Y-15750798D01*
X11564634Y-15865084D02*
X11545587Y-15855560D01*
X11545587Y-15855560D02*
X11536063Y-15846036D01*
X11536063Y-15846036D02*
X11526539Y-15826988D01*
X11526539Y-15826988D02*
X11526539Y-15769846D01*
X11526539Y-15769846D02*
X11536063Y-15750798D01*
X11536063Y-15750798D02*
X11545587Y-15741274D01*
X11545587Y-15741274D02*
X11564634Y-15731750D01*
X11564634Y-15731750D02*
X11593206Y-15731750D01*
X11593206Y-15731750D02*
X11612253Y-15741274D01*
X11612253Y-15741274D02*
X11621777Y-15750798D01*
X11621777Y-15750798D02*
X11631301Y-15769846D01*
X11631301Y-15769846D02*
X11631301Y-15826988D01*
X11631301Y-15826988D02*
X11621777Y-15846036D01*
X11621777Y-15846036D02*
X11612253Y-15855560D01*
X11612253Y-15855560D02*
X11593206Y-15865084D01*
X11593206Y-15865084D02*
X11564634Y-15865084D01*
X11745587Y-15865084D02*
X11726539Y-15855560D01*
X11726539Y-15855560D02*
X11717015Y-15836512D01*
X11717015Y-15836512D02*
X11717015Y-15665084D01*
X11897968Y-15855560D02*
X11878920Y-15865084D01*
X11878920Y-15865084D02*
X11840825Y-15865084D01*
X11840825Y-15865084D02*
X11821777Y-15855560D01*
X11821777Y-15855560D02*
X11812253Y-15836512D01*
X11812253Y-15836512D02*
X11812253Y-15760322D01*
X11812253Y-15760322D02*
X11821777Y-15741274D01*
X11821777Y-15741274D02*
X11840825Y-15731750D01*
X11840825Y-15731750D02*
X11878920Y-15731750D01*
X11878920Y-15731750D02*
X11897968Y-15741274D01*
X11897968Y-15741274D02*
X11907491Y-15760322D01*
X11907491Y-15760322D02*
X11907491Y-15779369D01*
X11907491Y-15779369D02*
X11812253Y-15798417D01*
X11983682Y-15855560D02*
X12002730Y-15865084D01*
X12002730Y-15865084D02*
X12040825Y-15865084D01*
X12040825Y-15865084D02*
X12059872Y-15855560D01*
X12059872Y-15855560D02*
X12069396Y-15836512D01*
X12069396Y-15836512D02*
X12069396Y-15826988D01*
X12069396Y-15826988D02*
X12059872Y-15807941D01*
X12059872Y-15807941D02*
X12040825Y-15798417D01*
X12040825Y-15798417D02*
X12012253Y-15798417D01*
X12012253Y-15798417D02*
X11993206Y-15788893D01*
X11993206Y-15788893D02*
X11983682Y-15769846D01*
X11983682Y-15769846D02*
X11983682Y-15760322D01*
X11983682Y-15760322D02*
X11993206Y-15741274D01*
X11993206Y-15741274D02*
X12012253Y-15731750D01*
X12012253Y-15731750D02*
X12040825Y-15731750D01*
X12040825Y-15731750D02*
X12059872Y-15741274D01*
X12136063Y-15941274D02*
X12145587Y-15931750D01*
X12145587Y-15931750D02*
X12164634Y-15903179D01*
X12164634Y-15903179D02*
X12174158Y-15884131D01*
X12174158Y-15884131D02*
X12183682Y-15855560D01*
X12183682Y-15855560D02*
X12193206Y-15807941D01*
X12193206Y-15807941D02*
X12193206Y-15769846D01*
X12193206Y-15769846D02*
X12183682Y-15722227D01*
X12183682Y-15722227D02*
X12174158Y-15693655D01*
X12174158Y-15693655D02*
X12164634Y-15674608D01*
X12164634Y-15674608D02*
X12145587Y-15646036D01*
X12145587Y-15646036D02*
X12136063Y-15636512D01*
M02*
