M48
; DRILL file {KiCad 8.0.3} date 2025-05-05T15:44:58+0900
; FORMAT={-:-/ absolute / metric / decimal}
; #@! TF.CreationDate,2025-05-05T15:44:58+09:00
; #@! TF.GenerationSoftware,Kicad,Pcbnew,8.0.3
; #@! TF.FileFunction,Plated,1,2,PTH
FMAT,2
METRIC
; #@! TA.AperFunction,Plated,PTH,ViaDrill
T1C0.400
; #@! TA.AperFunction,Plated,PTH,ComponentDrill
T2C0.800
; #@! TA.AperFunction,Plated,PTH,ComponentDrill
T3C1.000
; #@! TA.AperFunction,Plated,PTH,ComponentDrill
T4C1.118
; #@! TA.AperFunction,Plated,PTH,ComponentDrill
T5C4.550
%
G90
G05
T1
X74.674Y-126.908
X74.674Y-136.052
X74.928Y-104.302
X74.928Y-116.24
X76.056Y-90.136
X76.056Y-137.85
X76.452Y-68.488
X78.992Y-139.608
X80.471Y-88.339
X81.532Y-63.408
X81.532Y-83.728
X81.532Y-96.428
X81.532Y-105.318
X82.639Y-120.218
X84.072Y-72.298
X84.518Y-115.471
X86.332Y-112.841
X86.612Y-96.428
X86.612Y-105.318
X89.152Y-62.138
X89.152Y-84.998
X89.152Y-101.508
X90.224Y-77.416
X90.422Y-139.608
X91.839Y-95.386
X93.56Y-101.733
X95.502Y-134.528
X96.208Y-89.451
X96.772Y-68.488
X96.772Y-128.178
X97.818Y-96.961
X98.896Y-83.46
X99.312Y-81.188
X100.146Y-87.977
X100.582Y-62.138
X101.852Y-72.298
X104.392Y-139.608
X106.675Y-61.836
X107.369Y-100.264
X107.95Y-125.637
X108.096Y-110.447
X108.202Y-129.448
X108.202Y-134.528
X109.645Y-90.4
X111.76Y-89.991
X112.012Y-139.608
X113.282Y-63.408
X113.282Y-82.458
X116.609Y-112.913
X118.362Y-60.868
X118.362Y-83.728
X119.632Y-134.528
X120.719Y-102.753
X121.46Y-123.097
X122.172Y-105.318
X123.442Y-83.728
X127.817Y-98.99
X128.828Y-72.016
X132.132Y-126.091
X132.332Y-98.968
X132.332Y-134.528
X134.566Y-72.959
X135.726Y-73.445
X137.412Y-106.588
X138.682Y-60.868
X139.442Y-74.411
X143.762Y-77.378
X143.762Y-93.888
X143.762Y-104.048
X145.032Y-71.028
X145.653Y-111.888
X146.412Y-84.651
X147.572Y-96.428
X147.572Y-102.778
X150.112Y-126.908
X150.112Y-137.068
X152.652Y-121.828
X153.922Y-60.868
X155.7Y-75.854
X155.7Y-82.712
X156.462Y-98.968
X156.462Y-112.938
X157.732Y-91.348
X158.15Y-69.797
X158.357Y-68.79
X162.917Y-86.516
X163.67Y-85.59
X164.082Y-104.048
X164.082Y-116.748
X166.876Y-62.9
X167.796Y-64.441
X167.892Y-76.362
X169.01Y-69.492
X171.046Y-61.838
X171.907Y-72.686
X172.972Y-114.208
X172.972Y-119.288
X172.972Y-126.908
X172.972Y-137.068
T2
X94.996Y-90.688
X94.996Y-93.736
X94.996Y-96.784
X94.996Y-99.832
X94.996Y-102.88
X94.996Y-105.928
X94.996Y-108.976
X94.996Y-112.024
X105.156Y-90.688
X105.156Y-93.736
X105.156Y-96.784
X105.156Y-99.832
X105.156Y-102.88
X105.156Y-105.928
X105.156Y-108.976
X105.156Y-112.024
X130.556Y-91.196
X130.556Y-94.23
X130.556Y-97.292
X130.556Y-100.34
X130.556Y-103.388
X130.556Y-106.436
X130.556Y-109.484
X130.556Y-112.532
X140.716Y-91.196
X140.716Y-94.23
X140.716Y-97.292
X140.716Y-100.34
X140.716Y-103.388
X140.716Y-106.436
X140.716Y-109.484
X140.716Y-112.532
T3
X78.486Y-129.042
X78.486Y-131.582
X78.486Y-134.122
X78.486Y-136.662
X78.74Y-76.2
X78.74Y-78.74
X78.74Y-88.783
X78.74Y-91.323
X78.74Y-93.863
X78.74Y-96.403
X78.74Y-98.943
X78.74Y-101.483
X78.74Y-104.023
X78.74Y-106.563
X78.74Y-109.103
X78.74Y-111.643
X78.74Y-114.183
X78.74Y-121.92
X78.74Y-124.46
X81.28Y-76.2
X81.28Y-78.74
X81.28Y-121.92
X81.28Y-124.46
X83.82Y-76.2
X83.82Y-78.74
X83.82Y-121.92
X83.82Y-124.46
X85.608Y-131.582
X85.608Y-136.232
X86.36Y-76.2
X86.36Y-78.74
X86.36Y-121.92
X86.36Y-124.46
X88.148Y-131.582
X88.148Y-136.232
X88.9Y-76.2
X88.9Y-78.74
X88.9Y-121.92
X88.9Y-124.46
X90.17Y-88.783
X90.17Y-91.323
X90.17Y-93.863
X90.17Y-96.403
X90.17Y-106.563
X90.17Y-109.103
X90.17Y-111.643
X90.17Y-114.183
X90.688Y-131.582
X90.688Y-136.232
X91.44Y-76.2
X91.44Y-78.74
X91.44Y-121.92
X91.44Y-124.46
X93.228Y-131.582
X93.228Y-136.232
X93.98Y-76.2
X93.98Y-78.74
X93.98Y-121.92
X93.98Y-124.46
X96.52Y-76.2
X96.52Y-78.74
X96.52Y-121.92
X96.52Y-124.46
X98.308Y-131.582
X98.308Y-136.232
X99.06Y-76.2
X99.06Y-78.74
X99.06Y-121.92
X99.06Y-124.46
X100.848Y-131.582
X100.848Y-136.232
X101.6Y-76.2
X101.6Y-78.74
X101.6Y-121.92
X101.6Y-124.46
X103.388Y-131.582
X103.388Y-136.232
X104.14Y-76.2
X104.14Y-78.74
X104.14Y-121.92
X104.14Y-124.46
X105.928Y-131.582
X105.928Y-136.232
X106.68Y-76.2
X106.68Y-78.74
X106.68Y-121.92
X106.68Y-124.46
X109.22Y-76.2
X109.22Y-78.74
X109.22Y-121.92
X109.22Y-124.46
X111.76Y-76.2
X111.76Y-78.74
X111.76Y-121.92
X111.76Y-124.46
X111.76Y-131.455
X111.76Y-135.265
X114.3Y-76.2
X114.3Y-78.74
X114.3Y-88.783
X114.3Y-91.323
X114.3Y-93.863
X114.3Y-96.403
X114.3Y-98.943
X114.3Y-101.483
X114.3Y-104.023
X114.3Y-106.563
X114.3Y-109.103
X114.3Y-111.643
X114.3Y-114.183
X114.3Y-121.92
X114.3Y-124.46
X114.3Y-131.455
X114.3Y-135.265
X116.84Y-121.92
X116.84Y-124.46
X116.84Y-131.455
X116.84Y-135.265
X119.3Y-76.2
X119.3Y-78.74
X119.38Y-121.92
X119.38Y-124.46
X121.84Y-76.2
X121.84Y-78.74
X122.936Y-131.455
X122.951Y-135.265
X123.38Y-121.92
X123.38Y-124.46
X124.38Y-76.2
X124.38Y-78.74
X125.476Y-131.455
X125.491Y-135.265
X125.73Y-88.783
X125.73Y-91.323
X125.73Y-93.863
X125.73Y-96.403
X125.73Y-106.563
X125.73Y-109.103
X125.73Y-111.643
X125.73Y-114.183
X125.92Y-121.92
X125.92Y-124.46
X126.92Y-76.2
X126.92Y-78.74
X128.016Y-131.455
X128.031Y-135.265
X128.46Y-121.92
X128.46Y-124.46
X129.46Y-76.2
X129.46Y-78.74
X131.0Y-121.92
X131.0Y-124.46
X132.0Y-76.2
X132.0Y-78.74
X133.54Y-121.92
X133.54Y-124.46
X134.54Y-76.2
X134.54Y-78.74
X136.08Y-121.92
X136.08Y-124.46
X137.08Y-76.2
X137.08Y-78.74
X138.62Y-121.92
X138.62Y-124.46
X141.16Y-121.92
X141.16Y-124.46
X143.7Y-121.92
X143.7Y-124.46
X146.24Y-121.92
X146.24Y-124.46
X149.86Y-88.783
X149.86Y-91.323
X149.86Y-93.863
X149.86Y-96.403
X149.86Y-98.943
X149.86Y-101.483
X149.86Y-104.023
X149.86Y-106.563
X149.86Y-109.103
X149.86Y-111.643
X149.86Y-114.183
X154.686Y-128.28
X154.686Y-130.82
X154.686Y-134.63
X154.686Y-137.17
X157.226Y-128.28
X157.226Y-130.82
X157.226Y-134.63
X157.226Y-137.17
X159.766Y-120.594
X159.766Y-124.47
X159.766Y-128.28
X159.766Y-130.82
X159.766Y-134.63
X159.766Y-137.17
X161.29Y-88.783
X161.29Y-91.323
X161.29Y-93.863
X161.29Y-96.403
X161.29Y-106.563
X161.29Y-109.103
X161.29Y-111.643
X161.29Y-114.183
X162.306Y-120.594
X162.306Y-124.47
X162.306Y-128.28
X162.306Y-130.82
X162.306Y-134.63
X162.306Y-137.17
X164.846Y-120.594
X164.846Y-124.47
X164.846Y-128.28
X164.846Y-130.82
X164.846Y-134.63
X164.846Y-137.17
X167.386Y-120.594
X167.386Y-124.47
X167.386Y-128.28
X167.386Y-130.82
X167.386Y-134.63
X167.386Y-137.17
X168.148Y-88.148
X168.148Y-91.958
X168.148Y-95.768
X168.148Y-99.578
X168.148Y-103.388
X168.148Y-107.198
X168.148Y-111.008
X168.153Y-114.818
X170.688Y-88.148
X170.688Y-91.958
X170.688Y-95.768
X170.688Y-99.578
X170.688Y-103.388
X170.688Y-107.198
X170.688Y-111.008
X170.693Y-114.818
T4
X89.558Y-65.796
X89.558Y-68.336
X89.558Y-70.876
X94.602Y-65.796
X94.602Y-68.336
X94.602Y-70.876
X99.682Y-65.796
X99.682Y-68.336
X99.682Y-70.876
X104.762Y-65.796
X104.762Y-68.336
X104.762Y-70.876
X125.73Y-65.796
X125.73Y-68.336
X125.73Y-70.876
X130.81Y-65.796
X130.81Y-68.336
X130.81Y-70.876
X135.89Y-65.796
X135.89Y-68.336
X135.89Y-70.876
X140.97Y-65.796
X140.97Y-68.336
X140.97Y-70.876
T5
X137.624Y-133.36
X144.824Y-133.36
X163.068Y-69.308
X163.068Y-76.508
M30
