%TF.GenerationSoftware,KiCad,Pcbnew,8.0.3*%
%TF.CreationDate,2025-05-05T15:45:04+09:00*%
%TF.ProjectId,F767ZI_MB_V1.4,46373637-5a49-45f4-9d42-5f56312e342e,rev?*%
%TF.SameCoordinates,Original*%
%TF.FileFunction,Drillmap*%
%TF.FilePolarity,Positive*%
%FSLAX45Y45*%
G04 Gerber Fmt 4.5, Leading zero omitted, Abs format (unit mm)*
G04 Created by KiCad (PCBNEW 8.0.3) date 2025-05-05 15:45:04*
%MOMM*%
%LPD*%
G01*
G04 APERTURE LIST*
%ADD10C,0.100000*%
%ADD11C,0.200000*%
%ADD12C,0.111760*%
%ADD13C,0.455000*%
G04 APERTURE END LIST*
D10*
X16764000Y-14072600D02*
X17221200Y-14072600D01*
X7366000Y-13716000D02*
X7366000Y-13818600D01*
X7620000Y-14072600D02*
G75*
G02*
X7366000Y-13818600I0J254000D01*
G01*
X17475200Y-13716000D02*
X17475200Y-13818600D01*
X7366000Y-13716000D02*
X7366000Y-6350000D01*
X16764000Y-5995400D02*
X7620000Y-5995400D01*
X17221200Y-5995400D02*
X16764000Y-5995400D01*
X7366000Y-6249400D02*
X7366000Y-6350000D01*
X17221200Y-5995400D02*
G75*
G02*
X17475200Y-6249400I0J-254000D01*
G01*
X7366000Y-6249400D02*
G75*
G02*
X7620000Y-5995400I254000J0D01*
G01*
X17475200Y-6249400D02*
X17475200Y-6350000D01*
X17475200Y-6350000D02*
X17475200Y-13716000D01*
X17475200Y-13818600D02*
G75*
G02*
X17221200Y-14072600I-254000J0D01*
G01*
X16764000Y-14072600D02*
X7620000Y-14072600D01*
D11*
D10*
X7447370Y-12670840D02*
X7487370Y-12710840D01*
X7487370Y-12670840D02*
X7447370Y-12710840D01*
X7447370Y-13585240D02*
X7487370Y-13625240D01*
X7487370Y-13585240D02*
X7447370Y-13625240D01*
X7472770Y-10410240D02*
X7512770Y-10450240D01*
X7512770Y-10410240D02*
X7472770Y-10450240D01*
X7472770Y-11604040D02*
X7512770Y-11644040D01*
X7512770Y-11604040D02*
X7472770Y-11644040D01*
X7585630Y-8993610D02*
X7625630Y-9033610D01*
X7625630Y-8993610D02*
X7585630Y-9033610D01*
X7585630Y-13765000D02*
X7625630Y-13805000D01*
X7625630Y-13765000D02*
X7585630Y-13805000D01*
X7625170Y-6828840D02*
X7665170Y-6868840D01*
X7665170Y-6828840D02*
X7625170Y-6868840D01*
X7879170Y-13940840D02*
X7919170Y-13980840D01*
X7919170Y-13940840D02*
X7879170Y-13980840D01*
X8027090Y-8813900D02*
X8067090Y-8853900D01*
X8067090Y-8813900D02*
X8027090Y-8853900D01*
X8133170Y-6320840D02*
X8173170Y-6360840D01*
X8173170Y-6320840D02*
X8133170Y-6360840D01*
X8133170Y-8352840D02*
X8173170Y-8392840D01*
X8173170Y-8352840D02*
X8133170Y-8392840D01*
X8133170Y-9622840D02*
X8173170Y-9662840D01*
X8173170Y-9622840D02*
X8133170Y-9662840D01*
X8133170Y-10511840D02*
X8173170Y-10551840D01*
X8173170Y-10511840D02*
X8133170Y-10551840D01*
X8243870Y-12001750D02*
X8283870Y-12041750D01*
X8283870Y-12001750D02*
X8243870Y-12041750D01*
X8387170Y-7209840D02*
X8427170Y-7249840D01*
X8427170Y-7209840D02*
X8387170Y-7249840D01*
X8431770Y-11527070D02*
X8471770Y-11567070D01*
X8471770Y-11527070D02*
X8431770Y-11567070D01*
X8613180Y-11264130D02*
X8653180Y-11304130D01*
X8653180Y-11264130D02*
X8613180Y-11304130D01*
X8641170Y-9622840D02*
X8681170Y-9662840D01*
X8681170Y-9622840D02*
X8641170Y-9662840D01*
X8641170Y-10511840D02*
X8681170Y-10551840D01*
X8681170Y-10511840D02*
X8641170Y-10551840D01*
X8895170Y-6193840D02*
X8935170Y-6233840D01*
X8935170Y-6193840D02*
X8895170Y-6233840D01*
X8895170Y-8479840D02*
X8935170Y-8519840D01*
X8935170Y-8479840D02*
X8895170Y-8519840D01*
X8895170Y-10130840D02*
X8935170Y-10170840D01*
X8935170Y-10130840D02*
X8895170Y-10170840D01*
X9002390Y-7721630D02*
X9042390Y-7761630D01*
X9042390Y-7721630D02*
X9002390Y-7761630D01*
X9022170Y-13940840D02*
X9062170Y-13980840D01*
X9062170Y-13940840D02*
X9022170Y-13980840D01*
X9163870Y-9518650D02*
X9203870Y-9558650D01*
X9203870Y-9518650D02*
X9163870Y-9558650D01*
X9336000Y-10153250D02*
X9376000Y-10193250D01*
X9376000Y-10153250D02*
X9336000Y-10193250D01*
X9530170Y-13432840D02*
X9570170Y-13472840D01*
X9570170Y-13432840D02*
X9530170Y-13472840D01*
X9600820Y-8925110D02*
X9640820Y-8965110D01*
X9640820Y-8925110D02*
X9600820Y-8965110D01*
X9657170Y-6828840D02*
X9697170Y-6868840D01*
X9697170Y-6828840D02*
X9657170Y-6868840D01*
X9657170Y-12797840D02*
X9697170Y-12837840D01*
X9697170Y-12797840D02*
X9657170Y-12837840D01*
X9761790Y-9676130D02*
X9801790Y-9716130D01*
X9801790Y-9676130D02*
X9761790Y-9716130D01*
X9869630Y-8325960D02*
X9909630Y-8365960D01*
X9909630Y-8325960D02*
X9869630Y-8365960D01*
X9911170Y-8098840D02*
X9951170Y-8138840D01*
X9951170Y-8098840D02*
X9911170Y-8138840D01*
X9994570Y-8777750D02*
X10034570Y-8817750D01*
X10034570Y-8777750D02*
X9994570Y-8817750D01*
X10038170Y-6193840D02*
X10078170Y-6233840D01*
X10078170Y-6193840D02*
X10038170Y-6233840D01*
X10165170Y-7209840D02*
X10205170Y-7249840D01*
X10205170Y-7209840D02*
X10165170Y-7249840D01*
X10419170Y-13940840D02*
X10459170Y-13980840D01*
X10459170Y-13940840D02*
X10419170Y-13980840D01*
X10647520Y-6163600D02*
X10687520Y-6203600D01*
X10687520Y-6163600D02*
X10647520Y-6203600D01*
X10716920Y-10006450D02*
X10756920Y-10046450D01*
X10756920Y-10006450D02*
X10716920Y-10046450D01*
X10775000Y-12543670D02*
X10815000Y-12583670D01*
X10815000Y-12543670D02*
X10775000Y-12583670D01*
X10789590Y-11024710D02*
X10829590Y-11064710D01*
X10829590Y-11024710D02*
X10789590Y-11064710D01*
X10800170Y-12924840D02*
X10840170Y-12964840D01*
X10840170Y-12924840D02*
X10800170Y-12964840D01*
X10800170Y-13432840D02*
X10840170Y-13472840D01*
X10840170Y-13432840D02*
X10800170Y-13472840D01*
X10944460Y-9019970D02*
X10984460Y-9059970D01*
X10984460Y-9019970D02*
X10944460Y-9059970D01*
X11156000Y-8979060D02*
X11196000Y-9019060D01*
X11196000Y-8979060D02*
X11156000Y-9019060D01*
X11181170Y-13940840D02*
X11221170Y-13980840D01*
X11221170Y-13940840D02*
X11181170Y-13980840D01*
X11308170Y-6320840D02*
X11348170Y-6360840D01*
X11348170Y-6320840D02*
X11308170Y-6360840D01*
X11308170Y-8225840D02*
X11348170Y-8265840D01*
X11348170Y-8225840D02*
X11308170Y-8265840D01*
X11640930Y-11271290D02*
X11680930Y-11311290D01*
X11680930Y-11271290D02*
X11640930Y-11311290D01*
X11816170Y-6066840D02*
X11856170Y-6106840D01*
X11856170Y-6066840D02*
X11816170Y-6106840D01*
X11816170Y-8352840D02*
X11856170Y-8392840D01*
X11856170Y-8352840D02*
X11816170Y-8392840D01*
X11943170Y-13432840D02*
X11983170Y-13472840D01*
X11983170Y-13432840D02*
X11943170Y-13472840D01*
X12051890Y-10255300D02*
X12091890Y-10295300D01*
X12091890Y-10255300D02*
X12051890Y-10295300D01*
X12126020Y-12289670D02*
X12166020Y-12329670D01*
X12166020Y-12289670D02*
X12126020Y-12329670D01*
X12197170Y-10511840D02*
X12237170Y-10551840D01*
X12237170Y-10511840D02*
X12197170Y-10551840D01*
X12324170Y-8352840D02*
X12364170Y-8392840D01*
X12364170Y-8352840D02*
X12324170Y-8392840D01*
X12761720Y-9878980D02*
X12801720Y-9918980D01*
X12801720Y-9878980D02*
X12761720Y-9918980D01*
X12862810Y-7181550D02*
X12902810Y-7221550D01*
X12902810Y-7181550D02*
X12862810Y-7221550D01*
X13193250Y-12589120D02*
X13233250Y-12629120D01*
X13233250Y-12589120D02*
X13193250Y-12629120D01*
X13213170Y-9876840D02*
X13253170Y-9916840D01*
X13253170Y-9876840D02*
X13213170Y-9916840D01*
X13213170Y-13432840D02*
X13253170Y-13472840D01*
X13253170Y-13432840D02*
X13213170Y-13472840D01*
X13436560Y-7275950D02*
X13476560Y-7315950D01*
X13476560Y-7275950D02*
X13436560Y-7315950D01*
X13552610Y-7324470D02*
X13592610Y-7364470D01*
X13592610Y-7324470D02*
X13552610Y-7364470D01*
X13721170Y-10638840D02*
X13761170Y-10678840D01*
X13761170Y-10638840D02*
X13721170Y-10678840D01*
X13848170Y-6066840D02*
X13888170Y-6106840D01*
X13888170Y-6066840D02*
X13848170Y-6106840D01*
X13924180Y-7421150D02*
X13964180Y-7461150D01*
X13964180Y-7421150D02*
X13924180Y-7461150D01*
X14356170Y-7717840D02*
X14396170Y-7757840D01*
X14396170Y-7717840D02*
X14356170Y-7757840D01*
X14356170Y-9368840D02*
X14396170Y-9408840D01*
X14396170Y-9368840D02*
X14356170Y-9408840D01*
X14356170Y-10384840D02*
X14396170Y-10424840D01*
X14396170Y-10384840D02*
X14356170Y-10424840D01*
X14483170Y-7082840D02*
X14523170Y-7122840D01*
X14523170Y-7082840D02*
X14483170Y-7122840D01*
X14545330Y-11168760D02*
X14585330Y-11208760D01*
X14585330Y-11168760D02*
X14545330Y-11208760D01*
X14621220Y-8445100D02*
X14661220Y-8485100D01*
X14661220Y-8445100D02*
X14621220Y-8485100D01*
X14737170Y-9622840D02*
X14777170Y-9662840D01*
X14777170Y-9622840D02*
X14737170Y-9662840D01*
X14737170Y-10257840D02*
X14777170Y-10297840D01*
X14777170Y-10257840D02*
X14737170Y-10297840D01*
X14991170Y-12670840D02*
X15031170Y-12710840D01*
X15031170Y-12670840D02*
X14991170Y-12710840D01*
X14991170Y-13686840D02*
X15031170Y-13726840D01*
X15031170Y-13686840D02*
X14991170Y-13726840D01*
X15245170Y-12162840D02*
X15285170Y-12202840D01*
X15285170Y-12162840D02*
X15245170Y-12202840D01*
X15372170Y-6066840D02*
X15412170Y-6106840D01*
X15412170Y-6066840D02*
X15372170Y-6106840D01*
X15549970Y-7565440D02*
X15589970Y-7605440D01*
X15589970Y-7565440D02*
X15549970Y-7605440D01*
X15549970Y-8251240D02*
X15589970Y-8291240D01*
X15589970Y-8251240D02*
X15549970Y-8291240D01*
X15626170Y-9876840D02*
X15666170Y-9916840D01*
X15666170Y-9876840D02*
X15626170Y-9916840D01*
X15626170Y-11273840D02*
X15666170Y-11313840D01*
X15666170Y-11273840D02*
X15626170Y-11313840D01*
X15753170Y-9114840D02*
X15793170Y-9154840D01*
X15793170Y-9114840D02*
X15753170Y-9154840D01*
X15794980Y-6959690D02*
X15834980Y-6999690D01*
X15834980Y-6959690D02*
X15794980Y-6999690D01*
X15815740Y-6859020D02*
X15855740Y-6899020D01*
X15855740Y-6859020D02*
X15815740Y-6899020D01*
X16271690Y-8631570D02*
X16311690Y-8671570D01*
X16311690Y-8631570D02*
X16271690Y-8671570D01*
X16347000Y-8538950D02*
X16387000Y-8578950D01*
X16387000Y-8538950D02*
X16347000Y-8578950D01*
X16388170Y-10384840D02*
X16428170Y-10424840D01*
X16428170Y-10384840D02*
X16388170Y-10424840D01*
X16388170Y-11654840D02*
X16428170Y-11694840D01*
X16428170Y-11654840D02*
X16388170Y-11694840D01*
X16667570Y-6270040D02*
X16707570Y-6310040D01*
X16707570Y-6270040D02*
X16667570Y-6310040D01*
X16759610Y-6424080D02*
X16799610Y-6464080D01*
X16799610Y-6424080D02*
X16759610Y-6464080D01*
X16769170Y-7616240D02*
X16809170Y-7656240D01*
X16809170Y-7616240D02*
X16769170Y-7656240D01*
X16880960Y-6929180D02*
X16920960Y-6969180D01*
X16920960Y-6929180D02*
X16880960Y-6969180D01*
X17084550Y-6163760D02*
X17124550Y-6203760D01*
X17124550Y-6163760D02*
X17084550Y-6203760D01*
X17170750Y-7248590D02*
X17210750Y-7288590D01*
X17210750Y-7248590D02*
X17170750Y-7288590D01*
X17277170Y-11400840D02*
X17317170Y-11440840D01*
X17317170Y-11400840D02*
X17277170Y-11440840D01*
X17277170Y-11908840D02*
X17317170Y-11948840D01*
X17317170Y-11908840D02*
X17277170Y-11948840D01*
X17277170Y-12670840D02*
X17317170Y-12710840D01*
X17317170Y-12670840D02*
X17277170Y-12710840D01*
X17277170Y-13686840D02*
X17317170Y-13726840D01*
X17317170Y-13686840D02*
X17277170Y-13726840D01*
X9539600Y-9068800D02*
G75*
G02*
X9459600Y-9068800I-40000J0D01*
G01*
X9459600Y-9068800D02*
G75*
G02*
X9539600Y-9068800I40000J0D01*
G01*
X9539600Y-9373600D02*
G75*
G02*
X9459600Y-9373600I-40000J0D01*
G01*
X9459600Y-9373600D02*
G75*
G02*
X9539600Y-9373600I40000J0D01*
G01*
X9539600Y-9678400D02*
G75*
G02*
X9459600Y-9678400I-40000J0D01*
G01*
X9459600Y-9678400D02*
G75*
G02*
X9539600Y-9678400I40000J0D01*
G01*
X9539600Y-9983200D02*
G75*
G02*
X9459600Y-9983200I-40000J0D01*
G01*
X9459600Y-9983200D02*
G75*
G02*
X9539600Y-9983200I40000J0D01*
G01*
X9539600Y-10288000D02*
G75*
G02*
X9459600Y-10288000I-40000J0D01*
G01*
X9459600Y-10288000D02*
G75*
G02*
X9539600Y-10288000I40000J0D01*
G01*
X9539600Y-10592800D02*
G75*
G02*
X9459600Y-10592800I-40000J0D01*
G01*
X9459600Y-10592800D02*
G75*
G02*
X9539600Y-10592800I40000J0D01*
G01*
X9539600Y-10897600D02*
G75*
G02*
X9459600Y-10897600I-40000J0D01*
G01*
X9459600Y-10897600D02*
G75*
G02*
X9539600Y-10897600I40000J0D01*
G01*
X9539600Y-11202400D02*
G75*
G02*
X9459600Y-11202400I-40000J0D01*
G01*
X9459600Y-11202400D02*
G75*
G02*
X9539600Y-11202400I40000J0D01*
G01*
X10555600Y-9068800D02*
G75*
G02*
X10475600Y-9068800I-40000J0D01*
G01*
X10475600Y-9068800D02*
G75*
G02*
X10555600Y-9068800I40000J0D01*
G01*
X10555600Y-9373600D02*
G75*
G02*
X10475600Y-9373600I-40000J0D01*
G01*
X10475600Y-9373600D02*
G75*
G02*
X10555600Y-9373600I40000J0D01*
G01*
X10555600Y-9678400D02*
G75*
G02*
X10475600Y-9678400I-40000J0D01*
G01*
X10475600Y-9678400D02*
G75*
G02*
X10555600Y-9678400I40000J0D01*
G01*
X10555600Y-9983200D02*
G75*
G02*
X10475600Y-9983200I-40000J0D01*
G01*
X10475600Y-9983200D02*
G75*
G02*
X10555600Y-9983200I40000J0D01*
G01*
X10555600Y-10288000D02*
G75*
G02*
X10475600Y-10288000I-40000J0D01*
G01*
X10475600Y-10288000D02*
G75*
G02*
X10555600Y-10288000I40000J0D01*
G01*
X10555600Y-10592800D02*
G75*
G02*
X10475600Y-10592800I-40000J0D01*
G01*
X10475600Y-10592800D02*
G75*
G02*
X10555600Y-10592800I40000J0D01*
G01*
X10555600Y-10897600D02*
G75*
G02*
X10475600Y-10897600I-40000J0D01*
G01*
X10475600Y-10897600D02*
G75*
G02*
X10555600Y-10897600I40000J0D01*
G01*
X10555600Y-11202400D02*
G75*
G02*
X10475600Y-11202400I-40000J0D01*
G01*
X10475600Y-11202400D02*
G75*
G02*
X10555600Y-11202400I40000J0D01*
G01*
X13095600Y-9119600D02*
G75*
G02*
X13015600Y-9119600I-40000J0D01*
G01*
X13015600Y-9119600D02*
G75*
G02*
X13095600Y-9119600I40000J0D01*
G01*
X13095600Y-9423000D02*
G75*
G02*
X13015600Y-9423000I-40000J0D01*
G01*
X13015600Y-9423000D02*
G75*
G02*
X13095600Y-9423000I40000J0D01*
G01*
X13095600Y-9729200D02*
G75*
G02*
X13015600Y-9729200I-40000J0D01*
G01*
X13015600Y-9729200D02*
G75*
G02*
X13095600Y-9729200I40000J0D01*
G01*
X13095600Y-10034000D02*
G75*
G02*
X13015600Y-10034000I-40000J0D01*
G01*
X13015600Y-10034000D02*
G75*
G02*
X13095600Y-10034000I40000J0D01*
G01*
X13095600Y-10338800D02*
G75*
G02*
X13015600Y-10338800I-40000J0D01*
G01*
X13015600Y-10338800D02*
G75*
G02*
X13095600Y-10338800I40000J0D01*
G01*
X13095600Y-10643600D02*
G75*
G02*
X13015600Y-10643600I-40000J0D01*
G01*
X13015600Y-10643600D02*
G75*
G02*
X13095600Y-10643600I40000J0D01*
G01*
X13095600Y-10948400D02*
G75*
G02*
X13015600Y-10948400I-40000J0D01*
G01*
X13015600Y-10948400D02*
G75*
G02*
X13095600Y-10948400I40000J0D01*
G01*
X13095600Y-11253200D02*
G75*
G02*
X13015600Y-11253200I-40000J0D01*
G01*
X13015600Y-11253200D02*
G75*
G02*
X13095600Y-11253200I40000J0D01*
G01*
X14111600Y-9119600D02*
G75*
G02*
X14031600Y-9119600I-40000J0D01*
G01*
X14031600Y-9119600D02*
G75*
G02*
X14111600Y-9119600I40000J0D01*
G01*
X14111600Y-9423000D02*
G75*
G02*
X14031600Y-9423000I-40000J0D01*
G01*
X14031600Y-9423000D02*
G75*
G02*
X14111600Y-9423000I40000J0D01*
G01*
X14111600Y-9729200D02*
G75*
G02*
X14031600Y-9729200I-40000J0D01*
G01*
X14031600Y-9729200D02*
G75*
G02*
X14111600Y-9729200I40000J0D01*
G01*
X14111600Y-10034000D02*
G75*
G02*
X14031600Y-10034000I-40000J0D01*
G01*
X14031600Y-10034000D02*
G75*
G02*
X14111600Y-10034000I40000J0D01*
G01*
X14111600Y-10338800D02*
G75*
G02*
X14031600Y-10338800I-40000J0D01*
G01*
X14031600Y-10338800D02*
G75*
G02*
X14111600Y-10338800I40000J0D01*
G01*
X14111600Y-10643600D02*
G75*
G02*
X14031600Y-10643600I-40000J0D01*
G01*
X14031600Y-10643600D02*
G75*
G02*
X14111600Y-10643600I40000J0D01*
G01*
X14111600Y-10948400D02*
G75*
G02*
X14031600Y-10948400I-40000J0D01*
G01*
X14031600Y-10948400D02*
G75*
G02*
X14111600Y-10948400I40000J0D01*
G01*
X14111600Y-11253200D02*
G75*
G02*
X14031600Y-11253200I-40000J0D01*
G01*
X14031600Y-11253200D02*
G75*
G02*
X14111600Y-11253200I40000J0D01*
G01*
X7848600Y-12854200D02*
X7848600Y-12954200D01*
X7798600Y-12904200D02*
X7898600Y-12904200D01*
X7848600Y-13108200D02*
X7848600Y-13208200D01*
X7798600Y-13158200D02*
X7898600Y-13158200D01*
X7848600Y-13362200D02*
X7848600Y-13462200D01*
X7798600Y-13412200D02*
X7898600Y-13412200D01*
X7848600Y-13616200D02*
X7848600Y-13716200D01*
X7798600Y-13666200D02*
X7898600Y-13666200D01*
X7874000Y-7570000D02*
X7874000Y-7670000D01*
X7824000Y-7620000D02*
X7924000Y-7620000D01*
X7874000Y-7824000D02*
X7874000Y-7924000D01*
X7824000Y-7874000D02*
X7924000Y-7874000D01*
X7874000Y-8828300D02*
X7874000Y-8928300D01*
X7824000Y-8878300D02*
X7924000Y-8878300D01*
X7874000Y-9082300D02*
X7874000Y-9182300D01*
X7824000Y-9132300D02*
X7924000Y-9132300D01*
X7874000Y-9336300D02*
X7874000Y-9436300D01*
X7824000Y-9386300D02*
X7924000Y-9386300D01*
X7874000Y-9590300D02*
X7874000Y-9690300D01*
X7824000Y-9640300D02*
X7924000Y-9640300D01*
X7874000Y-9844300D02*
X7874000Y-9944300D01*
X7824000Y-9894300D02*
X7924000Y-9894300D01*
X7874000Y-10098300D02*
X7874000Y-10198300D01*
X7824000Y-10148300D02*
X7924000Y-10148300D01*
X7874000Y-10352300D02*
X7874000Y-10452300D01*
X7824000Y-10402300D02*
X7924000Y-10402300D01*
X7874000Y-10606300D02*
X7874000Y-10706300D01*
X7824000Y-10656300D02*
X7924000Y-10656300D01*
X7874000Y-10860300D02*
X7874000Y-10960300D01*
X7824000Y-10910300D02*
X7924000Y-10910300D01*
X7874000Y-11114300D02*
X7874000Y-11214300D01*
X7824000Y-11164300D02*
X7924000Y-11164300D01*
X7874000Y-11368300D02*
X7874000Y-11468300D01*
X7824000Y-11418300D02*
X7924000Y-11418300D01*
X7874000Y-12142000D02*
X7874000Y-12242000D01*
X7824000Y-12192000D02*
X7924000Y-12192000D01*
X7874000Y-12396000D02*
X7874000Y-12496000D01*
X7824000Y-12446000D02*
X7924000Y-12446000D01*
X8128000Y-7570000D02*
X8128000Y-7670000D01*
X8078000Y-7620000D02*
X8178000Y-7620000D01*
X8128000Y-7824000D02*
X8128000Y-7924000D01*
X8078000Y-7874000D02*
X8178000Y-7874000D01*
X8128000Y-12142000D02*
X8128000Y-12242000D01*
X8078000Y-12192000D02*
X8178000Y-12192000D01*
X8128000Y-12396000D02*
X8128000Y-12496000D01*
X8078000Y-12446000D02*
X8178000Y-12446000D01*
X8382000Y-7570000D02*
X8382000Y-7670000D01*
X8332000Y-7620000D02*
X8432000Y-7620000D01*
X8382000Y-7824000D02*
X8382000Y-7924000D01*
X8332000Y-7874000D02*
X8432000Y-7874000D01*
X8382000Y-12142000D02*
X8382000Y-12242000D01*
X8332000Y-12192000D02*
X8432000Y-12192000D01*
X8382000Y-12396000D02*
X8382000Y-12496000D01*
X8332000Y-12446000D02*
X8432000Y-12446000D01*
X8560800Y-13108200D02*
X8560800Y-13208200D01*
X8510800Y-13158200D02*
X8610800Y-13158200D01*
X8560800Y-13573200D02*
X8560800Y-13673200D01*
X8510800Y-13623200D02*
X8610800Y-13623200D01*
X8636000Y-7570000D02*
X8636000Y-7670000D01*
X8586000Y-7620000D02*
X8686000Y-7620000D01*
X8636000Y-7824000D02*
X8636000Y-7924000D01*
X8586000Y-7874000D02*
X8686000Y-7874000D01*
X8636000Y-12142000D02*
X8636000Y-12242000D01*
X8586000Y-12192000D02*
X8686000Y-12192000D01*
X8636000Y-12396000D02*
X8636000Y-12496000D01*
X8586000Y-12446000D02*
X8686000Y-12446000D01*
X8814800Y-13108200D02*
X8814800Y-13208200D01*
X8764800Y-13158200D02*
X8864800Y-13158200D01*
X8814800Y-13573200D02*
X8814800Y-13673200D01*
X8764800Y-13623200D02*
X8864800Y-13623200D01*
X8890000Y-7570000D02*
X8890000Y-7670000D01*
X8840000Y-7620000D02*
X8940000Y-7620000D01*
X8890000Y-7824000D02*
X8890000Y-7924000D01*
X8840000Y-7874000D02*
X8940000Y-7874000D01*
X8890000Y-12142000D02*
X8890000Y-12242000D01*
X8840000Y-12192000D02*
X8940000Y-12192000D01*
X8890000Y-12396000D02*
X8890000Y-12496000D01*
X8840000Y-12446000D02*
X8940000Y-12446000D01*
X9017000Y-8828300D02*
X9017000Y-8928300D01*
X8967000Y-8878300D02*
X9067000Y-8878300D01*
X9017000Y-9082300D02*
X9017000Y-9182300D01*
X8967000Y-9132300D02*
X9067000Y-9132300D01*
X9017000Y-9336300D02*
X9017000Y-9436300D01*
X8967000Y-9386300D02*
X9067000Y-9386300D01*
X9017000Y-9590300D02*
X9017000Y-9690300D01*
X8967000Y-9640300D02*
X9067000Y-9640300D01*
X9017000Y-10606300D02*
X9017000Y-10706300D01*
X8967000Y-10656300D02*
X9067000Y-10656300D01*
X9017000Y-10860300D02*
X9017000Y-10960300D01*
X8967000Y-10910300D02*
X9067000Y-10910300D01*
X9017000Y-11114300D02*
X9017000Y-11214300D01*
X8967000Y-11164300D02*
X9067000Y-11164300D01*
X9017000Y-11368300D02*
X9017000Y-11468300D01*
X8967000Y-11418300D02*
X9067000Y-11418300D01*
X9068800Y-13108200D02*
X9068800Y-13208200D01*
X9018800Y-13158200D02*
X9118800Y-13158200D01*
X9068800Y-13573200D02*
X9068800Y-13673200D01*
X9018800Y-13623200D02*
X9118800Y-13623200D01*
X9144000Y-7570000D02*
X9144000Y-7670000D01*
X9094000Y-7620000D02*
X9194000Y-7620000D01*
X9144000Y-7824000D02*
X9144000Y-7924000D01*
X9094000Y-7874000D02*
X9194000Y-7874000D01*
X9144000Y-12142000D02*
X9144000Y-12242000D01*
X9094000Y-12192000D02*
X9194000Y-12192000D01*
X9144000Y-12396000D02*
X9144000Y-12496000D01*
X9094000Y-12446000D02*
X9194000Y-12446000D01*
X9322800Y-13108200D02*
X9322800Y-13208200D01*
X9272800Y-13158200D02*
X9372800Y-13158200D01*
X9322800Y-13573200D02*
X9322800Y-13673200D01*
X9272800Y-13623200D02*
X9372800Y-13623200D01*
X9398000Y-7570000D02*
X9398000Y-7670000D01*
X9348000Y-7620000D02*
X9448000Y-7620000D01*
X9398000Y-7824000D02*
X9398000Y-7924000D01*
X9348000Y-7874000D02*
X9448000Y-7874000D01*
X9398000Y-12142000D02*
X9398000Y-12242000D01*
X9348000Y-12192000D02*
X9448000Y-12192000D01*
X9398000Y-12396000D02*
X9398000Y-12496000D01*
X9348000Y-12446000D02*
X9448000Y-12446000D01*
X9652000Y-7570000D02*
X9652000Y-7670000D01*
X9602000Y-7620000D02*
X9702000Y-7620000D01*
X9652000Y-7824000D02*
X9652000Y-7924000D01*
X9602000Y-7874000D02*
X9702000Y-7874000D01*
X9652000Y-12142000D02*
X9652000Y-12242000D01*
X9602000Y-12192000D02*
X9702000Y-12192000D01*
X9652000Y-12396000D02*
X9652000Y-12496000D01*
X9602000Y-12446000D02*
X9702000Y-12446000D01*
X9830800Y-13108200D02*
X9830800Y-13208200D01*
X9780800Y-13158200D02*
X9880800Y-13158200D01*
X9830800Y-13573200D02*
X9830800Y-13673200D01*
X9780800Y-13623200D02*
X9880800Y-13623200D01*
X9906000Y-7570000D02*
X9906000Y-7670000D01*
X9856000Y-7620000D02*
X9956000Y-7620000D01*
X9906000Y-7824000D02*
X9906000Y-7924000D01*
X9856000Y-7874000D02*
X9956000Y-7874000D01*
X9906000Y-12142000D02*
X9906000Y-12242000D01*
X9856000Y-12192000D02*
X9956000Y-12192000D01*
X9906000Y-12396000D02*
X9906000Y-12496000D01*
X9856000Y-12446000D02*
X9956000Y-12446000D01*
X10084800Y-13108200D02*
X10084800Y-13208200D01*
X10034800Y-13158200D02*
X10134800Y-13158200D01*
X10084800Y-13573200D02*
X10084800Y-13673200D01*
X10034800Y-13623200D02*
X10134800Y-13623200D01*
X10160000Y-7570000D02*
X10160000Y-7670000D01*
X10110000Y-7620000D02*
X10210000Y-7620000D01*
X10160000Y-7824000D02*
X10160000Y-7924000D01*
X10110000Y-7874000D02*
X10210000Y-7874000D01*
X10160000Y-12142000D02*
X10160000Y-12242000D01*
X10110000Y-12192000D02*
X10210000Y-12192000D01*
X10160000Y-12396000D02*
X10160000Y-12496000D01*
X10110000Y-12446000D02*
X10210000Y-12446000D01*
X10338800Y-13108200D02*
X10338800Y-13208200D01*
X10288800Y-13158200D02*
X10388800Y-13158200D01*
X10338800Y-13573200D02*
X10338800Y-13673200D01*
X10288800Y-13623200D02*
X10388800Y-13623200D01*
X10414000Y-7570000D02*
X10414000Y-7670000D01*
X10364000Y-7620000D02*
X10464000Y-7620000D01*
X10414000Y-7824000D02*
X10414000Y-7924000D01*
X10364000Y-7874000D02*
X10464000Y-7874000D01*
X10414000Y-12142000D02*
X10414000Y-12242000D01*
X10364000Y-12192000D02*
X10464000Y-12192000D01*
X10414000Y-12396000D02*
X10414000Y-12496000D01*
X10364000Y-12446000D02*
X10464000Y-12446000D01*
X10592800Y-13108200D02*
X10592800Y-13208200D01*
X10542800Y-13158200D02*
X10642800Y-13158200D01*
X10592800Y-13573200D02*
X10592800Y-13673200D01*
X10542800Y-13623200D02*
X10642800Y-13623200D01*
X10668000Y-7570000D02*
X10668000Y-7670000D01*
X10618000Y-7620000D02*
X10718000Y-7620000D01*
X10668000Y-7824000D02*
X10668000Y-7924000D01*
X10618000Y-7874000D02*
X10718000Y-7874000D01*
X10668000Y-12142000D02*
X10668000Y-12242000D01*
X10618000Y-12192000D02*
X10718000Y-12192000D01*
X10668000Y-12396000D02*
X10668000Y-12496000D01*
X10618000Y-12446000D02*
X10718000Y-12446000D01*
X10922000Y-7570000D02*
X10922000Y-7670000D01*
X10872000Y-7620000D02*
X10972000Y-7620000D01*
X10922000Y-7824000D02*
X10922000Y-7924000D01*
X10872000Y-7874000D02*
X10972000Y-7874000D01*
X10922000Y-12142000D02*
X10922000Y-12242000D01*
X10872000Y-12192000D02*
X10972000Y-12192000D01*
X10922000Y-12396000D02*
X10922000Y-12496000D01*
X10872000Y-12446000D02*
X10972000Y-12446000D01*
X11176000Y-7570000D02*
X11176000Y-7670000D01*
X11126000Y-7620000D02*
X11226000Y-7620000D01*
X11176000Y-7824000D02*
X11176000Y-7924000D01*
X11126000Y-7874000D02*
X11226000Y-7874000D01*
X11176000Y-12142000D02*
X11176000Y-12242000D01*
X11126000Y-12192000D02*
X11226000Y-12192000D01*
X11176000Y-12396000D02*
X11176000Y-12496000D01*
X11126000Y-12446000D02*
X11226000Y-12446000D01*
X11176000Y-13095500D02*
X11176000Y-13195500D01*
X11126000Y-13145500D02*
X11226000Y-13145500D01*
X11176000Y-13476500D02*
X11176000Y-13576500D01*
X11126000Y-13526500D02*
X11226000Y-13526500D01*
X11430000Y-7570000D02*
X11430000Y-7670000D01*
X11380000Y-7620000D02*
X11480000Y-7620000D01*
X11430000Y-7824000D02*
X11430000Y-7924000D01*
X11380000Y-7874000D02*
X11480000Y-7874000D01*
X11430000Y-8828300D02*
X11430000Y-8928300D01*
X11380000Y-8878300D02*
X11480000Y-8878300D01*
X11430000Y-9082300D02*
X11430000Y-9182300D01*
X11380000Y-9132300D02*
X11480000Y-9132300D01*
X11430000Y-9336300D02*
X11430000Y-9436300D01*
X11380000Y-9386300D02*
X11480000Y-9386300D01*
X11430000Y-9590300D02*
X11430000Y-9690300D01*
X11380000Y-9640300D02*
X11480000Y-9640300D01*
X11430000Y-9844300D02*
X11430000Y-9944300D01*
X11380000Y-9894300D02*
X11480000Y-9894300D01*
X11430000Y-10098300D02*
X11430000Y-10198300D01*
X11380000Y-10148300D02*
X11480000Y-10148300D01*
X11430000Y-10352300D02*
X11430000Y-10452300D01*
X11380000Y-10402300D02*
X11480000Y-10402300D01*
X11430000Y-10606300D02*
X11430000Y-10706300D01*
X11380000Y-10656300D02*
X11480000Y-10656300D01*
X11430000Y-10860300D02*
X11430000Y-10960300D01*
X11380000Y-10910300D02*
X11480000Y-10910300D01*
X11430000Y-11114300D02*
X11430000Y-11214300D01*
X11380000Y-11164300D02*
X11480000Y-11164300D01*
X11430000Y-11368300D02*
X11430000Y-11468300D01*
X11380000Y-11418300D02*
X11480000Y-11418300D01*
X11430000Y-12142000D02*
X11430000Y-12242000D01*
X11380000Y-12192000D02*
X11480000Y-12192000D01*
X11430000Y-12396000D02*
X11430000Y-12496000D01*
X11380000Y-12446000D02*
X11480000Y-12446000D01*
X11430000Y-13095500D02*
X11430000Y-13195500D01*
X11380000Y-13145500D02*
X11480000Y-13145500D01*
X11430000Y-13476500D02*
X11430000Y-13576500D01*
X11380000Y-13526500D02*
X11480000Y-13526500D01*
X11684000Y-12142000D02*
X11684000Y-12242000D01*
X11634000Y-12192000D02*
X11734000Y-12192000D01*
X11684000Y-12396000D02*
X11684000Y-12496000D01*
X11634000Y-12446000D02*
X11734000Y-12446000D01*
X11684000Y-13095500D02*
X11684000Y-13195500D01*
X11634000Y-13145500D02*
X11734000Y-13145500D01*
X11684000Y-13476500D02*
X11684000Y-13576500D01*
X11634000Y-13526500D02*
X11734000Y-13526500D01*
X11930000Y-7570000D02*
X11930000Y-7670000D01*
X11880000Y-7620000D02*
X11980000Y-7620000D01*
X11930000Y-7824000D02*
X11930000Y-7924000D01*
X11880000Y-7874000D02*
X11980000Y-7874000D01*
X11938000Y-12142000D02*
X11938000Y-12242000D01*
X11888000Y-12192000D02*
X11988000Y-12192000D01*
X11938000Y-12396000D02*
X11938000Y-12496000D01*
X11888000Y-12446000D02*
X11988000Y-12446000D01*
X12184000Y-7570000D02*
X12184000Y-7670000D01*
X12134000Y-7620000D02*
X12234000Y-7620000D01*
X12184000Y-7824000D02*
X12184000Y-7924000D01*
X12134000Y-7874000D02*
X12234000Y-7874000D01*
X12293600Y-13095500D02*
X12293600Y-13195500D01*
X12243600Y-13145500D02*
X12343600Y-13145500D01*
X12295100Y-13476500D02*
X12295100Y-13576500D01*
X12245100Y-13526500D02*
X12345100Y-13526500D01*
X12338000Y-12142000D02*
X12338000Y-12242000D01*
X12288000Y-12192000D02*
X12388000Y-12192000D01*
X12338000Y-12396000D02*
X12338000Y-12496000D01*
X12288000Y-12446000D02*
X12388000Y-12446000D01*
X12438000Y-7570000D02*
X12438000Y-7670000D01*
X12388000Y-7620000D02*
X12488000Y-7620000D01*
X12438000Y-7824000D02*
X12438000Y-7924000D01*
X12388000Y-7874000D02*
X12488000Y-7874000D01*
X12547600Y-13095500D02*
X12547600Y-13195500D01*
X12497600Y-13145500D02*
X12597600Y-13145500D01*
X12549100Y-13476500D02*
X12549100Y-13576500D01*
X12499100Y-13526500D02*
X12599100Y-13526500D01*
X12573000Y-8828300D02*
X12573000Y-8928300D01*
X12523000Y-8878300D02*
X12623000Y-8878300D01*
X12573000Y-9082300D02*
X12573000Y-9182300D01*
X12523000Y-9132300D02*
X12623000Y-9132300D01*
X12573000Y-9336300D02*
X12573000Y-9436300D01*
X12523000Y-9386300D02*
X12623000Y-9386300D01*
X12573000Y-9590300D02*
X12573000Y-9690300D01*
X12523000Y-9640300D02*
X12623000Y-9640300D01*
X12573000Y-10606300D02*
X12573000Y-10706300D01*
X12523000Y-10656300D02*
X12623000Y-10656300D01*
X12573000Y-10860300D02*
X12573000Y-10960300D01*
X12523000Y-10910300D02*
X12623000Y-10910300D01*
X12573000Y-11114300D02*
X12573000Y-11214300D01*
X12523000Y-11164300D02*
X12623000Y-11164300D01*
X12573000Y-11368300D02*
X12573000Y-11468300D01*
X12523000Y-11418300D02*
X12623000Y-11418300D01*
X12592000Y-12142000D02*
X12592000Y-12242000D01*
X12542000Y-12192000D02*
X12642000Y-12192000D01*
X12592000Y-12396000D02*
X12592000Y-12496000D01*
X12542000Y-12446000D02*
X12642000Y-12446000D01*
X12692000Y-7570000D02*
X12692000Y-7670000D01*
X12642000Y-7620000D02*
X12742000Y-7620000D01*
X12692000Y-7824000D02*
X12692000Y-7924000D01*
X12642000Y-7874000D02*
X12742000Y-7874000D01*
X12801600Y-13095500D02*
X12801600Y-13195500D01*
X12751600Y-13145500D02*
X12851600Y-13145500D01*
X12803100Y-13476500D02*
X12803100Y-13576500D01*
X12753100Y-13526500D02*
X12853100Y-13526500D01*
X12846000Y-12142000D02*
X12846000Y-12242000D01*
X12796000Y-12192000D02*
X12896000Y-12192000D01*
X12846000Y-12396000D02*
X12846000Y-12496000D01*
X12796000Y-12446000D02*
X12896000Y-12446000D01*
X12946000Y-7570000D02*
X12946000Y-7670000D01*
X12896000Y-7620000D02*
X12996000Y-7620000D01*
X12946000Y-7824000D02*
X12946000Y-7924000D01*
X12896000Y-7874000D02*
X12996000Y-7874000D01*
X13100000Y-12142000D02*
X13100000Y-12242000D01*
X13050000Y-12192000D02*
X13150000Y-12192000D01*
X13100000Y-12396000D02*
X13100000Y-12496000D01*
X13050000Y-12446000D02*
X13150000Y-12446000D01*
X13200000Y-7570000D02*
X13200000Y-7670000D01*
X13150000Y-7620000D02*
X13250000Y-7620000D01*
X13200000Y-7824000D02*
X13200000Y-7924000D01*
X13150000Y-7874000D02*
X13250000Y-7874000D01*
X13354000Y-12142000D02*
X13354000Y-12242000D01*
X13304000Y-12192000D02*
X13404000Y-12192000D01*
X13354000Y-12396000D02*
X13354000Y-12496000D01*
X13304000Y-12446000D02*
X13404000Y-12446000D01*
X13454000Y-7570000D02*
X13454000Y-7670000D01*
X13404000Y-7620000D02*
X13504000Y-7620000D01*
X13454000Y-7824000D02*
X13454000Y-7924000D01*
X13404000Y-7874000D02*
X13504000Y-7874000D01*
X13608000Y-12142000D02*
X13608000Y-12242000D01*
X13558000Y-12192000D02*
X13658000Y-12192000D01*
X13608000Y-12396000D02*
X13608000Y-12496000D01*
X13558000Y-12446000D02*
X13658000Y-12446000D01*
X13708000Y-7570000D02*
X13708000Y-7670000D01*
X13658000Y-7620000D02*
X13758000Y-7620000D01*
X13708000Y-7824000D02*
X13708000Y-7924000D01*
X13658000Y-7874000D02*
X13758000Y-7874000D01*
X13862000Y-12142000D02*
X13862000Y-12242000D01*
X13812000Y-12192000D02*
X13912000Y-12192000D01*
X13862000Y-12396000D02*
X13862000Y-12496000D01*
X13812000Y-12446000D02*
X13912000Y-12446000D01*
X14116000Y-12142000D02*
X14116000Y-12242000D01*
X14066000Y-12192000D02*
X14166000Y-12192000D01*
X14116000Y-12396000D02*
X14116000Y-12496000D01*
X14066000Y-12446000D02*
X14166000Y-12446000D01*
X14370000Y-12142000D02*
X14370000Y-12242000D01*
X14320000Y-12192000D02*
X14420000Y-12192000D01*
X14370000Y-12396000D02*
X14370000Y-12496000D01*
X14320000Y-12446000D02*
X14420000Y-12446000D01*
X14624000Y-12142000D02*
X14624000Y-12242000D01*
X14574000Y-12192000D02*
X14674000Y-12192000D01*
X14624000Y-12396000D02*
X14624000Y-12496000D01*
X14574000Y-12446000D02*
X14674000Y-12446000D01*
X14986000Y-8828300D02*
X14986000Y-8928300D01*
X14936000Y-8878300D02*
X15036000Y-8878300D01*
X14986000Y-9082300D02*
X14986000Y-9182300D01*
X14936000Y-9132300D02*
X15036000Y-9132300D01*
X14986000Y-9336300D02*
X14986000Y-9436300D01*
X14936000Y-9386300D02*
X15036000Y-9386300D01*
X14986000Y-9590300D02*
X14986000Y-9690300D01*
X14936000Y-9640300D02*
X15036000Y-9640300D01*
X14986000Y-9844300D02*
X14986000Y-9944300D01*
X14936000Y-9894300D02*
X15036000Y-9894300D01*
X14986000Y-10098300D02*
X14986000Y-10198300D01*
X14936000Y-10148300D02*
X15036000Y-10148300D01*
X14986000Y-10352300D02*
X14986000Y-10452300D01*
X14936000Y-10402300D02*
X15036000Y-10402300D01*
X14986000Y-10606300D02*
X14986000Y-10706300D01*
X14936000Y-10656300D02*
X15036000Y-10656300D01*
X14986000Y-10860300D02*
X14986000Y-10960300D01*
X14936000Y-10910300D02*
X15036000Y-10910300D01*
X14986000Y-11114300D02*
X14986000Y-11214300D01*
X14936000Y-11164300D02*
X15036000Y-11164300D01*
X14986000Y-11368300D02*
X14986000Y-11468300D01*
X14936000Y-11418300D02*
X15036000Y-11418300D01*
X15468600Y-12778000D02*
X15468600Y-12878000D01*
X15418600Y-12828000D02*
X15518600Y-12828000D01*
X15468600Y-13032000D02*
X15468600Y-13132000D01*
X15418600Y-13082000D02*
X15518600Y-13082000D01*
X15468600Y-13413000D02*
X15468600Y-13513000D01*
X15418600Y-13463000D02*
X15518600Y-13463000D01*
X15468600Y-13667000D02*
X15468600Y-13767000D01*
X15418600Y-13717000D02*
X15518600Y-13717000D01*
X15722600Y-12778000D02*
X15722600Y-12878000D01*
X15672600Y-12828000D02*
X15772600Y-12828000D01*
X15722600Y-13032000D02*
X15722600Y-13132000D01*
X15672600Y-13082000D02*
X15772600Y-13082000D01*
X15722600Y-13413000D02*
X15722600Y-13513000D01*
X15672600Y-13463000D02*
X15772600Y-13463000D01*
X15722600Y-13667000D02*
X15722600Y-13767000D01*
X15672600Y-13717000D02*
X15772600Y-13717000D01*
X15976600Y-12009400D02*
X15976600Y-12109400D01*
X15926600Y-12059400D02*
X16026600Y-12059400D01*
X15976600Y-12397000D02*
X15976600Y-12497000D01*
X15926600Y-12447000D02*
X16026600Y-12447000D01*
X15976600Y-12778000D02*
X15976600Y-12878000D01*
X15926600Y-12828000D02*
X16026600Y-12828000D01*
X15976600Y-13032000D02*
X15976600Y-13132000D01*
X15926600Y-13082000D02*
X16026600Y-13082000D01*
X15976600Y-13413000D02*
X15976600Y-13513000D01*
X15926600Y-13463000D02*
X16026600Y-13463000D01*
X15976600Y-13667000D02*
X15976600Y-13767000D01*
X15926600Y-13717000D02*
X16026600Y-13717000D01*
X16129000Y-8828300D02*
X16129000Y-8928300D01*
X16079000Y-8878300D02*
X16179000Y-8878300D01*
X16129000Y-9082300D02*
X16129000Y-9182300D01*
X16079000Y-9132300D02*
X16179000Y-9132300D01*
X16129000Y-9336300D02*
X16129000Y-9436300D01*
X16079000Y-9386300D02*
X16179000Y-9386300D01*
X16129000Y-9590300D02*
X16129000Y-9690300D01*
X16079000Y-9640300D02*
X16179000Y-9640300D01*
X16129000Y-10606300D02*
X16129000Y-10706300D01*
X16079000Y-10656300D02*
X16179000Y-10656300D01*
X16129000Y-10860300D02*
X16129000Y-10960300D01*
X16079000Y-10910300D02*
X16179000Y-10910300D01*
X16129000Y-11114300D02*
X16129000Y-11214300D01*
X16079000Y-11164300D02*
X16179000Y-11164300D01*
X16129000Y-11368300D02*
X16129000Y-11468300D01*
X16079000Y-11418300D02*
X16179000Y-11418300D01*
X16230600Y-12009400D02*
X16230600Y-12109400D01*
X16180600Y-12059400D02*
X16280600Y-12059400D01*
X16230600Y-12397000D02*
X16230600Y-12497000D01*
X16180600Y-12447000D02*
X16280600Y-12447000D01*
X16230600Y-12778000D02*
X16230600Y-12878000D01*
X16180600Y-12828000D02*
X16280600Y-12828000D01*
X16230600Y-13032000D02*
X16230600Y-13132000D01*
X16180600Y-13082000D02*
X16280600Y-13082000D01*
X16230600Y-13413000D02*
X16230600Y-13513000D01*
X16180600Y-13463000D02*
X16280600Y-13463000D01*
X16230600Y-13667000D02*
X16230600Y-13767000D01*
X16180600Y-13717000D02*
X16280600Y-13717000D01*
X16484600Y-12009400D02*
X16484600Y-12109400D01*
X16434600Y-12059400D02*
X16534600Y-12059400D01*
X16484600Y-12397000D02*
X16484600Y-12497000D01*
X16434600Y-12447000D02*
X16534600Y-12447000D01*
X16484600Y-12778000D02*
X16484600Y-12878000D01*
X16434600Y-12828000D02*
X16534600Y-12828000D01*
X16484600Y-13032000D02*
X16484600Y-13132000D01*
X16434600Y-13082000D02*
X16534600Y-13082000D01*
X16484600Y-13413000D02*
X16484600Y-13513000D01*
X16434600Y-13463000D02*
X16534600Y-13463000D01*
X16484600Y-13667000D02*
X16484600Y-13767000D01*
X16434600Y-13717000D02*
X16534600Y-13717000D01*
X16738600Y-12009400D02*
X16738600Y-12109400D01*
X16688600Y-12059400D02*
X16788600Y-12059400D01*
X16738600Y-12397000D02*
X16738600Y-12497000D01*
X16688600Y-12447000D02*
X16788600Y-12447000D01*
X16738600Y-12778000D02*
X16738600Y-12878000D01*
X16688600Y-12828000D02*
X16788600Y-12828000D01*
X16738600Y-13032000D02*
X16738600Y-13132000D01*
X16688600Y-13082000D02*
X16788600Y-13082000D01*
X16738600Y-13413000D02*
X16738600Y-13513000D01*
X16688600Y-13463000D02*
X16788600Y-13463000D01*
X16738600Y-13667000D02*
X16738600Y-13767000D01*
X16688600Y-13717000D02*
X16788600Y-13717000D01*
X16814800Y-8764800D02*
X16814800Y-8864800D01*
X16764800Y-8814800D02*
X16864800Y-8814800D01*
X16814800Y-9145800D02*
X16814800Y-9245800D01*
X16764800Y-9195800D02*
X16864800Y-9195800D01*
X16814800Y-9526800D02*
X16814800Y-9626800D01*
X16764800Y-9576800D02*
X16864800Y-9576800D01*
X16814800Y-9907800D02*
X16814800Y-10007800D01*
X16764800Y-9957800D02*
X16864800Y-9957800D01*
X16814800Y-10288800D02*
X16814800Y-10388800D01*
X16764800Y-10338800D02*
X16864800Y-10338800D01*
X16814800Y-10669800D02*
X16814800Y-10769800D01*
X16764800Y-10719800D02*
X16864800Y-10719800D01*
X16814800Y-11050800D02*
X16814800Y-11150800D01*
X16764800Y-11100800D02*
X16864800Y-11100800D01*
X16815300Y-11431800D02*
X16815300Y-11531800D01*
X16765300Y-11481800D02*
X16865300Y-11481800D01*
X17068800Y-8764800D02*
X17068800Y-8864800D01*
X17018800Y-8814800D02*
X17118800Y-8814800D01*
X17068800Y-9145800D02*
X17068800Y-9245800D01*
X17018800Y-9195800D02*
X17118800Y-9195800D01*
X17068800Y-9526800D02*
X17068800Y-9626800D01*
X17018800Y-9576800D02*
X17118800Y-9576800D01*
X17068800Y-9907800D02*
X17068800Y-10007800D01*
X17018800Y-9957800D02*
X17118800Y-9957800D01*
X17068800Y-10288800D02*
X17068800Y-10388800D01*
X17018800Y-10338800D02*
X17118800Y-10338800D01*
X17068800Y-10669800D02*
X17068800Y-10769800D01*
X17018800Y-10719800D02*
X17118800Y-10719800D01*
X17068800Y-11050800D02*
X17068800Y-11150800D01*
X17018800Y-11100800D02*
X17118800Y-11100800D01*
X17069300Y-11431800D02*
X17069300Y-11531800D01*
X17019300Y-11481800D02*
X17119300Y-11481800D01*
D12*
X8995324Y-6619113D02*
X8995324Y-6540086D01*
X8916297Y-6540086D01*
X8916297Y-6619113D01*
X8995324Y-6619113D01*
X8995324Y-6873113D02*
X8995324Y-6794086D01*
X8916297Y-6794086D01*
X8916297Y-6873113D01*
X8995324Y-6873113D01*
X8995324Y-7127113D02*
X8995324Y-7048086D01*
X8916297Y-7048086D01*
X8916297Y-7127113D01*
X8995324Y-7127113D01*
X9499744Y-6619113D02*
X9499744Y-6540086D01*
X9420717Y-6540086D01*
X9420717Y-6619113D01*
X9499744Y-6619113D01*
X9499744Y-6873113D02*
X9499744Y-6794086D01*
X9420717Y-6794086D01*
X9420717Y-6873113D01*
X9499744Y-6873113D01*
X9499744Y-7127113D02*
X9499744Y-7048086D01*
X9420717Y-7048086D01*
X9420717Y-7127113D01*
X9499744Y-7127113D01*
X10007744Y-6619113D02*
X10007744Y-6540086D01*
X9928717Y-6540086D01*
X9928717Y-6619113D01*
X10007744Y-6619113D01*
X10007744Y-6873113D02*
X10007744Y-6794086D01*
X9928717Y-6794086D01*
X9928717Y-6873113D01*
X10007744Y-6873113D01*
X10007744Y-7127113D02*
X10007744Y-7048086D01*
X9928717Y-7048086D01*
X9928717Y-7127113D01*
X10007744Y-7127113D01*
X10515744Y-6619113D02*
X10515744Y-6540086D01*
X10436717Y-6540086D01*
X10436717Y-6619113D01*
X10515744Y-6619113D01*
X10515744Y-6873113D02*
X10515744Y-6794086D01*
X10436717Y-6794086D01*
X10436717Y-6873113D01*
X10515744Y-6873113D01*
X10515744Y-7127113D02*
X10515744Y-7048086D01*
X10436717Y-7048086D01*
X10436717Y-7127113D01*
X10515744Y-7127113D01*
X12612513Y-6619113D02*
X12612513Y-6540086D01*
X12533486Y-6540086D01*
X12533486Y-6619113D01*
X12612513Y-6619113D01*
X12612513Y-6873113D02*
X12612513Y-6794086D01*
X12533486Y-6794086D01*
X12533486Y-6873113D01*
X12612513Y-6873113D01*
X12612513Y-7127113D02*
X12612513Y-7048086D01*
X12533486Y-7048086D01*
X12533486Y-7127113D01*
X12612513Y-7127113D01*
X13120513Y-6619113D02*
X13120513Y-6540086D01*
X13041486Y-6540086D01*
X13041486Y-6619113D01*
X13120513Y-6619113D01*
X13120513Y-6873113D02*
X13120513Y-6794086D01*
X13041486Y-6794086D01*
X13041486Y-6873113D01*
X13120513Y-6873113D01*
X13120513Y-7127113D02*
X13120513Y-7048086D01*
X13041486Y-7048086D01*
X13041486Y-7127113D01*
X13120513Y-7127113D01*
X13628513Y-6619113D02*
X13628513Y-6540086D01*
X13549486Y-6540086D01*
X13549486Y-6619113D01*
X13628513Y-6619113D01*
X13628513Y-6873113D02*
X13628513Y-6794086D01*
X13549486Y-6794086D01*
X13549486Y-6873113D01*
X13628513Y-6873113D01*
X13628513Y-7127113D02*
X13628513Y-7048086D01*
X13549486Y-7048086D01*
X13549486Y-7127113D01*
X13628513Y-7127113D01*
X14136513Y-6619113D02*
X14136513Y-6540086D01*
X14057486Y-6540086D01*
X14057486Y-6619113D01*
X14136513Y-6619113D01*
X14136513Y-6873113D02*
X14136513Y-6794086D01*
X14057486Y-6794086D01*
X14057486Y-6873113D01*
X14136513Y-6873113D01*
X14136513Y-7127113D02*
X14136513Y-7048086D01*
X14057486Y-7048086D01*
X14057486Y-7127113D01*
X14136513Y-7127113D01*
D13*
X13762400Y-13563500D02*
X13989900Y-13336000D01*
X13762400Y-13108500D01*
X13534900Y-13336000D01*
X13762400Y-13563500D01*
X14482400Y-13563500D02*
X14709900Y-13336000D01*
X14482400Y-13108500D01*
X14254900Y-13336000D01*
X14482400Y-13563500D01*
X16306800Y-7158300D02*
X16534300Y-6930800D01*
X16306800Y-6703300D01*
X16079300Y-6930800D01*
X16306800Y-7158300D01*
X16306800Y-7878300D02*
X16534300Y-7650800D01*
X16306800Y-7423300D01*
X16079300Y-7650800D01*
X16306800Y-7878300D01*
D11*
X7621777Y-14389084D02*
X7621777Y-14189084D01*
X7621777Y-14189084D02*
X7669396Y-14189084D01*
X7669396Y-14189084D02*
X7697967Y-14198608D01*
X7697967Y-14198608D02*
X7717015Y-14217655D01*
X7717015Y-14217655D02*
X7726539Y-14236703D01*
X7726539Y-14236703D02*
X7736062Y-14274798D01*
X7736062Y-14274798D02*
X7736062Y-14303369D01*
X7736062Y-14303369D02*
X7726539Y-14341465D01*
X7726539Y-14341465D02*
X7717015Y-14360512D01*
X7717015Y-14360512D02*
X7697967Y-14379560D01*
X7697967Y-14379560D02*
X7669396Y-14389084D01*
X7669396Y-14389084D02*
X7621777Y-14389084D01*
X7821777Y-14389084D02*
X7821777Y-14255750D01*
X7821777Y-14293846D02*
X7831301Y-14274798D01*
X7831301Y-14274798D02*
X7840824Y-14265274D01*
X7840824Y-14265274D02*
X7859872Y-14255750D01*
X7859872Y-14255750D02*
X7878920Y-14255750D01*
X7945586Y-14389084D02*
X7945586Y-14255750D01*
X7945586Y-14189084D02*
X7936062Y-14198608D01*
X7936062Y-14198608D02*
X7945586Y-14208131D01*
X7945586Y-14208131D02*
X7955110Y-14198608D01*
X7955110Y-14198608D02*
X7945586Y-14189084D01*
X7945586Y-14189084D02*
X7945586Y-14208131D01*
X8069396Y-14389084D02*
X8050348Y-14379560D01*
X8050348Y-14379560D02*
X8040824Y-14360512D01*
X8040824Y-14360512D02*
X8040824Y-14189084D01*
X8174158Y-14389084D02*
X8155110Y-14379560D01*
X8155110Y-14379560D02*
X8145586Y-14360512D01*
X8145586Y-14360512D02*
X8145586Y-14189084D01*
X8402729Y-14389084D02*
X8402729Y-14189084D01*
X8402729Y-14189084D02*
X8469396Y-14331941D01*
X8469396Y-14331941D02*
X8536063Y-14189084D01*
X8536063Y-14189084D02*
X8536063Y-14389084D01*
X8717015Y-14389084D02*
X8717015Y-14284322D01*
X8717015Y-14284322D02*
X8707491Y-14265274D01*
X8707491Y-14265274D02*
X8688444Y-14255750D01*
X8688444Y-14255750D02*
X8650348Y-14255750D01*
X8650348Y-14255750D02*
X8631301Y-14265274D01*
X8717015Y-14379560D02*
X8697967Y-14389084D01*
X8697967Y-14389084D02*
X8650348Y-14389084D01*
X8650348Y-14389084D02*
X8631301Y-14379560D01*
X8631301Y-14379560D02*
X8621777Y-14360512D01*
X8621777Y-14360512D02*
X8621777Y-14341465D01*
X8621777Y-14341465D02*
X8631301Y-14322417D01*
X8631301Y-14322417D02*
X8650348Y-14312893D01*
X8650348Y-14312893D02*
X8697967Y-14312893D01*
X8697967Y-14312893D02*
X8717015Y-14303369D01*
X8812253Y-14255750D02*
X8812253Y-14455750D01*
X8812253Y-14265274D02*
X8831301Y-14255750D01*
X8831301Y-14255750D02*
X8869396Y-14255750D01*
X8869396Y-14255750D02*
X8888444Y-14265274D01*
X8888444Y-14265274D02*
X8897967Y-14274798D01*
X8897967Y-14274798D02*
X8907491Y-14293846D01*
X8907491Y-14293846D02*
X8907491Y-14350988D01*
X8907491Y-14350988D02*
X8897967Y-14370036D01*
X8897967Y-14370036D02*
X8888444Y-14379560D01*
X8888444Y-14379560D02*
X8869396Y-14389084D01*
X8869396Y-14389084D02*
X8831301Y-14389084D01*
X8831301Y-14389084D02*
X8812253Y-14379560D01*
X8993205Y-14370036D02*
X9002729Y-14379560D01*
X9002729Y-14379560D02*
X8993205Y-14389084D01*
X8993205Y-14389084D02*
X8983682Y-14379560D01*
X8983682Y-14379560D02*
X8993205Y-14370036D01*
X8993205Y-14370036D02*
X8993205Y-14389084D01*
X8993205Y-14265274D02*
X9002729Y-14274798D01*
X9002729Y-14274798D02*
X8993205Y-14284322D01*
X8993205Y-14284322D02*
X8983682Y-14274798D01*
X8983682Y-14274798D02*
X8993205Y-14265274D01*
X8993205Y-14265274D02*
X8993205Y-14284322D01*
D10*
X7321000Y-14697600D02*
X7361000Y-14737600D01*
X7361000Y-14697600D02*
X7321000Y-14737600D01*
D11*
X7659872Y-14609084D02*
X7678920Y-14609084D01*
X7678920Y-14609084D02*
X7697967Y-14618608D01*
X7697967Y-14618608D02*
X7707491Y-14628131D01*
X7707491Y-14628131D02*
X7717015Y-14647179D01*
X7717015Y-14647179D02*
X7726539Y-14685274D01*
X7726539Y-14685274D02*
X7726539Y-14732893D01*
X7726539Y-14732893D02*
X7717015Y-14770988D01*
X7717015Y-14770988D02*
X7707491Y-14790036D01*
X7707491Y-14790036D02*
X7697967Y-14799560D01*
X7697967Y-14799560D02*
X7678920Y-14809084D01*
X7678920Y-14809084D02*
X7659872Y-14809084D01*
X7659872Y-14809084D02*
X7640824Y-14799560D01*
X7640824Y-14799560D02*
X7631301Y-14790036D01*
X7631301Y-14790036D02*
X7621777Y-14770988D01*
X7621777Y-14770988D02*
X7612253Y-14732893D01*
X7612253Y-14732893D02*
X7612253Y-14685274D01*
X7612253Y-14685274D02*
X7621777Y-14647179D01*
X7621777Y-14647179D02*
X7631301Y-14628131D01*
X7631301Y-14628131D02*
X7640824Y-14618608D01*
X7640824Y-14618608D02*
X7659872Y-14609084D01*
X7812253Y-14790036D02*
X7821777Y-14799560D01*
X7821777Y-14799560D02*
X7812253Y-14809084D01*
X7812253Y-14809084D02*
X7802729Y-14799560D01*
X7802729Y-14799560D02*
X7812253Y-14790036D01*
X7812253Y-14790036D02*
X7812253Y-14809084D01*
X7993205Y-14675750D02*
X7993205Y-14809084D01*
X7945586Y-14599560D02*
X7897967Y-14742417D01*
X7897967Y-14742417D02*
X8021777Y-14742417D01*
X8136062Y-14609084D02*
X8155110Y-14609084D01*
X8155110Y-14609084D02*
X8174158Y-14618608D01*
X8174158Y-14618608D02*
X8183682Y-14628131D01*
X8183682Y-14628131D02*
X8193205Y-14647179D01*
X8193205Y-14647179D02*
X8202729Y-14685274D01*
X8202729Y-14685274D02*
X8202729Y-14732893D01*
X8202729Y-14732893D02*
X8193205Y-14770988D01*
X8193205Y-14770988D02*
X8183682Y-14790036D01*
X8183682Y-14790036D02*
X8174158Y-14799560D01*
X8174158Y-14799560D02*
X8155110Y-14809084D01*
X8155110Y-14809084D02*
X8136062Y-14809084D01*
X8136062Y-14809084D02*
X8117015Y-14799560D01*
X8117015Y-14799560D02*
X8107491Y-14790036D01*
X8107491Y-14790036D02*
X8097967Y-14770988D01*
X8097967Y-14770988D02*
X8088443Y-14732893D01*
X8088443Y-14732893D02*
X8088443Y-14685274D01*
X8088443Y-14685274D02*
X8097967Y-14647179D01*
X8097967Y-14647179D02*
X8107491Y-14628131D01*
X8107491Y-14628131D02*
X8117015Y-14618608D01*
X8117015Y-14618608D02*
X8136062Y-14609084D01*
X8326539Y-14609084D02*
X8345586Y-14609084D01*
X8345586Y-14609084D02*
X8364634Y-14618608D01*
X8364634Y-14618608D02*
X8374158Y-14628131D01*
X8374158Y-14628131D02*
X8383682Y-14647179D01*
X8383682Y-14647179D02*
X8393205Y-14685274D01*
X8393205Y-14685274D02*
X8393205Y-14732893D01*
X8393205Y-14732893D02*
X8383682Y-14770988D01*
X8383682Y-14770988D02*
X8374158Y-14790036D01*
X8374158Y-14790036D02*
X8364634Y-14799560D01*
X8364634Y-14799560D02*
X8345586Y-14809084D01*
X8345586Y-14809084D02*
X8326539Y-14809084D01*
X8326539Y-14809084D02*
X8307491Y-14799560D01*
X8307491Y-14799560D02*
X8297967Y-14790036D01*
X8297967Y-14790036D02*
X8288443Y-14770988D01*
X8288443Y-14770988D02*
X8278920Y-14732893D01*
X8278920Y-14732893D02*
X8278920Y-14685274D01*
X8278920Y-14685274D02*
X8288443Y-14647179D01*
X8288443Y-14647179D02*
X8297967Y-14628131D01*
X8297967Y-14628131D02*
X8307491Y-14618608D01*
X8307491Y-14618608D02*
X8326539Y-14609084D01*
X8478920Y-14809084D02*
X8478920Y-14675750D01*
X8478920Y-14694798D02*
X8488444Y-14685274D01*
X8488444Y-14685274D02*
X8507491Y-14675750D01*
X8507491Y-14675750D02*
X8536063Y-14675750D01*
X8536063Y-14675750D02*
X8555110Y-14685274D01*
X8555110Y-14685274D02*
X8564634Y-14704322D01*
X8564634Y-14704322D02*
X8564634Y-14809084D01*
X8564634Y-14704322D02*
X8574158Y-14685274D01*
X8574158Y-14685274D02*
X8593205Y-14675750D01*
X8593205Y-14675750D02*
X8621777Y-14675750D01*
X8621777Y-14675750D02*
X8640825Y-14685274D01*
X8640825Y-14685274D02*
X8650348Y-14704322D01*
X8650348Y-14704322D02*
X8650348Y-14809084D01*
X8745586Y-14809084D02*
X8745586Y-14675750D01*
X8745586Y-14694798D02*
X8755110Y-14685274D01*
X8755110Y-14685274D02*
X8774158Y-14675750D01*
X8774158Y-14675750D02*
X8802729Y-14675750D01*
X8802729Y-14675750D02*
X8821777Y-14685274D01*
X8821777Y-14685274D02*
X8831301Y-14704322D01*
X8831301Y-14704322D02*
X8831301Y-14809084D01*
X8831301Y-14704322D02*
X8840825Y-14685274D01*
X8840825Y-14685274D02*
X8859872Y-14675750D01*
X8859872Y-14675750D02*
X8888444Y-14675750D01*
X8888444Y-14675750D02*
X8907491Y-14685274D01*
X8907491Y-14685274D02*
X8917015Y-14704322D01*
X8917015Y-14704322D02*
X8917015Y-14809084D01*
X9307491Y-14599560D02*
X9136063Y-14856703D01*
X9564634Y-14609084D02*
X9583682Y-14609084D01*
X9583682Y-14609084D02*
X9602729Y-14618608D01*
X9602729Y-14618608D02*
X9612253Y-14628131D01*
X9612253Y-14628131D02*
X9621777Y-14647179D01*
X9621777Y-14647179D02*
X9631301Y-14685274D01*
X9631301Y-14685274D02*
X9631301Y-14732893D01*
X9631301Y-14732893D02*
X9621777Y-14770988D01*
X9621777Y-14770988D02*
X9612253Y-14790036D01*
X9612253Y-14790036D02*
X9602729Y-14799560D01*
X9602729Y-14799560D02*
X9583682Y-14809084D01*
X9583682Y-14809084D02*
X9564634Y-14809084D01*
X9564634Y-14809084D02*
X9545587Y-14799560D01*
X9545587Y-14799560D02*
X9536063Y-14790036D01*
X9536063Y-14790036D02*
X9526539Y-14770988D01*
X9526539Y-14770988D02*
X9517015Y-14732893D01*
X9517015Y-14732893D02*
X9517015Y-14685274D01*
X9517015Y-14685274D02*
X9526539Y-14647179D01*
X9526539Y-14647179D02*
X9536063Y-14628131D01*
X9536063Y-14628131D02*
X9545587Y-14618608D01*
X9545587Y-14618608D02*
X9564634Y-14609084D01*
X9717015Y-14790036D02*
X9726539Y-14799560D01*
X9726539Y-14799560D02*
X9717015Y-14809084D01*
X9717015Y-14809084D02*
X9707491Y-14799560D01*
X9707491Y-14799560D02*
X9717015Y-14790036D01*
X9717015Y-14790036D02*
X9717015Y-14809084D01*
X9850348Y-14609084D02*
X9869396Y-14609084D01*
X9869396Y-14609084D02*
X9888444Y-14618608D01*
X9888444Y-14618608D02*
X9897968Y-14628131D01*
X9897968Y-14628131D02*
X9907491Y-14647179D01*
X9907491Y-14647179D02*
X9917015Y-14685274D01*
X9917015Y-14685274D02*
X9917015Y-14732893D01*
X9917015Y-14732893D02*
X9907491Y-14770988D01*
X9907491Y-14770988D02*
X9897968Y-14790036D01*
X9897968Y-14790036D02*
X9888444Y-14799560D01*
X9888444Y-14799560D02*
X9869396Y-14809084D01*
X9869396Y-14809084D02*
X9850348Y-14809084D01*
X9850348Y-14809084D02*
X9831301Y-14799560D01*
X9831301Y-14799560D02*
X9821777Y-14790036D01*
X9821777Y-14790036D02*
X9812253Y-14770988D01*
X9812253Y-14770988D02*
X9802729Y-14732893D01*
X9802729Y-14732893D02*
X9802729Y-14685274D01*
X9802729Y-14685274D02*
X9812253Y-14647179D01*
X9812253Y-14647179D02*
X9821777Y-14628131D01*
X9821777Y-14628131D02*
X9831301Y-14618608D01*
X9831301Y-14618608D02*
X9850348Y-14609084D01*
X10107491Y-14809084D02*
X9993206Y-14809084D01*
X10050348Y-14809084D02*
X10050348Y-14609084D01*
X10050348Y-14609084D02*
X10031301Y-14637655D01*
X10031301Y-14637655D02*
X10012253Y-14656703D01*
X10012253Y-14656703D02*
X9993206Y-14666227D01*
X10288444Y-14609084D02*
X10193206Y-14609084D01*
X10193206Y-14609084D02*
X10183682Y-14704322D01*
X10183682Y-14704322D02*
X10193206Y-14694798D01*
X10193206Y-14694798D02*
X10212253Y-14685274D01*
X10212253Y-14685274D02*
X10259872Y-14685274D01*
X10259872Y-14685274D02*
X10278920Y-14694798D01*
X10278920Y-14694798D02*
X10288444Y-14704322D01*
X10288444Y-14704322D02*
X10297968Y-14723369D01*
X10297968Y-14723369D02*
X10297968Y-14770988D01*
X10297968Y-14770988D02*
X10288444Y-14790036D01*
X10288444Y-14790036D02*
X10278920Y-14799560D01*
X10278920Y-14799560D02*
X10259872Y-14809084D01*
X10259872Y-14809084D02*
X10212253Y-14809084D01*
X10212253Y-14809084D02*
X10193206Y-14799560D01*
X10193206Y-14799560D02*
X10183682Y-14790036D01*
X10364634Y-14609084D02*
X10497968Y-14609084D01*
X10497968Y-14609084D02*
X10412253Y-14809084D01*
X10564634Y-14609084D02*
X10564634Y-14647179D01*
X10640825Y-14609084D02*
X10640825Y-14647179D01*
X10936063Y-14885274D02*
X10926539Y-14875750D01*
X10926539Y-14875750D02*
X10907491Y-14847179D01*
X10907491Y-14847179D02*
X10897968Y-14828131D01*
X10897968Y-14828131D02*
X10888444Y-14799560D01*
X10888444Y-14799560D02*
X10878920Y-14751941D01*
X10878920Y-14751941D02*
X10878920Y-14713846D01*
X10878920Y-14713846D02*
X10888444Y-14666227D01*
X10888444Y-14666227D02*
X10897968Y-14637655D01*
X10897968Y-14637655D02*
X10907491Y-14618608D01*
X10907491Y-14618608D02*
X10926539Y-14590036D01*
X10926539Y-14590036D02*
X10936063Y-14580512D01*
X11021777Y-14809084D02*
X11059872Y-14809084D01*
X11059872Y-14809084D02*
X11078920Y-14799560D01*
X11078920Y-14799560D02*
X11088444Y-14790036D01*
X11088444Y-14790036D02*
X11107491Y-14761465D01*
X11107491Y-14761465D02*
X11117015Y-14723369D01*
X11117015Y-14723369D02*
X11117015Y-14647179D01*
X11117015Y-14647179D02*
X11107491Y-14628131D01*
X11107491Y-14628131D02*
X11097968Y-14618608D01*
X11097968Y-14618608D02*
X11078920Y-14609084D01*
X11078920Y-14609084D02*
X11040825Y-14609084D01*
X11040825Y-14609084D02*
X11021777Y-14618608D01*
X11021777Y-14618608D02*
X11012253Y-14628131D01*
X11012253Y-14628131D02*
X11002730Y-14647179D01*
X11002730Y-14647179D02*
X11002730Y-14694798D01*
X11002730Y-14694798D02*
X11012253Y-14713846D01*
X11012253Y-14713846D02*
X11021777Y-14723369D01*
X11021777Y-14723369D02*
X11040825Y-14732893D01*
X11040825Y-14732893D02*
X11078920Y-14732893D01*
X11078920Y-14732893D02*
X11097968Y-14723369D01*
X11097968Y-14723369D02*
X11107491Y-14713846D01*
X11107491Y-14713846D02*
X11117015Y-14694798D01*
X11212253Y-14809084D02*
X11250348Y-14809084D01*
X11250348Y-14809084D02*
X11269396Y-14799560D01*
X11269396Y-14799560D02*
X11278920Y-14790036D01*
X11278920Y-14790036D02*
X11297968Y-14761465D01*
X11297968Y-14761465D02*
X11307491Y-14723369D01*
X11307491Y-14723369D02*
X11307491Y-14647179D01*
X11307491Y-14647179D02*
X11297968Y-14628131D01*
X11297968Y-14628131D02*
X11288444Y-14618608D01*
X11288444Y-14618608D02*
X11269396Y-14609084D01*
X11269396Y-14609084D02*
X11231301Y-14609084D01*
X11231301Y-14609084D02*
X11212253Y-14618608D01*
X11212253Y-14618608D02*
X11202729Y-14628131D01*
X11202729Y-14628131D02*
X11193206Y-14647179D01*
X11193206Y-14647179D02*
X11193206Y-14694798D01*
X11193206Y-14694798D02*
X11202729Y-14713846D01*
X11202729Y-14713846D02*
X11212253Y-14723369D01*
X11212253Y-14723369D02*
X11231301Y-14732893D01*
X11231301Y-14732893D02*
X11269396Y-14732893D01*
X11269396Y-14732893D02*
X11288444Y-14723369D01*
X11288444Y-14723369D02*
X11297968Y-14713846D01*
X11297968Y-14713846D02*
X11307491Y-14694798D01*
X11545587Y-14809084D02*
X11545587Y-14609084D01*
X11631301Y-14809084D02*
X11631301Y-14704322D01*
X11631301Y-14704322D02*
X11621777Y-14685274D01*
X11621777Y-14685274D02*
X11602730Y-14675750D01*
X11602730Y-14675750D02*
X11574158Y-14675750D01*
X11574158Y-14675750D02*
X11555110Y-14685274D01*
X11555110Y-14685274D02*
X11545587Y-14694798D01*
X11755110Y-14809084D02*
X11736063Y-14799560D01*
X11736063Y-14799560D02*
X11726539Y-14790036D01*
X11726539Y-14790036D02*
X11717015Y-14770988D01*
X11717015Y-14770988D02*
X11717015Y-14713846D01*
X11717015Y-14713846D02*
X11726539Y-14694798D01*
X11726539Y-14694798D02*
X11736063Y-14685274D01*
X11736063Y-14685274D02*
X11755110Y-14675750D01*
X11755110Y-14675750D02*
X11783682Y-14675750D01*
X11783682Y-14675750D02*
X11802730Y-14685274D01*
X11802730Y-14685274D02*
X11812253Y-14694798D01*
X11812253Y-14694798D02*
X11821777Y-14713846D01*
X11821777Y-14713846D02*
X11821777Y-14770988D01*
X11821777Y-14770988D02*
X11812253Y-14790036D01*
X11812253Y-14790036D02*
X11802730Y-14799560D01*
X11802730Y-14799560D02*
X11783682Y-14809084D01*
X11783682Y-14809084D02*
X11755110Y-14809084D01*
X11936063Y-14809084D02*
X11917015Y-14799560D01*
X11917015Y-14799560D02*
X11907491Y-14780512D01*
X11907491Y-14780512D02*
X11907491Y-14609084D01*
X12088444Y-14799560D02*
X12069396Y-14809084D01*
X12069396Y-14809084D02*
X12031301Y-14809084D01*
X12031301Y-14809084D02*
X12012253Y-14799560D01*
X12012253Y-14799560D02*
X12002730Y-14780512D01*
X12002730Y-14780512D02*
X12002730Y-14704322D01*
X12002730Y-14704322D02*
X12012253Y-14685274D01*
X12012253Y-14685274D02*
X12031301Y-14675750D01*
X12031301Y-14675750D02*
X12069396Y-14675750D01*
X12069396Y-14675750D02*
X12088444Y-14685274D01*
X12088444Y-14685274D02*
X12097968Y-14704322D01*
X12097968Y-14704322D02*
X12097968Y-14723369D01*
X12097968Y-14723369D02*
X12002730Y-14742417D01*
X12174158Y-14799560D02*
X12193206Y-14809084D01*
X12193206Y-14809084D02*
X12231301Y-14809084D01*
X12231301Y-14809084D02*
X12250349Y-14799560D01*
X12250349Y-14799560D02*
X12259872Y-14780512D01*
X12259872Y-14780512D02*
X12259872Y-14770988D01*
X12259872Y-14770988D02*
X12250349Y-14751941D01*
X12250349Y-14751941D02*
X12231301Y-14742417D01*
X12231301Y-14742417D02*
X12202730Y-14742417D01*
X12202730Y-14742417D02*
X12183682Y-14732893D01*
X12183682Y-14732893D02*
X12174158Y-14713846D01*
X12174158Y-14713846D02*
X12174158Y-14704322D01*
X12174158Y-14704322D02*
X12183682Y-14685274D01*
X12183682Y-14685274D02*
X12202730Y-14675750D01*
X12202730Y-14675750D02*
X12231301Y-14675750D01*
X12231301Y-14675750D02*
X12250349Y-14685274D01*
X12326539Y-14885274D02*
X12336063Y-14875750D01*
X12336063Y-14875750D02*
X12355111Y-14847179D01*
X12355111Y-14847179D02*
X12364634Y-14828131D01*
X12364634Y-14828131D02*
X12374158Y-14799560D01*
X12374158Y-14799560D02*
X12383682Y-14751941D01*
X12383682Y-14751941D02*
X12383682Y-14713846D01*
X12383682Y-14713846D02*
X12374158Y-14666227D01*
X12374158Y-14666227D02*
X12364634Y-14637655D01*
X12364634Y-14637655D02*
X12355111Y-14618608D01*
X12355111Y-14618608D02*
X12336063Y-14590036D01*
X12336063Y-14590036D02*
X12326539Y-14580512D01*
D10*
X7361000Y-14981600D02*
G75*
G02*
X7281000Y-14981600I-40000J0D01*
G01*
X7281000Y-14981600D02*
G75*
G02*
X7361000Y-14981600I40000J0D01*
G01*
D11*
X7659872Y-14873084D02*
X7678920Y-14873084D01*
X7678920Y-14873084D02*
X7697967Y-14882608D01*
X7697967Y-14882608D02*
X7707491Y-14892131D01*
X7707491Y-14892131D02*
X7717015Y-14911179D01*
X7717015Y-14911179D02*
X7726539Y-14949274D01*
X7726539Y-14949274D02*
X7726539Y-14996893D01*
X7726539Y-14996893D02*
X7717015Y-15034988D01*
X7717015Y-15034988D02*
X7707491Y-15054036D01*
X7707491Y-15054036D02*
X7697967Y-15063560D01*
X7697967Y-15063560D02*
X7678920Y-15073084D01*
X7678920Y-15073084D02*
X7659872Y-15073084D01*
X7659872Y-15073084D02*
X7640824Y-15063560D01*
X7640824Y-15063560D02*
X7631301Y-15054036D01*
X7631301Y-15054036D02*
X7621777Y-15034988D01*
X7621777Y-15034988D02*
X7612253Y-14996893D01*
X7612253Y-14996893D02*
X7612253Y-14949274D01*
X7612253Y-14949274D02*
X7621777Y-14911179D01*
X7621777Y-14911179D02*
X7631301Y-14892131D01*
X7631301Y-14892131D02*
X7640824Y-14882608D01*
X7640824Y-14882608D02*
X7659872Y-14873084D01*
X7812253Y-15054036D02*
X7821777Y-15063560D01*
X7821777Y-15063560D02*
X7812253Y-15073084D01*
X7812253Y-15073084D02*
X7802729Y-15063560D01*
X7802729Y-15063560D02*
X7812253Y-15054036D01*
X7812253Y-15054036D02*
X7812253Y-15073084D01*
X7936062Y-14958798D02*
X7917015Y-14949274D01*
X7917015Y-14949274D02*
X7907491Y-14939750D01*
X7907491Y-14939750D02*
X7897967Y-14920703D01*
X7897967Y-14920703D02*
X7897967Y-14911179D01*
X7897967Y-14911179D02*
X7907491Y-14892131D01*
X7907491Y-14892131D02*
X7917015Y-14882608D01*
X7917015Y-14882608D02*
X7936062Y-14873084D01*
X7936062Y-14873084D02*
X7974158Y-14873084D01*
X7974158Y-14873084D02*
X7993205Y-14882608D01*
X7993205Y-14882608D02*
X8002729Y-14892131D01*
X8002729Y-14892131D02*
X8012253Y-14911179D01*
X8012253Y-14911179D02*
X8012253Y-14920703D01*
X8012253Y-14920703D02*
X8002729Y-14939750D01*
X8002729Y-14939750D02*
X7993205Y-14949274D01*
X7993205Y-14949274D02*
X7974158Y-14958798D01*
X7974158Y-14958798D02*
X7936062Y-14958798D01*
X7936062Y-14958798D02*
X7917015Y-14968322D01*
X7917015Y-14968322D02*
X7907491Y-14977846D01*
X7907491Y-14977846D02*
X7897967Y-14996893D01*
X7897967Y-14996893D02*
X7897967Y-15034988D01*
X7897967Y-15034988D02*
X7907491Y-15054036D01*
X7907491Y-15054036D02*
X7917015Y-15063560D01*
X7917015Y-15063560D02*
X7936062Y-15073084D01*
X7936062Y-15073084D02*
X7974158Y-15073084D01*
X7974158Y-15073084D02*
X7993205Y-15063560D01*
X7993205Y-15063560D02*
X8002729Y-15054036D01*
X8002729Y-15054036D02*
X8012253Y-15034988D01*
X8012253Y-15034988D02*
X8012253Y-14996893D01*
X8012253Y-14996893D02*
X8002729Y-14977846D01*
X8002729Y-14977846D02*
X7993205Y-14968322D01*
X7993205Y-14968322D02*
X7974158Y-14958798D01*
X8136062Y-14873084D02*
X8155110Y-14873084D01*
X8155110Y-14873084D02*
X8174158Y-14882608D01*
X8174158Y-14882608D02*
X8183682Y-14892131D01*
X8183682Y-14892131D02*
X8193205Y-14911179D01*
X8193205Y-14911179D02*
X8202729Y-14949274D01*
X8202729Y-14949274D02*
X8202729Y-14996893D01*
X8202729Y-14996893D02*
X8193205Y-15034988D01*
X8193205Y-15034988D02*
X8183682Y-15054036D01*
X8183682Y-15054036D02*
X8174158Y-15063560D01*
X8174158Y-15063560D02*
X8155110Y-15073084D01*
X8155110Y-15073084D02*
X8136062Y-15073084D01*
X8136062Y-15073084D02*
X8117015Y-15063560D01*
X8117015Y-15063560D02*
X8107491Y-15054036D01*
X8107491Y-15054036D02*
X8097967Y-15034988D01*
X8097967Y-15034988D02*
X8088443Y-14996893D01*
X8088443Y-14996893D02*
X8088443Y-14949274D01*
X8088443Y-14949274D02*
X8097967Y-14911179D01*
X8097967Y-14911179D02*
X8107491Y-14892131D01*
X8107491Y-14892131D02*
X8117015Y-14882608D01*
X8117015Y-14882608D02*
X8136062Y-14873084D01*
X8326539Y-14873084D02*
X8345586Y-14873084D01*
X8345586Y-14873084D02*
X8364634Y-14882608D01*
X8364634Y-14882608D02*
X8374158Y-14892131D01*
X8374158Y-14892131D02*
X8383682Y-14911179D01*
X8383682Y-14911179D02*
X8393205Y-14949274D01*
X8393205Y-14949274D02*
X8393205Y-14996893D01*
X8393205Y-14996893D02*
X8383682Y-15034988D01*
X8383682Y-15034988D02*
X8374158Y-15054036D01*
X8374158Y-15054036D02*
X8364634Y-15063560D01*
X8364634Y-15063560D02*
X8345586Y-15073084D01*
X8345586Y-15073084D02*
X8326539Y-15073084D01*
X8326539Y-15073084D02*
X8307491Y-15063560D01*
X8307491Y-15063560D02*
X8297967Y-15054036D01*
X8297967Y-15054036D02*
X8288443Y-15034988D01*
X8288443Y-15034988D02*
X8278920Y-14996893D01*
X8278920Y-14996893D02*
X8278920Y-14949274D01*
X8278920Y-14949274D02*
X8288443Y-14911179D01*
X8288443Y-14911179D02*
X8297967Y-14892131D01*
X8297967Y-14892131D02*
X8307491Y-14882608D01*
X8307491Y-14882608D02*
X8326539Y-14873084D01*
X8478920Y-15073084D02*
X8478920Y-14939750D01*
X8478920Y-14958798D02*
X8488444Y-14949274D01*
X8488444Y-14949274D02*
X8507491Y-14939750D01*
X8507491Y-14939750D02*
X8536063Y-14939750D01*
X8536063Y-14939750D02*
X8555110Y-14949274D01*
X8555110Y-14949274D02*
X8564634Y-14968322D01*
X8564634Y-14968322D02*
X8564634Y-15073084D01*
X8564634Y-14968322D02*
X8574158Y-14949274D01*
X8574158Y-14949274D02*
X8593205Y-14939750D01*
X8593205Y-14939750D02*
X8621777Y-14939750D01*
X8621777Y-14939750D02*
X8640825Y-14949274D01*
X8640825Y-14949274D02*
X8650348Y-14968322D01*
X8650348Y-14968322D02*
X8650348Y-15073084D01*
X8745586Y-15073084D02*
X8745586Y-14939750D01*
X8745586Y-14958798D02*
X8755110Y-14949274D01*
X8755110Y-14949274D02*
X8774158Y-14939750D01*
X8774158Y-14939750D02*
X8802729Y-14939750D01*
X8802729Y-14939750D02*
X8821777Y-14949274D01*
X8821777Y-14949274D02*
X8831301Y-14968322D01*
X8831301Y-14968322D02*
X8831301Y-15073084D01*
X8831301Y-14968322D02*
X8840825Y-14949274D01*
X8840825Y-14949274D02*
X8859872Y-14939750D01*
X8859872Y-14939750D02*
X8888444Y-14939750D01*
X8888444Y-14939750D02*
X8907491Y-14949274D01*
X8907491Y-14949274D02*
X8917015Y-14968322D01*
X8917015Y-14968322D02*
X8917015Y-15073084D01*
X9307491Y-14863560D02*
X9136063Y-15120703D01*
X9564634Y-14873084D02*
X9583682Y-14873084D01*
X9583682Y-14873084D02*
X9602729Y-14882608D01*
X9602729Y-14882608D02*
X9612253Y-14892131D01*
X9612253Y-14892131D02*
X9621777Y-14911179D01*
X9621777Y-14911179D02*
X9631301Y-14949274D01*
X9631301Y-14949274D02*
X9631301Y-14996893D01*
X9631301Y-14996893D02*
X9621777Y-15034988D01*
X9621777Y-15034988D02*
X9612253Y-15054036D01*
X9612253Y-15054036D02*
X9602729Y-15063560D01*
X9602729Y-15063560D02*
X9583682Y-15073084D01*
X9583682Y-15073084D02*
X9564634Y-15073084D01*
X9564634Y-15073084D02*
X9545587Y-15063560D01*
X9545587Y-15063560D02*
X9536063Y-15054036D01*
X9536063Y-15054036D02*
X9526539Y-15034988D01*
X9526539Y-15034988D02*
X9517015Y-14996893D01*
X9517015Y-14996893D02*
X9517015Y-14949274D01*
X9517015Y-14949274D02*
X9526539Y-14911179D01*
X9526539Y-14911179D02*
X9536063Y-14892131D01*
X9536063Y-14892131D02*
X9545587Y-14882608D01*
X9545587Y-14882608D02*
X9564634Y-14873084D01*
X9717015Y-15054036D02*
X9726539Y-15063560D01*
X9726539Y-15063560D02*
X9717015Y-15073084D01*
X9717015Y-15073084D02*
X9707491Y-15063560D01*
X9707491Y-15063560D02*
X9717015Y-15054036D01*
X9717015Y-15054036D02*
X9717015Y-15073084D01*
X9850348Y-14873084D02*
X9869396Y-14873084D01*
X9869396Y-14873084D02*
X9888444Y-14882608D01*
X9888444Y-14882608D02*
X9897968Y-14892131D01*
X9897968Y-14892131D02*
X9907491Y-14911179D01*
X9907491Y-14911179D02*
X9917015Y-14949274D01*
X9917015Y-14949274D02*
X9917015Y-14996893D01*
X9917015Y-14996893D02*
X9907491Y-15034988D01*
X9907491Y-15034988D02*
X9897968Y-15054036D01*
X9897968Y-15054036D02*
X9888444Y-15063560D01*
X9888444Y-15063560D02*
X9869396Y-15073084D01*
X9869396Y-15073084D02*
X9850348Y-15073084D01*
X9850348Y-15073084D02*
X9831301Y-15063560D01*
X9831301Y-15063560D02*
X9821777Y-15054036D01*
X9821777Y-15054036D02*
X9812253Y-15034988D01*
X9812253Y-15034988D02*
X9802729Y-14996893D01*
X9802729Y-14996893D02*
X9802729Y-14949274D01*
X9802729Y-14949274D02*
X9812253Y-14911179D01*
X9812253Y-14911179D02*
X9821777Y-14892131D01*
X9821777Y-14892131D02*
X9831301Y-14882608D01*
X9831301Y-14882608D02*
X9850348Y-14873084D01*
X9983682Y-14873084D02*
X10107491Y-14873084D01*
X10107491Y-14873084D02*
X10040825Y-14949274D01*
X10040825Y-14949274D02*
X10069396Y-14949274D01*
X10069396Y-14949274D02*
X10088444Y-14958798D01*
X10088444Y-14958798D02*
X10097968Y-14968322D01*
X10097968Y-14968322D02*
X10107491Y-14987369D01*
X10107491Y-14987369D02*
X10107491Y-15034988D01*
X10107491Y-15034988D02*
X10097968Y-15054036D01*
X10097968Y-15054036D02*
X10088444Y-15063560D01*
X10088444Y-15063560D02*
X10069396Y-15073084D01*
X10069396Y-15073084D02*
X10012253Y-15073084D01*
X10012253Y-15073084D02*
X9993206Y-15063560D01*
X9993206Y-15063560D02*
X9983682Y-15054036D01*
X10297968Y-15073084D02*
X10183682Y-15073084D01*
X10240825Y-15073084D02*
X10240825Y-14873084D01*
X10240825Y-14873084D02*
X10221777Y-14901655D01*
X10221777Y-14901655D02*
X10202729Y-14920703D01*
X10202729Y-14920703D02*
X10183682Y-14930227D01*
X10478920Y-14873084D02*
X10383682Y-14873084D01*
X10383682Y-14873084D02*
X10374158Y-14968322D01*
X10374158Y-14968322D02*
X10383682Y-14958798D01*
X10383682Y-14958798D02*
X10402729Y-14949274D01*
X10402729Y-14949274D02*
X10450349Y-14949274D01*
X10450349Y-14949274D02*
X10469396Y-14958798D01*
X10469396Y-14958798D02*
X10478920Y-14968322D01*
X10478920Y-14968322D02*
X10488444Y-14987369D01*
X10488444Y-14987369D02*
X10488444Y-15034988D01*
X10488444Y-15034988D02*
X10478920Y-15054036D01*
X10478920Y-15054036D02*
X10469396Y-15063560D01*
X10469396Y-15063560D02*
X10450349Y-15073084D01*
X10450349Y-15073084D02*
X10402729Y-15073084D01*
X10402729Y-15073084D02*
X10383682Y-15063560D01*
X10383682Y-15063560D02*
X10374158Y-15054036D01*
X10564634Y-14873084D02*
X10564634Y-14911179D01*
X10640825Y-14873084D02*
X10640825Y-14911179D01*
X10936063Y-15149274D02*
X10926539Y-15139750D01*
X10926539Y-15139750D02*
X10907491Y-15111179D01*
X10907491Y-15111179D02*
X10897968Y-15092131D01*
X10897968Y-15092131D02*
X10888444Y-15063560D01*
X10888444Y-15063560D02*
X10878920Y-15015941D01*
X10878920Y-15015941D02*
X10878920Y-14977846D01*
X10878920Y-14977846D02*
X10888444Y-14930227D01*
X10888444Y-14930227D02*
X10897968Y-14901655D01*
X10897968Y-14901655D02*
X10907491Y-14882608D01*
X10907491Y-14882608D02*
X10926539Y-14854036D01*
X10926539Y-14854036D02*
X10936063Y-14844512D01*
X10993206Y-14873084D02*
X11117015Y-14873084D01*
X11117015Y-14873084D02*
X11050349Y-14949274D01*
X11050349Y-14949274D02*
X11078920Y-14949274D01*
X11078920Y-14949274D02*
X11097968Y-14958798D01*
X11097968Y-14958798D02*
X11107491Y-14968322D01*
X11107491Y-14968322D02*
X11117015Y-14987369D01*
X11117015Y-14987369D02*
X11117015Y-15034988D01*
X11117015Y-15034988D02*
X11107491Y-15054036D01*
X11107491Y-15054036D02*
X11097968Y-15063560D01*
X11097968Y-15063560D02*
X11078920Y-15073084D01*
X11078920Y-15073084D02*
X11021777Y-15073084D01*
X11021777Y-15073084D02*
X11002730Y-15063560D01*
X11002730Y-15063560D02*
X10993206Y-15054036D01*
X11193206Y-14892131D02*
X11202729Y-14882608D01*
X11202729Y-14882608D02*
X11221777Y-14873084D01*
X11221777Y-14873084D02*
X11269396Y-14873084D01*
X11269396Y-14873084D02*
X11288444Y-14882608D01*
X11288444Y-14882608D02*
X11297968Y-14892131D01*
X11297968Y-14892131D02*
X11307491Y-14911179D01*
X11307491Y-14911179D02*
X11307491Y-14930227D01*
X11307491Y-14930227D02*
X11297968Y-14958798D01*
X11297968Y-14958798D02*
X11183682Y-15073084D01*
X11183682Y-15073084D02*
X11307491Y-15073084D01*
X11545587Y-15073084D02*
X11545587Y-14873084D01*
X11631301Y-15073084D02*
X11631301Y-14968322D01*
X11631301Y-14968322D02*
X11621777Y-14949274D01*
X11621777Y-14949274D02*
X11602730Y-14939750D01*
X11602730Y-14939750D02*
X11574158Y-14939750D01*
X11574158Y-14939750D02*
X11555110Y-14949274D01*
X11555110Y-14949274D02*
X11545587Y-14958798D01*
X11755110Y-15073084D02*
X11736063Y-15063560D01*
X11736063Y-15063560D02*
X11726539Y-15054036D01*
X11726539Y-15054036D02*
X11717015Y-15034988D01*
X11717015Y-15034988D02*
X11717015Y-14977846D01*
X11717015Y-14977846D02*
X11726539Y-14958798D01*
X11726539Y-14958798D02*
X11736063Y-14949274D01*
X11736063Y-14949274D02*
X11755110Y-14939750D01*
X11755110Y-14939750D02*
X11783682Y-14939750D01*
X11783682Y-14939750D02*
X11802730Y-14949274D01*
X11802730Y-14949274D02*
X11812253Y-14958798D01*
X11812253Y-14958798D02*
X11821777Y-14977846D01*
X11821777Y-14977846D02*
X11821777Y-15034988D01*
X11821777Y-15034988D02*
X11812253Y-15054036D01*
X11812253Y-15054036D02*
X11802730Y-15063560D01*
X11802730Y-15063560D02*
X11783682Y-15073084D01*
X11783682Y-15073084D02*
X11755110Y-15073084D01*
X11936063Y-15073084D02*
X11917015Y-15063560D01*
X11917015Y-15063560D02*
X11907491Y-15044512D01*
X11907491Y-15044512D02*
X11907491Y-14873084D01*
X12088444Y-15063560D02*
X12069396Y-15073084D01*
X12069396Y-15073084D02*
X12031301Y-15073084D01*
X12031301Y-15073084D02*
X12012253Y-15063560D01*
X12012253Y-15063560D02*
X12002730Y-15044512D01*
X12002730Y-15044512D02*
X12002730Y-14968322D01*
X12002730Y-14968322D02*
X12012253Y-14949274D01*
X12012253Y-14949274D02*
X12031301Y-14939750D01*
X12031301Y-14939750D02*
X12069396Y-14939750D01*
X12069396Y-14939750D02*
X12088444Y-14949274D01*
X12088444Y-14949274D02*
X12097968Y-14968322D01*
X12097968Y-14968322D02*
X12097968Y-14987369D01*
X12097968Y-14987369D02*
X12002730Y-15006417D01*
X12174158Y-15063560D02*
X12193206Y-15073084D01*
X12193206Y-15073084D02*
X12231301Y-15073084D01*
X12231301Y-15073084D02*
X12250349Y-15063560D01*
X12250349Y-15063560D02*
X12259872Y-15044512D01*
X12259872Y-15044512D02*
X12259872Y-15034988D01*
X12259872Y-15034988D02*
X12250349Y-15015941D01*
X12250349Y-15015941D02*
X12231301Y-15006417D01*
X12231301Y-15006417D02*
X12202730Y-15006417D01*
X12202730Y-15006417D02*
X12183682Y-14996893D01*
X12183682Y-14996893D02*
X12174158Y-14977846D01*
X12174158Y-14977846D02*
X12174158Y-14968322D01*
X12174158Y-14968322D02*
X12183682Y-14949274D01*
X12183682Y-14949274D02*
X12202730Y-14939750D01*
X12202730Y-14939750D02*
X12231301Y-14939750D01*
X12231301Y-14939750D02*
X12250349Y-14949274D01*
X12326539Y-15149274D02*
X12336063Y-15139750D01*
X12336063Y-15139750D02*
X12355111Y-15111179D01*
X12355111Y-15111179D02*
X12364634Y-15092131D01*
X12364634Y-15092131D02*
X12374158Y-15063560D01*
X12374158Y-15063560D02*
X12383682Y-15015941D01*
X12383682Y-15015941D02*
X12383682Y-14977846D01*
X12383682Y-14977846D02*
X12374158Y-14930227D01*
X12374158Y-14930227D02*
X12364634Y-14901655D01*
X12364634Y-14901655D02*
X12355111Y-14882608D01*
X12355111Y-14882608D02*
X12336063Y-14854036D01*
X12336063Y-14854036D02*
X12326539Y-14844512D01*
D10*
X7311000Y-15195600D02*
X7311000Y-15295600D01*
X7261000Y-15245600D02*
X7361000Y-15245600D01*
D11*
X7726539Y-15337084D02*
X7612253Y-15337084D01*
X7669396Y-15337084D02*
X7669396Y-15137084D01*
X7669396Y-15137084D02*
X7650348Y-15165655D01*
X7650348Y-15165655D02*
X7631301Y-15184703D01*
X7631301Y-15184703D02*
X7612253Y-15194227D01*
X7812253Y-15318036D02*
X7821777Y-15327560D01*
X7821777Y-15327560D02*
X7812253Y-15337084D01*
X7812253Y-15337084D02*
X7802729Y-15327560D01*
X7802729Y-15327560D02*
X7812253Y-15318036D01*
X7812253Y-15318036D02*
X7812253Y-15337084D01*
X7945586Y-15137084D02*
X7964634Y-15137084D01*
X7964634Y-15137084D02*
X7983682Y-15146608D01*
X7983682Y-15146608D02*
X7993205Y-15156131D01*
X7993205Y-15156131D02*
X8002729Y-15175179D01*
X8002729Y-15175179D02*
X8012253Y-15213274D01*
X8012253Y-15213274D02*
X8012253Y-15260893D01*
X8012253Y-15260893D02*
X8002729Y-15298988D01*
X8002729Y-15298988D02*
X7993205Y-15318036D01*
X7993205Y-15318036D02*
X7983682Y-15327560D01*
X7983682Y-15327560D02*
X7964634Y-15337084D01*
X7964634Y-15337084D02*
X7945586Y-15337084D01*
X7945586Y-15337084D02*
X7926539Y-15327560D01*
X7926539Y-15327560D02*
X7917015Y-15318036D01*
X7917015Y-15318036D02*
X7907491Y-15298988D01*
X7907491Y-15298988D02*
X7897967Y-15260893D01*
X7897967Y-15260893D02*
X7897967Y-15213274D01*
X7897967Y-15213274D02*
X7907491Y-15175179D01*
X7907491Y-15175179D02*
X7917015Y-15156131D01*
X7917015Y-15156131D02*
X7926539Y-15146608D01*
X7926539Y-15146608D02*
X7945586Y-15137084D01*
X8136062Y-15137084D02*
X8155110Y-15137084D01*
X8155110Y-15137084D02*
X8174158Y-15146608D01*
X8174158Y-15146608D02*
X8183682Y-15156131D01*
X8183682Y-15156131D02*
X8193205Y-15175179D01*
X8193205Y-15175179D02*
X8202729Y-15213274D01*
X8202729Y-15213274D02*
X8202729Y-15260893D01*
X8202729Y-15260893D02*
X8193205Y-15298988D01*
X8193205Y-15298988D02*
X8183682Y-15318036D01*
X8183682Y-15318036D02*
X8174158Y-15327560D01*
X8174158Y-15327560D02*
X8155110Y-15337084D01*
X8155110Y-15337084D02*
X8136062Y-15337084D01*
X8136062Y-15337084D02*
X8117015Y-15327560D01*
X8117015Y-15327560D02*
X8107491Y-15318036D01*
X8107491Y-15318036D02*
X8097967Y-15298988D01*
X8097967Y-15298988D02*
X8088443Y-15260893D01*
X8088443Y-15260893D02*
X8088443Y-15213274D01*
X8088443Y-15213274D02*
X8097967Y-15175179D01*
X8097967Y-15175179D02*
X8107491Y-15156131D01*
X8107491Y-15156131D02*
X8117015Y-15146608D01*
X8117015Y-15146608D02*
X8136062Y-15137084D01*
X8326539Y-15137084D02*
X8345586Y-15137084D01*
X8345586Y-15137084D02*
X8364634Y-15146608D01*
X8364634Y-15146608D02*
X8374158Y-15156131D01*
X8374158Y-15156131D02*
X8383682Y-15175179D01*
X8383682Y-15175179D02*
X8393205Y-15213274D01*
X8393205Y-15213274D02*
X8393205Y-15260893D01*
X8393205Y-15260893D02*
X8383682Y-15298988D01*
X8383682Y-15298988D02*
X8374158Y-15318036D01*
X8374158Y-15318036D02*
X8364634Y-15327560D01*
X8364634Y-15327560D02*
X8345586Y-15337084D01*
X8345586Y-15337084D02*
X8326539Y-15337084D01*
X8326539Y-15337084D02*
X8307491Y-15327560D01*
X8307491Y-15327560D02*
X8297967Y-15318036D01*
X8297967Y-15318036D02*
X8288443Y-15298988D01*
X8288443Y-15298988D02*
X8278920Y-15260893D01*
X8278920Y-15260893D02*
X8278920Y-15213274D01*
X8278920Y-15213274D02*
X8288443Y-15175179D01*
X8288443Y-15175179D02*
X8297967Y-15156131D01*
X8297967Y-15156131D02*
X8307491Y-15146608D01*
X8307491Y-15146608D02*
X8326539Y-15137084D01*
X8478920Y-15337084D02*
X8478920Y-15203750D01*
X8478920Y-15222798D02*
X8488444Y-15213274D01*
X8488444Y-15213274D02*
X8507491Y-15203750D01*
X8507491Y-15203750D02*
X8536063Y-15203750D01*
X8536063Y-15203750D02*
X8555110Y-15213274D01*
X8555110Y-15213274D02*
X8564634Y-15232322D01*
X8564634Y-15232322D02*
X8564634Y-15337084D01*
X8564634Y-15232322D02*
X8574158Y-15213274D01*
X8574158Y-15213274D02*
X8593205Y-15203750D01*
X8593205Y-15203750D02*
X8621777Y-15203750D01*
X8621777Y-15203750D02*
X8640825Y-15213274D01*
X8640825Y-15213274D02*
X8650348Y-15232322D01*
X8650348Y-15232322D02*
X8650348Y-15337084D01*
X8745586Y-15337084D02*
X8745586Y-15203750D01*
X8745586Y-15222798D02*
X8755110Y-15213274D01*
X8755110Y-15213274D02*
X8774158Y-15203750D01*
X8774158Y-15203750D02*
X8802729Y-15203750D01*
X8802729Y-15203750D02*
X8821777Y-15213274D01*
X8821777Y-15213274D02*
X8831301Y-15232322D01*
X8831301Y-15232322D02*
X8831301Y-15337084D01*
X8831301Y-15232322D02*
X8840825Y-15213274D01*
X8840825Y-15213274D02*
X8859872Y-15203750D01*
X8859872Y-15203750D02*
X8888444Y-15203750D01*
X8888444Y-15203750D02*
X8907491Y-15213274D01*
X8907491Y-15213274D02*
X8917015Y-15232322D01*
X8917015Y-15232322D02*
X8917015Y-15337084D01*
X9307491Y-15127560D02*
X9136063Y-15384703D01*
X9564634Y-15137084D02*
X9583682Y-15137084D01*
X9583682Y-15137084D02*
X9602729Y-15146608D01*
X9602729Y-15146608D02*
X9612253Y-15156131D01*
X9612253Y-15156131D02*
X9621777Y-15175179D01*
X9621777Y-15175179D02*
X9631301Y-15213274D01*
X9631301Y-15213274D02*
X9631301Y-15260893D01*
X9631301Y-15260893D02*
X9621777Y-15298988D01*
X9621777Y-15298988D02*
X9612253Y-15318036D01*
X9612253Y-15318036D02*
X9602729Y-15327560D01*
X9602729Y-15327560D02*
X9583682Y-15337084D01*
X9583682Y-15337084D02*
X9564634Y-15337084D01*
X9564634Y-15337084D02*
X9545587Y-15327560D01*
X9545587Y-15327560D02*
X9536063Y-15318036D01*
X9536063Y-15318036D02*
X9526539Y-15298988D01*
X9526539Y-15298988D02*
X9517015Y-15260893D01*
X9517015Y-15260893D02*
X9517015Y-15213274D01*
X9517015Y-15213274D02*
X9526539Y-15175179D01*
X9526539Y-15175179D02*
X9536063Y-15156131D01*
X9536063Y-15156131D02*
X9545587Y-15146608D01*
X9545587Y-15146608D02*
X9564634Y-15137084D01*
X9717015Y-15318036D02*
X9726539Y-15327560D01*
X9726539Y-15327560D02*
X9717015Y-15337084D01*
X9717015Y-15337084D02*
X9707491Y-15327560D01*
X9707491Y-15327560D02*
X9717015Y-15318036D01*
X9717015Y-15318036D02*
X9717015Y-15337084D01*
X9850348Y-15137084D02*
X9869396Y-15137084D01*
X9869396Y-15137084D02*
X9888444Y-15146608D01*
X9888444Y-15146608D02*
X9897968Y-15156131D01*
X9897968Y-15156131D02*
X9907491Y-15175179D01*
X9907491Y-15175179D02*
X9917015Y-15213274D01*
X9917015Y-15213274D02*
X9917015Y-15260893D01*
X9917015Y-15260893D02*
X9907491Y-15298988D01*
X9907491Y-15298988D02*
X9897968Y-15318036D01*
X9897968Y-15318036D02*
X9888444Y-15327560D01*
X9888444Y-15327560D02*
X9869396Y-15337084D01*
X9869396Y-15337084D02*
X9850348Y-15337084D01*
X9850348Y-15337084D02*
X9831301Y-15327560D01*
X9831301Y-15327560D02*
X9821777Y-15318036D01*
X9821777Y-15318036D02*
X9812253Y-15298988D01*
X9812253Y-15298988D02*
X9802729Y-15260893D01*
X9802729Y-15260893D02*
X9802729Y-15213274D01*
X9802729Y-15213274D02*
X9812253Y-15175179D01*
X9812253Y-15175179D02*
X9821777Y-15156131D01*
X9821777Y-15156131D02*
X9831301Y-15146608D01*
X9831301Y-15146608D02*
X9850348Y-15137084D01*
X9983682Y-15137084D02*
X10107491Y-15137084D01*
X10107491Y-15137084D02*
X10040825Y-15213274D01*
X10040825Y-15213274D02*
X10069396Y-15213274D01*
X10069396Y-15213274D02*
X10088444Y-15222798D01*
X10088444Y-15222798D02*
X10097968Y-15232322D01*
X10097968Y-15232322D02*
X10107491Y-15251369D01*
X10107491Y-15251369D02*
X10107491Y-15298988D01*
X10107491Y-15298988D02*
X10097968Y-15318036D01*
X10097968Y-15318036D02*
X10088444Y-15327560D01*
X10088444Y-15327560D02*
X10069396Y-15337084D01*
X10069396Y-15337084D02*
X10012253Y-15337084D01*
X10012253Y-15337084D02*
X9993206Y-15327560D01*
X9993206Y-15327560D02*
X9983682Y-15318036D01*
X10202729Y-15337084D02*
X10240825Y-15337084D01*
X10240825Y-15337084D02*
X10259872Y-15327560D01*
X10259872Y-15327560D02*
X10269396Y-15318036D01*
X10269396Y-15318036D02*
X10288444Y-15289465D01*
X10288444Y-15289465D02*
X10297968Y-15251369D01*
X10297968Y-15251369D02*
X10297968Y-15175179D01*
X10297968Y-15175179D02*
X10288444Y-15156131D01*
X10288444Y-15156131D02*
X10278920Y-15146608D01*
X10278920Y-15146608D02*
X10259872Y-15137084D01*
X10259872Y-15137084D02*
X10221777Y-15137084D01*
X10221777Y-15137084D02*
X10202729Y-15146608D01*
X10202729Y-15146608D02*
X10193206Y-15156131D01*
X10193206Y-15156131D02*
X10183682Y-15175179D01*
X10183682Y-15175179D02*
X10183682Y-15222798D01*
X10183682Y-15222798D02*
X10193206Y-15241846D01*
X10193206Y-15241846D02*
X10202729Y-15251369D01*
X10202729Y-15251369D02*
X10221777Y-15260893D01*
X10221777Y-15260893D02*
X10259872Y-15260893D01*
X10259872Y-15260893D02*
X10278920Y-15251369D01*
X10278920Y-15251369D02*
X10288444Y-15241846D01*
X10288444Y-15241846D02*
X10297968Y-15222798D01*
X10469396Y-15203750D02*
X10469396Y-15337084D01*
X10421777Y-15127560D02*
X10374158Y-15270417D01*
X10374158Y-15270417D02*
X10497968Y-15270417D01*
X10564634Y-15137084D02*
X10564634Y-15175179D01*
X10640825Y-15137084D02*
X10640825Y-15175179D01*
X10936063Y-15413274D02*
X10926539Y-15403750D01*
X10926539Y-15403750D02*
X10907491Y-15375179D01*
X10907491Y-15375179D02*
X10897968Y-15356131D01*
X10897968Y-15356131D02*
X10888444Y-15327560D01*
X10888444Y-15327560D02*
X10878920Y-15279941D01*
X10878920Y-15279941D02*
X10878920Y-15241846D01*
X10878920Y-15241846D02*
X10888444Y-15194227D01*
X10888444Y-15194227D02*
X10897968Y-15165655D01*
X10897968Y-15165655D02*
X10907491Y-15146608D01*
X10907491Y-15146608D02*
X10926539Y-15118036D01*
X10926539Y-15118036D02*
X10936063Y-15108512D01*
X11002730Y-15156131D02*
X11012253Y-15146608D01*
X11012253Y-15146608D02*
X11031301Y-15137084D01*
X11031301Y-15137084D02*
X11078920Y-15137084D01*
X11078920Y-15137084D02*
X11097968Y-15146608D01*
X11097968Y-15146608D02*
X11107491Y-15156131D01*
X11107491Y-15156131D02*
X11117015Y-15175179D01*
X11117015Y-15175179D02*
X11117015Y-15194227D01*
X11117015Y-15194227D02*
X11107491Y-15222798D01*
X11107491Y-15222798D02*
X10993206Y-15337084D01*
X10993206Y-15337084D02*
X11117015Y-15337084D01*
X11183682Y-15137084D02*
X11307491Y-15137084D01*
X11307491Y-15137084D02*
X11240825Y-15213274D01*
X11240825Y-15213274D02*
X11269396Y-15213274D01*
X11269396Y-15213274D02*
X11288444Y-15222798D01*
X11288444Y-15222798D02*
X11297968Y-15232322D01*
X11297968Y-15232322D02*
X11307491Y-15251369D01*
X11307491Y-15251369D02*
X11307491Y-15298988D01*
X11307491Y-15298988D02*
X11297968Y-15318036D01*
X11297968Y-15318036D02*
X11288444Y-15327560D01*
X11288444Y-15327560D02*
X11269396Y-15337084D01*
X11269396Y-15337084D02*
X11212253Y-15337084D01*
X11212253Y-15337084D02*
X11193206Y-15327560D01*
X11193206Y-15327560D02*
X11183682Y-15318036D01*
X11374158Y-15137084D02*
X11507491Y-15137084D01*
X11507491Y-15137084D02*
X11421777Y-15337084D01*
X11736063Y-15337084D02*
X11736063Y-15137084D01*
X11821777Y-15337084D02*
X11821777Y-15232322D01*
X11821777Y-15232322D02*
X11812253Y-15213274D01*
X11812253Y-15213274D02*
X11793206Y-15203750D01*
X11793206Y-15203750D02*
X11764634Y-15203750D01*
X11764634Y-15203750D02*
X11745587Y-15213274D01*
X11745587Y-15213274D02*
X11736063Y-15222798D01*
X11945587Y-15337084D02*
X11926539Y-15327560D01*
X11926539Y-15327560D02*
X11917015Y-15318036D01*
X11917015Y-15318036D02*
X11907491Y-15298988D01*
X11907491Y-15298988D02*
X11907491Y-15241846D01*
X11907491Y-15241846D02*
X11917015Y-15222798D01*
X11917015Y-15222798D02*
X11926539Y-15213274D01*
X11926539Y-15213274D02*
X11945587Y-15203750D01*
X11945587Y-15203750D02*
X11974158Y-15203750D01*
X11974158Y-15203750D02*
X11993206Y-15213274D01*
X11993206Y-15213274D02*
X12002730Y-15222798D01*
X12002730Y-15222798D02*
X12012253Y-15241846D01*
X12012253Y-15241846D02*
X12012253Y-15298988D01*
X12012253Y-15298988D02*
X12002730Y-15318036D01*
X12002730Y-15318036D02*
X11993206Y-15327560D01*
X11993206Y-15327560D02*
X11974158Y-15337084D01*
X11974158Y-15337084D02*
X11945587Y-15337084D01*
X12126539Y-15337084D02*
X12107491Y-15327560D01*
X12107491Y-15327560D02*
X12097968Y-15308512D01*
X12097968Y-15308512D02*
X12097968Y-15137084D01*
X12278920Y-15327560D02*
X12259872Y-15337084D01*
X12259872Y-15337084D02*
X12221777Y-15337084D01*
X12221777Y-15337084D02*
X12202730Y-15327560D01*
X12202730Y-15327560D02*
X12193206Y-15308512D01*
X12193206Y-15308512D02*
X12193206Y-15232322D01*
X12193206Y-15232322D02*
X12202730Y-15213274D01*
X12202730Y-15213274D02*
X12221777Y-15203750D01*
X12221777Y-15203750D02*
X12259872Y-15203750D01*
X12259872Y-15203750D02*
X12278920Y-15213274D01*
X12278920Y-15213274D02*
X12288444Y-15232322D01*
X12288444Y-15232322D02*
X12288444Y-15251369D01*
X12288444Y-15251369D02*
X12193206Y-15270417D01*
X12364634Y-15327560D02*
X12383682Y-15337084D01*
X12383682Y-15337084D02*
X12421777Y-15337084D01*
X12421777Y-15337084D02*
X12440825Y-15327560D01*
X12440825Y-15327560D02*
X12450349Y-15308512D01*
X12450349Y-15308512D02*
X12450349Y-15298988D01*
X12450349Y-15298988D02*
X12440825Y-15279941D01*
X12440825Y-15279941D02*
X12421777Y-15270417D01*
X12421777Y-15270417D02*
X12393206Y-15270417D01*
X12393206Y-15270417D02*
X12374158Y-15260893D01*
X12374158Y-15260893D02*
X12364634Y-15241846D01*
X12364634Y-15241846D02*
X12364634Y-15232322D01*
X12364634Y-15232322D02*
X12374158Y-15213274D01*
X12374158Y-15213274D02*
X12393206Y-15203750D01*
X12393206Y-15203750D02*
X12421777Y-15203750D01*
X12421777Y-15203750D02*
X12440825Y-15213274D01*
X12517015Y-15413274D02*
X12526539Y-15403750D01*
X12526539Y-15403750D02*
X12545587Y-15375179D01*
X12545587Y-15375179D02*
X12555111Y-15356131D01*
X12555111Y-15356131D02*
X12564634Y-15327560D01*
X12564634Y-15327560D02*
X12574158Y-15279941D01*
X12574158Y-15279941D02*
X12574158Y-15241846D01*
X12574158Y-15241846D02*
X12564634Y-15194227D01*
X12564634Y-15194227D02*
X12555111Y-15165655D01*
X12555111Y-15165655D02*
X12545587Y-15146608D01*
X12545587Y-15146608D02*
X12526539Y-15118036D01*
X12526539Y-15118036D02*
X12517015Y-15108512D01*
D12*
X7344633Y-15549113D02*
X7344633Y-15470086D01*
X7265606Y-15470086D01*
X7265606Y-15549113D01*
X7344633Y-15549113D01*
D11*
X7726539Y-15601084D02*
X7612253Y-15601084D01*
X7669396Y-15601084D02*
X7669396Y-15401084D01*
X7669396Y-15401084D02*
X7650348Y-15429655D01*
X7650348Y-15429655D02*
X7631301Y-15448703D01*
X7631301Y-15448703D02*
X7612253Y-15458227D01*
X7812253Y-15582036D02*
X7821777Y-15591560D01*
X7821777Y-15591560D02*
X7812253Y-15601084D01*
X7812253Y-15601084D02*
X7802729Y-15591560D01*
X7802729Y-15591560D02*
X7812253Y-15582036D01*
X7812253Y-15582036D02*
X7812253Y-15601084D01*
X8012253Y-15601084D02*
X7897967Y-15601084D01*
X7955110Y-15601084D02*
X7955110Y-15401084D01*
X7955110Y-15401084D02*
X7936062Y-15429655D01*
X7936062Y-15429655D02*
X7917015Y-15448703D01*
X7917015Y-15448703D02*
X7897967Y-15458227D01*
X8202729Y-15601084D02*
X8088443Y-15601084D01*
X8145586Y-15601084D02*
X8145586Y-15401084D01*
X8145586Y-15401084D02*
X8126539Y-15429655D01*
X8126539Y-15429655D02*
X8107491Y-15448703D01*
X8107491Y-15448703D02*
X8088443Y-15458227D01*
X8317015Y-15486798D02*
X8297967Y-15477274D01*
X8297967Y-15477274D02*
X8288443Y-15467750D01*
X8288443Y-15467750D02*
X8278920Y-15448703D01*
X8278920Y-15448703D02*
X8278920Y-15439179D01*
X8278920Y-15439179D02*
X8288443Y-15420131D01*
X8288443Y-15420131D02*
X8297967Y-15410608D01*
X8297967Y-15410608D02*
X8317015Y-15401084D01*
X8317015Y-15401084D02*
X8355110Y-15401084D01*
X8355110Y-15401084D02*
X8374158Y-15410608D01*
X8374158Y-15410608D02*
X8383682Y-15420131D01*
X8383682Y-15420131D02*
X8393205Y-15439179D01*
X8393205Y-15439179D02*
X8393205Y-15448703D01*
X8393205Y-15448703D02*
X8383682Y-15467750D01*
X8383682Y-15467750D02*
X8374158Y-15477274D01*
X8374158Y-15477274D02*
X8355110Y-15486798D01*
X8355110Y-15486798D02*
X8317015Y-15486798D01*
X8317015Y-15486798D02*
X8297967Y-15496322D01*
X8297967Y-15496322D02*
X8288443Y-15505846D01*
X8288443Y-15505846D02*
X8278920Y-15524893D01*
X8278920Y-15524893D02*
X8278920Y-15562988D01*
X8278920Y-15562988D02*
X8288443Y-15582036D01*
X8288443Y-15582036D02*
X8297967Y-15591560D01*
X8297967Y-15591560D02*
X8317015Y-15601084D01*
X8317015Y-15601084D02*
X8355110Y-15601084D01*
X8355110Y-15601084D02*
X8374158Y-15591560D01*
X8374158Y-15591560D02*
X8383682Y-15582036D01*
X8383682Y-15582036D02*
X8393205Y-15562988D01*
X8393205Y-15562988D02*
X8393205Y-15524893D01*
X8393205Y-15524893D02*
X8383682Y-15505846D01*
X8383682Y-15505846D02*
X8374158Y-15496322D01*
X8374158Y-15496322D02*
X8355110Y-15486798D01*
X8478920Y-15601084D02*
X8478920Y-15467750D01*
X8478920Y-15486798D02*
X8488444Y-15477274D01*
X8488444Y-15477274D02*
X8507491Y-15467750D01*
X8507491Y-15467750D02*
X8536063Y-15467750D01*
X8536063Y-15467750D02*
X8555110Y-15477274D01*
X8555110Y-15477274D02*
X8564634Y-15496322D01*
X8564634Y-15496322D02*
X8564634Y-15601084D01*
X8564634Y-15496322D02*
X8574158Y-15477274D01*
X8574158Y-15477274D02*
X8593205Y-15467750D01*
X8593205Y-15467750D02*
X8621777Y-15467750D01*
X8621777Y-15467750D02*
X8640825Y-15477274D01*
X8640825Y-15477274D02*
X8650348Y-15496322D01*
X8650348Y-15496322D02*
X8650348Y-15601084D01*
X8745586Y-15601084D02*
X8745586Y-15467750D01*
X8745586Y-15486798D02*
X8755110Y-15477274D01*
X8755110Y-15477274D02*
X8774158Y-15467750D01*
X8774158Y-15467750D02*
X8802729Y-15467750D01*
X8802729Y-15467750D02*
X8821777Y-15477274D01*
X8821777Y-15477274D02*
X8831301Y-15496322D01*
X8831301Y-15496322D02*
X8831301Y-15601084D01*
X8831301Y-15496322D02*
X8840825Y-15477274D01*
X8840825Y-15477274D02*
X8859872Y-15467750D01*
X8859872Y-15467750D02*
X8888444Y-15467750D01*
X8888444Y-15467750D02*
X8907491Y-15477274D01*
X8907491Y-15477274D02*
X8917015Y-15496322D01*
X8917015Y-15496322D02*
X8917015Y-15601084D01*
X9307491Y-15391560D02*
X9136063Y-15648703D01*
X9564634Y-15401084D02*
X9583682Y-15401084D01*
X9583682Y-15401084D02*
X9602729Y-15410608D01*
X9602729Y-15410608D02*
X9612253Y-15420131D01*
X9612253Y-15420131D02*
X9621777Y-15439179D01*
X9621777Y-15439179D02*
X9631301Y-15477274D01*
X9631301Y-15477274D02*
X9631301Y-15524893D01*
X9631301Y-15524893D02*
X9621777Y-15562988D01*
X9621777Y-15562988D02*
X9612253Y-15582036D01*
X9612253Y-15582036D02*
X9602729Y-15591560D01*
X9602729Y-15591560D02*
X9583682Y-15601084D01*
X9583682Y-15601084D02*
X9564634Y-15601084D01*
X9564634Y-15601084D02*
X9545587Y-15591560D01*
X9545587Y-15591560D02*
X9536063Y-15582036D01*
X9536063Y-15582036D02*
X9526539Y-15562988D01*
X9526539Y-15562988D02*
X9517015Y-15524893D01*
X9517015Y-15524893D02*
X9517015Y-15477274D01*
X9517015Y-15477274D02*
X9526539Y-15439179D01*
X9526539Y-15439179D02*
X9536063Y-15420131D01*
X9536063Y-15420131D02*
X9545587Y-15410608D01*
X9545587Y-15410608D02*
X9564634Y-15401084D01*
X9717015Y-15582036D02*
X9726539Y-15591560D01*
X9726539Y-15591560D02*
X9717015Y-15601084D01*
X9717015Y-15601084D02*
X9707491Y-15591560D01*
X9707491Y-15591560D02*
X9717015Y-15582036D01*
X9717015Y-15582036D02*
X9717015Y-15601084D01*
X9850348Y-15401084D02*
X9869396Y-15401084D01*
X9869396Y-15401084D02*
X9888444Y-15410608D01*
X9888444Y-15410608D02*
X9897968Y-15420131D01*
X9897968Y-15420131D02*
X9907491Y-15439179D01*
X9907491Y-15439179D02*
X9917015Y-15477274D01*
X9917015Y-15477274D02*
X9917015Y-15524893D01*
X9917015Y-15524893D02*
X9907491Y-15562988D01*
X9907491Y-15562988D02*
X9897968Y-15582036D01*
X9897968Y-15582036D02*
X9888444Y-15591560D01*
X9888444Y-15591560D02*
X9869396Y-15601084D01*
X9869396Y-15601084D02*
X9850348Y-15601084D01*
X9850348Y-15601084D02*
X9831301Y-15591560D01*
X9831301Y-15591560D02*
X9821777Y-15582036D01*
X9821777Y-15582036D02*
X9812253Y-15562988D01*
X9812253Y-15562988D02*
X9802729Y-15524893D01*
X9802729Y-15524893D02*
X9802729Y-15477274D01*
X9802729Y-15477274D02*
X9812253Y-15439179D01*
X9812253Y-15439179D02*
X9821777Y-15420131D01*
X9821777Y-15420131D02*
X9831301Y-15410608D01*
X9831301Y-15410608D02*
X9850348Y-15401084D01*
X10088444Y-15467750D02*
X10088444Y-15601084D01*
X10040825Y-15391560D02*
X9993206Y-15534417D01*
X9993206Y-15534417D02*
X10117015Y-15534417D01*
X10278920Y-15467750D02*
X10278920Y-15601084D01*
X10231301Y-15391560D02*
X10183682Y-15534417D01*
X10183682Y-15534417D02*
X10307491Y-15534417D01*
X10421777Y-15401084D02*
X10440825Y-15401084D01*
X10440825Y-15401084D02*
X10459872Y-15410608D01*
X10459872Y-15410608D02*
X10469396Y-15420131D01*
X10469396Y-15420131D02*
X10478920Y-15439179D01*
X10478920Y-15439179D02*
X10488444Y-15477274D01*
X10488444Y-15477274D02*
X10488444Y-15524893D01*
X10488444Y-15524893D02*
X10478920Y-15562988D01*
X10478920Y-15562988D02*
X10469396Y-15582036D01*
X10469396Y-15582036D02*
X10459872Y-15591560D01*
X10459872Y-15591560D02*
X10440825Y-15601084D01*
X10440825Y-15601084D02*
X10421777Y-15601084D01*
X10421777Y-15601084D02*
X10402729Y-15591560D01*
X10402729Y-15591560D02*
X10393206Y-15582036D01*
X10393206Y-15582036D02*
X10383682Y-15562988D01*
X10383682Y-15562988D02*
X10374158Y-15524893D01*
X10374158Y-15524893D02*
X10374158Y-15477274D01*
X10374158Y-15477274D02*
X10383682Y-15439179D01*
X10383682Y-15439179D02*
X10393206Y-15420131D01*
X10393206Y-15420131D02*
X10402729Y-15410608D01*
X10402729Y-15410608D02*
X10421777Y-15401084D01*
X10564634Y-15401084D02*
X10564634Y-15439179D01*
X10640825Y-15401084D02*
X10640825Y-15439179D01*
X10936063Y-15677274D02*
X10926539Y-15667750D01*
X10926539Y-15667750D02*
X10907491Y-15639179D01*
X10907491Y-15639179D02*
X10897968Y-15620131D01*
X10897968Y-15620131D02*
X10888444Y-15591560D01*
X10888444Y-15591560D02*
X10878920Y-15543941D01*
X10878920Y-15543941D02*
X10878920Y-15505846D01*
X10878920Y-15505846D02*
X10888444Y-15458227D01*
X10888444Y-15458227D02*
X10897968Y-15429655D01*
X10897968Y-15429655D02*
X10907491Y-15410608D01*
X10907491Y-15410608D02*
X10926539Y-15382036D01*
X10926539Y-15382036D02*
X10936063Y-15372512D01*
X11002730Y-15420131D02*
X11012253Y-15410608D01*
X11012253Y-15410608D02*
X11031301Y-15401084D01*
X11031301Y-15401084D02*
X11078920Y-15401084D01*
X11078920Y-15401084D02*
X11097968Y-15410608D01*
X11097968Y-15410608D02*
X11107491Y-15420131D01*
X11107491Y-15420131D02*
X11117015Y-15439179D01*
X11117015Y-15439179D02*
X11117015Y-15458227D01*
X11117015Y-15458227D02*
X11107491Y-15486798D01*
X11107491Y-15486798D02*
X10993206Y-15601084D01*
X10993206Y-15601084D02*
X11117015Y-15601084D01*
X11288444Y-15467750D02*
X11288444Y-15601084D01*
X11240825Y-15391560D02*
X11193206Y-15534417D01*
X11193206Y-15534417D02*
X11317015Y-15534417D01*
X11545587Y-15601084D02*
X11545587Y-15401084D01*
X11631301Y-15601084D02*
X11631301Y-15496322D01*
X11631301Y-15496322D02*
X11621777Y-15477274D01*
X11621777Y-15477274D02*
X11602730Y-15467750D01*
X11602730Y-15467750D02*
X11574158Y-15467750D01*
X11574158Y-15467750D02*
X11555110Y-15477274D01*
X11555110Y-15477274D02*
X11545587Y-15486798D01*
X11755110Y-15601084D02*
X11736063Y-15591560D01*
X11736063Y-15591560D02*
X11726539Y-15582036D01*
X11726539Y-15582036D02*
X11717015Y-15562988D01*
X11717015Y-15562988D02*
X11717015Y-15505846D01*
X11717015Y-15505846D02*
X11726539Y-15486798D01*
X11726539Y-15486798D02*
X11736063Y-15477274D01*
X11736063Y-15477274D02*
X11755110Y-15467750D01*
X11755110Y-15467750D02*
X11783682Y-15467750D01*
X11783682Y-15467750D02*
X11802730Y-15477274D01*
X11802730Y-15477274D02*
X11812253Y-15486798D01*
X11812253Y-15486798D02*
X11821777Y-15505846D01*
X11821777Y-15505846D02*
X11821777Y-15562988D01*
X11821777Y-15562988D02*
X11812253Y-15582036D01*
X11812253Y-15582036D02*
X11802730Y-15591560D01*
X11802730Y-15591560D02*
X11783682Y-15601084D01*
X11783682Y-15601084D02*
X11755110Y-15601084D01*
X11936063Y-15601084D02*
X11917015Y-15591560D01*
X11917015Y-15591560D02*
X11907491Y-15572512D01*
X11907491Y-15572512D02*
X11907491Y-15401084D01*
X12088444Y-15591560D02*
X12069396Y-15601084D01*
X12069396Y-15601084D02*
X12031301Y-15601084D01*
X12031301Y-15601084D02*
X12012253Y-15591560D01*
X12012253Y-15591560D02*
X12002730Y-15572512D01*
X12002730Y-15572512D02*
X12002730Y-15496322D01*
X12002730Y-15496322D02*
X12012253Y-15477274D01*
X12012253Y-15477274D02*
X12031301Y-15467750D01*
X12031301Y-15467750D02*
X12069396Y-15467750D01*
X12069396Y-15467750D02*
X12088444Y-15477274D01*
X12088444Y-15477274D02*
X12097968Y-15496322D01*
X12097968Y-15496322D02*
X12097968Y-15515369D01*
X12097968Y-15515369D02*
X12002730Y-15534417D01*
X12174158Y-15591560D02*
X12193206Y-15601084D01*
X12193206Y-15601084D02*
X12231301Y-15601084D01*
X12231301Y-15601084D02*
X12250349Y-15591560D01*
X12250349Y-15591560D02*
X12259872Y-15572512D01*
X12259872Y-15572512D02*
X12259872Y-15562988D01*
X12259872Y-15562988D02*
X12250349Y-15543941D01*
X12250349Y-15543941D02*
X12231301Y-15534417D01*
X12231301Y-15534417D02*
X12202730Y-15534417D01*
X12202730Y-15534417D02*
X12183682Y-15524893D01*
X12183682Y-15524893D02*
X12174158Y-15505846D01*
X12174158Y-15505846D02*
X12174158Y-15496322D01*
X12174158Y-15496322D02*
X12183682Y-15477274D01*
X12183682Y-15477274D02*
X12202730Y-15467750D01*
X12202730Y-15467750D02*
X12231301Y-15467750D01*
X12231301Y-15467750D02*
X12250349Y-15477274D01*
X12326539Y-15677274D02*
X12336063Y-15667750D01*
X12336063Y-15667750D02*
X12355111Y-15639179D01*
X12355111Y-15639179D02*
X12364634Y-15620131D01*
X12364634Y-15620131D02*
X12374158Y-15591560D01*
X12374158Y-15591560D02*
X12383682Y-15543941D01*
X12383682Y-15543941D02*
X12383682Y-15505846D01*
X12383682Y-15505846D02*
X12374158Y-15458227D01*
X12374158Y-15458227D02*
X12364634Y-15429655D01*
X12364634Y-15429655D02*
X12355111Y-15410608D01*
X12355111Y-15410608D02*
X12336063Y-15382036D01*
X12336063Y-15382036D02*
X12326539Y-15372512D01*
X7261000Y-15873600D02*
X7361000Y-15773600D01*
X7261000Y-15673600D01*
X7161000Y-15773600D01*
X7261000Y-15873600D01*
X7707491Y-15731750D02*
X7707491Y-15865084D01*
X7659872Y-15655560D02*
X7612253Y-15798417D01*
X7612253Y-15798417D02*
X7736062Y-15798417D01*
X7812253Y-15846036D02*
X7821777Y-15855560D01*
X7821777Y-15855560D02*
X7812253Y-15865084D01*
X7812253Y-15865084D02*
X7802729Y-15855560D01*
X7802729Y-15855560D02*
X7812253Y-15846036D01*
X7812253Y-15846036D02*
X7812253Y-15865084D01*
X8002729Y-15665084D02*
X7907491Y-15665084D01*
X7907491Y-15665084D02*
X7897967Y-15760322D01*
X7897967Y-15760322D02*
X7907491Y-15750798D01*
X7907491Y-15750798D02*
X7926539Y-15741274D01*
X7926539Y-15741274D02*
X7974158Y-15741274D01*
X7974158Y-15741274D02*
X7993205Y-15750798D01*
X7993205Y-15750798D02*
X8002729Y-15760322D01*
X8002729Y-15760322D02*
X8012253Y-15779369D01*
X8012253Y-15779369D02*
X8012253Y-15826988D01*
X8012253Y-15826988D02*
X8002729Y-15846036D01*
X8002729Y-15846036D02*
X7993205Y-15855560D01*
X7993205Y-15855560D02*
X7974158Y-15865084D01*
X7974158Y-15865084D02*
X7926539Y-15865084D01*
X7926539Y-15865084D02*
X7907491Y-15855560D01*
X7907491Y-15855560D02*
X7897967Y-15846036D01*
X8193205Y-15665084D02*
X8097967Y-15665084D01*
X8097967Y-15665084D02*
X8088443Y-15760322D01*
X8088443Y-15760322D02*
X8097967Y-15750798D01*
X8097967Y-15750798D02*
X8117015Y-15741274D01*
X8117015Y-15741274D02*
X8164634Y-15741274D01*
X8164634Y-15741274D02*
X8183682Y-15750798D01*
X8183682Y-15750798D02*
X8193205Y-15760322D01*
X8193205Y-15760322D02*
X8202729Y-15779369D01*
X8202729Y-15779369D02*
X8202729Y-15826988D01*
X8202729Y-15826988D02*
X8193205Y-15846036D01*
X8193205Y-15846036D02*
X8183682Y-15855560D01*
X8183682Y-15855560D02*
X8164634Y-15865084D01*
X8164634Y-15865084D02*
X8117015Y-15865084D01*
X8117015Y-15865084D02*
X8097967Y-15855560D01*
X8097967Y-15855560D02*
X8088443Y-15846036D01*
X8326539Y-15665084D02*
X8345586Y-15665084D01*
X8345586Y-15665084D02*
X8364634Y-15674608D01*
X8364634Y-15674608D02*
X8374158Y-15684131D01*
X8374158Y-15684131D02*
X8383682Y-15703179D01*
X8383682Y-15703179D02*
X8393205Y-15741274D01*
X8393205Y-15741274D02*
X8393205Y-15788893D01*
X8393205Y-15788893D02*
X8383682Y-15826988D01*
X8383682Y-15826988D02*
X8374158Y-15846036D01*
X8374158Y-15846036D02*
X8364634Y-15855560D01*
X8364634Y-15855560D02*
X8345586Y-15865084D01*
X8345586Y-15865084D02*
X8326539Y-15865084D01*
X8326539Y-15865084D02*
X8307491Y-15855560D01*
X8307491Y-15855560D02*
X8297967Y-15846036D01*
X8297967Y-15846036D02*
X8288443Y-15826988D01*
X8288443Y-15826988D02*
X8278920Y-15788893D01*
X8278920Y-15788893D02*
X8278920Y-15741274D01*
X8278920Y-15741274D02*
X8288443Y-15703179D01*
X8288443Y-15703179D02*
X8297967Y-15684131D01*
X8297967Y-15684131D02*
X8307491Y-15674608D01*
X8307491Y-15674608D02*
X8326539Y-15665084D01*
X8478920Y-15865084D02*
X8478920Y-15731750D01*
X8478920Y-15750798D02*
X8488444Y-15741274D01*
X8488444Y-15741274D02*
X8507491Y-15731750D01*
X8507491Y-15731750D02*
X8536063Y-15731750D01*
X8536063Y-15731750D02*
X8555110Y-15741274D01*
X8555110Y-15741274D02*
X8564634Y-15760322D01*
X8564634Y-15760322D02*
X8564634Y-15865084D01*
X8564634Y-15760322D02*
X8574158Y-15741274D01*
X8574158Y-15741274D02*
X8593205Y-15731750D01*
X8593205Y-15731750D02*
X8621777Y-15731750D01*
X8621777Y-15731750D02*
X8640825Y-15741274D01*
X8640825Y-15741274D02*
X8650348Y-15760322D01*
X8650348Y-15760322D02*
X8650348Y-15865084D01*
X8745586Y-15865084D02*
X8745586Y-15731750D01*
X8745586Y-15750798D02*
X8755110Y-15741274D01*
X8755110Y-15741274D02*
X8774158Y-15731750D01*
X8774158Y-15731750D02*
X8802729Y-15731750D01*
X8802729Y-15731750D02*
X8821777Y-15741274D01*
X8821777Y-15741274D02*
X8831301Y-15760322D01*
X8831301Y-15760322D02*
X8831301Y-15865084D01*
X8831301Y-15760322D02*
X8840825Y-15741274D01*
X8840825Y-15741274D02*
X8859872Y-15731750D01*
X8859872Y-15731750D02*
X8888444Y-15731750D01*
X8888444Y-15731750D02*
X8907491Y-15741274D01*
X8907491Y-15741274D02*
X8917015Y-15760322D01*
X8917015Y-15760322D02*
X8917015Y-15865084D01*
X9307491Y-15655560D02*
X9136063Y-15912703D01*
X9564634Y-15665084D02*
X9583682Y-15665084D01*
X9583682Y-15665084D02*
X9602729Y-15674608D01*
X9602729Y-15674608D02*
X9612253Y-15684131D01*
X9612253Y-15684131D02*
X9621777Y-15703179D01*
X9621777Y-15703179D02*
X9631301Y-15741274D01*
X9631301Y-15741274D02*
X9631301Y-15788893D01*
X9631301Y-15788893D02*
X9621777Y-15826988D01*
X9621777Y-15826988D02*
X9612253Y-15846036D01*
X9612253Y-15846036D02*
X9602729Y-15855560D01*
X9602729Y-15855560D02*
X9583682Y-15865084D01*
X9583682Y-15865084D02*
X9564634Y-15865084D01*
X9564634Y-15865084D02*
X9545587Y-15855560D01*
X9545587Y-15855560D02*
X9536063Y-15846036D01*
X9536063Y-15846036D02*
X9526539Y-15826988D01*
X9526539Y-15826988D02*
X9517015Y-15788893D01*
X9517015Y-15788893D02*
X9517015Y-15741274D01*
X9517015Y-15741274D02*
X9526539Y-15703179D01*
X9526539Y-15703179D02*
X9536063Y-15684131D01*
X9536063Y-15684131D02*
X9545587Y-15674608D01*
X9545587Y-15674608D02*
X9564634Y-15665084D01*
X9717015Y-15846036D02*
X9726539Y-15855560D01*
X9726539Y-15855560D02*
X9717015Y-15865084D01*
X9717015Y-15865084D02*
X9707491Y-15855560D01*
X9707491Y-15855560D02*
X9717015Y-15846036D01*
X9717015Y-15846036D02*
X9717015Y-15865084D01*
X9917015Y-15865084D02*
X9802729Y-15865084D01*
X9859872Y-15865084D02*
X9859872Y-15665084D01*
X9859872Y-15665084D02*
X9840825Y-15693655D01*
X9840825Y-15693655D02*
X9821777Y-15712703D01*
X9821777Y-15712703D02*
X9802729Y-15722227D01*
X9983682Y-15665084D02*
X10117015Y-15665084D01*
X10117015Y-15665084D02*
X10031301Y-15865084D01*
X10202729Y-15865084D02*
X10240825Y-15865084D01*
X10240825Y-15865084D02*
X10259872Y-15855560D01*
X10259872Y-15855560D02*
X10269396Y-15846036D01*
X10269396Y-15846036D02*
X10288444Y-15817465D01*
X10288444Y-15817465D02*
X10297968Y-15779369D01*
X10297968Y-15779369D02*
X10297968Y-15703179D01*
X10297968Y-15703179D02*
X10288444Y-15684131D01*
X10288444Y-15684131D02*
X10278920Y-15674608D01*
X10278920Y-15674608D02*
X10259872Y-15665084D01*
X10259872Y-15665084D02*
X10221777Y-15665084D01*
X10221777Y-15665084D02*
X10202729Y-15674608D01*
X10202729Y-15674608D02*
X10193206Y-15684131D01*
X10193206Y-15684131D02*
X10183682Y-15703179D01*
X10183682Y-15703179D02*
X10183682Y-15750798D01*
X10183682Y-15750798D02*
X10193206Y-15769846D01*
X10193206Y-15769846D02*
X10202729Y-15779369D01*
X10202729Y-15779369D02*
X10221777Y-15788893D01*
X10221777Y-15788893D02*
X10259872Y-15788893D01*
X10259872Y-15788893D02*
X10278920Y-15779369D01*
X10278920Y-15779369D02*
X10288444Y-15769846D01*
X10288444Y-15769846D02*
X10297968Y-15750798D01*
X10488444Y-15865084D02*
X10374158Y-15865084D01*
X10431301Y-15865084D02*
X10431301Y-15665084D01*
X10431301Y-15665084D02*
X10412253Y-15693655D01*
X10412253Y-15693655D02*
X10393206Y-15712703D01*
X10393206Y-15712703D02*
X10374158Y-15722227D01*
X10564634Y-15665084D02*
X10564634Y-15703179D01*
X10640825Y-15665084D02*
X10640825Y-15703179D01*
X10936063Y-15941274D02*
X10926539Y-15931750D01*
X10926539Y-15931750D02*
X10907491Y-15903179D01*
X10907491Y-15903179D02*
X10897968Y-15884131D01*
X10897968Y-15884131D02*
X10888444Y-15855560D01*
X10888444Y-15855560D02*
X10878920Y-15807941D01*
X10878920Y-15807941D02*
X10878920Y-15769846D01*
X10878920Y-15769846D02*
X10888444Y-15722227D01*
X10888444Y-15722227D02*
X10897968Y-15693655D01*
X10897968Y-15693655D02*
X10907491Y-15674608D01*
X10907491Y-15674608D02*
X10926539Y-15646036D01*
X10926539Y-15646036D02*
X10936063Y-15636512D01*
X11097968Y-15731750D02*
X11097968Y-15865084D01*
X11050349Y-15655560D02*
X11002730Y-15798417D01*
X11002730Y-15798417D02*
X11126539Y-15798417D01*
X11355110Y-15865084D02*
X11355110Y-15665084D01*
X11440825Y-15865084D02*
X11440825Y-15760322D01*
X11440825Y-15760322D02*
X11431301Y-15741274D01*
X11431301Y-15741274D02*
X11412253Y-15731750D01*
X11412253Y-15731750D02*
X11383682Y-15731750D01*
X11383682Y-15731750D02*
X11364634Y-15741274D01*
X11364634Y-15741274D02*
X11355110Y-15750798D01*
X11564634Y-15865084D02*
X11545587Y-15855560D01*
X11545587Y-15855560D02*
X11536063Y-15846036D01*
X11536063Y-15846036D02*
X11526539Y-15826988D01*
X11526539Y-15826988D02*
X11526539Y-15769846D01*
X11526539Y-15769846D02*
X11536063Y-15750798D01*
X11536063Y-15750798D02*
X11545587Y-15741274D01*
X11545587Y-15741274D02*
X11564634Y-15731750D01*
X11564634Y-15731750D02*
X11593206Y-15731750D01*
X11593206Y-15731750D02*
X11612253Y-15741274D01*
X11612253Y-15741274D02*
X11621777Y-15750798D01*
X11621777Y-15750798D02*
X11631301Y-15769846D01*
X11631301Y-15769846D02*
X11631301Y-15826988D01*
X11631301Y-15826988D02*
X11621777Y-15846036D01*
X11621777Y-15846036D02*
X11612253Y-15855560D01*
X11612253Y-15855560D02*
X11593206Y-15865084D01*
X11593206Y-15865084D02*
X11564634Y-15865084D01*
X11745587Y-15865084D02*
X11726539Y-15855560D01*
X11726539Y-15855560D02*
X11717015Y-15836512D01*
X11717015Y-15836512D02*
X11717015Y-15665084D01*
X11897968Y-15855560D02*
X11878920Y-15865084D01*
X11878920Y-15865084D02*
X11840825Y-15865084D01*
X11840825Y-15865084D02*
X11821777Y-15855560D01*
X11821777Y-15855560D02*
X11812253Y-15836512D01*
X11812253Y-15836512D02*
X11812253Y-15760322D01*
X11812253Y-15760322D02*
X11821777Y-15741274D01*
X11821777Y-15741274D02*
X11840825Y-15731750D01*
X11840825Y-15731750D02*
X11878920Y-15731750D01*
X11878920Y-15731750D02*
X11897968Y-15741274D01*
X11897968Y-15741274D02*
X11907491Y-15760322D01*
X11907491Y-15760322D02*
X11907491Y-15779369D01*
X11907491Y-15779369D02*
X11812253Y-15798417D01*
X11983682Y-15855560D02*
X12002730Y-15865084D01*
X12002730Y-15865084D02*
X12040825Y-15865084D01*
X12040825Y-15865084D02*
X12059872Y-15855560D01*
X12059872Y-15855560D02*
X12069396Y-15836512D01*
X12069396Y-15836512D02*
X12069396Y-15826988D01*
X12069396Y-15826988D02*
X12059872Y-15807941D01*
X12059872Y-15807941D02*
X12040825Y-15798417D01*
X12040825Y-15798417D02*
X12012253Y-15798417D01*
X12012253Y-15798417D02*
X11993206Y-15788893D01*
X11993206Y-15788893D02*
X11983682Y-15769846D01*
X11983682Y-15769846D02*
X11983682Y-15760322D01*
X11983682Y-15760322D02*
X11993206Y-15741274D01*
X11993206Y-15741274D02*
X12012253Y-15731750D01*
X12012253Y-15731750D02*
X12040825Y-15731750D01*
X12040825Y-15731750D02*
X12059872Y-15741274D01*
X12136063Y-15941274D02*
X12145587Y-15931750D01*
X12145587Y-15931750D02*
X12164634Y-15903179D01*
X12164634Y-15903179D02*
X12174158Y-15884131D01*
X12174158Y-15884131D02*
X12183682Y-15855560D01*
X12183682Y-15855560D02*
X12193206Y-15807941D01*
X12193206Y-15807941D02*
X12193206Y-15769846D01*
X12193206Y-15769846D02*
X12183682Y-15722227D01*
X12183682Y-15722227D02*
X12174158Y-15693655D01*
X12174158Y-15693655D02*
X12164634Y-15674608D01*
X12164634Y-15674608D02*
X12145587Y-15646036D01*
X12145587Y-15646036D02*
X12136063Y-15636512D01*
M02*
