G04 #@! TF.GenerationSoftware,KiCad,Pcbnew,8.0.7*
G04 #@! TF.CreationDate,2024-12-23T09:47:45+09:00*
G04 #@! TF.ProjectId,F767ZI_MB_V1.1,46373637-5a49-45f4-9d42-5f56312e312e,rev?*
G04 #@! TF.SameCoordinates,Original*
G04 #@! TF.FileFunction,Soldermask,Bot*
G04 #@! TF.FilePolarity,Negative*
%FSLAX46Y46*%
G04 Gerber Fmt 4.6, Leading zero omitted, Abs format (unit mm)*
G04 Created by KiCad (PCBNEW 8.0.7) date 2024-12-23 09:47:45*
%MOMM*%
%LPD*%
G01*
G04 APERTURE LIST*
%ADD10R,1.700000X1.700000*%
%ADD11O,1.700000X1.700000*%
%ADD12C,5.000000*%
%ADD13C,1.600000*%
%ADD14O,1.600000X1.600000*%
G04 APERTURE END LIST*
D10*
X91440000Y-88783000D03*
D11*
X91440000Y-91323000D03*
X91440000Y-93863000D03*
X91440000Y-96403000D03*
D12*
X146939000Y-132725000D03*
X161939000Y-132725000D03*
D10*
X162560000Y-106563000D03*
D11*
X162560000Y-109103000D03*
X162560000Y-111643000D03*
X162560000Y-114183000D03*
D10*
X93980000Y-129540000D03*
D11*
X96520000Y-129540000D03*
D10*
X121920000Y-70690000D03*
D11*
X124460000Y-70690000D03*
X127000000Y-70690000D03*
X129540000Y-70690000D03*
D10*
X162560000Y-66304000D03*
D11*
X160020000Y-66304000D03*
X162560000Y-68844000D03*
X160020000Y-68844000D03*
X162560000Y-71384000D03*
X160020000Y-71384000D03*
X162560000Y-73924000D03*
X160020000Y-73924000D03*
X162560000Y-76464000D03*
X160020000Y-76464000D03*
X162560000Y-79004000D03*
X160020000Y-79004000D03*
D13*
X96520000Y-87823000D03*
D14*
X106680000Y-87823000D03*
D10*
X121920000Y-134190000D03*
D11*
X124460000Y-134190000D03*
X127000000Y-134190000D03*
D13*
X96520000Y-104023000D03*
D14*
X106680000Y-104023000D03*
D10*
X134620000Y-66040000D03*
D11*
X137160000Y-66040000D03*
X139700000Y-66040000D03*
X142240000Y-66040000D03*
D10*
X149860000Y-88783000D03*
D11*
X149860000Y-91323000D03*
X149860000Y-93863000D03*
X149860000Y-96403000D03*
X149860000Y-98943000D03*
X149860000Y-101483000D03*
X149860000Y-104023000D03*
X149860000Y-106563000D03*
X149860000Y-109103000D03*
X149860000Y-111643000D03*
X149860000Y-114183000D03*
D10*
X86360000Y-129540000D03*
D11*
X88900000Y-129540000D03*
D10*
X121920000Y-129540000D03*
D11*
X124460000Y-129540000D03*
X127000000Y-129540000D03*
D13*
X132080000Y-107593000D03*
D14*
X142240000Y-107593000D03*
D13*
X132080000Y-99493000D03*
D14*
X142240000Y-99493000D03*
D10*
X114300000Y-134140000D03*
D11*
X116840000Y-134140000D03*
D10*
X164973000Y-124597000D03*
D11*
X164973000Y-122057000D03*
X162433000Y-124597000D03*
X162433000Y-122057000D03*
X159893000Y-124597000D03*
X159893000Y-122057000D03*
X157353000Y-124597000D03*
X157353000Y-122057000D03*
X154813000Y-124597000D03*
X154813000Y-122057000D03*
X152273000Y-124597000D03*
X152273000Y-122057000D03*
D13*
X132080000Y-103543000D03*
D14*
X142240000Y-103543000D03*
D13*
X96520000Y-108073000D03*
D14*
X106680000Y-108073000D03*
D13*
X132080000Y-111643000D03*
D14*
X142240000Y-111643000D03*
D10*
X101600000Y-134620000D03*
D11*
X104140000Y-134620000D03*
X106680000Y-134620000D03*
X109220000Y-134620000D03*
D10*
X101600000Y-129540000D03*
D11*
X104140000Y-129540000D03*
X106680000Y-129540000D03*
X109220000Y-129540000D03*
D10*
X114300000Y-88783000D03*
D11*
X114300000Y-91323000D03*
X114300000Y-93863000D03*
X114300000Y-96403000D03*
X114300000Y-98943000D03*
X114300000Y-101483000D03*
X114300000Y-104023000D03*
X114300000Y-106563000D03*
X114300000Y-109103000D03*
X114300000Y-111643000D03*
X114300000Y-114183000D03*
D10*
X86360000Y-66040000D03*
D11*
X88900000Y-66040000D03*
X91440000Y-66040000D03*
X93980000Y-66040000D03*
D13*
X132080000Y-87343000D03*
D14*
X142240000Y-87343000D03*
D13*
X96520000Y-116173000D03*
D14*
X106680000Y-116173000D03*
D10*
X121920000Y-66040000D03*
D11*
X124460000Y-66040000D03*
X127000000Y-66040000D03*
X129540000Y-66040000D03*
D13*
X96520000Y-99973000D03*
D14*
X106680000Y-99973000D03*
D10*
X99060000Y-70690000D03*
D11*
X101600000Y-70690000D03*
X104140000Y-70690000D03*
X106680000Y-70690000D03*
D10*
X127000000Y-106563000D03*
D11*
X127000000Y-109103000D03*
X127000000Y-111643000D03*
X127000000Y-114183000D03*
D10*
X162560000Y-88783000D03*
D11*
X162560000Y-91323000D03*
X162560000Y-93863000D03*
X162560000Y-96403000D03*
D10*
X134620000Y-70690000D03*
D11*
X137160000Y-70690000D03*
X139700000Y-70690000D03*
X142240000Y-70690000D03*
D10*
X91440000Y-106563000D03*
D11*
X91440000Y-109103000D03*
X91440000Y-111643000D03*
X91440000Y-114183000D03*
D13*
X132080000Y-115693000D03*
D14*
X142240000Y-115693000D03*
D13*
X132080000Y-91393000D03*
D14*
X142240000Y-91393000D03*
D13*
X96520000Y-95923000D03*
D14*
X106680000Y-95923000D03*
D10*
X93980000Y-134190000D03*
D11*
X96520000Y-134190000D03*
D10*
X86360000Y-70690000D03*
D11*
X88900000Y-70690000D03*
X91440000Y-70690000D03*
X93980000Y-70690000D03*
D10*
X132080000Y-129540000D03*
D11*
X134620000Y-129540000D03*
X137160000Y-129540000D03*
D10*
X132080000Y-134190000D03*
D11*
X134620000Y-134190000D03*
X137160000Y-134190000D03*
D10*
X78740000Y-134190000D03*
D11*
X81280000Y-134190000D03*
D10*
X86360000Y-134190000D03*
D11*
X88900000Y-134190000D03*
D13*
X96520000Y-91873000D03*
D14*
X106680000Y-91873000D03*
D10*
X78740000Y-88783000D03*
D11*
X78740000Y-91323000D03*
X78740000Y-93863000D03*
X78740000Y-96403000D03*
X78740000Y-98943000D03*
X78740000Y-101483000D03*
X78740000Y-104023000D03*
X78740000Y-106563000D03*
X78740000Y-109103000D03*
X78740000Y-111643000D03*
X78740000Y-114183000D03*
D10*
X78740000Y-129540000D03*
D11*
X81280000Y-129540000D03*
D10*
X114300000Y-129540000D03*
D11*
X116840000Y-129540000D03*
D10*
X99060000Y-66040000D03*
D11*
X101600000Y-66040000D03*
X104140000Y-66040000D03*
X106680000Y-66040000D03*
D13*
X96520000Y-112123000D03*
D14*
X106680000Y-112123000D03*
D10*
X127000000Y-88783000D03*
D11*
X127000000Y-91323000D03*
X127000000Y-93863000D03*
X127000000Y-96403000D03*
D13*
X132080000Y-95443000D03*
D14*
X142240000Y-95443000D03*
D10*
X146240000Y-121920000D03*
D11*
X146240000Y-124460000D03*
X143700000Y-121920000D03*
X143700000Y-124460000D03*
X141160000Y-121920000D03*
X141160000Y-124460000D03*
X138620000Y-121920000D03*
X138620000Y-124460000D03*
X136080000Y-121920000D03*
X136080000Y-124460000D03*
X133540000Y-121920000D03*
X133540000Y-124460000D03*
X131000000Y-121920000D03*
X131000000Y-124460000D03*
X128460000Y-121920000D03*
X128460000Y-124460000D03*
X125920000Y-121920000D03*
X125920000Y-124460000D03*
X123380000Y-121920000D03*
X123380000Y-124460000D03*
D10*
X119380000Y-121920000D03*
D11*
X119380000Y-124460000D03*
X116840000Y-121920000D03*
X116840000Y-124460000D03*
X114300000Y-121920000D03*
X114300000Y-124460000D03*
X111760000Y-121920000D03*
X111760000Y-124460000D03*
X109220000Y-121920000D03*
X109220000Y-124460000D03*
X106680000Y-121920000D03*
X106680000Y-124460000D03*
X104140000Y-121920000D03*
X104140000Y-124460000D03*
X101600000Y-121920000D03*
X101600000Y-124460000D03*
X99060000Y-121920000D03*
X99060000Y-124460000D03*
X96520000Y-121920000D03*
X96520000Y-124460000D03*
X93980000Y-121920000D03*
X93980000Y-124460000D03*
X91440000Y-121920000D03*
X91440000Y-124460000D03*
X88900000Y-121920000D03*
X88900000Y-124460000D03*
X86360000Y-121920000D03*
X86360000Y-124460000D03*
X83820000Y-121920000D03*
X83820000Y-124460000D03*
X81280000Y-121920000D03*
X81280000Y-124460000D03*
X78740000Y-121920000D03*
X78740000Y-124460000D03*
D10*
X137080000Y-76200000D03*
D11*
X137080000Y-78740000D03*
X134540000Y-76200000D03*
X134540000Y-78740000D03*
X132000000Y-76200000D03*
X132000000Y-78740000D03*
X129460000Y-76200000D03*
X129460000Y-78740000D03*
X126920000Y-76200000D03*
X126920000Y-78740000D03*
X124380000Y-76200000D03*
X124380000Y-78740000D03*
X121840000Y-76200000D03*
X121840000Y-78740000D03*
X119300000Y-76200000D03*
X119300000Y-78740000D03*
D10*
X114300000Y-76200000D03*
D11*
X114300000Y-78740000D03*
X111760000Y-76200000D03*
X111760000Y-78740000D03*
X109220000Y-76200000D03*
X109220000Y-78740000D03*
X106680000Y-76200000D03*
X106680000Y-78740000D03*
X104140000Y-76200000D03*
X104140000Y-78740000D03*
X101600000Y-76200000D03*
X101600000Y-78740000D03*
X99060000Y-76200000D03*
X99060000Y-78740000D03*
X96520000Y-76200000D03*
X96520000Y-78740000D03*
X93980000Y-76200000D03*
X93980000Y-78740000D03*
X91440000Y-76200000D03*
X91440000Y-78740000D03*
X88900000Y-76200000D03*
X88900000Y-78740000D03*
X86360000Y-76200000D03*
X86360000Y-78740000D03*
X83820000Y-76200000D03*
X83820000Y-78740000D03*
X81280000Y-76200000D03*
X81280000Y-78740000D03*
X78740000Y-76200000D03*
X78740000Y-78740000D03*
M02*
