M48
; DRILL file {KiCad 8.0.7} date 2024-12-23T09:48:22+0900
; FORMAT={-:-/ absolute / metric / decimal}
; #@! TF.CreationDate,2024-12-23T09:48:22+09:00
; #@! TF.GenerationSoftware,Kicad,Pcbnew,8.0.7
; #@! TF.FileFunction,Plated,1,2,PTH
FMAT,2
METRIC
; #@! TA.AperFunction,Plated,PTH,ViaDrill
T1C0.400
; #@! TA.AperFunction,Plated,PTH,ComponentDrill
T2C0.800
; #@! TA.AperFunction,Plated,PTH,ComponentDrill
T3C1.000
; #@! TA.AperFunction,Plated,PTH,ComponentDrill
T4C3.000
%
G90
G05
T1
X74.93Y-70.876
X74.93Y-75.956
X74.93Y-83.576
X74.93Y-96.276
X74.93Y-108.976
X74.93Y-120.406
X74.93Y-131.836
X76.2Y-67.066
X78.74Y-64.526
X82.55Y-106.436
X82.55Y-138.186
X85.09Y-103.896
X86.042Y-63.97
X86.36Y-84.846
X86.36Y-89.926
X86.96Y-94.995
X88.9Y-61.986
X92.71Y-138.186
X95.087Y-111.876
X96.52Y-80.196
X97.79Y-68.336
X98.328Y-129.451
X98.811Y-113.309
X100.33Y-72.221
X101.6Y-61.986
X101.6Y-138.186
X102.543Y-72.146
X106.172Y-132.09
X107.565Y-113.95
X111.76Y-61.986
X111.76Y-67.066
X114.3Y-69.606
X114.3Y-138.186
X115.958Y-120.707
X116.84Y-67.066
X118.11Y-102.626
X118.264Y-118.401
X119.38Y-91.196
X121.666Y-117.866
X121.92Y-61.986
X123.19Y-89.926
X123.19Y-95.006
X123.556Y-77.47
X123.779Y-82.945
X124.197Y-123.19
X124.46Y-86.116
X124.46Y-103.896
X125.73Y-101.356
X127.383Y-125.849
X128.288Y-81.937
X129.217Y-110.922
X129.54Y-135.646
X132.08Y-61.986
X134.385Y-123.247
X138.042Y-119.881
X139.7Y-78.496
X142.24Y-61.986
X143.002Y-77.226
X144.78Y-105.166
X144.78Y-114.056
X146.05Y-83.576
X147.32Y-70.876
X147.32Y-75.956
X148.59Y-67.066
X149.86Y-136.916
X151.13Y-130.566
X152.4Y-133.106
X154.94Y-63.256
X154.94Y-130.566
X156.21Y-69.606
X157.48Y-116.596
X158.75Y-98.816
X160.607Y-129.093
X163.83Y-139.456
X165.1Y-84.846
X166.37Y-65.796
X166.37Y-73.416
X167.64Y-63.256
X168.91Y-69.606
X168.91Y-78.496
X168.91Y-88.656
X168.91Y-98.816
X168.91Y-108.976
X168.91Y-119.136
X168.91Y-130.566
T2
X96.52Y-87.823
X96.52Y-91.873
X96.52Y-95.923
X96.52Y-99.973
X96.52Y-104.023
X96.52Y-108.073
X96.52Y-112.123
X96.52Y-116.173
X106.68Y-87.823
X106.68Y-91.873
X106.68Y-95.923
X106.68Y-99.973
X106.68Y-104.023
X106.68Y-108.073
X106.68Y-112.123
X106.68Y-116.173
X132.08Y-87.343
X132.08Y-91.393
X132.08Y-95.443
X132.08Y-99.493
X132.08Y-103.543
X132.08Y-107.593
X132.08Y-111.643
X132.08Y-115.693
X142.24Y-87.343
X142.24Y-91.393
X142.24Y-95.443
X142.24Y-99.493
X142.24Y-103.543
X142.24Y-107.593
X142.24Y-111.643
X142.24Y-115.693
T3
X78.74Y-76.2
X78.74Y-78.74
X78.74Y-88.783
X78.74Y-91.323
X78.74Y-93.863
X78.74Y-96.403
X78.74Y-98.943
X78.74Y-101.483
X78.74Y-104.023
X78.74Y-106.563
X78.74Y-109.103
X78.74Y-111.643
X78.74Y-114.183
X78.74Y-121.92
X78.74Y-124.46
X78.74Y-129.54
X78.74Y-134.19
X81.28Y-76.2
X81.28Y-78.74
X81.28Y-121.92
X81.28Y-124.46
X81.28Y-129.54
X81.28Y-134.19
X83.82Y-76.2
X83.82Y-78.74
X83.82Y-121.92
X83.82Y-124.46
X86.36Y-66.04
X86.36Y-70.69
X86.36Y-76.2
X86.36Y-78.74
X86.36Y-121.92
X86.36Y-124.46
X86.36Y-129.54
X86.36Y-134.19
X88.9Y-66.04
X88.9Y-70.69
X88.9Y-76.2
X88.9Y-78.74
X88.9Y-121.92
X88.9Y-124.46
X88.9Y-129.54
X88.9Y-134.19
X91.44Y-66.04
X91.44Y-70.69
X91.44Y-76.2
X91.44Y-78.74
X91.44Y-88.783
X91.44Y-91.323
X91.44Y-93.863
X91.44Y-96.403
X91.44Y-106.563
X91.44Y-109.103
X91.44Y-111.643
X91.44Y-114.183
X91.44Y-121.92
X91.44Y-124.46
X93.98Y-66.04
X93.98Y-70.69
X93.98Y-76.2
X93.98Y-78.74
X93.98Y-121.92
X93.98Y-124.46
X93.98Y-129.54
X93.98Y-134.19
X96.52Y-76.2
X96.52Y-78.74
X96.52Y-121.92
X96.52Y-124.46
X96.52Y-129.54
X96.52Y-134.19
X99.06Y-66.04
X99.06Y-70.69
X99.06Y-76.2
X99.06Y-78.74
X99.06Y-121.92
X99.06Y-124.46
X101.6Y-66.04
X101.6Y-70.69
X101.6Y-76.2
X101.6Y-78.74
X101.6Y-121.92
X101.6Y-124.46
X101.6Y-129.54
X101.6Y-134.62
X104.14Y-66.04
X104.14Y-70.69
X104.14Y-76.2
X104.14Y-78.74
X104.14Y-121.92
X104.14Y-124.46
X104.14Y-129.54
X104.14Y-134.62
X106.68Y-66.04
X106.68Y-70.69
X106.68Y-76.2
X106.68Y-78.74
X106.68Y-121.92
X106.68Y-124.46
X106.68Y-129.54
X106.68Y-134.62
X109.22Y-76.2
X109.22Y-78.74
X109.22Y-121.92
X109.22Y-124.46
X109.22Y-129.54
X109.22Y-134.62
X111.76Y-76.2
X111.76Y-78.74
X111.76Y-121.92
X111.76Y-124.46
X114.3Y-76.2
X114.3Y-78.74
X114.3Y-88.783
X114.3Y-91.323
X114.3Y-93.863
X114.3Y-96.403
X114.3Y-98.943
X114.3Y-101.483
X114.3Y-104.023
X114.3Y-106.563
X114.3Y-109.103
X114.3Y-111.643
X114.3Y-114.183
X114.3Y-121.92
X114.3Y-124.46
X114.3Y-129.54
X114.3Y-134.14
X116.84Y-121.92
X116.84Y-124.46
X116.84Y-129.54
X116.84Y-134.14
X119.3Y-76.2
X119.3Y-78.74
X119.38Y-121.92
X119.38Y-124.46
X121.84Y-76.2
X121.84Y-78.74
X121.92Y-66.04
X121.92Y-70.69
X121.92Y-129.54
X121.92Y-134.19
X123.38Y-121.92
X123.38Y-124.46
X124.38Y-76.2
X124.38Y-78.74
X124.46Y-66.04
X124.46Y-70.69
X124.46Y-129.54
X124.46Y-134.19
X125.92Y-121.92
X125.92Y-124.46
X126.92Y-76.2
X126.92Y-78.74
X127.0Y-66.04
X127.0Y-70.69
X127.0Y-88.783
X127.0Y-91.323
X127.0Y-93.863
X127.0Y-96.403
X127.0Y-106.563
X127.0Y-109.103
X127.0Y-111.643
X127.0Y-114.183
X127.0Y-129.54
X127.0Y-134.19
X128.46Y-121.92
X128.46Y-124.46
X129.46Y-76.2
X129.46Y-78.74
X129.54Y-66.04
X129.54Y-70.69
X131.0Y-121.92
X131.0Y-124.46
X132.0Y-76.2
X132.0Y-78.74
X132.08Y-129.54
X132.08Y-134.19
X133.54Y-121.92
X133.54Y-124.46
X134.54Y-76.2
X134.54Y-78.74
X134.62Y-66.04
X134.62Y-70.69
X134.62Y-129.54
X134.62Y-134.19
X136.08Y-121.92
X136.08Y-124.46
X137.08Y-76.2
X137.08Y-78.74
X137.16Y-66.04
X137.16Y-70.69
X137.16Y-129.54
X137.16Y-134.19
X138.62Y-121.92
X138.62Y-124.46
X139.7Y-66.04
X139.7Y-70.69
X141.16Y-121.92
X141.16Y-124.46
X142.24Y-66.04
X142.24Y-70.69
X143.7Y-121.92
X143.7Y-124.46
X146.24Y-121.92
X146.24Y-124.46
X149.86Y-88.783
X149.86Y-91.323
X149.86Y-93.863
X149.86Y-96.403
X149.86Y-98.943
X149.86Y-101.483
X149.86Y-104.023
X149.86Y-106.563
X149.86Y-109.103
X149.86Y-111.643
X149.86Y-114.183
X152.273Y-122.057
X152.273Y-124.597
X154.813Y-122.057
X154.813Y-124.597
X157.353Y-122.057
X157.353Y-124.597
X159.893Y-122.057
X159.893Y-124.597
X160.02Y-66.304
X160.02Y-68.844
X160.02Y-71.384
X160.02Y-73.924
X160.02Y-76.464
X160.02Y-79.004
X162.433Y-122.057
X162.433Y-124.597
X162.56Y-66.304
X162.56Y-68.844
X162.56Y-71.384
X162.56Y-73.924
X162.56Y-76.464
X162.56Y-79.004
X162.56Y-88.783
X162.56Y-91.323
X162.56Y-93.863
X162.56Y-96.403
X162.56Y-106.563
X162.56Y-109.103
X162.56Y-111.643
X162.56Y-114.183
X164.973Y-122.057
X164.973Y-124.597
T4
X146.939Y-132.725
X161.939Y-132.725
M30
