G04 #@! TF.GenerationSoftware,KiCad,Pcbnew,8.0.4*
G04 #@! TF.CreationDate,2024-11-25T17:41:29+09:00*
G04 #@! TF.ProjectId,F767ZI_MB_V1.0,46373637-5a49-45f4-9d42-5f56312e302e,rev?*
G04 #@! TF.SameCoordinates,Original*
G04 #@! TF.FileFunction,Soldermask,Bot*
G04 #@! TF.FilePolarity,Negative*
%FSLAX46Y46*%
G04 Gerber Fmt 4.6, Leading zero omitted, Abs format (unit mm)*
G04 Created by KiCad (PCBNEW 8.0.4) date 2024-11-25 17:41:29*
%MOMM*%
%LPD*%
G01*
G04 APERTURE LIST*
%ADD10R,1.700000X1.700000*%
%ADD11O,1.700000X1.700000*%
%ADD12C,1.600000*%
%ADD13O,1.600000X1.600000*%
G04 APERTURE END LIST*
D10*
X91440000Y-87386000D03*
D11*
X91440000Y-89926000D03*
X91440000Y-92466000D03*
X91440000Y-95006000D03*
D10*
X162560000Y-105166000D03*
D11*
X162560000Y-107706000D03*
X162560000Y-110246000D03*
X162560000Y-112786000D03*
D10*
X93980000Y-129540000D03*
D11*
X96520000Y-129540000D03*
D10*
X121920000Y-70690000D03*
D11*
X124460000Y-70690000D03*
X127000000Y-70690000D03*
X129540000Y-70690000D03*
D10*
X144780000Y-132080000D03*
D11*
X144780000Y-134620000D03*
X147320000Y-132080000D03*
X147320000Y-134620000D03*
X149860000Y-132080000D03*
X149860000Y-134620000D03*
X152400000Y-132080000D03*
X152400000Y-134620000D03*
X154940000Y-132080000D03*
X154940000Y-134620000D03*
X157480000Y-132080000D03*
X157480000Y-134620000D03*
D12*
X96520000Y-86426000D03*
D13*
X106680000Y-86426000D03*
D10*
X121920000Y-134190000D03*
D11*
X124460000Y-134190000D03*
X127000000Y-134190000D03*
D12*
X96520000Y-102626000D03*
D13*
X106680000Y-102626000D03*
D10*
X134620000Y-66040000D03*
D11*
X137160000Y-66040000D03*
X139700000Y-66040000D03*
X142240000Y-66040000D03*
D10*
X149860000Y-87386000D03*
D11*
X149860000Y-89926000D03*
X149860000Y-92466000D03*
X149860000Y-95006000D03*
X149860000Y-97546000D03*
X149860000Y-100086000D03*
X149860000Y-102626000D03*
X149860000Y-105166000D03*
X149860000Y-107706000D03*
X149860000Y-110246000D03*
X149860000Y-112786000D03*
D10*
X86360000Y-129540000D03*
D11*
X88900000Y-129540000D03*
D10*
X121920000Y-129540000D03*
D11*
X124460000Y-129540000D03*
X127000000Y-129540000D03*
D12*
X132080000Y-106196000D03*
D13*
X142240000Y-106196000D03*
D12*
X132080000Y-98096000D03*
D13*
X142240000Y-98096000D03*
D10*
X114300000Y-134140000D03*
D11*
X116840000Y-134140000D03*
D10*
X162560000Y-134620000D03*
D11*
X165100000Y-134620000D03*
X162560000Y-132080000D03*
X165100000Y-132080000D03*
X162560000Y-129540000D03*
X165100000Y-129540000D03*
X162560000Y-127000000D03*
X165100000Y-127000000D03*
X162560000Y-124460000D03*
X165100000Y-124460000D03*
X162560000Y-121920000D03*
X165100000Y-121920000D03*
D10*
X165100000Y-66040000D03*
D11*
X162560000Y-66040000D03*
X165100000Y-68580000D03*
X162560000Y-68580000D03*
X165100000Y-71120000D03*
X162560000Y-71120000D03*
X165100000Y-73660000D03*
X162560000Y-73660000D03*
D12*
X132080000Y-102146000D03*
D13*
X142240000Y-102146000D03*
D12*
X96520000Y-106676000D03*
D13*
X106680000Y-106676000D03*
D12*
X132080000Y-110246000D03*
D13*
X142240000Y-110246000D03*
D10*
X101600000Y-134620000D03*
D11*
X104140000Y-134620000D03*
X106680000Y-134620000D03*
X109220000Y-134620000D03*
D10*
X101600000Y-129540000D03*
D11*
X104140000Y-129540000D03*
X106680000Y-129540000D03*
X109220000Y-129540000D03*
D10*
X114300000Y-87386000D03*
D11*
X114300000Y-89926000D03*
X114300000Y-92466000D03*
X114300000Y-95006000D03*
X114300000Y-97546000D03*
X114300000Y-100086000D03*
X114300000Y-102626000D03*
X114300000Y-105166000D03*
X114300000Y-107706000D03*
X114300000Y-110246000D03*
X114300000Y-112786000D03*
D10*
X86360000Y-66040000D03*
D11*
X88900000Y-66040000D03*
X91440000Y-66040000D03*
X93980000Y-66040000D03*
D12*
X132080000Y-85946000D03*
D13*
X142240000Y-85946000D03*
D12*
X96520000Y-114776000D03*
D13*
X106680000Y-114776000D03*
D10*
X121920000Y-66040000D03*
D11*
X124460000Y-66040000D03*
X127000000Y-66040000D03*
X129540000Y-66040000D03*
D12*
X96520000Y-98576000D03*
D13*
X106680000Y-98576000D03*
D10*
X99060000Y-70690000D03*
D11*
X101600000Y-70690000D03*
X104140000Y-70690000D03*
X106680000Y-70690000D03*
D10*
X127000000Y-105166000D03*
D11*
X127000000Y-107706000D03*
X127000000Y-110246000D03*
X127000000Y-112786000D03*
D10*
X162560000Y-87386000D03*
D11*
X162560000Y-89926000D03*
X162560000Y-92466000D03*
X162560000Y-95006000D03*
D10*
X134620000Y-70690000D03*
D11*
X137160000Y-70690000D03*
X139700000Y-70690000D03*
X142240000Y-70690000D03*
D10*
X91440000Y-105166000D03*
D11*
X91440000Y-107706000D03*
X91440000Y-110246000D03*
X91440000Y-112786000D03*
D12*
X132080000Y-114296000D03*
D13*
X142240000Y-114296000D03*
D12*
X132080000Y-89996000D03*
D13*
X142240000Y-89996000D03*
D12*
X96520000Y-94526000D03*
D13*
X106680000Y-94526000D03*
D10*
X93980000Y-134190000D03*
D11*
X96520000Y-134190000D03*
D10*
X86360000Y-70690000D03*
D11*
X88900000Y-70690000D03*
X91440000Y-70690000D03*
X93980000Y-70690000D03*
D10*
X132080000Y-129540000D03*
D11*
X134620000Y-129540000D03*
X137160000Y-129540000D03*
D10*
X132080000Y-134190000D03*
D11*
X134620000Y-134190000D03*
X137160000Y-134190000D03*
D10*
X78740000Y-134190000D03*
D11*
X81280000Y-134190000D03*
D10*
X86360000Y-134190000D03*
D11*
X88900000Y-134190000D03*
D12*
X96520000Y-90476000D03*
D13*
X106680000Y-90476000D03*
D10*
X78740000Y-87386000D03*
D11*
X78740000Y-89926000D03*
X78740000Y-92466000D03*
X78740000Y-95006000D03*
X78740000Y-97546000D03*
X78740000Y-100086000D03*
X78740000Y-102626000D03*
X78740000Y-105166000D03*
X78740000Y-107706000D03*
X78740000Y-110246000D03*
X78740000Y-112786000D03*
D10*
X78740000Y-129540000D03*
D11*
X81280000Y-129540000D03*
D10*
X114300000Y-129540000D03*
D11*
X116840000Y-129540000D03*
D10*
X99060000Y-66040000D03*
D11*
X101600000Y-66040000D03*
X104140000Y-66040000D03*
X106680000Y-66040000D03*
D12*
X96520000Y-110726000D03*
D13*
X106680000Y-110726000D03*
D10*
X127000000Y-87386000D03*
D11*
X127000000Y-89926000D03*
X127000000Y-92466000D03*
X127000000Y-95006000D03*
D12*
X132080000Y-94046000D03*
D13*
X142240000Y-94046000D03*
D10*
X146240000Y-121920000D03*
D11*
X146240000Y-124460000D03*
X143700000Y-121920000D03*
X143700000Y-124460000D03*
X141160000Y-121920000D03*
X141160000Y-124460000D03*
X138620000Y-121920000D03*
X138620000Y-124460000D03*
X136080000Y-121920000D03*
X136080000Y-124460000D03*
X133540000Y-121920000D03*
X133540000Y-124460000D03*
X131000000Y-121920000D03*
X131000000Y-124460000D03*
X128460000Y-121920000D03*
X128460000Y-124460000D03*
X125920000Y-121920000D03*
X125920000Y-124460000D03*
X123380000Y-121920000D03*
X123380000Y-124460000D03*
D10*
X119380000Y-121920000D03*
D11*
X119380000Y-124460000D03*
X116840000Y-121920000D03*
X116840000Y-124460000D03*
X114300000Y-121920000D03*
X114300000Y-124460000D03*
X111760000Y-121920000D03*
X111760000Y-124460000D03*
X109220000Y-121920000D03*
X109220000Y-124460000D03*
X106680000Y-121920000D03*
X106680000Y-124460000D03*
X104140000Y-121920000D03*
X104140000Y-124460000D03*
X101600000Y-121920000D03*
X101600000Y-124460000D03*
X99060000Y-121920000D03*
X99060000Y-124460000D03*
X96520000Y-121920000D03*
X96520000Y-124460000D03*
X93980000Y-121920000D03*
X93980000Y-124460000D03*
X91440000Y-121920000D03*
X91440000Y-124460000D03*
X88900000Y-121920000D03*
X88900000Y-124460000D03*
X86360000Y-121920000D03*
X86360000Y-124460000D03*
X83820000Y-121920000D03*
X83820000Y-124460000D03*
X81280000Y-121920000D03*
X81280000Y-124460000D03*
X78740000Y-121920000D03*
X78740000Y-124460000D03*
D10*
X137080000Y-76200000D03*
D11*
X137080000Y-78740000D03*
X134540000Y-76200000D03*
X134540000Y-78740000D03*
X132000000Y-76200000D03*
X132000000Y-78740000D03*
X129460000Y-76200000D03*
X129460000Y-78740000D03*
X126920000Y-76200000D03*
X126920000Y-78740000D03*
X124380000Y-76200000D03*
X124380000Y-78740000D03*
X121840000Y-76200000D03*
X121840000Y-78740000D03*
X119300000Y-76200000D03*
X119300000Y-78740000D03*
D10*
X114300000Y-76200000D03*
D11*
X114300000Y-78740000D03*
X111760000Y-76200000D03*
X111760000Y-78740000D03*
X109220000Y-76200000D03*
X109220000Y-78740000D03*
X106680000Y-76200000D03*
X106680000Y-78740000D03*
X104140000Y-76200000D03*
X104140000Y-78740000D03*
X101600000Y-76200000D03*
X101600000Y-78740000D03*
X99060000Y-76200000D03*
X99060000Y-78740000D03*
X96520000Y-76200000D03*
X96520000Y-78740000D03*
X93980000Y-76200000D03*
X93980000Y-78740000D03*
X91440000Y-76200000D03*
X91440000Y-78740000D03*
X88900000Y-76200000D03*
X88900000Y-78740000D03*
X86360000Y-76200000D03*
X86360000Y-78740000D03*
X83820000Y-76200000D03*
X83820000Y-78740000D03*
X81280000Y-76200000D03*
X81280000Y-78740000D03*
X78740000Y-76200000D03*
X78740000Y-78740000D03*
M02*
