M48
; DRILL file {KiCad 8.0.4} date 2024-11-25T17:42:05+0900
; FORMAT={-:-/ absolute / metric / decimal}
; #@! TF.CreationDate,2024-11-25T17:42:05+09:00
; #@! TF.GenerationSoftware,Kicad,Pcbnew,8.0.4
; #@! TF.FileFunction,Plated,1,2,PTH
FMAT,2
METRIC
; #@! TA.AperFunction,Plated,PTH,ViaDrill
T1C0.400
; #@! TA.AperFunction,Plated,PTH,ComponentDrill
T2C0.800
; #@! TA.AperFunction,Plated,PTH,ComponentDrill
T3C1.000
%
G90
G05
T1
X122.702Y-118.896
T2
X96.52Y-86.426
X96.52Y-90.476
X96.52Y-94.526
X96.52Y-98.576
X96.52Y-102.626
X96.52Y-106.676
X96.52Y-110.726
X96.52Y-114.776
X106.68Y-86.426
X106.68Y-90.476
X106.68Y-94.526
X106.68Y-98.576
X106.68Y-102.626
X106.68Y-106.676
X106.68Y-110.726
X106.68Y-114.776
X132.08Y-85.946
X132.08Y-89.996
X132.08Y-94.046
X132.08Y-98.096
X132.08Y-102.146
X132.08Y-106.196
X132.08Y-110.246
X132.08Y-114.296
X142.24Y-85.946
X142.24Y-89.996
X142.24Y-94.046
X142.24Y-98.096
X142.24Y-102.146
X142.24Y-106.196
X142.24Y-110.246
X142.24Y-114.296
T3
X78.74Y-76.2
X78.74Y-78.74
X78.74Y-87.386
X78.74Y-89.926
X78.74Y-92.466
X78.74Y-95.006
X78.74Y-97.546
X78.74Y-100.086
X78.74Y-102.626
X78.74Y-105.166
X78.74Y-107.706
X78.74Y-110.246
X78.74Y-112.786
X78.74Y-121.92
X78.74Y-124.46
X78.74Y-129.54
X78.74Y-134.19
X81.28Y-76.2
X81.28Y-78.74
X81.28Y-121.92
X81.28Y-124.46
X81.28Y-129.54
X81.28Y-134.19
X83.82Y-76.2
X83.82Y-78.74
X83.82Y-121.92
X83.82Y-124.46
X86.36Y-66.04
X86.36Y-70.69
X86.36Y-76.2
X86.36Y-78.74
X86.36Y-121.92
X86.36Y-124.46
X86.36Y-129.54
X86.36Y-134.19
X88.9Y-66.04
X88.9Y-70.69
X88.9Y-76.2
X88.9Y-78.74
X88.9Y-121.92
X88.9Y-124.46
X88.9Y-129.54
X88.9Y-134.19
X91.44Y-66.04
X91.44Y-70.69
X91.44Y-76.2
X91.44Y-78.74
X91.44Y-87.386
X91.44Y-89.926
X91.44Y-92.466
X91.44Y-95.006
X91.44Y-105.166
X91.44Y-107.706
X91.44Y-110.246
X91.44Y-112.786
X91.44Y-121.92
X91.44Y-124.46
X93.98Y-66.04
X93.98Y-70.69
X93.98Y-76.2
X93.98Y-78.74
X93.98Y-121.92
X93.98Y-124.46
X93.98Y-129.54
X93.98Y-134.19
X96.52Y-76.2
X96.52Y-78.74
X96.52Y-121.92
X96.52Y-124.46
X96.52Y-129.54
X96.52Y-134.19
X99.06Y-66.04
X99.06Y-70.69
X99.06Y-76.2
X99.06Y-78.74
X99.06Y-121.92
X99.06Y-124.46
X101.6Y-66.04
X101.6Y-70.69
X101.6Y-76.2
X101.6Y-78.74
X101.6Y-121.92
X101.6Y-124.46
X101.6Y-129.54
X101.6Y-134.62
X104.14Y-66.04
X104.14Y-70.69
X104.14Y-76.2
X104.14Y-78.74
X104.14Y-121.92
X104.14Y-124.46
X104.14Y-129.54
X104.14Y-134.62
X106.68Y-66.04
X106.68Y-70.69
X106.68Y-76.2
X106.68Y-78.74
X106.68Y-121.92
X106.68Y-124.46
X106.68Y-129.54
X106.68Y-134.62
X109.22Y-76.2
X109.22Y-78.74
X109.22Y-121.92
X109.22Y-124.46
X109.22Y-129.54
X109.22Y-134.62
X111.76Y-76.2
X111.76Y-78.74
X111.76Y-121.92
X111.76Y-124.46
X114.3Y-76.2
X114.3Y-78.74
X114.3Y-87.386
X114.3Y-89.926
X114.3Y-92.466
X114.3Y-95.006
X114.3Y-97.546
X114.3Y-100.086
X114.3Y-102.626
X114.3Y-105.166
X114.3Y-107.706
X114.3Y-110.246
X114.3Y-112.786
X114.3Y-121.92
X114.3Y-124.46
X114.3Y-129.54
X114.3Y-134.14
X116.84Y-121.92
X116.84Y-124.46
X116.84Y-129.54
X116.84Y-134.14
X119.3Y-76.2
X119.3Y-78.74
X119.38Y-121.92
X119.38Y-124.46
X121.84Y-76.2
X121.84Y-78.74
X121.92Y-66.04
X121.92Y-70.69
X121.92Y-129.54
X121.92Y-134.19
X123.38Y-121.92
X123.38Y-124.46
X124.38Y-76.2
X124.38Y-78.74
X124.46Y-66.04
X124.46Y-70.69
X124.46Y-129.54
X124.46Y-134.19
X125.92Y-121.92
X125.92Y-124.46
X126.92Y-76.2
X126.92Y-78.74
X127.0Y-66.04
X127.0Y-70.69
X127.0Y-87.386
X127.0Y-89.926
X127.0Y-92.466
X127.0Y-95.006
X127.0Y-105.166
X127.0Y-107.706
X127.0Y-110.246
X127.0Y-112.786
X127.0Y-129.54
X127.0Y-134.19
X128.46Y-121.92
X128.46Y-124.46
X129.46Y-76.2
X129.46Y-78.74
X129.54Y-66.04
X129.54Y-70.69
X131.0Y-121.92
X131.0Y-124.46
X132.0Y-76.2
X132.0Y-78.74
X132.08Y-129.54
X132.08Y-134.19
X133.54Y-121.92
X133.54Y-124.46
X134.54Y-76.2
X134.54Y-78.74
X134.62Y-66.04
X134.62Y-70.69
X134.62Y-129.54
X134.62Y-134.19
X136.08Y-121.92
X136.08Y-124.46
X137.08Y-76.2
X137.08Y-78.74
X137.16Y-66.04
X137.16Y-70.69
X137.16Y-129.54
X137.16Y-134.19
X138.62Y-121.92
X138.62Y-124.46
X139.7Y-66.04
X139.7Y-70.69
X141.16Y-121.92
X141.16Y-124.46
X142.24Y-66.04
X142.24Y-70.69
X143.7Y-121.92
X143.7Y-124.46
X144.78Y-132.08
X144.78Y-134.62
X146.24Y-121.92
X146.24Y-124.46
X147.32Y-132.08
X147.32Y-134.62
X149.86Y-87.386
X149.86Y-89.926
X149.86Y-92.466
X149.86Y-95.006
X149.86Y-97.546
X149.86Y-100.086
X149.86Y-102.626
X149.86Y-105.166
X149.86Y-107.706
X149.86Y-110.246
X149.86Y-112.786
X149.86Y-132.08
X149.86Y-134.62
X152.4Y-132.08
X152.4Y-134.62
X154.94Y-132.08
X154.94Y-134.62
X157.48Y-132.08
X157.48Y-134.62
X162.56Y-66.04
X162.56Y-68.58
X162.56Y-71.12
X162.56Y-73.66
X162.56Y-87.386
X162.56Y-89.926
X162.56Y-92.466
X162.56Y-95.006
X162.56Y-105.166
X162.56Y-107.706
X162.56Y-110.246
X162.56Y-112.786
X162.56Y-121.92
X162.56Y-124.46
X162.56Y-127.0
X162.56Y-129.54
X162.56Y-132.08
X162.56Y-134.62
X165.1Y-66.04
X165.1Y-68.58
X165.1Y-71.12
X165.1Y-73.66
X165.1Y-121.92
X165.1Y-124.46
X165.1Y-127.0
X165.1Y-129.54
X165.1Y-132.08
X165.1Y-134.62
M30
