G04 #@! TF.GenerationSoftware,KiCad,Pcbnew,8.0.4*
G04 #@! TF.CreationDate,2024-11-25T17:41:29+09:00*
G04 #@! TF.ProjectId,F767ZI_MB_V1.0,46373637-5a49-45f4-9d42-5f56312e302e,rev?*
G04 #@! TF.SameCoordinates,Original*
G04 #@! TF.FileFunction,Copper,L2,Bot*
G04 #@! TF.FilePolarity,Positive*
%FSLAX46Y46*%
G04 Gerber Fmt 4.6, Leading zero omitted, Abs format (unit mm)*
G04 Created by KiCad (PCBNEW 8.0.4) date 2024-11-25 17:41:29*
%MOMM*%
%LPD*%
G01*
G04 APERTURE LIST*
G04 #@! TA.AperFunction,ComponentPad*
%ADD10R,1.700000X1.700000*%
G04 #@! TD*
G04 #@! TA.AperFunction,ComponentPad*
%ADD11O,1.700000X1.700000*%
G04 #@! TD*
G04 #@! TA.AperFunction,ComponentPad*
%ADD12C,1.600000*%
G04 #@! TD*
G04 #@! TA.AperFunction,ComponentPad*
%ADD13O,1.600000X1.600000*%
G04 #@! TD*
G04 #@! TA.AperFunction,ViaPad*
%ADD14C,0.800000*%
G04 #@! TD*
G04 #@! TA.AperFunction,Conductor*
%ADD15C,0.250000*%
G04 #@! TD*
G04 APERTURE END LIST*
D10*
X91440000Y-87386000D03*
D11*
X91440000Y-89926000D03*
X91440000Y-92466000D03*
X91440000Y-95006000D03*
D10*
X162560000Y-105166000D03*
D11*
X162560000Y-107706000D03*
X162560000Y-110246000D03*
X162560000Y-112786000D03*
D10*
X93980000Y-129540000D03*
D11*
X96520000Y-129540000D03*
D10*
X121920000Y-70690000D03*
D11*
X124460000Y-70690000D03*
X127000000Y-70690000D03*
X129540000Y-70690000D03*
D10*
X144780000Y-132080000D03*
D11*
X144780000Y-134620000D03*
X147320000Y-132080000D03*
X147320000Y-134620000D03*
X149860000Y-132080000D03*
X149860000Y-134620000D03*
X152400000Y-132080000D03*
X152400000Y-134620000D03*
X154940000Y-132080000D03*
X154940000Y-134620000D03*
X157480000Y-132080000D03*
X157480000Y-134620000D03*
D12*
X96520000Y-86426000D03*
D13*
X106680000Y-86426000D03*
D10*
X121920000Y-134190000D03*
D11*
X124460000Y-134190000D03*
X127000000Y-134190000D03*
D12*
X96520000Y-102626000D03*
D13*
X106680000Y-102626000D03*
D10*
X134620000Y-66040000D03*
D11*
X137160000Y-66040000D03*
X139700000Y-66040000D03*
X142240000Y-66040000D03*
D10*
X149860000Y-87386000D03*
D11*
X149860000Y-89926000D03*
X149860000Y-92466000D03*
X149860000Y-95006000D03*
X149860000Y-97546000D03*
X149860000Y-100086000D03*
X149860000Y-102626000D03*
X149860000Y-105166000D03*
X149860000Y-107706000D03*
X149860000Y-110246000D03*
X149860000Y-112786000D03*
D10*
X86360000Y-129540000D03*
D11*
X88900000Y-129540000D03*
D10*
X121920000Y-129540000D03*
D11*
X124460000Y-129540000D03*
X127000000Y-129540000D03*
D12*
X132080000Y-106196000D03*
D13*
X142240000Y-106196000D03*
D12*
X132080000Y-98096000D03*
D13*
X142240000Y-98096000D03*
D10*
X114300000Y-134140000D03*
D11*
X116840000Y-134140000D03*
D10*
X162560000Y-134620000D03*
D11*
X165100000Y-134620000D03*
X162560000Y-132080000D03*
X165100000Y-132080000D03*
X162560000Y-129540000D03*
X165100000Y-129540000D03*
X162560000Y-127000000D03*
X165100000Y-127000000D03*
X162560000Y-124460000D03*
X165100000Y-124460000D03*
X162560000Y-121920000D03*
X165100000Y-121920000D03*
D10*
X165100000Y-66040000D03*
D11*
X162560000Y-66040000D03*
X165100000Y-68580000D03*
X162560000Y-68580000D03*
X165100000Y-71120000D03*
X162560000Y-71120000D03*
X165100000Y-73660000D03*
X162560000Y-73660000D03*
D12*
X132080000Y-102146000D03*
D13*
X142240000Y-102146000D03*
D12*
X96520000Y-106676000D03*
D13*
X106680000Y-106676000D03*
D12*
X132080000Y-110246000D03*
D13*
X142240000Y-110246000D03*
D10*
X101600000Y-134620000D03*
D11*
X104140000Y-134620000D03*
X106680000Y-134620000D03*
X109220000Y-134620000D03*
D10*
X101600000Y-129540000D03*
D11*
X104140000Y-129540000D03*
X106680000Y-129540000D03*
X109220000Y-129540000D03*
D10*
X114300000Y-87386000D03*
D11*
X114300000Y-89926000D03*
X114300000Y-92466000D03*
X114300000Y-95006000D03*
X114300000Y-97546000D03*
X114300000Y-100086000D03*
X114300000Y-102626000D03*
X114300000Y-105166000D03*
X114300000Y-107706000D03*
X114300000Y-110246000D03*
X114300000Y-112786000D03*
D10*
X86360000Y-66040000D03*
D11*
X88900000Y-66040000D03*
X91440000Y-66040000D03*
X93980000Y-66040000D03*
D12*
X132080000Y-85946000D03*
D13*
X142240000Y-85946000D03*
D12*
X96520000Y-114776000D03*
D13*
X106680000Y-114776000D03*
D10*
X121920000Y-66040000D03*
D11*
X124460000Y-66040000D03*
X127000000Y-66040000D03*
X129540000Y-66040000D03*
D12*
X96520000Y-98576000D03*
D13*
X106680000Y-98576000D03*
D10*
X99060000Y-70690000D03*
D11*
X101600000Y-70690000D03*
X104140000Y-70690000D03*
X106680000Y-70690000D03*
D10*
X127000000Y-105166000D03*
D11*
X127000000Y-107706000D03*
X127000000Y-110246000D03*
X127000000Y-112786000D03*
D10*
X162560000Y-87386000D03*
D11*
X162560000Y-89926000D03*
X162560000Y-92466000D03*
X162560000Y-95006000D03*
D10*
X134620000Y-70690000D03*
D11*
X137160000Y-70690000D03*
X139700000Y-70690000D03*
X142240000Y-70690000D03*
D10*
X91440000Y-105166000D03*
D11*
X91440000Y-107706000D03*
X91440000Y-110246000D03*
X91440000Y-112786000D03*
D12*
X132080000Y-114296000D03*
D13*
X142240000Y-114296000D03*
D12*
X132080000Y-89996000D03*
D13*
X142240000Y-89996000D03*
D12*
X96520000Y-94526000D03*
D13*
X106680000Y-94526000D03*
D10*
X93980000Y-134190000D03*
D11*
X96520000Y-134190000D03*
D10*
X86360000Y-70690000D03*
D11*
X88900000Y-70690000D03*
X91440000Y-70690000D03*
X93980000Y-70690000D03*
D10*
X132080000Y-129540000D03*
D11*
X134620000Y-129540000D03*
X137160000Y-129540000D03*
D10*
X132080000Y-134190000D03*
D11*
X134620000Y-134190000D03*
X137160000Y-134190000D03*
D10*
X78740000Y-134190000D03*
D11*
X81280000Y-134190000D03*
D10*
X86360000Y-134190000D03*
D11*
X88900000Y-134190000D03*
D12*
X96520000Y-90476000D03*
D13*
X106680000Y-90476000D03*
D10*
X78740000Y-87386000D03*
D11*
X78740000Y-89926000D03*
X78740000Y-92466000D03*
X78740000Y-95006000D03*
X78740000Y-97546000D03*
X78740000Y-100086000D03*
X78740000Y-102626000D03*
X78740000Y-105166000D03*
X78740000Y-107706000D03*
X78740000Y-110246000D03*
X78740000Y-112786000D03*
D10*
X78740000Y-129540000D03*
D11*
X81280000Y-129540000D03*
D10*
X114300000Y-129540000D03*
D11*
X116840000Y-129540000D03*
D10*
X99060000Y-66040000D03*
D11*
X101600000Y-66040000D03*
X104140000Y-66040000D03*
X106680000Y-66040000D03*
D12*
X96520000Y-110726000D03*
D13*
X106680000Y-110726000D03*
D10*
X127000000Y-87386000D03*
D11*
X127000000Y-89926000D03*
X127000000Y-92466000D03*
X127000000Y-95006000D03*
D12*
X132080000Y-94046000D03*
D13*
X142240000Y-94046000D03*
D10*
X146240000Y-121920000D03*
D11*
X146240000Y-124460000D03*
X143700000Y-121920000D03*
X143700000Y-124460000D03*
X141160000Y-121920000D03*
X141160000Y-124460000D03*
X138620000Y-121920000D03*
X138620000Y-124460000D03*
X136080000Y-121920000D03*
X136080000Y-124460000D03*
X133540000Y-121920000D03*
X133540000Y-124460000D03*
X131000000Y-121920000D03*
X131000000Y-124460000D03*
X128460000Y-121920000D03*
X128460000Y-124460000D03*
X125920000Y-121920000D03*
X125920000Y-124460000D03*
X123380000Y-121920000D03*
X123380000Y-124460000D03*
D10*
X119380000Y-121920000D03*
D11*
X119380000Y-124460000D03*
X116840000Y-121920000D03*
X116840000Y-124460000D03*
X114300000Y-121920000D03*
X114300000Y-124460000D03*
X111760000Y-121920000D03*
X111760000Y-124460000D03*
X109220000Y-121920000D03*
X109220000Y-124460000D03*
X106680000Y-121920000D03*
X106680000Y-124460000D03*
X104140000Y-121920000D03*
X104140000Y-124460000D03*
X101600000Y-121920000D03*
X101600000Y-124460000D03*
X99060000Y-121920000D03*
X99060000Y-124460000D03*
X96520000Y-121920000D03*
X96520000Y-124460000D03*
X93980000Y-121920000D03*
X93980000Y-124460000D03*
X91440000Y-121920000D03*
X91440000Y-124460000D03*
X88900000Y-121920000D03*
X88900000Y-124460000D03*
X86360000Y-121920000D03*
X86360000Y-124460000D03*
X83820000Y-121920000D03*
X83820000Y-124460000D03*
X81280000Y-121920000D03*
X81280000Y-124460000D03*
X78740000Y-121920000D03*
X78740000Y-124460000D03*
D10*
X137080000Y-76200000D03*
D11*
X137080000Y-78740000D03*
X134540000Y-76200000D03*
X134540000Y-78740000D03*
X132000000Y-76200000D03*
X132000000Y-78740000D03*
X129460000Y-76200000D03*
X129460000Y-78740000D03*
X126920000Y-76200000D03*
X126920000Y-78740000D03*
X124380000Y-76200000D03*
X124380000Y-78740000D03*
X121840000Y-76200000D03*
X121840000Y-78740000D03*
X119300000Y-76200000D03*
X119300000Y-78740000D03*
D10*
X114300000Y-76200000D03*
D11*
X114300000Y-78740000D03*
X111760000Y-76200000D03*
X111760000Y-78740000D03*
X109220000Y-76200000D03*
X109220000Y-78740000D03*
X106680000Y-76200000D03*
X106680000Y-78740000D03*
X104140000Y-76200000D03*
X104140000Y-78740000D03*
X101600000Y-76200000D03*
X101600000Y-78740000D03*
X99060000Y-76200000D03*
X99060000Y-78740000D03*
X96520000Y-76200000D03*
X96520000Y-78740000D03*
X93980000Y-76200000D03*
X93980000Y-78740000D03*
X91440000Y-76200000D03*
X91440000Y-78740000D03*
X88900000Y-76200000D03*
X88900000Y-78740000D03*
X86360000Y-76200000D03*
X86360000Y-78740000D03*
X83820000Y-76200000D03*
X83820000Y-78740000D03*
X81280000Y-76200000D03*
X81280000Y-78740000D03*
X78740000Y-76200000D03*
X78740000Y-78740000D03*
D14*
X122701700Y-118896100D03*
D15*
X109220000Y-106898100D02*
X109220000Y-78740000D01*
X113932800Y-111610900D02*
X109220000Y-106898100D01*
X114300000Y-111610900D02*
X113932800Y-111610900D01*
X114300000Y-112786000D02*
X114300000Y-111610900D01*
X114300000Y-102626000D02*
X115475100Y-102626000D01*
X127000000Y-87386000D02*
X127000000Y-88561100D01*
X111760000Y-91629600D02*
X111760000Y-78740000D01*
X113866400Y-93736000D02*
X111760000Y-91629600D01*
X114771300Y-93736000D02*
X113866400Y-93736000D01*
X119568200Y-98532900D02*
X114771300Y-93736000D01*
X115475100Y-102626000D02*
X119568200Y-98532900D01*
X127367300Y-88561100D02*
X127000000Y-88561100D01*
X128175100Y-89368900D02*
X127367300Y-88561100D01*
X128175100Y-92956500D02*
X128175100Y-89368900D01*
X127395600Y-93736000D02*
X128175100Y-92956500D01*
X124365100Y-93736000D02*
X127395600Y-93736000D01*
X119568200Y-98532900D02*
X124365100Y-93736000D01*
X143700000Y-124460000D02*
X142524900Y-124460000D01*
X116840000Y-134140000D02*
X116840000Y-129540000D01*
X142524900Y-124825200D02*
X142524900Y-124460000D01*
X138985200Y-128364900D02*
X142524900Y-124825200D01*
X119190200Y-128364900D02*
X138985200Y-128364900D01*
X118015100Y-129540000D02*
X119190200Y-128364900D01*
X116840000Y-129540000D02*
X118015100Y-129540000D01*
X114300000Y-107706000D02*
X127000000Y-107706000D01*
X145064900Y-124094800D02*
X145064900Y-124460000D01*
X144254900Y-123284800D02*
X145064900Y-124094800D01*
X122893100Y-123284800D02*
X144254900Y-123284800D01*
X117813000Y-128364900D02*
X122893100Y-123284800D01*
X116282900Y-128364900D02*
X117813000Y-128364900D01*
X115475100Y-129172700D02*
X116282900Y-128364900D01*
X115475100Y-129540000D02*
X115475100Y-129172700D01*
X114300000Y-129540000D02*
X115475100Y-129540000D01*
X146240000Y-124460000D02*
X145064900Y-124460000D01*
X150225200Y-101450900D02*
X149860000Y-101450900D01*
X161384900Y-90291200D02*
X150225200Y-101450900D01*
X161384900Y-89368900D02*
X161384900Y-90291200D01*
X162192700Y-88561100D02*
X161384900Y-89368900D01*
X162560000Y-88561100D02*
X162192700Y-88561100D01*
X162560000Y-87386000D02*
X162560000Y-88561100D01*
X149860000Y-102626000D02*
X149860000Y-101450900D01*
X91072700Y-88561100D02*
X91440000Y-88561100D01*
X90264900Y-89368900D02*
X91072700Y-88561100D01*
X90264900Y-90293300D02*
X90264900Y-89368900D01*
X79107300Y-101450900D02*
X90264900Y-90293300D01*
X78740000Y-101450900D02*
X79107300Y-101450900D01*
X78740000Y-102626000D02*
X78740000Y-101450900D01*
X91440000Y-87386000D02*
X91440000Y-88561100D01*
X137080000Y-82539300D02*
X137080000Y-78740000D01*
X148684900Y-94144200D02*
X137080000Y-82539300D01*
X148684900Y-105723100D02*
X148684900Y-94144200D01*
X149492700Y-106530900D02*
X148684900Y-105723100D01*
X149860000Y-106530900D02*
X149492700Y-106530900D01*
X149860000Y-107706000D02*
X149860000Y-107118400D01*
X149860000Y-107118400D02*
X149860000Y-106530900D01*
X160797300Y-107118400D02*
X161384900Y-107706000D01*
X149860000Y-107118400D02*
X160797300Y-107118400D01*
X162560000Y-107706000D02*
X161384900Y-107706000D01*
X78740000Y-107706000D02*
X78740000Y-108881100D01*
X84377000Y-113593900D02*
X83820000Y-113593900D01*
X90264900Y-107706000D02*
X84377000Y-113593900D01*
X79107200Y-108881100D02*
X83820000Y-113593900D01*
X78740000Y-108881100D02*
X79107200Y-108881100D01*
X83820000Y-113593900D02*
X83820000Y-121920000D01*
X91440000Y-107706000D02*
X90264900Y-107706000D01*
X101600000Y-124460000D02*
X102775100Y-124460000D01*
X99928800Y-126131200D02*
X101600000Y-124460000D01*
X98220400Y-126131200D02*
X99928800Y-126131200D01*
X95624300Y-128727300D02*
X98220400Y-126131200D01*
X95624300Y-132119200D02*
X95624300Y-128727300D01*
X96520000Y-133014900D02*
X95624300Y-132119200D01*
X96520000Y-134190000D02*
X96520000Y-133014900D01*
X102775100Y-124825300D02*
X102775100Y-124460000D01*
X104109000Y-126159200D02*
X102775100Y-124825300D01*
X116862700Y-126159200D02*
X104109000Y-126159200D01*
X119831900Y-123190000D02*
X116862700Y-126159200D01*
X120324300Y-123190000D02*
X119831900Y-123190000D01*
X120642700Y-122871600D02*
X120324300Y-123190000D01*
X120642700Y-121683300D02*
X120642700Y-122871600D01*
X132080000Y-110246000D02*
X120642700Y-121683300D01*
X107855100Y-124094700D02*
X107855100Y-124460000D01*
X108759800Y-123190000D02*
X107855100Y-124094700D01*
X109650900Y-123190000D02*
X108759800Y-123190000D01*
X110395200Y-122445700D02*
X109650900Y-123190000D01*
X110395200Y-121622400D02*
X110395200Y-122445700D01*
X123107600Y-108910000D02*
X110395200Y-121622400D01*
X126952600Y-108910000D02*
X123107600Y-108910000D01*
X132080000Y-103782600D02*
X126952600Y-108910000D01*
X132080000Y-102146000D02*
X132080000Y-103782600D01*
X106680000Y-124460000D02*
X107855100Y-124460000D01*
X105315100Y-124825300D02*
X105315100Y-124460000D01*
X106164900Y-125675100D02*
X105315100Y-124825300D01*
X112303600Y-125675100D02*
X106164900Y-125675100D01*
X113030000Y-124948700D02*
X112303600Y-125675100D01*
X113030000Y-124065900D02*
X113030000Y-124948700D01*
X114000700Y-123095200D02*
X113030000Y-124065900D01*
X114792900Y-123095200D02*
X114000700Y-123095200D01*
X115570000Y-122318100D02*
X114792900Y-123095200D01*
X115570000Y-121525800D02*
X115570000Y-122318100D01*
X125579800Y-111516000D02*
X115570000Y-121525800D01*
X127412600Y-111516000D02*
X125579800Y-111516000D01*
X132080000Y-106848600D02*
X127412600Y-111516000D01*
X132080000Y-106196000D02*
X132080000Y-106848600D01*
X104140000Y-124460000D02*
X105315100Y-124460000D01*
X100363800Y-126871300D02*
X97695100Y-129540000D01*
X118669900Y-126871300D02*
X100363800Y-126871300D01*
X122190700Y-123350500D02*
X118669900Y-126871300D01*
X122190700Y-121422300D02*
X122190700Y-123350500D01*
X129317000Y-114296000D02*
X122190700Y-121422300D01*
X132080000Y-114296000D02*
X129317000Y-114296000D01*
X96520000Y-129540000D02*
X97695100Y-129540000D01*
X139700000Y-66040000D02*
X139112500Y-66040000D01*
X139700000Y-66627500D02*
X139700000Y-70690000D01*
X139112500Y-66040000D02*
X139700000Y-66627500D01*
X81280000Y-124460000D02*
X81280000Y-123284900D01*
X137017800Y-63945300D02*
X139112500Y-66040000D01*
X86245200Y-63945300D02*
X137017800Y-63945300D01*
X76631300Y-73559200D02*
X86245200Y-63945300D01*
X76631300Y-114445300D02*
X76631300Y-73559200D01*
X80104900Y-117918900D02*
X76631300Y-114445300D01*
X80104900Y-122477100D02*
X80104900Y-117918900D01*
X80912700Y-123284900D02*
X80104900Y-122477100D01*
X81280000Y-123284900D02*
X80912700Y-123284900D01*
X142240000Y-70690000D02*
X142240000Y-66040000D01*
X142240000Y-98096000D02*
X142240000Y-99221100D01*
X129949400Y-111648400D02*
X122701700Y-118896100D01*
X129949400Y-110692800D02*
X129949400Y-111648400D01*
X141421100Y-99221100D02*
X129949400Y-110692800D01*
X142240000Y-99221100D02*
X141421100Y-99221100D01*
X121920000Y-70690000D02*
X121920000Y-71865100D01*
X99060000Y-124460000D02*
X100235100Y-124460000D01*
X129135300Y-85946000D02*
X132080000Y-85946000D01*
X123095100Y-79905800D02*
X129135300Y-85946000D01*
X123095100Y-73040200D02*
X123095100Y-79905800D01*
X121920000Y-71865100D02*
X123095100Y-73040200D01*
X100235100Y-124094700D02*
X100235100Y-124460000D01*
X101139800Y-123190000D02*
X100235100Y-124094700D01*
X102021300Y-123190000D02*
X101139800Y-123190000D01*
X102775200Y-122436100D02*
X102021300Y-123190000D01*
X102775200Y-122328300D02*
X102775200Y-122436100D01*
X105826800Y-119276700D02*
X102775200Y-122328300D01*
X109525400Y-119276700D02*
X105826800Y-119276700D01*
X115501300Y-113300800D02*
X109525400Y-119276700D01*
X115501300Y-109714200D02*
X115501300Y-113300800D01*
X114763100Y-108976000D02*
X115501300Y-109714200D01*
X113847400Y-108976000D02*
X114763100Y-108976000D01*
X113117300Y-108245900D02*
X113847400Y-108976000D01*
X113117300Y-107173300D02*
X113117300Y-108245900D01*
X113780900Y-106509700D02*
X113117300Y-107173300D01*
X117161400Y-106509700D02*
X113780900Y-106509700D01*
X129135300Y-94535800D02*
X117161400Y-106509700D01*
X129135300Y-85946000D02*
X129135300Y-94535800D01*
X133221000Y-79851900D02*
X142240000Y-88870900D01*
X133221000Y-78375200D02*
X133221000Y-79851900D01*
X132382700Y-77536900D02*
X133221000Y-78375200D01*
X131672800Y-77536900D02*
X132382700Y-77536900D01*
X130729800Y-76593900D02*
X131672800Y-77536900D01*
X130729800Y-75594900D02*
X130729800Y-76593900D01*
X127000000Y-71865100D02*
X130729800Y-75594900D01*
X127000000Y-70690000D02*
X127000000Y-71865100D01*
X142240000Y-89996000D02*
X142240000Y-88870900D01*
X102933200Y-109904100D02*
X106680000Y-113650900D01*
X102933200Y-68421900D02*
X102933200Y-109904100D01*
X104140000Y-67215100D02*
X102933200Y-68421900D01*
X104140000Y-66040000D02*
X104140000Y-67215100D01*
X106680000Y-114776000D02*
X106680000Y-113650900D01*
X99060000Y-66040000D02*
X99060000Y-67215100D01*
X94913700Y-109119700D02*
X96520000Y-110726000D01*
X94913700Y-97877300D02*
X94913700Y-109119700D01*
X98132100Y-94658900D02*
X94913700Y-97877300D01*
X98132100Y-79937200D02*
X98132100Y-94658900D01*
X97884800Y-79689900D02*
X98132100Y-79937200D01*
X97884800Y-68390300D02*
X97884800Y-79689900D01*
X99060000Y-67215100D02*
X97884800Y-68390300D01*
X100235100Y-73040200D02*
X99060000Y-71865100D01*
X100235100Y-93269800D02*
X100235100Y-73040200D01*
X95363800Y-98141100D02*
X100235100Y-93269800D01*
X95363800Y-101469800D02*
X95363800Y-98141100D01*
X96520000Y-102626000D02*
X95363800Y-101469800D01*
X99060000Y-70690000D02*
X99060000Y-71865100D01*
X104140000Y-70690000D02*
X104140000Y-76200000D01*
X104140000Y-76200000D02*
X104140000Y-77375100D01*
X106680000Y-106676000D02*
X106680000Y-105550900D01*
X105075300Y-103946200D02*
X106680000Y-105550900D01*
X105075300Y-79937600D02*
X105075300Y-103946200D01*
X105331900Y-79681000D02*
X105075300Y-79937600D01*
X105331900Y-78291600D02*
X105331900Y-79681000D01*
X104415400Y-77375100D02*
X105331900Y-78291600D01*
X104140000Y-77375100D02*
X104415400Y-77375100D01*
X106680000Y-98576000D02*
X106680000Y-97450900D01*
X108044900Y-96086000D02*
X106680000Y-97450900D01*
X108044900Y-78182900D02*
X108044900Y-96086000D01*
X108852700Y-77375100D02*
X108044900Y-78182900D01*
X109220000Y-77375100D02*
X108852700Y-77375100D01*
X109220000Y-76200000D02*
X109220000Y-77375100D01*
X109220000Y-67179300D02*
X109220000Y-76200000D01*
X106436200Y-64395500D02*
X109220000Y-67179300D01*
X93892400Y-64395500D02*
X106436200Y-64395500D01*
X92615100Y-65672800D02*
X93892400Y-64395500D01*
X92615100Y-66040000D02*
X92615100Y-65672800D01*
X91440000Y-66040000D02*
X92615100Y-66040000D01*
X94345200Y-77375100D02*
X93980000Y-77375100D01*
X95250000Y-78279900D02*
X94345200Y-77375100D01*
X95250000Y-81603500D02*
X95250000Y-78279900D01*
X97659900Y-84013400D02*
X95250000Y-81603500D01*
X97659900Y-93386100D02*
X97659900Y-84013400D01*
X96520000Y-94526000D02*
X97659900Y-93386100D01*
X93980000Y-76200000D02*
X93980000Y-77375100D01*
X92804900Y-75834800D02*
X92804900Y-76200000D01*
X91779900Y-74809800D02*
X92804900Y-75834800D01*
X91326800Y-74809800D02*
X91779900Y-74809800D01*
X87535100Y-71018100D02*
X91326800Y-74809800D01*
X87535100Y-68390200D02*
X87535100Y-71018100D01*
X86360000Y-67215100D02*
X87535100Y-68390200D01*
X86360000Y-66040000D02*
X86360000Y-67215100D01*
X93980000Y-76200000D02*
X92804900Y-76200000D01*
X90170000Y-80076000D02*
X96520000Y-86426000D01*
X90170000Y-75675100D02*
X90170000Y-80076000D01*
X86360000Y-71865100D02*
X90170000Y-75675100D01*
X86360000Y-70690000D02*
X86360000Y-71865100D01*
X109220000Y-134620000D02*
X109220000Y-129540000D01*
X109220000Y-129540000D02*
X108044900Y-129540000D01*
X83820000Y-76200000D02*
X84995100Y-76200000D01*
X84995100Y-75834700D02*
X84995100Y-76200000D01*
X85827100Y-75002700D02*
X84995100Y-75834700D01*
X86879900Y-75002700D02*
X85827100Y-75002700D01*
X87630000Y-75752800D02*
X86879900Y-75002700D01*
X87630000Y-79272800D02*
X87630000Y-75752800D01*
X93065600Y-84708400D02*
X87630000Y-79272800D01*
X93065600Y-110292200D02*
X93065600Y-84708400D01*
X90239200Y-113118600D02*
X93065600Y-110292200D01*
X90239200Y-132646700D02*
X90239200Y-113118600D01*
X92957700Y-135365200D02*
X90239200Y-132646700D01*
X97042500Y-135365200D02*
X92957700Y-135365200D01*
X99046900Y-133360800D02*
X97042500Y-135365200D01*
X99046900Y-131818500D02*
X99046900Y-133360800D01*
X103018500Y-127846900D02*
X99046900Y-131818500D01*
X106719000Y-127846900D02*
X103018500Y-127846900D01*
X108044900Y-129172800D02*
X106719000Y-127846900D01*
X108044900Y-129540000D02*
X108044900Y-129172800D01*
X106680000Y-134620000D02*
X106680000Y-129540000D01*
X80914700Y-77375100D02*
X81280000Y-77375100D01*
X80010000Y-78279800D02*
X80914700Y-77375100D01*
X80010000Y-79370000D02*
X80010000Y-78279800D01*
X77081500Y-82298500D02*
X80010000Y-79370000D01*
X77081500Y-112789300D02*
X77081500Y-82298500D01*
X82550000Y-118257800D02*
X77081500Y-112789300D01*
X82550000Y-122350900D02*
X82550000Y-118257800D01*
X83294300Y-123095200D02*
X82550000Y-122350900D01*
X84156100Y-123095200D02*
X83294300Y-123095200D01*
X84995200Y-123934300D02*
X84156100Y-123095200D01*
X84995200Y-125933900D02*
X84995200Y-123934300D01*
X87535100Y-128473800D02*
X84995200Y-125933900D01*
X87535100Y-130579200D02*
X87535100Y-128473800D01*
X92775000Y-135819100D02*
X87535100Y-130579200D01*
X97559700Y-135819100D02*
X92775000Y-135819100D01*
X102775200Y-130603600D02*
X97559700Y-135819100D01*
X102775200Y-129217600D02*
X102775200Y-130603600D01*
X103628000Y-128364800D02*
X102775200Y-129217600D01*
X104696900Y-128364800D02*
X103628000Y-128364800D01*
X105504900Y-129172800D02*
X104696900Y-128364800D01*
X105504900Y-129540000D02*
X105504900Y-129172800D01*
X106680000Y-129540000D02*
X105504900Y-129540000D01*
X81280000Y-76200000D02*
X81280000Y-77375100D01*
X162560000Y-134620000D02*
X162560000Y-132080000D01*
X162560000Y-132080000D02*
X162560000Y-129540000D01*
X162560000Y-129540000D02*
X162560000Y-127000000D01*
X162560000Y-127000000D02*
X162560000Y-124460000D01*
X162560000Y-124460000D02*
X162560000Y-121920000D01*
X101600000Y-66040000D02*
X101600000Y-70690000D01*
X124460000Y-70690000D02*
X124460000Y-66040000D01*
X134620000Y-66040000D02*
X134620000Y-70690000D01*
X88900000Y-66040000D02*
X88900000Y-70690000D01*
X91440000Y-112786000D02*
X92615100Y-112786000D01*
X93980000Y-134190000D02*
X93980000Y-129540000D01*
X86360000Y-129540000D02*
X86360000Y-134190000D01*
X162560000Y-121920000D02*
X162560000Y-112786000D01*
X93980000Y-129540000D02*
X93980000Y-128364900D01*
X95169400Y-127175500D02*
X93980000Y-128364900D01*
X95169400Y-114776000D02*
X95169400Y-127175500D01*
X94605100Y-114776000D02*
X95169400Y-114776000D01*
X92615100Y-112786000D02*
X94605100Y-114776000D01*
X95169400Y-114776000D02*
X96520000Y-114776000D01*
X105525500Y-88705600D02*
X106680000Y-87551100D01*
X105525500Y-92246400D02*
X105525500Y-88705600D01*
X106680000Y-93400900D02*
X105525500Y-92246400D01*
X106680000Y-94526000D02*
X106680000Y-93400900D01*
X106680000Y-86426000D02*
X106680000Y-87551100D01*
X97713100Y-99769100D02*
X96520000Y-98576000D01*
X97713100Y-105482900D02*
X97713100Y-99769100D01*
X96520000Y-106676000D02*
X97713100Y-105482900D01*
X126920000Y-76200000D02*
X126920000Y-77375100D01*
X142240000Y-94046000D02*
X141114900Y-94046000D01*
X132080000Y-89996000D02*
X133205200Y-89996000D01*
X133205200Y-85479800D02*
X133205200Y-89996000D01*
X128190000Y-80464600D02*
X133205200Y-85479800D01*
X128190000Y-78279900D02*
X128190000Y-80464600D01*
X127285200Y-77375100D02*
X128190000Y-78279900D01*
X126920000Y-77375100D02*
X127285200Y-77375100D01*
X133205200Y-94046000D02*
X141114900Y-94046000D01*
X133205200Y-89996000D02*
X133205200Y-94046000D01*
X133205200Y-96970800D02*
X132080000Y-98096000D01*
X133205200Y-94046000D02*
X133205200Y-96970800D01*
X127000000Y-112786000D02*
X128175100Y-112786000D01*
X128175100Y-111720200D02*
X128175100Y-112786000D01*
X133223200Y-106672100D02*
X128175100Y-111720200D01*
X133223200Y-99239200D02*
X133223200Y-106672100D01*
X132080000Y-98096000D02*
X133223200Y-99239200D01*
X129825200Y-77375100D02*
X129460000Y-77375100D01*
X130730000Y-78279900D02*
X129825200Y-77375100D01*
X130730000Y-80370500D02*
X130730000Y-78279900D01*
X147415100Y-97055600D02*
X130730000Y-80370500D01*
X147415100Y-130809800D02*
X147415100Y-97055600D01*
X147320000Y-130904900D02*
X147415100Y-130809800D01*
X129460000Y-76200000D02*
X129460000Y-77375100D01*
X147320000Y-132080000D02*
X147320000Y-131492400D01*
X147320000Y-131492400D02*
X147320000Y-130904900D01*
X101600000Y-134620000D02*
X102775100Y-134620000D01*
X145955100Y-132667500D02*
X146050000Y-132762400D01*
X145955100Y-132080000D02*
X145955100Y-132667500D01*
X147320000Y-131492400D02*
X146050000Y-132762400D01*
X102775100Y-134987300D02*
X102775100Y-134620000D01*
X103582900Y-135795100D02*
X102775100Y-134987300D01*
X145291900Y-135795100D02*
X103582900Y-135795100D01*
X146050000Y-135037000D02*
X145291900Y-135795100D01*
X146050000Y-132762400D02*
X146050000Y-135037000D01*
X144780000Y-132080000D02*
X145955100Y-132080000D01*
X162560000Y-71120000D02*
X162560000Y-68580000D01*
X162560000Y-68580000D02*
X162560000Y-66040000D01*
X162560000Y-71120000D02*
X162560000Y-73660000D01*
X165100000Y-132080000D02*
X165100000Y-129540000D01*
X162560000Y-110246000D02*
X162560000Y-111421100D01*
X165100000Y-124460000D02*
X165100000Y-121920000D01*
X162925200Y-111421100D02*
X162560000Y-111421100D01*
X165100000Y-113595900D02*
X162925200Y-111421100D01*
X165100000Y-121920000D02*
X165100000Y-113595900D01*
X113932700Y-88561100D02*
X114300000Y-88561100D01*
X113124900Y-89368900D02*
X113932700Y-88561100D01*
X113124900Y-90483000D02*
X113124900Y-89368900D01*
X113932800Y-91290900D02*
X113124900Y-90483000D01*
X114300000Y-91290900D02*
X113932800Y-91290900D01*
X114300000Y-92466000D02*
X114300000Y-91290900D01*
X114300000Y-87386000D02*
X114300000Y-87973500D01*
X114300000Y-87973500D02*
X114300000Y-88561100D01*
X121840000Y-76200000D02*
X121840000Y-77375100D01*
X149492700Y-88561100D02*
X149860000Y-88561100D01*
X148684900Y-89368900D02*
X149492700Y-88561100D01*
X148684900Y-90483000D02*
X148684900Y-89368900D01*
X149492800Y-91290900D02*
X148684900Y-90483000D01*
X149860000Y-91290900D02*
X149492800Y-91290900D01*
X149860000Y-92466000D02*
X149860000Y-91290900D01*
X149860000Y-87386000D02*
X149860000Y-88561100D01*
X138765100Y-134620000D02*
X138335100Y-134190000D01*
X144780000Y-134620000D02*
X138765100Y-134620000D01*
X137160000Y-134190000D02*
X138335100Y-134190000D01*
X137160000Y-66040000D02*
X137160000Y-70690000D01*
X116237500Y-86036000D02*
X120570000Y-86036000D01*
X114300000Y-87973500D02*
X116237500Y-86036000D01*
X125824900Y-91290900D02*
X120570000Y-86036000D01*
X125824900Y-92466000D02*
X125824900Y-91290900D01*
X121474700Y-77375100D02*
X121840000Y-77375100D01*
X120570000Y-78279800D02*
X121474700Y-77375100D01*
X120570000Y-86036000D02*
X120570000Y-78279800D01*
X127000000Y-92466000D02*
X125824900Y-92466000D01*
X142240000Y-102146000D02*
X142240000Y-106196000D01*
X142240000Y-106196000D02*
X142240000Y-110246000D01*
X142240000Y-114296000D02*
X142240000Y-110246000D01*
X127000000Y-110246000D02*
X125824900Y-110246000D01*
X81280000Y-134190000D02*
X81280000Y-129540000D01*
X104140000Y-134620000D02*
X104140000Y-129540000D01*
X114300000Y-121920000D02*
X114300000Y-120744900D01*
X162925200Y-109070900D02*
X162560000Y-109070900D01*
X163735200Y-108260900D02*
X162925200Y-109070900D01*
X163735200Y-94449100D02*
X163735200Y-108260900D01*
X162927200Y-93641100D02*
X163735200Y-94449100D01*
X162560000Y-93641100D02*
X162927200Y-93641100D01*
X162560000Y-92466000D02*
X162560000Y-93641100D01*
X162560000Y-110246000D02*
X162560000Y-109070900D01*
X165100000Y-124460000D02*
X165100000Y-127000000D01*
X165100000Y-127000000D02*
X165100000Y-129540000D01*
X127000000Y-134190000D02*
X128175100Y-134190000D01*
X137160000Y-129540000D02*
X137160000Y-133008800D01*
X137160000Y-133008800D02*
X137160000Y-134190000D01*
X127000000Y-129540000D02*
X127000000Y-130715100D01*
X129325000Y-133040100D02*
X127000000Y-130715100D01*
X129356300Y-133008800D02*
X129325000Y-133040100D01*
X137160000Y-133008800D02*
X129356300Y-133008800D01*
X129325000Y-133040100D02*
X128175100Y-134190000D01*
X124380000Y-76200000D02*
X124380000Y-75024900D01*
X129540000Y-70690000D02*
X128364900Y-70690000D01*
X126510000Y-69489400D02*
X127529500Y-69489400D01*
X125730000Y-70269400D02*
X126510000Y-69489400D01*
X125730000Y-73674900D02*
X125730000Y-70269400D01*
X124380000Y-75024900D02*
X125730000Y-73674900D01*
X128364900Y-70324800D02*
X128364900Y-70690000D01*
X127529500Y-69489400D02*
X128364900Y-70324800D01*
X137160000Y-66040000D02*
X135984900Y-66040000D01*
X129540000Y-67478900D02*
X127529500Y-69489400D01*
X129540000Y-66040000D02*
X129540000Y-67478900D01*
X135984900Y-65209000D02*
X135984900Y-66040000D01*
X135640700Y-64864800D02*
X135984900Y-65209000D01*
X131890300Y-64864800D02*
X135640700Y-64864800D01*
X130715100Y-66040000D02*
X131890300Y-64864800D01*
X129540000Y-66040000D02*
X130715100Y-66040000D01*
X86360000Y-76200000D02*
X86360000Y-77375100D01*
X78740000Y-92466000D02*
X78740000Y-91290900D01*
X78372700Y-88561100D02*
X78740000Y-88561100D01*
X77564900Y-89368900D02*
X78372700Y-88561100D01*
X77564900Y-90483000D02*
X77564900Y-89368900D01*
X78372800Y-91290900D02*
X77564900Y-90483000D01*
X78740000Y-91290900D02*
X78372800Y-91290900D01*
X85994700Y-77375100D02*
X86360000Y-77375100D01*
X78740000Y-84629800D02*
X85994700Y-77375100D01*
X78740000Y-87386000D02*
X78740000Y-84629800D01*
X78740000Y-87386000D02*
X78740000Y-88561100D01*
X115326000Y-120744900D02*
X114300000Y-120744900D01*
X125824900Y-110246000D02*
X115326000Y-120744900D01*
X86360000Y-115326000D02*
X91440000Y-110246000D01*
X86360000Y-121920000D02*
X86360000Y-115326000D01*
X91805200Y-93641100D02*
X91440000Y-93641100D01*
X92615400Y-94451300D02*
X91805200Y-93641100D01*
X92615400Y-108262700D02*
X92615400Y-94451300D01*
X91807200Y-109070900D02*
X92615400Y-108262700D01*
X91440000Y-109070900D02*
X91807200Y-109070900D01*
X91440000Y-110246000D02*
X91440000Y-109070900D01*
X91440000Y-92466000D02*
X91440000Y-93641100D01*
X106680000Y-66040000D02*
X105504900Y-66040000D01*
X93980000Y-66040000D02*
X93980000Y-70690000D01*
X105504900Y-65674800D02*
X105504900Y-66040000D01*
X104688000Y-64857900D02*
X105504900Y-65674800D01*
X96337200Y-64857900D02*
X104688000Y-64857900D01*
X95155100Y-66040000D02*
X96337200Y-64857900D01*
X93980000Y-66040000D02*
X95155100Y-66040000D01*
M02*
