G04 #@! TF.GenerationSoftware,KiCad,Pcbnew,8.0.4*
G04 #@! TF.CreationDate,2024-11-25T17:41:29+09:00*
G04 #@! TF.ProjectId,F767ZI_MB_V1.0,46373637-5a49-45f4-9d42-5f56312e302e,rev?*
G04 #@! TF.SameCoordinates,Original*
G04 #@! TF.FileFunction,Legend,Bot*
G04 #@! TF.FilePolarity,Positive*
%FSLAX46Y46*%
G04 Gerber Fmt 4.6, Leading zero omitted, Abs format (unit mm)*
G04 Created by KiCad (PCBNEW 8.0.4) date 2024-11-25 17:41:29*
%MOMM*%
%LPD*%
G01*
G04 APERTURE LIST*
%ADD10C,0.150000*%
%ADD11C,0.200000*%
%ADD12C,0.000000*%
%ADD13C,0.120000*%
%ADD14R,1.700000X1.700000*%
%ADD15O,1.700000X1.700000*%
%ADD16C,1.600000*%
%ADD17O,1.600000X1.600000*%
G04 APERTURE END LIST*
D10*
X135419875Y-93374207D02*
X134943684Y-93040874D01*
X135419875Y-92802779D02*
X134419875Y-92802779D01*
X134419875Y-92802779D02*
X134419875Y-93183731D01*
X134419875Y-93183731D02*
X134467494Y-93278969D01*
X134467494Y-93278969D02*
X134515113Y-93326588D01*
X134515113Y-93326588D02*
X134610351Y-93374207D01*
X134610351Y-93374207D02*
X134753208Y-93374207D01*
X134753208Y-93374207D02*
X134848446Y-93326588D01*
X134848446Y-93326588D02*
X134896065Y-93278969D01*
X134896065Y-93278969D02*
X134943684Y-93183731D01*
X134943684Y-93183731D02*
X134943684Y-92802779D01*
X135419875Y-94326588D02*
X135419875Y-93755160D01*
X135419875Y-94040874D02*
X134419875Y-94040874D01*
X134419875Y-94040874D02*
X134562732Y-93945636D01*
X134562732Y-93945636D02*
X134657970Y-93850398D01*
X134657970Y-93850398D02*
X134705589Y-93755160D01*
X135038922Y-94755160D02*
X135038922Y-95517065D01*
X135419875Y-96564683D02*
X134943684Y-96231350D01*
X135419875Y-95993255D02*
X134419875Y-95993255D01*
X134419875Y-95993255D02*
X134419875Y-96374207D01*
X134419875Y-96374207D02*
X134467494Y-96469445D01*
X134467494Y-96469445D02*
X134515113Y-96517064D01*
X134515113Y-96517064D02*
X134610351Y-96564683D01*
X134610351Y-96564683D02*
X134753208Y-96564683D01*
X134753208Y-96564683D02*
X134848446Y-96517064D01*
X134848446Y-96517064D02*
X134896065Y-96469445D01*
X134896065Y-96469445D02*
X134943684Y-96374207D01*
X134943684Y-96374207D02*
X134943684Y-95993255D01*
X135419875Y-97517064D02*
X135419875Y-96945636D01*
X135419875Y-97231350D02*
X134419875Y-97231350D01*
X134419875Y-97231350D02*
X134562732Y-97136112D01*
X134562732Y-97136112D02*
X134657970Y-97040874D01*
X134657970Y-97040874D02*
X134705589Y-96945636D01*
X134515113Y-97898017D02*
X134467494Y-97945636D01*
X134467494Y-97945636D02*
X134419875Y-98040874D01*
X134419875Y-98040874D02*
X134419875Y-98278969D01*
X134419875Y-98278969D02*
X134467494Y-98374207D01*
X134467494Y-98374207D02*
X134515113Y-98421826D01*
X134515113Y-98421826D02*
X134610351Y-98469445D01*
X134610351Y-98469445D02*
X134705589Y-98469445D01*
X134705589Y-98469445D02*
X134848446Y-98421826D01*
X134848446Y-98421826D02*
X135419875Y-97850398D01*
X135419875Y-97850398D02*
X135419875Y-98469445D01*
X135324636Y-98898017D02*
X135372256Y-98945636D01*
X135372256Y-98945636D02*
X135419875Y-98898017D01*
X135419875Y-98898017D02*
X135372256Y-98850398D01*
X135372256Y-98850398D02*
X135324636Y-98898017D01*
X135324636Y-98898017D02*
X135419875Y-98898017D01*
X134800827Y-98898017D02*
X134848446Y-98945636D01*
X134848446Y-98945636D02*
X134896065Y-98898017D01*
X134896065Y-98898017D02*
X134848446Y-98850398D01*
X134848446Y-98850398D02*
X134800827Y-98898017D01*
X134800827Y-98898017D02*
X134896065Y-98898017D01*
X134515113Y-100088493D02*
X134467494Y-100136112D01*
X134467494Y-100136112D02*
X134419875Y-100231350D01*
X134419875Y-100231350D02*
X134419875Y-100469445D01*
X134419875Y-100469445D02*
X134467494Y-100564683D01*
X134467494Y-100564683D02*
X134515113Y-100612302D01*
X134515113Y-100612302D02*
X134610351Y-100659921D01*
X134610351Y-100659921D02*
X134705589Y-100659921D01*
X134705589Y-100659921D02*
X134848446Y-100612302D01*
X134848446Y-100612302D02*
X135419875Y-100040874D01*
X135419875Y-100040874D02*
X135419875Y-100659921D01*
X135038922Y-100945636D02*
X134991303Y-100993255D01*
X134991303Y-100993255D02*
X134943684Y-101088493D01*
X134943684Y-101088493D02*
X135038922Y-101278969D01*
X135038922Y-101278969D02*
X134991303Y-101374207D01*
X134991303Y-101374207D02*
X134943684Y-101421826D01*
X135419875Y-102326588D02*
X135419875Y-101755160D01*
X135419875Y-102040874D02*
X134419875Y-102040874D01*
X134419875Y-102040874D02*
X134562732Y-101945636D01*
X134562732Y-101945636D02*
X134657970Y-101850398D01*
X134657970Y-101850398D02*
X134705589Y-101755160D01*
X134419875Y-102945636D02*
X134419875Y-103040874D01*
X134419875Y-103040874D02*
X134467494Y-103136112D01*
X134467494Y-103136112D02*
X134515113Y-103183731D01*
X134515113Y-103183731D02*
X134610351Y-103231350D01*
X134610351Y-103231350D02*
X134800827Y-103278969D01*
X134800827Y-103278969D02*
X135038922Y-103278969D01*
X135038922Y-103278969D02*
X135229398Y-103231350D01*
X135229398Y-103231350D02*
X135324636Y-103183731D01*
X135324636Y-103183731D02*
X135372256Y-103136112D01*
X135372256Y-103136112D02*
X135419875Y-103040874D01*
X135419875Y-103040874D02*
X135419875Y-102945636D01*
X135419875Y-102945636D02*
X135372256Y-102850398D01*
X135372256Y-102850398D02*
X135324636Y-102802779D01*
X135324636Y-102802779D02*
X135229398Y-102755160D01*
X135229398Y-102755160D02*
X135038922Y-102707541D01*
X135038922Y-102707541D02*
X134800827Y-102707541D01*
X134800827Y-102707541D02*
X134610351Y-102755160D01*
X134610351Y-102755160D02*
X134515113Y-102802779D01*
X134515113Y-102802779D02*
X134467494Y-102850398D01*
X134467494Y-102850398D02*
X134419875Y-102945636D01*
X135419875Y-103707541D02*
X134419875Y-103707541D01*
X135419875Y-104278969D02*
X134848446Y-103850398D01*
X134419875Y-104278969D02*
X134991303Y-103707541D01*
X135419875Y-104659922D02*
X135419875Y-104898017D01*
X135419875Y-104898017D02*
X135229398Y-104898017D01*
X135229398Y-104898017D02*
X135181779Y-104802779D01*
X135181779Y-104802779D02*
X135086541Y-104707541D01*
X135086541Y-104707541D02*
X134943684Y-104659922D01*
X134943684Y-104659922D02*
X134705589Y-104659922D01*
X134705589Y-104659922D02*
X134562732Y-104707541D01*
X134562732Y-104707541D02*
X134467494Y-104802779D01*
X134467494Y-104802779D02*
X134419875Y-104945636D01*
X134419875Y-104945636D02*
X134419875Y-105136112D01*
X134419875Y-105136112D02*
X134467494Y-105278969D01*
X134467494Y-105278969D02*
X134562732Y-105374207D01*
X134562732Y-105374207D02*
X134705589Y-105421826D01*
X134705589Y-105421826D02*
X134943684Y-105421826D01*
X134943684Y-105421826D02*
X135086541Y-105374207D01*
X135086541Y-105374207D02*
X135181779Y-105278969D01*
X135181779Y-105278969D02*
X135229398Y-105183731D01*
X135229398Y-105183731D02*
X135419875Y-105183731D01*
X135419875Y-105183731D02*
X135419875Y-105421826D01*
X137029819Y-93374207D02*
X136553628Y-93040874D01*
X137029819Y-92802779D02*
X136029819Y-92802779D01*
X136029819Y-92802779D02*
X136029819Y-93183731D01*
X136029819Y-93183731D02*
X136077438Y-93278969D01*
X136077438Y-93278969D02*
X136125057Y-93326588D01*
X136125057Y-93326588D02*
X136220295Y-93374207D01*
X136220295Y-93374207D02*
X136363152Y-93374207D01*
X136363152Y-93374207D02*
X136458390Y-93326588D01*
X136458390Y-93326588D02*
X136506009Y-93278969D01*
X136506009Y-93278969D02*
X136553628Y-93183731D01*
X136553628Y-93183731D02*
X136553628Y-92802779D01*
X137029819Y-94326588D02*
X137029819Y-93755160D01*
X137029819Y-94040874D02*
X136029819Y-94040874D01*
X136029819Y-94040874D02*
X136172676Y-93945636D01*
X136172676Y-93945636D02*
X136267914Y-93850398D01*
X136267914Y-93850398D02*
X136315533Y-93755160D01*
X136029819Y-94659922D02*
X136029819Y-95278969D01*
X136029819Y-95278969D02*
X136410771Y-94945636D01*
X136410771Y-94945636D02*
X136410771Y-95088493D01*
X136410771Y-95088493D02*
X136458390Y-95183731D01*
X136458390Y-95183731D02*
X136506009Y-95231350D01*
X136506009Y-95231350D02*
X136601247Y-95278969D01*
X136601247Y-95278969D02*
X136839342Y-95278969D01*
X136839342Y-95278969D02*
X136934580Y-95231350D01*
X136934580Y-95231350D02*
X136982200Y-95183731D01*
X136982200Y-95183731D02*
X137029819Y-95088493D01*
X137029819Y-95088493D02*
X137029819Y-94802779D01*
X137029819Y-94802779D02*
X136982200Y-94707541D01*
X136982200Y-94707541D02*
X136934580Y-94659922D01*
X136648866Y-95707541D02*
X136648866Y-96469446D01*
X137029819Y-97517064D02*
X136553628Y-97183731D01*
X137029819Y-96945636D02*
X136029819Y-96945636D01*
X136029819Y-96945636D02*
X136029819Y-97326588D01*
X136029819Y-97326588D02*
X136077438Y-97421826D01*
X136077438Y-97421826D02*
X136125057Y-97469445D01*
X136125057Y-97469445D02*
X136220295Y-97517064D01*
X136220295Y-97517064D02*
X136363152Y-97517064D01*
X136363152Y-97517064D02*
X136458390Y-97469445D01*
X136458390Y-97469445D02*
X136506009Y-97421826D01*
X136506009Y-97421826D02*
X136553628Y-97326588D01*
X136553628Y-97326588D02*
X136553628Y-96945636D01*
X137029819Y-98469445D02*
X137029819Y-97898017D01*
X137029819Y-98183731D02*
X136029819Y-98183731D01*
X136029819Y-98183731D02*
X136172676Y-98088493D01*
X136172676Y-98088493D02*
X136267914Y-97993255D01*
X136267914Y-97993255D02*
X136315533Y-97898017D01*
X136029819Y-99326588D02*
X136029819Y-99136112D01*
X136029819Y-99136112D02*
X136077438Y-99040874D01*
X136077438Y-99040874D02*
X136125057Y-98993255D01*
X136125057Y-98993255D02*
X136267914Y-98898017D01*
X136267914Y-98898017D02*
X136458390Y-98850398D01*
X136458390Y-98850398D02*
X136839342Y-98850398D01*
X136839342Y-98850398D02*
X136934580Y-98898017D01*
X136934580Y-98898017D02*
X136982200Y-98945636D01*
X136982200Y-98945636D02*
X137029819Y-99040874D01*
X137029819Y-99040874D02*
X137029819Y-99231350D01*
X137029819Y-99231350D02*
X136982200Y-99326588D01*
X136982200Y-99326588D02*
X136934580Y-99374207D01*
X136934580Y-99374207D02*
X136839342Y-99421826D01*
X136839342Y-99421826D02*
X136601247Y-99421826D01*
X136601247Y-99421826D02*
X136506009Y-99374207D01*
X136506009Y-99374207D02*
X136458390Y-99326588D01*
X136458390Y-99326588D02*
X136410771Y-99231350D01*
X136410771Y-99231350D02*
X136410771Y-99040874D01*
X136410771Y-99040874D02*
X136458390Y-98945636D01*
X136458390Y-98945636D02*
X136506009Y-98898017D01*
X136506009Y-98898017D02*
X136601247Y-98850398D01*
X136934580Y-99850398D02*
X136982200Y-99898017D01*
X136982200Y-99898017D02*
X137029819Y-99850398D01*
X137029819Y-99850398D02*
X136982200Y-99802779D01*
X136982200Y-99802779D02*
X136934580Y-99850398D01*
X136934580Y-99850398D02*
X137029819Y-99850398D01*
X136410771Y-99850398D02*
X136458390Y-99898017D01*
X136458390Y-99898017D02*
X136506009Y-99850398D01*
X136506009Y-99850398D02*
X136458390Y-99802779D01*
X136458390Y-99802779D02*
X136410771Y-99850398D01*
X136410771Y-99850398D02*
X136506009Y-99850398D01*
X137029819Y-101612302D02*
X137029819Y-101040874D01*
X137029819Y-101326588D02*
X136029819Y-101326588D01*
X136029819Y-101326588D02*
X136172676Y-101231350D01*
X136172676Y-101231350D02*
X136267914Y-101136112D01*
X136267914Y-101136112D02*
X136315533Y-101040874D01*
X136029819Y-102231350D02*
X136029819Y-102326588D01*
X136029819Y-102326588D02*
X136077438Y-102421826D01*
X136077438Y-102421826D02*
X136125057Y-102469445D01*
X136125057Y-102469445D02*
X136220295Y-102517064D01*
X136220295Y-102517064D02*
X136410771Y-102564683D01*
X136410771Y-102564683D02*
X136648866Y-102564683D01*
X136648866Y-102564683D02*
X136839342Y-102517064D01*
X136839342Y-102517064D02*
X136934580Y-102469445D01*
X136934580Y-102469445D02*
X136982200Y-102421826D01*
X136982200Y-102421826D02*
X137029819Y-102326588D01*
X137029819Y-102326588D02*
X137029819Y-102231350D01*
X137029819Y-102231350D02*
X136982200Y-102136112D01*
X136982200Y-102136112D02*
X136934580Y-102088493D01*
X136934580Y-102088493D02*
X136839342Y-102040874D01*
X136839342Y-102040874D02*
X136648866Y-101993255D01*
X136648866Y-101993255D02*
X136410771Y-101993255D01*
X136410771Y-101993255D02*
X136220295Y-102040874D01*
X136220295Y-102040874D02*
X136125057Y-102088493D01*
X136125057Y-102088493D02*
X136077438Y-102136112D01*
X136077438Y-102136112D02*
X136029819Y-102231350D01*
X137029819Y-102993255D02*
X136029819Y-102993255D01*
X137029819Y-103564683D02*
X136458390Y-103136112D01*
X136029819Y-103564683D02*
X136601247Y-102993255D01*
X137029819Y-103945636D02*
X137029819Y-104183731D01*
X137029819Y-104183731D02*
X136839342Y-104183731D01*
X136839342Y-104183731D02*
X136791723Y-104088493D01*
X136791723Y-104088493D02*
X136696485Y-103993255D01*
X136696485Y-103993255D02*
X136553628Y-103945636D01*
X136553628Y-103945636D02*
X136315533Y-103945636D01*
X136315533Y-103945636D02*
X136172676Y-103993255D01*
X136172676Y-103993255D02*
X136077438Y-104088493D01*
X136077438Y-104088493D02*
X136029819Y-104231350D01*
X136029819Y-104231350D02*
X136029819Y-104421826D01*
X136029819Y-104421826D02*
X136077438Y-104564683D01*
X136077438Y-104564683D02*
X136172676Y-104659921D01*
X136172676Y-104659921D02*
X136315533Y-104707540D01*
X136315533Y-104707540D02*
X136553628Y-104707540D01*
X136553628Y-104707540D02*
X136696485Y-104659921D01*
X136696485Y-104659921D02*
X136791723Y-104564683D01*
X136791723Y-104564683D02*
X136839342Y-104469445D01*
X136839342Y-104469445D02*
X137029819Y-104469445D01*
X137029819Y-104469445D02*
X137029819Y-104707540D01*
X100266121Y-93136112D02*
X100266121Y-92802779D01*
X100789931Y-92802779D02*
X99789931Y-92802779D01*
X99789931Y-92802779D02*
X99789931Y-93278969D01*
X100789931Y-93802779D02*
X100742312Y-93707541D01*
X100742312Y-93707541D02*
X100694692Y-93659922D01*
X100694692Y-93659922D02*
X100599454Y-93612303D01*
X100599454Y-93612303D02*
X100313740Y-93612303D01*
X100313740Y-93612303D02*
X100218502Y-93659922D01*
X100218502Y-93659922D02*
X100170883Y-93707541D01*
X100170883Y-93707541D02*
X100123264Y-93802779D01*
X100123264Y-93802779D02*
X100123264Y-93945636D01*
X100123264Y-93945636D02*
X100170883Y-94040874D01*
X100170883Y-94040874D02*
X100218502Y-94088493D01*
X100218502Y-94088493D02*
X100313740Y-94136112D01*
X100313740Y-94136112D02*
X100599454Y-94136112D01*
X100599454Y-94136112D02*
X100694692Y-94088493D01*
X100694692Y-94088493D02*
X100742312Y-94040874D01*
X100742312Y-94040874D02*
X100789931Y-93945636D01*
X100789931Y-93945636D02*
X100789931Y-93802779D01*
X100789931Y-94564684D02*
X100123264Y-94564684D01*
X100313740Y-94564684D02*
X100218502Y-94612303D01*
X100218502Y-94612303D02*
X100170883Y-94659922D01*
X100170883Y-94659922D02*
X100123264Y-94755160D01*
X100123264Y-94755160D02*
X100123264Y-94850398D01*
X100789931Y-95945637D02*
X99789931Y-95945637D01*
X99789931Y-95945637D02*
X100789931Y-96517065D01*
X100789931Y-96517065D02*
X99789931Y-96517065D01*
X99789931Y-96993256D02*
X100599454Y-96993256D01*
X100599454Y-96993256D02*
X100694692Y-97040875D01*
X100694692Y-97040875D02*
X100742312Y-97088494D01*
X100742312Y-97088494D02*
X100789931Y-97183732D01*
X100789931Y-97183732D02*
X100789931Y-97374208D01*
X100789931Y-97374208D02*
X100742312Y-97469446D01*
X100742312Y-97469446D02*
X100694692Y-97517065D01*
X100694692Y-97517065D02*
X100599454Y-97564684D01*
X100599454Y-97564684D02*
X99789931Y-97564684D01*
X100694692Y-98612303D02*
X100742312Y-98564684D01*
X100742312Y-98564684D02*
X100789931Y-98421827D01*
X100789931Y-98421827D02*
X100789931Y-98326589D01*
X100789931Y-98326589D02*
X100742312Y-98183732D01*
X100742312Y-98183732D02*
X100647073Y-98088494D01*
X100647073Y-98088494D02*
X100551835Y-98040875D01*
X100551835Y-98040875D02*
X100361359Y-97993256D01*
X100361359Y-97993256D02*
X100218502Y-97993256D01*
X100218502Y-97993256D02*
X100028026Y-98040875D01*
X100028026Y-98040875D02*
X99932788Y-98088494D01*
X99932788Y-98088494D02*
X99837550Y-98183732D01*
X99837550Y-98183732D02*
X99789931Y-98326589D01*
X99789931Y-98326589D02*
X99789931Y-98421827D01*
X99789931Y-98421827D02*
X99837550Y-98564684D01*
X99837550Y-98564684D02*
X99885169Y-98612303D01*
X100789931Y-99517065D02*
X100789931Y-99040875D01*
X100789931Y-99040875D02*
X99789931Y-99040875D01*
X100266121Y-99850399D02*
X100266121Y-100183732D01*
X100789931Y-100326589D02*
X100789931Y-99850399D01*
X100789931Y-99850399D02*
X99789931Y-99850399D01*
X99789931Y-99850399D02*
X99789931Y-100326589D01*
X99789931Y-100945637D02*
X99789931Y-101136113D01*
X99789931Y-101136113D02*
X99837550Y-101231351D01*
X99837550Y-101231351D02*
X99932788Y-101326589D01*
X99932788Y-101326589D02*
X100123264Y-101374208D01*
X100123264Y-101374208D02*
X100456597Y-101374208D01*
X100456597Y-101374208D02*
X100647073Y-101326589D01*
X100647073Y-101326589D02*
X100742312Y-101231351D01*
X100742312Y-101231351D02*
X100789931Y-101136113D01*
X100789931Y-101136113D02*
X100789931Y-100945637D01*
X100789931Y-100945637D02*
X100742312Y-100850399D01*
X100742312Y-100850399D02*
X100647073Y-100755161D01*
X100647073Y-100755161D02*
X100456597Y-100707542D01*
X100456597Y-100707542D02*
X100123264Y-100707542D01*
X100123264Y-100707542D02*
X99932788Y-100755161D01*
X99932788Y-100755161D02*
X99837550Y-100850399D01*
X99837550Y-100850399D02*
X99789931Y-100945637D01*
X100408978Y-101802780D02*
X100408978Y-102564685D01*
X100266121Y-103374208D02*
X100266121Y-103040875D01*
X100789931Y-103040875D02*
X99789931Y-103040875D01*
X99789931Y-103040875D02*
X99789931Y-103517065D01*
X99789931Y-103802780D02*
X99789931Y-104469446D01*
X99789931Y-104469446D02*
X100789931Y-104040875D01*
X99789931Y-105278970D02*
X99789931Y-105088494D01*
X99789931Y-105088494D02*
X99837550Y-104993256D01*
X99837550Y-104993256D02*
X99885169Y-104945637D01*
X99885169Y-104945637D02*
X100028026Y-104850399D01*
X100028026Y-104850399D02*
X100218502Y-104802780D01*
X100218502Y-104802780D02*
X100599454Y-104802780D01*
X100599454Y-104802780D02*
X100694692Y-104850399D01*
X100694692Y-104850399D02*
X100742312Y-104898018D01*
X100742312Y-104898018D02*
X100789931Y-104993256D01*
X100789931Y-104993256D02*
X100789931Y-105183732D01*
X100789931Y-105183732D02*
X100742312Y-105278970D01*
X100742312Y-105278970D02*
X100694692Y-105326589D01*
X100694692Y-105326589D02*
X100599454Y-105374208D01*
X100599454Y-105374208D02*
X100361359Y-105374208D01*
X100361359Y-105374208D02*
X100266121Y-105326589D01*
X100266121Y-105326589D02*
X100218502Y-105278970D01*
X100218502Y-105278970D02*
X100170883Y-105183732D01*
X100170883Y-105183732D02*
X100170883Y-104993256D01*
X100170883Y-104993256D02*
X100218502Y-104898018D01*
X100218502Y-104898018D02*
X100266121Y-104850399D01*
X100266121Y-104850399D02*
X100361359Y-104802780D01*
X99789931Y-105707542D02*
X99789931Y-106374208D01*
X99789931Y-106374208D02*
X100789931Y-105945637D01*
X99789931Y-106659923D02*
X99789931Y-107326589D01*
X99789931Y-107326589D02*
X100789931Y-106659923D01*
X100789931Y-106659923D02*
X100789931Y-107326589D01*
X100789931Y-107707542D02*
X99789931Y-107707542D01*
X101399875Y-92659922D02*
X102399875Y-92993255D01*
X102399875Y-92993255D02*
X101399875Y-93326588D01*
X102352256Y-94040874D02*
X102399875Y-93945636D01*
X102399875Y-93945636D02*
X102399875Y-93755160D01*
X102399875Y-93755160D02*
X102352256Y-93659922D01*
X102352256Y-93659922D02*
X102257017Y-93612303D01*
X102257017Y-93612303D02*
X101876065Y-93612303D01*
X101876065Y-93612303D02*
X101780827Y-93659922D01*
X101780827Y-93659922D02*
X101733208Y-93755160D01*
X101733208Y-93755160D02*
X101733208Y-93945636D01*
X101733208Y-93945636D02*
X101780827Y-94040874D01*
X101780827Y-94040874D02*
X101876065Y-94088493D01*
X101876065Y-94088493D02*
X101971303Y-94088493D01*
X101971303Y-94088493D02*
X102066541Y-93612303D01*
X102399875Y-94517065D02*
X101733208Y-94517065D01*
X101923684Y-94517065D02*
X101828446Y-94564684D01*
X101828446Y-94564684D02*
X101780827Y-94612303D01*
X101780827Y-94612303D02*
X101733208Y-94707541D01*
X101733208Y-94707541D02*
X101733208Y-94802779D01*
X102304636Y-95136113D02*
X102352256Y-95183732D01*
X102352256Y-95183732D02*
X102399875Y-95136113D01*
X102399875Y-95136113D02*
X102352256Y-95088494D01*
X102352256Y-95088494D02*
X102304636Y-95136113D01*
X102304636Y-95136113D02*
X102399875Y-95136113D01*
X102399875Y-96136112D02*
X102399875Y-95564684D01*
X102399875Y-95850398D02*
X101399875Y-95850398D01*
X101399875Y-95850398D02*
X101542732Y-95755160D01*
X101542732Y-95755160D02*
X101637970Y-95659922D01*
X101637970Y-95659922D02*
X101685589Y-95564684D01*
X102304636Y-96564684D02*
X102352256Y-96612303D01*
X102352256Y-96612303D02*
X102399875Y-96564684D01*
X102399875Y-96564684D02*
X102352256Y-96517065D01*
X102352256Y-96517065D02*
X102304636Y-96564684D01*
X102304636Y-96564684D02*
X102399875Y-96564684D01*
X101399875Y-97231350D02*
X101399875Y-97326588D01*
X101399875Y-97326588D02*
X101447494Y-97421826D01*
X101447494Y-97421826D02*
X101495113Y-97469445D01*
X101495113Y-97469445D02*
X101590351Y-97517064D01*
X101590351Y-97517064D02*
X101780827Y-97564683D01*
X101780827Y-97564683D02*
X102018922Y-97564683D01*
X102018922Y-97564683D02*
X102209398Y-97517064D01*
X102209398Y-97517064D02*
X102304636Y-97469445D01*
X102304636Y-97469445D02*
X102352256Y-97421826D01*
X102352256Y-97421826D02*
X102399875Y-97326588D01*
X102399875Y-97326588D02*
X102399875Y-97231350D01*
X102399875Y-97231350D02*
X102352256Y-97136112D01*
X102352256Y-97136112D02*
X102304636Y-97088493D01*
X102304636Y-97088493D02*
X102209398Y-97040874D01*
X102209398Y-97040874D02*
X102018922Y-96993255D01*
X102018922Y-96993255D02*
X101780827Y-96993255D01*
X101780827Y-96993255D02*
X101590351Y-97040874D01*
X101590351Y-97040874D02*
X101495113Y-97088493D01*
X101495113Y-97088493D02*
X101447494Y-97136112D01*
X101447494Y-97136112D02*
X101399875Y-97231350D01*
X104009819Y-93374207D02*
X103533628Y-93040874D01*
X104009819Y-92802779D02*
X103009819Y-92802779D01*
X103009819Y-92802779D02*
X103009819Y-93183731D01*
X103009819Y-93183731D02*
X103057438Y-93278969D01*
X103057438Y-93278969D02*
X103105057Y-93326588D01*
X103105057Y-93326588D02*
X103200295Y-93374207D01*
X103200295Y-93374207D02*
X103343152Y-93374207D01*
X103343152Y-93374207D02*
X103438390Y-93326588D01*
X103438390Y-93326588D02*
X103486009Y-93278969D01*
X103486009Y-93278969D02*
X103533628Y-93183731D01*
X103533628Y-93183731D02*
X103533628Y-92802779D01*
X104009819Y-94374207D02*
X103533628Y-94040874D01*
X104009819Y-93802779D02*
X103009819Y-93802779D01*
X103009819Y-93802779D02*
X103009819Y-94183731D01*
X103009819Y-94183731D02*
X103057438Y-94278969D01*
X103057438Y-94278969D02*
X103105057Y-94326588D01*
X103105057Y-94326588D02*
X103200295Y-94374207D01*
X103200295Y-94374207D02*
X103343152Y-94374207D01*
X103343152Y-94374207D02*
X103438390Y-94326588D01*
X103438390Y-94326588D02*
X103486009Y-94278969D01*
X103486009Y-94278969D02*
X103533628Y-94183731D01*
X103533628Y-94183731D02*
X103533628Y-93802779D01*
X103962200Y-94755160D02*
X104009819Y-94898017D01*
X104009819Y-94898017D02*
X104009819Y-95136112D01*
X104009819Y-95136112D02*
X103962200Y-95231350D01*
X103962200Y-95231350D02*
X103914580Y-95278969D01*
X103914580Y-95278969D02*
X103819342Y-95326588D01*
X103819342Y-95326588D02*
X103724104Y-95326588D01*
X103724104Y-95326588D02*
X103628866Y-95278969D01*
X103628866Y-95278969D02*
X103581247Y-95231350D01*
X103581247Y-95231350D02*
X103533628Y-95136112D01*
X103533628Y-95136112D02*
X103486009Y-94945636D01*
X103486009Y-94945636D02*
X103438390Y-94850398D01*
X103438390Y-94850398D02*
X103390771Y-94802779D01*
X103390771Y-94802779D02*
X103295533Y-94755160D01*
X103295533Y-94755160D02*
X103200295Y-94755160D01*
X103200295Y-94755160D02*
X103105057Y-94802779D01*
X103105057Y-94802779D02*
X103057438Y-94850398D01*
X103057438Y-94850398D02*
X103009819Y-94945636D01*
X103009819Y-94945636D02*
X103009819Y-95183731D01*
X103009819Y-95183731D02*
X103057438Y-95326588D01*
X103009819Y-95612303D02*
X103009819Y-96183731D01*
X104009819Y-95898017D02*
X103009819Y-95898017D01*
X104009819Y-97278970D02*
X103009819Y-97278970D01*
X103009819Y-97278970D02*
X104009819Y-97850398D01*
X104009819Y-97850398D02*
X103009819Y-97850398D01*
X104009819Y-98326589D02*
X103009819Y-98326589D01*
X103486009Y-98326589D02*
X103486009Y-98898017D01*
X104009819Y-98898017D02*
X103009819Y-98898017D01*
X104009819Y-99374208D02*
X103009819Y-99374208D01*
X104009819Y-99945636D02*
X103438390Y-99517065D01*
X103009819Y-99945636D02*
X103581247Y-99374208D01*
X103105057Y-101088494D02*
X103057438Y-101136113D01*
X103057438Y-101136113D02*
X103009819Y-101231351D01*
X103009819Y-101231351D02*
X103009819Y-101469446D01*
X103009819Y-101469446D02*
X103057438Y-101564684D01*
X103057438Y-101564684D02*
X103105057Y-101612303D01*
X103105057Y-101612303D02*
X103200295Y-101659922D01*
X103200295Y-101659922D02*
X103295533Y-101659922D01*
X103295533Y-101659922D02*
X103438390Y-101612303D01*
X103438390Y-101612303D02*
X104009819Y-101040875D01*
X104009819Y-101040875D02*
X104009819Y-101659922D01*
X103009819Y-102278970D02*
X103009819Y-102374208D01*
X103009819Y-102374208D02*
X103057438Y-102469446D01*
X103057438Y-102469446D02*
X103105057Y-102517065D01*
X103105057Y-102517065D02*
X103200295Y-102564684D01*
X103200295Y-102564684D02*
X103390771Y-102612303D01*
X103390771Y-102612303D02*
X103628866Y-102612303D01*
X103628866Y-102612303D02*
X103819342Y-102564684D01*
X103819342Y-102564684D02*
X103914580Y-102517065D01*
X103914580Y-102517065D02*
X103962200Y-102469446D01*
X103962200Y-102469446D02*
X104009819Y-102374208D01*
X104009819Y-102374208D02*
X104009819Y-102278970D01*
X104009819Y-102278970D02*
X103962200Y-102183732D01*
X103962200Y-102183732D02*
X103914580Y-102136113D01*
X103914580Y-102136113D02*
X103819342Y-102088494D01*
X103819342Y-102088494D02*
X103628866Y-102040875D01*
X103628866Y-102040875D02*
X103390771Y-102040875D01*
X103390771Y-102040875D02*
X103200295Y-102088494D01*
X103200295Y-102088494D02*
X103105057Y-102136113D01*
X103105057Y-102136113D02*
X103057438Y-102183732D01*
X103057438Y-102183732D02*
X103009819Y-102278970D01*
X103105057Y-102993256D02*
X103057438Y-103040875D01*
X103057438Y-103040875D02*
X103009819Y-103136113D01*
X103009819Y-103136113D02*
X103009819Y-103374208D01*
X103009819Y-103374208D02*
X103057438Y-103469446D01*
X103057438Y-103469446D02*
X103105057Y-103517065D01*
X103105057Y-103517065D02*
X103200295Y-103564684D01*
X103200295Y-103564684D02*
X103295533Y-103564684D01*
X103295533Y-103564684D02*
X103438390Y-103517065D01*
X103438390Y-103517065D02*
X104009819Y-102945637D01*
X104009819Y-102945637D02*
X104009819Y-103564684D01*
X103009819Y-104469446D02*
X103009819Y-103993256D01*
X103009819Y-103993256D02*
X103486009Y-103945637D01*
X103486009Y-103945637D02*
X103438390Y-103993256D01*
X103438390Y-103993256D02*
X103390771Y-104088494D01*
X103390771Y-104088494D02*
X103390771Y-104326589D01*
X103390771Y-104326589D02*
X103438390Y-104421827D01*
X103438390Y-104421827D02*
X103486009Y-104469446D01*
X103486009Y-104469446D02*
X103581247Y-104517065D01*
X103581247Y-104517065D02*
X103819342Y-104517065D01*
X103819342Y-104517065D02*
X103914580Y-104469446D01*
X103914580Y-104469446D02*
X103962200Y-104421827D01*
X103962200Y-104421827D02*
X104009819Y-104326589D01*
X104009819Y-104326589D02*
X104009819Y-104088494D01*
X104009819Y-104088494D02*
X103962200Y-103993256D01*
X103962200Y-103993256D02*
X103914580Y-103945637D01*
D11*
G36*
X85282993Y-107354640D02*
G01*
X85315046Y-107382685D01*
X85354193Y-107456088D01*
X85354193Y-107646830D01*
X85327632Y-107703271D01*
X84736244Y-107777195D01*
X84720860Y-107748349D01*
X84720860Y-107557608D01*
X84764717Y-107464411D01*
X84805099Y-107418982D01*
X84893248Y-107363888D01*
X85204054Y-107325037D01*
X85282993Y-107354640D01*
G37*
G36*
X87295423Y-106045119D02*
G01*
X87327476Y-106073164D01*
X87366623Y-106146567D01*
X87366623Y-106277785D01*
X87322767Y-106370979D01*
X87282384Y-106416409D01*
X87194234Y-106471503D01*
X86883428Y-106510354D01*
X86804490Y-106480752D01*
X86772436Y-106452704D01*
X86733290Y-106379305D01*
X86733290Y-106248087D01*
X86777147Y-106154890D01*
X86817529Y-106109461D01*
X86905678Y-106054367D01*
X87216484Y-106015516D01*
X87295423Y-106045119D01*
G37*
G36*
X85324203Y-105435570D02*
G01*
X85354193Y-105491801D01*
X85354193Y-105742068D01*
X85327632Y-105798509D01*
X85077427Y-105829785D01*
X85078003Y-105823945D01*
X85078003Y-105548680D01*
X85115479Y-105469041D01*
X85190867Y-105421924D01*
X85263578Y-105412835D01*
X85324203Y-105435570D01*
G37*
G36*
X85282993Y-104318926D02*
G01*
X85315046Y-104346971D01*
X85354193Y-104420374D01*
X85354193Y-104551592D01*
X85310337Y-104644786D01*
X85269954Y-104690216D01*
X85181804Y-104745310D01*
X84870998Y-104784161D01*
X84792060Y-104754559D01*
X84760006Y-104726511D01*
X84720860Y-104653112D01*
X84720860Y-104521894D01*
X84764717Y-104428697D01*
X84805099Y-104383268D01*
X84893248Y-104328174D01*
X85204054Y-104289323D01*
X85282993Y-104318926D01*
G37*
G36*
X84699431Y-103442961D02*
G01*
X84655575Y-103536155D01*
X84615192Y-103581585D01*
X84527042Y-103636679D01*
X84454331Y-103645768D01*
X84375394Y-103616166D01*
X84343339Y-103588118D01*
X84304193Y-103514719D01*
X84304193Y-103211330D01*
X84699431Y-103161925D01*
X84699431Y-103442961D01*
G37*
G36*
X85354193Y-103420640D02*
G01*
X85310337Y-103513834D01*
X85269954Y-103559264D01*
X85181804Y-103614358D01*
X85049570Y-103630887D01*
X84970632Y-103601285D01*
X84944714Y-103578607D01*
X84899431Y-103448418D01*
X84899431Y-103136925D01*
X85354193Y-103080080D01*
X85354193Y-103420640D01*
G37*
G36*
X87336633Y-101864145D02*
G01*
X87366623Y-101920376D01*
X87366623Y-102170643D01*
X87340062Y-102227084D01*
X87089857Y-102258360D01*
X87090433Y-102252520D01*
X87090433Y-101977255D01*
X87127909Y-101897616D01*
X87203297Y-101850499D01*
X87276008Y-101841410D01*
X87336633Y-101864145D01*
G37*
G36*
X85324203Y-99245095D02*
G01*
X85354193Y-99301326D01*
X85354193Y-99551593D01*
X85327632Y-99608034D01*
X85077427Y-99639310D01*
X85078003Y-99633470D01*
X85078003Y-99358205D01*
X85115479Y-99278566D01*
X85190867Y-99231449D01*
X85263578Y-99222360D01*
X85324203Y-99245095D01*
G37*
G36*
X86846631Y-98062572D02*
G01*
X86823904Y-98065413D01*
X86763280Y-98042678D01*
X86733290Y-97986447D01*
X86733290Y-97795705D01*
X86770766Y-97716067D01*
X86846154Y-97668950D01*
X86925368Y-97659048D01*
X86846631Y-98062572D01*
G37*
G36*
X87366623Y-94558334D02*
G01*
X87318303Y-94709333D01*
X87222861Y-94816706D01*
X87124506Y-94878177D01*
X86906822Y-94959809D01*
X86752337Y-94979120D01*
X86538328Y-94952369D01*
X86447347Y-94918251D01*
X86361906Y-94843489D01*
X86316623Y-94713300D01*
X86316623Y-94520855D01*
X87366623Y-94389605D01*
X87366623Y-94558334D01*
G37*
G36*
X85282993Y-92711785D02*
G01*
X85315046Y-92739830D01*
X85354193Y-92813233D01*
X85354193Y-93003975D01*
X85310337Y-93097169D01*
X85269954Y-93142599D01*
X85181804Y-93197693D01*
X84930522Y-93229103D01*
X84851584Y-93199501D01*
X84819531Y-93171454D01*
X84780384Y-93098054D01*
X84780384Y-92907313D01*
X84824242Y-92814114D01*
X84864623Y-92768685D01*
X84952772Y-92713593D01*
X85204054Y-92682182D01*
X85282993Y-92711785D01*
G37*
G36*
X87705512Y-109974605D02*
G01*
X83965304Y-109974605D01*
X83965304Y-109484908D01*
X86116882Y-109484908D01*
X86121721Y-109523624D01*
X86141009Y-109557542D01*
X86171808Y-109581497D01*
X86209430Y-109591842D01*
X86229026Y-109591329D01*
X86533290Y-109553296D01*
X86533290Y-109737637D01*
X86535211Y-109757146D01*
X86550143Y-109793194D01*
X86577733Y-109820784D01*
X86613781Y-109835716D01*
X86652799Y-109835716D01*
X86688847Y-109820784D01*
X86716437Y-109793194D01*
X86731369Y-109757146D01*
X86733290Y-109737637D01*
X86733290Y-109528296D01*
X87276009Y-109460456D01*
X87336632Y-109483190D01*
X87366623Y-109539423D01*
X87366623Y-109633470D01*
X87368544Y-109652979D01*
X87383476Y-109689027D01*
X87411066Y-109716617D01*
X87447114Y-109731549D01*
X87486132Y-109731549D01*
X87522180Y-109716617D01*
X87549770Y-109689027D01*
X87564702Y-109652979D01*
X87566623Y-109633470D01*
X87566623Y-109514423D01*
X87564702Y-109494914D01*
X87562821Y-109490373D01*
X87562344Y-109485482D01*
X87554858Y-109467365D01*
X87495336Y-109355757D01*
X87489395Y-109346848D01*
X87488314Y-109344469D01*
X87486973Y-109343216D01*
X87484460Y-109339447D01*
X87471793Y-109329033D01*
X87459804Y-109317830D01*
X87455735Y-109315829D01*
X87454321Y-109314667D01*
X87451823Y-109313906D01*
X87442212Y-109309182D01*
X87323164Y-109264540D01*
X87304222Y-109259489D01*
X87299653Y-109259644D01*
X87295245Y-109258432D01*
X87275649Y-109258945D01*
X86733290Y-109326739D01*
X86733290Y-109261446D01*
X86731369Y-109241937D01*
X86716437Y-109205889D01*
X86688847Y-109178299D01*
X86652799Y-109163367D01*
X86613781Y-109163367D01*
X86577733Y-109178299D01*
X86550143Y-109205889D01*
X86535211Y-109241937D01*
X86533290Y-109261446D01*
X86533290Y-109351739D01*
X86204220Y-109392873D01*
X86185100Y-109397199D01*
X86151182Y-109416487D01*
X86127227Y-109447286D01*
X86116882Y-109484908D01*
X83965304Y-109484908D01*
X83965304Y-108487637D01*
X86533290Y-108487637D01*
X86533290Y-108666209D01*
X86535211Y-108685718D01*
X86537091Y-108690258D01*
X86537569Y-108695150D01*
X86545055Y-108713268D01*
X86604579Y-108824875D01*
X86610515Y-108833778D01*
X86611599Y-108836161D01*
X86612941Y-108837414D01*
X86615455Y-108841185D01*
X86628122Y-108851599D01*
X86640109Y-108862800D01*
X86644177Y-108864800D01*
X86645594Y-108865965D01*
X86648094Y-108866725D01*
X86657701Y-108871449D01*
X86776748Y-108916092D01*
X86795689Y-108921143D01*
X86800259Y-108920987D01*
X86804668Y-108922200D01*
X86824265Y-108921687D01*
X87479027Y-108839841D01*
X87498147Y-108835515D01*
X87532065Y-108816227D01*
X87556019Y-108785428D01*
X87566365Y-108747806D01*
X87561525Y-108709089D01*
X87542237Y-108675172D01*
X87511438Y-108651217D01*
X87473816Y-108640872D01*
X87454220Y-108641385D01*
X86823904Y-108720175D01*
X86763280Y-108697440D01*
X86733290Y-108641209D01*
X86733290Y-108509991D01*
X86777147Y-108416794D01*
X86802080Y-108388745D01*
X87479026Y-108304127D01*
X87498146Y-108299801D01*
X87532064Y-108280513D01*
X87556019Y-108249714D01*
X87566364Y-108212092D01*
X87561525Y-108173375D01*
X87542237Y-108139458D01*
X87511438Y-108115503D01*
X87473816Y-108105158D01*
X87454219Y-108105671D01*
X86620886Y-108209838D01*
X86601766Y-108214164D01*
X86567849Y-108233452D01*
X86543894Y-108264251D01*
X86533549Y-108301873D01*
X86538388Y-108340590D01*
X86557676Y-108374507D01*
X86571096Y-108384944D01*
X86542808Y-108445057D01*
X86536239Y-108463527D01*
X86536126Y-108465918D01*
X86535211Y-108468128D01*
X86533290Y-108487637D01*
X83965304Y-108487637D01*
X83965304Y-107937287D01*
X84104452Y-107937287D01*
X84109291Y-107976004D01*
X84128579Y-108009921D01*
X84159378Y-108033876D01*
X84197000Y-108044221D01*
X84216596Y-108043708D01*
X85466597Y-107887458D01*
X85485717Y-107883132D01*
X85519634Y-107863844D01*
X85543589Y-107833045D01*
X85553935Y-107795423D01*
X85549095Y-107756706D01*
X85535103Y-107732102D01*
X85544675Y-107711763D01*
X85551244Y-107693293D01*
X85551356Y-107690901D01*
X85552272Y-107688692D01*
X85554193Y-107669183D01*
X85554193Y-107431088D01*
X85552272Y-107411579D01*
X85550391Y-107407038D01*
X85549914Y-107402147D01*
X85542428Y-107384030D01*
X85482906Y-107272422D01*
X85474813Y-107260285D01*
X85473937Y-107258514D01*
X85472883Y-107257391D01*
X85472030Y-107256112D01*
X85470504Y-107254858D01*
X85460520Y-107244222D01*
X85400996Y-107192139D01*
X85389342Y-107183807D01*
X85387850Y-107182413D01*
X85386383Y-107181691D01*
X85385049Y-107180738D01*
X85383107Y-107180081D01*
X85370258Y-107173764D01*
X85362677Y-107170921D01*
X86533549Y-107170921D01*
X86538388Y-107209638D01*
X86557676Y-107243555D01*
X86588475Y-107267510D01*
X86626097Y-107277855D01*
X86645693Y-107277342D01*
X87276009Y-107198552D01*
X87336632Y-107221286D01*
X87366623Y-107277519D01*
X87366623Y-107408737D01*
X87322767Y-107501931D01*
X87297834Y-107529981D01*
X86620886Y-107614600D01*
X86601766Y-107618926D01*
X86567849Y-107638214D01*
X86543894Y-107669013D01*
X86533549Y-107706635D01*
X86538388Y-107745352D01*
X86557676Y-107779269D01*
X86588475Y-107803224D01*
X86626097Y-107813569D01*
X86645694Y-107813056D01*
X87479026Y-107708889D01*
X87498146Y-107704563D01*
X87532064Y-107685275D01*
X87556019Y-107654476D01*
X87566364Y-107616854D01*
X87561525Y-107578137D01*
X87542237Y-107544220D01*
X87528817Y-107533782D01*
X87557105Y-107473670D01*
X87563674Y-107455200D01*
X87563786Y-107452808D01*
X87564702Y-107450599D01*
X87566623Y-107431090D01*
X87566623Y-107252519D01*
X87564702Y-107233010D01*
X87562821Y-107228469D01*
X87562344Y-107223578D01*
X87554858Y-107205461D01*
X87495336Y-107093853D01*
X87489395Y-107084944D01*
X87488314Y-107082565D01*
X87486973Y-107081312D01*
X87484460Y-107077543D01*
X87471793Y-107067129D01*
X87459804Y-107055926D01*
X87455735Y-107053925D01*
X87454321Y-107052763D01*
X87451823Y-107052002D01*
X87442212Y-107047278D01*
X87323164Y-107002636D01*
X87304222Y-106997585D01*
X87299653Y-106997740D01*
X87295245Y-106996528D01*
X87275648Y-106997041D01*
X86620887Y-107078886D01*
X86601766Y-107083212D01*
X86567849Y-107102500D01*
X86543894Y-107133299D01*
X86533549Y-107170921D01*
X85362677Y-107170921D01*
X85251210Y-107129121D01*
X85232269Y-107124070D01*
X85227699Y-107124225D01*
X85223291Y-107123013D01*
X85203694Y-107123526D01*
X84846551Y-107168169D01*
X84827431Y-107172495D01*
X84825595Y-107173538D01*
X84823516Y-107173887D01*
X84805955Y-107182597D01*
X84686908Y-107257002D01*
X84681670Y-107261039D01*
X84679564Y-107262061D01*
X84675630Y-107265695D01*
X84671382Y-107268971D01*
X84670021Y-107270879D01*
X84665167Y-107275365D01*
X84605643Y-107342329D01*
X84601694Y-107347761D01*
X84599947Y-107349352D01*
X84597231Y-107353903D01*
X84594118Y-107358187D01*
X84593344Y-107360417D01*
X84589902Y-107366186D01*
X84530378Y-107492674D01*
X84523809Y-107511144D01*
X84523696Y-107513535D01*
X84522781Y-107515745D01*
X84520860Y-107535254D01*
X84520860Y-107773349D01*
X84522781Y-107792858D01*
X84524661Y-107797398D01*
X84525139Y-107802290D01*
X84525647Y-107803519D01*
X84191790Y-107845252D01*
X84172669Y-107849578D01*
X84138752Y-107868866D01*
X84114797Y-107899665D01*
X84104452Y-107937287D01*
X83965304Y-107937287D01*
X83965304Y-106820968D01*
X84520860Y-106820968D01*
X84520860Y-106940016D01*
X84522781Y-106959525D01*
X84537713Y-106995573D01*
X84565303Y-107023163D01*
X84601351Y-107038095D01*
X84640369Y-107038095D01*
X84676417Y-107023163D01*
X84704007Y-106995573D01*
X84718939Y-106959525D01*
X84720860Y-106940016D01*
X84720860Y-106843322D01*
X84764717Y-106750125D01*
X84805099Y-106704696D01*
X84893248Y-106649602D01*
X85466596Y-106577934D01*
X85485716Y-106573608D01*
X85519634Y-106554320D01*
X85543589Y-106523521D01*
X85553934Y-106485899D01*
X85549095Y-106447182D01*
X85529807Y-106413265D01*
X85499008Y-106389310D01*
X85461386Y-106378965D01*
X85441789Y-106379478D01*
X84608456Y-106483645D01*
X84589336Y-106487971D01*
X84555419Y-106507259D01*
X84531464Y-106538058D01*
X84521119Y-106575680D01*
X84525958Y-106614397D01*
X84545246Y-106648314D01*
X84576045Y-106672269D01*
X84579827Y-106673308D01*
X84530378Y-106778388D01*
X84523809Y-106796858D01*
X84523696Y-106799249D01*
X84522781Y-106801459D01*
X84520860Y-106820968D01*
X83965304Y-106820968D01*
X83965304Y-106225733D01*
X86533290Y-106225733D01*
X86533290Y-106404305D01*
X86535211Y-106423814D01*
X86537091Y-106428354D01*
X86537569Y-106433246D01*
X86545055Y-106451364D01*
X86604579Y-106562971D01*
X86612669Y-106575104D01*
X86613547Y-106576878D01*
X86614601Y-106578001D01*
X86615455Y-106579281D01*
X86616979Y-106580534D01*
X86626964Y-106591170D01*
X86686488Y-106643253D01*
X86698137Y-106651581D01*
X86699633Y-106652979D01*
X86701103Y-106653701D01*
X86702435Y-106654654D01*
X86704373Y-106655309D01*
X86717225Y-106661628D01*
X86836272Y-106706271D01*
X86855213Y-106711322D01*
X86859783Y-106711166D01*
X86864192Y-106712379D01*
X86883789Y-106711866D01*
X87240931Y-106667223D01*
X87260051Y-106662897D01*
X87261884Y-106661854D01*
X87263966Y-106661506D01*
X87281528Y-106652795D01*
X87400576Y-106578390D01*
X87405809Y-106574355D01*
X87407920Y-106573332D01*
X87411861Y-106569689D01*
X87416101Y-106566421D01*
X87417459Y-106564516D01*
X87422317Y-106560027D01*
X87481841Y-106493063D01*
X87485791Y-106487627D01*
X87487537Y-106486039D01*
X87490249Y-106481493D01*
X87493366Y-106477205D01*
X87494140Y-106474972D01*
X87497582Y-106469205D01*
X87557105Y-106342718D01*
X87563674Y-106324248D01*
X87563786Y-106321856D01*
X87564702Y-106319647D01*
X87566623Y-106300138D01*
X87566623Y-106121567D01*
X87564702Y-106102058D01*
X87562821Y-106097517D01*
X87562344Y-106092626D01*
X87554858Y-106074509D01*
X87495336Y-105962901D01*
X87487243Y-105950764D01*
X87486367Y-105948993D01*
X87485313Y-105947870D01*
X87484460Y-105946591D01*
X87482934Y-105945337D01*
X87472950Y-105934701D01*
X87413426Y-105882618D01*
X87401772Y-105874286D01*
X87400280Y-105872892D01*
X87398813Y-105872170D01*
X87397479Y-105871217D01*
X87395537Y-105870560D01*
X87382688Y-105864243D01*
X87263640Y-105819600D01*
X87244699Y-105814549D01*
X87240129Y-105814704D01*
X87235721Y-105813492D01*
X87216124Y-105814005D01*
X86858981Y-105858648D01*
X86839861Y-105862974D01*
X86838025Y-105864017D01*
X86835946Y-105864366D01*
X86818385Y-105873076D01*
X86699338Y-105947481D01*
X86694100Y-105951518D01*
X86691994Y-105952540D01*
X86688060Y-105956174D01*
X86683812Y-105959450D01*
X86682451Y-105961358D01*
X86677597Y-105965844D01*
X86618073Y-106032808D01*
X86614124Y-106038240D01*
X86612377Y-106039831D01*
X86609661Y-106044382D01*
X86606548Y-106048666D01*
X86605774Y-106050896D01*
X86602332Y-106056665D01*
X86542808Y-106183153D01*
X86536239Y-106201623D01*
X86536126Y-106204014D01*
X86535211Y-106206224D01*
X86533290Y-106225733D01*
X83965304Y-106225733D01*
X83965304Y-105570968D01*
X84520860Y-105570968D01*
X84520860Y-105809064D01*
X84522781Y-105828573D01*
X84524661Y-105833113D01*
X84525139Y-105838005D01*
X84532625Y-105856123D01*
X84592149Y-105967730D01*
X84598085Y-105976633D01*
X84599169Y-105979016D01*
X84600511Y-105980269D01*
X84603025Y-105984040D01*
X84615692Y-105994454D01*
X84627679Y-106005655D01*
X84631747Y-106007655D01*
X84633164Y-106008820D01*
X84635664Y-106009580D01*
X84645271Y-106014304D01*
X84764318Y-106058947D01*
X84783259Y-106063998D01*
X84787829Y-106063842D01*
X84792238Y-106065055D01*
X84811835Y-106064542D01*
X85466597Y-105982696D01*
X85485717Y-105978370D01*
X85519635Y-105959082D01*
X85543589Y-105928283D01*
X85553935Y-105890661D01*
X85549095Y-105851944D01*
X85535103Y-105827340D01*
X85544675Y-105807001D01*
X85551244Y-105788531D01*
X85551356Y-105786139D01*
X85552272Y-105783930D01*
X85554193Y-105764421D01*
X85554193Y-105498532D01*
X86116773Y-105498532D01*
X86119404Y-105516999D01*
X86121721Y-105535531D01*
X86122154Y-105536293D01*
X86122278Y-105537160D01*
X86131788Y-105553234D01*
X86141009Y-105569448D01*
X86141699Y-105569984D01*
X86142146Y-105570740D01*
X86157076Y-105581944D01*
X86171808Y-105593403D01*
X86172653Y-105593635D01*
X86173354Y-105594161D01*
X86191423Y-105598796D01*
X86209430Y-105603748D01*
X86210603Y-105603717D01*
X86211148Y-105603857D01*
X86212471Y-105603668D01*
X86229026Y-105603235D01*
X87479027Y-105446985D01*
X87498147Y-105442659D01*
X87532064Y-105423371D01*
X87556019Y-105392572D01*
X87566365Y-105354950D01*
X87561525Y-105316233D01*
X87542237Y-105282316D01*
X87511438Y-105258361D01*
X87473816Y-105248016D01*
X87454220Y-105248529D01*
X86681560Y-105345111D01*
X87160401Y-105061798D01*
X87167838Y-105056347D01*
X87170198Y-105055190D01*
X87171615Y-105053579D01*
X87176213Y-105050211D01*
X87185627Y-105037666D01*
X87195983Y-105025906D01*
X87197260Y-105022166D01*
X87199634Y-105019004D01*
X87203530Y-105003814D01*
X87208598Y-104988983D01*
X87208347Y-104985039D01*
X87209330Y-104981209D01*
X87207116Y-104965679D01*
X87206123Y-104950044D01*
X87204383Y-104946498D01*
X87203825Y-104942581D01*
X87195839Y-104929084D01*
X87188936Y-104915015D01*
X87185968Y-104912402D01*
X87183956Y-104909001D01*
X87171421Y-104899594D01*
X87159651Y-104889230D01*
X87154465Y-104886868D01*
X87152749Y-104885580D01*
X87150201Y-104884926D01*
X87141811Y-104881105D01*
X86659023Y-104716152D01*
X87479027Y-104613652D01*
X87498147Y-104609326D01*
X87532064Y-104590038D01*
X87556019Y-104559239D01*
X87566365Y-104521617D01*
X87561525Y-104482900D01*
X87542237Y-104448983D01*
X87511438Y-104425028D01*
X87473816Y-104414683D01*
X87454220Y-104415196D01*
X86204220Y-104571446D01*
X86193527Y-104573865D01*
X86190933Y-104574030D01*
X86189336Y-104574813D01*
X86185099Y-104575772D01*
X86170732Y-104583941D01*
X86155904Y-104591218D01*
X86153864Y-104593534D01*
X86151182Y-104595060D01*
X86141043Y-104608094D01*
X86130119Y-104620502D01*
X86129120Y-104623424D01*
X86127227Y-104625859D01*
X86122848Y-104641780D01*
X86117504Y-104657425D01*
X86117699Y-104660506D01*
X86116882Y-104663481D01*
X86118930Y-104679874D01*
X86119979Y-104696364D01*
X86121338Y-104699133D01*
X86121721Y-104702198D01*
X86129890Y-104716564D01*
X86137167Y-104731393D01*
X86139483Y-104733432D01*
X86141009Y-104736115D01*
X86154043Y-104746253D01*
X86166451Y-104757178D01*
X86170405Y-104758978D01*
X86171808Y-104760070D01*
X86174313Y-104760759D01*
X86184291Y-104765303D01*
X86871763Y-105000189D01*
X86165702Y-105417943D01*
X86152341Y-105427733D01*
X86151182Y-105428393D01*
X86150837Y-105428835D01*
X86149890Y-105429530D01*
X86138685Y-105444460D01*
X86127227Y-105459192D01*
X86126994Y-105460037D01*
X86126469Y-105460738D01*
X86121833Y-105478807D01*
X86116882Y-105496814D01*
X86116990Y-105497683D01*
X86116773Y-105498532D01*
X85554193Y-105498532D01*
X85554193Y-105466802D01*
X85552272Y-105447293D01*
X85550391Y-105442752D01*
X85549914Y-105437862D01*
X85542429Y-105419744D01*
X85482906Y-105308137D01*
X85476965Y-105299228D01*
X85475884Y-105296849D01*
X85474543Y-105295596D01*
X85472030Y-105291827D01*
X85459355Y-105281405D01*
X85447374Y-105270211D01*
X85443310Y-105268213D01*
X85441891Y-105267046D01*
X85439385Y-105266283D01*
X85429782Y-105261562D01*
X85310734Y-105216919D01*
X85291793Y-105211868D01*
X85287223Y-105212023D01*
X85282815Y-105210811D01*
X85263218Y-105211324D01*
X85144171Y-105226205D01*
X85125050Y-105230531D01*
X85123216Y-105231573D01*
X85121136Y-105231922D01*
X85103575Y-105240633D01*
X84984527Y-105315037D01*
X84969002Y-105327006D01*
X84963764Y-105334349D01*
X84957090Y-105340423D01*
X84947045Y-105357257D01*
X84887521Y-105483746D01*
X84880952Y-105502217D01*
X84880839Y-105504607D01*
X84879924Y-105506817D01*
X84878003Y-105526326D01*
X84878003Y-105801590D01*
X84851441Y-105858034D01*
X84811474Y-105863030D01*
X84750850Y-105840295D01*
X84720860Y-105784064D01*
X84720860Y-105593322D01*
X84770866Y-105487060D01*
X84777435Y-105468590D01*
X84779273Y-105429615D01*
X84766057Y-105392903D01*
X84739798Y-105364043D01*
X84704494Y-105347429D01*
X84665519Y-105345591D01*
X84628807Y-105358807D01*
X84599947Y-105385066D01*
X84589902Y-105401900D01*
X84530378Y-105528388D01*
X84523809Y-105546858D01*
X84523696Y-105549249D01*
X84522781Y-105551459D01*
X84520860Y-105570968D01*
X83965304Y-105570968D01*
X83965304Y-104499540D01*
X84520860Y-104499540D01*
X84520860Y-104678112D01*
X84522781Y-104697621D01*
X84524661Y-104702161D01*
X84525139Y-104707053D01*
X84532625Y-104725171D01*
X84592149Y-104836778D01*
X84600239Y-104848911D01*
X84601117Y-104850685D01*
X84602171Y-104851808D01*
X84603025Y-104853088D01*
X84604549Y-104854341D01*
X84614534Y-104864977D01*
X84674058Y-104917060D01*
X84685707Y-104925388D01*
X84687203Y-104926786D01*
X84688673Y-104927508D01*
X84690005Y-104928461D01*
X84691943Y-104929116D01*
X84704795Y-104935435D01*
X84823842Y-104980078D01*
X84842783Y-104985129D01*
X84847353Y-104984973D01*
X84851762Y-104986186D01*
X84871359Y-104985673D01*
X85228501Y-104941030D01*
X85247621Y-104936704D01*
X85249454Y-104935661D01*
X85251536Y-104935313D01*
X85269098Y-104926602D01*
X85388146Y-104852197D01*
X85393379Y-104848162D01*
X85395490Y-104847139D01*
X85399431Y-104843496D01*
X85403671Y-104840228D01*
X85405029Y-104838323D01*
X85409887Y-104833834D01*
X85469411Y-104766870D01*
X85473361Y-104761434D01*
X85475107Y-104759846D01*
X85477819Y-104755300D01*
X85480936Y-104751012D01*
X85481710Y-104748779D01*
X85485152Y-104743012D01*
X85544675Y-104616525D01*
X85551244Y-104598055D01*
X85551356Y-104595663D01*
X85552272Y-104593454D01*
X85554193Y-104573945D01*
X85554193Y-104395374D01*
X85552272Y-104375865D01*
X85550391Y-104371324D01*
X85549914Y-104366433D01*
X85542428Y-104348316D01*
X85482906Y-104236708D01*
X85474813Y-104224571D01*
X85473937Y-104222800D01*
X85472883Y-104221677D01*
X85472030Y-104220398D01*
X85470504Y-104219144D01*
X85460520Y-104208508D01*
X85400996Y-104156425D01*
X85389342Y-104148093D01*
X85387850Y-104146699D01*
X85386383Y-104145977D01*
X85385049Y-104145024D01*
X85383107Y-104144367D01*
X85370258Y-104138050D01*
X85251210Y-104093407D01*
X85232269Y-104088356D01*
X85227699Y-104088511D01*
X85223291Y-104087299D01*
X85203694Y-104087812D01*
X84846551Y-104132455D01*
X84827431Y-104136781D01*
X84825595Y-104137824D01*
X84823516Y-104138173D01*
X84805955Y-104146883D01*
X84686908Y-104221288D01*
X84681670Y-104225325D01*
X84679564Y-104226347D01*
X84675630Y-104229981D01*
X84671382Y-104233257D01*
X84670021Y-104235165D01*
X84665167Y-104239651D01*
X84605643Y-104306615D01*
X84601694Y-104312047D01*
X84599947Y-104313638D01*
X84597231Y-104318189D01*
X84594118Y-104322473D01*
X84593344Y-104324703D01*
X84589902Y-104330472D01*
X84530378Y-104456960D01*
X84523809Y-104475430D01*
X84523696Y-104477821D01*
X84522781Y-104480031D01*
X84520860Y-104499540D01*
X83965304Y-104499540D01*
X83965304Y-103123052D01*
X84104193Y-103123052D01*
X84104193Y-103539719D01*
X84106114Y-103559228D01*
X84107994Y-103563768D01*
X84108472Y-103568660D01*
X84115958Y-103586778D01*
X84175482Y-103698385D01*
X84183572Y-103710518D01*
X84184450Y-103712292D01*
X84185504Y-103713415D01*
X84186358Y-103714695D01*
X84187882Y-103715948D01*
X84197867Y-103726584D01*
X84257391Y-103778667D01*
X84269039Y-103786995D01*
X84270536Y-103788393D01*
X84272005Y-103789115D01*
X84273338Y-103790068D01*
X84275277Y-103790723D01*
X84288129Y-103797042D01*
X84407176Y-103841685D01*
X84426118Y-103846736D01*
X84430687Y-103846580D01*
X84435096Y-103847793D01*
X84454693Y-103847280D01*
X84573739Y-103832399D01*
X84592859Y-103828073D01*
X84594692Y-103827030D01*
X84596774Y-103826682D01*
X84614336Y-103817971D01*
X84733384Y-103743566D01*
X84738617Y-103739531D01*
X84740728Y-103738508D01*
X84744669Y-103734865D01*
X84748909Y-103731597D01*
X84750267Y-103729692D01*
X84755125Y-103725203D01*
X84779760Y-103697488D01*
X84793105Y-103711703D01*
X84852629Y-103763786D01*
X84864277Y-103772114D01*
X84865774Y-103773512D01*
X84867243Y-103774234D01*
X84868576Y-103775187D01*
X84870515Y-103775842D01*
X84883367Y-103782161D01*
X85002414Y-103826804D01*
X85021356Y-103831855D01*
X85025925Y-103831699D01*
X85030334Y-103832912D01*
X85049930Y-103832399D01*
X85228502Y-103810078D01*
X85247622Y-103805752D01*
X85249455Y-103804709D01*
X85251536Y-103804361D01*
X85269098Y-103795650D01*
X85388146Y-103721245D01*
X85393379Y-103717210D01*
X85395490Y-103716187D01*
X85399431Y-103712544D01*
X85403671Y-103709276D01*
X85405029Y-103707371D01*
X85409887Y-103702882D01*
X85469411Y-103635918D01*
X85473361Y-103630482D01*
X85475107Y-103628894D01*
X85477819Y-103624348D01*
X85480936Y-103620060D01*
X85481710Y-103617827D01*
X85485152Y-103612060D01*
X85544675Y-103485573D01*
X85551244Y-103467103D01*
X85551356Y-103464711D01*
X85552272Y-103462502D01*
X85554193Y-103442993D01*
X85554193Y-103056338D01*
X86116882Y-103056338D01*
X86121721Y-103095054D01*
X86141009Y-103128972D01*
X86171808Y-103152927D01*
X86209430Y-103163272D01*
X86229026Y-103162759D01*
X87276009Y-103031886D01*
X87336632Y-103054620D01*
X87378387Y-103132911D01*
X87389263Y-103149221D01*
X87419401Y-103174001D01*
X87456729Y-103185362D01*
X87495563Y-103181574D01*
X87529991Y-103163213D01*
X87554771Y-103133074D01*
X87566132Y-103095746D01*
X87562344Y-103056912D01*
X87554858Y-103038795D01*
X87495336Y-102927187D01*
X87489395Y-102918278D01*
X87488314Y-102915899D01*
X87486973Y-102914646D01*
X87484460Y-102910877D01*
X87471793Y-102900463D01*
X87459804Y-102889260D01*
X87455735Y-102887259D01*
X87454321Y-102886097D01*
X87451823Y-102885336D01*
X87442212Y-102880612D01*
X87323164Y-102835970D01*
X87304222Y-102830919D01*
X87299653Y-102831074D01*
X87295245Y-102829862D01*
X87275649Y-102830375D01*
X86204220Y-102964303D01*
X86185100Y-102968629D01*
X86151182Y-102987917D01*
X86127227Y-103018716D01*
X86116882Y-103056338D01*
X85554193Y-103056338D01*
X85554193Y-102966802D01*
X85552272Y-102947293D01*
X85549872Y-102941501D01*
X85549095Y-102935278D01*
X85542468Y-102923624D01*
X85537340Y-102911245D01*
X85532906Y-102906811D01*
X85529807Y-102901361D01*
X85519227Y-102893132D01*
X85509750Y-102883655D01*
X85503957Y-102881255D01*
X85499008Y-102877406D01*
X85486086Y-102873852D01*
X85473702Y-102868723D01*
X85467430Y-102868723D01*
X85461386Y-102867061D01*
X85441790Y-102867574D01*
X84191790Y-103023824D01*
X84186711Y-103024973D01*
X84184684Y-103024973D01*
X84182243Y-103025983D01*
X84172669Y-103028150D01*
X84161015Y-103034776D01*
X84148636Y-103039905D01*
X84144202Y-103044338D01*
X84138752Y-103047438D01*
X84130523Y-103058017D01*
X84121046Y-103067495D01*
X84118646Y-103073287D01*
X84114797Y-103078237D01*
X84111243Y-103091158D01*
X84106114Y-103103543D01*
X84105151Y-103113313D01*
X84104452Y-103115859D01*
X84104703Y-103117869D01*
X84104193Y-103123052D01*
X83965304Y-103123052D01*
X83965304Y-101999543D01*
X86533290Y-101999543D01*
X86533290Y-102237639D01*
X86535211Y-102257148D01*
X86537091Y-102261688D01*
X86537569Y-102266580D01*
X86545055Y-102284698D01*
X86604579Y-102396305D01*
X86610515Y-102405208D01*
X86611599Y-102407591D01*
X86612941Y-102408844D01*
X86615455Y-102412615D01*
X86628122Y-102423029D01*
X86640109Y-102434230D01*
X86644177Y-102436230D01*
X86645594Y-102437395D01*
X86648094Y-102438155D01*
X86657701Y-102442879D01*
X86776748Y-102487522D01*
X86795689Y-102492573D01*
X86800259Y-102492417D01*
X86804668Y-102493630D01*
X86824265Y-102493117D01*
X87479027Y-102411271D01*
X87498147Y-102406945D01*
X87532065Y-102387657D01*
X87556019Y-102356858D01*
X87566365Y-102319236D01*
X87561525Y-102280519D01*
X87547533Y-102255915D01*
X87557105Y-102235576D01*
X87563674Y-102217106D01*
X87563786Y-102214714D01*
X87564702Y-102212505D01*
X87566623Y-102192996D01*
X87566623Y-101895377D01*
X87564702Y-101875868D01*
X87562821Y-101871327D01*
X87562344Y-101866437D01*
X87554859Y-101848319D01*
X87495336Y-101736712D01*
X87489395Y-101727803D01*
X87488314Y-101725424D01*
X87486973Y-101724171D01*
X87484460Y-101720402D01*
X87471785Y-101709980D01*
X87459804Y-101698786D01*
X87455740Y-101696788D01*
X87454321Y-101695621D01*
X87451815Y-101694858D01*
X87442212Y-101690137D01*
X87323164Y-101645494D01*
X87304223Y-101640443D01*
X87299653Y-101640598D01*
X87295245Y-101639386D01*
X87275648Y-101639899D01*
X87156601Y-101654780D01*
X87137480Y-101659106D01*
X87135646Y-101660148D01*
X87133566Y-101660497D01*
X87116005Y-101669208D01*
X86996957Y-101743612D01*
X86981432Y-101755581D01*
X86976194Y-101762924D01*
X86969520Y-101768998D01*
X86959475Y-101785832D01*
X86899951Y-101912321D01*
X86893382Y-101930792D01*
X86893269Y-101933182D01*
X86892354Y-101935392D01*
X86890433Y-101954901D01*
X86890433Y-102230165D01*
X86863871Y-102286609D01*
X86823904Y-102291605D01*
X86763280Y-102268870D01*
X86733290Y-102212639D01*
X86733290Y-102021897D01*
X86783296Y-101915635D01*
X86789865Y-101897165D01*
X86791703Y-101858190D01*
X86778487Y-101821478D01*
X86752228Y-101792618D01*
X86716924Y-101776004D01*
X86677949Y-101774166D01*
X86641237Y-101787382D01*
X86612377Y-101813641D01*
X86602332Y-101830475D01*
X86542808Y-101956963D01*
X86536239Y-101975433D01*
X86536126Y-101977824D01*
X86535211Y-101980034D01*
X86533290Y-101999543D01*
X83965304Y-101999543D01*
X83965304Y-101166207D01*
X84520860Y-101166207D01*
X84520860Y-101344779D01*
X84522781Y-101364288D01*
X84524661Y-101368828D01*
X84525139Y-101373720D01*
X84532625Y-101391838D01*
X84592149Y-101503445D01*
X84598085Y-101512348D01*
X84599169Y-101514731D01*
X84600511Y-101515984D01*
X84603025Y-101519755D01*
X84615692Y-101530169D01*
X84627679Y-101541370D01*
X84631747Y-101543370D01*
X84633164Y-101544535D01*
X84635664Y-101545295D01*
X84645271Y-101550019D01*
X84764318Y-101594662D01*
X84783259Y-101599713D01*
X84787829Y-101599557D01*
X84792238Y-101600770D01*
X84811835Y-101600257D01*
X85466597Y-101518411D01*
X85485717Y-101514085D01*
X85519635Y-101494797D01*
X85543589Y-101463998D01*
X85553935Y-101426376D01*
X85549095Y-101387659D01*
X85529807Y-101353742D01*
X85499008Y-101329787D01*
X85461386Y-101319442D01*
X85441790Y-101319955D01*
X84811474Y-101398745D01*
X84750850Y-101376010D01*
X84720860Y-101319779D01*
X84720860Y-101188561D01*
X84764717Y-101095364D01*
X84789650Y-101067315D01*
X85427068Y-100987638D01*
X86533290Y-100987638D01*
X86533290Y-101225733D01*
X86535211Y-101245242D01*
X86537091Y-101249782D01*
X86537569Y-101254674D01*
X86545055Y-101272792D01*
X86604579Y-101384400D01*
X86615454Y-101400710D01*
X86645593Y-101425490D01*
X86682921Y-101436851D01*
X86721755Y-101433062D01*
X86756183Y-101414701D01*
X86780963Y-101384562D01*
X86792323Y-101347234D01*
X86788535Y-101308400D01*
X86781049Y-101290282D01*
X86733290Y-101200733D01*
X86733290Y-101009992D01*
X86777147Y-100916795D01*
X86817529Y-100871366D01*
X86905678Y-100816272D01*
X87216484Y-100777421D01*
X87295423Y-100807024D01*
X87327476Y-100835069D01*
X87366623Y-100908472D01*
X87366623Y-101099214D01*
X87316618Y-101205476D01*
X87310049Y-101223946D01*
X87308211Y-101262921D01*
X87321427Y-101299632D01*
X87347687Y-101328492D01*
X87382991Y-101345106D01*
X87421966Y-101346944D01*
X87458677Y-101333728D01*
X87487537Y-101307468D01*
X87497582Y-101290634D01*
X87557105Y-101164147D01*
X87563674Y-101145677D01*
X87563786Y-101143285D01*
X87564702Y-101141076D01*
X87566623Y-101121567D01*
X87566623Y-100883472D01*
X87564702Y-100863963D01*
X87562821Y-100859422D01*
X87562344Y-100854531D01*
X87554858Y-100836414D01*
X87495336Y-100724806D01*
X87487243Y-100712669D01*
X87486367Y-100710898D01*
X87485313Y-100709775D01*
X87484460Y-100708496D01*
X87482934Y-100707242D01*
X87472950Y-100696606D01*
X87413426Y-100644523D01*
X87401772Y-100636191D01*
X87400280Y-100634797D01*
X87398813Y-100634075D01*
X87397479Y-100633122D01*
X87395537Y-100632465D01*
X87382688Y-100626148D01*
X87263640Y-100581505D01*
X87244699Y-100576454D01*
X87240129Y-100576609D01*
X87235721Y-100575397D01*
X87216124Y-100575910D01*
X86858981Y-100620553D01*
X86839861Y-100624879D01*
X86838025Y-100625922D01*
X86835946Y-100626271D01*
X86818385Y-100634981D01*
X86699338Y-100709386D01*
X86694100Y-100713423D01*
X86691994Y-100714445D01*
X86688060Y-100718079D01*
X86683812Y-100721355D01*
X86682451Y-100723263D01*
X86677597Y-100727749D01*
X86618073Y-100794713D01*
X86614124Y-100800145D01*
X86612377Y-100801736D01*
X86609661Y-100806287D01*
X86606548Y-100810571D01*
X86605774Y-100812801D01*
X86602332Y-100818570D01*
X86542808Y-100945058D01*
X86536239Y-100963528D01*
X86536126Y-100965919D01*
X86535211Y-100968129D01*
X86533290Y-100987638D01*
X85427068Y-100987638D01*
X85466596Y-100982697D01*
X85485716Y-100978371D01*
X85519634Y-100959083D01*
X85543589Y-100928284D01*
X85553934Y-100890662D01*
X85549095Y-100851945D01*
X85529807Y-100818028D01*
X85499008Y-100794073D01*
X85461386Y-100783728D01*
X85441789Y-100784241D01*
X84608456Y-100888408D01*
X84589336Y-100892734D01*
X84555419Y-100912022D01*
X84531464Y-100942821D01*
X84521119Y-100980443D01*
X84525958Y-101019160D01*
X84545246Y-101053077D01*
X84558666Y-101063514D01*
X84530378Y-101123627D01*
X84523809Y-101142097D01*
X84523696Y-101144488D01*
X84522781Y-101146698D01*
X84520860Y-101166207D01*
X83965304Y-101166207D01*
X83965304Y-100437288D01*
X84104452Y-100437288D01*
X84106472Y-100453454D01*
X84107429Y-100469715D01*
X84107603Y-100470075D01*
X84107630Y-100470471D01*
X84108927Y-100473094D01*
X84109291Y-100476005D01*
X84117343Y-100490165D01*
X84124451Y-100504825D01*
X84124749Y-100505090D01*
X84124926Y-100505447D01*
X84127736Y-100508441D01*
X84128579Y-100509922D01*
X84130609Y-100511501D01*
X84138343Y-100519739D01*
X84197867Y-100571822D01*
X84212618Y-100582368D01*
X84213138Y-100582830D01*
X84213383Y-100582915D01*
X84213814Y-100583223D01*
X84231948Y-100589355D01*
X84250001Y-100595619D01*
X84250398Y-100595595D01*
X84250775Y-100595723D01*
X84269795Y-100594454D01*
X84288951Y-100593328D01*
X84289311Y-100593153D01*
X84289707Y-100593127D01*
X84306761Y-100584693D01*
X84324061Y-100576306D01*
X84324451Y-100575944D01*
X84324682Y-100575831D01*
X84325134Y-100575314D01*
X84338458Y-100563001D01*
X84397982Y-100496037D01*
X84409507Y-100480179D01*
X84409637Y-100479803D01*
X84409900Y-100479503D01*
X84410839Y-100476724D01*
X84412636Y-100474415D01*
X84416953Y-100458716D01*
X84422296Y-100443316D01*
X84422272Y-100442917D01*
X84422400Y-100442541D01*
X84422205Y-100439618D01*
X84422982Y-100436793D01*
X84420961Y-100420633D01*
X84420005Y-100404366D01*
X84419830Y-100404006D01*
X84419804Y-100403609D01*
X84418505Y-100400982D01*
X84418142Y-100398077D01*
X84410822Y-100385205D01*
X84521119Y-100385205D01*
X84525958Y-100423922D01*
X84545246Y-100457839D01*
X84576045Y-100481794D01*
X84613667Y-100492139D01*
X84633264Y-100491626D01*
X85466596Y-100387459D01*
X85485716Y-100383133D01*
X85519634Y-100363845D01*
X85543589Y-100333046D01*
X85553934Y-100295424D01*
X85549346Y-100258719D01*
X86116882Y-100258719D01*
X86118902Y-100274885D01*
X86119859Y-100291146D01*
X86120033Y-100291506D01*
X86120060Y-100291902D01*
X86121357Y-100294525D01*
X86121721Y-100297436D01*
X86129773Y-100311596D01*
X86136881Y-100326256D01*
X86137179Y-100326521D01*
X86137356Y-100326878D01*
X86140166Y-100329872D01*
X86141009Y-100331353D01*
X86143039Y-100332932D01*
X86150773Y-100341170D01*
X86210297Y-100393253D01*
X86225048Y-100403799D01*
X86225568Y-100404261D01*
X86225813Y-100404346D01*
X86226244Y-100404654D01*
X86244378Y-100410786D01*
X86262431Y-100417050D01*
X86262828Y-100417026D01*
X86263205Y-100417154D01*
X86282225Y-100415885D01*
X86301381Y-100414759D01*
X86301741Y-100414584D01*
X86302137Y-100414558D01*
X86319191Y-100406124D01*
X86336491Y-100397737D01*
X86336881Y-100397375D01*
X86337112Y-100397262D01*
X86337564Y-100396745D01*
X86350888Y-100384432D01*
X86410412Y-100317468D01*
X86421937Y-100301610D01*
X86422067Y-100301234D01*
X86422330Y-100300934D01*
X86423269Y-100298155D01*
X86425066Y-100295846D01*
X86429383Y-100280147D01*
X86434726Y-100264747D01*
X86434702Y-100264348D01*
X86434830Y-100263972D01*
X86434635Y-100261049D01*
X86435412Y-100258224D01*
X86433391Y-100242064D01*
X86432435Y-100225797D01*
X86432260Y-100225437D01*
X86432234Y-100225040D01*
X86430935Y-100222413D01*
X86430572Y-100219508D01*
X86423252Y-100206636D01*
X86533549Y-100206636D01*
X86538388Y-100245353D01*
X86557676Y-100279270D01*
X86588475Y-100303225D01*
X86626097Y-100313570D01*
X86645694Y-100313057D01*
X87479026Y-100208890D01*
X87498146Y-100204564D01*
X87532064Y-100185276D01*
X87556019Y-100154477D01*
X87566364Y-100116855D01*
X87561525Y-100078138D01*
X87542237Y-100044221D01*
X87511438Y-100020266D01*
X87473816Y-100009921D01*
X87454219Y-100010434D01*
X86620886Y-100114601D01*
X86601766Y-100118927D01*
X86567849Y-100138215D01*
X86543894Y-100169014D01*
X86533549Y-100206636D01*
X86423252Y-100206636D01*
X86422524Y-100205355D01*
X86415412Y-100190687D01*
X86415115Y-100190423D01*
X86414938Y-100190065D01*
X86412124Y-100187068D01*
X86411284Y-100185590D01*
X86409256Y-100184013D01*
X86401521Y-100175773D01*
X86341997Y-100123690D01*
X86327245Y-100113143D01*
X86326726Y-100112682D01*
X86326480Y-100112596D01*
X86326050Y-100112289D01*
X86307934Y-100106162D01*
X86289863Y-100099893D01*
X86289464Y-100099916D01*
X86289088Y-100099789D01*
X86270064Y-100101057D01*
X86250913Y-100102184D01*
X86250552Y-100102358D01*
X86250157Y-100102385D01*
X86233024Y-100110856D01*
X86215803Y-100119207D01*
X86215415Y-100119564D01*
X86215181Y-100119681D01*
X86214720Y-100120207D01*
X86201406Y-100132511D01*
X86141882Y-100199475D01*
X86130357Y-100215333D01*
X86130226Y-100215708D01*
X86129964Y-100216009D01*
X86129025Y-100218785D01*
X86127227Y-100221097D01*
X86122908Y-100236803D01*
X86117568Y-100252196D01*
X86117591Y-100252594D01*
X86117464Y-100252971D01*
X86117658Y-100255893D01*
X86116882Y-100258719D01*
X85549346Y-100258719D01*
X85549095Y-100256707D01*
X85529807Y-100222790D01*
X85499008Y-100198835D01*
X85461386Y-100188490D01*
X85441789Y-100189003D01*
X84608456Y-100293170D01*
X84589336Y-100297496D01*
X84555419Y-100316784D01*
X84531464Y-100347583D01*
X84521119Y-100385205D01*
X84410822Y-100385205D01*
X84410094Y-100383924D01*
X84402982Y-100369256D01*
X84402685Y-100368992D01*
X84402508Y-100368634D01*
X84399694Y-100365637D01*
X84398854Y-100364159D01*
X84396826Y-100362582D01*
X84389091Y-100354342D01*
X84329567Y-100302259D01*
X84314815Y-100291712D01*
X84314296Y-100291251D01*
X84314050Y-100291165D01*
X84313620Y-100290858D01*
X84295504Y-100284731D01*
X84277433Y-100278462D01*
X84277034Y-100278485D01*
X84276658Y-100278358D01*
X84257634Y-100279626D01*
X84238483Y-100280753D01*
X84238122Y-100280927D01*
X84237727Y-100280954D01*
X84220594Y-100289425D01*
X84203373Y-100297776D01*
X84202985Y-100298133D01*
X84202751Y-100298250D01*
X84202290Y-100298776D01*
X84188976Y-100311080D01*
X84129452Y-100378044D01*
X84117927Y-100393902D01*
X84117796Y-100394277D01*
X84117534Y-100394578D01*
X84116595Y-100397354D01*
X84114797Y-100399666D01*
X84110478Y-100415372D01*
X84105138Y-100430765D01*
X84105161Y-100431163D01*
X84105034Y-100431540D01*
X84105228Y-100434462D01*
X84104452Y-100437288D01*
X83965304Y-100437288D01*
X83965304Y-99380493D01*
X84520860Y-99380493D01*
X84520860Y-99618589D01*
X84522781Y-99638098D01*
X84524661Y-99642638D01*
X84525139Y-99647530D01*
X84532625Y-99665648D01*
X84592149Y-99777255D01*
X84598085Y-99786158D01*
X84599169Y-99788541D01*
X84600511Y-99789794D01*
X84603025Y-99793565D01*
X84615692Y-99803979D01*
X84627679Y-99815180D01*
X84631747Y-99817180D01*
X84633164Y-99818345D01*
X84635664Y-99819105D01*
X84645271Y-99823829D01*
X84764318Y-99868472D01*
X84783259Y-99873523D01*
X84787829Y-99873367D01*
X84792238Y-99874580D01*
X84811835Y-99874067D01*
X85466597Y-99792221D01*
X85485717Y-99787895D01*
X85519635Y-99768607D01*
X85543589Y-99737808D01*
X85553935Y-99700186D01*
X85549095Y-99661469D01*
X85535103Y-99636865D01*
X85544675Y-99616526D01*
X85551244Y-99598056D01*
X85551356Y-99595664D01*
X85552272Y-99593455D01*
X85554193Y-99573946D01*
X85554193Y-99544433D01*
X86116882Y-99544433D01*
X86121721Y-99583149D01*
X86141009Y-99617067D01*
X86171808Y-99641022D01*
X86209430Y-99651367D01*
X86229026Y-99650854D01*
X86533290Y-99612821D01*
X86533290Y-99797162D01*
X86535211Y-99816671D01*
X86550143Y-99852719D01*
X86577733Y-99880309D01*
X86613781Y-99895241D01*
X86652799Y-99895241D01*
X86688847Y-99880309D01*
X86716437Y-99852719D01*
X86731369Y-99816671D01*
X86733290Y-99797162D01*
X86733290Y-99587821D01*
X87276009Y-99519981D01*
X87336632Y-99542715D01*
X87366623Y-99598948D01*
X87366623Y-99692995D01*
X87368544Y-99712504D01*
X87383476Y-99748552D01*
X87411066Y-99776142D01*
X87447114Y-99791074D01*
X87486132Y-99791074D01*
X87522180Y-99776142D01*
X87549770Y-99748552D01*
X87564702Y-99712504D01*
X87566623Y-99692995D01*
X87566623Y-99573948D01*
X87564702Y-99554439D01*
X87562821Y-99549898D01*
X87562344Y-99545007D01*
X87554858Y-99526890D01*
X87495336Y-99415282D01*
X87489395Y-99406373D01*
X87488314Y-99403994D01*
X87486973Y-99402741D01*
X87484460Y-99398972D01*
X87471793Y-99388558D01*
X87459804Y-99377355D01*
X87455735Y-99375354D01*
X87454321Y-99374192D01*
X87451823Y-99373431D01*
X87442212Y-99368707D01*
X87323164Y-99324065D01*
X87304222Y-99319014D01*
X87299653Y-99319169D01*
X87295245Y-99317957D01*
X87275649Y-99318470D01*
X86733290Y-99386264D01*
X86733290Y-99320971D01*
X86731369Y-99301462D01*
X86716437Y-99265414D01*
X86688847Y-99237824D01*
X86652799Y-99222892D01*
X86613781Y-99222892D01*
X86577733Y-99237824D01*
X86550143Y-99265414D01*
X86535211Y-99301462D01*
X86533290Y-99320971D01*
X86533290Y-99411264D01*
X86204220Y-99452398D01*
X86185100Y-99456724D01*
X86151182Y-99476012D01*
X86127227Y-99506811D01*
X86116882Y-99544433D01*
X85554193Y-99544433D01*
X85554193Y-99276327D01*
X85552272Y-99256818D01*
X85550391Y-99252277D01*
X85549914Y-99247387D01*
X85542429Y-99229269D01*
X85482906Y-99117662D01*
X85476965Y-99108753D01*
X85475884Y-99106374D01*
X85474543Y-99105121D01*
X85472030Y-99101352D01*
X85459355Y-99090930D01*
X85447374Y-99079736D01*
X85443310Y-99077738D01*
X85441891Y-99076571D01*
X85439385Y-99075808D01*
X85429782Y-99071087D01*
X85310734Y-99026444D01*
X85291793Y-99021393D01*
X85287223Y-99021548D01*
X85282815Y-99020336D01*
X85263218Y-99020849D01*
X85144171Y-99035730D01*
X85125050Y-99040056D01*
X85123216Y-99041098D01*
X85121136Y-99041447D01*
X85103575Y-99050158D01*
X84984527Y-99124562D01*
X84969002Y-99136531D01*
X84963764Y-99143874D01*
X84957090Y-99149948D01*
X84947045Y-99166782D01*
X84887521Y-99293271D01*
X84880952Y-99311742D01*
X84880839Y-99314132D01*
X84879924Y-99316342D01*
X84878003Y-99335851D01*
X84878003Y-99611115D01*
X84851441Y-99667559D01*
X84811474Y-99672555D01*
X84750850Y-99649820D01*
X84720860Y-99593589D01*
X84720860Y-99402847D01*
X84770866Y-99296585D01*
X84777435Y-99278115D01*
X84779273Y-99239140D01*
X84766057Y-99202428D01*
X84739798Y-99173568D01*
X84704494Y-99156954D01*
X84665519Y-99155116D01*
X84628807Y-99168332D01*
X84599947Y-99194591D01*
X84589902Y-99211425D01*
X84530378Y-99337913D01*
X84523809Y-99356383D01*
X84523696Y-99358774D01*
X84522781Y-99360984D01*
X84520860Y-99380493D01*
X83965304Y-99380493D01*
X83965304Y-98963828D01*
X86533290Y-98963828D01*
X86533290Y-99082876D01*
X86535211Y-99102385D01*
X86550143Y-99138433D01*
X86577733Y-99166023D01*
X86613781Y-99180955D01*
X86652799Y-99180955D01*
X86688847Y-99166023D01*
X86716437Y-99138433D01*
X86731369Y-99102385D01*
X86733290Y-99082876D01*
X86733290Y-98986182D01*
X86777147Y-98892985D01*
X86817529Y-98847556D01*
X86905678Y-98792462D01*
X87479026Y-98720794D01*
X87498146Y-98716468D01*
X87532064Y-98697180D01*
X87556019Y-98666381D01*
X87566364Y-98628759D01*
X87561525Y-98590042D01*
X87542237Y-98556125D01*
X87511438Y-98532170D01*
X87473816Y-98521825D01*
X87454219Y-98522338D01*
X86620886Y-98626505D01*
X86601766Y-98630831D01*
X86567849Y-98650119D01*
X86543894Y-98680918D01*
X86533549Y-98718540D01*
X86538388Y-98757257D01*
X86557676Y-98791174D01*
X86588475Y-98815129D01*
X86592257Y-98816168D01*
X86542808Y-98921248D01*
X86536239Y-98939718D01*
X86536126Y-98942109D01*
X86535211Y-98944319D01*
X86533290Y-98963828D01*
X83965304Y-98963828D01*
X83965304Y-98712816D01*
X84104343Y-98712816D01*
X84106974Y-98731283D01*
X84109291Y-98749815D01*
X84109724Y-98750577D01*
X84109848Y-98751444D01*
X84119358Y-98767518D01*
X84128579Y-98783732D01*
X84129269Y-98784268D01*
X84129716Y-98785024D01*
X84144646Y-98796228D01*
X84159378Y-98807687D01*
X84160223Y-98807919D01*
X84160924Y-98808445D01*
X84178993Y-98813080D01*
X84197000Y-98818032D01*
X84198173Y-98818001D01*
X84198718Y-98818141D01*
X84200041Y-98817952D01*
X84216596Y-98817519D01*
X85466597Y-98661269D01*
X85485717Y-98656943D01*
X85519634Y-98637655D01*
X85543589Y-98606856D01*
X85553935Y-98569234D01*
X85549095Y-98530517D01*
X85529807Y-98496600D01*
X85499008Y-98472645D01*
X85461386Y-98462300D01*
X85441790Y-98462813D01*
X84669130Y-98559395D01*
X85147971Y-98276082D01*
X85155408Y-98270631D01*
X85157768Y-98269474D01*
X85159185Y-98267863D01*
X85163783Y-98264495D01*
X85173197Y-98251950D01*
X85183553Y-98240190D01*
X85184830Y-98236450D01*
X85187204Y-98233288D01*
X85191100Y-98218098D01*
X85196168Y-98203267D01*
X85195917Y-98199323D01*
X85196900Y-98195493D01*
X85194686Y-98179963D01*
X85193693Y-98164328D01*
X85191953Y-98160782D01*
X85191395Y-98156865D01*
X85183409Y-98143368D01*
X85176506Y-98129299D01*
X85173538Y-98126686D01*
X85171526Y-98123285D01*
X85158991Y-98113878D01*
X85147221Y-98103514D01*
X85142035Y-98101152D01*
X85140319Y-98099864D01*
X85137771Y-98099210D01*
X85129381Y-98095389D01*
X84646593Y-97930436D01*
X85466597Y-97827936D01*
X85485717Y-97823610D01*
X85519634Y-97804322D01*
X85543589Y-97773523D01*
X85543636Y-97773351D01*
X86533290Y-97773351D01*
X86533290Y-98011447D01*
X86535211Y-98030956D01*
X86537091Y-98035496D01*
X86537569Y-98040388D01*
X86545055Y-98058506D01*
X86604579Y-98170113D01*
X86610515Y-98179016D01*
X86611599Y-98181399D01*
X86612941Y-98182652D01*
X86615455Y-98186423D01*
X86628122Y-98196837D01*
X86640109Y-98208038D01*
X86644177Y-98210038D01*
X86645594Y-98211203D01*
X86648094Y-98211963D01*
X86657701Y-98216687D01*
X86776748Y-98261330D01*
X86795689Y-98266381D01*
X86800259Y-98266225D01*
X86804668Y-98267438D01*
X86824264Y-98266925D01*
X86943312Y-98252044D01*
X86962432Y-98247718D01*
X86965761Y-98245824D01*
X86969514Y-98245064D01*
X86982615Y-98236240D01*
X86996350Y-98228430D01*
X86998701Y-98225406D01*
X87001877Y-98223268D01*
X87010607Y-98210098D01*
X87020304Y-98197631D01*
X87021318Y-98193940D01*
X87023436Y-98190747D01*
X87029058Y-98171967D01*
X87134234Y-97632940D01*
X87276008Y-97615218D01*
X87336633Y-97637953D01*
X87366623Y-97694184D01*
X87366623Y-97884927D01*
X87316618Y-97991189D01*
X87310049Y-98009659D01*
X87308211Y-98048634D01*
X87321427Y-98085345D01*
X87347687Y-98114205D01*
X87382991Y-98130819D01*
X87421966Y-98132657D01*
X87458677Y-98119441D01*
X87487537Y-98093181D01*
X87497582Y-98076347D01*
X87557105Y-97949860D01*
X87563674Y-97931390D01*
X87563786Y-97928998D01*
X87564702Y-97926789D01*
X87566623Y-97907280D01*
X87566623Y-97669185D01*
X87564702Y-97649676D01*
X87562821Y-97645135D01*
X87562344Y-97640245D01*
X87554859Y-97622127D01*
X87495336Y-97510520D01*
X87489395Y-97501611D01*
X87488314Y-97499232D01*
X87486973Y-97497979D01*
X87484460Y-97494210D01*
X87471785Y-97483788D01*
X87459804Y-97472594D01*
X87455740Y-97470596D01*
X87454321Y-97469429D01*
X87451815Y-97468666D01*
X87442212Y-97463945D01*
X87323164Y-97419302D01*
X87304223Y-97414251D01*
X87299653Y-97414406D01*
X87295245Y-97413194D01*
X87275649Y-97413707D01*
X86799458Y-97473231D01*
X86780337Y-97477557D01*
X86778503Y-97478599D01*
X86776423Y-97478948D01*
X86758862Y-97487659D01*
X86639814Y-97562063D01*
X86624289Y-97574032D01*
X86619051Y-97581375D01*
X86612377Y-97587449D01*
X86602332Y-97604283D01*
X86542808Y-97730771D01*
X86536239Y-97749241D01*
X86536126Y-97751632D01*
X86535211Y-97753842D01*
X86533290Y-97773351D01*
X85543636Y-97773351D01*
X85553935Y-97735901D01*
X85549095Y-97697184D01*
X85529807Y-97663267D01*
X85499008Y-97639312D01*
X85461386Y-97628967D01*
X85441790Y-97629480D01*
X84191790Y-97785730D01*
X84181097Y-97788149D01*
X84178503Y-97788314D01*
X84176906Y-97789097D01*
X84172669Y-97790056D01*
X84158302Y-97798225D01*
X84143474Y-97805502D01*
X84141434Y-97807818D01*
X84138752Y-97809344D01*
X84128613Y-97822378D01*
X84117689Y-97834786D01*
X84116690Y-97837708D01*
X84114797Y-97840143D01*
X84110418Y-97856064D01*
X84105074Y-97871709D01*
X84105269Y-97874790D01*
X84104452Y-97877765D01*
X84106500Y-97894158D01*
X84107549Y-97910648D01*
X84108908Y-97913417D01*
X84109291Y-97916482D01*
X84117460Y-97930848D01*
X84124737Y-97945677D01*
X84127053Y-97947716D01*
X84128579Y-97950399D01*
X84141613Y-97960537D01*
X84154021Y-97971462D01*
X84157975Y-97973262D01*
X84159378Y-97974354D01*
X84161883Y-97975043D01*
X84171861Y-97979587D01*
X84859333Y-98214473D01*
X84153272Y-98632227D01*
X84139911Y-98642017D01*
X84138752Y-98642677D01*
X84138407Y-98643119D01*
X84137460Y-98643814D01*
X84126255Y-98658744D01*
X84114797Y-98673476D01*
X84114564Y-98674321D01*
X84114039Y-98675022D01*
X84109403Y-98693091D01*
X84104452Y-98711098D01*
X84104560Y-98711967D01*
X84104343Y-98712816D01*
X83965304Y-98712816D01*
X83965304Y-96455482D01*
X86116627Y-96455482D01*
X86123893Y-96493818D01*
X86145276Y-96526455D01*
X86177520Y-96548425D01*
X86196228Y-96554285D01*
X87148397Y-96752653D01*
X86174958Y-97198814D01*
X86158023Y-97208688D01*
X86131474Y-97237282D01*
X86117889Y-97273859D01*
X86119334Y-97312850D01*
X86135591Y-97348320D01*
X86164185Y-97374869D01*
X86200762Y-97388454D01*
X86239753Y-97387009D01*
X86258288Y-97380626D01*
X87508289Y-96807709D01*
X87525223Y-96797834D01*
X87530368Y-96792292D01*
X87536691Y-96788150D01*
X87543517Y-96778131D01*
X87551772Y-96769241D01*
X87554405Y-96762151D01*
X87558661Y-96755905D01*
X87561134Y-96744033D01*
X87565357Y-96732664D01*
X87565077Y-96725109D01*
X87566619Y-96717708D01*
X87564361Y-96705796D01*
X87563912Y-96693673D01*
X87560760Y-96686796D01*
X87559353Y-96679372D01*
X87552710Y-96669234D01*
X87547655Y-96658203D01*
X87542111Y-96653055D01*
X87537970Y-96646735D01*
X87527951Y-96639908D01*
X87519061Y-96631654D01*
X87511973Y-96629021D01*
X87505725Y-96624764D01*
X87487018Y-96618905D01*
X86237018Y-96358489D01*
X86217528Y-96356391D01*
X86179192Y-96363657D01*
X86146555Y-96385040D01*
X86124585Y-96417284D01*
X86116627Y-96455482D01*
X83965304Y-96455482D01*
X83965304Y-96330146D01*
X84104452Y-96330146D01*
X84109291Y-96368863D01*
X84128579Y-96402780D01*
X84159378Y-96426735D01*
X84197000Y-96437080D01*
X84216596Y-96436567D01*
X85466597Y-96280317D01*
X85485717Y-96275991D01*
X85519634Y-96256703D01*
X85543589Y-96225904D01*
X85553935Y-96188282D01*
X85549095Y-96149565D01*
X85529807Y-96115648D01*
X85499008Y-96091693D01*
X85461386Y-96081348D01*
X85441790Y-96081861D01*
X84191790Y-96238111D01*
X84172669Y-96242437D01*
X84138752Y-96261725D01*
X84114797Y-96292524D01*
X84104452Y-96330146D01*
X83965304Y-96330146D01*
X83965304Y-95027815D01*
X84104193Y-95027815D01*
X84104193Y-95861149D01*
X84104771Y-95867021D01*
X84104518Y-95869199D01*
X84105233Y-95871716D01*
X84106114Y-95880658D01*
X84111405Y-95893431D01*
X84115185Y-95906731D01*
X84118811Y-95911311D01*
X84121046Y-95916706D01*
X84130819Y-95926479D01*
X84139404Y-95937323D01*
X84144507Y-95940167D01*
X84148636Y-95944296D01*
X84161407Y-95949586D01*
X84173486Y-95956318D01*
X84179287Y-95956992D01*
X84184684Y-95959228D01*
X84198515Y-95959228D01*
X84212243Y-95960824D01*
X84217859Y-95959228D01*
X84223702Y-95959228D01*
X84236475Y-95953936D01*
X84249775Y-95950157D01*
X84257330Y-95945298D01*
X84259750Y-95944296D01*
X84261301Y-95942744D01*
X84266263Y-95939554D01*
X85354193Y-95078275D01*
X85354193Y-95704899D01*
X85356114Y-95724408D01*
X85371046Y-95760456D01*
X85398636Y-95788046D01*
X85434684Y-95802978D01*
X85473702Y-95802978D01*
X85509750Y-95788046D01*
X85537340Y-95760456D01*
X85552272Y-95724408D01*
X85554193Y-95704899D01*
X85554193Y-94871565D01*
X85553614Y-94865692D01*
X85553868Y-94863515D01*
X85553152Y-94860997D01*
X85552272Y-94852056D01*
X85546980Y-94839282D01*
X85543201Y-94825983D01*
X85539574Y-94821402D01*
X85537340Y-94816008D01*
X85527566Y-94806234D01*
X85518982Y-94795391D01*
X85513878Y-94792546D01*
X85509750Y-94788418D01*
X85496978Y-94783127D01*
X85484900Y-94776396D01*
X85479098Y-94775721D01*
X85473702Y-94773486D01*
X85459871Y-94773486D01*
X85446143Y-94771890D01*
X85440527Y-94773486D01*
X85434684Y-94773486D01*
X85421910Y-94778777D01*
X85408611Y-94782557D01*
X85401055Y-94787415D01*
X85398636Y-94788418D01*
X85397084Y-94789969D01*
X85392123Y-94793160D01*
X84304193Y-95654438D01*
X84304193Y-95027815D01*
X84302272Y-95008306D01*
X84287340Y-94972258D01*
X84259750Y-94944668D01*
X84223702Y-94929736D01*
X84184684Y-94929736D01*
X84148636Y-94944668D01*
X84121046Y-94972258D01*
X84106114Y-95008306D01*
X84104193Y-95027815D01*
X83965304Y-95027815D01*
X83965304Y-93837339D01*
X84104193Y-93837339D01*
X84104193Y-94670673D01*
X84106114Y-94690182D01*
X84108294Y-94695445D01*
X84108936Y-94701106D01*
X84115701Y-94713326D01*
X84121046Y-94726230D01*
X84125073Y-94730257D01*
X84127833Y-94735242D01*
X84138760Y-94743944D01*
X84148636Y-94753820D01*
X84153898Y-94755999D01*
X84158355Y-94759549D01*
X84171778Y-94763406D01*
X84184684Y-94768752D01*
X84190382Y-94768752D01*
X84195856Y-94770325D01*
X84209732Y-94768752D01*
X84223702Y-94768752D01*
X84228965Y-94766571D01*
X84234626Y-94765930D01*
X84252625Y-94758162D01*
X84840779Y-94432577D01*
X86116623Y-94432577D01*
X86116623Y-94730196D01*
X86117728Y-94741419D01*
X86117579Y-94743991D01*
X86118259Y-94746812D01*
X86118544Y-94749705D01*
X86119530Y-94752086D01*
X86122173Y-94763048D01*
X86181698Y-94934180D01*
X86189921Y-94951975D01*
X86194097Y-94956665D01*
X86196880Y-94962292D01*
X86210297Y-94976585D01*
X86329344Y-95080752D01*
X86340997Y-95089083D01*
X86342490Y-95090478D01*
X86343956Y-95091199D01*
X86345291Y-95092153D01*
X86347232Y-95092809D01*
X86360082Y-95099127D01*
X86479129Y-95143770D01*
X86481685Y-95144451D01*
X86482718Y-95145039D01*
X86490433Y-95146784D01*
X86498070Y-95148821D01*
X86499256Y-95148780D01*
X86501839Y-95149365D01*
X86739935Y-95179127D01*
X86743631Y-95179223D01*
X86745145Y-95179640D01*
X86752338Y-95179451D01*
X86759531Y-95179640D01*
X86761044Y-95179223D01*
X86764742Y-95179127D01*
X86943313Y-95156805D01*
X86945895Y-95156220D01*
X86947080Y-95156261D01*
X86954708Y-95154226D01*
X86962433Y-95152479D01*
X86963466Y-95151891D01*
X86966021Y-95151210D01*
X87204117Y-95061924D01*
X87204325Y-95061821D01*
X87204442Y-95061802D01*
X87213032Y-95057540D01*
X87221709Y-95053275D01*
X87221796Y-95053193D01*
X87222003Y-95053091D01*
X87341052Y-94978687D01*
X87346288Y-94974649D01*
X87348396Y-94973628D01*
X87352331Y-94969991D01*
X87356577Y-94966718D01*
X87357937Y-94964810D01*
X87362793Y-94960323D01*
X87481841Y-94826394D01*
X87493366Y-94810537D01*
X87493769Y-94809372D01*
X87494567Y-94808431D01*
X87502343Y-94790435D01*
X87561865Y-94604424D01*
X87563703Y-94595866D01*
X87564702Y-94593455D01*
X87565109Y-94589321D01*
X87565982Y-94585257D01*
X87565765Y-94582654D01*
X87566623Y-94573946D01*
X87566623Y-94276327D01*
X87564702Y-94256818D01*
X87562302Y-94251026D01*
X87561525Y-94244803D01*
X87554898Y-94233149D01*
X87549770Y-94220770D01*
X87545336Y-94216336D01*
X87542237Y-94210886D01*
X87531657Y-94202657D01*
X87522180Y-94193180D01*
X87516387Y-94190780D01*
X87511438Y-94186931D01*
X87498516Y-94183377D01*
X87486132Y-94178248D01*
X87479860Y-94178248D01*
X87473816Y-94176586D01*
X87454220Y-94177099D01*
X86204220Y-94333349D01*
X86199141Y-94334498D01*
X86197114Y-94334498D01*
X86194673Y-94335508D01*
X86185099Y-94337675D01*
X86173445Y-94344301D01*
X86161066Y-94349430D01*
X86156632Y-94353863D01*
X86151182Y-94356963D01*
X86142953Y-94367542D01*
X86133476Y-94377020D01*
X86131076Y-94382812D01*
X86127227Y-94387762D01*
X86123673Y-94400683D01*
X86118544Y-94413068D01*
X86117581Y-94422838D01*
X86116882Y-94425384D01*
X86117133Y-94427394D01*
X86116623Y-94432577D01*
X84840779Y-94432577D01*
X85502625Y-94066198D01*
X85518763Y-94055069D01*
X85543069Y-94024546D01*
X85553845Y-93987046D01*
X85549450Y-93948276D01*
X85530553Y-93914139D01*
X85500031Y-93889833D01*
X85462530Y-93879057D01*
X85423760Y-93883452D01*
X85405762Y-93891220D01*
X84304193Y-94501016D01*
X84304193Y-93837339D01*
X84303654Y-93831864D01*
X86116773Y-93831864D01*
X86119404Y-93850331D01*
X86121721Y-93868863D01*
X86122154Y-93869625D01*
X86122278Y-93870492D01*
X86131788Y-93886566D01*
X86141009Y-93902780D01*
X86141699Y-93903316D01*
X86142146Y-93904072D01*
X86157076Y-93915276D01*
X86171808Y-93926735D01*
X86172653Y-93926967D01*
X86173354Y-93927493D01*
X86191423Y-93932128D01*
X86209430Y-93937080D01*
X86210603Y-93937049D01*
X86211148Y-93937189D01*
X86212471Y-93937000D01*
X86229026Y-93936567D01*
X87479027Y-93780317D01*
X87498147Y-93775991D01*
X87532064Y-93756703D01*
X87556019Y-93725904D01*
X87566365Y-93688282D01*
X87561525Y-93649565D01*
X87542237Y-93615648D01*
X87511438Y-93591693D01*
X87473816Y-93581348D01*
X87454220Y-93581861D01*
X86681560Y-93678443D01*
X87160401Y-93395130D01*
X87167838Y-93389679D01*
X87170198Y-93388522D01*
X87171615Y-93386911D01*
X87176213Y-93383543D01*
X87185627Y-93370998D01*
X87195983Y-93359238D01*
X87197260Y-93355498D01*
X87199634Y-93352336D01*
X87203530Y-93337146D01*
X87208598Y-93322315D01*
X87208347Y-93318371D01*
X87209330Y-93314541D01*
X87207116Y-93299011D01*
X87206123Y-93283376D01*
X87204383Y-93279830D01*
X87203825Y-93275913D01*
X87195839Y-93262416D01*
X87188936Y-93248347D01*
X87185968Y-93245734D01*
X87183956Y-93242333D01*
X87171421Y-93232926D01*
X87159651Y-93222562D01*
X87154465Y-93220200D01*
X87152749Y-93218912D01*
X87150201Y-93218258D01*
X87141811Y-93214437D01*
X86659023Y-93049484D01*
X87479027Y-92946984D01*
X87498147Y-92942658D01*
X87532064Y-92923370D01*
X87556019Y-92892571D01*
X87566365Y-92854949D01*
X87561525Y-92816232D01*
X87542237Y-92782315D01*
X87511438Y-92758360D01*
X87473816Y-92748015D01*
X87454220Y-92748528D01*
X86204220Y-92904778D01*
X86193527Y-92907197D01*
X86190933Y-92907362D01*
X86189336Y-92908145D01*
X86185099Y-92909104D01*
X86170732Y-92917273D01*
X86155904Y-92924550D01*
X86153864Y-92926866D01*
X86151182Y-92928392D01*
X86141043Y-92941426D01*
X86130119Y-92953834D01*
X86129120Y-92956756D01*
X86127227Y-92959191D01*
X86122848Y-92975112D01*
X86117504Y-92990757D01*
X86117699Y-92993838D01*
X86116882Y-92996813D01*
X86118930Y-93013206D01*
X86119979Y-93029696D01*
X86121338Y-93032465D01*
X86121721Y-93035530D01*
X86129890Y-93049896D01*
X86137167Y-93064725D01*
X86139483Y-93066764D01*
X86141009Y-93069447D01*
X86154043Y-93079585D01*
X86166451Y-93090510D01*
X86170405Y-93092310D01*
X86171808Y-93093402D01*
X86174313Y-93094091D01*
X86184291Y-93098635D01*
X86871763Y-93333521D01*
X86165702Y-93751275D01*
X86152341Y-93761065D01*
X86151182Y-93761725D01*
X86150837Y-93762167D01*
X86149890Y-93762862D01*
X86138685Y-93777792D01*
X86127227Y-93792524D01*
X86126994Y-93793369D01*
X86126469Y-93794070D01*
X86121833Y-93812139D01*
X86116882Y-93830146D01*
X86116990Y-93831015D01*
X86116773Y-93831864D01*
X84303654Y-93831864D01*
X84302272Y-93817830D01*
X84287340Y-93781782D01*
X84259750Y-93754192D01*
X84223702Y-93739260D01*
X84184684Y-93739260D01*
X84148636Y-93754192D01*
X84121046Y-93781782D01*
X84106114Y-93817830D01*
X84104193Y-93837339D01*
X83965304Y-93837339D01*
X83965304Y-93063530D01*
X84104193Y-93063530D01*
X84104193Y-93301625D01*
X84106114Y-93321134D01*
X84121046Y-93357182D01*
X84148636Y-93384772D01*
X84184684Y-93399704D01*
X84223702Y-93399704D01*
X84259750Y-93384772D01*
X84287340Y-93357182D01*
X84302272Y-93321134D01*
X84304193Y-93301625D01*
X84304193Y-93085884D01*
X84348050Y-92992687D01*
X84392171Y-92943051D01*
X84551596Y-92816839D01*
X84612704Y-92793924D01*
X84589902Y-92842379D01*
X84583333Y-92860849D01*
X84583220Y-92863240D01*
X84582305Y-92865450D01*
X84580384Y-92884959D01*
X84580384Y-93123054D01*
X84582305Y-93142563D01*
X84584185Y-93147103D01*
X84584663Y-93151995D01*
X84592149Y-93170113D01*
X84651673Y-93281720D01*
X84659761Y-93293850D01*
X84660640Y-93295626D01*
X84661696Y-93296751D01*
X84662549Y-93298030D01*
X84664073Y-93299283D01*
X84674057Y-93309918D01*
X84733581Y-93362002D01*
X84745229Y-93370330D01*
X84746726Y-93371728D01*
X84748195Y-93372450D01*
X84749528Y-93373403D01*
X84751467Y-93374058D01*
X84764319Y-93380377D01*
X84883366Y-93425020D01*
X84902308Y-93430071D01*
X84906877Y-93429915D01*
X84911286Y-93431128D01*
X84930882Y-93430615D01*
X85228501Y-93393413D01*
X85247621Y-93389087D01*
X85249454Y-93388044D01*
X85251536Y-93387696D01*
X85269098Y-93378985D01*
X85388146Y-93304580D01*
X85393379Y-93300545D01*
X85395490Y-93299522D01*
X85399431Y-93295879D01*
X85403671Y-93292611D01*
X85405029Y-93290706D01*
X85409887Y-93286217D01*
X85469411Y-93219253D01*
X85473361Y-93213817D01*
X85475107Y-93212229D01*
X85477819Y-93207683D01*
X85480936Y-93203395D01*
X85481710Y-93201162D01*
X85485152Y-93195395D01*
X85544675Y-93068908D01*
X85551244Y-93050438D01*
X85551356Y-93048046D01*
X85552272Y-93045837D01*
X85554193Y-93026328D01*
X85554193Y-92788233D01*
X85552272Y-92768724D01*
X85550391Y-92764183D01*
X85549914Y-92759292D01*
X85542428Y-92741175D01*
X85482906Y-92629567D01*
X85474813Y-92617430D01*
X85473937Y-92615659D01*
X85472883Y-92614536D01*
X85472030Y-92613257D01*
X85470504Y-92612003D01*
X85460520Y-92601367D01*
X85400996Y-92549284D01*
X85389342Y-92540952D01*
X85387850Y-92539558D01*
X85386383Y-92538836D01*
X85385049Y-92537883D01*
X85383107Y-92537226D01*
X85370258Y-92530909D01*
X85251210Y-92486266D01*
X85232269Y-92481215D01*
X85227699Y-92481370D01*
X85223291Y-92480158D01*
X85203695Y-92480671D01*
X84727504Y-92540195D01*
X84724921Y-92540779D01*
X84723737Y-92540739D01*
X84716108Y-92542773D01*
X84708384Y-92544521D01*
X84707350Y-92545108D01*
X84704796Y-92545790D01*
X84466700Y-92635076D01*
X84458747Y-92638985D01*
X84456230Y-92639701D01*
X84452782Y-92641918D01*
X84449107Y-92643725D01*
X84447195Y-92645510D01*
X84439742Y-92650304D01*
X84261171Y-92791673D01*
X84254903Y-92797723D01*
X84248500Y-92803641D01*
X84188976Y-92870605D01*
X84185027Y-92876037D01*
X84183280Y-92877628D01*
X84180564Y-92882179D01*
X84177451Y-92886463D01*
X84176677Y-92888693D01*
X84173235Y-92894462D01*
X84113711Y-93020950D01*
X84107142Y-93039420D01*
X84107029Y-93041811D01*
X84106114Y-93044021D01*
X84104193Y-93063530D01*
X83965304Y-93063530D01*
X83965304Y-91456387D01*
X84104193Y-91456387D01*
X84104193Y-92289721D01*
X84106114Y-92309230D01*
X84108294Y-92314493D01*
X84108936Y-92320154D01*
X84115701Y-92332374D01*
X84121046Y-92345278D01*
X84125073Y-92349305D01*
X84127833Y-92354290D01*
X84138760Y-92362992D01*
X84148636Y-92372868D01*
X84153898Y-92375047D01*
X84158355Y-92378597D01*
X84171778Y-92382454D01*
X84184684Y-92387800D01*
X84190382Y-92387800D01*
X84195856Y-92389373D01*
X84209732Y-92387800D01*
X84223702Y-92387800D01*
X84228965Y-92385619D01*
X84234626Y-92384978D01*
X84252625Y-92377210D01*
X85502625Y-91685246D01*
X85518763Y-91674117D01*
X85543069Y-91643594D01*
X85553845Y-91606094D01*
X85549450Y-91567324D01*
X85530553Y-91533187D01*
X85500031Y-91508881D01*
X85462530Y-91498105D01*
X85423760Y-91502500D01*
X85405762Y-91510268D01*
X84304193Y-92120064D01*
X84304193Y-91456387D01*
X84302272Y-91436878D01*
X84287340Y-91400830D01*
X84259750Y-91373240D01*
X84223702Y-91358308D01*
X84184684Y-91358308D01*
X84148636Y-91373240D01*
X84121046Y-91400830D01*
X84106114Y-91436878D01*
X84104193Y-91456387D01*
X83965304Y-91456387D01*
X83965304Y-90504006D01*
X84104193Y-90504006D01*
X84104193Y-91099244D01*
X84106114Y-91118753D01*
X84121046Y-91154801D01*
X84148636Y-91182391D01*
X84184684Y-91197323D01*
X84223702Y-91197323D01*
X84259750Y-91182391D01*
X84287340Y-91154801D01*
X84302272Y-91118753D01*
X84304193Y-91099244D01*
X84304193Y-90592284D01*
X84699431Y-90542879D01*
X84699431Y-90846268D01*
X84701352Y-90865777D01*
X84716284Y-90901825D01*
X84743874Y-90929415D01*
X84779922Y-90944347D01*
X84818940Y-90944347D01*
X84839571Y-90935801D01*
X86414501Y-90935801D01*
X86419340Y-90974517D01*
X86438628Y-91008435D01*
X86469427Y-91032390D01*
X86507049Y-91042735D01*
X86526645Y-91042222D01*
X86890433Y-90996748D01*
X86890433Y-91359661D01*
X86892354Y-91379170D01*
X86907286Y-91415218D01*
X86934876Y-91442808D01*
X86970924Y-91457740D01*
X87009942Y-91457740D01*
X87045990Y-91442808D01*
X87073580Y-91415218D01*
X87088512Y-91379170D01*
X87090433Y-91359661D01*
X87090433Y-90971748D01*
X87479027Y-90923175D01*
X87498147Y-90918849D01*
X87532064Y-90899561D01*
X87556019Y-90868762D01*
X87566365Y-90831140D01*
X87561525Y-90792423D01*
X87542237Y-90758506D01*
X87511438Y-90734551D01*
X87473817Y-90724206D01*
X87454220Y-90724719D01*
X87090433Y-90770192D01*
X87090433Y-90407280D01*
X87088512Y-90387771D01*
X87073580Y-90351723D01*
X87045990Y-90324133D01*
X87009942Y-90309201D01*
X86970924Y-90309201D01*
X86934876Y-90324133D01*
X86907286Y-90351723D01*
X86892354Y-90387771D01*
X86890433Y-90407280D01*
X86890433Y-90795192D01*
X86501839Y-90843766D01*
X86482719Y-90848092D01*
X86448801Y-90867380D01*
X86424846Y-90898179D01*
X86414501Y-90935801D01*
X84839571Y-90935801D01*
X84854988Y-90929415D01*
X84882578Y-90901825D01*
X84897510Y-90865777D01*
X84899431Y-90846268D01*
X84899431Y-90517879D01*
X85466597Y-90446984D01*
X85485717Y-90442658D01*
X85519634Y-90423370D01*
X85543589Y-90392571D01*
X85553935Y-90354949D01*
X85549095Y-90316232D01*
X85529807Y-90282315D01*
X85499008Y-90258360D01*
X85461386Y-90248015D01*
X85441790Y-90248528D01*
X84191790Y-90404778D01*
X84186711Y-90405927D01*
X84184684Y-90405927D01*
X84182243Y-90406937D01*
X84172669Y-90409104D01*
X84161015Y-90415730D01*
X84148636Y-90420859D01*
X84144202Y-90425292D01*
X84138752Y-90428392D01*
X84130523Y-90438971D01*
X84121046Y-90448449D01*
X84118646Y-90454241D01*
X84114797Y-90459191D01*
X84111243Y-90472112D01*
X84106114Y-90484497D01*
X84105151Y-90494267D01*
X84104452Y-90496813D01*
X84104703Y-90498823D01*
X84104193Y-90504006D01*
X83965304Y-90504006D01*
X83965304Y-90109126D01*
X87705512Y-90109126D01*
X87705512Y-109974605D01*
G37*
D10*
X148024819Y-122856666D02*
X148739104Y-122856666D01*
X148739104Y-122856666D02*
X148881961Y-122809047D01*
X148881961Y-122809047D02*
X148977200Y-122713809D01*
X148977200Y-122713809D02*
X149024819Y-122570952D01*
X149024819Y-122570952D02*
X149024819Y-122475714D01*
X148024819Y-123237619D02*
X148024819Y-123856666D01*
X148024819Y-123856666D02*
X148405771Y-123523333D01*
X148405771Y-123523333D02*
X148405771Y-123666190D01*
X148405771Y-123666190D02*
X148453390Y-123761428D01*
X148453390Y-123761428D02*
X148501009Y-123809047D01*
X148501009Y-123809047D02*
X148596247Y-123856666D01*
X148596247Y-123856666D02*
X148834342Y-123856666D01*
X148834342Y-123856666D02*
X148929580Y-123809047D01*
X148929580Y-123809047D02*
X148977200Y-123761428D01*
X148977200Y-123761428D02*
X149024819Y-123666190D01*
X149024819Y-123666190D02*
X149024819Y-123380476D01*
X149024819Y-123380476D02*
X148977200Y-123285238D01*
X148977200Y-123285238D02*
X148929580Y-123237619D01*
X121164819Y-122856666D02*
X121879104Y-122856666D01*
X121879104Y-122856666D02*
X122021961Y-122809047D01*
X122021961Y-122809047D02*
X122117200Y-122713809D01*
X122117200Y-122713809D02*
X122164819Y-122570952D01*
X122164819Y-122570952D02*
X122164819Y-122475714D01*
X122164819Y-123856666D02*
X122164819Y-123285238D01*
X122164819Y-123570952D02*
X121164819Y-123570952D01*
X121164819Y-123570952D02*
X121307676Y-123475714D01*
X121307676Y-123475714D02*
X121402914Y-123380476D01*
X121402914Y-123380476D02*
X121450533Y-123285238D01*
X138864819Y-77136666D02*
X139579104Y-77136666D01*
X139579104Y-77136666D02*
X139721961Y-77089047D01*
X139721961Y-77089047D02*
X139817200Y-76993809D01*
X139817200Y-76993809D02*
X139864819Y-76850952D01*
X139864819Y-76850952D02*
X139864819Y-76755714D01*
X138960057Y-77565238D02*
X138912438Y-77612857D01*
X138912438Y-77612857D02*
X138864819Y-77708095D01*
X138864819Y-77708095D02*
X138864819Y-77946190D01*
X138864819Y-77946190D02*
X138912438Y-78041428D01*
X138912438Y-78041428D02*
X138960057Y-78089047D01*
X138960057Y-78089047D02*
X139055295Y-78136666D01*
X139055295Y-78136666D02*
X139150533Y-78136666D01*
X139150533Y-78136666D02*
X139293390Y-78089047D01*
X139293390Y-78089047D02*
X139864819Y-77517619D01*
X139864819Y-77517619D02*
X139864819Y-78136666D01*
X116084819Y-77136666D02*
X116799104Y-77136666D01*
X116799104Y-77136666D02*
X116941961Y-77089047D01*
X116941961Y-77089047D02*
X117037200Y-76993809D01*
X117037200Y-76993809D02*
X117084819Y-76850952D01*
X117084819Y-76850952D02*
X117084819Y-76755714D01*
X116084819Y-78089047D02*
X116084819Y-77612857D01*
X116084819Y-77612857D02*
X116561009Y-77565238D01*
X116561009Y-77565238D02*
X116513390Y-77612857D01*
X116513390Y-77612857D02*
X116465771Y-77708095D01*
X116465771Y-77708095D02*
X116465771Y-77946190D01*
X116465771Y-77946190D02*
X116513390Y-78041428D01*
X116513390Y-78041428D02*
X116561009Y-78089047D01*
X116561009Y-78089047D02*
X116656247Y-78136666D01*
X116656247Y-78136666D02*
X116894342Y-78136666D01*
X116894342Y-78136666D02*
X116989580Y-78089047D01*
X116989580Y-78089047D02*
X117037200Y-78041428D01*
X117037200Y-78041428D02*
X117084819Y-77946190D01*
X117084819Y-77946190D02*
X117084819Y-77708095D01*
X117084819Y-77708095D02*
X117037200Y-77612857D01*
X117037200Y-77612857D02*
X116989580Y-77565238D01*
D12*
G36*
X158646451Y-101456504D02*
G01*
X158615995Y-101486959D01*
X158585540Y-101456504D01*
X158615995Y-101426048D01*
X158646451Y-101456504D01*
G37*
G36*
X158646451Y-109253146D02*
G01*
X158615995Y-109283602D01*
X158585540Y-109253146D01*
X158615995Y-109222691D01*
X158646451Y-109253146D01*
G37*
G36*
X158768274Y-105233003D02*
G01*
X158737818Y-105263458D01*
X158707362Y-105233003D01*
X158737818Y-105202547D01*
X158768274Y-105233003D01*
G37*
G36*
X158768274Y-106999429D02*
G01*
X158737818Y-107029885D01*
X158707362Y-106999429D01*
X158737818Y-106968974D01*
X158768274Y-106999429D01*
G37*
G36*
X159011919Y-99629166D02*
G01*
X158981463Y-99659621D01*
X158951007Y-99629166D01*
X158981463Y-99598710D01*
X159011919Y-99629166D01*
G37*
G36*
X159011919Y-106329405D02*
G01*
X158981463Y-106359861D01*
X158951007Y-106329405D01*
X158981463Y-106298950D01*
X159011919Y-106329405D01*
G37*
G36*
X159011919Y-107364897D02*
G01*
X158981463Y-107395353D01*
X158951007Y-107364897D01*
X158981463Y-107334441D01*
X159011919Y-107364897D01*
G37*
G36*
X159011919Y-109131324D02*
G01*
X158981463Y-109161780D01*
X158951007Y-109131324D01*
X158981463Y-109100868D01*
X159011919Y-109131324D01*
G37*
G36*
X159011919Y-109679525D02*
G01*
X158981463Y-109709981D01*
X158951007Y-109679525D01*
X158981463Y-109649070D01*
X159011919Y-109679525D01*
G37*
G36*
X159011919Y-112115976D02*
G01*
X158981463Y-112146432D01*
X158951007Y-112115976D01*
X158981463Y-112085521D01*
X159011919Y-112115976D01*
G37*
G36*
X159011919Y-112481444D02*
G01*
X158981463Y-112511899D01*
X158951007Y-112481444D01*
X158981463Y-112450988D01*
X159011919Y-112481444D01*
G37*
G36*
X158646451Y-99233242D02*
G01*
X158642055Y-99265489D01*
X158605844Y-99273850D01*
X158598554Y-99264922D01*
X158605844Y-99192635D01*
X158624165Y-99183105D01*
X158646451Y-99233242D01*
G37*
G36*
X159011919Y-108126288D02*
G01*
X159007523Y-108158534D01*
X158971311Y-108166895D01*
X158964021Y-108157968D01*
X158971311Y-108085680D01*
X158989632Y-108076151D01*
X159011919Y-108126288D01*
G37*
G36*
X158857649Y-100837894D02*
G01*
X158945346Y-100893227D01*
X158947007Y-100929276D01*
X158866173Y-100934113D01*
X158757669Y-100893577D01*
X158707362Y-100824578D01*
X158748449Y-100804305D01*
X158857649Y-100837894D01*
G37*
G36*
X158872032Y-109802778D02*
G01*
X159042374Y-109849293D01*
X158890096Y-109892238D01*
X158777132Y-109907908D01*
X158680967Y-109884508D01*
X158666225Y-109869954D01*
X158651635Y-109808605D01*
X158728212Y-109782802D01*
X158872032Y-109802778D01*
G37*
G36*
X158878806Y-99405955D02*
G01*
X159042374Y-99438447D01*
X158890096Y-99477906D01*
X158790283Y-99495487D01*
X158672789Y-99492676D01*
X158614012Y-99463802D01*
X158645282Y-99416699D01*
X158732344Y-99396300D01*
X158878806Y-99405955D01*
G37*
G36*
X158863256Y-113868095D02*
G01*
X158950728Y-113877334D01*
X158936490Y-113893798D01*
X158851557Y-113904834D01*
X158692845Y-113895028D01*
X158662873Y-113887063D01*
X158680769Y-113873305D01*
X158798729Y-113867308D01*
X158863256Y-113868095D01*
G37*
G36*
X158883191Y-99973092D02*
G01*
X158971311Y-100004785D01*
X158999828Y-100051518D01*
X158950666Y-100067212D01*
X158822800Y-100030258D01*
X158748557Y-99999204D01*
X158722854Y-99975277D01*
X158803805Y-99968039D01*
X158883191Y-99973092D01*
G37*
G36*
X158959792Y-99187454D02*
G01*
X159011919Y-99233242D01*
X158974112Y-99273303D01*
X158859640Y-99294154D01*
X158759489Y-99279031D01*
X158707362Y-99233242D01*
X158745169Y-99193182D01*
X158859640Y-99172331D01*
X158959792Y-99187454D01*
G37*
G36*
X159011919Y-100216269D02*
G01*
X158974154Y-100250758D01*
X158859640Y-100268734D01*
X158759650Y-100262957D01*
X158707362Y-100245379D01*
X158745515Y-100222665D01*
X158859640Y-100192915D01*
X158961241Y-100186961D01*
X159011919Y-100216269D01*
G37*
G36*
X158969419Y-101446006D02*
G01*
X158967394Y-101466002D01*
X158917344Y-101477176D01*
X158784661Y-101468259D01*
X158774188Y-101465245D01*
X158765170Y-101446706D01*
X158859640Y-101437923D01*
X158874065Y-101437839D01*
X158969419Y-101446006D01*
G37*
G36*
X158969419Y-105100682D02*
G01*
X158967394Y-105120678D01*
X158917344Y-105131853D01*
X158784661Y-105122935D01*
X158774188Y-105119921D01*
X158765170Y-105101382D01*
X158859640Y-105092599D01*
X158874065Y-105092515D01*
X158969419Y-105100682D01*
G37*
G36*
X158969419Y-106867109D02*
G01*
X158967394Y-106887105D01*
X158917344Y-106898279D01*
X158784661Y-106889362D01*
X158774188Y-106886348D01*
X158765170Y-106867809D01*
X158859640Y-106859026D01*
X158874065Y-106858942D01*
X158969419Y-106867109D01*
G37*
G36*
X158969419Y-109242648D02*
G01*
X158967394Y-109262645D01*
X158917344Y-109273819D01*
X158784661Y-109264902D01*
X158774188Y-109261888D01*
X158765170Y-109243349D01*
X158859640Y-109234565D01*
X158874065Y-109234482D01*
X158969419Y-109242648D01*
G37*
G36*
X158875131Y-111038082D02*
G01*
X158927567Y-111049034D01*
X158992066Y-111074694D01*
X158945816Y-111100017D01*
X158783501Y-111130357D01*
X158765511Y-111132954D01*
X158637826Y-111136669D01*
X158585540Y-111110702D01*
X158602119Y-111069744D01*
X158705003Y-111028829D01*
X158875131Y-111038082D01*
G37*
G36*
X158971732Y-112252754D02*
G01*
X158991777Y-112288459D01*
X158909069Y-112317608D01*
X158824320Y-112349309D01*
X158748629Y-112439506D01*
X158745620Y-112450589D01*
X158725116Y-112489997D01*
X158714428Y-112411822D01*
X158747205Y-112298103D01*
X158848329Y-112230477D01*
X158971732Y-112252754D01*
G37*
G36*
X158956504Y-107124649D02*
G01*
X158993480Y-107152888D01*
X159002829Y-107199024D01*
X158918214Y-107189695D01*
X158847738Y-107190485D01*
X158769796Y-107289772D01*
X158737956Y-107366547D01*
X158717061Y-107386056D01*
X158711223Y-107295275D01*
X158745528Y-107184915D01*
X158842928Y-107112585D01*
X158956504Y-107124649D01*
G37*
G36*
X158831386Y-104593438D02*
G01*
X158958965Y-104609872D01*
X159011919Y-104648643D01*
X158987224Y-104675411D01*
X158890096Y-104671994D01*
X158816308Y-104666053D01*
X158768274Y-104711747D01*
X158763311Y-104736914D01*
X158707362Y-104745712D01*
X158645716Y-104673315D01*
X158691130Y-104616444D01*
X158829185Y-104593434D01*
X158831386Y-104593438D01*
G37*
G36*
X158923469Y-108880370D02*
G01*
X158964234Y-108899463D01*
X159011919Y-108944767D01*
X158999793Y-108955258D01*
X158920944Y-108940312D01*
X158850090Y-108944486D01*
X158772527Y-109048819D01*
X158738120Y-109131590D01*
X158717179Y-109149476D01*
X158711223Y-109058780D01*
X158720130Y-108973433D01*
X158793277Y-108877206D01*
X158923469Y-108880370D01*
G37*
G36*
X158696913Y-111513894D02*
G01*
X158834261Y-111537319D01*
X158959107Y-111554999D01*
X159011919Y-111598230D01*
X158960353Y-111641035D01*
X158834261Y-111659142D01*
X158702656Y-111680468D01*
X158625880Y-111735281D01*
X158620209Y-111745669D01*
X158602353Y-111717117D01*
X158595157Y-111598230D01*
X158595686Y-111560187D01*
X158606177Y-111462285D01*
X158625880Y-111461180D01*
X158696913Y-111513894D01*
G37*
G36*
X158924084Y-105857247D02*
G01*
X158964964Y-105927959D01*
X158971503Y-105994202D01*
X158934384Y-105988641D01*
X158859970Y-105913778D01*
X158819277Y-105860080D01*
X158777816Y-105836992D01*
X158750194Y-105913874D01*
X158742646Y-105941563D01*
X158723990Y-105972890D01*
X158714428Y-105887799D01*
X158714116Y-105880134D01*
X158742705Y-105772269D01*
X158821047Y-105763423D01*
X158924084Y-105857247D01*
G37*
G36*
X158920806Y-99735760D02*
G01*
X158971430Y-99787704D01*
X159006536Y-99870292D01*
X158949096Y-99903266D01*
X158910729Y-99888310D01*
X158847077Y-99801125D01*
X158834240Y-99769408D01*
X158801976Y-99737257D01*
X158761903Y-99816353D01*
X158741720Y-99865760D01*
X158719050Y-99889197D01*
X158711643Y-99796672D01*
X158726961Y-99699856D01*
X158799314Y-99664637D01*
X158920806Y-99735760D01*
G37*
G36*
X153895372Y-111628686D02*
G01*
X153895372Y-112329166D01*
X155692254Y-112329166D01*
X157489137Y-112329166D01*
X157489137Y-112786000D01*
X157489137Y-113242835D01*
X155692254Y-113242835D01*
X153895372Y-113242835D01*
X153895372Y-113973770D01*
X153895372Y-114704705D01*
X153560360Y-114704705D01*
X153225348Y-114704705D01*
X153225348Y-112816456D01*
X153225348Y-110928206D01*
X153560360Y-110928206D01*
X153895372Y-110928206D01*
X153895372Y-111628686D01*
G37*
G36*
X158974679Y-100398496D02*
G01*
X158994310Y-100413698D01*
X158905324Y-100453366D01*
X158818035Y-100501971D01*
X158768274Y-100567091D01*
X158798350Y-100609433D01*
X158905324Y-100652126D01*
X158968005Y-100665475D01*
X158979431Y-100678514D01*
X158874868Y-100686818D01*
X158813638Y-100687415D01*
X158727731Y-100653319D01*
X158707362Y-100542835D01*
X158709779Y-100490503D01*
X158751809Y-100410951D01*
X158874868Y-100394417D01*
X158974679Y-100398496D01*
G37*
G36*
X158953608Y-113012428D02*
G01*
X158985659Y-113022883D01*
X158905324Y-113042177D01*
X158820044Y-113076724D01*
X158768274Y-113151468D01*
X158798235Y-113208820D01*
X158905324Y-113260759D01*
X158968005Y-113274108D01*
X158979431Y-113287147D01*
X158874868Y-113295451D01*
X158813638Y-113296048D01*
X158727731Y-113261952D01*
X158707362Y-113151468D01*
X158710041Y-113095936D01*
X158752227Y-113019929D01*
X158874868Y-113007485D01*
X158953608Y-113012428D01*
G37*
G36*
X158971732Y-104212466D02*
G01*
X158989132Y-104248978D01*
X158901813Y-104278271D01*
X158817296Y-104307994D01*
X158786310Y-104369713D01*
X158820174Y-104406150D01*
X158926871Y-104420838D01*
X158932367Y-104419889D01*
X159003621Y-104420749D01*
X158970330Y-104474609D01*
X158967519Y-104477434D01*
X158856386Y-104521158D01*
X158752968Y-104474028D01*
X158707362Y-104358218D01*
X158742625Y-104257357D01*
X158847949Y-104191209D01*
X158971732Y-104212466D01*
G37*
G36*
X158908726Y-110089356D02*
G01*
X158981700Y-110111525D01*
X159081778Y-110150320D01*
X159083518Y-110185002D01*
X159000093Y-110236832D01*
X158955954Y-110259388D01*
X158839373Y-110302893D01*
X158753324Y-110317255D01*
X158726540Y-110300568D01*
X158787751Y-110250925D01*
X158841704Y-110217590D01*
X158864484Y-110171189D01*
X158787751Y-110103143D01*
X158780100Y-110097357D01*
X158731684Y-110052963D01*
X158769734Y-110050846D01*
X158908726Y-110089356D01*
G37*
G36*
X158923469Y-103398355D02*
G01*
X158980694Y-103425438D01*
X159003337Y-103465841D01*
X158911880Y-103475036D01*
X158859952Y-103480555D01*
X158784981Y-103542715D01*
X158796508Y-103592943D01*
X158900248Y-103619787D01*
X158921466Y-103620133D01*
X158994282Y-103634242D01*
X158956531Y-103675062D01*
X158864190Y-103707260D01*
X158753676Y-103670676D01*
X158707362Y-103555021D01*
X158715378Y-103492019D01*
X158791267Y-103396433D01*
X158923469Y-103398355D01*
G37*
G36*
X158923469Y-113996916D02*
G01*
X158989179Y-114032392D01*
X159001844Y-114077532D01*
X158911643Y-114083035D01*
X158857967Y-114084343D01*
X158784745Y-114141276D01*
X158795558Y-114190829D01*
X158897202Y-114217415D01*
X158985640Y-114231313D01*
X158973375Y-114280323D01*
X158965149Y-114287868D01*
X158857523Y-114315861D01*
X158753800Y-114262621D01*
X158707362Y-114153582D01*
X158715378Y-114090580D01*
X158791267Y-113994994D01*
X158923469Y-113996916D01*
G37*
G36*
X158812269Y-108162666D02*
G01*
X158879402Y-108232224D01*
X158955307Y-108263338D01*
X158998779Y-108271099D01*
X159006092Y-108331975D01*
X158953000Y-108399157D01*
X158896530Y-108393137D01*
X158816525Y-108311385D01*
X158747798Y-108220508D01*
X158676838Y-108198563D01*
X158627527Y-108293794D01*
X158622341Y-108312819D01*
X158602725Y-108348324D01*
X158592606Y-108266933D01*
X158592091Y-108242830D01*
X158627912Y-108118840D01*
X158711368Y-108087341D01*
X158812269Y-108162666D01*
G37*
G36*
X158861265Y-101622113D02*
G01*
X158960916Y-101631478D01*
X158963693Y-101649970D01*
X158920927Y-101682149D01*
X158949604Y-101759370D01*
X158961825Y-101775326D01*
X158963106Y-101823897D01*
X158859640Y-101837199D01*
X158825253Y-101836584D01*
X158747601Y-101816587D01*
X158770690Y-101758149D01*
X158777413Y-101749722D01*
X158790378Y-101687943D01*
X158695690Y-101652235D01*
X158663627Y-101643817D01*
X158679597Y-101629181D01*
X158798729Y-101621886D01*
X158861265Y-101622113D01*
G37*
G36*
X158959634Y-108505866D02*
G01*
X159011919Y-108546964D01*
X158987224Y-108573732D01*
X158890096Y-108570316D01*
X158801988Y-108567396D01*
X158768274Y-108644034D01*
X158791491Y-108714320D01*
X158890096Y-108717752D01*
X158963520Y-108710642D01*
X159011919Y-108745340D01*
X158980977Y-108778461D01*
X158874868Y-108785321D01*
X158787717Y-108751947D01*
X158718354Y-108628806D01*
X158714517Y-108591912D01*
X158741320Y-108511640D01*
X158855404Y-108491756D01*
X158959634Y-108505866D01*
G37*
G36*
X158959634Y-110637761D02*
G01*
X159011919Y-110678859D01*
X158987224Y-110705626D01*
X158890096Y-110702210D01*
X158801988Y-110699290D01*
X158768274Y-110775928D01*
X158791491Y-110846214D01*
X158890096Y-110849646D01*
X158963520Y-110842536D01*
X159011919Y-110877234D01*
X158980977Y-110910356D01*
X158874868Y-110917215D01*
X158787717Y-110883842D01*
X158718354Y-110760700D01*
X158714517Y-110723806D01*
X158741320Y-110643535D01*
X158855404Y-110623650D01*
X158959634Y-110637761D01*
G37*
G36*
X158959634Y-113439679D02*
G01*
X159011919Y-113480777D01*
X158987224Y-113507545D01*
X158890096Y-113504129D01*
X158801988Y-113501209D01*
X158768274Y-113577847D01*
X158791491Y-113648133D01*
X158890096Y-113651565D01*
X158963520Y-113644455D01*
X159011919Y-113679153D01*
X158980977Y-113712274D01*
X158874868Y-113719133D01*
X158787717Y-113685760D01*
X158718354Y-113562619D01*
X158714517Y-113525725D01*
X158741320Y-113445453D01*
X158855404Y-113425569D01*
X158959634Y-113439679D01*
G37*
G36*
X158959792Y-102354840D02*
G01*
X159011919Y-102400628D01*
X158989075Y-102436032D01*
X158890096Y-102461540D01*
X158861332Y-102462722D01*
X158777176Y-102497055D01*
X158793049Y-102554342D01*
X158905324Y-102601286D01*
X158968005Y-102614636D01*
X158979431Y-102627675D01*
X158874868Y-102635979D01*
X158813638Y-102636575D01*
X158727731Y-102602479D01*
X158707362Y-102491995D01*
X158708005Y-102463933D01*
X158743726Y-102364875D01*
X158859640Y-102339717D01*
X158959792Y-102354840D01*
G37*
G36*
X158918479Y-114849872D02*
G01*
X159017933Y-114884459D01*
X159080036Y-114930131D01*
X159033481Y-114982358D01*
X158874868Y-115057298D01*
X158755124Y-115092601D01*
X158707362Y-115068867D01*
X158717660Y-115041460D01*
X158798729Y-115009262D01*
X158840761Y-115002390D01*
X158890096Y-114948350D01*
X158879788Y-114920329D01*
X158798729Y-114887439D01*
X158756828Y-114881631D01*
X158707362Y-114835616D01*
X158710375Y-114827836D01*
X158781806Y-114819498D01*
X158918479Y-114849872D01*
G37*
G36*
X158865110Y-107471612D02*
G01*
X158938652Y-107482807D01*
X158905324Y-107499251D01*
X158820044Y-107533799D01*
X158768274Y-107608542D01*
X158798235Y-107665894D01*
X158905324Y-107717833D01*
X158968005Y-107731183D01*
X158979431Y-107744221D01*
X158874868Y-107752525D01*
X158850956Y-107753340D01*
X158738460Y-107730495D01*
X158707362Y-107644074D01*
X158695089Y-107575757D01*
X158631223Y-107496604D01*
X158619767Y-107488523D01*
X158666158Y-107473646D01*
X158798729Y-107469368D01*
X158865110Y-107471612D01*
G37*
G36*
X158865110Y-112588159D02*
G01*
X158938652Y-112599354D01*
X158905324Y-112615798D01*
X158820044Y-112650345D01*
X158768274Y-112725089D01*
X158798235Y-112782441D01*
X158905324Y-112834380D01*
X158968005Y-112847729D01*
X158979431Y-112860768D01*
X158874868Y-112869072D01*
X158850956Y-112869887D01*
X158738460Y-112847042D01*
X158707362Y-112760620D01*
X158695089Y-112692304D01*
X158631223Y-112613151D01*
X158619767Y-112605069D01*
X158666158Y-112590193D01*
X158798729Y-112585915D01*
X158865110Y-112588159D01*
G37*
G36*
X158931685Y-101029129D02*
G01*
X158992416Y-101065251D01*
X158966235Y-101103204D01*
X158935904Y-101121717D01*
X158890096Y-101217935D01*
X158879542Y-101258072D01*
X158798729Y-101304226D01*
X158756641Y-101296927D01*
X158707362Y-101239720D01*
X158712145Y-101217688D01*
X158768274Y-101212859D01*
X158800534Y-101217737D01*
X158829185Y-101151947D01*
X158817849Y-101100898D01*
X158753046Y-101096377D01*
X158708036Y-101114405D01*
X158748951Y-101061428D01*
X158800021Y-101026473D01*
X158931685Y-101029129D01*
G37*
G36*
X158931685Y-105353829D02*
G01*
X158992416Y-105389952D01*
X158966235Y-105427904D01*
X158935904Y-105446417D01*
X158890096Y-105542635D01*
X158879542Y-105582773D01*
X158798729Y-105628926D01*
X158756641Y-105621627D01*
X158707362Y-105564420D01*
X158712145Y-105542388D01*
X158768274Y-105537559D01*
X158800534Y-105542437D01*
X158829185Y-105476648D01*
X158817849Y-105425598D01*
X158753046Y-105421078D01*
X158708036Y-105439105D01*
X158748951Y-105386129D01*
X158800021Y-105351173D01*
X158931685Y-105353829D01*
G37*
G36*
X158961100Y-109417015D02*
G01*
X159011919Y-109469931D01*
X159007136Y-109491962D01*
X158951007Y-109496792D01*
X158913544Y-109500341D01*
X158890096Y-109584564D01*
X158875117Y-109666648D01*
X158812495Y-109707580D01*
X158732001Y-109639658D01*
X158717181Y-109605618D01*
X158758862Y-109612798D01*
X158798560Y-109622630D01*
X158829185Y-109557703D01*
X158818694Y-109508550D01*
X158758862Y-109502608D01*
X158724822Y-109517428D01*
X158732001Y-109475747D01*
X158773962Y-109437982D01*
X158893691Y-109405425D01*
X158961100Y-109417015D01*
G37*
G36*
X158995166Y-106437385D02*
G01*
X159004158Y-106501268D01*
X158935780Y-106563337D01*
X158895855Y-106598061D01*
X158951007Y-106658847D01*
X158982001Y-106683313D01*
X158982472Y-106715549D01*
X158874868Y-106724396D01*
X158828878Y-106723269D01*
X158733085Y-106689590D01*
X158711643Y-106588278D01*
X158714232Y-106528402D01*
X158726958Y-106492335D01*
X158762321Y-106569789D01*
X158785585Y-106626072D01*
X158813727Y-106647206D01*
X158843705Y-106554561D01*
X158879595Y-106471985D01*
X158945305Y-106420772D01*
X158995166Y-106437385D01*
G37*
G36*
X158824866Y-103806439D02*
G01*
X158958166Y-103822450D01*
X159011919Y-103856796D01*
X158987224Y-103883564D01*
X158890096Y-103880148D01*
X158801988Y-103877228D01*
X158768274Y-103953866D01*
X158791491Y-104024152D01*
X158890096Y-104027584D01*
X158963410Y-104019603D01*
X159011919Y-104050935D01*
X158974141Y-104087233D01*
X158859640Y-104106144D01*
X158745870Y-104081731D01*
X158707362Y-103989397D01*
X158695089Y-103921081D01*
X158631223Y-103841928D01*
X158619898Y-103834804D01*
X158657585Y-103816180D01*
X158783501Y-103806396D01*
X158824866Y-103806439D01*
G37*
G36*
X159009526Y-101987055D02*
G01*
X158966235Y-102014590D01*
X158934460Y-102035663D01*
X158890096Y-102135198D01*
X158898074Y-102174603D01*
X158951007Y-102187439D01*
X158974852Y-102178220D01*
X159011919Y-102218536D01*
X158980845Y-102257588D01*
X158874868Y-102267815D01*
X158776417Y-102226135D01*
X158723640Y-102096072D01*
X158718773Y-102035141D01*
X158724733Y-101993312D01*
X158758672Y-102061163D01*
X158775108Y-102098846D01*
X158811251Y-102142014D01*
X158847077Y-102076391D01*
X158878964Y-102023932D01*
X158964324Y-101979058D01*
X159009526Y-101987055D01*
G37*
G36*
X158963754Y-106098666D02*
G01*
X159011919Y-106148355D01*
X159007826Y-106158752D01*
X158951007Y-106146672D01*
X158913544Y-106150221D01*
X158890096Y-106234444D01*
X158873057Y-106308730D01*
X158798729Y-106359861D01*
X158756641Y-106352562D01*
X158707362Y-106295355D01*
X158712145Y-106273324D01*
X158768274Y-106268494D01*
X158800534Y-106273373D01*
X158829185Y-106207583D01*
X158817849Y-106156533D01*
X158753046Y-106152013D01*
X158708036Y-106170040D01*
X158748951Y-106117064D01*
X158797441Y-106083218D01*
X158916457Y-106075761D01*
X158963754Y-106098666D01*
G37*
G36*
X158963754Y-111885236D02*
G01*
X159011919Y-111934925D01*
X159007826Y-111945323D01*
X158951007Y-111933242D01*
X158913544Y-111936791D01*
X158890096Y-112021014D01*
X158873057Y-112095301D01*
X158798729Y-112146432D01*
X158756641Y-112139133D01*
X158707362Y-112081926D01*
X158712145Y-112059894D01*
X158768274Y-112055065D01*
X158800534Y-112059943D01*
X158829185Y-111994154D01*
X158817849Y-111943104D01*
X158753046Y-111938584D01*
X158708036Y-111956611D01*
X158748951Y-111903635D01*
X158797441Y-111869789D01*
X158916457Y-111862331D01*
X158963754Y-111885236D01*
G37*
G36*
X160351967Y-87057505D02*
G01*
X160351952Y-87148488D01*
X160351041Y-87679092D01*
X160348351Y-88100909D01*
X160343382Y-88425245D01*
X160335632Y-88663410D01*
X160324601Y-88826710D01*
X160309788Y-88926454D01*
X160290693Y-88973950D01*
X160266814Y-88980506D01*
X160234108Y-88965015D01*
X160100241Y-88898455D01*
X159872783Y-88784031D01*
X159560710Y-88626299D01*
X159173002Y-88429816D01*
X158718638Y-88199136D01*
X158206594Y-87938816D01*
X157645851Y-87653412D01*
X157045385Y-87347479D01*
X156414176Y-87025573D01*
X152646691Y-85103316D01*
X156499329Y-85102572D01*
X160351967Y-85101828D01*
X160351967Y-87057505D01*
G37*
G36*
X158977971Y-114427729D02*
G01*
X159011919Y-114525566D01*
X159025123Y-114598935D01*
X159082241Y-114607522D01*
X159116281Y-114592701D01*
X159109102Y-114634383D01*
X159029361Y-114682898D01*
X158886501Y-114704705D01*
X158812824Y-114701471D01*
X158727573Y-114662025D01*
X158707362Y-114552427D01*
X158768274Y-114552427D01*
X158778886Y-114595036D01*
X158859640Y-114643794D01*
X158902250Y-114633181D01*
X158951007Y-114552427D01*
X158940395Y-114509818D01*
X158859640Y-114461060D01*
X158817031Y-114471673D01*
X158768274Y-114552427D01*
X158707362Y-114552427D01*
X158708005Y-114524365D01*
X158743726Y-114425307D01*
X158859640Y-114400149D01*
X158977971Y-114427729D01*
G37*
G36*
X158901418Y-98749548D02*
G01*
X158979548Y-98767359D01*
X158951517Y-98805260D01*
X158894825Y-98862536D01*
X158936289Y-98938332D01*
X158937901Y-98939953D01*
X159002043Y-99030920D01*
X159001324Y-99086036D01*
X158935852Y-99071598D01*
X158878438Y-99046831D01*
X158737891Y-99022320D01*
X158658057Y-98998604D01*
X158604635Y-98898230D01*
X158646451Y-98898230D01*
X158652900Y-98940208D01*
X158703768Y-98989597D01*
X158737503Y-98983309D01*
X158799240Y-98921744D01*
X158786921Y-98845815D01*
X158767956Y-98829277D01*
X158683859Y-98814225D01*
X158646451Y-98898230D01*
X158604635Y-98898230D01*
X158596531Y-98883003D01*
X158596421Y-98882221D01*
X158598308Y-98793166D01*
X158658980Y-98754713D01*
X158683859Y-98753421D01*
X158809721Y-98746885D01*
X158901418Y-98749548D01*
G37*
G36*
X158863974Y-102955543D02*
G01*
X158963404Y-102968913D01*
X158966235Y-102989170D01*
X158958069Y-102992921D01*
X158900507Y-103063720D01*
X158896652Y-103150270D01*
X158951007Y-103192475D01*
X158969790Y-103195821D01*
X159011919Y-103260845D01*
X158997306Y-103296526D01*
X158925975Y-103257887D01*
X158863240Y-103220420D01*
X158798729Y-103253386D01*
X158767244Y-103280839D01*
X158689286Y-103263806D01*
X158617224Y-103181003D01*
X158596389Y-103103535D01*
X158659459Y-103103535D01*
X158671822Y-103177239D01*
X158696685Y-103187176D01*
X158774596Y-103149606D01*
X158803426Y-103110656D01*
X158777790Y-103046078D01*
X158714332Y-103043765D01*
X158659459Y-103103535D01*
X158596389Y-103103535D01*
X158585540Y-103063194D01*
X158594950Y-103007255D01*
X158660036Y-102962358D01*
X158714332Y-102959282D01*
X158813957Y-102953639D01*
X158863974Y-102955543D01*
G37*
G36*
X154366372Y-90008397D02*
G01*
X154670587Y-90485772D01*
X155039899Y-91066352D01*
X155385327Y-91610547D01*
X155701653Y-92110076D01*
X155983658Y-92556659D01*
X156226124Y-92942014D01*
X156423832Y-93257861D01*
X156571565Y-93495919D01*
X156664103Y-93647907D01*
X156696228Y-93705545D01*
X156694605Y-93707281D01*
X156617225Y-93717376D01*
X156433430Y-93726633D01*
X156156434Y-93734792D01*
X155799453Y-93741592D01*
X155375702Y-93746771D01*
X154898396Y-93750070D01*
X154380750Y-93751228D01*
X153808445Y-93750508D01*
X153289517Y-93747883D01*
X152874616Y-93743045D01*
X152554444Y-93735691D01*
X152319704Y-93725521D01*
X152161097Y-93712231D01*
X152069325Y-93695521D01*
X152035091Y-93675089D01*
X152030388Y-93609860D01*
X152026136Y-93432368D01*
X152022714Y-93154127D01*
X152020159Y-92786011D01*
X152018511Y-92338896D01*
X152017810Y-91823657D01*
X152018094Y-91251168D01*
X152019403Y-90632304D01*
X152021775Y-89977941D01*
X152037578Y-86356933D01*
X154366372Y-90008397D01*
G37*
G36*
X152390939Y-85691166D02*
G01*
X152543652Y-85766682D01*
X152787906Y-85889381D01*
X153115233Y-86054956D01*
X153517167Y-86259100D01*
X153985241Y-86497508D01*
X154510989Y-86765870D01*
X155085944Y-87059882D01*
X155701639Y-87375235D01*
X156349607Y-87707623D01*
X160350605Y-89761540D01*
X160351286Y-94081164D01*
X160351191Y-94647464D01*
X160350567Y-95331188D01*
X160349422Y-95969955D01*
X160347801Y-96554155D01*
X160345752Y-97074180D01*
X160343319Y-97520423D01*
X160340550Y-97883275D01*
X160337491Y-98153129D01*
X160334186Y-98320376D01*
X160330683Y-98375409D01*
X160322731Y-98363306D01*
X160261299Y-98265527D01*
X160144511Y-98077994D01*
X159978353Y-97810369D01*
X159768811Y-97472315D01*
X159521873Y-97073491D01*
X159243524Y-96623560D01*
X158939751Y-96132183D01*
X158616541Y-95609022D01*
X157975647Y-94575089D01*
X157202160Y-93335675D01*
X156391737Y-92045121D01*
X155561031Y-90729787D01*
X154726694Y-89416034D01*
X153905381Y-88130222D01*
X153113743Y-86898710D01*
X152965234Y-86667960D01*
X152760980Y-86348687D01*
X152587200Y-86074744D01*
X152452850Y-85860352D01*
X152366880Y-85719729D01*
X152338246Y-85667096D01*
X152390939Y-85691166D01*
G37*
G36*
X154534940Y-103192475D02*
G01*
X155352670Y-103192475D01*
X157489137Y-103192475D01*
X157489137Y-103649310D01*
X157489137Y-104106144D01*
X156666835Y-104106144D01*
X155844533Y-104106144D01*
X155844533Y-104409004D01*
X155844533Y-104711864D01*
X156663680Y-105337901D01*
X157482827Y-105963938D01*
X157485982Y-106530962D01*
X157485582Y-106692167D01*
X157476467Y-106917495D01*
X157455379Y-107035639D01*
X157421161Y-107055974D01*
X157364859Y-107014282D01*
X157226748Y-106906572D01*
X157025267Y-106747020D01*
X156776955Y-106548729D01*
X156498350Y-106324803D01*
X155643515Y-105635643D01*
X155466742Y-105902522D01*
X155403398Y-105990055D01*
X155144571Y-106236996D01*
X154840743Y-106397345D01*
X154513714Y-106471120D01*
X154185283Y-106458338D01*
X153877250Y-106359019D01*
X153611415Y-106173179D01*
X153409576Y-105900837D01*
X153392628Y-105867613D01*
X153343856Y-105762589D01*
X153307738Y-105655954D01*
X153281961Y-105527672D01*
X153264212Y-105357710D01*
X153252178Y-105126034D01*
X153243546Y-104812610D01*
X153236004Y-104397404D01*
X153231218Y-104106144D01*
X153834461Y-104106144D01*
X153834461Y-104407702D01*
X153836482Y-104490847D01*
X153859820Y-104762538D01*
X153900894Y-105019029D01*
X153941843Y-105167258D01*
X154061056Y-105373907D01*
X154246869Y-105486345D01*
X154515766Y-105517946D01*
X154579040Y-105515131D01*
X154844907Y-105444575D01*
X155035810Y-105278258D01*
X155154379Y-105014106D01*
X155173521Y-104931076D01*
X155212663Y-104676889D01*
X155230518Y-104425928D01*
X155235420Y-104106144D01*
X154534940Y-104106144D01*
X153834461Y-104106144D01*
X153231218Y-104106144D01*
X153216204Y-103192475D01*
X154534940Y-103192475D01*
G37*
G36*
X154525893Y-98806863D02*
G01*
X155352670Y-98806863D01*
X157489137Y-98806863D01*
X157489137Y-99263698D01*
X157489137Y-99720533D01*
X156666835Y-99720533D01*
X155844533Y-99720533D01*
X155844533Y-100022339D01*
X155844533Y-100324146D01*
X156641873Y-100945344D01*
X156832095Y-101094990D01*
X157077465Y-101292767D01*
X157276172Y-101458621D01*
X157411518Y-101578521D01*
X157466803Y-101638437D01*
X157470634Y-101654318D01*
X157479490Y-101775080D01*
X157481648Y-101973617D01*
X157476536Y-102216073D01*
X157458681Y-102721813D01*
X156550379Y-101987009D01*
X155642076Y-101252204D01*
X155471640Y-101506632D01*
X155372830Y-101641906D01*
X155120850Y-101883053D01*
X154822224Y-102024651D01*
X154450236Y-102081744D01*
X154132328Y-102070789D01*
X153835058Y-101981897D01*
X153601004Y-101801423D01*
X153411660Y-101519346D01*
X153392631Y-101482016D01*
X153343698Y-101376486D01*
X153307516Y-101269577D01*
X153281746Y-101141216D01*
X153264048Y-100971329D01*
X153252084Y-100739845D01*
X153243516Y-100426690D01*
X153236004Y-100011792D01*
X153231218Y-99720533D01*
X153816366Y-99720533D01*
X153852779Y-100236509D01*
X153858649Y-100311106D01*
X153886699Y-100559383D01*
X153921922Y-100762121D01*
X153958096Y-100881234D01*
X154014012Y-100958657D01*
X154196919Y-101084021D01*
X154432523Y-101143561D01*
X154679773Y-101123497D01*
X154744178Y-101104374D01*
X154948646Y-101000299D01*
X155082116Y-100832314D01*
X155169493Y-100572390D01*
X155180899Y-100518225D01*
X155218155Y-100260137D01*
X155233931Y-100009861D01*
X155235420Y-99720533D01*
X154525893Y-99720533D01*
X153816366Y-99720533D01*
X153231218Y-99720533D01*
X153216204Y-98806863D01*
X154525893Y-98806863D01*
G37*
G36*
X157333322Y-107628350D02*
G01*
X157358125Y-107705864D01*
X157431156Y-107960433D01*
X157487568Y-108191779D01*
X157498553Y-108257785D01*
X157518337Y-108479211D01*
X157528212Y-108758334D01*
X157526165Y-109050378D01*
X157524664Y-109096835D01*
X157508544Y-109389029D01*
X157478222Y-109605947D01*
X157425577Y-109788608D01*
X157342487Y-109978031D01*
X157261034Y-110123453D01*
X157108219Y-110338493D01*
X156957037Y-110497785D01*
X156709959Y-110654478D01*
X156371649Y-110756711D01*
X156023387Y-110757381D01*
X155691945Y-110657192D01*
X155404094Y-110456849D01*
X155329633Y-110379056D01*
X155224944Y-110239311D01*
X155135319Y-110066543D01*
X155051954Y-109838972D01*
X154966047Y-109534817D01*
X154868797Y-109132297D01*
X154826294Y-108960721D01*
X154725934Y-108656140D01*
X154612025Y-108454647D01*
X154475734Y-108343265D01*
X154308225Y-108309022D01*
X154289161Y-108309465D01*
X154090932Y-108374540D01*
X153935114Y-108538381D01*
X153829145Y-108784325D01*
X153780459Y-109095705D01*
X153796493Y-109455858D01*
X153838805Y-109639772D01*
X153924725Y-109890434D01*
X154032539Y-110136360D01*
X154042274Y-110155847D01*
X154140511Y-110353204D01*
X154215145Y-110504363D01*
X154250688Y-110577967D01*
X154251172Y-110579972D01*
X154197224Y-110602054D01*
X154052825Y-110617705D01*
X153846926Y-110623650D01*
X153752856Y-110623397D01*
X153565828Y-110613376D01*
X153443562Y-110572422D01*
X153362829Y-110478639D01*
X153300396Y-110310128D01*
X153233032Y-110044993D01*
X153147920Y-109566014D01*
X153128592Y-109044348D01*
X153189627Y-108566221D01*
X153327599Y-108146239D01*
X153539082Y-107799009D01*
X153820651Y-107539139D01*
X154004165Y-107439867D01*
X154336750Y-107357597D01*
X154673760Y-107379704D01*
X154992106Y-107499676D01*
X155268699Y-107711004D01*
X155480447Y-108007175D01*
X155523230Y-108107525D01*
X155597662Y-108325963D01*
X155678253Y-108601004D01*
X155753740Y-108896011D01*
X155837033Y-109215529D01*
X155938414Y-109504330D01*
X156046912Y-109694784D01*
X156170209Y-109799680D01*
X156315989Y-109831804D01*
X156365725Y-109829827D01*
X156587984Y-109756831D01*
X156749007Y-109580769D01*
X156846965Y-109304566D01*
X156880024Y-108931146D01*
X156865882Y-108672599D01*
X156748970Y-108159695D01*
X156516689Y-107682566D01*
X156439323Y-107557980D01*
X156361828Y-107425516D01*
X156331823Y-107362782D01*
X156333459Y-107360368D01*
X156406601Y-107347216D01*
X156566680Y-107337948D01*
X156783762Y-107334441D01*
X157235701Y-107334441D01*
X157333322Y-107628350D01*
G37*
D13*
X122050000Y-120590000D02*
X144970000Y-120590000D01*
X122050000Y-125790000D02*
X122050000Y-120590000D01*
X122050000Y-125790000D02*
X147570000Y-125790000D01*
X144970000Y-123190000D02*
X144970000Y-120590000D01*
X147570000Y-120590000D02*
X146240000Y-120590000D01*
X147570000Y-121920000D02*
X147570000Y-120590000D01*
X147570000Y-123190000D02*
X144970000Y-123190000D01*
X147570000Y-125790000D02*
X147570000Y-123190000D01*
X77410000Y-120590000D02*
X118110000Y-120590000D01*
X77410000Y-125790000D02*
X77410000Y-120590000D01*
X77410000Y-125790000D02*
X120710000Y-125790000D01*
X118110000Y-123190000D02*
X118110000Y-120590000D01*
X120710000Y-120590000D02*
X119380000Y-120590000D01*
X120710000Y-121920000D02*
X120710000Y-120590000D01*
X120710000Y-123190000D02*
X118110000Y-123190000D01*
X120710000Y-125790000D02*
X120710000Y-123190000D01*
X117970000Y-74870000D02*
X135810000Y-74870000D01*
X117970000Y-80070000D02*
X117970000Y-74870000D01*
X117970000Y-80070000D02*
X138410000Y-80070000D01*
X135810000Y-77470000D02*
X135810000Y-74870000D01*
X138410000Y-74870000D02*
X137080000Y-74870000D01*
X138410000Y-76200000D02*
X138410000Y-74870000D01*
X138410000Y-77470000D02*
X135810000Y-77470000D01*
X138410000Y-80070000D02*
X138410000Y-77470000D01*
X77410000Y-74870000D02*
X113030000Y-74870000D01*
X77410000Y-80070000D02*
X77410000Y-74870000D01*
X77410000Y-80070000D02*
X115630000Y-80070000D01*
X113030000Y-77470000D02*
X113030000Y-74870000D01*
X115630000Y-74870000D02*
X114300000Y-74870000D01*
X115630000Y-76200000D02*
X115630000Y-74870000D01*
X115630000Y-77470000D02*
X113030000Y-77470000D01*
X115630000Y-80070000D02*
X115630000Y-77470000D01*
%LPC*%
D14*
X91440000Y-87386000D03*
D15*
X91440000Y-89926000D03*
X91440000Y-92466000D03*
X91440000Y-95006000D03*
D14*
X162560000Y-105166000D03*
D15*
X162560000Y-107706000D03*
X162560000Y-110246000D03*
X162560000Y-112786000D03*
D14*
X93980000Y-129540000D03*
D15*
X96520000Y-129540000D03*
D14*
X121920000Y-70690000D03*
D15*
X124460000Y-70690000D03*
X127000000Y-70690000D03*
X129540000Y-70690000D03*
D14*
X144780000Y-132080000D03*
D15*
X144780000Y-134620000D03*
X147320000Y-132080000D03*
X147320000Y-134620000D03*
X149860000Y-132080000D03*
X149860000Y-134620000D03*
X152400000Y-132080000D03*
X152400000Y-134620000D03*
X154940000Y-132080000D03*
X154940000Y-134620000D03*
X157480000Y-132080000D03*
X157480000Y-134620000D03*
D16*
X96520000Y-86426000D03*
D17*
X106680000Y-86426000D03*
D14*
X121920000Y-134190000D03*
D15*
X124460000Y-134190000D03*
X127000000Y-134190000D03*
D16*
X96520000Y-102626000D03*
D17*
X106680000Y-102626000D03*
D14*
X134620000Y-66040000D03*
D15*
X137160000Y-66040000D03*
X139700000Y-66040000D03*
X142240000Y-66040000D03*
D14*
X149860000Y-87386000D03*
D15*
X149860000Y-89926000D03*
X149860000Y-92466000D03*
X149860000Y-95006000D03*
X149860000Y-97546000D03*
X149860000Y-100086000D03*
X149860000Y-102626000D03*
X149860000Y-105166000D03*
X149860000Y-107706000D03*
X149860000Y-110246000D03*
X149860000Y-112786000D03*
D14*
X86360000Y-129540000D03*
D15*
X88900000Y-129540000D03*
D14*
X121920000Y-129540000D03*
D15*
X124460000Y-129540000D03*
X127000000Y-129540000D03*
D16*
X132080000Y-106196000D03*
D17*
X142240000Y-106196000D03*
D16*
X132080000Y-98096000D03*
D17*
X142240000Y-98096000D03*
D14*
X114300000Y-134140000D03*
D15*
X116840000Y-134140000D03*
D14*
X162560000Y-134620000D03*
D15*
X165100000Y-134620000D03*
X162560000Y-132080000D03*
X165100000Y-132080000D03*
X162560000Y-129540000D03*
X165100000Y-129540000D03*
X162560000Y-127000000D03*
X165100000Y-127000000D03*
X162560000Y-124460000D03*
X165100000Y-124460000D03*
X162560000Y-121920000D03*
X165100000Y-121920000D03*
D14*
X165100000Y-66040000D03*
D15*
X162560000Y-66040000D03*
X165100000Y-68580000D03*
X162560000Y-68580000D03*
X165100000Y-71120000D03*
X162560000Y-71120000D03*
X165100000Y-73660000D03*
X162560000Y-73660000D03*
D16*
X132080000Y-102146000D03*
D17*
X142240000Y-102146000D03*
D16*
X96520000Y-106676000D03*
D17*
X106680000Y-106676000D03*
D16*
X132080000Y-110246000D03*
D17*
X142240000Y-110246000D03*
D14*
X101600000Y-134620000D03*
D15*
X104140000Y-134620000D03*
X106680000Y-134620000D03*
X109220000Y-134620000D03*
D14*
X101600000Y-129540000D03*
D15*
X104140000Y-129540000D03*
X106680000Y-129540000D03*
X109220000Y-129540000D03*
D14*
X114300000Y-87386000D03*
D15*
X114300000Y-89926000D03*
X114300000Y-92466000D03*
X114300000Y-95006000D03*
X114300000Y-97546000D03*
X114300000Y-100086000D03*
X114300000Y-102626000D03*
X114300000Y-105166000D03*
X114300000Y-107706000D03*
X114300000Y-110246000D03*
X114300000Y-112786000D03*
D14*
X86360000Y-66040000D03*
D15*
X88900000Y-66040000D03*
X91440000Y-66040000D03*
X93980000Y-66040000D03*
D16*
X132080000Y-85946000D03*
D17*
X142240000Y-85946000D03*
D16*
X96520000Y-114776000D03*
D17*
X106680000Y-114776000D03*
D14*
X121920000Y-66040000D03*
D15*
X124460000Y-66040000D03*
X127000000Y-66040000D03*
X129540000Y-66040000D03*
D16*
X96520000Y-98576000D03*
D17*
X106680000Y-98576000D03*
D14*
X99060000Y-70690000D03*
D15*
X101600000Y-70690000D03*
X104140000Y-70690000D03*
X106680000Y-70690000D03*
D14*
X127000000Y-105166000D03*
D15*
X127000000Y-107706000D03*
X127000000Y-110246000D03*
X127000000Y-112786000D03*
D14*
X162560000Y-87386000D03*
D15*
X162560000Y-89926000D03*
X162560000Y-92466000D03*
X162560000Y-95006000D03*
D14*
X134620000Y-70690000D03*
D15*
X137160000Y-70690000D03*
X139700000Y-70690000D03*
X142240000Y-70690000D03*
D14*
X91440000Y-105166000D03*
D15*
X91440000Y-107706000D03*
X91440000Y-110246000D03*
X91440000Y-112786000D03*
D16*
X132080000Y-114296000D03*
D17*
X142240000Y-114296000D03*
D16*
X132080000Y-89996000D03*
D17*
X142240000Y-89996000D03*
D16*
X96520000Y-94526000D03*
D17*
X106680000Y-94526000D03*
D14*
X93980000Y-134190000D03*
D15*
X96520000Y-134190000D03*
D14*
X86360000Y-70690000D03*
D15*
X88900000Y-70690000D03*
X91440000Y-70690000D03*
X93980000Y-70690000D03*
D14*
X132080000Y-129540000D03*
D15*
X134620000Y-129540000D03*
X137160000Y-129540000D03*
D14*
X132080000Y-134190000D03*
D15*
X134620000Y-134190000D03*
X137160000Y-134190000D03*
D14*
X78740000Y-134190000D03*
D15*
X81280000Y-134190000D03*
D14*
X86360000Y-134190000D03*
D15*
X88900000Y-134190000D03*
D16*
X96520000Y-90476000D03*
D17*
X106680000Y-90476000D03*
D14*
X78740000Y-87386000D03*
D15*
X78740000Y-89926000D03*
X78740000Y-92466000D03*
X78740000Y-95006000D03*
X78740000Y-97546000D03*
X78740000Y-100086000D03*
X78740000Y-102626000D03*
X78740000Y-105166000D03*
X78740000Y-107706000D03*
X78740000Y-110246000D03*
X78740000Y-112786000D03*
D14*
X78740000Y-129540000D03*
D15*
X81280000Y-129540000D03*
D14*
X114300000Y-129540000D03*
D15*
X116840000Y-129540000D03*
D14*
X99060000Y-66040000D03*
D15*
X101600000Y-66040000D03*
X104140000Y-66040000D03*
X106680000Y-66040000D03*
D16*
X96520000Y-110726000D03*
D17*
X106680000Y-110726000D03*
D14*
X127000000Y-87386000D03*
D15*
X127000000Y-89926000D03*
X127000000Y-92466000D03*
X127000000Y-95006000D03*
D16*
X132080000Y-94046000D03*
D17*
X142240000Y-94046000D03*
D14*
X146240000Y-121920000D03*
D15*
X146240000Y-124460000D03*
X143700000Y-121920000D03*
X143700000Y-124460000D03*
X141160000Y-121920000D03*
X141160000Y-124460000D03*
X138620000Y-121920000D03*
X138620000Y-124460000D03*
X136080000Y-121920000D03*
X136080000Y-124460000D03*
X133540000Y-121920000D03*
X133540000Y-124460000D03*
X131000000Y-121920000D03*
X131000000Y-124460000D03*
X128460000Y-121920000D03*
X128460000Y-124460000D03*
X125920000Y-121920000D03*
X125920000Y-124460000D03*
X123380000Y-121920000D03*
X123380000Y-124460000D03*
D14*
X119380000Y-121920000D03*
D15*
X119380000Y-124460000D03*
X116840000Y-121920000D03*
X116840000Y-124460000D03*
X114300000Y-121920000D03*
X114300000Y-124460000D03*
X111760000Y-121920000D03*
X111760000Y-124460000D03*
X109220000Y-121920000D03*
X109220000Y-124460000D03*
X106680000Y-121920000D03*
X106680000Y-124460000D03*
X104140000Y-121920000D03*
X104140000Y-124460000D03*
X101600000Y-121920000D03*
X101600000Y-124460000D03*
X99060000Y-121920000D03*
X99060000Y-124460000D03*
X96520000Y-121920000D03*
X96520000Y-124460000D03*
X93980000Y-121920000D03*
X93980000Y-124460000D03*
X91440000Y-121920000D03*
X91440000Y-124460000D03*
X88900000Y-121920000D03*
X88900000Y-124460000D03*
X86360000Y-121920000D03*
X86360000Y-124460000D03*
X83820000Y-121920000D03*
X83820000Y-124460000D03*
X81280000Y-121920000D03*
X81280000Y-124460000D03*
X78740000Y-121920000D03*
X78740000Y-124460000D03*
D14*
X137080000Y-76200000D03*
D15*
X137080000Y-78740000D03*
X134540000Y-76200000D03*
X134540000Y-78740000D03*
X132000000Y-76200000D03*
X132000000Y-78740000D03*
X129460000Y-76200000D03*
X129460000Y-78740000D03*
X126920000Y-76200000D03*
X126920000Y-78740000D03*
X124380000Y-76200000D03*
X124380000Y-78740000D03*
X121840000Y-76200000D03*
X121840000Y-78740000D03*
X119300000Y-76200000D03*
X119300000Y-78740000D03*
D14*
X114300000Y-76200000D03*
D15*
X114300000Y-78740000D03*
X111760000Y-76200000D03*
X111760000Y-78740000D03*
X109220000Y-76200000D03*
X109220000Y-78740000D03*
X106680000Y-76200000D03*
X106680000Y-78740000D03*
X104140000Y-76200000D03*
X104140000Y-78740000D03*
X101600000Y-76200000D03*
X101600000Y-78740000D03*
X99060000Y-76200000D03*
X99060000Y-78740000D03*
X96520000Y-76200000D03*
X96520000Y-78740000D03*
X93980000Y-76200000D03*
X93980000Y-78740000D03*
X91440000Y-76200000D03*
X91440000Y-78740000D03*
X88900000Y-76200000D03*
X88900000Y-78740000D03*
X86360000Y-76200000D03*
X86360000Y-78740000D03*
X83820000Y-76200000D03*
X83820000Y-78740000D03*
X81280000Y-76200000D03*
X81280000Y-78740000D03*
X78740000Y-76200000D03*
X78740000Y-78740000D03*
%LPD*%
M02*
