%TF.GenerationSoftware,KiCad,Pcbnew,8.0.4*%
%TF.CreationDate,2024-11-25T17:42:07+09:00*%
%TF.ProjectId,F767ZI_MB_V1.0,46373637-5a49-45f4-9d42-5f56312e302e,rev?*%
%TF.SameCoordinates,Original*%
%TF.FileFunction,Drillmap*%
%TF.FilePolarity,Positive*%
%FSLAX45Y45*%
G04 Gerber Fmt 4.5, Leading zero omitted, Abs format (unit mm)*
G04 Created by KiCad (PCBNEW 8.0.4) date 2024-11-25 17:42:07*
%MOMM*%
%LPD*%
G01*
G04 APERTURE LIST*
%ADD10C,0.100000*%
%ADD11C,0.200000*%
G04 APERTURE END LIST*
D10*
X7620000Y-13970000D02*
G75*
G02*
X7366000Y-13716000I0J254000D01*
G01*
X7366000Y-13716000D02*
X7366000Y-6350000D01*
X16764000Y-6096000D02*
X7620000Y-6096000D01*
X16764000Y-6096000D02*
G75*
G02*
X17018000Y-6350000I0J-254000D01*
G01*
X7366000Y-6350000D02*
G75*
G02*
X7620000Y-6096000I254000J0D01*
G01*
X17018000Y-6350000D02*
X17018000Y-13716000D01*
X17018000Y-13716000D02*
G75*
G02*
X16764000Y-13970000I-254000J0D01*
G01*
X16764000Y-13970000D02*
X7620000Y-13970000D01*
D11*
D10*
X12250170Y-11869610D02*
X12290170Y-11909610D01*
X12290170Y-11869610D02*
X12250170Y-11909610D01*
X9692000Y-8642600D02*
G75*
G02*
X9612000Y-8642600I-40000J0D01*
G01*
X9612000Y-8642600D02*
G75*
G02*
X9692000Y-8642600I40000J0D01*
G01*
X9692000Y-9047600D02*
G75*
G02*
X9612000Y-9047600I-40000J0D01*
G01*
X9612000Y-9047600D02*
G75*
G02*
X9692000Y-9047600I40000J0D01*
G01*
X9692000Y-9452600D02*
G75*
G02*
X9612000Y-9452600I-40000J0D01*
G01*
X9612000Y-9452600D02*
G75*
G02*
X9692000Y-9452600I40000J0D01*
G01*
X9692000Y-9857600D02*
G75*
G02*
X9612000Y-9857600I-40000J0D01*
G01*
X9612000Y-9857600D02*
G75*
G02*
X9692000Y-9857600I40000J0D01*
G01*
X9692000Y-10262600D02*
G75*
G02*
X9612000Y-10262600I-40000J0D01*
G01*
X9612000Y-10262600D02*
G75*
G02*
X9692000Y-10262600I40000J0D01*
G01*
X9692000Y-10667600D02*
G75*
G02*
X9612000Y-10667600I-40000J0D01*
G01*
X9612000Y-10667600D02*
G75*
G02*
X9692000Y-10667600I40000J0D01*
G01*
X9692000Y-11072600D02*
G75*
G02*
X9612000Y-11072600I-40000J0D01*
G01*
X9612000Y-11072600D02*
G75*
G02*
X9692000Y-11072600I40000J0D01*
G01*
X9692000Y-11477600D02*
G75*
G02*
X9612000Y-11477600I-40000J0D01*
G01*
X9612000Y-11477600D02*
G75*
G02*
X9692000Y-11477600I40000J0D01*
G01*
X10708000Y-8642600D02*
G75*
G02*
X10628000Y-8642600I-40000J0D01*
G01*
X10628000Y-8642600D02*
G75*
G02*
X10708000Y-8642600I40000J0D01*
G01*
X10708000Y-9047600D02*
G75*
G02*
X10628000Y-9047600I-40000J0D01*
G01*
X10628000Y-9047600D02*
G75*
G02*
X10708000Y-9047600I40000J0D01*
G01*
X10708000Y-9452600D02*
G75*
G02*
X10628000Y-9452600I-40000J0D01*
G01*
X10628000Y-9452600D02*
G75*
G02*
X10708000Y-9452600I40000J0D01*
G01*
X10708000Y-9857600D02*
G75*
G02*
X10628000Y-9857600I-40000J0D01*
G01*
X10628000Y-9857600D02*
G75*
G02*
X10708000Y-9857600I40000J0D01*
G01*
X10708000Y-10262600D02*
G75*
G02*
X10628000Y-10262600I-40000J0D01*
G01*
X10628000Y-10262600D02*
G75*
G02*
X10708000Y-10262600I40000J0D01*
G01*
X10708000Y-10667600D02*
G75*
G02*
X10628000Y-10667600I-40000J0D01*
G01*
X10628000Y-10667600D02*
G75*
G02*
X10708000Y-10667600I40000J0D01*
G01*
X10708000Y-11072600D02*
G75*
G02*
X10628000Y-11072600I-40000J0D01*
G01*
X10628000Y-11072600D02*
G75*
G02*
X10708000Y-11072600I40000J0D01*
G01*
X10708000Y-11477600D02*
G75*
G02*
X10628000Y-11477600I-40000J0D01*
G01*
X10628000Y-11477600D02*
G75*
G02*
X10708000Y-11477600I40000J0D01*
G01*
X13248000Y-8594600D02*
G75*
G02*
X13168000Y-8594600I-40000J0D01*
G01*
X13168000Y-8594600D02*
G75*
G02*
X13248000Y-8594600I40000J0D01*
G01*
X13248000Y-8999600D02*
G75*
G02*
X13168000Y-8999600I-40000J0D01*
G01*
X13168000Y-8999600D02*
G75*
G02*
X13248000Y-8999600I40000J0D01*
G01*
X13248000Y-9404600D02*
G75*
G02*
X13168000Y-9404600I-40000J0D01*
G01*
X13168000Y-9404600D02*
G75*
G02*
X13248000Y-9404600I40000J0D01*
G01*
X13248000Y-9809600D02*
G75*
G02*
X13168000Y-9809600I-40000J0D01*
G01*
X13168000Y-9809600D02*
G75*
G02*
X13248000Y-9809600I40000J0D01*
G01*
X13248000Y-10214600D02*
G75*
G02*
X13168000Y-10214600I-40000J0D01*
G01*
X13168000Y-10214600D02*
G75*
G02*
X13248000Y-10214600I40000J0D01*
G01*
X13248000Y-10619600D02*
G75*
G02*
X13168000Y-10619600I-40000J0D01*
G01*
X13168000Y-10619600D02*
G75*
G02*
X13248000Y-10619600I40000J0D01*
G01*
X13248000Y-11024600D02*
G75*
G02*
X13168000Y-11024600I-40000J0D01*
G01*
X13168000Y-11024600D02*
G75*
G02*
X13248000Y-11024600I40000J0D01*
G01*
X13248000Y-11429600D02*
G75*
G02*
X13168000Y-11429600I-40000J0D01*
G01*
X13168000Y-11429600D02*
G75*
G02*
X13248000Y-11429600I40000J0D01*
G01*
X14264000Y-8594600D02*
G75*
G02*
X14184000Y-8594600I-40000J0D01*
G01*
X14184000Y-8594600D02*
G75*
G02*
X14264000Y-8594600I40000J0D01*
G01*
X14264000Y-8999600D02*
G75*
G02*
X14184000Y-8999600I-40000J0D01*
G01*
X14184000Y-8999600D02*
G75*
G02*
X14264000Y-8999600I40000J0D01*
G01*
X14264000Y-9404600D02*
G75*
G02*
X14184000Y-9404600I-40000J0D01*
G01*
X14184000Y-9404600D02*
G75*
G02*
X14264000Y-9404600I40000J0D01*
G01*
X14264000Y-9809600D02*
G75*
G02*
X14184000Y-9809600I-40000J0D01*
G01*
X14184000Y-9809600D02*
G75*
G02*
X14264000Y-9809600I40000J0D01*
G01*
X14264000Y-10214600D02*
G75*
G02*
X14184000Y-10214600I-40000J0D01*
G01*
X14184000Y-10214600D02*
G75*
G02*
X14264000Y-10214600I40000J0D01*
G01*
X14264000Y-10619600D02*
G75*
G02*
X14184000Y-10619600I-40000J0D01*
G01*
X14184000Y-10619600D02*
G75*
G02*
X14264000Y-10619600I40000J0D01*
G01*
X14264000Y-11024600D02*
G75*
G02*
X14184000Y-11024600I-40000J0D01*
G01*
X14184000Y-11024600D02*
G75*
G02*
X14264000Y-11024600I40000J0D01*
G01*
X14264000Y-11429600D02*
G75*
G02*
X14184000Y-11429600I-40000J0D01*
G01*
X14184000Y-11429600D02*
G75*
G02*
X14264000Y-11429600I40000J0D01*
G01*
X7874000Y-7570000D02*
X7874000Y-7670000D01*
X7824000Y-7620000D02*
X7924000Y-7620000D01*
X7874000Y-7824000D02*
X7874000Y-7924000D01*
X7824000Y-7874000D02*
X7924000Y-7874000D01*
X7874000Y-8688600D02*
X7874000Y-8788600D01*
X7824000Y-8738600D02*
X7924000Y-8738600D01*
X7874000Y-8942600D02*
X7874000Y-9042600D01*
X7824000Y-8992600D02*
X7924000Y-8992600D01*
X7874000Y-9196600D02*
X7874000Y-9296600D01*
X7824000Y-9246600D02*
X7924000Y-9246600D01*
X7874000Y-9450600D02*
X7874000Y-9550600D01*
X7824000Y-9500600D02*
X7924000Y-9500600D01*
X7874000Y-9704600D02*
X7874000Y-9804600D01*
X7824000Y-9754600D02*
X7924000Y-9754600D01*
X7874000Y-9958600D02*
X7874000Y-10058600D01*
X7824000Y-10008600D02*
X7924000Y-10008600D01*
X7874000Y-10212600D02*
X7874000Y-10312600D01*
X7824000Y-10262600D02*
X7924000Y-10262600D01*
X7874000Y-10466600D02*
X7874000Y-10566600D01*
X7824000Y-10516600D02*
X7924000Y-10516600D01*
X7874000Y-10720600D02*
X7874000Y-10820600D01*
X7824000Y-10770600D02*
X7924000Y-10770600D01*
X7874000Y-10974600D02*
X7874000Y-11074600D01*
X7824000Y-11024600D02*
X7924000Y-11024600D01*
X7874000Y-11228600D02*
X7874000Y-11328600D01*
X7824000Y-11278600D02*
X7924000Y-11278600D01*
X7874000Y-12142000D02*
X7874000Y-12242000D01*
X7824000Y-12192000D02*
X7924000Y-12192000D01*
X7874000Y-12396000D02*
X7874000Y-12496000D01*
X7824000Y-12446000D02*
X7924000Y-12446000D01*
X7874000Y-12904000D02*
X7874000Y-13004000D01*
X7824000Y-12954000D02*
X7924000Y-12954000D01*
X7874000Y-13369000D02*
X7874000Y-13469000D01*
X7824000Y-13419000D02*
X7924000Y-13419000D01*
X8128000Y-7570000D02*
X8128000Y-7670000D01*
X8078000Y-7620000D02*
X8178000Y-7620000D01*
X8128000Y-7824000D02*
X8128000Y-7924000D01*
X8078000Y-7874000D02*
X8178000Y-7874000D01*
X8128000Y-12142000D02*
X8128000Y-12242000D01*
X8078000Y-12192000D02*
X8178000Y-12192000D01*
X8128000Y-12396000D02*
X8128000Y-12496000D01*
X8078000Y-12446000D02*
X8178000Y-12446000D01*
X8128000Y-12904000D02*
X8128000Y-13004000D01*
X8078000Y-12954000D02*
X8178000Y-12954000D01*
X8128000Y-13369000D02*
X8128000Y-13469000D01*
X8078000Y-13419000D02*
X8178000Y-13419000D01*
X8382000Y-7570000D02*
X8382000Y-7670000D01*
X8332000Y-7620000D02*
X8432000Y-7620000D01*
X8382000Y-7824000D02*
X8382000Y-7924000D01*
X8332000Y-7874000D02*
X8432000Y-7874000D01*
X8382000Y-12142000D02*
X8382000Y-12242000D01*
X8332000Y-12192000D02*
X8432000Y-12192000D01*
X8382000Y-12396000D02*
X8382000Y-12496000D01*
X8332000Y-12446000D02*
X8432000Y-12446000D01*
X8636000Y-6554000D02*
X8636000Y-6654000D01*
X8586000Y-6604000D02*
X8686000Y-6604000D01*
X8636000Y-7019000D02*
X8636000Y-7119000D01*
X8586000Y-7069000D02*
X8686000Y-7069000D01*
X8636000Y-7570000D02*
X8636000Y-7670000D01*
X8586000Y-7620000D02*
X8686000Y-7620000D01*
X8636000Y-7824000D02*
X8636000Y-7924000D01*
X8586000Y-7874000D02*
X8686000Y-7874000D01*
X8636000Y-12142000D02*
X8636000Y-12242000D01*
X8586000Y-12192000D02*
X8686000Y-12192000D01*
X8636000Y-12396000D02*
X8636000Y-12496000D01*
X8586000Y-12446000D02*
X8686000Y-12446000D01*
X8636000Y-12904000D02*
X8636000Y-13004000D01*
X8586000Y-12954000D02*
X8686000Y-12954000D01*
X8636000Y-13369000D02*
X8636000Y-13469000D01*
X8586000Y-13419000D02*
X8686000Y-13419000D01*
X8890000Y-6554000D02*
X8890000Y-6654000D01*
X8840000Y-6604000D02*
X8940000Y-6604000D01*
X8890000Y-7019000D02*
X8890000Y-7119000D01*
X8840000Y-7069000D02*
X8940000Y-7069000D01*
X8890000Y-7570000D02*
X8890000Y-7670000D01*
X8840000Y-7620000D02*
X8940000Y-7620000D01*
X8890000Y-7824000D02*
X8890000Y-7924000D01*
X8840000Y-7874000D02*
X8940000Y-7874000D01*
X8890000Y-12142000D02*
X8890000Y-12242000D01*
X8840000Y-12192000D02*
X8940000Y-12192000D01*
X8890000Y-12396000D02*
X8890000Y-12496000D01*
X8840000Y-12446000D02*
X8940000Y-12446000D01*
X8890000Y-12904000D02*
X8890000Y-13004000D01*
X8840000Y-12954000D02*
X8940000Y-12954000D01*
X8890000Y-13369000D02*
X8890000Y-13469000D01*
X8840000Y-13419000D02*
X8940000Y-13419000D01*
X9144000Y-6554000D02*
X9144000Y-6654000D01*
X9094000Y-6604000D02*
X9194000Y-6604000D01*
X9144000Y-7019000D02*
X9144000Y-7119000D01*
X9094000Y-7069000D02*
X9194000Y-7069000D01*
X9144000Y-7570000D02*
X9144000Y-7670000D01*
X9094000Y-7620000D02*
X9194000Y-7620000D01*
X9144000Y-7824000D02*
X9144000Y-7924000D01*
X9094000Y-7874000D02*
X9194000Y-7874000D01*
X9144000Y-8688600D02*
X9144000Y-8788600D01*
X9094000Y-8738600D02*
X9194000Y-8738600D01*
X9144000Y-8942600D02*
X9144000Y-9042600D01*
X9094000Y-8992600D02*
X9194000Y-8992600D01*
X9144000Y-9196600D02*
X9144000Y-9296600D01*
X9094000Y-9246600D02*
X9194000Y-9246600D01*
X9144000Y-9450600D02*
X9144000Y-9550600D01*
X9094000Y-9500600D02*
X9194000Y-9500600D01*
X9144000Y-10466600D02*
X9144000Y-10566600D01*
X9094000Y-10516600D02*
X9194000Y-10516600D01*
X9144000Y-10720600D02*
X9144000Y-10820600D01*
X9094000Y-10770600D02*
X9194000Y-10770600D01*
X9144000Y-10974600D02*
X9144000Y-11074600D01*
X9094000Y-11024600D02*
X9194000Y-11024600D01*
X9144000Y-11228600D02*
X9144000Y-11328600D01*
X9094000Y-11278600D02*
X9194000Y-11278600D01*
X9144000Y-12142000D02*
X9144000Y-12242000D01*
X9094000Y-12192000D02*
X9194000Y-12192000D01*
X9144000Y-12396000D02*
X9144000Y-12496000D01*
X9094000Y-12446000D02*
X9194000Y-12446000D01*
X9398000Y-6554000D02*
X9398000Y-6654000D01*
X9348000Y-6604000D02*
X9448000Y-6604000D01*
X9398000Y-7019000D02*
X9398000Y-7119000D01*
X9348000Y-7069000D02*
X9448000Y-7069000D01*
X9398000Y-7570000D02*
X9398000Y-7670000D01*
X9348000Y-7620000D02*
X9448000Y-7620000D01*
X9398000Y-7824000D02*
X9398000Y-7924000D01*
X9348000Y-7874000D02*
X9448000Y-7874000D01*
X9398000Y-12142000D02*
X9398000Y-12242000D01*
X9348000Y-12192000D02*
X9448000Y-12192000D01*
X9398000Y-12396000D02*
X9398000Y-12496000D01*
X9348000Y-12446000D02*
X9448000Y-12446000D01*
X9398000Y-12904000D02*
X9398000Y-13004000D01*
X9348000Y-12954000D02*
X9448000Y-12954000D01*
X9398000Y-13369000D02*
X9398000Y-13469000D01*
X9348000Y-13419000D02*
X9448000Y-13419000D01*
X9652000Y-7570000D02*
X9652000Y-7670000D01*
X9602000Y-7620000D02*
X9702000Y-7620000D01*
X9652000Y-7824000D02*
X9652000Y-7924000D01*
X9602000Y-7874000D02*
X9702000Y-7874000D01*
X9652000Y-12142000D02*
X9652000Y-12242000D01*
X9602000Y-12192000D02*
X9702000Y-12192000D01*
X9652000Y-12396000D02*
X9652000Y-12496000D01*
X9602000Y-12446000D02*
X9702000Y-12446000D01*
X9652000Y-12904000D02*
X9652000Y-13004000D01*
X9602000Y-12954000D02*
X9702000Y-12954000D01*
X9652000Y-13369000D02*
X9652000Y-13469000D01*
X9602000Y-13419000D02*
X9702000Y-13419000D01*
X9906000Y-6554000D02*
X9906000Y-6654000D01*
X9856000Y-6604000D02*
X9956000Y-6604000D01*
X9906000Y-7019000D02*
X9906000Y-7119000D01*
X9856000Y-7069000D02*
X9956000Y-7069000D01*
X9906000Y-7570000D02*
X9906000Y-7670000D01*
X9856000Y-7620000D02*
X9956000Y-7620000D01*
X9906000Y-7824000D02*
X9906000Y-7924000D01*
X9856000Y-7874000D02*
X9956000Y-7874000D01*
X9906000Y-12142000D02*
X9906000Y-12242000D01*
X9856000Y-12192000D02*
X9956000Y-12192000D01*
X9906000Y-12396000D02*
X9906000Y-12496000D01*
X9856000Y-12446000D02*
X9956000Y-12446000D01*
X10160000Y-6554000D02*
X10160000Y-6654000D01*
X10110000Y-6604000D02*
X10210000Y-6604000D01*
X10160000Y-7019000D02*
X10160000Y-7119000D01*
X10110000Y-7069000D02*
X10210000Y-7069000D01*
X10160000Y-7570000D02*
X10160000Y-7670000D01*
X10110000Y-7620000D02*
X10210000Y-7620000D01*
X10160000Y-7824000D02*
X10160000Y-7924000D01*
X10110000Y-7874000D02*
X10210000Y-7874000D01*
X10160000Y-12142000D02*
X10160000Y-12242000D01*
X10110000Y-12192000D02*
X10210000Y-12192000D01*
X10160000Y-12396000D02*
X10160000Y-12496000D01*
X10110000Y-12446000D02*
X10210000Y-12446000D01*
X10160000Y-12904000D02*
X10160000Y-13004000D01*
X10110000Y-12954000D02*
X10210000Y-12954000D01*
X10160000Y-13412000D02*
X10160000Y-13512000D01*
X10110000Y-13462000D02*
X10210000Y-13462000D01*
X10414000Y-6554000D02*
X10414000Y-6654000D01*
X10364000Y-6604000D02*
X10464000Y-6604000D01*
X10414000Y-7019000D02*
X10414000Y-7119000D01*
X10364000Y-7069000D02*
X10464000Y-7069000D01*
X10414000Y-7570000D02*
X10414000Y-7670000D01*
X10364000Y-7620000D02*
X10464000Y-7620000D01*
X10414000Y-7824000D02*
X10414000Y-7924000D01*
X10364000Y-7874000D02*
X10464000Y-7874000D01*
X10414000Y-12142000D02*
X10414000Y-12242000D01*
X10364000Y-12192000D02*
X10464000Y-12192000D01*
X10414000Y-12396000D02*
X10414000Y-12496000D01*
X10364000Y-12446000D02*
X10464000Y-12446000D01*
X10414000Y-12904000D02*
X10414000Y-13004000D01*
X10364000Y-12954000D02*
X10464000Y-12954000D01*
X10414000Y-13412000D02*
X10414000Y-13512000D01*
X10364000Y-13462000D02*
X10464000Y-13462000D01*
X10668000Y-6554000D02*
X10668000Y-6654000D01*
X10618000Y-6604000D02*
X10718000Y-6604000D01*
X10668000Y-7019000D02*
X10668000Y-7119000D01*
X10618000Y-7069000D02*
X10718000Y-7069000D01*
X10668000Y-7570000D02*
X10668000Y-7670000D01*
X10618000Y-7620000D02*
X10718000Y-7620000D01*
X10668000Y-7824000D02*
X10668000Y-7924000D01*
X10618000Y-7874000D02*
X10718000Y-7874000D01*
X10668000Y-12142000D02*
X10668000Y-12242000D01*
X10618000Y-12192000D02*
X10718000Y-12192000D01*
X10668000Y-12396000D02*
X10668000Y-12496000D01*
X10618000Y-12446000D02*
X10718000Y-12446000D01*
X10668000Y-12904000D02*
X10668000Y-13004000D01*
X10618000Y-12954000D02*
X10718000Y-12954000D01*
X10668000Y-13412000D02*
X10668000Y-13512000D01*
X10618000Y-13462000D02*
X10718000Y-13462000D01*
X10922000Y-7570000D02*
X10922000Y-7670000D01*
X10872000Y-7620000D02*
X10972000Y-7620000D01*
X10922000Y-7824000D02*
X10922000Y-7924000D01*
X10872000Y-7874000D02*
X10972000Y-7874000D01*
X10922000Y-12142000D02*
X10922000Y-12242000D01*
X10872000Y-12192000D02*
X10972000Y-12192000D01*
X10922000Y-12396000D02*
X10922000Y-12496000D01*
X10872000Y-12446000D02*
X10972000Y-12446000D01*
X10922000Y-12904000D02*
X10922000Y-13004000D01*
X10872000Y-12954000D02*
X10972000Y-12954000D01*
X10922000Y-13412000D02*
X10922000Y-13512000D01*
X10872000Y-13462000D02*
X10972000Y-13462000D01*
X11176000Y-7570000D02*
X11176000Y-7670000D01*
X11126000Y-7620000D02*
X11226000Y-7620000D01*
X11176000Y-7824000D02*
X11176000Y-7924000D01*
X11126000Y-7874000D02*
X11226000Y-7874000D01*
X11176000Y-12142000D02*
X11176000Y-12242000D01*
X11126000Y-12192000D02*
X11226000Y-12192000D01*
X11176000Y-12396000D02*
X11176000Y-12496000D01*
X11126000Y-12446000D02*
X11226000Y-12446000D01*
X11430000Y-7570000D02*
X11430000Y-7670000D01*
X11380000Y-7620000D02*
X11480000Y-7620000D01*
X11430000Y-7824000D02*
X11430000Y-7924000D01*
X11380000Y-7874000D02*
X11480000Y-7874000D01*
X11430000Y-8688600D02*
X11430000Y-8788600D01*
X11380000Y-8738600D02*
X11480000Y-8738600D01*
X11430000Y-8942600D02*
X11430000Y-9042600D01*
X11380000Y-8992600D02*
X11480000Y-8992600D01*
X11430000Y-9196600D02*
X11430000Y-9296600D01*
X11380000Y-9246600D02*
X11480000Y-9246600D01*
X11430000Y-9450600D02*
X11430000Y-9550600D01*
X11380000Y-9500600D02*
X11480000Y-9500600D01*
X11430000Y-9704600D02*
X11430000Y-9804600D01*
X11380000Y-9754600D02*
X11480000Y-9754600D01*
X11430000Y-9958600D02*
X11430000Y-10058600D01*
X11380000Y-10008600D02*
X11480000Y-10008600D01*
X11430000Y-10212600D02*
X11430000Y-10312600D01*
X11380000Y-10262600D02*
X11480000Y-10262600D01*
X11430000Y-10466600D02*
X11430000Y-10566600D01*
X11380000Y-10516600D02*
X11480000Y-10516600D01*
X11430000Y-10720600D02*
X11430000Y-10820600D01*
X11380000Y-10770600D02*
X11480000Y-10770600D01*
X11430000Y-10974600D02*
X11430000Y-11074600D01*
X11380000Y-11024600D02*
X11480000Y-11024600D01*
X11430000Y-11228600D02*
X11430000Y-11328600D01*
X11380000Y-11278600D02*
X11480000Y-11278600D01*
X11430000Y-12142000D02*
X11430000Y-12242000D01*
X11380000Y-12192000D02*
X11480000Y-12192000D01*
X11430000Y-12396000D02*
X11430000Y-12496000D01*
X11380000Y-12446000D02*
X11480000Y-12446000D01*
X11430000Y-12904000D02*
X11430000Y-13004000D01*
X11380000Y-12954000D02*
X11480000Y-12954000D01*
X11430000Y-13364000D02*
X11430000Y-13464000D01*
X11380000Y-13414000D02*
X11480000Y-13414000D01*
X11684000Y-12142000D02*
X11684000Y-12242000D01*
X11634000Y-12192000D02*
X11734000Y-12192000D01*
X11684000Y-12396000D02*
X11684000Y-12496000D01*
X11634000Y-12446000D02*
X11734000Y-12446000D01*
X11684000Y-12904000D02*
X11684000Y-13004000D01*
X11634000Y-12954000D02*
X11734000Y-12954000D01*
X11684000Y-13364000D02*
X11684000Y-13464000D01*
X11634000Y-13414000D02*
X11734000Y-13414000D01*
X11930000Y-7570000D02*
X11930000Y-7670000D01*
X11880000Y-7620000D02*
X11980000Y-7620000D01*
X11930000Y-7824000D02*
X11930000Y-7924000D01*
X11880000Y-7874000D02*
X11980000Y-7874000D01*
X11938000Y-12142000D02*
X11938000Y-12242000D01*
X11888000Y-12192000D02*
X11988000Y-12192000D01*
X11938000Y-12396000D02*
X11938000Y-12496000D01*
X11888000Y-12446000D02*
X11988000Y-12446000D01*
X12184000Y-7570000D02*
X12184000Y-7670000D01*
X12134000Y-7620000D02*
X12234000Y-7620000D01*
X12184000Y-7824000D02*
X12184000Y-7924000D01*
X12134000Y-7874000D02*
X12234000Y-7874000D01*
X12192000Y-6554000D02*
X12192000Y-6654000D01*
X12142000Y-6604000D02*
X12242000Y-6604000D01*
X12192000Y-7019000D02*
X12192000Y-7119000D01*
X12142000Y-7069000D02*
X12242000Y-7069000D01*
X12192000Y-12904000D02*
X12192000Y-13004000D01*
X12142000Y-12954000D02*
X12242000Y-12954000D01*
X12192000Y-13369000D02*
X12192000Y-13469000D01*
X12142000Y-13419000D02*
X12242000Y-13419000D01*
X12338000Y-12142000D02*
X12338000Y-12242000D01*
X12288000Y-12192000D02*
X12388000Y-12192000D01*
X12338000Y-12396000D02*
X12338000Y-12496000D01*
X12288000Y-12446000D02*
X12388000Y-12446000D01*
X12438000Y-7570000D02*
X12438000Y-7670000D01*
X12388000Y-7620000D02*
X12488000Y-7620000D01*
X12438000Y-7824000D02*
X12438000Y-7924000D01*
X12388000Y-7874000D02*
X12488000Y-7874000D01*
X12446000Y-6554000D02*
X12446000Y-6654000D01*
X12396000Y-6604000D02*
X12496000Y-6604000D01*
X12446000Y-7019000D02*
X12446000Y-7119000D01*
X12396000Y-7069000D02*
X12496000Y-7069000D01*
X12446000Y-12904000D02*
X12446000Y-13004000D01*
X12396000Y-12954000D02*
X12496000Y-12954000D01*
X12446000Y-13369000D02*
X12446000Y-13469000D01*
X12396000Y-13419000D02*
X12496000Y-13419000D01*
X12592000Y-12142000D02*
X12592000Y-12242000D01*
X12542000Y-12192000D02*
X12642000Y-12192000D01*
X12592000Y-12396000D02*
X12592000Y-12496000D01*
X12542000Y-12446000D02*
X12642000Y-12446000D01*
X12692000Y-7570000D02*
X12692000Y-7670000D01*
X12642000Y-7620000D02*
X12742000Y-7620000D01*
X12692000Y-7824000D02*
X12692000Y-7924000D01*
X12642000Y-7874000D02*
X12742000Y-7874000D01*
X12700000Y-6554000D02*
X12700000Y-6654000D01*
X12650000Y-6604000D02*
X12750000Y-6604000D01*
X12700000Y-7019000D02*
X12700000Y-7119000D01*
X12650000Y-7069000D02*
X12750000Y-7069000D01*
X12700000Y-8688600D02*
X12700000Y-8788600D01*
X12650000Y-8738600D02*
X12750000Y-8738600D01*
X12700000Y-8942600D02*
X12700000Y-9042600D01*
X12650000Y-8992600D02*
X12750000Y-8992600D01*
X12700000Y-9196600D02*
X12700000Y-9296600D01*
X12650000Y-9246600D02*
X12750000Y-9246600D01*
X12700000Y-9450600D02*
X12700000Y-9550600D01*
X12650000Y-9500600D02*
X12750000Y-9500600D01*
X12700000Y-10466600D02*
X12700000Y-10566600D01*
X12650000Y-10516600D02*
X12750000Y-10516600D01*
X12700000Y-10720600D02*
X12700000Y-10820600D01*
X12650000Y-10770600D02*
X12750000Y-10770600D01*
X12700000Y-10974600D02*
X12700000Y-11074600D01*
X12650000Y-11024600D02*
X12750000Y-11024600D01*
X12700000Y-11228600D02*
X12700000Y-11328600D01*
X12650000Y-11278600D02*
X12750000Y-11278600D01*
X12700000Y-12904000D02*
X12700000Y-13004000D01*
X12650000Y-12954000D02*
X12750000Y-12954000D01*
X12700000Y-13369000D02*
X12700000Y-13469000D01*
X12650000Y-13419000D02*
X12750000Y-13419000D01*
X12846000Y-12142000D02*
X12846000Y-12242000D01*
X12796000Y-12192000D02*
X12896000Y-12192000D01*
X12846000Y-12396000D02*
X12846000Y-12496000D01*
X12796000Y-12446000D02*
X12896000Y-12446000D01*
X12946000Y-7570000D02*
X12946000Y-7670000D01*
X12896000Y-7620000D02*
X12996000Y-7620000D01*
X12946000Y-7824000D02*
X12946000Y-7924000D01*
X12896000Y-7874000D02*
X12996000Y-7874000D01*
X12954000Y-6554000D02*
X12954000Y-6654000D01*
X12904000Y-6604000D02*
X13004000Y-6604000D01*
X12954000Y-7019000D02*
X12954000Y-7119000D01*
X12904000Y-7069000D02*
X13004000Y-7069000D01*
X13100000Y-12142000D02*
X13100000Y-12242000D01*
X13050000Y-12192000D02*
X13150000Y-12192000D01*
X13100000Y-12396000D02*
X13100000Y-12496000D01*
X13050000Y-12446000D02*
X13150000Y-12446000D01*
X13200000Y-7570000D02*
X13200000Y-7670000D01*
X13150000Y-7620000D02*
X13250000Y-7620000D01*
X13200000Y-7824000D02*
X13200000Y-7924000D01*
X13150000Y-7874000D02*
X13250000Y-7874000D01*
X13208000Y-12904000D02*
X13208000Y-13004000D01*
X13158000Y-12954000D02*
X13258000Y-12954000D01*
X13208000Y-13369000D02*
X13208000Y-13469000D01*
X13158000Y-13419000D02*
X13258000Y-13419000D01*
X13354000Y-12142000D02*
X13354000Y-12242000D01*
X13304000Y-12192000D02*
X13404000Y-12192000D01*
X13354000Y-12396000D02*
X13354000Y-12496000D01*
X13304000Y-12446000D02*
X13404000Y-12446000D01*
X13454000Y-7570000D02*
X13454000Y-7670000D01*
X13404000Y-7620000D02*
X13504000Y-7620000D01*
X13454000Y-7824000D02*
X13454000Y-7924000D01*
X13404000Y-7874000D02*
X13504000Y-7874000D01*
X13462000Y-6554000D02*
X13462000Y-6654000D01*
X13412000Y-6604000D02*
X13512000Y-6604000D01*
X13462000Y-7019000D02*
X13462000Y-7119000D01*
X13412000Y-7069000D02*
X13512000Y-7069000D01*
X13462000Y-12904000D02*
X13462000Y-13004000D01*
X13412000Y-12954000D02*
X13512000Y-12954000D01*
X13462000Y-13369000D02*
X13462000Y-13469000D01*
X13412000Y-13419000D02*
X13512000Y-13419000D01*
X13608000Y-12142000D02*
X13608000Y-12242000D01*
X13558000Y-12192000D02*
X13658000Y-12192000D01*
X13608000Y-12396000D02*
X13608000Y-12496000D01*
X13558000Y-12446000D02*
X13658000Y-12446000D01*
X13708000Y-7570000D02*
X13708000Y-7670000D01*
X13658000Y-7620000D02*
X13758000Y-7620000D01*
X13708000Y-7824000D02*
X13708000Y-7924000D01*
X13658000Y-7874000D02*
X13758000Y-7874000D01*
X13716000Y-6554000D02*
X13716000Y-6654000D01*
X13666000Y-6604000D02*
X13766000Y-6604000D01*
X13716000Y-7019000D02*
X13716000Y-7119000D01*
X13666000Y-7069000D02*
X13766000Y-7069000D01*
X13716000Y-12904000D02*
X13716000Y-13004000D01*
X13666000Y-12954000D02*
X13766000Y-12954000D01*
X13716000Y-13369000D02*
X13716000Y-13469000D01*
X13666000Y-13419000D02*
X13766000Y-13419000D01*
X13862000Y-12142000D02*
X13862000Y-12242000D01*
X13812000Y-12192000D02*
X13912000Y-12192000D01*
X13862000Y-12396000D02*
X13862000Y-12496000D01*
X13812000Y-12446000D02*
X13912000Y-12446000D01*
X13970000Y-6554000D02*
X13970000Y-6654000D01*
X13920000Y-6604000D02*
X14020000Y-6604000D01*
X13970000Y-7019000D02*
X13970000Y-7119000D01*
X13920000Y-7069000D02*
X14020000Y-7069000D01*
X14116000Y-12142000D02*
X14116000Y-12242000D01*
X14066000Y-12192000D02*
X14166000Y-12192000D01*
X14116000Y-12396000D02*
X14116000Y-12496000D01*
X14066000Y-12446000D02*
X14166000Y-12446000D01*
X14224000Y-6554000D02*
X14224000Y-6654000D01*
X14174000Y-6604000D02*
X14274000Y-6604000D01*
X14224000Y-7019000D02*
X14224000Y-7119000D01*
X14174000Y-7069000D02*
X14274000Y-7069000D01*
X14370000Y-12142000D02*
X14370000Y-12242000D01*
X14320000Y-12192000D02*
X14420000Y-12192000D01*
X14370000Y-12396000D02*
X14370000Y-12496000D01*
X14320000Y-12446000D02*
X14420000Y-12446000D01*
X14478000Y-13158000D02*
X14478000Y-13258000D01*
X14428000Y-13208000D02*
X14528000Y-13208000D01*
X14478000Y-13412000D02*
X14478000Y-13512000D01*
X14428000Y-13462000D02*
X14528000Y-13462000D01*
X14624000Y-12142000D02*
X14624000Y-12242000D01*
X14574000Y-12192000D02*
X14674000Y-12192000D01*
X14624000Y-12396000D02*
X14624000Y-12496000D01*
X14574000Y-12446000D02*
X14674000Y-12446000D01*
X14732000Y-13158000D02*
X14732000Y-13258000D01*
X14682000Y-13208000D02*
X14782000Y-13208000D01*
X14732000Y-13412000D02*
X14732000Y-13512000D01*
X14682000Y-13462000D02*
X14782000Y-13462000D01*
X14986000Y-8688600D02*
X14986000Y-8788600D01*
X14936000Y-8738600D02*
X15036000Y-8738600D01*
X14986000Y-8942600D02*
X14986000Y-9042600D01*
X14936000Y-8992600D02*
X15036000Y-8992600D01*
X14986000Y-9196600D02*
X14986000Y-9296600D01*
X14936000Y-9246600D02*
X15036000Y-9246600D01*
X14986000Y-9450600D02*
X14986000Y-9550600D01*
X14936000Y-9500600D02*
X15036000Y-9500600D01*
X14986000Y-9704600D02*
X14986000Y-9804600D01*
X14936000Y-9754600D02*
X15036000Y-9754600D01*
X14986000Y-9958600D02*
X14986000Y-10058600D01*
X14936000Y-10008600D02*
X15036000Y-10008600D01*
X14986000Y-10212600D02*
X14986000Y-10312600D01*
X14936000Y-10262600D02*
X15036000Y-10262600D01*
X14986000Y-10466600D02*
X14986000Y-10566600D01*
X14936000Y-10516600D02*
X15036000Y-10516600D01*
X14986000Y-10720600D02*
X14986000Y-10820600D01*
X14936000Y-10770600D02*
X15036000Y-10770600D01*
X14986000Y-10974600D02*
X14986000Y-11074600D01*
X14936000Y-11024600D02*
X15036000Y-11024600D01*
X14986000Y-11228600D02*
X14986000Y-11328600D01*
X14936000Y-11278600D02*
X15036000Y-11278600D01*
X14986000Y-13158000D02*
X14986000Y-13258000D01*
X14936000Y-13208000D02*
X15036000Y-13208000D01*
X14986000Y-13412000D02*
X14986000Y-13512000D01*
X14936000Y-13462000D02*
X15036000Y-13462000D01*
X15240000Y-13158000D02*
X15240000Y-13258000D01*
X15190000Y-13208000D02*
X15290000Y-13208000D01*
X15240000Y-13412000D02*
X15240000Y-13512000D01*
X15190000Y-13462000D02*
X15290000Y-13462000D01*
X15494000Y-13158000D02*
X15494000Y-13258000D01*
X15444000Y-13208000D02*
X15544000Y-13208000D01*
X15494000Y-13412000D02*
X15494000Y-13512000D01*
X15444000Y-13462000D02*
X15544000Y-13462000D01*
X15748000Y-13158000D02*
X15748000Y-13258000D01*
X15698000Y-13208000D02*
X15798000Y-13208000D01*
X15748000Y-13412000D02*
X15748000Y-13512000D01*
X15698000Y-13462000D02*
X15798000Y-13462000D01*
X16256000Y-6554000D02*
X16256000Y-6654000D01*
X16206000Y-6604000D02*
X16306000Y-6604000D01*
X16256000Y-6808000D02*
X16256000Y-6908000D01*
X16206000Y-6858000D02*
X16306000Y-6858000D01*
X16256000Y-7062000D02*
X16256000Y-7162000D01*
X16206000Y-7112000D02*
X16306000Y-7112000D01*
X16256000Y-7316000D02*
X16256000Y-7416000D01*
X16206000Y-7366000D02*
X16306000Y-7366000D01*
X16256000Y-8688600D02*
X16256000Y-8788600D01*
X16206000Y-8738600D02*
X16306000Y-8738600D01*
X16256000Y-8942600D02*
X16256000Y-9042600D01*
X16206000Y-8992600D02*
X16306000Y-8992600D01*
X16256000Y-9196600D02*
X16256000Y-9296600D01*
X16206000Y-9246600D02*
X16306000Y-9246600D01*
X16256000Y-9450600D02*
X16256000Y-9550600D01*
X16206000Y-9500600D02*
X16306000Y-9500600D01*
X16256000Y-10466600D02*
X16256000Y-10566600D01*
X16206000Y-10516600D02*
X16306000Y-10516600D01*
X16256000Y-10720600D02*
X16256000Y-10820600D01*
X16206000Y-10770600D02*
X16306000Y-10770600D01*
X16256000Y-10974600D02*
X16256000Y-11074600D01*
X16206000Y-11024600D02*
X16306000Y-11024600D01*
X16256000Y-11228600D02*
X16256000Y-11328600D01*
X16206000Y-11278600D02*
X16306000Y-11278600D01*
X16256000Y-12142000D02*
X16256000Y-12242000D01*
X16206000Y-12192000D02*
X16306000Y-12192000D01*
X16256000Y-12396000D02*
X16256000Y-12496000D01*
X16206000Y-12446000D02*
X16306000Y-12446000D01*
X16256000Y-12650000D02*
X16256000Y-12750000D01*
X16206000Y-12700000D02*
X16306000Y-12700000D01*
X16256000Y-12904000D02*
X16256000Y-13004000D01*
X16206000Y-12954000D02*
X16306000Y-12954000D01*
X16256000Y-13158000D02*
X16256000Y-13258000D01*
X16206000Y-13208000D02*
X16306000Y-13208000D01*
X16256000Y-13412000D02*
X16256000Y-13512000D01*
X16206000Y-13462000D02*
X16306000Y-13462000D01*
X16510000Y-6554000D02*
X16510000Y-6654000D01*
X16460000Y-6604000D02*
X16560000Y-6604000D01*
X16510000Y-6808000D02*
X16510000Y-6908000D01*
X16460000Y-6858000D02*
X16560000Y-6858000D01*
X16510000Y-7062000D02*
X16510000Y-7162000D01*
X16460000Y-7112000D02*
X16560000Y-7112000D01*
X16510000Y-7316000D02*
X16510000Y-7416000D01*
X16460000Y-7366000D02*
X16560000Y-7366000D01*
X16510000Y-12142000D02*
X16510000Y-12242000D01*
X16460000Y-12192000D02*
X16560000Y-12192000D01*
X16510000Y-12396000D02*
X16510000Y-12496000D01*
X16460000Y-12446000D02*
X16560000Y-12446000D01*
X16510000Y-12650000D02*
X16510000Y-12750000D01*
X16460000Y-12700000D02*
X16560000Y-12700000D01*
X16510000Y-12904000D02*
X16510000Y-13004000D01*
X16460000Y-12954000D02*
X16560000Y-12954000D01*
X16510000Y-13158000D02*
X16510000Y-13258000D01*
X16460000Y-13208000D02*
X16560000Y-13208000D01*
X16510000Y-13412000D02*
X16510000Y-13512000D01*
X16460000Y-13462000D02*
X16560000Y-13462000D01*
D11*
X7621777Y-14286484D02*
X7621777Y-14086484D01*
X7621777Y-14086484D02*
X7669396Y-14086484D01*
X7669396Y-14086484D02*
X7697967Y-14096008D01*
X7697967Y-14096008D02*
X7717015Y-14115055D01*
X7717015Y-14115055D02*
X7726539Y-14134103D01*
X7726539Y-14134103D02*
X7736062Y-14172198D01*
X7736062Y-14172198D02*
X7736062Y-14200769D01*
X7736062Y-14200769D02*
X7726539Y-14238865D01*
X7726539Y-14238865D02*
X7717015Y-14257912D01*
X7717015Y-14257912D02*
X7697967Y-14276960D01*
X7697967Y-14276960D02*
X7669396Y-14286484D01*
X7669396Y-14286484D02*
X7621777Y-14286484D01*
X7821777Y-14286484D02*
X7821777Y-14153150D01*
X7821777Y-14191246D02*
X7831301Y-14172198D01*
X7831301Y-14172198D02*
X7840824Y-14162674D01*
X7840824Y-14162674D02*
X7859872Y-14153150D01*
X7859872Y-14153150D02*
X7878920Y-14153150D01*
X7945586Y-14286484D02*
X7945586Y-14153150D01*
X7945586Y-14086484D02*
X7936062Y-14096008D01*
X7936062Y-14096008D02*
X7945586Y-14105531D01*
X7945586Y-14105531D02*
X7955110Y-14096008D01*
X7955110Y-14096008D02*
X7945586Y-14086484D01*
X7945586Y-14086484D02*
X7945586Y-14105531D01*
X8069396Y-14286484D02*
X8050348Y-14276960D01*
X8050348Y-14276960D02*
X8040824Y-14257912D01*
X8040824Y-14257912D02*
X8040824Y-14086484D01*
X8174158Y-14286484D02*
X8155110Y-14276960D01*
X8155110Y-14276960D02*
X8145586Y-14257912D01*
X8145586Y-14257912D02*
X8145586Y-14086484D01*
X8402729Y-14286484D02*
X8402729Y-14086484D01*
X8402729Y-14086484D02*
X8469396Y-14229341D01*
X8469396Y-14229341D02*
X8536063Y-14086484D01*
X8536063Y-14086484D02*
X8536063Y-14286484D01*
X8717015Y-14286484D02*
X8717015Y-14181722D01*
X8717015Y-14181722D02*
X8707491Y-14162674D01*
X8707491Y-14162674D02*
X8688444Y-14153150D01*
X8688444Y-14153150D02*
X8650348Y-14153150D01*
X8650348Y-14153150D02*
X8631301Y-14162674D01*
X8717015Y-14276960D02*
X8697967Y-14286484D01*
X8697967Y-14286484D02*
X8650348Y-14286484D01*
X8650348Y-14286484D02*
X8631301Y-14276960D01*
X8631301Y-14276960D02*
X8621777Y-14257912D01*
X8621777Y-14257912D02*
X8621777Y-14238865D01*
X8621777Y-14238865D02*
X8631301Y-14219817D01*
X8631301Y-14219817D02*
X8650348Y-14210293D01*
X8650348Y-14210293D02*
X8697967Y-14210293D01*
X8697967Y-14210293D02*
X8717015Y-14200769D01*
X8812253Y-14153150D02*
X8812253Y-14353150D01*
X8812253Y-14162674D02*
X8831301Y-14153150D01*
X8831301Y-14153150D02*
X8869396Y-14153150D01*
X8869396Y-14153150D02*
X8888444Y-14162674D01*
X8888444Y-14162674D02*
X8897967Y-14172198D01*
X8897967Y-14172198D02*
X8907491Y-14191246D01*
X8907491Y-14191246D02*
X8907491Y-14248388D01*
X8907491Y-14248388D02*
X8897967Y-14267436D01*
X8897967Y-14267436D02*
X8888444Y-14276960D01*
X8888444Y-14276960D02*
X8869396Y-14286484D01*
X8869396Y-14286484D02*
X8831301Y-14286484D01*
X8831301Y-14286484D02*
X8812253Y-14276960D01*
X8993205Y-14267436D02*
X9002729Y-14276960D01*
X9002729Y-14276960D02*
X8993205Y-14286484D01*
X8993205Y-14286484D02*
X8983682Y-14276960D01*
X8983682Y-14276960D02*
X8993205Y-14267436D01*
X8993205Y-14267436D02*
X8993205Y-14286484D01*
X8993205Y-14162674D02*
X9002729Y-14172198D01*
X9002729Y-14172198D02*
X8993205Y-14181722D01*
X8993205Y-14181722D02*
X8983682Y-14172198D01*
X8983682Y-14172198D02*
X8993205Y-14162674D01*
X8993205Y-14162674D02*
X8993205Y-14181722D01*
D10*
X7321000Y-14595000D02*
X7361000Y-14635000D01*
X7361000Y-14595000D02*
X7321000Y-14635000D01*
D11*
X7659872Y-14506484D02*
X7678920Y-14506484D01*
X7678920Y-14506484D02*
X7697967Y-14516008D01*
X7697967Y-14516008D02*
X7707491Y-14525531D01*
X7707491Y-14525531D02*
X7717015Y-14544579D01*
X7717015Y-14544579D02*
X7726539Y-14582674D01*
X7726539Y-14582674D02*
X7726539Y-14630293D01*
X7726539Y-14630293D02*
X7717015Y-14668388D01*
X7717015Y-14668388D02*
X7707491Y-14687436D01*
X7707491Y-14687436D02*
X7697967Y-14696960D01*
X7697967Y-14696960D02*
X7678920Y-14706484D01*
X7678920Y-14706484D02*
X7659872Y-14706484D01*
X7659872Y-14706484D02*
X7640824Y-14696960D01*
X7640824Y-14696960D02*
X7631301Y-14687436D01*
X7631301Y-14687436D02*
X7621777Y-14668388D01*
X7621777Y-14668388D02*
X7612253Y-14630293D01*
X7612253Y-14630293D02*
X7612253Y-14582674D01*
X7612253Y-14582674D02*
X7621777Y-14544579D01*
X7621777Y-14544579D02*
X7631301Y-14525531D01*
X7631301Y-14525531D02*
X7640824Y-14516008D01*
X7640824Y-14516008D02*
X7659872Y-14506484D01*
X7812253Y-14687436D02*
X7821777Y-14696960D01*
X7821777Y-14696960D02*
X7812253Y-14706484D01*
X7812253Y-14706484D02*
X7802729Y-14696960D01*
X7802729Y-14696960D02*
X7812253Y-14687436D01*
X7812253Y-14687436D02*
X7812253Y-14706484D01*
X7993205Y-14573150D02*
X7993205Y-14706484D01*
X7945586Y-14496960D02*
X7897967Y-14639817D01*
X7897967Y-14639817D02*
X8021777Y-14639817D01*
X8136062Y-14506484D02*
X8155110Y-14506484D01*
X8155110Y-14506484D02*
X8174158Y-14516008D01*
X8174158Y-14516008D02*
X8183682Y-14525531D01*
X8183682Y-14525531D02*
X8193205Y-14544579D01*
X8193205Y-14544579D02*
X8202729Y-14582674D01*
X8202729Y-14582674D02*
X8202729Y-14630293D01*
X8202729Y-14630293D02*
X8193205Y-14668388D01*
X8193205Y-14668388D02*
X8183682Y-14687436D01*
X8183682Y-14687436D02*
X8174158Y-14696960D01*
X8174158Y-14696960D02*
X8155110Y-14706484D01*
X8155110Y-14706484D02*
X8136062Y-14706484D01*
X8136062Y-14706484D02*
X8117015Y-14696960D01*
X8117015Y-14696960D02*
X8107491Y-14687436D01*
X8107491Y-14687436D02*
X8097967Y-14668388D01*
X8097967Y-14668388D02*
X8088443Y-14630293D01*
X8088443Y-14630293D02*
X8088443Y-14582674D01*
X8088443Y-14582674D02*
X8097967Y-14544579D01*
X8097967Y-14544579D02*
X8107491Y-14525531D01*
X8107491Y-14525531D02*
X8117015Y-14516008D01*
X8117015Y-14516008D02*
X8136062Y-14506484D01*
X8326539Y-14506484D02*
X8345586Y-14506484D01*
X8345586Y-14506484D02*
X8364634Y-14516008D01*
X8364634Y-14516008D02*
X8374158Y-14525531D01*
X8374158Y-14525531D02*
X8383682Y-14544579D01*
X8383682Y-14544579D02*
X8393205Y-14582674D01*
X8393205Y-14582674D02*
X8393205Y-14630293D01*
X8393205Y-14630293D02*
X8383682Y-14668388D01*
X8383682Y-14668388D02*
X8374158Y-14687436D01*
X8374158Y-14687436D02*
X8364634Y-14696960D01*
X8364634Y-14696960D02*
X8345586Y-14706484D01*
X8345586Y-14706484D02*
X8326539Y-14706484D01*
X8326539Y-14706484D02*
X8307491Y-14696960D01*
X8307491Y-14696960D02*
X8297967Y-14687436D01*
X8297967Y-14687436D02*
X8288443Y-14668388D01*
X8288443Y-14668388D02*
X8278920Y-14630293D01*
X8278920Y-14630293D02*
X8278920Y-14582674D01*
X8278920Y-14582674D02*
X8288443Y-14544579D01*
X8288443Y-14544579D02*
X8297967Y-14525531D01*
X8297967Y-14525531D02*
X8307491Y-14516008D01*
X8307491Y-14516008D02*
X8326539Y-14506484D01*
X8478920Y-14706484D02*
X8478920Y-14573150D01*
X8478920Y-14592198D02*
X8488444Y-14582674D01*
X8488444Y-14582674D02*
X8507491Y-14573150D01*
X8507491Y-14573150D02*
X8536063Y-14573150D01*
X8536063Y-14573150D02*
X8555110Y-14582674D01*
X8555110Y-14582674D02*
X8564634Y-14601722D01*
X8564634Y-14601722D02*
X8564634Y-14706484D01*
X8564634Y-14601722D02*
X8574158Y-14582674D01*
X8574158Y-14582674D02*
X8593205Y-14573150D01*
X8593205Y-14573150D02*
X8621777Y-14573150D01*
X8621777Y-14573150D02*
X8640825Y-14582674D01*
X8640825Y-14582674D02*
X8650348Y-14601722D01*
X8650348Y-14601722D02*
X8650348Y-14706484D01*
X8745586Y-14706484D02*
X8745586Y-14573150D01*
X8745586Y-14592198D02*
X8755110Y-14582674D01*
X8755110Y-14582674D02*
X8774158Y-14573150D01*
X8774158Y-14573150D02*
X8802729Y-14573150D01*
X8802729Y-14573150D02*
X8821777Y-14582674D01*
X8821777Y-14582674D02*
X8831301Y-14601722D01*
X8831301Y-14601722D02*
X8831301Y-14706484D01*
X8831301Y-14601722D02*
X8840825Y-14582674D01*
X8840825Y-14582674D02*
X8859872Y-14573150D01*
X8859872Y-14573150D02*
X8888444Y-14573150D01*
X8888444Y-14573150D02*
X8907491Y-14582674D01*
X8907491Y-14582674D02*
X8917015Y-14601722D01*
X8917015Y-14601722D02*
X8917015Y-14706484D01*
X9307491Y-14496960D02*
X9136063Y-14754103D01*
X9564634Y-14506484D02*
X9583682Y-14506484D01*
X9583682Y-14506484D02*
X9602729Y-14516008D01*
X9602729Y-14516008D02*
X9612253Y-14525531D01*
X9612253Y-14525531D02*
X9621777Y-14544579D01*
X9621777Y-14544579D02*
X9631301Y-14582674D01*
X9631301Y-14582674D02*
X9631301Y-14630293D01*
X9631301Y-14630293D02*
X9621777Y-14668388D01*
X9621777Y-14668388D02*
X9612253Y-14687436D01*
X9612253Y-14687436D02*
X9602729Y-14696960D01*
X9602729Y-14696960D02*
X9583682Y-14706484D01*
X9583682Y-14706484D02*
X9564634Y-14706484D01*
X9564634Y-14706484D02*
X9545587Y-14696960D01*
X9545587Y-14696960D02*
X9536063Y-14687436D01*
X9536063Y-14687436D02*
X9526539Y-14668388D01*
X9526539Y-14668388D02*
X9517015Y-14630293D01*
X9517015Y-14630293D02*
X9517015Y-14582674D01*
X9517015Y-14582674D02*
X9526539Y-14544579D01*
X9526539Y-14544579D02*
X9536063Y-14525531D01*
X9536063Y-14525531D02*
X9545587Y-14516008D01*
X9545587Y-14516008D02*
X9564634Y-14506484D01*
X9717015Y-14687436D02*
X9726539Y-14696960D01*
X9726539Y-14696960D02*
X9717015Y-14706484D01*
X9717015Y-14706484D02*
X9707491Y-14696960D01*
X9707491Y-14696960D02*
X9717015Y-14687436D01*
X9717015Y-14687436D02*
X9717015Y-14706484D01*
X9850348Y-14506484D02*
X9869396Y-14506484D01*
X9869396Y-14506484D02*
X9888444Y-14516008D01*
X9888444Y-14516008D02*
X9897968Y-14525531D01*
X9897968Y-14525531D02*
X9907491Y-14544579D01*
X9907491Y-14544579D02*
X9917015Y-14582674D01*
X9917015Y-14582674D02*
X9917015Y-14630293D01*
X9917015Y-14630293D02*
X9907491Y-14668388D01*
X9907491Y-14668388D02*
X9897968Y-14687436D01*
X9897968Y-14687436D02*
X9888444Y-14696960D01*
X9888444Y-14696960D02*
X9869396Y-14706484D01*
X9869396Y-14706484D02*
X9850348Y-14706484D01*
X9850348Y-14706484D02*
X9831301Y-14696960D01*
X9831301Y-14696960D02*
X9821777Y-14687436D01*
X9821777Y-14687436D02*
X9812253Y-14668388D01*
X9812253Y-14668388D02*
X9802729Y-14630293D01*
X9802729Y-14630293D02*
X9802729Y-14582674D01*
X9802729Y-14582674D02*
X9812253Y-14544579D01*
X9812253Y-14544579D02*
X9821777Y-14525531D01*
X9821777Y-14525531D02*
X9831301Y-14516008D01*
X9831301Y-14516008D02*
X9850348Y-14506484D01*
X10107491Y-14706484D02*
X9993206Y-14706484D01*
X10050348Y-14706484D02*
X10050348Y-14506484D01*
X10050348Y-14506484D02*
X10031301Y-14535055D01*
X10031301Y-14535055D02*
X10012253Y-14554103D01*
X10012253Y-14554103D02*
X9993206Y-14563627D01*
X10288444Y-14506484D02*
X10193206Y-14506484D01*
X10193206Y-14506484D02*
X10183682Y-14601722D01*
X10183682Y-14601722D02*
X10193206Y-14592198D01*
X10193206Y-14592198D02*
X10212253Y-14582674D01*
X10212253Y-14582674D02*
X10259872Y-14582674D01*
X10259872Y-14582674D02*
X10278920Y-14592198D01*
X10278920Y-14592198D02*
X10288444Y-14601722D01*
X10288444Y-14601722D02*
X10297968Y-14620769D01*
X10297968Y-14620769D02*
X10297968Y-14668388D01*
X10297968Y-14668388D02*
X10288444Y-14687436D01*
X10288444Y-14687436D02*
X10278920Y-14696960D01*
X10278920Y-14696960D02*
X10259872Y-14706484D01*
X10259872Y-14706484D02*
X10212253Y-14706484D01*
X10212253Y-14706484D02*
X10193206Y-14696960D01*
X10193206Y-14696960D02*
X10183682Y-14687436D01*
X10364634Y-14506484D02*
X10497968Y-14506484D01*
X10497968Y-14506484D02*
X10412253Y-14706484D01*
X10564634Y-14506484D02*
X10564634Y-14544579D01*
X10640825Y-14506484D02*
X10640825Y-14544579D01*
X10936063Y-14782674D02*
X10926539Y-14773150D01*
X10926539Y-14773150D02*
X10907491Y-14744579D01*
X10907491Y-14744579D02*
X10897968Y-14725531D01*
X10897968Y-14725531D02*
X10888444Y-14696960D01*
X10888444Y-14696960D02*
X10878920Y-14649341D01*
X10878920Y-14649341D02*
X10878920Y-14611246D01*
X10878920Y-14611246D02*
X10888444Y-14563627D01*
X10888444Y-14563627D02*
X10897968Y-14535055D01*
X10897968Y-14535055D02*
X10907491Y-14516008D01*
X10907491Y-14516008D02*
X10926539Y-14487436D01*
X10926539Y-14487436D02*
X10936063Y-14477912D01*
X11117015Y-14706484D02*
X11002730Y-14706484D01*
X11059872Y-14706484D02*
X11059872Y-14506484D01*
X11059872Y-14506484D02*
X11040825Y-14535055D01*
X11040825Y-14535055D02*
X11021777Y-14554103D01*
X11021777Y-14554103D02*
X11002730Y-14563627D01*
X11355110Y-14706484D02*
X11355110Y-14506484D01*
X11440825Y-14706484D02*
X11440825Y-14601722D01*
X11440825Y-14601722D02*
X11431301Y-14582674D01*
X11431301Y-14582674D02*
X11412253Y-14573150D01*
X11412253Y-14573150D02*
X11383682Y-14573150D01*
X11383682Y-14573150D02*
X11364634Y-14582674D01*
X11364634Y-14582674D02*
X11355110Y-14592198D01*
X11564634Y-14706484D02*
X11545587Y-14696960D01*
X11545587Y-14696960D02*
X11536063Y-14687436D01*
X11536063Y-14687436D02*
X11526539Y-14668388D01*
X11526539Y-14668388D02*
X11526539Y-14611246D01*
X11526539Y-14611246D02*
X11536063Y-14592198D01*
X11536063Y-14592198D02*
X11545587Y-14582674D01*
X11545587Y-14582674D02*
X11564634Y-14573150D01*
X11564634Y-14573150D02*
X11593206Y-14573150D01*
X11593206Y-14573150D02*
X11612253Y-14582674D01*
X11612253Y-14582674D02*
X11621777Y-14592198D01*
X11621777Y-14592198D02*
X11631301Y-14611246D01*
X11631301Y-14611246D02*
X11631301Y-14668388D01*
X11631301Y-14668388D02*
X11621777Y-14687436D01*
X11621777Y-14687436D02*
X11612253Y-14696960D01*
X11612253Y-14696960D02*
X11593206Y-14706484D01*
X11593206Y-14706484D02*
X11564634Y-14706484D01*
X11745587Y-14706484D02*
X11726539Y-14696960D01*
X11726539Y-14696960D02*
X11717015Y-14677912D01*
X11717015Y-14677912D02*
X11717015Y-14506484D01*
X11897968Y-14696960D02*
X11878920Y-14706484D01*
X11878920Y-14706484D02*
X11840825Y-14706484D01*
X11840825Y-14706484D02*
X11821777Y-14696960D01*
X11821777Y-14696960D02*
X11812253Y-14677912D01*
X11812253Y-14677912D02*
X11812253Y-14601722D01*
X11812253Y-14601722D02*
X11821777Y-14582674D01*
X11821777Y-14582674D02*
X11840825Y-14573150D01*
X11840825Y-14573150D02*
X11878920Y-14573150D01*
X11878920Y-14573150D02*
X11897968Y-14582674D01*
X11897968Y-14582674D02*
X11907491Y-14601722D01*
X11907491Y-14601722D02*
X11907491Y-14620769D01*
X11907491Y-14620769D02*
X11812253Y-14639817D01*
X11974158Y-14782674D02*
X11983682Y-14773150D01*
X11983682Y-14773150D02*
X12002730Y-14744579D01*
X12002730Y-14744579D02*
X12012253Y-14725531D01*
X12012253Y-14725531D02*
X12021777Y-14696960D01*
X12021777Y-14696960D02*
X12031301Y-14649341D01*
X12031301Y-14649341D02*
X12031301Y-14611246D01*
X12031301Y-14611246D02*
X12021777Y-14563627D01*
X12021777Y-14563627D02*
X12012253Y-14535055D01*
X12012253Y-14535055D02*
X12002730Y-14516008D01*
X12002730Y-14516008D02*
X11983682Y-14487436D01*
X11983682Y-14487436D02*
X11974158Y-14477912D01*
D10*
X7361000Y-14879000D02*
G75*
G02*
X7281000Y-14879000I-40000J0D01*
G01*
X7281000Y-14879000D02*
G75*
G02*
X7361000Y-14879000I40000J0D01*
G01*
D11*
X7659872Y-14770484D02*
X7678920Y-14770484D01*
X7678920Y-14770484D02*
X7697967Y-14780008D01*
X7697967Y-14780008D02*
X7707491Y-14789531D01*
X7707491Y-14789531D02*
X7717015Y-14808579D01*
X7717015Y-14808579D02*
X7726539Y-14846674D01*
X7726539Y-14846674D02*
X7726539Y-14894293D01*
X7726539Y-14894293D02*
X7717015Y-14932388D01*
X7717015Y-14932388D02*
X7707491Y-14951436D01*
X7707491Y-14951436D02*
X7697967Y-14960960D01*
X7697967Y-14960960D02*
X7678920Y-14970484D01*
X7678920Y-14970484D02*
X7659872Y-14970484D01*
X7659872Y-14970484D02*
X7640824Y-14960960D01*
X7640824Y-14960960D02*
X7631301Y-14951436D01*
X7631301Y-14951436D02*
X7621777Y-14932388D01*
X7621777Y-14932388D02*
X7612253Y-14894293D01*
X7612253Y-14894293D02*
X7612253Y-14846674D01*
X7612253Y-14846674D02*
X7621777Y-14808579D01*
X7621777Y-14808579D02*
X7631301Y-14789531D01*
X7631301Y-14789531D02*
X7640824Y-14780008D01*
X7640824Y-14780008D02*
X7659872Y-14770484D01*
X7812253Y-14951436D02*
X7821777Y-14960960D01*
X7821777Y-14960960D02*
X7812253Y-14970484D01*
X7812253Y-14970484D02*
X7802729Y-14960960D01*
X7802729Y-14960960D02*
X7812253Y-14951436D01*
X7812253Y-14951436D02*
X7812253Y-14970484D01*
X7936062Y-14856198D02*
X7917015Y-14846674D01*
X7917015Y-14846674D02*
X7907491Y-14837150D01*
X7907491Y-14837150D02*
X7897967Y-14818103D01*
X7897967Y-14818103D02*
X7897967Y-14808579D01*
X7897967Y-14808579D02*
X7907491Y-14789531D01*
X7907491Y-14789531D02*
X7917015Y-14780008D01*
X7917015Y-14780008D02*
X7936062Y-14770484D01*
X7936062Y-14770484D02*
X7974158Y-14770484D01*
X7974158Y-14770484D02*
X7993205Y-14780008D01*
X7993205Y-14780008D02*
X8002729Y-14789531D01*
X8002729Y-14789531D02*
X8012253Y-14808579D01*
X8012253Y-14808579D02*
X8012253Y-14818103D01*
X8012253Y-14818103D02*
X8002729Y-14837150D01*
X8002729Y-14837150D02*
X7993205Y-14846674D01*
X7993205Y-14846674D02*
X7974158Y-14856198D01*
X7974158Y-14856198D02*
X7936062Y-14856198D01*
X7936062Y-14856198D02*
X7917015Y-14865722D01*
X7917015Y-14865722D02*
X7907491Y-14875246D01*
X7907491Y-14875246D02*
X7897967Y-14894293D01*
X7897967Y-14894293D02*
X7897967Y-14932388D01*
X7897967Y-14932388D02*
X7907491Y-14951436D01*
X7907491Y-14951436D02*
X7917015Y-14960960D01*
X7917015Y-14960960D02*
X7936062Y-14970484D01*
X7936062Y-14970484D02*
X7974158Y-14970484D01*
X7974158Y-14970484D02*
X7993205Y-14960960D01*
X7993205Y-14960960D02*
X8002729Y-14951436D01*
X8002729Y-14951436D02*
X8012253Y-14932388D01*
X8012253Y-14932388D02*
X8012253Y-14894293D01*
X8012253Y-14894293D02*
X8002729Y-14875246D01*
X8002729Y-14875246D02*
X7993205Y-14865722D01*
X7993205Y-14865722D02*
X7974158Y-14856198D01*
X8136062Y-14770484D02*
X8155110Y-14770484D01*
X8155110Y-14770484D02*
X8174158Y-14780008D01*
X8174158Y-14780008D02*
X8183682Y-14789531D01*
X8183682Y-14789531D02*
X8193205Y-14808579D01*
X8193205Y-14808579D02*
X8202729Y-14846674D01*
X8202729Y-14846674D02*
X8202729Y-14894293D01*
X8202729Y-14894293D02*
X8193205Y-14932388D01*
X8193205Y-14932388D02*
X8183682Y-14951436D01*
X8183682Y-14951436D02*
X8174158Y-14960960D01*
X8174158Y-14960960D02*
X8155110Y-14970484D01*
X8155110Y-14970484D02*
X8136062Y-14970484D01*
X8136062Y-14970484D02*
X8117015Y-14960960D01*
X8117015Y-14960960D02*
X8107491Y-14951436D01*
X8107491Y-14951436D02*
X8097967Y-14932388D01*
X8097967Y-14932388D02*
X8088443Y-14894293D01*
X8088443Y-14894293D02*
X8088443Y-14846674D01*
X8088443Y-14846674D02*
X8097967Y-14808579D01*
X8097967Y-14808579D02*
X8107491Y-14789531D01*
X8107491Y-14789531D02*
X8117015Y-14780008D01*
X8117015Y-14780008D02*
X8136062Y-14770484D01*
X8326539Y-14770484D02*
X8345586Y-14770484D01*
X8345586Y-14770484D02*
X8364634Y-14780008D01*
X8364634Y-14780008D02*
X8374158Y-14789531D01*
X8374158Y-14789531D02*
X8383682Y-14808579D01*
X8383682Y-14808579D02*
X8393205Y-14846674D01*
X8393205Y-14846674D02*
X8393205Y-14894293D01*
X8393205Y-14894293D02*
X8383682Y-14932388D01*
X8383682Y-14932388D02*
X8374158Y-14951436D01*
X8374158Y-14951436D02*
X8364634Y-14960960D01*
X8364634Y-14960960D02*
X8345586Y-14970484D01*
X8345586Y-14970484D02*
X8326539Y-14970484D01*
X8326539Y-14970484D02*
X8307491Y-14960960D01*
X8307491Y-14960960D02*
X8297967Y-14951436D01*
X8297967Y-14951436D02*
X8288443Y-14932388D01*
X8288443Y-14932388D02*
X8278920Y-14894293D01*
X8278920Y-14894293D02*
X8278920Y-14846674D01*
X8278920Y-14846674D02*
X8288443Y-14808579D01*
X8288443Y-14808579D02*
X8297967Y-14789531D01*
X8297967Y-14789531D02*
X8307491Y-14780008D01*
X8307491Y-14780008D02*
X8326539Y-14770484D01*
X8478920Y-14970484D02*
X8478920Y-14837150D01*
X8478920Y-14856198D02*
X8488444Y-14846674D01*
X8488444Y-14846674D02*
X8507491Y-14837150D01*
X8507491Y-14837150D02*
X8536063Y-14837150D01*
X8536063Y-14837150D02*
X8555110Y-14846674D01*
X8555110Y-14846674D02*
X8564634Y-14865722D01*
X8564634Y-14865722D02*
X8564634Y-14970484D01*
X8564634Y-14865722D02*
X8574158Y-14846674D01*
X8574158Y-14846674D02*
X8593205Y-14837150D01*
X8593205Y-14837150D02*
X8621777Y-14837150D01*
X8621777Y-14837150D02*
X8640825Y-14846674D01*
X8640825Y-14846674D02*
X8650348Y-14865722D01*
X8650348Y-14865722D02*
X8650348Y-14970484D01*
X8745586Y-14970484D02*
X8745586Y-14837150D01*
X8745586Y-14856198D02*
X8755110Y-14846674D01*
X8755110Y-14846674D02*
X8774158Y-14837150D01*
X8774158Y-14837150D02*
X8802729Y-14837150D01*
X8802729Y-14837150D02*
X8821777Y-14846674D01*
X8821777Y-14846674D02*
X8831301Y-14865722D01*
X8831301Y-14865722D02*
X8831301Y-14970484D01*
X8831301Y-14865722D02*
X8840825Y-14846674D01*
X8840825Y-14846674D02*
X8859872Y-14837150D01*
X8859872Y-14837150D02*
X8888444Y-14837150D01*
X8888444Y-14837150D02*
X8907491Y-14846674D01*
X8907491Y-14846674D02*
X8917015Y-14865722D01*
X8917015Y-14865722D02*
X8917015Y-14970484D01*
X9307491Y-14760960D02*
X9136063Y-15018103D01*
X9564634Y-14770484D02*
X9583682Y-14770484D01*
X9583682Y-14770484D02*
X9602729Y-14780008D01*
X9602729Y-14780008D02*
X9612253Y-14789531D01*
X9612253Y-14789531D02*
X9621777Y-14808579D01*
X9621777Y-14808579D02*
X9631301Y-14846674D01*
X9631301Y-14846674D02*
X9631301Y-14894293D01*
X9631301Y-14894293D02*
X9621777Y-14932388D01*
X9621777Y-14932388D02*
X9612253Y-14951436D01*
X9612253Y-14951436D02*
X9602729Y-14960960D01*
X9602729Y-14960960D02*
X9583682Y-14970484D01*
X9583682Y-14970484D02*
X9564634Y-14970484D01*
X9564634Y-14970484D02*
X9545587Y-14960960D01*
X9545587Y-14960960D02*
X9536063Y-14951436D01*
X9536063Y-14951436D02*
X9526539Y-14932388D01*
X9526539Y-14932388D02*
X9517015Y-14894293D01*
X9517015Y-14894293D02*
X9517015Y-14846674D01*
X9517015Y-14846674D02*
X9526539Y-14808579D01*
X9526539Y-14808579D02*
X9536063Y-14789531D01*
X9536063Y-14789531D02*
X9545587Y-14780008D01*
X9545587Y-14780008D02*
X9564634Y-14770484D01*
X9717015Y-14951436D02*
X9726539Y-14960960D01*
X9726539Y-14960960D02*
X9717015Y-14970484D01*
X9717015Y-14970484D02*
X9707491Y-14960960D01*
X9707491Y-14960960D02*
X9717015Y-14951436D01*
X9717015Y-14951436D02*
X9717015Y-14970484D01*
X9850348Y-14770484D02*
X9869396Y-14770484D01*
X9869396Y-14770484D02*
X9888444Y-14780008D01*
X9888444Y-14780008D02*
X9897968Y-14789531D01*
X9897968Y-14789531D02*
X9907491Y-14808579D01*
X9907491Y-14808579D02*
X9917015Y-14846674D01*
X9917015Y-14846674D02*
X9917015Y-14894293D01*
X9917015Y-14894293D02*
X9907491Y-14932388D01*
X9907491Y-14932388D02*
X9897968Y-14951436D01*
X9897968Y-14951436D02*
X9888444Y-14960960D01*
X9888444Y-14960960D02*
X9869396Y-14970484D01*
X9869396Y-14970484D02*
X9850348Y-14970484D01*
X9850348Y-14970484D02*
X9831301Y-14960960D01*
X9831301Y-14960960D02*
X9821777Y-14951436D01*
X9821777Y-14951436D02*
X9812253Y-14932388D01*
X9812253Y-14932388D02*
X9802729Y-14894293D01*
X9802729Y-14894293D02*
X9802729Y-14846674D01*
X9802729Y-14846674D02*
X9812253Y-14808579D01*
X9812253Y-14808579D02*
X9821777Y-14789531D01*
X9821777Y-14789531D02*
X9831301Y-14780008D01*
X9831301Y-14780008D02*
X9850348Y-14770484D01*
X9983682Y-14770484D02*
X10107491Y-14770484D01*
X10107491Y-14770484D02*
X10040825Y-14846674D01*
X10040825Y-14846674D02*
X10069396Y-14846674D01*
X10069396Y-14846674D02*
X10088444Y-14856198D01*
X10088444Y-14856198D02*
X10097968Y-14865722D01*
X10097968Y-14865722D02*
X10107491Y-14884769D01*
X10107491Y-14884769D02*
X10107491Y-14932388D01*
X10107491Y-14932388D02*
X10097968Y-14951436D01*
X10097968Y-14951436D02*
X10088444Y-14960960D01*
X10088444Y-14960960D02*
X10069396Y-14970484D01*
X10069396Y-14970484D02*
X10012253Y-14970484D01*
X10012253Y-14970484D02*
X9993206Y-14960960D01*
X9993206Y-14960960D02*
X9983682Y-14951436D01*
X10297968Y-14970484D02*
X10183682Y-14970484D01*
X10240825Y-14970484D02*
X10240825Y-14770484D01*
X10240825Y-14770484D02*
X10221777Y-14799055D01*
X10221777Y-14799055D02*
X10202729Y-14818103D01*
X10202729Y-14818103D02*
X10183682Y-14827627D01*
X10478920Y-14770484D02*
X10383682Y-14770484D01*
X10383682Y-14770484D02*
X10374158Y-14865722D01*
X10374158Y-14865722D02*
X10383682Y-14856198D01*
X10383682Y-14856198D02*
X10402729Y-14846674D01*
X10402729Y-14846674D02*
X10450349Y-14846674D01*
X10450349Y-14846674D02*
X10469396Y-14856198D01*
X10469396Y-14856198D02*
X10478920Y-14865722D01*
X10478920Y-14865722D02*
X10488444Y-14884769D01*
X10488444Y-14884769D02*
X10488444Y-14932388D01*
X10488444Y-14932388D02*
X10478920Y-14951436D01*
X10478920Y-14951436D02*
X10469396Y-14960960D01*
X10469396Y-14960960D02*
X10450349Y-14970484D01*
X10450349Y-14970484D02*
X10402729Y-14970484D01*
X10402729Y-14970484D02*
X10383682Y-14960960D01*
X10383682Y-14960960D02*
X10374158Y-14951436D01*
X10564634Y-14770484D02*
X10564634Y-14808579D01*
X10640825Y-14770484D02*
X10640825Y-14808579D01*
X10936063Y-15046674D02*
X10926539Y-15037150D01*
X10926539Y-15037150D02*
X10907491Y-15008579D01*
X10907491Y-15008579D02*
X10897968Y-14989531D01*
X10897968Y-14989531D02*
X10888444Y-14960960D01*
X10888444Y-14960960D02*
X10878920Y-14913341D01*
X10878920Y-14913341D02*
X10878920Y-14875246D01*
X10878920Y-14875246D02*
X10888444Y-14827627D01*
X10888444Y-14827627D02*
X10897968Y-14799055D01*
X10897968Y-14799055D02*
X10907491Y-14780008D01*
X10907491Y-14780008D02*
X10926539Y-14751436D01*
X10926539Y-14751436D02*
X10936063Y-14741912D01*
X10993206Y-14770484D02*
X11117015Y-14770484D01*
X11117015Y-14770484D02*
X11050349Y-14846674D01*
X11050349Y-14846674D02*
X11078920Y-14846674D01*
X11078920Y-14846674D02*
X11097968Y-14856198D01*
X11097968Y-14856198D02*
X11107491Y-14865722D01*
X11107491Y-14865722D02*
X11117015Y-14884769D01*
X11117015Y-14884769D02*
X11117015Y-14932388D01*
X11117015Y-14932388D02*
X11107491Y-14951436D01*
X11107491Y-14951436D02*
X11097968Y-14960960D01*
X11097968Y-14960960D02*
X11078920Y-14970484D01*
X11078920Y-14970484D02*
X11021777Y-14970484D01*
X11021777Y-14970484D02*
X11002730Y-14960960D01*
X11002730Y-14960960D02*
X10993206Y-14951436D01*
X11193206Y-14789531D02*
X11202729Y-14780008D01*
X11202729Y-14780008D02*
X11221777Y-14770484D01*
X11221777Y-14770484D02*
X11269396Y-14770484D01*
X11269396Y-14770484D02*
X11288444Y-14780008D01*
X11288444Y-14780008D02*
X11297968Y-14789531D01*
X11297968Y-14789531D02*
X11307491Y-14808579D01*
X11307491Y-14808579D02*
X11307491Y-14827627D01*
X11307491Y-14827627D02*
X11297968Y-14856198D01*
X11297968Y-14856198D02*
X11183682Y-14970484D01*
X11183682Y-14970484D02*
X11307491Y-14970484D01*
X11545587Y-14970484D02*
X11545587Y-14770484D01*
X11631301Y-14970484D02*
X11631301Y-14865722D01*
X11631301Y-14865722D02*
X11621777Y-14846674D01*
X11621777Y-14846674D02*
X11602730Y-14837150D01*
X11602730Y-14837150D02*
X11574158Y-14837150D01*
X11574158Y-14837150D02*
X11555110Y-14846674D01*
X11555110Y-14846674D02*
X11545587Y-14856198D01*
X11755110Y-14970484D02*
X11736063Y-14960960D01*
X11736063Y-14960960D02*
X11726539Y-14951436D01*
X11726539Y-14951436D02*
X11717015Y-14932388D01*
X11717015Y-14932388D02*
X11717015Y-14875246D01*
X11717015Y-14875246D02*
X11726539Y-14856198D01*
X11726539Y-14856198D02*
X11736063Y-14846674D01*
X11736063Y-14846674D02*
X11755110Y-14837150D01*
X11755110Y-14837150D02*
X11783682Y-14837150D01*
X11783682Y-14837150D02*
X11802730Y-14846674D01*
X11802730Y-14846674D02*
X11812253Y-14856198D01*
X11812253Y-14856198D02*
X11821777Y-14875246D01*
X11821777Y-14875246D02*
X11821777Y-14932388D01*
X11821777Y-14932388D02*
X11812253Y-14951436D01*
X11812253Y-14951436D02*
X11802730Y-14960960D01*
X11802730Y-14960960D02*
X11783682Y-14970484D01*
X11783682Y-14970484D02*
X11755110Y-14970484D01*
X11936063Y-14970484D02*
X11917015Y-14960960D01*
X11917015Y-14960960D02*
X11907491Y-14941912D01*
X11907491Y-14941912D02*
X11907491Y-14770484D01*
X12088444Y-14960960D02*
X12069396Y-14970484D01*
X12069396Y-14970484D02*
X12031301Y-14970484D01*
X12031301Y-14970484D02*
X12012253Y-14960960D01*
X12012253Y-14960960D02*
X12002730Y-14941912D01*
X12002730Y-14941912D02*
X12002730Y-14865722D01*
X12002730Y-14865722D02*
X12012253Y-14846674D01*
X12012253Y-14846674D02*
X12031301Y-14837150D01*
X12031301Y-14837150D02*
X12069396Y-14837150D01*
X12069396Y-14837150D02*
X12088444Y-14846674D01*
X12088444Y-14846674D02*
X12097968Y-14865722D01*
X12097968Y-14865722D02*
X12097968Y-14884769D01*
X12097968Y-14884769D02*
X12002730Y-14903817D01*
X12174158Y-14960960D02*
X12193206Y-14970484D01*
X12193206Y-14970484D02*
X12231301Y-14970484D01*
X12231301Y-14970484D02*
X12250349Y-14960960D01*
X12250349Y-14960960D02*
X12259872Y-14941912D01*
X12259872Y-14941912D02*
X12259872Y-14932388D01*
X12259872Y-14932388D02*
X12250349Y-14913341D01*
X12250349Y-14913341D02*
X12231301Y-14903817D01*
X12231301Y-14903817D02*
X12202730Y-14903817D01*
X12202730Y-14903817D02*
X12183682Y-14894293D01*
X12183682Y-14894293D02*
X12174158Y-14875246D01*
X12174158Y-14875246D02*
X12174158Y-14865722D01*
X12174158Y-14865722D02*
X12183682Y-14846674D01*
X12183682Y-14846674D02*
X12202730Y-14837150D01*
X12202730Y-14837150D02*
X12231301Y-14837150D01*
X12231301Y-14837150D02*
X12250349Y-14846674D01*
X12326539Y-15046674D02*
X12336063Y-15037150D01*
X12336063Y-15037150D02*
X12355111Y-15008579D01*
X12355111Y-15008579D02*
X12364634Y-14989531D01*
X12364634Y-14989531D02*
X12374158Y-14960960D01*
X12374158Y-14960960D02*
X12383682Y-14913341D01*
X12383682Y-14913341D02*
X12383682Y-14875246D01*
X12383682Y-14875246D02*
X12374158Y-14827627D01*
X12374158Y-14827627D02*
X12364634Y-14799055D01*
X12364634Y-14799055D02*
X12355111Y-14780008D01*
X12355111Y-14780008D02*
X12336063Y-14751436D01*
X12336063Y-14751436D02*
X12326539Y-14741912D01*
D10*
X7311000Y-15093000D02*
X7311000Y-15193000D01*
X7261000Y-15143000D02*
X7361000Y-15143000D01*
D11*
X7726539Y-15234484D02*
X7612253Y-15234484D01*
X7669396Y-15234484D02*
X7669396Y-15034484D01*
X7669396Y-15034484D02*
X7650348Y-15063055D01*
X7650348Y-15063055D02*
X7631301Y-15082103D01*
X7631301Y-15082103D02*
X7612253Y-15091627D01*
X7812253Y-15215436D02*
X7821777Y-15224960D01*
X7821777Y-15224960D02*
X7812253Y-15234484D01*
X7812253Y-15234484D02*
X7802729Y-15224960D01*
X7802729Y-15224960D02*
X7812253Y-15215436D01*
X7812253Y-15215436D02*
X7812253Y-15234484D01*
X7945586Y-15034484D02*
X7964634Y-15034484D01*
X7964634Y-15034484D02*
X7983682Y-15044008D01*
X7983682Y-15044008D02*
X7993205Y-15053531D01*
X7993205Y-15053531D02*
X8002729Y-15072579D01*
X8002729Y-15072579D02*
X8012253Y-15110674D01*
X8012253Y-15110674D02*
X8012253Y-15158293D01*
X8012253Y-15158293D02*
X8002729Y-15196388D01*
X8002729Y-15196388D02*
X7993205Y-15215436D01*
X7993205Y-15215436D02*
X7983682Y-15224960D01*
X7983682Y-15224960D02*
X7964634Y-15234484D01*
X7964634Y-15234484D02*
X7945586Y-15234484D01*
X7945586Y-15234484D02*
X7926539Y-15224960D01*
X7926539Y-15224960D02*
X7917015Y-15215436D01*
X7917015Y-15215436D02*
X7907491Y-15196388D01*
X7907491Y-15196388D02*
X7897967Y-15158293D01*
X7897967Y-15158293D02*
X7897967Y-15110674D01*
X7897967Y-15110674D02*
X7907491Y-15072579D01*
X7907491Y-15072579D02*
X7917015Y-15053531D01*
X7917015Y-15053531D02*
X7926539Y-15044008D01*
X7926539Y-15044008D02*
X7945586Y-15034484D01*
X8136062Y-15034484D02*
X8155110Y-15034484D01*
X8155110Y-15034484D02*
X8174158Y-15044008D01*
X8174158Y-15044008D02*
X8183682Y-15053531D01*
X8183682Y-15053531D02*
X8193205Y-15072579D01*
X8193205Y-15072579D02*
X8202729Y-15110674D01*
X8202729Y-15110674D02*
X8202729Y-15158293D01*
X8202729Y-15158293D02*
X8193205Y-15196388D01*
X8193205Y-15196388D02*
X8183682Y-15215436D01*
X8183682Y-15215436D02*
X8174158Y-15224960D01*
X8174158Y-15224960D02*
X8155110Y-15234484D01*
X8155110Y-15234484D02*
X8136062Y-15234484D01*
X8136062Y-15234484D02*
X8117015Y-15224960D01*
X8117015Y-15224960D02*
X8107491Y-15215436D01*
X8107491Y-15215436D02*
X8097967Y-15196388D01*
X8097967Y-15196388D02*
X8088443Y-15158293D01*
X8088443Y-15158293D02*
X8088443Y-15110674D01*
X8088443Y-15110674D02*
X8097967Y-15072579D01*
X8097967Y-15072579D02*
X8107491Y-15053531D01*
X8107491Y-15053531D02*
X8117015Y-15044008D01*
X8117015Y-15044008D02*
X8136062Y-15034484D01*
X8326539Y-15034484D02*
X8345586Y-15034484D01*
X8345586Y-15034484D02*
X8364634Y-15044008D01*
X8364634Y-15044008D02*
X8374158Y-15053531D01*
X8374158Y-15053531D02*
X8383682Y-15072579D01*
X8383682Y-15072579D02*
X8393205Y-15110674D01*
X8393205Y-15110674D02*
X8393205Y-15158293D01*
X8393205Y-15158293D02*
X8383682Y-15196388D01*
X8383682Y-15196388D02*
X8374158Y-15215436D01*
X8374158Y-15215436D02*
X8364634Y-15224960D01*
X8364634Y-15224960D02*
X8345586Y-15234484D01*
X8345586Y-15234484D02*
X8326539Y-15234484D01*
X8326539Y-15234484D02*
X8307491Y-15224960D01*
X8307491Y-15224960D02*
X8297967Y-15215436D01*
X8297967Y-15215436D02*
X8288443Y-15196388D01*
X8288443Y-15196388D02*
X8278920Y-15158293D01*
X8278920Y-15158293D02*
X8278920Y-15110674D01*
X8278920Y-15110674D02*
X8288443Y-15072579D01*
X8288443Y-15072579D02*
X8297967Y-15053531D01*
X8297967Y-15053531D02*
X8307491Y-15044008D01*
X8307491Y-15044008D02*
X8326539Y-15034484D01*
X8478920Y-15234484D02*
X8478920Y-15101150D01*
X8478920Y-15120198D02*
X8488444Y-15110674D01*
X8488444Y-15110674D02*
X8507491Y-15101150D01*
X8507491Y-15101150D02*
X8536063Y-15101150D01*
X8536063Y-15101150D02*
X8555110Y-15110674D01*
X8555110Y-15110674D02*
X8564634Y-15129722D01*
X8564634Y-15129722D02*
X8564634Y-15234484D01*
X8564634Y-15129722D02*
X8574158Y-15110674D01*
X8574158Y-15110674D02*
X8593205Y-15101150D01*
X8593205Y-15101150D02*
X8621777Y-15101150D01*
X8621777Y-15101150D02*
X8640825Y-15110674D01*
X8640825Y-15110674D02*
X8650348Y-15129722D01*
X8650348Y-15129722D02*
X8650348Y-15234484D01*
X8745586Y-15234484D02*
X8745586Y-15101150D01*
X8745586Y-15120198D02*
X8755110Y-15110674D01*
X8755110Y-15110674D02*
X8774158Y-15101150D01*
X8774158Y-15101150D02*
X8802729Y-15101150D01*
X8802729Y-15101150D02*
X8821777Y-15110674D01*
X8821777Y-15110674D02*
X8831301Y-15129722D01*
X8831301Y-15129722D02*
X8831301Y-15234484D01*
X8831301Y-15129722D02*
X8840825Y-15110674D01*
X8840825Y-15110674D02*
X8859872Y-15101150D01*
X8859872Y-15101150D02*
X8888444Y-15101150D01*
X8888444Y-15101150D02*
X8907491Y-15110674D01*
X8907491Y-15110674D02*
X8917015Y-15129722D01*
X8917015Y-15129722D02*
X8917015Y-15234484D01*
X9307491Y-15024960D02*
X9136063Y-15282103D01*
X9564634Y-15034484D02*
X9583682Y-15034484D01*
X9583682Y-15034484D02*
X9602729Y-15044008D01*
X9602729Y-15044008D02*
X9612253Y-15053531D01*
X9612253Y-15053531D02*
X9621777Y-15072579D01*
X9621777Y-15072579D02*
X9631301Y-15110674D01*
X9631301Y-15110674D02*
X9631301Y-15158293D01*
X9631301Y-15158293D02*
X9621777Y-15196388D01*
X9621777Y-15196388D02*
X9612253Y-15215436D01*
X9612253Y-15215436D02*
X9602729Y-15224960D01*
X9602729Y-15224960D02*
X9583682Y-15234484D01*
X9583682Y-15234484D02*
X9564634Y-15234484D01*
X9564634Y-15234484D02*
X9545587Y-15224960D01*
X9545587Y-15224960D02*
X9536063Y-15215436D01*
X9536063Y-15215436D02*
X9526539Y-15196388D01*
X9526539Y-15196388D02*
X9517015Y-15158293D01*
X9517015Y-15158293D02*
X9517015Y-15110674D01*
X9517015Y-15110674D02*
X9526539Y-15072579D01*
X9526539Y-15072579D02*
X9536063Y-15053531D01*
X9536063Y-15053531D02*
X9545587Y-15044008D01*
X9545587Y-15044008D02*
X9564634Y-15034484D01*
X9717015Y-15215436D02*
X9726539Y-15224960D01*
X9726539Y-15224960D02*
X9717015Y-15234484D01*
X9717015Y-15234484D02*
X9707491Y-15224960D01*
X9707491Y-15224960D02*
X9717015Y-15215436D01*
X9717015Y-15215436D02*
X9717015Y-15234484D01*
X9850348Y-15034484D02*
X9869396Y-15034484D01*
X9869396Y-15034484D02*
X9888444Y-15044008D01*
X9888444Y-15044008D02*
X9897968Y-15053531D01*
X9897968Y-15053531D02*
X9907491Y-15072579D01*
X9907491Y-15072579D02*
X9917015Y-15110674D01*
X9917015Y-15110674D02*
X9917015Y-15158293D01*
X9917015Y-15158293D02*
X9907491Y-15196388D01*
X9907491Y-15196388D02*
X9897968Y-15215436D01*
X9897968Y-15215436D02*
X9888444Y-15224960D01*
X9888444Y-15224960D02*
X9869396Y-15234484D01*
X9869396Y-15234484D02*
X9850348Y-15234484D01*
X9850348Y-15234484D02*
X9831301Y-15224960D01*
X9831301Y-15224960D02*
X9821777Y-15215436D01*
X9821777Y-15215436D02*
X9812253Y-15196388D01*
X9812253Y-15196388D02*
X9802729Y-15158293D01*
X9802729Y-15158293D02*
X9802729Y-15110674D01*
X9802729Y-15110674D02*
X9812253Y-15072579D01*
X9812253Y-15072579D02*
X9821777Y-15053531D01*
X9821777Y-15053531D02*
X9831301Y-15044008D01*
X9831301Y-15044008D02*
X9850348Y-15034484D01*
X9983682Y-15034484D02*
X10107491Y-15034484D01*
X10107491Y-15034484D02*
X10040825Y-15110674D01*
X10040825Y-15110674D02*
X10069396Y-15110674D01*
X10069396Y-15110674D02*
X10088444Y-15120198D01*
X10088444Y-15120198D02*
X10097968Y-15129722D01*
X10097968Y-15129722D02*
X10107491Y-15148769D01*
X10107491Y-15148769D02*
X10107491Y-15196388D01*
X10107491Y-15196388D02*
X10097968Y-15215436D01*
X10097968Y-15215436D02*
X10088444Y-15224960D01*
X10088444Y-15224960D02*
X10069396Y-15234484D01*
X10069396Y-15234484D02*
X10012253Y-15234484D01*
X10012253Y-15234484D02*
X9993206Y-15224960D01*
X9993206Y-15224960D02*
X9983682Y-15215436D01*
X10202729Y-15234484D02*
X10240825Y-15234484D01*
X10240825Y-15234484D02*
X10259872Y-15224960D01*
X10259872Y-15224960D02*
X10269396Y-15215436D01*
X10269396Y-15215436D02*
X10288444Y-15186865D01*
X10288444Y-15186865D02*
X10297968Y-15148769D01*
X10297968Y-15148769D02*
X10297968Y-15072579D01*
X10297968Y-15072579D02*
X10288444Y-15053531D01*
X10288444Y-15053531D02*
X10278920Y-15044008D01*
X10278920Y-15044008D02*
X10259872Y-15034484D01*
X10259872Y-15034484D02*
X10221777Y-15034484D01*
X10221777Y-15034484D02*
X10202729Y-15044008D01*
X10202729Y-15044008D02*
X10193206Y-15053531D01*
X10193206Y-15053531D02*
X10183682Y-15072579D01*
X10183682Y-15072579D02*
X10183682Y-15120198D01*
X10183682Y-15120198D02*
X10193206Y-15139246D01*
X10193206Y-15139246D02*
X10202729Y-15148769D01*
X10202729Y-15148769D02*
X10221777Y-15158293D01*
X10221777Y-15158293D02*
X10259872Y-15158293D01*
X10259872Y-15158293D02*
X10278920Y-15148769D01*
X10278920Y-15148769D02*
X10288444Y-15139246D01*
X10288444Y-15139246D02*
X10297968Y-15120198D01*
X10469396Y-15101150D02*
X10469396Y-15234484D01*
X10421777Y-15024960D02*
X10374158Y-15167817D01*
X10374158Y-15167817D02*
X10497968Y-15167817D01*
X10564634Y-15034484D02*
X10564634Y-15072579D01*
X10640825Y-15034484D02*
X10640825Y-15072579D01*
X10936063Y-15310674D02*
X10926539Y-15301150D01*
X10926539Y-15301150D02*
X10907491Y-15272579D01*
X10907491Y-15272579D02*
X10897968Y-15253531D01*
X10897968Y-15253531D02*
X10888444Y-15224960D01*
X10888444Y-15224960D02*
X10878920Y-15177341D01*
X10878920Y-15177341D02*
X10878920Y-15139246D01*
X10878920Y-15139246D02*
X10888444Y-15091627D01*
X10888444Y-15091627D02*
X10897968Y-15063055D01*
X10897968Y-15063055D02*
X10907491Y-15044008D01*
X10907491Y-15044008D02*
X10926539Y-15015436D01*
X10926539Y-15015436D02*
X10936063Y-15005912D01*
X11002730Y-15053531D02*
X11012253Y-15044008D01*
X11012253Y-15044008D02*
X11031301Y-15034484D01*
X11031301Y-15034484D02*
X11078920Y-15034484D01*
X11078920Y-15034484D02*
X11097968Y-15044008D01*
X11097968Y-15044008D02*
X11107491Y-15053531D01*
X11107491Y-15053531D02*
X11117015Y-15072579D01*
X11117015Y-15072579D02*
X11117015Y-15091627D01*
X11117015Y-15091627D02*
X11107491Y-15120198D01*
X11107491Y-15120198D02*
X10993206Y-15234484D01*
X10993206Y-15234484D02*
X11117015Y-15234484D01*
X11297968Y-15034484D02*
X11202729Y-15034484D01*
X11202729Y-15034484D02*
X11193206Y-15129722D01*
X11193206Y-15129722D02*
X11202729Y-15120198D01*
X11202729Y-15120198D02*
X11221777Y-15110674D01*
X11221777Y-15110674D02*
X11269396Y-15110674D01*
X11269396Y-15110674D02*
X11288444Y-15120198D01*
X11288444Y-15120198D02*
X11297968Y-15129722D01*
X11297968Y-15129722D02*
X11307491Y-15148769D01*
X11307491Y-15148769D02*
X11307491Y-15196388D01*
X11307491Y-15196388D02*
X11297968Y-15215436D01*
X11297968Y-15215436D02*
X11288444Y-15224960D01*
X11288444Y-15224960D02*
X11269396Y-15234484D01*
X11269396Y-15234484D02*
X11221777Y-15234484D01*
X11221777Y-15234484D02*
X11202729Y-15224960D01*
X11202729Y-15224960D02*
X11193206Y-15215436D01*
X11374158Y-15034484D02*
X11507491Y-15034484D01*
X11507491Y-15034484D02*
X11421777Y-15234484D01*
X11736063Y-15234484D02*
X11736063Y-15034484D01*
X11821777Y-15234484D02*
X11821777Y-15129722D01*
X11821777Y-15129722D02*
X11812253Y-15110674D01*
X11812253Y-15110674D02*
X11793206Y-15101150D01*
X11793206Y-15101150D02*
X11764634Y-15101150D01*
X11764634Y-15101150D02*
X11745587Y-15110674D01*
X11745587Y-15110674D02*
X11736063Y-15120198D01*
X11945587Y-15234484D02*
X11926539Y-15224960D01*
X11926539Y-15224960D02*
X11917015Y-15215436D01*
X11917015Y-15215436D02*
X11907491Y-15196388D01*
X11907491Y-15196388D02*
X11907491Y-15139246D01*
X11907491Y-15139246D02*
X11917015Y-15120198D01*
X11917015Y-15120198D02*
X11926539Y-15110674D01*
X11926539Y-15110674D02*
X11945587Y-15101150D01*
X11945587Y-15101150D02*
X11974158Y-15101150D01*
X11974158Y-15101150D02*
X11993206Y-15110674D01*
X11993206Y-15110674D02*
X12002730Y-15120198D01*
X12002730Y-15120198D02*
X12012253Y-15139246D01*
X12012253Y-15139246D02*
X12012253Y-15196388D01*
X12012253Y-15196388D02*
X12002730Y-15215436D01*
X12002730Y-15215436D02*
X11993206Y-15224960D01*
X11993206Y-15224960D02*
X11974158Y-15234484D01*
X11974158Y-15234484D02*
X11945587Y-15234484D01*
X12126539Y-15234484D02*
X12107491Y-15224960D01*
X12107491Y-15224960D02*
X12097968Y-15205912D01*
X12097968Y-15205912D02*
X12097968Y-15034484D01*
X12278920Y-15224960D02*
X12259872Y-15234484D01*
X12259872Y-15234484D02*
X12221777Y-15234484D01*
X12221777Y-15234484D02*
X12202730Y-15224960D01*
X12202730Y-15224960D02*
X12193206Y-15205912D01*
X12193206Y-15205912D02*
X12193206Y-15129722D01*
X12193206Y-15129722D02*
X12202730Y-15110674D01*
X12202730Y-15110674D02*
X12221777Y-15101150D01*
X12221777Y-15101150D02*
X12259872Y-15101150D01*
X12259872Y-15101150D02*
X12278920Y-15110674D01*
X12278920Y-15110674D02*
X12288444Y-15129722D01*
X12288444Y-15129722D02*
X12288444Y-15148769D01*
X12288444Y-15148769D02*
X12193206Y-15167817D01*
X12364634Y-15224960D02*
X12383682Y-15234484D01*
X12383682Y-15234484D02*
X12421777Y-15234484D01*
X12421777Y-15234484D02*
X12440825Y-15224960D01*
X12440825Y-15224960D02*
X12450349Y-15205912D01*
X12450349Y-15205912D02*
X12450349Y-15196388D01*
X12450349Y-15196388D02*
X12440825Y-15177341D01*
X12440825Y-15177341D02*
X12421777Y-15167817D01*
X12421777Y-15167817D02*
X12393206Y-15167817D01*
X12393206Y-15167817D02*
X12374158Y-15158293D01*
X12374158Y-15158293D02*
X12364634Y-15139246D01*
X12364634Y-15139246D02*
X12364634Y-15129722D01*
X12364634Y-15129722D02*
X12374158Y-15110674D01*
X12374158Y-15110674D02*
X12393206Y-15101150D01*
X12393206Y-15101150D02*
X12421777Y-15101150D01*
X12421777Y-15101150D02*
X12440825Y-15110674D01*
X12517015Y-15310674D02*
X12526539Y-15301150D01*
X12526539Y-15301150D02*
X12545587Y-15272579D01*
X12545587Y-15272579D02*
X12555111Y-15253531D01*
X12555111Y-15253531D02*
X12564634Y-15224960D01*
X12564634Y-15224960D02*
X12574158Y-15177341D01*
X12574158Y-15177341D02*
X12574158Y-15139246D01*
X12574158Y-15139246D02*
X12564634Y-15091627D01*
X12564634Y-15091627D02*
X12555111Y-15063055D01*
X12555111Y-15063055D02*
X12545587Y-15044008D01*
X12545587Y-15044008D02*
X12526539Y-15015436D01*
X12526539Y-15015436D02*
X12517015Y-15005912D01*
M02*
